<?xml version="1.0" encoding="UTF-8"?>
<svg id="Layer_1" xmlns="http://www.w3.org/2000/svg" version="1.1" viewBox="0 0 82 103.5">
  <!-- Generator: Adobe Illustrator 29.0.1, SVG Export Plug-In . SVG Version: 2.1.0 Build 192)  -->
  <defs>
    <style>
      .st0, .st1, .st2 {
        stroke: #231f20;
      }

      .st0, .st3 {
        stroke-width: .5px;
      }

      .st0, .st2 {
        fill: none;
        stroke-linejoin: bevel;
      }

      .st1 {
        fill: #fff;
      }

      .st1, .st3, .st4, .st5 {
        stroke-miterlimit: 10;
      }

      .st3, .st4, .st5 {
        fill: #1f1f1f;
        stroke: #666766;
      }

      .st5, .st2 {
        stroke-width: .2px;
      }
    </style>
  </defs>
  <g id="Layer_2">
    <g>
      <path class="st2" d="M82.6,21.9"/>
      <path class="st2" d="M82.6,16.6"/>
      <path class="st0" d="M82.4,21.6"/>
      <path class="st0" d="M82.4,16.6"/>
      <path class="st1" d="M79.5,53.5"/>
      <path class="st1" d="M79.5,17.9"/>
      <path class="st1" d="M79.5,51.8"/>
      <path class="st1" d="M79.5,87.3"/>
      <path class="st3" d="M41.7-3.2"/>
      <path class="st4" d="M67.4,90H15.9c0,1.1-.9,2-2,2v5.6c1.1,0,2,.9,2,2h51.5c0-1.1.9-2,2-2v-5.6c-1.1,0-2-.9-2-2Z"/>
      <path class="st3" d="M65.2,91.8H18.1c0,1.1-.9,2-2,2v2c1.1,0,2,.9,2,2h47.1c0-1.1.9-2,2-2v-2c-1.1,0-2-.9-2-2Z"/>
      <path class="st1" d="M3.9,53.5"/>
      <path class="st1" d="M3.9,17.9"/>
      <path class="st4" d="M8.6,94.8c0-2.6-2.1-4.8-4.7-4.8v4.8h4.7Z"/>
      <path class="st4" d="M79.5,17.9v69.4c-4.1,0-7.5,3.3-7.5,7.5H11.3c0-4.1-3.3-7.5-7.5-7.5V17.9c4.1,0,7.4-4.6,7.4-8.7h60.8c0,4.1,3.3,8.7,7.5,8.7Z"/>
      <path class="st3" d="M76.7,20.5v64.2c-4.1,0-7.5,3.3-7.5,7.5H14.1c0-4.1-3.3-7.5-7.5-7.5V20.5c4.1,0,7.5-3.3,7.5-7.5h55.2c0,4.1,3.3,7.5,7.5,7.5h0Z"/>
      <path class="st4" d="M74.9,94.8c0-2.6,2.1-4.8,4.7-4.8v4.8h-4.7Z"/>
      <path class="st5" d="M42.5,73.3c-11.7,0-21.5,6.6-21.9,14.9s8.7,15,20.4,15.1c11.7,0,21.5-6.6,21.9-14.9s-8.7-15.1-20.4-15.1ZM40.8,100.6c-10.2,0-18.1-5.6-17.7-12.5.4-6.8,8.9-12.3,19-12.3s18.1,5.6,17.7,12.5-8.9,12.3-19.1,12.3h0Z"/>
      <path class="st5" d="M60.1,88.3c-.4,6.8-8.9,12.3-19.1,12.3s-18.1-5.6-17.7-12.5c.4-6.8,8.9-12.3,19-12.3s18.1,5.6,17.7,12.5h.1Z"/>
      <path class="st3" d="M41.7,10.5"/>
      <path class="st0" d="M79.3,15.9"/>
      <path class="st0" d="M79.3,22.7"/>
      <path class="st2" d="M79.3,22.7"/>
      <path class="st2" d="M79.3,15.9"/>
      <path class="st0" d="M79.3,22.6"/>
      <path class="st0" d="M79.3,15.6"/>
      <path class="st2" d="M3.6,22.7"/>
      <path class="st2" d="M3.6,15.9"/>
      <path class="st2" d="M.1,21.9"/>
      <path class="st2" d="M.1,16.6"/>
      <path class="st0" d="M.3,21.6"/>
      <path class="st0" d="M.3,16.6"/>
      <path class="st0" d="M3.6,22.6"/>
      <path class="st0" d="M3.6,15.6"/>
      <polyline class="st3" points="41.7 9.4 59.7 9.4 61.3 6.3 55.4 6.3 54.2 9.4 55.9 5.1 50.2 5.1 48.9 9.4 50.7 3.3 45.5 3.3 44.2 9.4 46 .8 41.7 .8 37.4 .8 39.1 9.4 37.9 3.3 32.6 3.3 34.4 9.4 33.2 5.1 27.4 5.1 29.2 9.4 27.9 6.3 22 6.3 23.6 9.4 41.7 9.4"/>
    </g>
  </g>
</svg>