<?xml version="1.0" encoding="UTF-8"?>
<svg id="Layer_1" xmlns="http://www.w3.org/2000/svg" version="1.1" xmlns:xlink="http://www.w3.org/1999/xlink" viewBox="0 0 61 453">
  <!-- Generator: Adobe Illustrator 29.0.1, SVG Export Plug-In . SVG Version: 2.1.0 Build 192)  -->
  <defs>
    <style>
      .st0, .st1, .st2 {
        stroke: #fff;
      }

      .st0, .st1, .st2, .st3, .st4, .st5 {
        stroke-miterlimit: 10;
      }

      .st0, .st2, .st6, .st3, .st4, .st5 {
        fill: none;
      }

      .st0, .st4, .st5 {
        stroke-width: .2px;
      }

      .st7 {
        opacity: .3;
      }

      .st1 {
        fill: #fff;
      }

      .st2, .st3 {
        stroke-width: .5px;
      }

      .st3, .st5 {
        stroke: #333;
      }

      .st4 {
        stroke: #1f1f1f;
      }

      .st8 {
        fill: #333;
      }

      .st9 {
        display: none;
      }

      .st10 {
        fill: #353535;
      }

      .st11 {
        opacity: .7;
      }

      .st12 {
        clip-path: url(#clippath);
      }
    </style>
    <clipPath id="clippath">
      <rect class="st6" width="60.4" height="453"/>
    </clipPath>
  </defs>
  <g id="Layer_11" data-name="Layer_1" class="st9">
    <g class="st12">
      <path class="st10" d="M15.7,445.4c.6-.6,1.2-1.1,1.9-1.6-3.1,1-6.4,1.4-9.7,1.1,1.1.4,2.3.5,3.4.5,0,0,4.4,0,4.4,0ZM1.2,433.4l-1.2-4.4v9.3c.2.4.5.8.9,1.2-.4-2-.3-4.1.3-6.1ZM38.8,448.9h-.9c-2.1,1.9-4.8,2.9-7.7,2.9s-5.6-1-7.7-2.9h-.9c.3.3.6.5.9.8h.4s.1,0,.2.1c0,0,0,.1.1.2v.2c2,1.5,4.5,2.2,7,2.2s5-.8,7-2.2v-.2s0-.1,0-.2c0,0,0,0,.2-.1h.4c.3-.2.6-.5.9-.8h0ZM60.4,439.6v1.8c-3.4,3.6-7.7,6.2-12.6,7.4h-8.4c-.3.4-.6.7-1,1h13.7l.7-1h-3.2c4-1.3,7.7-3.6,10.6-6.7v2.5s-3.7,2.2-4.6,4.1h-2l-1.3,1.7h-7.3c-2.8.4-6.4,1-8.1,2.2,0,0-1.2.7-1.2-.5s2.7-1.3,4.9-1.7h-2.7s0,0-.2.1h-.2c0,0-.2,0-.3-.1-2.1,1.5-4.7,2.3-7.2,2.3s-5.1-.8-7.2-2.3c0,0-.2.1-.3.1h-.2s-.1,0-.2-.1h-2.7c2.1.4,4.9,1,4.9,1.7,0,1.2-1.2.5-1.2.5-1.7-1.2-5.2-1.8-8.1-2.2h-7.3l-1.3-1.7h-2c-.9-2-4.6-4.1-4.6-4.1v-2.5c3,3,6.6,5.3,10.6,6.7h-3.2l.7,1h13.7c-.3-.3-.7-.6-1-1h-8.3c-4.8-1.2-9.2-3.8-12.6-7.4v-1.8c2,2.7,5.7,6.5,11.3,6.5h12.4c0,.1.2.2.3.3.1,0,.3.1.4.1.2,0,.4,0,.6-.2s.2-.3.2-.6,0-.4-.2-.6-.3-.2-.6-.2-.3,0-.4.1c-.1,0-.2.2-.3.3h-6.9c3.6-3.3,8.4-5.2,13.4-5.2s9.7,1.9,13.4,5.2h-6.9c0-.1-.2-.2-.3-.3,0,0-.3-.1-.4-.1-.2,0-.4,0-.6.2s-.2.3-.2.6,0,.4.2.6c0,.1.3.2.6.2s.3,0,.4-.1c0,0,.2-.2.3-.3h12.4c5.6,0,9.3-3.7,11.3-6.5h.3ZM59.5,439.6c.3-.5.6-.9.9-1.2v-9.3l-1.2,4.4c.6,2,.7,4.1.3,6.1h0ZM49.1,445.3c1.2,0,2.3-.2,3.4-.6-3.3.3-6.6,0-9.7-1.1.7.5,1.3,1,1.9,1.6h4.4,0ZM49.1,7.6h-4.4c-.6.6-1.2,1.1-1.9,1.6,3.1-1,6.4-1.4,9.7-1.1-1.1-.4-2.3-.5-3.4-.6h0ZM59.2,19.6l1.2,4.4v-9.3c-.2-.4-.5-.8-.9-1.2.4,2,.3,4.1-.3,6.1ZM37.9,3.3h-.2c0,0-.3,0-.4-.2,0,0-.2-.2-.2-.4-2-1.5-4.5-2.2-7-2.2s-5,.8-7,2.2c0,0,0,.3-.2.4-.1,0-.2.2-.4.2h-.2c-.3.2-.6.5-.9.8h.9c2.1-1.9,4.8-3,7.7-3s5.6,1.1,7.7,3h.9c-.3-.3-.6-.5-.9-.8h.2ZM49.8,4.1h3.2l-.7-1h-13.7c.3.3.7.6,1,1h8.4c4.8,1.2,9.2,3.8,12.6,7.4v1.8c-2-2.7-5.7-6.5-11.3-6.5h-12.4c0,0-.2-.2-.3-.3,0,0-.3,0-.4,0-.2,0-.3,0-.4.3,0,0-.2.3-.2.5s0,.4.2.5c0,0,.3.2.4.3,0,0,.3,0,.4,0,0,0,.2-.2.3-.3h6.9c-3.6,3.3-8.4,5.2-13.4,5.2s-9.7-1.8-13.4-5.1h6.9c0,0,.2.2.3.3.1,0,.3,0,.4,0h.4c.1,0,.2-.2.3-.3,0,0,.1-.3.1-.4s0-.3-.1-.4c0,0-.2-.2-.3-.3-.1,0-.3,0-.4,0s-.3,0-.4,0c-.1,0-.2.2-.3.3h-12.4C5.9,7,2.2,10.7.2,13.5v-1.8c3.4-3.6,7.7-6.2,12.6-7.4h8.4c.3-.3.6-.7,1-1h-13.7l-.7,1h3.2C6.6,5.5,3,7.7,0,10.8v-2.5s3.7-2.2,4.6-4.1h2l1.2-1.7h7.3c2.8-.4,6.4-1,8.1-2.2,0,0,1.2-.7,1.2.5s-2.7,1.4-4.9,1.7h2.7c.1,0,.2-.2.4-.2s.2,0,.3,0c2.2-1.5,4.7-2.4,7.3-2.4s5.1.8,7.2,2.3c0,0,.2,0,.4,0s.3,0,.3,0h2.7c-2.1-.3-4.9-.9-4.9-1.7,0-1.2,1.2-.5,1.2-.5,1.7,1.2,5.2,1.8,8.1,2.2h7.3l1.3,1.7h2c.9,2,4.6,4.2,4.6,4.2v2.5c-3-3-6.6-5.3-10.6-6.7h0ZM58.8,19.5c.6-2.3.7-4.7,0-6.9-1-1.2-2.1-2.2-3.3-3-4.9-2.4-12,0-14,.6-3.3,2.2-7.2,3.3-11.2,3.3s-7.9-1.1-11.3-3.3c-2.1-.7-9.2-3-14.1-.6-1.2.8-2.4,1.8-3.3,3-.6,2.3-.5,4.7.1,6.9h0c0,.1-1.7,6.3-1.7,6.3v401.3l1.7,6.3h0c-.6,2.3-.7,4.7-.1,7,1,1.2,2.1,2.2,3.3,3,4.9,2.4,12,0,14-.7,3.3-2.2,7.2-3.3,11.2-3.3s7.9,1.2,11.2,3.3c2.1.8,9.2,3,14.1.6,1.2-.8,2.4-1.8,3.3-3,.6-2.3.6-4.7,0-6.9h0c0-.1,1.7-6.4,1.7-6.4V25.9l-1.7-6.3h0ZM.9,13.4c-.3.4-.6.9-.9,1.2v9.3l1.2-4.4c-.6-2-.7-4.1-.3-6.1ZM7.9,8.2c1.1-.4,2.3-.5,3.4-.6h4.4c.6.6,1.2,1.1,1.9,1.6-3.1-1-6.4-1.4-9.7-1.1"/>
    </g>
  </g>
  <g id="Layer_4" class="st7">
    <g class="st11">
      <g>
        <ellipse class="st8" cx="30.3" cy="444.7" rx="8.1" ry="6.6"/>
        <ellipse class="st3" cx="30.3" cy="444.4" rx="10.1" ry="8"/>
        <path class="st3" d="M8.1,448.3v1.9h9.4v2.2h-2.3v-1.4h1.2v1"/>
        <path class="st3" d="M52.4,448.3v1.9h-9.4v2.2h2.3v-1.4h-1.2v1"/>
        <ellipse class="st8" cx="30.3" cy="8.3" rx="8.1" ry="6.6"/>
        <ellipse class="st3" cx="30.3" cy="8.6" rx="10.1" ry="8"/>
        <path class="st3" d="M8.1,4.7v-1.9h9.4V.6h-2.3v1.4h1.2v-1"/>
        <path class="st3" d="M52.4,4.7v-1.9h-9.4V.6h2.3v1.4h-1.2v-1"/>
      </g>
      <g>
        <path class="st8" d="M57.5,449.3H3.2l-3-3V6.6l3-3h54.2l3,3v439.7l-3,3h0Z"/>
        <g>
          <polygon class="st2" points="52.3 11.4 55.6 11.4 55.6 14.7 57.9 12.5 58 5.9 51.2 5.9 49 8.2 52.3 8.2 52.3 11.4"/>
          <path class="st4" d="M57.9,5.8"/>
          <polygon class="st1" points="52.3 8.2 54.5 6 55.6 11.4 57.8 9.3 52.3 8.2"/>
          <polygon class="st2" points="55.6 11.4 52.3 11.4 52.3 8.2 54.5 6.2 57.8 6.2 57.8 9.4 55.6 11.4"/>
          <polygon class="st2" points="8.4 11.4 5.1 11.4 5.1 14.7 2.8 12.5 2.7 5.9 9.5 5.9 11.7 8.2 8.4 8.2 8.4 11.4"/>
          <path class="st4" d="M2.8,5.8"/>
          <polygon class="st1" points="8.4 8.2 6.2 6 5.1 11.4 2.9 9.3 8.4 8.2"/>
          <polygon class="st2" points="5.1 11.4 8.4 11.4 8.4 8.2 6.2 6.2 2.9 6.2 2.9 9.4 5.1 11.4"/>
          <path class="st4" d="M59.3,10.9"/>
          <path class="st4" d="M6,448.3"/>
          <polygon class="st2" points="52.3 441.6 55.6 441.6 55.6 438.3 57.9 440.5 58 447.1 51.2 447.1 49 444.8 52.3 444.8 52.3 441.6"/>
          <path class="st4" d="M57.9,447.2"/>
          <polygon class="st1" points="52.3 444.8 54.5 447 55.6 441.6 57.8 443.7 52.3 444.8"/>
          <polygon class="st2" points="55.6 441.6 52.3 441.6 52.3 444.8 54.5 446.8 57.8 446.8 57.8 443.6 55.6 441.6"/>
          <polygon class="st2" points="8.4 441.6 5.1 441.6 5.1 438.3 2.8 440.5 2.7 447.1 9.5 447.1 11.7 444.8 8.4 444.8 8.4 441.6"/>
          <path class="st4" d="M2.8,447.2"/>
          <polygon class="st1" points="8.4 444.8 6.2 447 5.1 441.6 2.9 443.7 8.4 444.8"/>
          <polygon class="st2" points="5.1 441.6 8.4 441.6 8.4 444.8 6.2 446.8 2.9 446.8 2.9 443.6 5.1 441.6"/>
        </g>
      </g>
      <rect class="st2" x="1.9" y="5.2" width="56.8" height="442.7"/>
      <rect class="st0" x="1.4" y="4.7" width="57.9" height="443.7"/>
      <path class="st5" d="M2.4,3.6h56.1l2,2v441.7l-2,2H2.4l-2-2V5.6l2-2Z"/>
    </g>
  </g>
</svg>