<?xml version="1.0" encoding="UTF-8"?>
<svg xmlns="http://www.w3.org/2000/svg" version="1.1" viewBox="0 0 82 103.5">
  <!-- Generator: Adobe Illustrator 29.0.1, SVG Export Plug-In . SVG Version: 2.1.0 Build 192)  -->
  <defs>
    <style>
      .st0, .st1 {
        stroke-width: .5px;
      }

      .st0, .st2, .st3, .st4 {
        stroke-miterlimit: 10;
      }

      .st0, .st3, .st4 {
        fill: #1f1f1f;
        stroke: #666766;
      }

      .st1, .st2, .st5 {
        stroke: #231f20;
      }

      .st1, .st5 {
        fill: none;
        stroke-linejoin: bevel;
      }

      .st2 {
        fill: #fff;
      }

      .st5, .st4 {
        stroke-width: .2px;
      }

      .st6 {
        fill: #666;
      }

      .st6, .st7 {
        opacity: .4;
      }

      .st7 {
        fill: #1f1f1f;
      }
    </style>
  </defs>
  <g id="Layer_1">
    <path class="st7" d="M1.2,38.1c2,11,2.8,22.1,2.3,33.3,0,0-4.8,4.8.4,12.7l-.4,8.5h75.1l-.4-8.5c5.2-7.9.4-12.7.4-12.7-.5-11.1.3-22.3,2.3-33.2l-2.2-1.6c.7-2,1.2-4.1,1.7-6.2l-1.5-17.9c-4.4,1.8-7.2-4.8-7.2-4.8H10.4s-2.8,6.6-7.2,4.8l-1.5,17.8c.4,2.1,1,4.2,1.7,6.2l-2.2,1.7Z"/>
    <path class="st7" d="M41,73.7c10.4,0,18.8,5.7,18.8,12.7s-8.4,12.7-18.8,12.7-18.8-5.7-18.8-12.7,8.4-12.7,18.8-12.7"/>
    <path class="st7" d="M41,101.1c11.4,0,20.7-6.6,20.7-14.6s-9.2-14.7-20.7-14.7-20.7,6.6-20.7,14.7,9.2,14.6,20.7,14.6ZM41,97.3c-9.1,0-16.9-4.9-16.9-10.8s7.7-10.8,16.9-10.8,16.9,4.9,16.9,10.8-7.7,10.8-16.9,10.8"/>
    <path class="st6" d="M4.3,56.3c.1-6.3-.2-12.6-.9-18.8-.4.4-.8.7-1.3,1.1,1,3.3,1.6,12,2.2,17.7ZM4.3,91.6h7.3c-2.1-1.4-4.5-2.4-7-2.8,0,1.2-.2,2.1-.2,2.8h0ZM4.6,87.4c.6,0,1.2.2,1.8.4-.6-.6-1.1-1.2-1.7-1.9,0,.5,0,1-.1,1.5h0ZM20.2,98.2c-1.7,0-3.5.1-5.1.6,2.8,1.2,6.3,2.2,7.4,1.6h0c-.4-.4-1.2-1.2-2.3-2.2h0ZM41,100.1c7,0,13.2-2.6,16.7-6.4.3-.3.5-.6.8-1h0c.2-.4.4-.7.6-1,1-1.5,1.5-3.3,1.5-5.1,0-7.5-8.8-13.6-19.6-13.6s-19.6,6.1-19.6,13.6c0,1.8.6,3.6,1.5,5.1.2.3.4.6.6.9h0c.2.4.5.7.8,1.1,3.5,3.9,9.6,6.4,16.7,6.4h0ZM59.5,100.5h0c1.1.6,4.6-.5,7.4-1.6-1.7-.5-3.4-.7-5.1-.6-1.1,1-1.9,1.7-2.3,2.2h0ZM70.6,91.6h7.3c0-.7-.2-1.6-.2-2.8-2.5.5-4.9,1.4-7,2.8h0ZM75.7,87.7c.6-.2,1.2-.3,1.8-.4,0-.5,0-1-.1-1.5-.6.7-1.2,1.3-1.7,1.9h0ZM77.9,56.3c.5-5.7,1.3-14.4,2.2-17.7-.5-.3-.9-.7-1.3-1.1-.7,6.2-1,12.5-.9,18.8h0ZM2.4,87.2h.3c0-1.1.2-2.4.2-3.8-1.2-1.8-2-3.8-2.2-6-.1-1.3,0-2.7.5-4,.5-1.3,1.2-2.4,2.1-3.4v-1.2s-1.4-26.2-2.7-30.3l-.2-.5.5-.3c.8-.5,1.5-1.2,2.2-1.9.7-.6,1.2-1.4,1.5-2.3.5-1.1.7-2.3.4-3.4,0-.1-.6-1.4-1.1-3l-.3,2.9c.3.8.5,1.7.7,2.5-.3.8-.9,1.5-1.5,2.1-.3-1.4-.6-2.8-1.1-4.1v-.2l1.2-13.9c.2,2.3.7,4.5,1.4,6.6.5,2.3,1.2,4.5,2.1,6.7.2,1,.2,2.1,0,3.1-.2,1-.7,2-1.3,2.8,1.7,9.4,0,43-.2,46.9-.8-1.1-1.4-2.3-1.8-3.5,0-2,.1-4.2.2-6.5-.9,1.4-1.3,3.1-1.2,4.8.2,2,1,3.9,2.1,5.5,0,0,0,.2.2.2.1.2.3.4.4.6h0c1.7,2.2,3.7,4.2,5.9,5.8,1.2.6,2.4,1.4,3.5,2.1l.3.2c.8.5,1.5,1.1,2.3,1.7h.2c1.4,1.2,2.7,2.3,3.8,3.2,1.4,0,2.8.1,4,.2-1.2-1-2.3-2.1-3.2-3.3h-3.4l-2.5-2h2.3c-.5-1.4-.8-2.8-.9-4.2-.5.9-1.3,1.5-2.3,1.9-1,.3-2,.3-3,0,.6.2,3.1.5,5.3-4.2.2-2.1,1.1-4,2.6-5.4-1.7,3.2-2,7-1,10.4.2.2.4.4.6.5.2.1.5.2.8.2-.6-1.4-.9-2.8-.9-4.3,0-8.7,9.8-15.8,21.8-15.8s21.8,7.1,21.8,15.8c0,1.5-.3,2.9-.8,4.3.3,0,.5,0,.7-.2.2-.1.4-.3.6-.5.5-1.7.7-3.5.6-5.3-.2-1.8-.7-3.5-1.5-5.1,1.5,1.4,2.4,3.4,2.5,5.4h0c2.2,4.6,4.7,4.3,5.3,4.2-1,.4-2,.4-3,0-1-.3-1.8-1-2.3-1.9-.1,1.4-.4,2.9-.9,4.2h2.3l-2.5,2h-3.4c-.9,1.3-2,2.4-3.2,3.4,1.2-.1,2.6-.2,4-.2,1.1-1,2.4-2.1,3.8-3.1h.2c.7-.7,1.5-1.3,2.3-1.8l.2-.2c1.1-.8,2.3-1.5,3.5-2.1,2.2-1.7,4.1-3.6,5.8-5.8l.5-.6.2-.2c1.1-1.6,1.9-3.5,2.1-5.5.1-1.7-.3-3.4-1.2-4.8,0,2.3,0,4.5.2,6.5-.5,1.3-1.1,2.4-1.8,3.5-.2-3.9-1.8-37.5-.2-46.9-.7-.9-1.1-1.8-1.3-2.9-.2-1.1-.2-2.1,0-3.2.9-2.2,1.6-4.4,2.1-6.8.7-2.2,1.2-4.4,1.4-6.6l1.2,14v.2c-.5,1.4-.8,2.7-1.1,4.1-.7-.5-1.2-1.3-1.5-2.1.2-.9.4-1.7.7-2.5l-.3-2.9c-.5,1.6-1.1,2.9-1.1,3-.3,1.2-.1,2.4.4,3.4.3.9.9,1.6,1.5,2.3.7.7,1.4,1.4,2.2,1.9l.5.3-.2.5c-1.3,4.2-2.7,30.3-2.7,30.3v1.2c.9,1,1.6,2.1,2.1,3.4.5,1.3.6,2.6.5,4-.3,2.1-1,4.2-2.2,6,0,1.4.2,2.7.2,3.8h.3c1.5-.1,2.8.7,2.2,1.8-.2.3-.4.6-.7.8s-.6.3-1,.4c.3-.2.6-.5.8-.9.2-.3,0-.4-.1-.5-.1,0-.3,0-.4,0h0c-.3,0-.6,0-.9,0,.2,2.3.3,3.8.3,3.8v1.1c.1,0-12.3,0-12.3,0-1.5,1.1-2.9,2.2-4.1,3.2,2.5,0,5,.7,7.1,2.1l-2.8,1c-1.7.8-3.6,1.3-5.4,1.8h-.6c-9.8,1.7-10.8.8-10.8.8,2.5,0,5-1,6.9-2.8l.2-.2c.1-.1.6-.6,1.5-1.4h-1.8c0,.1-.4.1-.4.1-.4,0-.8.1-1.2.2l-.9.3h-.1c-.3.1-.7.3-1,.4h-.1c-.3.2-.5.4-.8.6l-.2.2c-.3.3-.5.5-.8.9l-8,.9c-2.2.3-4.4.3-6.5,0h0l-8-.9c-.2-.3-.5-.6-.8-.9l-.2-.2c-.3-.2-.5-.4-.8-.6h0c-.3-.2-.6-.3-1-.4h-.2l-.9-.3c-.4,0-.8-.2-1.2-.2h-2.2c.8.7,1.4,1.2,1.5,1.3l.2.2c1.9,1.8,4.3,2.7,6.9,2.8,0,0-1,.9-10.8-.8h-.6c-1.9-.4-3.7-1-5.4-1.8h0l-2.8-1.1c2.1-1.5,4.6-2.2,7.1-2.1-1.2-1-2.6-2.1-4.1-3.2H2.1v-1.1c.1,0,.3-1.5.5-3.8-.3,0-.6,0-.8,0h-.4c-.2,0-.3.2-.1.5.2.3.4.7.8.9-.4,0-.7-.2-1-.4-.3-.2-.5-.5-.7-.8-.6-1.1.7-1.9,2.2-1.8h0ZM4.6,20.4c-.8-2.5-1.3-5-1.5-7.6v-.4l.6-.2c1.5-.5,5.7-2.3,5.7-4.7v-1h63v1c0,2.4,4.2,4.3,5.7,4.7l.6.2v.4c-.2,2.6-.7,5.1-1.4,7.6l-.4-6.5c-1.6-.6-5.6-2.4-6.4-5.4H11.4c-.7,3.1-4.7,4.8-6.4,5.4l-.4,6.5Z"/>
  </g>
  <g id="Layer_2">
    <g>
      <path class="st5" d="M82.2,21.9"/>
      <path class="st5" d="M82.2,16.6"/>
      <path class="st1" d="M82,21.6"/>
      <path class="st1" d="M82,16.6"/>
      <path class="st2" d="M79.1,53.5"/>
      <path class="st2" d="M79.1,17.9"/>
      <path class="st2" d="M79.1,51.8"/>
      <path class="st2" d="M79.1,87.3"/>
      <path class="st0" d="M41.3-3.2"/>
      <path class="st3" d="M67,90H15.5c0,1.1-.9,2-2,2v5.6c1.1,0,2,.9,2,2h51.5c0-1.1.9-2,2-2v-5.6c-1.1,0-2-.9-2-2Z"/>
      <path class="st0" d="M64.8,91.8H17.7c0,1.1-.9,2-2,2v2c1.1,0,2,.9,2,2h47.1c0-1.1.9-2,2-2v-2c-1.1,0-2-.9-2-2Z"/>
      <path class="st2" d="M3.5,53.5"/>
      <path class="st2" d="M3.5,17.9"/>
      <path class="st3" d="M8.2,94.8c0-2.6-2.1-4.8-4.7-4.8v4.8h4.7Z"/>
      <path class="st3" d="M79.1,17.9v69.4c-4.1,0-7.5,3.3-7.5,7.5H10.9c0-4.1-3.3-7.5-7.5-7.5V17.9c4.1,0,7.4-4.6,7.4-8.7h60.8c0,4.1,3.3,8.7,7.5,8.7Z"/>
      <path class="st0" d="M76.3,20.5v64.2c-4.1,0-7.5,3.3-7.5,7.5H13.7c0-4.1-3.3-7.5-7.5-7.5V20.5c4.1,0,7.5-3.3,7.5-7.5h55.2c0,4.1,3.3,7.5,7.5,7.5Z"/>
      <path class="st3" d="M74.5,94.8c0-2.6,2.1-4.8,4.7-4.8v4.8h-4.7Z"/>
      <path class="st4" d="M42.1,73.3c-11.7,0-21.5,6.6-21.9,14.9-.4,8.3,8.7,15,20.4,15.1,11.7,0,21.5-6.6,21.9-14.9.4-8.3-8.7-15.1-20.4-15.1ZM40.4,100.6c-10.2,0-18.1-5.6-17.7-12.5.4-6.8,8.9-12.3,19-12.3,10.2,0,18.1,5.6,17.7,12.5s-8.9,12.3-19.1,12.3Z"/>
      <path class="st4" d="M59.7,88.3c-.4,6.8-8.9,12.3-19.1,12.3-10.2,0-18.1-5.6-17.7-12.5.4-6.8,8.9-12.3,19-12.3,10.2,0,18.1,5.6,17.7,12.5Z"/>
      <path class="st0" d="M41.3,10.5"/>
      <path class="st1" d="M78.9,15.9"/>
      <path class="st1" d="M78.9,22.7"/>
      <path class="st5" d="M78.9,22.7"/>
      <path class="st5" d="M78.9,15.9"/>
      <path class="st1" d="M78.9,22.6"/>
      <path class="st1" d="M78.9,15.6"/>
      <path class="st5" d="M3.2,22.7"/>
      <path class="st5" d="M3.2,15.9"/>
      <path class="st5" d="M-.3,21.9"/>
      <path class="st5" d="M-.3,16.6"/>
      <path class="st1" d="M-.1,21.6"/>
      <path class="st1" d="M-.1,16.6"/>
      <path class="st1" d="M3.2,22.6"/>
      <path class="st1" d="M3.2,15.6"/>
      <polyline class="st0" points="41.3 9.4 59.3 9.4 60.9 6.3 55 6.3 53.8 9.4 55.5 5.1 49.8 5.1 48.5 9.4 50.3 3.3 45.1 3.3 43.8 9.4 45.6 .8 41.3 .8 37 .8 38.7 9.4 37.5 3.3 32.2 3.3 34 9.4 32.8 5.1 27 5.1 28.8 9.4 27.5 6.3 21.6 6.3 23.2 9.4 41.3 9.4"/>
    </g>
  </g>
</svg>