<?xml version="1.0" encoding="UTF-8"?>
<svg xmlns="http://www.w3.org/2000/svg" version="1.1" viewBox="0 0 83 95">
  <!-- Generator: Adobe Illustrator 29.0.1, SVG Export Plug-In . SVG Version: 2.1.0 Build 192)  -->
  <defs>
    <style>
      .st0 {
        stroke-width: 2px;
      }

      .st0, .st1, .st2, .st3, .st4 {
        stroke-miterlimit: 10;
      }

      .st0, .st5, .st2, .st3, .st6 {
        stroke: #231f20;
      }

      .st0, .st2, .st3, .st6 {
        fill: #fff;
      }

      .st1 {
        stroke-width: .8px;
      }

      .st1, .st7, .st4 {
        fill: #333;
      }

      .st1, .st7, .st4, .st8 {
        stroke: #1f1f1f;
      }

      .st5, .st7, .st6, .st8 {
        stroke-linejoin: bevel;
      }

      .st5, .st6 {
        stroke-width: .2px;
      }

      .st5, .st8 {
        fill: none;
      }

      .st9 {
        fill: #353535;
      }

      .st9, .st10 {
        isolation: isolate;
        opacity: .4;
      }

      .st7, .st8 {
        stroke-width: .2px;
      }

      .st2 {
        stroke-width: .8px;
      }

      .st3 {
        stroke-width: .5px;
      }

      .st10 {
        fill: #1f1f1f;
      }

      .st11 {
        display: none;
      }
    </style>
  </defs>
  <g id="Layer_1" class="st11">
    <g id="Layer_11" data-name="Layer_1" class="st11">
      <path class="st9" d="M70.4,10.1L41.5,1.3,12.6,10.1s-1.2,15-11.4,17v20.4s9.6,37.9,40.2,46.1c30.7-8.2,40.2-46.1,40.2-46.1v-20.4c-10.2-2.1-11.4-17-11.4-17h.2Z"/>
      <path class="st10" d="M43,87.1c-.2-.2-.4-.4-.7-.5s-.5-.2-.8-.2-.6,0-.8.2c-.3,0-.5.3-.6.5C17,79,8,50.6,6.9,46.8v-14.2c.4,0,.7-.4.9-.7.2-.3.3-.7.3-1.1v-.3c6.4-4.2,8.8-12.1,9.6-15.9l22.3-6.8c.2.2.4.4.7.5s.5.2.8.2.6,0,.8-.2c.3-.1.5-.3.7-.6l22.3,6.8c.8,3.8,3.2,11.7,9.6,15.9v.3c0,.4,0,.8.3,1.1.2.3.5.6.9.7v14.2c-1.1,3.8-10.1,32.2-33.1,40.3h0ZM66.6,14v-.4l-23.2-7.1c0-.5-.2-1-.6-1.3-.4-.4-.8-.6-1.3-.6s-1,.2-1.3.6c-.4.4-.6.8-.6,1.3l-23.1,7.1v.4c-.7,3.4-2.9,11.2-9,15.3-.3-.3-.7-.4-1.2-.4s-.5,0-.8.1c-.2,0-.5.2-.6.4-.2.2-.3.4-.4.6,0,.2,0,.5,0,.8s0,.8.3,1.1c.2.3.5.6.9.7v14.5c1,3.4,10.2,32.9,34,41.4,0,.5.2,1,.6,1.3.4.3.8.5,1.3.5s1-.2,1.3-.6c.4-.4.6-.8.6-1.3,9.8-3.4,18.2-10.6,25-21.5,3.9-6.2,6.9-12.8,9-19.8v-14.5c.4,0,.7-.4.9-.7.2-.3.3-.7.3-1.1s0-.5,0-.7c0-.2-.2-.5-.4-.6-.2-.2-.4-.3-.6-.4s-.5-.2-.7-.2c-.4,0-.8.2-1.2.4-6.1-4.1-8.3-11.9-9-15.3h0ZM80.4,47.4c-.6,2.6-10.5,37.1-38.9,44.9C13.1,84.5,3.2,50,2.5,47.4v-19.2c8.7-2.6,10.8-13.8,11.3-17L41.5,2.7l27.7,8.5c.4,3.3,2.5,14.5,11.3,17v19.2h0ZM82,25.9c-9.1-1.8-10.4-15.7-10.4-15.9v-.9L41.5,0,11.4,9.2v.9c0,.1-1.2,14-10.4,15.9l-1.1.2v21.8C0,48.4,10,86.7,41.1,94.9h.6c31.1-8.3,41.1-46.6,41.2-47v-21.8l-1-.2h0Z"/>
    </g>
    <g id="Layer_2">
      <g>
        <path class="st4" d="M76.5,20.8L41.5.7,6.5,20.8c0,4.2-2.3,8.1-5.9,10.2l3.5,23.7c5.1,8.8,5.7,15.9,10.8,24.7l26.5,15.2,26.5-15.2c5.1-8.8,5.7-15.9,10.8-24.7l3.5-23.7c-3.7-2.1-5.9-6-5.9-10.2h.2Z"/>
        <g>
          <polyline class="st7" points="41.5 94.5 41.5 93.4 41.5 90.4 41.5 48.9"/>
          <polyline class="st7" points="44.3 92.9 44.2 91.9 44 89 41.5 48.9"/>
          <polyline class="st7" points="46.9 91.4 46.8 90.4 46.4 87.6 41.5 48.9"/>
          <polyline class="st7" points="49.4 90 49.2 89.1 48.7 86.3 41.5 48.9"/>
          <polyline class="st7" points="51.8 88.6 51.5 87.8 50.9 85.1 41.5 48.9"/>
          <polyline class="st7" points="54.1 87.3 53.8 86.5 53 83.9 41.5 48.9"/>
          <polyline class="st7" points="56.3 86 56 85.2 55 82.8 41.5 48.9"/>
          <polyline class="st7" points="58.5 84.8 58.1 84 57 81.6 41.5 48.9"/>
          <polyline class="st7" points="60.7 83.5 60.3 82.8 59 80.5 41.5 48.9"/>
          <polyline class="st7" points="62.8 82.3 62.4 81.6 61 79.4 41.5 48.9"/>
          <polyline class="st7" points="71.1 73.2 69.7 72 67.8 70.5 41.5 48.9"/>
          <polyline class="st7" points="72 70.9 70.4 69.8 68.5 68.4 41.5 48.9"/>
          <polyline class="st7" points="72.8 68.6 71.2 67.6 69.2 66.3 41.5 48.9"/>
          <polyline class="st7" points="73.6 66.4 71.9 65.4 69.9 64.4 41.5 48.9"/>
          <polyline class="st7" points="74.4 64.3 72.5 63.4 70.5 62.4 41.5 48.9"/>
          <polyline class="st7" points="75.2 62.1 73.2 61.4 71.1 60.5 41.5 48.9"/>
          <polyline class="st7" points="76.1 60 73.9 59.3 71.7 58.6 41.5 48.9"/>
          <polyline class="st7" points="77.1 58 74.6 57.3 72.4 56.8 41.5 48.9"/>
          <polyline class="st7" points="78.2 55.8 75.2 55.3 73 54.8 41.5 48.9"/>
          <polyline class="st7" points="79 53.6 75.9 53.2 73.6 52.9 41.5 48.9"/>
          <polyline class="st7" points="79.4 51.2 76.5 51.1 74.1 50.9 41.5 48.9"/>
          <polyline class="st7" points="79.7 48.9 77 48.9 74.7 48.9 41.5 48.9"/>
          <polyline class="st7" points="80.1 46.5 77.6 46.6 75.2 46.8 41.5 48.9"/>
          <polyline class="st7" points="80.5 44 78.2 44.3 75.8 44.6 41.5 48.9"/>
          <polyline class="st7" points="80.8 41.4 78.8 41.8 76.4 42.3 41.5 48.9"/>
          <polyline class="st7" points="77.7 26 75.1 27.7 73 29 41.5 48.9"/>
          <polyline class="st7" points="76.8 23.4 72.7 26.3 70.8 27.7 41.5 48.9"/>
          <polyline class="st7" points="76 20.5 70.5 25 68.7 26.5 41.5 48.9"/>
          <polyline class="st7" points="73.5 19.1 68.7 23.5 67 25.1 41.5 48.9"/>
          <polyline class="st7" points="71 17.7 66.8 22.1 65.2 23.8 41.5 48.9"/>
          <polyline class="st7" points="68.6 16.3 65 20.6 63.6 22.4 41.5 48.9"/>
          <polyline class="st7" points="66.3 15 63.2 19.2 61.9 21 41.5 48.9"/>
          <polyline class="st7" points="64 13.6 61.4 17.7 60.1 19.7 41.5 48.9"/>
          <polyline class="st7" points="61.7 12.3 59.6 16.3 58.4 18.3 41.5 48.9"/>
          <polyline class="st7" points="59.4 11 57.7 14.7 56.6 16.9 41.5 48.9"/>
          <polyline class="st7" points="57.1 9.7 55.7 13.2 54.8 15.4 41.5 48.9"/>
          <polyline class="st7" points="54.7 8.3 53.7 11.6 52.9 13.9 41.5 48.9"/>
          <polyline class="st7" points="52.3 6.9 51.6 9.9 50.9 12.3 41.5 48.9"/>
          <polyline class="st7" points="49.8 5.5 49.3 8.1 48.8 10.7 41.5 48.9"/>
          <polyline class="st7" points="47.2 4 46.9 6.2 46.6 8.9 41.5 48.9"/>
          <polyline class="st7" points="44.4 2.4 44.3 4.1 44.2 7 41.5 48.9"/>
          <line class="st8" x1="41.5" y1="48.9" x2="41.5" y2=".5"/>
          <polyline class="st7" points="38.6 2.4 38.7 4.1 38.8 7 41.5 48.9"/>
          <polyline class="st7" points="35.8 4 36.1 6.2 36.4 8.9 41.5 48.9"/>
          <polyline class="st7" points="33.2 5.5 33.7 8.1 34.2 10.7 41.5 48.9"/>
          <polyline class="st7" points="30.7 7 31.4 9.9 32.1 12.4 41.5 48.9"/>
          <polyline class="st7" points="28.2 8.3 29.3 11.6 30.1 13.9 41.5 48.9"/>
          <polyline class="st7" points="25.9 9.7 27.3 13.2 28.2 15.4 41.5 48.9"/>
          <polyline class="st7" points="23.6 11 25.3 14.7 26.4 16.9 41.5 48.9"/>
          <polyline class="st7" points="21.3 12.3 23.4 16.3 24.6 18.3 41.5 48.9"/>
          <polyline class="st7" points="19 13.6 21.6 17.7 22.9 19.7 41.5 48.9"/>
          <polyline class="st7" points="16.7 15 19.8 19.2 21.2 21 41.5 48.9"/>
          <polyline class="st7" points="14.4 16.3 18 20.6 19.4 22.4 41.5 48.9"/>
          <polyline class="st7" points="12 17.7 16.2 22.1 17.8 23.8 41.5 48.9"/>
          <polyline class="st7" points="9.5 19.1 14.3 23.5 16 25.1 41.5 48.9"/>
          <polyline class="st7" points="7 20.5 12.5 25 14.3 26.5 41.5 48.9"/>
          <polyline class="st7" points="6.2 23.4 10.3 26.3 12.2 27.7 41.5 48.9"/>
          <polyline class="st7" points="5.3 26 7.9 27.7 10 29 41.5 48.9"/>
          <polyline class="st7" points="2.2 41.4 4.2 41.8 6.6 42.3 41.5 48.9"/>
          <polyline class="st7" points="2.5 44 4.8 44.3 7.2 44.6 41.5 48.9"/>
          <polyline class="st7" points="2.9 46.5 5.4 46.6 7.8 46.8 41.5 48.9"/>
          <polyline class="st7" points="3.3 48.9 6 48.9 8.3 48.9 41.5 48.9"/>
          <polyline class="st7" points="3.6 51.2 6.5 51.1 8.8 50.9 41.5 48.9"/>
          <polyline class="st7" points="4 53.6 7.1 53.2 9.4 52.9 41.5 48.9"/>
          <polyline class="st7" points="4.8 55.8 7.8 55.3 10 54.8 41.5 48.9"/>
          <polyline class="st7" points="5.9 58 8.4 57.3 10.6 56.8 41.5 48.9"/>
          <polyline class="st7" points="6.9 60 9.1 59.3 11.2 58.6 41.5 48.9"/>
          <polyline class="st7" points="7.8 62.1 9.8 61.4 11.9 60.5 41.5 48.9"/>
          <polyline class="st7" points="8.6 64.3 10.5 63.4 12.5 62.4 41.5 48.9"/>
          <polyline class="st7" points="9.4 66.4 11.1 65.4 13.1 64.4 41.5 48.9"/>
          <polyline class="st7" points="10.2 68.6 11.8 67.6 13.8 66.3 41.5 48.9"/>
          <polyline class="st7" points="11 70.9 12.6 69.8 14.5 68.4 41.5 48.9"/>
          <polyline class="st7" points="20.2 82.3 20.6 81.6 22 79.4 41.5 48.9"/>
          <polyline class="st7" points="22.3 83.5 22.7 82.8 24 80.5 41.5 48.9"/>
          <polyline class="st7" points="24.5 84.8 24.9 84 26 81.6 41.5 48.9"/>
          <polyline class="st7" points="26.7 86 27 85.2 28 82.8 41.5 48.9"/>
          <polyline class="st7" points="28.9 87.3 29.2 86.5 30 83.9 41.5 48.9"/>
          <polyline class="st7" points="31.2 88.6 31.5 87.7 32.1 85.1 41.5 48.9"/>
          <polyline class="st7" points="33.6 90 33.8 89.1 34.3 86.3 41.5 48.9"/>
          <polyline class="st7" points="36.1 91.4 36.2 90.4 36.6 87.6 41.5 48.9"/>
          <polyline class="st7" points="38.7 92.9 38.8 91.9 39 89 41.5 48.9"/>
        </g>
        <polygon class="st1" points="41.5 4.8 68.9 26.7 78.9 32.5 73.6 53.2 65.7 76.7 41.5 90.4 17.3 76.7 9.4 53.2 4.1 32.5 14.1 26.7 41.5 4.8"/>
      </g>
    </g>
  </g>
  <g id="Layer_21" data-name="Layer_2">
    <g>
      <path class="st0" d="M75.9,21.1L41.5,1.2,7.1,21.1c0,4.2-2.2,8-5.8,10.1l3.4,23.4c5,8.7,5.6,15.7,10.7,24.5l26.1,15.1,26.1-15.1c5-8.7,5.6-15.7,10.7-24.5l3.4-23.4c-3.6-2.1-5.8-5.9-5.8-10.1Z"/>
      <g>
        <polyline class="st6" points="41.5 94.1 41.5 93 41.5 90 41.5 48.9"/>
        <polyline class="st6" points="44.2 92.5 44.2 91.4 44 88.6 41.5 48.9"/>
        <polyline class="st6" points="46.8 91 46.7 90 46.4 87.2 41.5 48.9"/>
        <polyline class="st6" points="49.3 89.6 49.1 88.6 48.6 85.9 41.5 48.9"/>
        <polyline class="st6" points="51.6 88.2 51.4 87.3 50.7 84.7 41.5 48.9"/>
        <polyline class="st6" points="53.9 86.9 53.6 86.1 52.8 83.6 41.5 48.9"/>
        <polyline class="st6" points="56.1 85.6 55.8 84.9 54.8 82.4 41.5 48.9"/>
        <polyline class="st6" points="58.2 84.4 57.9 83.6 56.7 81.3 41.5 48.9"/>
        <polyline class="st6" points="60.4 83.2 60 82.4 58.7 80.2 41.5 48.9"/>
        <polyline class="st6" points="62.5 81.9 62.1 81.2 60.7 79.1 41.5 48.9"/>
        <polyline class="st6" points="64.6 80.7 64.2 80.1 62.6 77.9 41.5 48.9"/>
        <polyline class="st6" points="66.8 79.4 66.3 78.8 64.6 76.8 41.5 48.9"/>
        <polyline class="st6" points="69.6 75.2 68.4 74.1 66.6 72.5 41.5 48.9"/>
        <polyline class="st6" points="70.6 72.9 69.2 71.8 67.4 70.3 41.5 48.9"/>
        <polyline class="st6" points="71.5 70.7 70 69.5 68.1 68.2 41.5 48.9"/>
        <polyline class="st6" points="72.3 68.4 70.7 67.4 68.7 66.1 41.5 48.9"/>
        <polyline class="st6" points="73.1 66.2 71.4 65.3 69.4 64.2 41.5 48.9"/>
        <polyline class="st6" points="73.9 64.1 72 63.2 70 62.3 41.5 48.9"/>
        <polyline class="st6" points="74.7 62 72.7 61.2 70.6 60.4 41.5 48.9"/>
        <polyline class="st6" points="75.6 59.9 73.4 59.2 71.2 58.5 41.5 48.9"/>
        <polyline class="st6" points="76.5 57.9 74 57.2 71.9 56.7 41.5 48.9"/>
        <polyline class="st6" points="77.6 55.8 74.7 55.2 72.5 54.8 41.5 48.9"/>
        <polyline class="st6" points="78.4 53.5 75.3 53.1 73.1 52.9 41.5 48.9"/>
        <polyline class="st6" points="78.8 51.2 75.9 51 73.6 50.9 41.5 48.9"/>
        <polyline class="st5" points="79.1 48.9 76.4 48.9 74.1 48.9 41.5 48.9"/>
        <polyline class="st6" points="79.5 46.5 77 46.6 74.7 46.8 41.5 48.9"/>
        <polyline class="st6" points="79.8 44 77.6 44.3 75.2 44.6 41.5 48.9"/>
        <polyline class="st6" points="80.2 41.5 78.2 41.9 75.8 42.3 41.5 48.9"/>
        <polyline class="st6" points="80.6 38.8 78.9 39.3 76.4 39.9 41.5 48.9"/>
        <polyline class="st6" points="81 36 79.6 36.5 77.1 37.3 41.5 48.9"/>
        <polyline class="st6" points="78.6 28.5 77 29.3 74.8 30.6 41.5 48.9"/>
        <polyline class="st6" points="77.1 26.3 74.5 27.9 72.4 29.2 41.5 48.9"/>
        <polyline class="st6" points="76.2 23.6 72.2 26.6 70.3 27.9 41.5 48.9"/>
        <polyline class="st6" points="75.4 20.8 70.1 25.2 68.3 26.7 41.5 48.9"/>
        <polyline class="st6" points="72.9 19.3 68.2 23.8 66.5 25.3 41.5 48.9"/>
        <polyline class="st6" points="70.5 18 66.4 22.3 64.9 24 41.5 48.9"/>
        <polyline class="st6" points="68.2 16.6 64.6 20.9 63.2 22.7 41.5 48.9"/>
        <polyline class="st6" points="65.9 15.3 62.9 19.5 61.5 21.3 41.5 48.9"/>
        <polyline class="st6" points="63.6 14 61.1 18 59.8 20 41.5 48.9"/>
        <polyline class="st6" points="61.4 12.7 59.3 16.6 58.1 18.6 41.5 48.9"/>
        <polyline class="st6" points="59.1 11.4 57.4 15.1 56.4 17.2 41.5 48.9"/>
        <polyline class="st6" points="56.9 10.1 55.5 13.5 54.6 15.8 41.5 48.9"/>
        <polyline class="st6" points="54.5 8.7 53.5 11.9 52.7 14.3 41.5 48.9"/>
        <polyline class="st6" points="52.1 7.4 51.4 10.3 50.8 12.7 41.5 48.9"/>
        <polyline class="st6" points="49.7 5.9 49.2 8.5 48.7 11.1 41.5 48.9"/>
        <polyline class="st6" points="47.1 4.4 46.8 6.6 46.5 9.3 41.5 48.9"/>
        <polyline class="st6" points="44.4 2.9 44.3 4.6 44.1 7.4 41.5 48.9"/>
        <line class="st6" x1="41.5" y1="48.9" x2="41.5" y2=".9"/>
        <polyline class="st6" points="38.6 2.9 38.7 4.6 38.9 7.4 41.5 48.9"/>
        <polyline class="st6" points="35.9 4.4 36.2 6.6 36.5 9.3 41.5 48.9"/>
        <polyline class="st6" points="33.3 5.9 33.8 8.5 34.3 11.1 41.5 48.9"/>
        <polyline class="st6" points="30.8 7.4 31.6 10.3 32.2 12.7 41.5 48.9"/>
        <polyline class="st6" points="28.5 8.7 29.5 12 30.3 14.3 41.5 48.9"/>
        <polyline class="st6" points="26.1 10.1 27.5 13.5 28.4 15.8 41.5 48.9"/>
        <polyline class="st6" points="23.9 11.4 25.6 15.1 26.6 17.2 41.5 48.9"/>
        <polyline class="st6" points="21.6 12.7 23.7 16.6 24.9 18.6 41.5 48.9"/>
        <polyline class="st6" points="19.4 14 21.9 18 23.2 20 41.5 48.9"/>
        <polyline class="st6" points="17.1 15.3 20.1 19.5 21.5 21.3 41.5 48.9"/>
        <polyline class="st6" points="14.8 16.6 18.4 20.9 19.8 22.7 41.5 48.9"/>
        <polyline class="st6" points="12.5 18 16.6 22.3 18.1 24 41.5 48.9"/>
        <polyline class="st6" points="10.1 19.3 14.8 23.8 16.5 25.3 41.5 48.9"/>
        <polyline class="st6" points="7.6 20.8 12.9 25.2 14.7 26.7 41.5 48.9"/>
        <polyline class="st6" points="6.8 23.6 10.8 26.6 12.7 27.9 41.5 48.9"/>
        <polyline class="st6" points="5.9 26.3 8.5 27.9 10.6 29.2 41.5 48.9"/>
        <polyline class="st6" points="4.4 28.5 6 29.3 8.2 30.6 41.5 48.9"/>
        <polyline class="st6" points="2 36 3.4 36.5 5.9 37.3 41.5 48.9"/>
        <polyline class="st6" points="2.4 38.8 4.1 39.3 6.6 39.9 41.5 48.9"/>
        <polyline class="st6" points="2.8 41.5 4.8 41.9 7.2 42.3 41.5 48.9"/>
        <polyline class="st6" points="3.2 44 5.4 44.3 7.8 44.6 41.5 48.9"/>
        <polyline class="st6" points="3.5 46.5 6 46.6 8.3 46.8 41.5 48.9"/>
        <polyline class="st5" points="3.9 48.9 6.6 48.9 8.9 48.9 41.5 48.9"/>
        <polyline class="st6" points="4.2 51.2 7.1 51 9.4 50.9 41.5 48.9"/>
        <polyline class="st6" points="4.6 53.5 7.7 53.1 9.9 52.9 41.5 48.9"/>
        <polyline class="st6" points="5.4 55.8 8.3 55.2 10.5 54.8 41.5 48.9"/>
        <polyline class="st6" points="6.5 57.9 9 57.2 11.1 56.7 41.5 48.9"/>
        <polyline class="st6" points="7.5 59.9 9.6 59.2 11.7 58.5 41.5 48.9"/>
        <polyline class="st6" points="8.3 62 10.3 61.2 12.4 60.4 41.5 48.9"/>
        <polyline class="st6" points="9.1 64.1 11 63.2 13 62.3 41.5 48.9"/>
        <polyline class="st6" points="9.9 66.2 11.6 65.3 13.6 64.2 41.5 48.9"/>
        <polyline class="st6" points="10.7 68.4 12.3 67.4 14.3 66.1 41.5 48.9"/>
        <polyline class="st6" points="11.5 70.7 13 69.5 14.9 68.2 41.5 48.9"/>
        <polyline class="st6" points="12.4 72.9 13.8 71.8 15.6 70.3 41.5 48.9"/>
        <polyline class="st6" points="13.4 75.2 14.6 74.1 16.4 72.5 41.5 48.9"/>
        <polyline class="st6" points="16.2 79.4 16.7 78.8 18.4 76.8 41.5 48.9"/>
        <polyline class="st6" points="18.4 80.7 18.8 80.1 20.4 77.9 41.5 48.9"/>
        <polyline class="st6" points="20.5 81.9 20.9 81.2 22.3 79.1 41.5 48.9"/>
        <polyline class="st6" points="22.6 83.2 23 82.4 24.3 80.2 41.5 48.9"/>
        <polyline class="st6" points="24.8 84.4 25.1 83.6 26.3 81.3 41.5 48.9"/>
        <polyline class="st6" points="26.9 85.6 27.3 84.9 28.2 82.4 41.5 48.9"/>
        <polyline class="st6" points="29.1 86.9 29.4 86.1 30.2 83.6 41.5 48.9"/>
        <polyline class="st6" points="31.4 88.2 31.6 87.3 32.3 84.7 41.5 48.9"/>
        <polyline class="st6" points="33.7 89.6 33.9 88.6 34.4 85.9 41.5 48.9"/>
        <polyline class="st6" points="36.2 91 36.3 90 36.7 87.2 41.5 48.9"/>
        <polyline class="st6" points="38.8 92.5 38.8 91.4 39 88.6 41.5 48.9"/>
      </g>
      <polygon class="st3" points="41.5 2.3 70.4 25.5 80.8 31.6 75.2 53.5 67 78.4 41.5 93 16 78.4 7.8 53.5 2.2 31.6 12.6 25.5 41.5 2.3"/>
      <polygon class="st2" points="41.5 5.3 68.5 26.9 78.3 32.6 73 53.1 65.4 76.4 41.5 90 17.6 76.4 10 53.1 4.7 32.6 14.5 26.9 41.5 5.3"/>
    </g>
  </g>
</svg>