<?xml version="1.0" encoding="UTF-8"?><svg id="Layer_1" xmlns="http://www.w3.org/2000/svg" viewBox="0 0 227.27 56"><defs><style>.cls-1{fill:none;stroke:#000;stroke-miterlimit:10;stroke-width:.25px;}</style></defs><rect class="cls-1" x="75.5" y=".33" width="1.43" height="11.5"/><rect class="cls-1" x="76.93" y=".33" width="1.43" height="11.5"/><polyline class="cls-1" points="70.49 26.15 75.5 21.14 75.5 14.69"/><polyline class="cls-1" points="72.44 28.1 72.46 28.08 78.37 22.26 78.37 14.69 76.93 14.69 76.93 21.73 71.5 27.16 70.59 28.08"/><rect class="cls-1" x="68.51" y="6.27" width="1.43" height="12.55" transform="translate(81.77 -56.69) rotate(90)"/><rect class="cls-1" x="68.51" y="7.7" width="1.43" height="12.55" transform="translate(83.2 -55.25) rotate(90)"/><rect class="cls-1" x="75.5" y="11.83" width="2.86" height="2.86"/><rect class="cls-1" x="75.88" y="12.2" width="2.11" height="2.11"/><rect class="cls-1" x="60.09" y="11.83" width="2.86" height="2.86"/><rect class="cls-1" x="60.47" y="12.2" width="2.11" height="2.11"/><polygon class="cls-1" points="91.09 8.04 86.72 12.41 86.49 12.63 85.72 13.41 78.37 13.41 78.37 11.83 85.13 11.83 85.14 11.81 85.16 11.79 85.88 11.09 89.43 7.61 90.05 7.01 90.06 6.99 91.09 8.04"/><polygon class="cls-1" points="93.08 6.05 92.1 7.02 91.09 8.04 90.06 6.99 91.09 5.99 92.07 5.04 93.08 6.05"/><polygon class="cls-1" points="92.07 9.04 86.31 14.69 78.37 14.69 78.37 13.41 85.72 13.41 86.49 12.63 86.72 12.41 91.09 8.04 92.07 9.04"/><polygon class="cls-1" points="94.09 7.06 92.07 9.04 91.09 8.04 92.1 7.02 93.08 6.05 94.09 7.06"/><polygon class="cls-1" points="91.09 5.99 90.06 6.99 86.08 2.92 85.18 2 83.92 2.01 78.37 2.01 78.38 .33 85.59 .33 91.09 5.99"/><polyline class="cls-1" points="93.08 8.03 92.1 7.02 91.09 5.99"/><line class="cls-1" x1="92.07" y1="9.05" x2="92.07" y2="9.04"/><polyline class="cls-1" points="67.87 28.08 67.87 28.08 66.95 27.16 61.52 21.73 61.52 14.69 62.95 14.69 62.95 21.14 67.97 26.15"/><polyline class="cls-1" points="60.09 14.69 60.09 22.25 66.03 28.08"/><polygon class="cls-1" points="71.52 29.01 70.51 30.02 69.23 31.31 67.94 30.02 66.93 29.01 66.97 28.97 67.87 28.08 66.95 27.16 67.97 26.15 69.23 24.89 71.5 27.16 70.59 28.08 71.5 28.99 71.52 29.01"/><rect class="cls-1" x="68.25" y="27.12" width="1.95" height="1.95" transform="translate(40.14 -40.72) rotate(45)"/><rect class="cls-1" x="75.5" y="44.33" width="1.43" height="11.5"/><rect class="cls-1" x="76.93" y="44.33" width="1.43" height="11.5"/><polyline class="cls-1" points="70.59 28.07 70.59 28.08 71.5 28.99 71.52 29.01 76.93 34.42 76.93 41.46 75.5 41.46 75.5 35.01 70.51 30.02 70.51 30.02"/><polyline class="cls-1" points="72.43 28.05 72.46 28.08 78.37 33.89 78.37 41.46 76.93 41.46 76.93 34.42 71.52 29.01 71.5 28.99"/><rect class="cls-1" x="68.51" y="37.33" width="1.43" height="12.55" transform="translate(25.62 112.84) rotate(-90)"/><rect class="cls-1" x="68.51" y="35.9" width="1.43" height="12.55" transform="translate(27.05 111.41) rotate(-90)"/><rect class="cls-1" x="75.5" y="41.46" width="2.86" height="2.86"/><rect class="cls-1" x="75.88" y="41.84" width="2.11" height="2.11"/><rect class="cls-1" x="60.09" y="41.46" width="2.86" height="2.86"/><rect class="cls-1" x="60.47" y="41.84" width="2.11" height="2.11"/><polygon class="cls-1" points="78.37 42.74 85.72 42.74 93.08 50.1 92.07 51.12 85.13 44.33 78.37 44.33 78.37 42.74"/><polygon class="cls-1" points="78.37 41.46 86.31 41.46 94.09 49.09 93.08 50.1 85.72 42.74 78.37 42.74 78.37 41.46"/><polyline class="cls-1" points="92.07 47.11 85.18 54.15 78.37 54.14 78.38 55.82 85.59 55.82 93.08 48.12"/><polyline class="cls-1" points="66.97 28.97 66.93 29.01 61.52 34.42 61.52 41.46 62.95 41.46 62.95 35.01 67.94 30.02"/><polyline class="cls-1" points="66.04 28.07 66.03 28.08 60.09 33.91 60.09 41.46 61.52 41.46 61.52 34.42 66.93 29.01 66.97 28.97 67.87 28.08 67.87 28.07"/><polyline class="cls-1" points="92.07 10.21 86.57 15.71 85.18 15.71 80.33 15.73 79.35 15.73 79.35 22.92 78.37 23.9"/><line class="cls-1" x1="79.35" y1="22.92" x2="80.33" y2="23.6"/><line class="cls-1" x1="79.35" y1="15.73" x2="80.33" y2="16.91"/><polyline class="cls-1" points="92.07 45.97 86.57 40.47 85.18 40.47 80.33 40.45 79.35 40.45 79.35 33.27 78.37 32.28"/><line class="cls-1" x1="78.37" y1="22.26" x2="78.37" y2="14.69"/><polyline class="cls-1" points="86.31 14.69 92.07 9.05 92.07 10.21 92.07 11.61 86.78 16.9 84 16.9 80.33 16.91 80.33 23.6 75.85 28.08 80.33 32.58 80.33 39.27 84 39.29 86.78 39.29 92.07 44.57 92.07 45.97 92.07 47.14 86.31 41.49 78.37 41.49 78.37 33.92"/><polyline class="cls-1" points="86.78 39.29 86.57 40.47 85.18 40.47 80.33 40.45 79.35 40.45 79.35 33.27 78.37 32.28 74.18 28.09 78.37 23.9 79.35 22.92 79.35 15.73 80.33 15.73 85.18 15.71 86.57 15.71 86.78 16.9"/><line class="cls-1" x1="79.35" y1="33.27" x2="80.33" y2="32.58"/><line class="cls-1" x1="79.35" y1="40.45" x2="80.33" y2="39.27"/><path class="cls-1" d="M70.89,23.35c-.04.09-.09.18-.14.26-.11.17-.24.32-.4.44h0s-.05.04-.07.06c-.19.14-.42.23-.66.28,0,0,0,0,0,0-.12.03-.24.04-.37.04s-.25-.01-.37-.04c-.02,0-.03,0-.04,0-.24-.05-.46-.16-.65-.29-.02-.01-.04-.03-.06-.04-.16-.12-.3-.28-.41-.45h0c-.05-.08-.1-.16-.13-.25-.07-.16-.11-.33-.13-.5h2.98s-.03.1-.03.15c0,.21.17.37.37.37.05,0,.09,0,.13-.02Z"/><path class="cls-1" d="M71.03,20.94v1.27c0,.24-.2.44-.44.44h-2.73c-.24,0-.44-.2-.44-.44v-1.27"/><path class="cls-1" d="M67.42,19.94c-.03-.52-.05-1.3-.2-1.83-.18-.52-.66-.9-1.23-.92-1.38-.1-2.11,1.98-.55,2.29.09.01.2,0,.19-.1-.03-.17.02-.41.17-.53.32-.3.65,0,.7.35.01.21-.08.54-.23.7-.19.17-.45.28-.7.27-.56.02-1.05-.34-1.34-.79-1.04-1.54.41-3.3,2.23-3.11.43.03.87.19,1.22.44-.01-.37.18-.74.51-.94l1.03-.62,1.03.62c.34.2.53.57.51.94.36-.26.79-.41,1.23-.44,1.81-.19,3.26,1.57,2.23,3.11-.29.45-.78.81-1.34.79-.25.02-.5-.09-.7-.27-.16-.16-.25-.49-.23-.7.05-.35.38-.65.7-.35.15.12.2.36.17.53-.01.11.1.11.18.1,1.56-.31.83-2.39-.55-2.29-.57.03-1.05.4-1.23.92-.15.53-.17,1.31-.21,1.83"/><line class="cls-1" x1="67.92" y1="30.05" x2="67.92" y2="32.47"/><path class="cls-1" d="M70.53,33.54v2.69c.33-.17.78-.28,1.45-.28,1.81,0,3.3,1.73,2.25,3.43-.29.5-.79.89-1.35.87-.25.02-.51-.1-.7-.29-.16-.18-.25-.54-.24-.77.05-.39.38-.72.71-.38.16.13.2.39.17.58-.01.12.11.16.19.11,1.25-.74.6-2.41-.8-2.3-.58.03-1.06.24-1.39.79-.2.43-.27.56-.28.89,0,.08,0,.17,0,.29h.33v.85h-.32v.13h.17c.05,0,.09.04.09.09v.3c0,.05-.04.09-.09.09h-.17v.83h-2.61v-.83h-.12c-.08,0-.14-.06-.14-.14v-.25c0-.05.04-.09.09-.09h.17v-.13h-.32v-.85h.32c0-.57-.03-.65-.29-1.18-.33-.55-.81-.76-1.39-.79-1.39-.11-2.05,1.56-.79,2.3.08.05.2,0,.19-.11-.03-.19.02-.45.18-.58.33-.33.66,0,.71.38.02.23-.08.6-.24.77-.2.19-.45.31-.7.29-.56.02-1.06-.37-1.35-.87-1.05-1.7.44-3.43,2.25-3.43.67,0,1.12.11,1.45.28v-2.7"/><line class="cls-1" x1="70.53" y1="30.05" x2="70.53" y2="32.47"/><rect class="cls-1" x="67.14" y="19.94" width="4.18" height="1" rx=".14" ry=".14"/><rect class="cls-1" x="67.81" y="32.47" width="2.83" height="1.07"/><line class="cls-1" x1="67.92" y1="40.02" x2="70.53" y2="40.02"/><line class="cls-1" x1="70.53" y1="39.16" x2="67.92" y2="39.16"/><line class="cls-1" x1="67.92" y1="40.15" x2="70.53" y2="40.15"/><line class="cls-1" x1="70.53" y1="40.63" x2="67.92" y2="40.63"/><path class="cls-1" d="M67.68,16.7s1.39.71,1.48,3.24"/><path class="cls-1" d="M70.78,16.7s-1.39.71-1.48,3.24"/><path class="cls-1" d="M67.68,20.94s1.19.38,1.26,1.73"/><path class="cls-1" d="M70.78,20.94s-1.19.38-1.26,1.73"/><path class="cls-1" d="M68.46,21.44s.65-.33.69-1.5"/><path class="cls-1" d="M68.67,21.69s.53-.16.56-.75"/><path class="cls-1" d="M68.83,17.9s-.22-1.64-1.02-1.74"/><path class="cls-1" d="M69.07,17.66s.08-1.88-.54-2.07"/><path class="cls-1" d="M70,21.44s-.65-.33-.69-1.5"/><path class="cls-1" d="M69.79,21.69s-.53-.16-.56-.75"/><path class="cls-1" d="M69.67,18.09c-.02-.4-.44-.52-.44-.52,0,0-.42.11-.44.52"/><path class="cls-1" d="M69.62,17.9s.22-1.64,1.02-1.74"/><path class="cls-1" d="M69.38,17.66s-.08-1.88.54-2.07"/><line class="cls-1" x1="71.01" y1="22.85" x2="70.41" y2="22.85"/><line class="cls-1" x1="67.43" y1="22.85" x2="67.42" y2="22.85"/><circle class="cls-1" cx="68.85" cy="23.68" r=".37"/><path class="cls-1" d="M68.44,23.68c0,.19-.15.35-.33.37-.16-.12-.3-.28-.41-.45h0c.03-.17.19-.3.37-.3.21,0,.37.17.37.37Z"/><circle class="cls-1" cx="69.6" cy="23.68" r=".37"/><path class="cls-1" d="M70.75,23.61c-.11.17-.24.32-.4.44h0c-.19-.02-.33-.18-.33-.37,0-.21.17-.37.37-.37.18,0,.34.13.37.31Z"/><path class="cls-1" d="M69.6,23c0,.21-.17.37-.37.37s-.37-.17-.37-.37c0-.05.01-.1.03-.15h.68s.03.1.03.15Z"/><path class="cls-1" d="M68.82,23c0,.21-.17.37-.37.37s-.37-.17-.37-.37c0-.05.01-.1.03-.15h.68s.03.1.03.15Z"/><path class="cls-1" d="M68.07,23c0,.21-.17.37-.37.37-.04,0-.09,0-.13-.02-.07-.16-.11-.33-.13-.5h.6s.03.1.03.15Z"/><path class="cls-1" d="M70.35,23c0,.21-.17.37-.37.37s-.37-.17-.37-.37c0-.05.01-.1.03-.15h.68s.03.1.03.15Z"/><path class="cls-1" d="M71.03,22.67s0,.05,0,.08c0,.21-.06.42-.14.61-.04.02-.09.02-.13.02-.21,0-.37-.17-.37-.37,0-.05.01-.1.03-.15h-2.98s0-.07,0-.11c0-.02,0-.05,0-.07h3.61Z"/><path class="cls-1" d="M69.6,24.34s0,.04,0,.05c-.12.03-.24.04-.37.04s-.25-.01-.37-.04c0-.02,0-.03,0-.05,0-.21.17-.37.37-.37s.37.17.37.37Z"/><path class="cls-1" d="M68.82,24.34s0,.03,0,.04c-.24-.05-.46-.16-.65-.29.07-.08.17-.12.28-.12.21,0,.37.17.37.37Z"/><path class="cls-1" d="M70.27,24.11c-.19.14-.42.23-.66.28,0-.02,0-.03,0-.05,0-.21.17-.37.37-.37.12,0,.22.05.29.14Z"/><line class="cls-1" x1="69.74" y1="32.47" x2="69.74" y2="30.77"/><polyline class="cls-1" points="69.74 33.54 69.74 39.39 68.71 39.39 68.71 33.54"/><line class="cls-1" x1="68.71" y1="32.47" x2="68.71" y2="30.77"/><rect class="cls-1" x="68.71" y="40.63" width="1.03" height=".83"/><path class="cls-1" d="M67.92,36.23s.72.36.79,1.24"/><path class="cls-1" d="M70.53,36.23s-.72.36-.79,1.24"/><rect class="cls-1" x="67.81" y="32.79" width="2.83" height=".42"/><path class="cls-1" d="M81.26,6.42v1.2h-1.59c-.21,0-.38-.17-.38-.38v-.44c0-.21.17-.38.38-.38h1.59Z"/><polyline class="cls-1" points="89.43 7.61 86.89 7.61 85.18 7.61 84.4 7.61 83.92 7.61 83.62 7.61 82.6 7.61"/><polyline class="cls-1" points="82.23 7.01 84.43 7.01 88.92 7.01 90.05 7.01"/><polyline class="cls-1" points="89.49 6.42 86.89 6.42 85.18 6.42 84.4 6.42 83.92 6.42 83.62 6.42 82.23 6.42"/><polyline class="cls-1" points="83.92 2.01 83.92 6.42 84.4 6.42 85.18 6.42 85.18 5.6 85.18 4.69"/><polyline class="cls-1" points="83.92 11.8 83.92 7.61 84.41 7.61 85.19 7.61 85.18 8.43 85.14 11.83"/><path class="cls-1" d="M82.23,4.96v.61l.12.28.24.55h-.37v1.21h.37l-.24.56-.12.28v.61h.68c.11.11.18.18.29.29v.29h-1.64c-.12-.12-.19-.19-.3-.3v-4.66c.12-.12.19-.19.3-.3h1.64v.29c-.11.11-.18.18-.29.29h-.68Z"/><path class="cls-1" d="M86.89,6.42h-1.71v-.81l.56.31c.36.2.75.37,1.15.5Z"/><path class="cls-1" d="M86.89,7.61c-.4.13-.78.29-1.15.5l-.58.32v-.82h1.72Z"/><path class="cls-1" d="M85.16,11.79v-2.25c.2.51.44,1.05.71,1.55"/><path class="cls-1" d="M83.62,6.42h-1.38s.37,0,.37,0l-.24-.55.12.06c.36.2.75.37,1.15.5Z"/><path class="cls-1" d="M83.62,7.61c-.4.13-.78.29-1.15.5l-.12.07.24-.56h1.02Z"/><path class="cls-1" d="M86.08,2.92c-.11.2-.22.41-.33.63l-.56,1.14v-2.68"/><path class="cls-1" d="M90.62,27.21v1.03h-2.82c-.12-.16-.31-.26-.52-.26s-.4.1-.52.26h-2.82v-1.03h6.68Z"/><polyline class="cls-1" points="90.35 28.19 90.35 30.05 88.82 31.91"/><polyline class="cls-1" points="84.2 28.19 84.2 30.05 85.74 31.91 86.38 31.91"/><path class="cls-1" d="M90.35,26.54v.65h-1.98v-1.94c0-.23-.49-.41-1.1-.41s-1.1.18-1.1.41v1.96h-1.98v-.65h.67v-1.31c0-.83,1.08-1.5,2.41-1.5s2.39.66,2.41,1.48c0,0,0,.01,0,.02v1.29h.67Z"/><rect class="cls-1" x="84.87" y="27.21" width="1.31" height=".02"/><rect class="cls-1" x="88.38" y="27.18" width="1.31" height=".02"/><path class="cls-1" d="M85.53,26.58v-1.41s.61-.74,1.75-.74"/><path class="cls-1" d="M89.03,26.58v-1.41s-.61-.74-1.75-.74"/><path class="cls-1" d="M87.05,29.32c-.06-.03-.13-.06-.17-.12-.03-.04-.03-.1-.03-.15.02-.22.27-.38.49-.34s.38.26.39.48-.1.44-.27.58c-.03.03-.07.05-.09.09-.06.09-.02.23.05.31s.18.15.26.22.14.2.11.31c-.02.06-.06.1-.11.15-.06.06-.12.12-.2.16s-.18.03-.24-.03c-.06-.06-.07-.16-.04-.24s.09-.15.14-.21c-.16-.13-.31-.27-.44-.42-.06-.06-.11-.14-.11-.22,0-.12.12-.2.23-.25.29-.12.34-.19.04-.33Z"/><polygon class="cls-1" points="100.61 25.17 100.61 25.7 101.14 25.7 101.14 26.27 100.61 26.27 100.61 26.8 101.14 26.8 101.14 27.32 98.94 27.32 98.94 26.8 98.48 26.8 98.48 27.32 97.13 27.32 97.13 26.32 97.78 26.32 97.78 26.8 98.23 26.8 98.23 26.32 98.71 26.32 98.71 25.7 98.23 25.7 98.23 25.23 97.78 25.23 97.78 25.7 97.13 25.7 97.13 24.7 98.48 24.7 98.48 25.23 98.94 25.23 98.94 24.7 101.14 24.7 101.14 25.17 100.61 25.17"/><path class="cls-1" d="M100.02,22.87c-.22.01-.44.02-.66.04v-.26c.08,0,.16-.01.24-.02.09-.01.19-.02.28,0,.09.03.17.15.14.24Z"/><path class="cls-1" d="M99.36,21.79c.26-.01.53.04.77.16v.06c-.26.02-.51,0-.77.01v-.23Z"/><path class="cls-1" d="M99.77,21.15c.12.02.24.05.36.09v.18c-.26-.02-.51-.03-.77-.04v-.3c.14.02.28.04.41.07Z"/><path class="cls-1" d="M100.2,19.98v.22h-.07v.51c-.26-.07-.51-.17-.77-.22v-1.63h.48v.98h.07v.14h.29Z"/><path class="cls-1" d="M99.61,18.28c-.2-.35-.59-.58-1.04-.58h-.01c-.64,0-1.16.49-1.16,1.08s.52,1.08,1.17,1.08c.3,0,.58-.11.79-.28v-.71h.48v.7c.21.18.49.29.8.29.65,0,1.17-.49,1.17-1.08s-.52-1.08-1.16-1.08h-.01c-.45,0-.84.23-1.03.58"/><path class="cls-1" d="M99.22,18.78c0,.32-.28.58-.62.58s-.62-.26-.62-.58.28-.57.62-.57.62.26.62.57Z"/><ellipse class="cls-1" cx="99.61" cy="17.12" rx=".62" ry=".58"/><path class="cls-1" d="M100.78,17.21c0,.17-.04.34-.12.49h-.01c-.45,0-.84.24-1.03.58-.2-.34-.59-.58-1.04-.58h-.01c-.08-.15-.12-.31-.12-.49,0-.6.52-1.08,1.17-1.08s1.17.49,1.17,1.08Z"/><path class="cls-1" d="M101.28,18.78c0,.32-.28.58-.62.58s-.62-.26-.62-.58.28-.57.62-.57.62.26.62.57Z"/><path class="cls-1" d="M100.13,24.22v3.48h-.58v-.22h-.19v-4.07c.12,0,.23-.02.36-.03.02.07.04.14.06.21.04.14.1.28.17.4.05.08.11.16.18.22Z"/><line class="cls-1" x1="99.78" y1="27.32" x2="99.78" y2="23.6"/><path class="cls-1" d="M83.98,33.47c.97.47,2.08.55,3.15.61.18.01.4.01.51-.13.03-.04.05-.09.1-.12.04-.02.08-.02.12-.02.24,0,.5-.06.74-.04.3.02.59,0,.88-.07.04,0,.07-.02.1-.04.03-.03.05-.07.07-.11.09-.22.16-.57.31-.74.03-.03.21-.16.32-.22.06-.03.09-.1.06-.17-.09-.25-.3-.48-.54-.49-.59-.02-1.14,0-1.72.08-.02-.03-.05-.06-.08-.09-.2-.18-.53-.18-.82-.15-.28.03-.57.06-.82.15-.23.08-.44.2-.6.4-.2-.12-.38-.27-.53-.45l-2,2.36c-.12.14-.26.28-.42.38-.02.01-.05.02-.08.03-.11.01-.2-.09-.22-.19-.02-.1.02-.28.05-.39-.97-.12-2.04-.33-2.63-1.11-.24-.33-.38-.72-.49-1.11-.64-2.18-.75-4.52-.31-6.76,1.45-1.3,2.93-2.64,4.76-3.29.28-.46.74-.82,1.18-1.13.5-.35,1.03-.66,1.6-.86.58-.19,1.2-.26,1.79-.11"/><path class="cls-1" d="M87.71,32.87h.46s.09,0,.12-.03c.02-.02.03-.05.05-.07.02-.02.05-.02.07-.02.48-.02,1.09.06,1.57.04"/><path class="cls-1" d="M85.26,31.86c-.06-.13-.12-.26-.22-.35s-.25-.15-.38-.11c-.18.5-.57.88-1.05,1.11s-1.04.29-1.56.21c-.23-.03-.46-.1-.66-.21-.32-.18-.56-.47-.75-.77-.57-.93-.74-2.04-.83-3.13-.06-.71.12-1.4.44-2.04.16-.32.37-.62.66-.83s.68-.29,1.01-.17c.37.14.6.5.79.84.31.54.59,1.09.85,1.65.07.15.14.31.18.47.04.18.06.36.06.54.01.6-.03,1.27.37,1.7.18.19.43.32.52.56"/><path class="cls-1" d="M82.41,29.68c-.52-.05-.99-.36-1.31-.78s-.51-.91-.66-1.41"/><path class="cls-1" d="M81.18,29.61c.61.89,1.78,1.35,2.83,1.13"/><path class="cls-1" d="M80,28.82c.28.57.55,1.15.91,1.67s.81,1,1.37,1.3"/><path class="cls-1" d="M80.3,30.63c.3.53.68,1.03,1.19,1.37s1.16.5,1.74.32c.29-.09.57-.27.88-.29"/><path class="cls-1" d="M79.55,30.74c-.13-.51-.12-1.05.03-1.56"/><path class="cls-1" d="M80.25,32.02c.11.29.36.5.61.68.2.15.41.29.63.38s.48.14.73.09"/><path class="cls-1" d="M80.12,25.59c.09-.27.4-.39.68-.46.29-.07.58-.13.88-.11s.59.12.8.33c.21.21.32.51.57.65.23.13.52.09.75-.03s.41-.31.59-.5c.08,0,.16,0,.24-.01.1,0,.16-.01.22-.09"/><path class="cls-1" d="M80.65,24.76c.52-.34,1.24-.27,1.79.02.29.15.55.36.85.49s.67.17.94-.02c.21-.14.31-.32.52-.45.13-.08.09-.17.28-.1"/><path class="cls-1" d="M84.44,22.07c.24-.12.55-.08.75.1.12.1.2.25.32.36.35.36.91.36,1.41.35.62-.02,1.29-.06,1.74-.49"/><path class="cls-1" d="M88.71,20.38c-.08-.15-.22-.26-.39-.31-.11-.03-.23-.03-.34-.03-.67,0-1.37.03-1.94.38"/><path class="cls-1" d="M88.46,19.65c.72.46,1.19,1.29,1.21,2.14,0,.2-.01.4-.08.59-.06.18-.16.34-.27.5-.28.4-.52.71-.87,1.05"/><path class="cls-1" d="M87.93,23.81c.51-.3.92-.86,1-1.44"/><path class="cls-1" d="M86.74,23.78c.26-.16.44-.44.47-.75"/><path class="cls-1" d="M86.76,26.93c.35-.29.6-.7.71-1.13"/><path class="cls-1" d="M86.41,26.69c.42-.32.76-.73,1-1.2"/><path class="cls-1" d="M82.72,34.67c-.18.32.02.7.2,1.02.21.39.4.8.48,1.24.03.19.05.38.14.55.06.11.15.2.24.29.27.28.51.51.78.79"/><path class="cls-1" d="M83.24,34.4l.12.3c.12.3.25.61.47.86.19.22.45.38.7.54"/><path class="cls-1" d="M83.48,34.04c.15.26.38.49.64.63"/><path class="cls-1" d="M85.66,36.22l.03-.39c0-.13.02-.27.05-.4.09-.32.34-.6.36-.94,0-.1,0-.22.07-.3"/><path class="cls-1" d="M86.21,35.68c-.05-.31.19-.59.28-.9.05-.17.05-.35.05-.53"/><path class="cls-1" d="M88.49,19.66v-.46s-.01-.06-.03-.08c-.02-.04-.07-.05-.1-.08-.09-.05-.14-.15-.14-.25,0-.08.03-.16.04-.24.02-.19-.08-.36-.16-.53s-.15-.38-.05-.54c.03-.05.08-.11.06-.17-.01-.03-.04-.05-.06-.07-.23-.21-.24-.96.22-1.19"/><path class="cls-1" d="M93.4,20.9c.15.09.37.02.47-.12s.09-.35,0-.51-.24-.27-.4-.33c-.11-.05-.23-.08-.35-.06-.11.02-.21.08-.29.15-.33.29-.45.8-.28,1.2.14.33.47.58.83.63s.74-.09.98-.36c.14-.16.24-.36.31-.56.18-.5.25-1.04.2-1.57-.03-.27-.08-.54-.14-.8-.15-.69-.3-1.39-.67-2-.33-.55-.81-.99-1.3-1.4-.2-.17-.41-.34-.64-.47-.51-.29-1.12-.37-1.7-.29s-1.14.29-1.66.56c-.17.09-.34.19-.46.33s-.21.33-.18.52.2.35.39.34"/><path class="cls-1" d="M93.02,19.9c-.06-.04-.1-.16-.1-.24s.03-.14.08-.2c0,0,.02-.02.02-.03,0-.02-.02-.03-.04-.05-.11-.06-.15-.2-.16-.32-.01-.16.08-.38,0-.5-.02-.03-.02-.08-.02-.12l-.02-.72c-.11-.12-.22-.27-.3-.42-.01-.02-.02-.04-.02-.06,0-.03,0-.06,0-.09.01-.05.02-.11.03-.16-.12,0-.2-.04-.26-.14-.03-.04-.05-.09-.09-.13-.04-.03-.08-.05-.12-.08-.09-.1.02-.28-.05-.39-.09-.15-.37-.04-.47-.19-.05-.06-.05-.17-.12-.19-.03,0-.05,0-.08,0-.19.05-.43.1-.56-.05-.03-.03-.05-.07-.08-.1-.1-.08-.24-.05-.37-.04s-.29-.03-.31-.15c-.16.15-.38.21-.6.18-.02.11-.13.21-.24.21-.05,0-.1-.02-.14-.02-.1,0-.17.08-.25.13s-.19.09-.27.09"/><path class="cls-1" d="M93.7,20.05c.04-1.32-.22-2.54-.9-3.54-.15-.22-.32-.44-.52-.62-.51-.46-1.22-.68-1.91-.68s-1.37.2-1.99.49c-.11.05-.17.1-.28.04"/><path class="cls-1" d="M93.93,16.35c.14-.8-.13-1.57-.56-2.19-.22-.32-.5-.61-.86-.75-.3-.11-.64-.09-.96-.06-.29.03-.57.06-.85.13-.93.22-1.76.85-2.26,1.67"/><path class="cls-1" d="M88.62,16.11c-.03.06-.03.19-.02.25.14.7.28,1.4.61,2.03.04.08.09.16.16.2s.19.05.24-.02c.03-.03.04-.08.07-.11.05-.05.14-.03.21-.04s.14-.1.09-.15"/><path class="cls-1" d="M89.9,18.04c.1,0,.22,0,.3.08s.11.2.03.28"/><path class="cls-1" d="M89.12,16.68c.08.04.18.01.25-.04s.13-.12.2-.18c.08-.06.17-.1.26-.13.07-.01.14-.02.21-.02.17,0,.35.07.51.1"/><path class="cls-1" d="M89.68,16.83c.13,0,.21.11.26.21"/><path class="cls-1" d="M89.65,17.02c.05-.18.02-.38-.08-.53"/><path class="cls-1" d="M92.68,18.72c-.23.37-.54.68-.89.93-.13.09-.23.21-.39.21-.23,0-.45.01-.68.02-.08,0-.18,0-.24-.05-.07-.06-.07-.16-.08-.25v-.28c-.1,0-.16-.07-.2-.14s-.05-.17-.01-.24c-.09-.03-.18.05-.26,0-.05-.04-.05-.11-.05-.17,0-.09,0-.18,0-.27"/><path class="cls-1" d="M90.76,18.72c0,.06-.05.12-.11.14-.02,0-.05,0-.08,0-.1-.01-.3,0-.39.05"/><path class="cls-1" d="M90.15,16.72c.12-.04.28-.17.24-.33"/><path class="cls-1" d="M91.05,19.89v.42c-.09.02-.18.09-.22.18s-.05.19-.03.29c.05.37.37.66.73.76s.75.03,1.09-.12"/><path class="cls-1" d="M91.04,21.65c.24.27.68.81.92,1.09.14.15.28.31.45.41s.41.14.59.05c.12-.06.22-.17.28-.3.16-.28.19-.72.23-1.04"/><path class="cls-1" d="M90.67,22.53c.58.46,1.09,1,1.52,1.6.04.06.09.12.15.16.12.06.26.01.38-.05.76-.41,1.2-1.21,1.6-1.98"/><path class="cls-1" d="M89.91,23.88c.31-.17.66-.34,1-.26.73.16.95,1.28,1.68,1.39.45.07.85-.28,1.14-.64.48-.59.88-1.31.84-2.07"/><path class="cls-1" d="M89.74,21.6c.15-.07.32.05.45.17s.27.26.44.21c.17-.05.25-.27.42-.33.12-.04.28,0,.35-.1"/><path class="cls-1" d="M94.77,20.79c.73.06,1.42.43,1.87,1s.64,1.34.52,2.06c-.05.3-.3.56-.56.7s-.63.14-.87-.05c-.08-.07-.15-.15-.21-.24-.16-.22-.31-.46-.45-.69-.03-.05-.06-.1-.08-.16-.01-.06-.01-.11,0-.17l.05-.92c.01-.22-.03-.46-.11-.66-.03-.08-.08-.17-.14-.24-.07-.08-.15-.14-.23-.21"/><path class="cls-1" d="M97.15,27.3c0,.2-.77.26-.9.27-.18.02-.33-.14-.43-.29-.37-.52-.71-1.08-.9-1.69s-.06-1.4.15-2.01"/><path class="cls-1" d="M97.07,25.98c-.27,0-.78-.15-.99-.32-.4-.33-.94-1.09-.77-1.66"/><path class="cls-1" d="M97.18,23.6c.16,0,.31.07.44.16.36.23.81.58.81.91"/><path class="cls-1" d="M81.62,40.91s-.39-.05-.4-.08c-.04-.1.1-.15.19-.2.19-.11.23-.36.34-.55.24-.43.82-.51,1.31-.54s1.07-.09,1.33-.5c.13-.21.16-.47.21-.71.09-.42.29-.83.62-1.09.27-.22.67-.31,1-.22.13.03.23.13.29.25.11.23.24.51.39.72.67-.06,1.3-.02,1.97-.02.6,0,1.2-.01,1.8-.06.04-.09.14-.14.23-.17.14-.04.29-.08.41,0,.03.02.06.04.09.05s.07.02.1,0c.12-.1.28-.13.43-.19.06-.03.13-.05.18-.09.04-.03.08-.07.13-.1.05-.03.1-.04.16-.05.83-.15,1.69-.1,2.53-.05.27.02.54.03.81.08.16.03.31.06.45.13.15.07.28.18.41.29.14.12.27.21.35.39.08.19.09.39.07.59-.03.25-.11.49-.19.72-.04.13-.11.27-.24.3"/><path class="cls-1" d="M97.84,39.18c-.1-.2-.2-.4-.33-.58s-.49-.52-.69-.62"/><path class="cls-1" d="M97.83,38.24c.04-.14-.04-.29-.15-.4s-.24-.18-.34-.28"/><path class="cls-1" d="M92.25,39.52c-.22-.11-.49-.1-.71-.21-.12-.06-.22-.14-.31-.23-.32-.31-.55-.72-.55-1.16"/><path class="cls-1" d="M91.43,37.79c.09.08.16.19.2.3"/><path class="cls-1" d="M88.43,37.98c-.11.43.02.92.34,1.23.17.17.39.29.61.41.3.16.6.33.92.41.22.06.44.08.65.17.13.05.25.12.38.19.48.24,1.02.35,1.55.32"/><path class="cls-1" d="M87.81,38.8c.6.96,1.52,1.71,2.57,2.11"/><path class="cls-1" d="M88.59,40.8c-.59-.32-1.06-.88-1.27-1.52"/><path class="cls-1" d="M86.54,40.64c.13-.15.2-.34.28-.52s.2-.35.39-.43"/><path class="cls-1" d="M87.15,40.69s-.04-.08-.02-.13c.07-.22.19-.42.34-.6"/><path class="cls-1" d="M82.5,40.9c.31-.36.87-.53,1.27-.28.09.05.17.13.27.17.13.06.29.07.43.07.52.01,1.03.03,1.55.04"/><path class="cls-1" d="M93.92,35.72l.84-.48c.22-.13.44-.26.69-.34.35-.12.72-.13,1.09-.14"/><path class="cls-1" d="M94.89,35.78c.61-.21,1.27-.28,1.9-.19"/><path class="cls-1" d="M90.26,33.29c.38-.14.78-.23,1.18-.27,2.08-.24,4.14.6,5.94,1.66.83.49,1.64,1.05,2.22,1.81.19.25.35.51.44.81.06.21.08.44.08.66.01.43-.03.87-.22,1.26-.15.29-.38.53-.61.77-.22.22-.44.45-.72.59-.42.21-.92.18-1.37.07"/><path class="cls-1" d="M92.45,32.97c-.13,0-.57-.15-.68-.22-.63-.38-.66-1.13-.45-1.8.27-.88,1.25-1.31,2.02-1.81.86-.56,1.74-1.1,2.61-1.64"/><path class="cls-1" d="M94.92,25.6c-.38.58-.31,1.93-.03,2.55"/><path class="cls-1" d="M92.66,33c-.25-.15-.52-.3-.7-.53-.22-.27-.31-.61-.39-.95"/><path class="cls-1" d="M94.7,33.42c.18,0,.37-.03.54-.09.2-.08.38-.19.55-.32.31-.24.58-.52.83-.82.58-.68,1.08-1.44,1.46-2.25"/><path class="cls-1" d="M96.64,34.21c-.14-.56.08-1.15.33-1.67.21-.42.45-.82.71-1.2.27-.39.57-.76.94-1.04s.83-.47,1.3-.46"/><path class="cls-1" d="M97.72,34.88c-.44-.79-.53-1.77-.24-2.63"/><path class="cls-1" d="M99.89,36.83c.35.2.72.34,1.11.41.04,0,.08.01.11,0,.08-.03.09-.14.09-.22.02-.92.04-1.85.06-2.77"/><path class="cls-1" d="M101.63,32.93c-.02.24-.04.49-.06.73,0,.1-.02.2-.05.28-.05.1-.13.18-.21.27-.41.44-.66,1-1.07,1.45-.03.03-.08.06-.11.03-.01-.01-.02-.04-.02-.06-.01-.71-.03-1.42-.04-2.13-.03,0-.04.02-.06.05-.41.67-.67,1.43-1.2,2-.02.02-.05.03-.06,0"/><path class="cls-1" d="M100.77,36.31c-.07-.26-.24-.5-.49-.69"/><path class="cls-1" d="M100.08,33.55c.03-.21.16-.38.24-.57.14-.32.15-.68.15-1.03,0-.66-.01-1.33-.05-1.99"/><path class="cls-1" d="M98.13,27.32c.19.14.46.28.67.4.73.41,1.28,1.15,1.46,1.97"/><path class="cls-1" d="M100.45,32.76h-.05c.02.07.11.11.19.15.27.14.48.38.58.67"/><path class="cls-1" d="M100.84,30.31v.67s0,.06.01.08c.01.03.04.05.06.07.15.12.24.31.25.5,0-.01,0-.03-.01-.04"/><path class="cls-1" d="M101.15,33.52c.18-.23.16-.6-.06-.8-.03-.03-.07-.06-.06-.11,0-.03.04-.06.07-.08.22-.15.41-.33.52-.57s.1-.54-.06-.74c-.04-.05-.09-.1-.12-.16-.03-.07-.03-.16-.03-.24.01-.32.02-.64.04-.95-.13-.23-.28-.44-.42-.67-.15-.27-.31-.53-.51-.77-.4-.48-1.09-.46-1.49-1.12"/><path class="cls-1" d="M100.59,27.57c.35.09.62.37.83.65.12.15.23.31.29.49.15.4.07.84-.01,1.25"/><path class="cls-1" d="M101.62,32.96c.13.29.48.44.79.38s.57-.28.73-.55.24-.59.29-.9c.31-1.81-.06-3.73-1.03-5.29"/><path class="cls-1" d="M102.76,23.59c.17.81.03,1.66-.18,2.46-.23.89-.54,1.76-.92,2.59"/><path class="cls-1" d="M102.77,23.63c-.02-.32-.18-.61-.34-.9-.34-.6-.88-.99-1.27-1.56-.07-.11-.14-.2-.21-.31-.24-.03-.48-.06-.72-.12-.03,0-.07-.02-.1-.03-.26-.07-.51-.17-.77-.22-.13-.03-.26-.04-.4-.03-.03,0-.07,0-.1.03-.02.02-.03.04-.04.07-.06.17-.06.36-.01.53"/><path class="cls-1" d="M98.8,21.06c.19-.02.37,0,.56.02.14.02.28.04.41.07.12.02.24.05.36.09.15.05.29.11.41.22-.14-.02-.27-.03-.41-.04-.26-.02-.51-.03-.77-.04-.15,0-.3,0-.46,0h0s-.02,0-.03,0c-.1,0-.2,0-.3,0-.02.11-.03.23-.05.34,0,.03-.01.07,0,.1.03.06.1.08.17.08.15,0,.29-.05.44-.09.08-.02.15-.03.23-.03.26-.01.53.04.77.16.03.02.07.03.1.05-.03,0-.07,0-.1,0-.26.02-.51,0-.77.01-.27,0-.55.02-.81.08-.01.13,0,.26.04.38,0,.02.02.04.03.06,0,.02.02.03.03.04.04.04.1.04.16.05.19.01.37.01.56,0,.08,0,.16-.01.24-.02.09-.01.19-.02.28,0,.09.03.17.15.14.24l-.66.04c-.11,0-.22.01-.33.02-.05,0-.1.01-.12.05-.01.02-.01.04-.01.06,0,.11,0,.21.02.32,0,.02,0,.05.03.07.02.02.05.02.08.02.12,0,.23-.02.34-.03.12,0,.23-.02.36-.03.02.07.04.14.06.21.04.14.1.28.17.4.05.08.11.16.18.22.09.09.2.16.33.18.16.03.32,0,.47.05.12.03.22.1.33.16"/><path class="cls-1" d="M98.93,23.41c0,.09,0,.18,0,.26,0,.03,0,.05.02.07.01.01.03.02.05.02.1.03.23.07.32.07"/><path class="cls-1" d="M98.62,22.53c-.03.1-.06.22-.02.32.05.11.18.16.29.12"/><path class="cls-1" d="M98.49,21.81c-.05.09-.02.22.07.28"/><path class="cls-1" d="M98.92,21.35s0,.02-.01.03h0s-.02,0-.03,0c0,0,0,0,0,0-.02-.01-.03-.03-.03-.05-.03-.1-.05-.21-.05-.31"/><path class="cls-1" d="M102.19,27.34c.4.81.59,1.71.55,2.61-.01.24-.05.5-.21.67s-.5.2-.62,0c.02.31.25.75.51.92"/><path class="cls-1" d="M101.75,31.66c.05.19.19.35.37.42s.4.05.56-.06c.21-.13.32-.38.38-.62s.09-.49.19-.72"/><path class="cls-1" d="M101.71,32.52c.03.21.22.38.42.42s.43-.04.58-.18.26-.34.31-.54"/><path class="cls-1" d="M79.84,41.01c-.08-.14.08-.31.23-.37s.35-.1.41-.26c.04-.1.02-.22.07-.32.12-.21.44-.11.66-.19.19-.07.29-.28.45-.4.15-.12.35-.15.55-.18.39-.06.79-.12,1.18-.18.12-.02.24-.04.34-.1.25-.16.36-.59.66-.57"/><path class="cls-1" d="M90.33,32.26c.12-.37.18-.75.24-1.13.04-.24.07-.49.07-.73,0-.34-.1-.68-.26-.99"/><path class="cls-1" d="M89.64,31.86c.01-.12.1-.22.17-.33.15-.22.24-.48.25-.75"/><path class="cls-1" d="M90.88,30.52v.47s0,.04.01.06c.01.02.04.02.06.02.11,0,.23-.01.33-.06"/><path class="cls-1" d="M90.71,30.66c.28-.16.5-.43.6-.74s.08-.66-.06-.95"/><path class="cls-1" d="M90.67,32.67c.08,0,.16-.06.19-.13s.05-.16.06-.24c.03-.31.02-.61-.01-.92"/><path class="cls-1" d="M90.48,28.89c.18.15.44.19.67.14s.44-.17.63-.31c.53-.4.94-.95,1.16-1.57"/><path class="cls-1" d="M92.12,26.37c-.13.36-.08.78.13,1.1.03.04.06.09.11.1"/><path class="cls-1" d="M92.25,26l.29.64c.05.11.1.22.19.3.21.2.55.18.82.09.17-.06.34-.13.49-.24.41-.29.63-.83.55-1.33-.06-.34-.24-.64-.43-.93"/><path class="cls-1" d="M94.78,23.78c-.06.35-.19.81-.41,1.09"/><path class="cls-1" d="M91.8,26.06c-.1.32-.4.54-.68.72-.18.11-.36.22-.54.3"/><path class="cls-1" d="M90.19,22.54c-.43.35-.59.98-.38,1.49.04.11.11.22.2.29s.21.12.33.1"/><path class="cls-1" d="M89.45,20.74c.27.01.53.1.76.24.1.06.2.13.31.16s.25,0,.3-.12"/><path class="cls-1" d="M79.17,27.8c.12-.36.27-.7.46-1.03.36-.63.88-1.21,1.57-1.41"/><path class="cls-1" d="M83.22,26.08c.17.59.33,1.08.7,1.57"/><path class="cls-1" d="M81.97,23.59c.56-.39,1.15-.74,1.76-1.04.23-.11.47-.22.73-.22.22,0,.43.08.64.17"/><path class="cls-1" d="M88.51,19.1c.23-.02.45-.16.56-.37"/><path class="cls-1" d="M88.28,18.34c.21-.02.4-.18.44-.38"/><path class="cls-1" d="M88.09,17.3c.19.01.39-.11.46-.29"/><path class="cls-1" d="M89.65,19.03c.03.19-.04.38-.16.52s-.28.25-.45.34"/><path class="cls-1" d="M89.55,20.33c.29-.2.49-.53.52-.88"/><path class="cls-1" d="M90.15,20.71c.17-.14.27-.37.26-.6"/><path class="cls-1" d="M93.02,16.71c.29-.2.68-.26,1.01-.14"/><path class="cls-1" d="M92.47,16.01c.14-.29.49-.46.8-.38"/><path class="cls-1" d="M93.47,17.65c.15-.13.36-.19.56-.16s.38.15.48.32"/><path class="cls-1" d="M93.57,18.48c.11-.13.3-.2.47-.16.09.02.17.07.25.12.21.14.39.32.53.53"/><path class="cls-1" d="M93.77,19.28c.21.01.42.11.57.27s.22.38.21.59"/><path class="cls-1" d="M91.67,15.47c.16-.27.36-.56.66-.61"/><path class="cls-1" d="M91.19,14.41c-.19.15-.32.36-.38.6"/><path class="cls-1" d="M90.29,14.5c-.15.14-.24.35-.23.56"/><path class="cls-1" d="M89.54,14.67c-.12.1-.18.28-.13.43"/><path class="cls-1" d="M88.9,14.94c-.06.11-.08.24-.07.36"/><path class="cls-1" d="M90.37,19.3c.15.03.31,0,.45-.07"/></svg>