<?xml version="1.0" encoding="UTF-8"?>
<svg xmlns="http://www.w3.org/2000/svg" version="1.1" viewBox="0 0 319.3 79.5">
  <!-- Generator: Adobe Illustrator 29.7.1, SVG Export Plug-In . SVG Version: 2.1.1 Build 8)  -->
  <defs>
    <style>
      .st0, .st1 {
        stroke: #000;
      }

      .st0, .st1, .st2, .st3 {
        stroke-miterlimit: 10;
      }

      .st0, .st2, .st3 {
        fill: none;
      }

      .st0, .st3 {
        stroke-width: .8px;
      }

      .st4, .st1 {
        fill: #fff;
      }

      .st2 {
        stroke-width: 1.2px;
      }

      .st2, .st3 {
        stroke: #231f20;
      }

      .st5 {
        display: none;
      }
    </style>
  </defs>
  <g id="Layer_1" class="st5">
    <g id="Layer_2">
      <g id="Layer_1-2">
        <path class="st4" d="M.6,3.1v73.3c.5-1.3,1.2-2.5,2.1-3.6V6.7c-.9-1.1-1.6-2.3-2.1-3.6"/>
        <path class="st4" d="M318.7,3.1v73.3c-.5-1.3-1.2-2.5-2.1-3.6V6.7c.9-1.1,1.6-2.3,2.1-3.6"/>
        <rect class="st4" x="2.7" y="9.4" width="313.9" height="60.6"/>
        <rect class="st2" x="2.7" y="9.4" width="313.9" height="60.6"/>
        <path class="st2" d="M.6,3.1v73.3c.5-1.3,1.2-2.5,2.1-3.6V6.7c-.9-1.1-1.6-2.3-2.1-3.6Z"/>
        <path class="st2" d="M2.7,62.2s1.1,10.3,8.4,10.3h22s7.2-2.4,20.5-2.4M2.7,17.3S3.8,7,11.1,7h22s7.2,2.4,20.5,2.4"/>
        <path class="st2" d="M318.7,3.1v73.3c-.5-1.3-1.2-2.5-2.1-3.6V6.7c.9-1.1,1.6-2.3,2.1-3.6Z"/>
        <path class="st2" d="M316.6,62.2s-1.1,10.3-8.4,10.3h-22s-7.2-2.4-20.5-2.4M316.6,17.3s-1.1-10.3-8.4-10.3h-22s-7.2,2.4-20.5,2.4"/>
        <path class="st3" d="M24.6,70.1c5.7-1.1,11.4-1.8,17.2-1.9h235.7c5.8.2,11.5.8,17.2,1.9M294.7,9.4c-5.7,1.1-11.4,1.8-17.2,1.9H41.8c-5.8-.2-11.5-.8-17.2-1.9"/>
      </g>
    </g>
  </g>
  <g id="Layer_21" data-name="Layer_2">
    <g>
      <rect class="st1" x=".6" y="9.4" width="318" height="60.6"/>
      <rect class="st1" x="4.4" y="13" width="310.5" height="53.4"/>
      <g>
        <line class="st0" x1="23.3" y1="32.2" x2="15.6" y2="13"/>
        <line class="st0" x1="23.3" y1="32.2" x2="10.8" y2="13"/>
        <line class="st0" x1="23.3" y1="32.2" x2="4.4" y2="13.2"/>
        <line class="st0" x1="23.3" y1="32.2" x2="4.4" y2="20"/>
        <line class="st0" x1="23.3" y1="32.2" x2="4.4" y2="25.3"/>
      </g>
      <g>
        <line class="st0" x1="23.3" y1="47.8" x2="15.8" y2="66.5"/>
        <line class="st0" x1="23.3" y1="47.8" x2="11.1" y2="66.5"/>
        <line class="st0" x1="23.3" y1="47.8" x2="4.6" y2="66.5"/>
        <line class="st0" x1="23.3" y1="47.8" x2="4.4" y2="59.9"/>
        <line class="st0" x1="23.3" y1="47.8" x2="4.4" y2="54.6"/>
      </g>
      <g>
        <line class="st0" x1="304.2" y1="13" x2="296.5" y2="32.2"/>
        <line class="st0" x1="309" y1="13" x2="296.5" y2="32.2"/>
        <line class="st0" x1="314.8" y1="13.8" x2="296.5" y2="32.2"/>
        <line class="st0" x1="314.8" y1="20.4" x2="296.5" y2="32.2"/>
        <line class="st0" x1="314.8" y1="25.5" x2="296.5" y2="32.2"/>
      </g>
      <g>
        <line class="st0" x1="304" y1="66.5" x2="296.5" y2="47.8"/>
        <line class="st0" x1="308.7" y1="66.5" x2="296.5" y2="47.8"/>
        <line class="st0" x1="314.8" y1="66.1" x2="296.5" y2="47.8"/>
        <line class="st0" x1="314.8" y1="59.6" x2="296.5" y2="47.8"/>
        <line class="st0" x1="314.8" y1="54.4" x2="296.5" y2="47.8"/>
      </g>
      <rect class="st1" x="4.4" y="13" width="310.5" height="53.6" rx="20.3" ry="20.3"/>
    </g>
  </g>
</svg>