<?xml version="1.0" encoding="UTF-8"?><svg xmlns="http://www.w3.org/2000/svg" viewBox="0 0 587.44 99.51"><defs><style>.cls-1{fill:#231f20;}.cls-2,.cls-3{fill:#fff;}.cls-3,.cls-4,.cls-5{stroke:#231f20;}.cls-3,.cls-5{stroke-miterlimit:10;}.cls-4{stroke-linejoin:bevel;}.cls-4,.cls-5{fill:none;stroke-width:.75px;}.cls-6{fill:#dcddde;}</style></defs><g id="Layer_7"><path class="cls-1" d="M253.31,20.99v23.06H56.87c.39-1.78.16-4.9,1.21-6.44.35-.49,3.05-2.15,3.77-2.59,1.61-.99,2.39-.68,3.38-2.74,1.72-3.56-1.61-3.5-3.63-5.74-.66-.73-1.23-2.49-1.78-2.93-1.37-1.12-1.33-.31-2.85-2.33-2.16-2.89-2.47-5.66-2.22-9.33.14-2.18,2.94-5.63,5.05-6.26.9-.26,3.53-.47,4.5-.39,6.93.54,9.4,5.26,9.84,11.6.08,1.28-.39,2.38.23,3.66,0,0,1.98,3.65,3.08,4.77.72.74,1.82,1.54,2.88,1.65.88.08,2.14-.04,3.14,0,1.09.02-.59-1.59-.61-1.66-.08-.31.06-.72-.06-1.08-.04-.12-1.08-2.15-1.17-2.24-.12-.11-.81-.08-1.21-.27-2.13-1.05-2.8-6.22-2.51-8.33.45-3.32,4.59-6.93,7.89-7.2,3.78-.29,5.85,1.23,8.27,3.77.35.35.36.9.69,1.2.26.24,1.81.92,1.96,1.21.24.42.2,3.48.41,4.44.29,1.39,1.01,2.08,1.36,3.11,1.64,4.79,1.98,5.88,6.57,5.43.27-.04,2.57-.6,2.11-1.03.04-.02-.06-.78-.06-.82-.04-.14-.32-.11-.35-.16-.05-.14.19-.41.17-.43-.23-.16-2.01.63-2.94-.96-.14-.25-.06-.66-.19-.86-.2-.32-1.69-.78-1.91-1.29-.33-.81-.07-1.98-.17-2.87-.05-.49-.47-.82-.45-1.4.01-.25.59-1.94.73-2.13.44-.6.48-.22,1.18-1.4.74-1.23,2.15-3.71,3.43-4.35,1.15-.59,1.15-.53,2.27-1.26,3.57-2.36,8.69-1.05,11.42,2.02.81.91.88,2.3,1.66,2.99,1.96,1.75,1,.94,2.1,3.02.49.93,1.37.82,1.52,2.5.1.97-.51,2.67-1.35,3.18-.53.32-1.36-.66-.94,1.21.28,1.23,2.03,4.53,3.18,5.07,1.42.66,4.59.02,5.49-1.26-1.12-.37-.17-1.36-.6-2.21l-3.17-4.61c-.01-.3-.16-.65-.13-.93.1-1.2.75-4.12,1.18-5.27.84-2.21,2.15-3.46,4.21-4.51,4.17-2.14,8.85-1.64,11.82,2.18.77.97,3.14,4.99,3.4,6.03.77,3.32,1.91,6.08,3.66,9.05.93,1.58,3.9,2.05,5.72,1.83,1.88-.22-.45-1.61-.93-2.62-.62-1.29-2.13-5.56-2.26-6.91-.2-2.01.01-4.53,1.41-6.11.84-.96,3.65-3.34,4.85-3.62,5.18-1.23,7.97,1.33,10.93,5.06.26.33.36,1.04.57,1.21.45.37.66.02,1.26,1.08.94,1.66.43,3.9.6,5.71,1.15,1.4,1.54,3.56,2.68,4.88.55.66,2.85,1.39,3.69,1.34l3.26-1.22c.59-1.09-.12-2.7-1.18-2.71-.56-.01-1.4,1.08-2.08.5-.23-.19-.93-1.24-1.08-1.53-.18-.37-.04-.86-.18-1.11-.07-.12-.59-.26-.79-.5-1.59-1.91-.37-2.71.07-4.66.14-.6-.02-1.23.07-1.81.14-.84,3.35-5.54,4.15-5.98.39-.22,1.43-.53,1.87-.51.53.01,1.04.43,1.18.43.26-.02.88-1.22,1.24-1.34,1.45-.49,4.12-.41,5.49.32,1.96,1.03,2.8,1.65,4.24,3.31.5.56.81.8,1.33,1.36,1.73,1.84.62,2.73.68,4.75.01.55.39,1.12.35,1.63-.05.5-.84.68-.86,1.28-.1,2.75,1.04,4.88,3.11,6.6,2.32,1.9,4.22,2.31,7.2,1.88-.98-1.27.35-4.01-2.22-3.05-.26-.59-.8-.51-1.22-.92-.96-.96-.35-2.27-.75-3.01-.39-.72-1.46-.73-1.24-1.79.04-.16.44-.13.48-.31.14-.59-.2-1.11-.19-1.6.05-1.32,1.2-2.09,1.27-2.92.04-.3-.35-.61-.37-1.06-.22-3.72,1.82-3.78,4.61-5.3,1.88-1.03,2.65-2.25,5.16-1.63.75.18,1.66.96,2.21,1.09,1.35.33,2.39-.14,3.92.8,1.21.75,1.58,2.02,2.38,3.02.36.45.93.66,1.28,1.09,1.17,1.48.1,4.39.26,4.54.05.05.81-.05,1.08.48.69,1.36-.26,3.19-1.08,4.29-.18.25-.61.06-.45.51,2.16,3.28,3.9,7.05,8.55,6.18.85-.17,1.7-.68,2.44-.86.63-.14,2.99.14,2.86-.85-.06-.45-2.37-1.75-2.89-2.21-1.34-1.18-1.64-2.38-2.45-3.61-.16-.23-1.28-.99-1.43-1.27-.22-.41-.13-.92-.3-1.18-.14-.23-.93-.6-1.35-1.35-.81-1.45-1.72-6.96-1.11-8.4.17-.42.51-.56.74-.91.32-.48-.2-.98.85-.44-.02-.31.36-1.52.51-1.61.23-.13.72.06.87-.06.08-.07.12-1.02.39-1.37.33-.45,1.84-.59,1.28-1.42h.16s4.76-2.71,8.5,0h-.16c.86.57,1.71,1.18,2.36,2,1.34,1.69.8,1.57,2.69,2.98,2.15,1.61,1.02,3.72,1.35,5.94.16,1.06,2.69,6.01,3.53,6.79.38.36,1.89.85,1.89,1.08Z"/><path class="cls-2" d="M159.46,44.12l4.84-10.34c.66,1.34,1.71,2,3.02,2.64.34.17.89.11,1.06.23.19.13.41,1.4.66,1.81,1.38,2.32,2.65-2.2,3.81-2.53.84-.24,4.97.94,5.26.67.14-.89-1.19-2.53-1.17-3.17.02-.69,1.56-2.14,1.76-2.94l1.3,13.64h2.6c-.12-2.57.63-6.52,2.6-8.35,1.18-1.09,4.48-1.92,5.37-2.76.31-.29,1.16-2.41,1.28-2.49.2-.12.74,0,1.13-.17,1.05-.46,3.42-2.94,3.79-4.1l-3.84,3.58c-.75.4-1.33.11-1.99-.25-2.43-1.28-5.16-3.28-6.1-5.92-.12-.35-.07-1.1-.13-1.17s-.9-.02-1.25-.23c-.32-.2-.33-.96-.75-1.19l.35,1.64-1.3-.94c-.85,1.57-1.16-1.3-1.42-1.64s-1.05-.21-1.25-.87c-.27-.86.3-1.79.19-2.66-.72.28-.58,2.58-.35,3.06.25.51,1.17.6,1.26.75.35.55-.16,1.55,1.23,2.42,1.22.75,3.8-.15,2.83,2.61-1.94.57-5.3,1.82-6.67-.2-.34-.51-2.38-4.59-2.49-5.04-.31-1.23.25-5.87-1.64-6.13-.35-.05-.92.26-1.01.2-.09-.06-.47-1.48-.75-1.96-.21-.35-2.14-3.13-2.56-2.74.76,1.07,1.7,2.03,2.32,3.21.49.92.45,2.75,1.93,2.66l.12-.94c1.59,1.54.65,4.36,1.12,5.94.07.25,1.41,3.16,1.68,3.74.73,1.63,2.03,2.35,1.47,4.43-.06.23-1.19,2.17-1.3,2.24-.37.23-.79-.18-1.18-.03-.7.28-2.59,3.35-3.54,3.77-.41.18-3.49-1.26-3.78-1.06-.26.18.11,1.18-.12,1.41-.56-.24-3.1-2.58-2.71-3.05,2.59,1.71,5.24-.44,6.84-2.47.28-.35,1.64-2.47,1.42-2.7-.43-.45-1.45,1.96-1.65,2.23-.77,1.03-2.89,2.98-4.19,3.13-2.25.26-2.97-1.75-4.21-2.99-1.17-1.16-2.51-2.22-3.63-3.43-.27-.53.97-.29,1.41-.47,1.76-.75.65-3.56-1.07-3.86-.92-.17-1.79.29-2.7.23.33.8.09,1.77.41,2.53.42.98,1.86,1.75,2.42,2.64-1.52.13-3.41.3-4.89-.18-.72-.23-1.1-.94-1.48-1.11s-.99-.04-1.14-.16c-.24-.19-2.52-4.69-2.8-5.32s-.66-1.33-.86-1.97c-.17-.52,0-1.39-.39-1.6.22.58-.32,1.56-.26,1.96.03.19.52.25.69.53.36.58,1.14,1.76.26,1.86.33.23.3,1.24.35,1.3.26.31.82.09,1.29.61.28.31,2.41,4.16,2.51,4.56.18.71-.26,2.55-.72,3.08-.31.35-.96-.21-1.27,0-.07.05-.57,1.21-.87,1.6-.27.34-2.05,2.42-2.21,2.48-.76.28-3.27-1.05-3.8-.7-.29.2.03.73-.76.55-1.14-.25-2.09-1.67-2.07-2.78,2.04.75,3.89-.84,5.05-2.37.26-.34,1.51-2.34,1.32-2.56-.36-.41-.52.32-.61.44-1.1,1.49-2.51,4.29-4.71,4.27-1.02,0-1.73-1.03-2.54-1.47-1.35-.73-4.96-1.79-4.66-3.82.08-.53.69-.79.85-1.29.28-.9-.36-2.42,1.11-2.09.38.08.69.47,1.07.6,1.77.61,3.97.06,4.19-2.03.08-.71-.37-1.26-.35-1.79.05-1.1,3.36-3.73,3.79-5.02.48.05.95.2,1.43.28.22.03.57.42.41-.18s-.83-.71-1.15-1.21c-.34-.54-.38-1.32-.69-1.9-2.44-4.53-7.26-5.89-11.9-3.77-3.65,1.68-4.86,4.6-5.38,8.39.72.11.38-.18.46-.59.37-1.79.71-4.49,2.84-4.82-.89.55-.64,1.51-.77,1.83-.03.07-1.22.74-.76,1.22.74-.64,1.38-1.5,2.13-2.11.46-.37,1.7-.88,1.76-.95.79-.84-1.63-.1-1.77.47-.23-.73,1.74-1.56,2.48-1.65l-1.18-.35c.14-.48,1.35-.78,1.4-.84.1-.15-.86-.86,1.34-1.13,2.67-.32,5.18.08,7.16,1.99.25.24,1.57,1.9,1.67,2.1.05.1.06.39-.12.35-.44-.26-.93-1.36-1.53-1.06.9.89,1.93,2.06,1.89,3.41-.42.47-2.34-3.05-3.3-2.58l1.54,1.41c.15.32,1.29,1.66,1.29,1.77,0,.13-.51.48-.7.35-.26-.18-1.32-2.83-2.6-2.58,2.23,1.73,2.78,3.24-.47,1.17-.42.4,3.61,2.5,1.9,3.17-.3.12-.86-.18-1.19-.23l.24-.47c-.39-.33-.79-.94-1.25-1.13-.43-.18-.79.06-1.11-.04-.76-.25-1.59-.88-2.49-.84-.36.01-4.09,1.02-4.44,1.22-.24.14-.56.38-.63.67.79-.2,1.43-.56,2.27-.68.29-.04,1.45-.24,1.51.21-1.15-.34-3.4,1.9-4.14,1.9-.91,0-1.42-2.39-2-2.83-.07,1.58,2.09,2.94.35,3.99l-.23-.47c-.15-.03-.09.89-.59.47-.12-.1.7-.87-.24-.7l-.23.94-.47-1.17c.01.59.12,1.34.35,1.88.39.9,2,2.5,2.36,3.3.5,1.12,0,2.4,1.69,3.26.66.34,1.76.05,1.74.97-1.03.04-2.42-.53-3.4-.46-1.1.08-2.98,1.04-4.27.93-1.96-.17-4-5.52-4.61-7.17,1.51.19,2.6-.66,2.59-2.23-.52.18-.49,1.26-.94,1.53-.84.52-1.64-.53-1.89-.35-.06.04-.48,1.12-.79,1.33-.63.44-1.81.34-2.52.07l.94-.46c-.77.28-1.23-.71-1.31-.71-.32,0-.85.36-1.28.24-.08.7.59,1.77,1.31,1.88.27.04,2.26-.2,2.53-.29.47-.15.59-.78,1.11-.65.45,2.17,2.42,7.24,5.07,7.29,2.09.04,4.23-1.19,6.75-.61.3.07,5,2.79,5.4,3.09,1.77,1.35,1.21,2.33.5,4.22-1.56,1.4-4.83,2.79-6,4.4-.87,1.19-1.3,3.88-1.33,5.35h5.67l2.6-8.93c.81.54,2.95.73,3.54,1.29.73.7.37,3.35,1.78,2,1.44-1.38,1.19-2.7,4-2.6.84.03,3.73,1.71,3.64.41-.05-.8-.94-2.4-.88-3.35.03-.49.84-1.22,1.04-1.75.49-.16.44.82.51,1.14.28,1.35,1.12,5.58.98,6.69-.14,1.03-2.13,3.91-2.55,5.11h6.14ZM129.95,18.97c1.2.36,1.42-1.02,1.89-1.29.33-.19.8-.08,1.16-.26,3.09-1.56,4.87-3.66,8.36-1.24.16.11,1.35,1.17,1.34,1.26-.01.33-.84,1.19-1.1,1.25-.88.17-1.62-1.14-3.61.18-1.87,1.24-.84,2.29-1.08,2.7-.03.05-.89.65-.95.65-.11,0-.9-.91-1.89-.9-.76,0-1.25.64-1.69.68-.76.07-1.77-2.5-2.44-3.02ZM140.64,19.02c2.08.47,2.17,3.36-.2,3.7-3.94.57-3.7-4.58.2-3.7ZM160,22.08c2.67.69.92,4.2-1.48,2.41-1.18-.88-.8-3,1.48-2.41ZM134.74,22.07c1.72.38,1.63,3.74-.84,3.2-1.99-.44-1.9-3.8.84-3.2ZM184.72,26.96c-.07-.06-.05-1.64.12-1.88l2.24,2.82c-1.28.38-.77-.71-1.33-.91-.29-.1-.96.04-1.03-.03Z"/><path class="cls-2" d="M140.34,24.14c.68,1.27-.11,2.26-1.18,2.94.23.27.81-.01,1.08.35.17.23-.54,1.31.58.35-.86-1.09.28-2.88,1.65-2.7l-.24-.58.95-.12c.05-.41-.54-.22-.82-.23-.67-.03-1.34.02-2.01,0Z"/><path class="cls-2" d="M131.61,15.21c.2.25,2.16-1.99,2.36-2.23l-2.01,1.06c-.18.04-.16-.25-.11-.35.4-.87,2.36-1.73,2.83-2.7-1.54.71-3.78,2.34-3.07,4.23Z"/><path class="cls-2" d="M141.05,28.37c.65.28,3.26-1.69,2.83-2.11l-2.83,2.11Z"/><path class="cls-2" d="M204.79,17.32c-.03.57-.08,1.45.01,1.99.1.6.54.86.64,1.24.18.69-.09,1.37.23,2.12.72,1.69,2.73.44,3.25.99.73.76.4,2.91.83,3.89l-3.78.59c.89.31,3.27-.34,3.85-.2s1.55,2.15,2.17-.03c.91.55,1.65,1.36,2.5,1.98.55.4,1.5.47,1.64,1.19.09.44.06,1.35-.12,1.76-.08.17-2.24,2.46-2.5,2.68-1.04.9-2.72,1.32-3.93,2.2-1.87,1.36-2.52,3.07-2.66,5.35-.03.48-.25,1.24.47,1.05.06-2.57.77-4.64,2.95-6.12,1.56-1.05,5.65-3.15,6.21-5.1.13-.46-.02-1.88.05-1.95.05-.05.99.02,1.43-.11.85-.25,4.43-2.6,4.47-3.3.01-.2-.23-.35-.59-.12-1.47.96-3.24,3.88-5.54,2.93-.71-.29-4.72-3.36-5.21-3.98-.6-.76-.77-2.12-1.62-2.86-.22-.42,1.18-.61.68-1.03-.08-.07-.72.25-1.05.23-.48-.03-1.83-.98-2.26-.46-.15.18.63.83-.11.7l-.81-.61c-.39-2.03-1.04-3.65-.5-5.73-.22.17-.44.7-.71.71Z"/><path class="cls-2" d="M205.5,16.62c.2-.16,1.01-.9,1.18-.7.34.81-.46,1.72-.47,2.23-.02.83.89-.78.99-.91.75-1.03.4-.76.85-1.73.25-.53,1.13-2.24,1.62-2.35.2-.05.53.22.79.06s.74-1.28,1.17-1.67c.79-.71,1.27-.2,1.19-1.51-1.72.17-2.73,1.39-3.42,2.81-.78-.51-.44-.92-.12-1.64-.75-.08-1.46.14-2.12.47-.08-.38.2-.62.46-.83.5-.42,1.17-.34,1.43-.81-2.87-.14-2.46,2.27-3.2,3.98-.37.85-1.98,2.13-1.05,3.31.04-.76.36-1.96.94-2.47.29-.26.56-.19.48.24-.07.4-.51.75-.71,1.53ZM206.69,14.27c-.05-1.15.6-2.44,1.89-2.58l-1.89,2.58ZM206.92,15.21c.46-.83.73-1.88,1.65-2.35.16.49-1.3,2.69-1.65,2.35Z"/><path class="cls-2" d="M220.61,21.55c-.87-2.39.44-.75,1.15-1.2.11-.07.23-.7.27-.91.22-.17.56,1.18.94.7.16-.2-.82-2.47-.47-3.05-.68.23-.45,2.32-.71,2.58-.8.84-.05-2.12-.94-1.64l-.23,2.11c0-.47.04-1.11-.25-1.51-.33-.45-.87-.32-.93-.38-.03-.03.28-.44.13-.69-.3-.5-2.39-1.19-2.7-2.04l-.62-2.43c-1.02,1.94-.23,3.72,1.55,4.8.53.32,2.01.7,2.24,1.07.34.54-.89,2.5.58,2.58Z"/><path class="cls-2" d="M211.17,21.32l1.18.7c-.57-1.03.08-.54.64-1.01.09-.07.69-.94.72-1.04.68-2.35-2.19-2.01-2.67-3.58-.34-1.11.05-2.21.13-3.3-.86.72-.85,2.53-.55,3.49.45,1.47,1.94,1.3,2.46,2.02.92,1.26-.63,2.64-1.9,2.72Z"/><path class="cls-2" d="M213.77,10.98c.22,1.34-1.29,1.06-1.42,1.18-.21.19.54.79.48,1.29,0,.08-.94.2-.48.59.09.07.67-.15.72.13.17.88-.36,1.65-.48,2.46,1.22-.55.73-2,.99-2.89.13-.45,1.46-1.33-.28-.87-.04-.74.67-.46.9-1.33.13-.49.11-.63-.43-.55Z"/><path class="cls-2" d="M224.63,22.73c.93,2.18,3.5,5.66,6.06,5.79.71.03,1.65-.32,2.44-.15.06-.41-.54-.22-.82-.23-2.23-.08-2.76.09-4.52-1.49l-3.15-3.91Z"/><path class="cls-2" d="M219.43,10.27s.34.06.42-.04c.41-.49-.78-1.26-.66-1.37l1.3.94c.61-.72-1.4-1.97-1.77-1.64-.65,1.59.44.91.7,2.11l-.71-.37-1.42,1.31,1.18.47c-.25-1.18.63-.49.93-.74.13-.1-.04-.58.02-.68Z"/><path class="cls-2" d="M222.74,15.91c.1.53.15,3.28.59,3.29.03,0,.56-.27.59-.36.22-.64-.44-.44-.49-.92-.08-.71.12-1.33.25-2.01h-.94Z"/><path class="cls-2" d="M210.46,7.21l2.49-.92h2.7c-1.78-.64-3.84-.52-5.19.92Z"/><path class="cls-2" d="M222.03,21.79s-.03.85.03.92c.19.21,1.08-.48.55,1.44,1.14.99.73-.86.42-1.59-.11-.27-.78-1.03-1-.76Z"/><path class="cls-2" d="M214.47,20.62c-.02.45-.11.48.36.48.97,0,2.39-1.1,2.94-1.89-1.34.08-1.68,1.81-3.31,1.41Z"/><path class="cls-2" d="M215.42,27.43l1.42-.35,1.65-1.05c-1.08.02-2.47.46-3.07,1.41Z"/><path class="cls-2" d="M214,19.44c.25.28,1.22-.97,1.64-1.08.53-.14,1.36.56,1.19-.33-.65-.39-3.61.55-2.83,1.41Z"/><path class="cls-2" d="M237.85,1.58c1.61.58,4.17,1.41,5.44,2.69.57.57,1.98,2.53,2.18,3.26.18.64-.29,1.11.29,1.57l.12-1.17c2.68-.03,1.37,3.87,1.71,5.47.17.82,1.83,3.87,2.35,4.71.35.56,2.22,2.72,2.28,2.92.25.89-.89,4.23-1.51,4.98-.42.51-3.75,2.79-4.34,2.97-1.55.47-4.99-3.51-4.73.33-1.05,0-2.38-1.63-1.78-2.6.25-.4,1.78.25,2.49.15,2.7-.34,4.4-4,5.19-6.25-.63-.13-.41.15-.59.46-1.1,1.88-2.04,4.68-4.42,5.26-2.6.63-6.62-2.57-8.04-4.61-.99-1.43-.41-.85-.2-1.13.36-.47-1.01-.91-1.28-1.16s-1.32-1.63-1.06-1.88c.66-.05,1.89.32,1.89-.71-.57.2-3.01.06-3.26-.29-.77-2.77-1.53-5.51-1.58-8.41-.64,1.31-.11,3.78.19,5.22.5,2.39,1.28,3.71,2.65,5.58.88,1.2,1.23,1.68,2.03,2.92,1.23,1.9,3.21,2.87,4.93,4.26-.95,1.63-2.59.74-4.01,1.41-.32.15-.39.4.12.36.82-.07,1.54-.73,2.48-.47-1.84,2.09-4.85,2.44-7.06,4.13-2.65,2.03-4.23,5.61-4.56,8.88-.12,1.16.18,2.48.05,3.67h11.81c-.27-1.09-2.92-6.24-2.8-6.9.06-.3.61-.54.77-.87,1.1-2.28,1.35-5.25,2.74-7.5.24-.16,1.68,1.41,2.15,1.74.32.23.84.23,1.15.5.93.8.15,3.02,2.21,1.72.56-.36,1.03-1.15,1.44-1.38,1.54-.88,6.95,1.21,7.21.95-.03-2.11-2.08-4.45.35-5.88l-.44,13.72-1.57,3.91h2.83s0-23.15,0-23.15c0-.21-1.21-.55-1.54-.82-1.2-.93-4.03-5.94-4.13-7.42s.59-2.95-.36-4.56c-.61-1.03-1.73-.93-2.23-1.31-.28-.21-.23-.83-.46-1.19-.92-1.46-3.49-3.22-4.98-4.09h-2.12Z"/><path class="cls-2" d="M240.45,5.1c2.62.42.68,3.76,3.3,4.47,0-.72-.87-.97-1.07-1.63-.25-.81.06-2.03-.56-2.73-.35-.39-1.48-.87-1.66-.11Z"/><path class="cls-2" d="M239.27,19.91l.47.35c-.79.53-1.42,1.72-2.36,1.77.72,1.18,1.17-.22,1.64-.6,1.15-.94,1.9-.83,3.32-1.05l-3.07-.47Z"/><path class="cls-2" d="M232.65,8.51s.53-1.32-.23-.59c-.35.33-.69,4.07.23,4.47.04-1.29-.06-2.59,0-3.88Z"/><path class="cls-2" d="M235.73,7.92c.66.11.4-.14.53-.51.31-.86.46-1.57.83-2.48.1-.25.51-.54-.06-.76-.19-.07-1.6,3.26-1.3,3.76Z"/><path class="cls-2" d="M231,9.33c-.13.16-.13,3.73.7,3.99-.27-1.18-.08-2.47-.23-3.65-.04-.34-.18-.73-.47-.35Z"/><path class="cls-2" d="M237.14,16.15c.36.41.52-.33.61-.44.47-.54.72-1.13,1.16-1.67l1.77-.94c-1.17-.17-1.77.37-2.46,1.19-.14.16-1.16,1.77-1.08,1.86Z"/><path class="cls-2" d="M239.74,23.43c.2.19,2.03-1.08,2.36-1.3.27-.18.61.06.47-.58-.51-.23-3.2,1.53-2.83,1.88Z"/><path class="cls-2" d="M238.56,16.15l1.53-.7c.66.46.03.49-.1.84-.16.41.32.45.45.33.07-.06.42-1.38.47-1.64-.67.48-2.29.11-2.36,1.17Z"/><path class="cls-2" d="M234.78,6.04c-.41.39-.18,2.84-.24,3.52l.69-3.19c.19-.4-.34-.43-.45-.33Z"/><path class="cls-2" d="M230.06,10.51c.06.92-.35,2.13.7,2.58-.12-.72-.14-1.53-.24-2.23-.06-.41.12-.4-.47-.35Z"/><path class="cls-2" d="M233.6,6.98c-.31.33-.22,2.92-.24,3.53.77-.26.18-.93.25-1.49.02-.18.81-2.89-.01-2.03Z"/><path class="cls-2" d="M155.69,14.03c.44-.03.41-1.1.83-1.18.29-.06.65.47.7.47.53,0-.13-1.64.36-2.11.68-.66.01,1.64.94,1.17-.05-1.04-.17-3.08,1.18-2.94-.52.22-.81,2.82-.71,2.94,1,.02.63-1.27.87-2.07.31-1.03.95-2.5,2.2-2.27-.36.96-1.05,1.65-1.31,2.69-.06.25-.3,1.24.25.95.59-.31.86-3.94,3.32-4,.71-.02,1.36.36,1.99.13-1.28-.86-3.37-.45-4.77-.05-2.34.67-5.52,3.82-5.85,6.28Z"/><path class="cls-2" d="M164.18,24.84c2.31.59-.47,2.3-.47,2.47,0,.76.89.12,1.23-.42.62-1,.17-1.7,1.84-1.69l-2.11-.73-.48.37Z"/><path class="cls-2" d="M165.6,28.84c1.29-.4,2.65-1.44,3.77-2.23-.44-.6-.38-.16-.72-.02-1.09.47-2.38,1.24-3.05,2.25Z"/><path class="cls-2" d="M163.95,21.55l3.05-2.72.49-.8c-1.45.85-2.85,1.94-3.54,3.52Z"/><path class="cls-2" d="M165.6,22.02c.88-.35,2.44-.69,2.12-1.88-.37-.03-.28.48-.57.72-.48.38-1.6.28-1.55,1.16Z"/><path class="cls-2" d="M167.02,28.61c-.1,1.27,2.1-.24,2.12-.59.05-.85-1.82.92-2.12.59Z"/><path class="cls-2" d="M188.58,9.18c-1.22,1.35-3.01,1.78-2.67,3.91.6-.67,1.13-1.16,2.06-1.35.42-.09,1.72-.35,1.48.41-1.65-.2-2.97.4-3.3,2.12l1.77-1.64.35.11-.94,1.29c.59-.91,1.79-.93,2.35-1.3.28-.18,1.23-2.24,1.09-2.47-.32-.54-1.75-.32-2.02-.93.64-.12,1.25.07,1.87.13.17.02.74.26.48-.25-.3-.59-2.02-.45-2.52-.04Z"/><path class="cls-2" d="M196.77,11.45c.12.1.71-.23.96-.11.37.16,1.07,1.75,1.13,2.18.16,1.35-.99,1.97-.43.29l-.94.94c.31-1.4.99-2.97-1.18-2.35-.19.18,1.6,1.28,1.06,1.64-.27-.2-.56-.77-.94-.7-.59.1-.12.84-.12,1.03,0,.17-.44.03-.5.48-.15,1.31.74,2.12.74,2.61,0,.63-.72.37-.72.81h1.18c.13.84-.72,1.21-1.18,1.77l.71.23-1.89.59c-.19-.76.51-.28.73-.61.77-1.13-.4-3.95-.97-3.39.54.95,1.17,2.08.37,3.07-.26.32-2.24,1.36-1.55,2.1.3.32,1.18-.6,1.51-.72.57-.22,1.18-.11,1.62-.27,1.1-.39,1.27-2.63,1.29-3.64,0-.32-.8-1.32.06-1.71-.24,1.36,1.09,0,1.17,1.55.05.83-.48,1.21-.48,1.85s.53,1.04.49,1.63c-.03.46-.57.95-.49,1.4.03.17.5.21.68.54.79,1.43.92,2.47,2.64,3.37.24-.25-1.54-2.02-1.75-2.37-.53-.9-1.09-3.57-1.05-4.58.02-.45.43-.83.46-1.4.04-.74-.44-1.12-.46-1.63-.04-1.08.42-2.06.1-3.43-.34-1.46-1.87-1.85-2.37-3.28-.28.38.22.86.28,1.32.03.24-.24.72-.16.79Z"/><path class="cls-2" d="M192.05,10.51c-.43.41.45.48.48.62.45,2.12-3.85,2.64-4.39,4.3-.29.91.07,1.2.11,1.8,0,.14-.63-.03-.45.45.19.51.89.05.94.12.26.45-.5,2.39-.74,2.55-.8.51-3.17-1.07-2.79.51.85-.62,1.57.28,2.37.14.26-.05,4.31-1.61,4.47-1.79.85-.92-1.21,0-1.32,0-1.93.19-1.28-.63-1.57-1.47-.18-.52-.64-.69-.66-1.46-.06-2.2,4.93-2.38,4.46-4.88-.06-.32-.6-1.17-.91-.88Z"/><path class="cls-2" d="M181.42,10.98c.82-.59,1.53-1.46,2.59-1.65l-1.41-.11c.71-.66,1.46-1.3,2.48-1.32.53,0,1.27.3,1.61.22.3-.07.74-.72,1.18-.95,1.79-.96,3.69-1.01,5.35.18.73.53,1.42,2.01,2.38.81-1.48.18-2.06-1.54-3.48-1.83-.98-.2-3.44-.17-4.29.32-.41.24-.74.9-1.13,1.01-.48.13-1.19-.25-1.83-.22-1.71.1-2.96,2.08-3.43,3.54Z"/><path class="cls-2" d="M188.98,26.26c1.25,1.01,2.87,1.59,3.3-.47-.26-.26-1.31,1.24-1.89.59.14-.24,2.27-1.38,1.89-1.76-.27-.26-2.58,2.05-3.3,1.65Z"/><path class="cls-2" d="M193.93,17.56c-.81-2.13-1.16-.03-1.33.02-.74.2-1.73.02-2.22-.6-.06-.08-.92-1.89-.94-.71,0,.07.57,1.05.7,1.18,1.02,1.09,2.59.5,3.78.11Z"/><path class="cls-2" d="M184.51,16.59s-.01-.33-.08-.36c-.79-.48-1.27.99-1.13,1.57l.47-.94c1.08,1.26,1.94.22,1.88-1.18-.47.11-.65,1.23-1.15.91Z"/><path class="cls-2" d="M184.49,21.32c-.55.76,1.54,1.24,1.99,1.19.09,0,1.02-1.62-.02-1.24-.83.31-1.07.9-1.97.04Z"/><path class="cls-2" d="M181.9,15.91l2.12-3.06c-.96.7-2.05,1.82-2.12,3.06Z"/><path class="cls-2" d="M181.19,16.15l1.41-2.82c-.96.57-1.54,1.71-1.41,2.82Z"/><path class="cls-2" d="M198.42,39.65c.6-.17,2.11-.37,2.12-1.17-.6.17-2.11.37-2.12,1.17Z"/><path class="cls-2" d="M111.53,14.74l-.71,2.46c1.74-.06-.4,2.3-.23,2.47.99-.04.92-1.4,1.43-1.98.64-.73,1.9-1.01,2.83-.73.19.06,1.3.64,1.17.95-.4.91-3.28.42-3.78,1.53.47.58,3.82-.73,4.14-1.41.61-1.31-2.3-1.81-3.3-1.64-.41.07-.63.5-1.07.46-.57-.86.19-1.97-.03-2.67-.24-.78-1.04.26-.92-.51.16-1.07,1.49-2.04,1.65-3.17-.11-.13-1.94,1.59-2.07,2.05-.06.2-.31,2.4-.28,2.53.18.77.85-.22,1.18-.34Z"/><path class="cls-2" d="M107.05,14.74c-.03.57-.59,1.95.47,1.88,0-.83-.13-2.08.71-2.58-.07.96-.84,1.82-.35,2.82.57-.7.4-1.7.78-2.52.26-.57,1.04-.97.99-1.71l-1.3,1.17c-.52-1.26-.63.28-1.3.94,0-.15.02-.45,0-.47-.88-.76-1.63,2.68-1.41,3.29.61.05.39.04.46-.35.11-.61.12-1.81.47-2.32.15-.21.46-.13.48-.15Z"/><path class="cls-2" d="M112.32,12.7c-.08.08-.6.78.04.63l2.01-1.17c-.03,3.05,3.5,2.17,3.56,5.29,0,.23-.53,2.47.21,1.76.9-.86-.21-3.87-1.16-4.6-.69-.53-1.57-.35-2.12-1.43-.41-.81-.03-1.12-.03-1.96l-2.52,1.49Z"/><path class="cls-2" d="M121.78,21.57c-1.23-.38-1.08,2.47.25,2.35,1.2-.11.22-2.2-.25-2.35Z"/><path class="cls-2" d="M110.83,5.81c-.06.4.56.25.82.23,1.9-.16,3.16-.26,5.08.24,0-.32-.69-.49-.95-.57-1.6-.53-3.4-.59-4.95.11Z"/><path class="cls-2" d="M121.69,16.15c.04.12-.03.32,0,.47,2.88-.02.36-.37.47-2.12l.47-.11c-1.57-.9-.69.89-.7,1.63,0,.22-.23.11-.25.13-.17-.56-.15-1.01-.24-1.53-.07-.39.15-.4-.46-.35v1.18s-.47-.24-.47-.24l-.24,1.88c.6-.15,1.06-.45,1.41-.94Z"/><path class="cls-2" d="M116.22,25.99c1.01-1.59-2.57.2-2.56,1.09,0,.12.4.52.58.11.19-.48,1.92-1.11,1.98-1.2Z"/><path class="cls-2" d="M106.34,8.86l1.29-.71,2.96-.93c-.56-.44-4.95.92-4.25,1.64Z"/><path class="cls-2" d="M105.67,9.99s-.03-.78-.51-.42c-.07.05-.06.73-.15.94-.14.32-.68.44-.56.94.33-.54,2.45-1.26,2.59-1.41.88-.94-1.3.01-1.38-.04Z"/><path class="cls-2" d="M117.67,9.1l.71,1.17c-1.62-.82-2.07-.42-.83.94-.38-1.98.57-.04.82-.23.32-.83.43-1.77-.71-1.88Z"/><path class="cls-2" d="M114.84,27.67c.75-.24.53.57,1.18.47l.24-1.41c-.19-.19-1.63.32-1.42.94Z"/><path class="cls-2" d="M113.67,23.45c-.07.05-1.05,1.31-.96,1.4.44.14,1.58-.48,1.65-.82s-.46-.74-.69-.57Z"/><path class="cls-2" d="M123.1,15.68c.7.07.99-.66,1.65-.23l-.71-1.41-.94,1.64Z"/><path class="cls-2" d="M104.45,39.3c.36-2.41,3.26-2.69,4.22-4.03.64-.89,2.1-6.76,2.75-6.9,1.21.51,2.37,1.91,3.65,2.24,2.69.69,6.09-1.87,6.38-4.59-.68-.13-.38.18-.53.52-1.23,2.86-3.66,4.67-6.8,3.14-1.6-.78-4.76-3.68-5.62-5.21-.23-.42-.18-.95-.39-1.26-.14-.21-.53-.21-.57-.25-.03-.04.32-.73.46-.81.37-.22.89-.03,1.25-.17.28-.11.43-.37.67-.52.34-.21,1.15-.05.57-.85-.15-.21-.8-.29-1.07-.46-.1.11.55.88-.24,1.3-1.28.68-.36-1.43-1.66-1.06.56.5.32,1.66-.24,2.01-.28.18-1.64-.04-1.84-.18-.44-.31-.21-1.99-.29-2.07-.1-.1-1.93.25-2.43-.76-.6-1.22,1-2.52-.41-3.47.63,1.22-.48,2.79.25,3.86.51.74,2.03.53,2.11.61.29.29-.78,1.95,1.35,2.53.45.12,1.19-.05,1.5.16.26.18.33,1.05.19,1.28-.38.6-4.02.84-4.81.74-1.07-.13-1.59-.92-2.65-1-.54-1.16-.99-2.38-1.5-3.56-.25-.56-.77-1.06-.97-1.62-.29-.79-.01-1.87-.89-2.29,0,2.44,1.6,4.36,2.56,6.5.57,1.25.84,2.62,1.65,3.78.42.63-1.39,3.77-1.85,3.35-.17-2.23-1.22-.9-1.98.26-.18.27-.14.71-.37,1.04-.09.14-1.23,1.52-1.33,1.53-.73.06-3.89-2.09-4.35-1.66l.35,1.64c-1.09-.83-2.67-1.55-2.95-3.05,3.84,1.63,6.98-.74,7.08-4.7-.82.92-.82,2.36-1.65,3.35-1.89,2.27-4.7,1.53-6.61-.29-.03.55.49.64.47,1.26-.02.44-.74,2.34-.99,2.81-1.64,3.11-6.59,3.78-7.41,7.2-.14.56-.51,4.31-.34,4.48.54-.11,2.81.16,3.04-.04.06-.05.11-.55.26-.79.89-1.42,1.98-2.67,2.65-4.19.99-2.24,1.46-4.76,2.56-6.98l3.14,2.16c.5.38,1.37.41,1.81.79.57.49.97,2.81,2.11,1.38.34-.43.95-2.65,1.11-2.7,1.91-.21,3.32,1.14,5.05,1.19.16-.78-.82-1.47-.67-2.17.09-.44,1.43-2.1,1.85-2.53,0,3.08,1.17,6.31,1.42,9.29.06.69-.18,4.38.02,4.57.09.09.69-.03.93.01.16-1.5-.21-3.38,0-4.82Z"/><path class="cls-2" d="M79.66,10.98c2.23-3.31,5.55-3.59,9.2-2.59.03-.29-.52-.47-.74-.55-1.26-.5-2.42-.4-3.74-.39.68-1.03,1.76-.28,2.25-.25,2.43.13,4.28-.05,6.13,1.9.36-.56-1.01-1.26-1.53-1.54-1.21-.65-3.33-1.19-4.64-1.21-1.76-.02-5.55,2.26-6.59,3.67-.24.32-.44.49-.34.95Z"/><path class="cls-2" d="M81.31,21.56c.06.51.68.32.88.53.14.14.31,1.14.66,1.58.52.67,1.14.36.82,1.88.52.02.09-1.04.23-1.17.25-.24,2.45.11,1.83-2.15-.45.02-.08.94-.39,1.35-.8,1.04-2.88-.3-2.62-1.55,1.11-.06,2.02-.53,2.77.61.31-.31.41-.37.05-.71-1.23-1.16-2.68-.07-4.24-.36Z"/><path class="cls-2" d="M89.84,23.23c-.37.27-.72,2.15-.97,2.44-.81.94-1.6-.69-1.89-.35-.41.47.54,1.11,1.08,1.17,1.98.21,1.25-1.74,2.08-2.37.62-.47,1.63-.02,1.99-.25.19-.12.39-1-.08-1.14-.18-.06-.12.57-.5.69-.48.16-1.39-.43-1.71-.19Z"/><path class="cls-2" d="M92.88,15.21c-.02.4,1.1.28,1.31.24.54-.1.44-.49.66-.65.19-.14.59-.03.63-.07.15-.15-.97-4.63,1.13-1.48l.28,2.89c.12-2,.48-4.33-2.12-4.7.19,1.45.23,4.17-1.89,3.76Z"/><path class="cls-2" d="M90.29,9.33c-.21.22.34.6.37.81.04.27-.27.9-.12,1.06.05.06,1.17.04,1.4.61.3.73-.58.37-.46.92.8.43,1.36,1.14.48,1.88,1.29,1.36.63-2.13.41-2.77-.24-.72-1.18-.95-1.33-1.16-.05-.07-.03-2.11-.74-1.36Z"/><path class="cls-2" d="M89.11,19.67s-.19-.75-.24-.94c-.29.39-1.81.64-1.89.71-.12.11-.11.56.36.47.42-.07,1.06-.71,1.18-.7.25,0,.49.77.35.93-.05.06-.92-.05-.94.47,1.01.25,1.97-.5,2.72-1.17.33-.29.86-.7.82-1.18-.3-.31-1.65,1.89-2.36,1.41Z"/><path class="cls-2" d="M93.35,25.55c-1.32.38-2.79,1.31-3.77,2.23.46.58.35.22.7,0,1.07-.69,2.39-1.08,3.07-2.23Z"/><path class="cls-2" d="M79.43,19.44c.42.06.24-.53.18-.77-.22-.85-.72-1.77-.83-2.7l-.29-2.64c-.22,2.18.27,4.08.94,6.11Z"/><path class="cls-2" d="M57.47,44.12c.06.06.57.09.71-.16.47-.8.1-2.86.29-3.9.5-2.73,3.19-3.56,5.3-4.84.3-.18.72-.18.95-.34.38-.28,2.31-3.66,2.39-4.08.07-.39-.59-.96-.42-1.49,3.06,1.18,4.98-2.66,5.67-5.05-.33-.44-.38-.12-.53.18-1.24,2.47-2.03,5.54-5.61,4.28-1.84-.65-3.75-2.36-4.69-4.02-.22-.39-.71-1.86-.79-1.92-.45-.33-1.73.2-2.34-.62-.15-.2-.36-3.89-.56-3.89-.22,2.17-.81,3.54,1.37,4.75.37.2.91.11,1.23.42.29.28.94,2.27,1.53,2.95,1.04,1.2,4.43,2.65,4.47,4.22,0,.5-.54,1.53-.8,2.01-1.22,2.26-3.83,2.76-5.87,4.26-1.51,1.12-1.73,2.32-2.02,4.1-.06.4-.38,3.03-.26,3.15Z"/><path class="cls-2" d="M84.85,27.29c.05-.05-.11-.21-.28-.33-.2-.09-3.07-.09-3.42-.08-3.55.05-7.75-6.8-7.16-10.14l-.47-2.23c.26,1.63-.04,4.15.34,5.65.52,2.01,4.04,6.59,6.2,6.99.51.09,4.6.33,4.78.15Z"/><path class="cls-2" d="M61.01,10.51c.33.37.91-1.18,1.41-.59-.68.86-1.99,1.95-1.77,3.17l1.78-2.69,2.11-2.24c-.54-.06-4.08,1.75-3.54,2.35Z"/><path class="cls-2" d="M62.6,13.74c-.15.25-1.36.63-1.13,1.58.2,1.1.41-1.26.95-1.06.15,1.53-.47,3,.12,4.47.03-.81.28-1.71.33-2.5.03-.38-.23-.76-.19-1.13.14-1.38.89-2.81.81-4.14-.84.51-.58,2.27-.88,2.76Z"/><path class="cls-2" d="M72.34,13.56l-.7-.47c-.08.11.77,2.17,1.18,2.35.52-1.95-.44-3.9-2.12-4.94l1.65,3.06Z"/><path class="cls-2" d="M64.79,19.67s.77.25.94.14l1.42-1.78c-.44.09-2.79,1.08-2.36,1.64Z"/><path class="cls-2" d="M56.76,8.39c-.13.12-1.25,2.48-1.32,2.81-.16.79-.11,1.57-.1,2.36l.34-2.12c.43-.64.62-1.42.97-2.09.13-.26.5-.45.57-.61.17-.39-.32-.48-.47-.35Z"/><path class="cls-2" d="M68.8,15.21c-1.02-1.78-3.28.13-3.55-2.22-.1-.87.33-1.64.13-2.47-1.68,2.93.45,4.88,3.42,4.7Z"/><path class="cls-2" d="M56.29,18.97l.34-2.13.84-2.34c-1.24,1.13-1.43,2.9-1.18,4.46Z"/><path class="cls-2" d="M71.19,15.41c.07.11.92.35,1.21,1.04l.41,1.82c0-.79.1-1.89-.36-2.58-.36-.54-1.12-.33-.82-1.42-.38-.03-.54.96-.44,1.14Z"/><path class="cls-2" d="M69.74,7.22l2.83,3.52c.12-.65-2.37-3.97-2.83-3.52Z"/><path class="cls-2" d="M57.71,7.92l3.07-2.11c-.55-.1-3.52,1.63-3.07,2.11Z"/><polygon class="cls-2" points="66.44 26.02 67.62 26.02 67.5 26.96 68.09 25.32 66.44 26.02"/></g><g id="Layer_2"><path class="cls-6" d="M33.46,65.13l.28,9.21c0,.08-.02.15-.07.2l-9.51,9.52c-.16.16-.38-.1-.27-.32l9.23-18.74c.1-.2.33-.11.34.12Z"/><path class="cls-6" d="M32.98,64.15l-17.71-8.65c-.19-.09-.14-.47.07-.47l14.21.24c.07,0,.13.05.16.13l3.5,8.41c.08.2-.07.42-.23.34Z"/><path class="cls-2" d="M32.96,64.56l-5.84,2.32c-.06.02-.11.09-.12.17l-3.37,16.38c-.05.27.22.43.33.19l9.21-18.69c.09-.19-.04-.43-.21-.36Z"/><path class="cls-2" d="M32.93,64.12l-17.34-8.48c-.2-.1-.35.26-.17.42l11.54,10.78s.11.06.16.03l5.81-2.3c.17-.07.18-.38.01-.46Z"/><path class="cls-2" d="M33.45,63.46l.27-22.72c0-.28-.29-.34-.36-.08l-3.69,14.52c-.02.06-.01.13.01.19l3.42,8.2c.09.22.34.14.35-.11Z"/><path class="cls-1" d="M31.84,49.68l.59,24.73-8.23,8.52,3.64-15.42.18-.75-.54-.54-10.19-10.19h12.03c.74,0,1.36-.52,1.53-1.29l.99-5.06M32.91,37.01l-3.42,17.47c-.02.1-.09.18-.18.18h-15.36l12.54,12.55-4.79,20.3,12.12-12.55-.91-37.95h0Z"/><path class="cls-4" d="M15.44,55.27l17.53,8.53c.16.08.31-.15.22-.35l-3.54-8.18"/><path class="cls-4" d="M26.43,67.17l6.51-2.92c.16-.07.31.17.21.36l-9.84,20.3"/><rect class="cls-3" x="33.13" y="37.51" width="219.04" height="37.59"/><rect class="cls-3" x="35.71" y="39.74" width="213.88" height="33.13"/><line class="cls-5" x1="48.75" y1="51.59" x2="43.47" y2="39.74"/><line class="cls-5" x1="48.75" y1="51.59" x2="40.14" y2="39.74"/><line class="cls-5" x1="48.75" y1="51.59" x2="35.71" y2="39.85"/><line class="cls-5" x1="48.75" y1="51.59" x2="35.71" y2="44.07"/><line class="cls-5" x1="48.75" y1="51.59" x2="35.71" y2="47.36"/><line class="cls-5" x1="48.75" y1="61.28" x2="43.59" y2="72.87"/><line class="cls-5" x1="48.75" y1="61.28" x2="40.33" y2="72.87"/><line class="cls-5" x1="48.75" y1="61.28" x2="35.88" y2="72.87"/><line class="cls-5" x1="48.75" y1="61.28" x2="35.71" y2="68.81"/><line class="cls-5" x1="48.75" y1="61.28" x2="35.71" y2="65.52"/><line class="cls-5" x1="242.23" y1="39.74" x2="236.95" y2="51.59"/><line class="cls-5" x1="245.56" y1="39.74" x2="236.95" y2="51.59"/><line class="cls-5" x1="249.59" y1="40.21" x2="236.95" y2="51.59"/><line class="cls-5" x1="249.59" y1="44.3" x2="236.95" y2="51.59"/><line class="cls-5" x1="249.59" y1="47.49" x2="236.95" y2="51.59"/><line class="cls-5" x1="242.11" y1="72.87" x2="236.95" y2="61.28"/><line class="cls-5" x1="245.37" y1="72.87" x2="236.95" y2="61.28"/><line class="cls-5" x1="249.59" y1="72.66" x2="236.95" y2="61.28"/><line class="cls-5" x1="249.59" y1="68.58" x2="236.95" y2="61.28"/><line class="cls-5" x1="249.59" y1="65.39" x2="236.95" y2="61.28"/><rect class="cls-3" x="35.71" y="39.7" width="213.88" height="33.21" rx="16.58" ry="16.58"/></g></svg>