<?xml version="1.0" encoding="UTF-8"?><svg xmlns="http://www.w3.org/2000/svg" viewBox="0 0 587.44 99.51"><defs><style>.cls-1{fill:#231f20;}.cls-2,.cls-3{fill:#fff;}.cls-3,.cls-4,.cls-5{stroke:#231f20;}.cls-3,.cls-5{stroke-miterlimit:10;}.cls-4{stroke-linejoin:bevel;}.cls-4,.cls-5{fill:none;stroke-width:.75px;}.cls-6{fill:#dcddde;}</style></defs><g id="Layer_10"><path class="cls-1" d="M36.87,25.88c.04.2.43.7.59.88-.16.24-.32-.03-.42-.17-.62-.88-.25-1.54-.33-2.46-.04-.46-.89-3.36-1.17-3.54-.22-.14-.56-.04-.73-.3l.59-.59c-.52-.08.02-.75-.15-1.25-.18.03-.26.54-.59.29-.06-.05.29-.27.3-.51,0-.04-.5-.14-.3-.52.79.66.79-.03.59-.73l-.15.44-.29-.29-.22.59c-.13-.45-.15-.21-.51-.15.42-.46,1.06-.78,1.18-1.47-.1-.11-1.09.71-1.16.83-.28.43.13,1.12-.6,1.38.03-.45.66-.74,0-.95.36-.57.81-.91,1.32-1.33,0-.23-2.57-.68-2.97-.85l-1.27-.9c.32-.57.8-1.01,1.21-1.52,1.57-1.96,2.48-4.16,4.66-5.71.23-.16.62-.18.7-.26.07-.06.56-1.37.74-1.68,4.1-6.98,16.51-5.67,18.9,1.9.16.5.23,1.77.38,1.97s.87.37,1.18.58c.87.6,1.87,1.49,2.23,2.48.23.65.7,2.24.44,2.82-.2.46-1.3,1.57-1.73,1.83-.35.21-2.44.95-2.51,1.06-.07.11,0,.37-.11.56-.07.11-.32.1-.36.26-.36,1.37-.57,2.44-1.54,3.58-.19.22-.5.3-.67.51-.35.42-.42,1.1-1.04,1.47-.16.1-.45.03-.55.11-.11.09-.01.53-.32.56-.09-.26-.07-.85.17-1,.03-.02.29.13.61-.04.25-.14.5-.46.63-.72.15-.33.06-.67.09-.7.06-.08.31-.09.45-.36.2-.39.63-3.15.55-3.57-.05-.25-.16-.41-.44-.37l-.29.88c-.04-.56.28-.98.3-1.54.03-.61-.26-.96-.18-1.52-1.26-1.02-1.06,1.21-2.48,1,.36-.44,1.78-1.36,1.03-1.99-.21-.17-3.5-1.15-3.94-1.21-.85-.11-1.58-.14-1.98.74-.1.22-.09.67-.12.69-.05.05-1.03-.1-1.02.23,0,.35,1.15.14,1.29.04.13-.09.44-1.1,1.06-1-.31.44-.95.66-.88,1.32l.88-.29c.19.58-.38.74-.51,1.04-.15.34-.45,1.48.14,1.45l.66-.87c-.28.92-1.3,2.47.44,2.36-.06.47-1.07.11-1.15-.03-.12-.19.03-.75-.03-1.05,0-.04-.38-.35-.49-.69s.36-.57-.39-.3c.56-.36.41-.79.74-1.32l-1.47.29c-.1-.26,1.45-.39,1.03-.73-.13-.11-.87.52-1.29.26-.07-.04-.12-.31-.24-.42-.15-.14-.52-.29-.54-.39-.05-.27.25-.72.14-.91-.1-.17-1.65-.85-1.94-.86-.45-.01-3.47.64-3.83.86-.42.26-.16.64-.28,1.05-.38,1.32-1,2.77-1.55,4.03-.02.55.43.83.7,1.23-.22.2-1.02-.84-1.02-1.1,0-.28,1.54-3.19,1.32-3.46-.9.55-1.09.7-2.06.15-.55,1.3-.93,2.08-.7,3.57.15.94,1.29,3.31,1.29,4.01,0,.64-.11,1.81,0,2.35ZM47.72,1.87c-.15-.1-.48-.15-.41.17.66.89,2.08-.06.81-.22-.43-.05-.02.26-.07.29-.31.18-.3-.23-.33-.24ZM42.61,2.11c-1.37.38-2.33,1.93-3,3.1l-1.26,5.28h.74c-.19-.7-.07-1.44.16-2.12.36-1.1.82-2.24,1.21-3.35.45-1.29,1.15-2.04,2.17-2.91ZM46.43,4.17c.85-.05.02-1.06.14-1.62-.82.35-.05.96-.14,1.62ZM47.61,2.55c-.43-.45-.28,1.38-.29,1.47.63.17.4-1.36.29-1.47ZM43.16,3.02c-.17.05-.28.23-.4.35,1.21,1.65,1.57-.68.4-.35ZM45.98,3.01c-.08-.07-.6-.15-.58.21.02.23.6,1.27.67,1.25.33-.14-.03-1.41-.09-1.45ZM49.52,4.32c.2.21,1.2-1.02.22-1.18l-.22,1.18ZM45.11,3.29c-.69-.58.24,1.72.59,1.32.13-.14-.51-1.25-.59-1.32ZM45.1,4.33s-.23.14-.42.06-.44-.41-.67-.37c-.12.02-.31.33-.23.44.04.06,1.18.6,1.25.59.29-.06.17-.65.07-.73ZM48.05,5.5c.09-.09.29-1.47-.07-1.47-.28,0-.25,1.04-.22,1.25.03.2.08.44.29.22ZM51.14,5.5c1.19-.42.27-1.13-.44-1.32-.53,1.4.63.51.73.59l-.29.73ZM46.87,4.32c-.63-.48-.32,1.43-.14,1.62.51-.08.26-1.53.14-1.62ZM50.11,4.62c-.74-.15-.83.15-1.06.79-.08.22-.17.17.1.39.57-.13.82-.65.95-1.18ZM42.58,5.77c.6-.36-.49-1.81-.56.02.17-.02.43.06.56-.02ZM45.84,4.91c-1.31.28-.42,1.08.44,1.32l-.44-1.32ZM44.52,5.64c-.18-.31-1.25-.83-1.47-.36-.2.42,1.3.39,1.47.36ZM49.82,6.53c.21.22,1.44-1.19.81-1.32-.4-.08-.86,1.26-.81,1.32ZM44.37,5.79h-1.47s0,.44,0,.44c.49-.06,1.46.27,1.47-.44ZM49.67,7.41c.2-.73-.72-1.61-1.39-1.62-.39,0-1.55.36-1.8.64-.19.21-.81,1.71-.04,1.57-.16-1.56,1.68-2.3,2.71-1.31.38.37.03.78.53.72ZM50.11,6.82c.08.07,1.32-.32,1.32-.51l-.51-.51-.81,1.03ZM52.17,5.79c-.58-.44-.35,1.69-.29,1.76.04.04.84.1,1.02.15.06-.24-.24-.06-.29-.25-.07-.24-.31-1.56-.45-1.66ZM45.84,6.97c-.04-.27-1.24-.96-1.32-.88-.02.02-.18.41,0,.52.25.15,1,.29,1.33.37ZM44.23,6.38l-1.47.15v.44c.56-.06,1.58.3,1.47-.59ZM47.07,7.01c-.14.19-.28.77.03.83.53-.31,2.83-.14,1.61-1.02-.51-.37-1.27-.31-1.65.19ZM41.74,6.69c-.1.06-.24.67.06.72.88.14.7-1.19-.06-.72ZM51.58,6.97c.28-.4-1.62-.22-1.47.44.62.13.95-.27,1.47-.44ZM44.61,6.84c-.79.19-.07,1.2.79.35,0-.12-.65-.38-.79-.35ZM42.46,7.41c-.22-.25-1.84.95-.14.66l-.59.51c.96-.17.75-.24.73-1.18ZM43.93,7.56s-1.23.11-1.18.51.95-.25,1.18-.07c-.02-.12.03-.41,0-.44ZM45.7,7.56l-1.47.15c-.09.66.17.46.67.3.2-.06.74-.22.8-.45ZM60.55,15.21c.43-.4-.1-2.58-.33-3.13-1.31-3.12-8.04-4.61-11.07-4.38s-5.52,1.74-8.34,2.69c-2.12.71-4.46.51-6.47,1.77l-3.06,2.38c1.45.58,1.6-.71,2.36-1.17.62-.38,1.44-.31,2.09-.56.41-.16.66-.54.98-.64.54-.17,1.15,0,1.69-.07.5-.08,1.01-.55,1.54-.66,1.34-.29,1.2-.33,2.32-.77.57-.22,1.2-.2,1.76-.44.51-.22.98-.85,1.51-.99,1.34-.35,2.24-.59,3.59-.66.93-.05,1.24-.56,2.4-.02.27.12.5.49.76.55.21.05.52-.11.81-.07.47.06.76.47,1.08.55.42.11.87-.05,1.26.07.51.15,1.66.87,2.11,1.27.83.75,1.49,1.48,2.11,2.42.35.53.53.09.68,1.29.02.19-.17.93.21.58ZM45.55,8c-.27.19-1.61.31-1.62.51-.01.47,1.58-.19,1.62-.51ZM42.46,8.59c-1.08.08-.59.37-.73,1.18.23-.12.91-.99.73-1.18ZM43.78,10.65c-.88-.12-1.65.19-2.21.88.51-.04.85-.52,1.32-.67.29-.09.82.05.89-.21ZM45.7,13.15l-1.47-.15c.09.22.79.59.96.59.21,0,.45-.24.51-.44ZM47.46,13.3c-.5.08-.99-.29-1.47-.07-.26.12-1.04,1.24-1.03,1.47.04.7.6-.52.73-.52l-.14.73c.79.02.83-.55,1.25-1.03.23-.26.53-.33.66-.58ZM38.05,14.77c-.58-.08-.97.25-1.32.66l1.32.07-.44-.15v-.44s.44-.15.44-.15ZM55.88,18.87c-.17-.25.32-.42.39-.67.17-.61-.71-1.86-1.45-1.81.66,1.04,1.08,2.15.74,3.38.22-.08.53-.47.58-.68.06-.28-.22-.17-.26-.23ZM55.4,20.51c-.92-.23-.59.76-1.03,1.32.18.18,1.31-.91,1.03-1.32Z"/><path class="cls-1" d="M34.07,21.54c-.63-.81-1.32-1.53-1.03-2.65l.21,1.18c.27.5.82.82.82,1.46Z"/><path class="cls-1" d="M32.31,42.88c.09-1.51,1.89-3.76,2.71-5.02,1.07-1.63,3.19-5.39,4.8-6.38.43-.26,1.4-.32,1.69-.81.15-.24-1.41-3.65.36-3.39.03.27-.49.19-.57.31-.26.42.24,2.44.42,3,.47,1.46,1.77,2.95,1.32,4.49l-.46-1.82c-.11-.24-.31-.27-.56-.23-.16.63-.64,1.07-.92,1.66-.41.88-.46,1.74-.79,2.6-.09.24-.15.69-.51.59.82-1.77.8-4.07,2.65-5.22-.38.09-.75-2.11-1.18-1.69.26.64.07.34-.34.61-.93.62-1.72,1.46-2.27,2.44-.76,1.35-1.07,3.19-1.94,4.39-.07.1-.37.41-.26.04.34-.49-.31-.06-.33-.4.43.26,1.05-.58,1.03-.81-.02-.18-.47-.12-.44-.36.16-.06.56.17.59.15.14-.14.24-1.58.33-1.73.43-.74.96-1.79,1.52-2.52.13-.17.59-.16.28-.45-.8.08-.77.88-1.36,1.27-.26.5-.42,1.04-.63,1.56-.07.17-.42-.02-.14.55-.42-.34-.9.05-.89.51,0,.16.37-.03.3.22-.78-.15-.23.39-.29.44-.02.02-.31-.01-.45.07-.17.1.03.36.01.37-.1.05-.47-.07-.57.02-.05.04-.04.38-.13.53-.27.45-.79.74-.77,1.37.59.01.93.15,1.47-.14-.32.4-.74.9-.88,1.4-.08.29.15.25.35.21,1.03-.2,2.25-.74,3.32-.95.38-.79.97-2.67,1.55-.96.13.38.1.87.25,1.22.35.77.76.35,1.21.4.21.02.38.3.56.27s.57-.46.98-.27c-.27.4-.98.03-.72.79.22.63,1.12-.11,1.16-.05v.44c-.6-.01-1.58.21-2.13.16-.45-.04-.54-.36-.73-.4s-.41.14-.78,0-.23-.64-.42-.93c-.06-.1-.28-.12-.32-.18-.13-.21.11-.58-.18-.56-.19.98-.67,1.96-.74,2.94-.93-.17-.03-1.49-.15-2.21-.46-.07-.23.12-.29.37-.13.59-.24,1.18-.45,1.75l1.03.38c-.58-.23-1.17.13-1.55.14-1.6.08-3.18.39-4.85.45-.46.02-.02-.45.07-.59,0,.15,0,.3,0,.44.46-.38,1.24.11,1.55-.13.46-.36,1.41-1.71.66-2,.44-.54.78-1.18-.19-.95-.12.03-.12.23-.21.28-.23.12-.9.42-1,.6-.12.2.06.41,0,.59-.05.14-.65.93-.8,1.17ZM40.25,39.35c-.26-.28-1.11.57-.36.88.34.14.42-.82.36-.88ZM40.84,41.11c.1-.8-.4-1-.88-.37.23.32.49.42.88.37ZM37.31,40.52l-.41.4-.1,1.81c.45-.61.54-1.48.51-2.2ZM37.9,40.52c-.74.14-.4,1.61-.73,2.21.45-.52.64-1.52.73-2.21ZM41.32,41.37c.32.31,1.07.02.99-.33-.45-.9-1.55-.21-.99.33ZM35.54,43.02s.03-.3.14-.37c.12-.07.35.1.5.06.44-.11.6-1.61.54-2.04-.46.27-.41,1.01-.59,1.47-.27.04-.11-.3-.08-.45.06-.3.23-.56.23-.87l-.88,1.13c.08.28-.31,1.46.14,1.07Z"/><path class="cls-1" d="M55.55,36.55c.21.15.63.22.81.59.23-.65-.52-1.06-.96-1.4l.73.22-.59-.88c.36.35.97.06,1,.69,0,.19-.25.32-.21.5.05.2.38.4.38.65,0,.22-.33.4-.3.73.02.26.4.48.5.84.04.14.26,1.99.25,2.1,0,.09-.3.09-.31.16-.02.31.43.57.44.88,0,.33-.45.73-.44,1.1-.6-.62-.34-2.01-1.17-2.5.39.91.65,1.84.88,2.8-.55-.14-.56-2.18-.95-2.2-.46.35.14.79.21,1.26.05.31.12,1.11-.23,1.22-.13.04-.76.05-.79.02-.15-.15.03-2.34-.88-2.35l.29,2.5c-.29.07-.36-.26-.63-.26-.23,0-.54.2-.8.23-.22.02-1.25.16-1.33.15-.35-.02-.63-.26-.82-.24-.29.03-.89.72-1.35.42-.24-.16-.22-.42,0-.45.21-.03.45.27.59.26.1,0,.7-.59.88-.7.14.44.21.2.51.25.12.02.46.41.58-.05.03-.1-.2-2.06-.29-2.12-.06-.04-.31.02-.44,0v.74c-.33-.07-.24-1.27-.67-.59-.1.16.33,1.43.23,1.77-.53-.35-.09-1.3-.51-1.76l-.37,1.47c.16-.48-.32-1.49.08-1.75.22-.15,1.42-.27,1.77-.29.58-.04,1.62.13,2.21.12.29,0,1.45-.04,1.53-.24.45-1.2-.51-3-.72-4.25-.32-1.93.27-4.12-1.05-5.72-.48-.58-1.21-.89-1.61-1.55l1.69,1.18c1.62,2.36,4.86,2.34,6.91,4.12.29.25.41.63.81.81-.1.21-.36-.02-.49-.1-.54-.35-.99-.99-1.61-1.33-.35-.19-3.49-1.58-3.63-1.44.06.26-.14.57-.11.79.05.32.99,1.34.25,1.49l.59.74c-.41.05-.95-1.01-1.06-1.07-.64-.35-.85.55-.26.56.08.24-.29.07-.3.22-.03.29.23.43.24.59,0,.09-.29.33-.09.69.05.09.42.28.59.41-.08-.04-.31.02-.44,0-.28.6.43.91.44.97.05.4.09.72.16,1.16.1.6-.17.96.29,1.46.73.8,1.22.1.43-.58-.05-.13.34.03.3-.29l-.45-.59c.69-.24.07-.87-.44-.81-.03-.25.42-.19.44-.36,0-.06-.68-.93-.73-.96ZM52.3,40.97c-.08-.05-.3,0-.43-.01l.15,2.21c.77.11.4-2.12.28-2.2ZM53.77,41.13c-.05-.06-1-.2-1.09-.03-.09.35-.21,2,.15,2.07.71.15.45-1.38.37-1.76.52.15.17,1.5.29,1.62h.44c.07-.07-.1-1.82-.16-1.89ZM54.89,40.97c-.38,0,0,1.47.08,1.69.07.2.24.58.51.52.6-.13-.15-2.19-.59-2.2Z"/><path class="cls-1" d="M48.79,21.97c.62.38.36-.71.73-.88-.14.41.19.99-.29,1.1l.44.37.29-.59c.03.18-.54,1.61.05,1.45.69-.19,1.77-.76,2.14-1.4.33-.57.15-1.26.83-1.52-.02,1.27-1.11,2.37-2.28,2.87-.38.16-1.39.18-1.03.66.04.05.36-.21.44-.15-.2.3-.32.41-.3.8.02.53,1,3.4,1.32,3.8.18.22.48.17.57.28.92,1.24-1.67,6.11-1.15,7.77l-.29-.29-1.15,4.6c.5.6.13.31.03.45-.41.58-.05,1.38-.27,2.02-.4-1.89.37-3.63.66-5.45-.8.13-.46.33-.66.74-.43.9-.75.39-.97.51-.19.11-.2.55-.32.63-.17.12-.77.05-.96.21-.13.11-.07.43-.28.57-.33.22-.71-.08-.98-.03-.12.02-.26.71-.91.69-.57-.02-.76-.85-.22-1.12-.59,1.04.84,1.11.86.39,0-.35-.67-.6-.56-.68.21-.11.68.35.73.29.04-.04-.02-.49.22-.59v.74c1.38.71.69-.92,1.09-1.42.28-.36.96-.13,1.04-.21.04-.04-.04-.45.14-.67.14-.18.45-.16.6-.29.37-.31.31-1.21,1.33-.95-.78-.84.45-.79.66-1.32.18-.45,1.3-5.24,1.25-5.52-.04-.25-1.15-1.98-1.37-2.61-.39-1.11-.61-2.47-.77-3.64-.04-.27.1-.5.05-.77-.12-.62-.94-.51-1.11-1.4-.07-.34-.08-1.14.26-1.36,0,.33-.05,1.78.16,1.91ZM49.52,36.84c-.54-.2-1.04.73-.51.88s.56-.52.51-.88ZM48.15,37.89c-.59.15-.54,1.26.26,1,.4-.13.37-1.16-.26-1ZM47.61,38.91c-.11-.16-.78-.21-.95.15-.56,1.14,1.33.41.95-.15Z"/><path class="cls-1" d="M44.87,15.45c.12.12.37.15.39.35-.74-.26-1,.2-1.64.35-.68.16-2.21.36-2.19-.64l.44.15-.15-.44c.43.7,2.35.02,1.4-.29-.04-.01-.37.76-.66.44-.09-.1.17-.56.15-.59-.25-.35-1.82-.2-1.47.73l-.43-.22c.54-2.42,3.01-.97,4.16.16Z"/><path class="cls-1" d="M49.28,18.8c.33-.26,1-.79,1.42-.57-.89.31-1.14,1.14-1.91,1.55.22-.44-.17-.66-.24-1.02-.08-.44.38-1.41.82-1.63-.19.65-1.02,1.36-.37,2.06.09,0,.18-.31.27-.39Z"/><path class="cls-1" d="M39.81,22.13c.22.2-.02.27-.22.29-.69.09-1.88.16-1.99-.74.35.14.95-.02,1.22.03.05.01.95.38.99.41Z"/><path class="cls-1" d="M39.81,22.86c.37.37-1.39,1.72-1.89.5-.18-.43.27-.56.35-.06l.37-.29.07.59.37-.15c.08-.2-.6-.14-.29-.44.04-.04.99-.18,1.03-.15Z"/><path class="cls-1" d="M45.4,21.1c.2,0,.4.03.59-.07.26-.13.18-.51.44-.52.11.27-.29.86-.28.96.02.18.48.12.43.36-.49.18-.52-.41-.69-.44-.15-.03-1.78.06-1.37-.44.02-.03.53.25.73.15l.15-1.03v1.03Z"/><path class="cls-1" d="M45.55,16.39c-.04.17-.77.5-.22.59.26.04.69-.43.95-.22l-1.76.96s1.07-1.05,0-.81c.51-.45.26-.79,1.03-.51Z"/><path class="cls-1" d="M39.96,20.36l.29-.59-.38.87-1.38-.8c.5-.77,1.17.76,1.47.51Z"/><path class="cls-1" d="M51.58,18.01c.1.11-1.31,2.39,1.03,1.62-.41.64-1.46.51-1.59-.26-.04-.21.22-1.72.56-1.36Z"/><path class="cls-1" d="M49.67,16.53c.28.08.35-.22.59-.29v.59s.74,0,.74,0c-.25-.11-.77.3-.81.29-.25-.02-.02-.78-.66-.14v-.73s.15.29.15.29Z"/><path class="cls-1" d="M212.31,36.7s.24-.08.28.09c.04.2-.08.61.01.72.06.06.64.11.87.58.09.19.05.52.07.54.04.05.6-.3,1.11.34.11.14.1.43.15.46.11.09.71-.08,1.08.23.23.19.25.59.28.61.06.05.23-.21.37-.24,1.14-.24,1.27.55,1.34.52.17-.07.41-.52.75-.63.41-.12.8.12.97.02.08-.05.11-.28.23-.36.24-.14.63-.13.86-.34.2-.18.22-.5.42-.68.15-.13.49-.17.53-.23.06-.1.01-.53.1-.8s.46-.44.47-.51c.05-.27-.07-.58.07-.87.1-.2.48-.27.55-.4.06-.11-.09-.38-.05-.59.06-.27.37-.46.38-.71.02-.66.02-.55.13-1.14.03-.16-.29-.37-.25-.78.03-.28.23-.42.28-.57.02-.08-.25-.04-.28-.15-.12-.45.28-.74.25-.92-.02-.14-.28-.39-.34-.64s.08-.47.05-.61c-.04-.18-.33-.28-.38-.57-.06-.36.15-.74.11-.94-.01-.05-.64-.85-.69-.88-.14-.08-.38.02-.49-.05-.13-.08-.04-.55-.3-.53-.19,1.03-.28,2.06-.42,3.09-.02.19-.1.44-.27.2-.01-1.68.47-3.33.55-5.01s.1-4-.16-5.63c-.07-.45-.47-.97-.26-1.6,1.16,1.03.65-2,1.44-1.92.48.05-.38,1.18-.21,1.37.18-.11,1.06-.37,1.1-.42.11-.14-.65-1.38.13-2.14.22-.21.54-.18.56-.2.13-.15-.45-.68-.52-.93-.28-1.04.65-1.31.65-1.48,0-.15-1.36-.99-.61-2.13.17-.25.5-.28.61-.55-1.25-.38-.62-1.34-.68-2.13-.02-.27-.29-1.12-.56-.9-.02.02.14.38.15.61.02.66.11,1.63-.56,2,.25-1.02.49-1.7.21-2.76-.26-1-.58-.74-1.11-1.23-1.45-1.33-3.11-2.84-5.23-3.02-.64-.06-3.79.11-4.37.28-.12.04-.09.26-.18.28-.42.06-1.73-.28-2.28-.25-.61.04-1.81.6-2.23,1.07-.05-.66,1.14-1.16,1.79-1.24.78-.09,1.66.14,2.34.11,2.27-.1,4.72-1.08,6.93-.03.56.27,1.21.93,1.76,1.27.72.45,1.81.84,2.39,1.46.42.44.7,1.57,1.11,2.12,1.51-.44,2.95.24,2.42,1.97-.1.31-.43.44-.3.79.34.96,1.05.81,1.79,1.24,1.69.99,1.79,3,1.71,4.75-.02.43-.22.94-.24,1.38-.03.63.18,1.45.11,2.2-.06.55-.38,1.6-.71,2.04-.37.5-1.34.91-1.55,1.2-.41.55-.21,1.56-.97,2.2-.17.14-1.87,1-2.1,1.07-.1.03-1.1.21-1.14.17s.02-.31,0-.41c-.66.39-1.27-.11-1.1.96.78-.86,1.14.09,1.33.14.26.06.56-.08.87.07.73.34.08,1.2.14,1.3.02.02.34.1.48.28.57.69.35.91,1.43,1.32s1.62.38,2.71,1.14c.49.34,1.84,1.41,1.69,2.02-.17.69-.56-.65-.62-.75-1.07-1.75-3.57-1.93-5.15-2.89.02.48.54.48.56,1.03.02.41.02.77.04,1.16.05.84-.08,1.2-.16,1.89-.03.26.16.58.1.94-.05.3-.37.44-.38.55-.01.16.36.44.22.93-.11.38-.6.45-.65.53-.03.03.22.48.1.85-.09.3-.44.31-.5.4-.08.14,0,.43-.1.65-.14.31-.82.64-.86.72-.13.23.07.73-.1,1.07-.18.37-.81.29-1,.44-.12.1-.1.45-.39.64-.53.34-1.24-.03-1.29.01-.09.09-.11.85-.76.97-.53.09-.68-.25-.97-.28-.47-.05-.83.73-1.72-.06-.15-.13-.26-.46-.29-.47-.16-.09-.74.3-1.29-.15-.33-.27-.31-.8-.34-.83-.02-.02-.26.14-.45.11-.88-.14-.67-.79-.81-.91-.07-.06-.48-.03-.72-.17-.34-.21-.34-.72-.53-.91-.14-.14-.51-.15-.66-.37-.23-.32-.05-.66-.15-.95-.1-.33-.87-.28-.64-1.09.04-.14.3-.32.25-.37-.05-.06-.62-.01-.69-.49-.07-.44.29-.71.29-.95,0-.09-.3-.14-.41-.29-.46-.65.3-1.24.26-1.29-.01-.02-.27-.03-.42-.2-.58-.65.03-.86,0-1.09-.03-.17-.46-.29-.41-.7.03-.19.25-.35.25-.42,0-.11-.48-.39-.5-.82-.02-.56-.07-1.67-.03-2.21.03-.4.52-.83-.21-1.29-.2-.13-1.21-.27-1.5-.29-1.39-.07-4.07.46-5.44.89-.26.08-.38.39-.68.35l.54-.49c2.32-.4,4.85-1.59,7.15-.61.04-.41.13-1.01.62-1.1.11.17-.25.3-.31.51-.2.67.18,1.33.75,1.67.71.42,1.06.09,1.77.02,1.32-.12,1.91-.07,3.08-.9s1.91-2.23,1.8-3.64c.65-.04,0,1.14.14,1.51.48-.15.45-.73.82-.96.05.91-.74,1.14-1.17,1.65-.79.92-1.8,2.41-3.17,2.61-1.23.18-1.9-.17-3.08.43-.5-1.14-1.49-.35-.55.34-1,.68.56,1.33.55.41,0-.41-.5-.34-.55-.62.19,0,.38-.05.55-.14.36.81-.03,1.3.01,1.36.06.08.47.09.52.53.04.27-.19.4-.19.52,0,.14.08.28.07.34-1.2-.65-1.14,1.35-.27.9.36-.19.23-.6.27-.9.46.25.02.75.06.97s.34.47.35.76c.02.48-.36.23,0,1.02-.16-.42-.98-.32-.97.49,0,1.02,1.22.16.97-.49.02.04.25.12.24.36,0,.26-.26.46-.22.65.03.15.38.36.47.63.25.74.27,1.68.89,2.21-1.91-.32-.75,2.16-.03.72.13-.26.22-.47.03-.72ZM221.39,19.99c.07,1.71-.05,3.44,0,5.16l.69-.96c.1.51-.3.85-.41,1.3l.42-.27.55-1.58-.13,1.79c.59-.51.73-1.57.69-2.34.63.54-.04,1.79-.14,2.48.3-.01.5-.63.57-.68.11-.07.35.27.67-.07.14-.15.41-.95.41-1.11v-2.06c0-.06-.24-.34-.14-.48.04-.05.27.18.27.21v3.16c0,.06-.35.24.07.2.33-.17.6-.41.76-.75.11-.21.5-1.44.54-1.66.2-1.23-.28-2.84-.54-4.05.35.17.39.75.48,1.1.22.89.36,1.83.34,2.75.55-.29.18-1.27.68-1.51l-.13,1.1c.18,0,.41-.54.41-.62v-2.27l.27,1.17v1.03c1.35-1.53.5-3.72.48-5.5l.34.27c.25-2.16-.09-4.62-2.61-5.08-.15.54-.26,1.27-.97,1.24-.07.3.3.38.38.64.37,1.21-.64,1.41-.67,1.76s.32.55.4.85c.23.97-.45,1.5-1.35,1.56.54.95.11,2.45-1.14,2.17-.54-.12-.7-.92-1.21-.05-.33.57,0,.76,0,1.11ZM221.11,18.68c.53-.03.73-.66.69-1.1-.21.11-.85.92-.69,1.1ZM223.44,27.08c-.05-.06-1.02-.28-1.09.06-.19.95,1.68.65,1.09-.06ZM223.27,28.19c-.48.12-.5,1.14-.17,1.2,1.29.02.9-1.38.17-1.2ZM210.38,29.01s-.76-.3-.8-.27-.31.59-.28.72c.2.85,1.36-.04,1.08-.45ZM224.43,30.19c0-.35-.28-.63-.63-.63s-.63.28-.63.63.28.63.63.63.63-.28.63-.63ZM224.37,31.72c.73-.59-.97-1.09-1.04-.28-.05.62.75.51,1.04.28ZM210.7,31.75c0-.28-.23-.51-.51-.51s-.51.23-.51.51.23.51.51.51.51-.23.51-.51ZM224.39,33.11c.13-.08.21-.75.09-.95-.18-.29-1.68-.03-1.11.85.12.16.88.19,1.02.11ZM224.41,33.4c-1.05-.38-1.61,1.11-.6,1.1.67,0,.64-.56.6-1.1ZM210.27,35.18c.31.53,1.82-.6.33-1.22-.11-.03-.5.93-.33,1.22ZM224.1,35.84c.32-.28.33-.98-.31-1.07-1.45-.22-.54,1.8.31,1.07ZM211.63,35.6c-1.73-.3-.81,1.65-.13.77.17-.23.13-.51.13-.77ZM223.15,35.9c-.34-.15-1.05.77-.45,1.2.53.38,1.09,0,1.03-.61-.03-.34-.28-.26-.51-.4-.06-.03-.05-.18-.07-.19ZM223.31,37.53c-.36.16-.81-.29-1.06-.18-.73.34-.29,1.41.27,1.26.23-.06.94-.95.78-1.08ZM212.67,37.81c-.54.12-.53,1.86.48,1.03.62-.51-.16-1.1-.48-1.03ZM222.18,38.8c-.36-.35-1.13-.08-1.19.33-.02.1.53.84.63.87.5.15.91-.86.57-1.19ZM214.61,39.41c0-.33-.27-.6-.6-.6s-.6.27-.6.6.27.6.6.6.6-.27.6-.6ZM215.94,40.31c0-.36-.3-.66-.66-.66s-.66.3-.66.66.3.66.66.66.66-.3.66-.66ZM220.95,39.61c-.86-.54-1.86,1.21-.6,1.22.82,0,1.07-.93.6-1.22ZM216.78,40.2c-.66.06-.91,1.12-.07,1.39,1.18.37,1.49-1.52.07-1.39ZM219.3,40.17c-.81-.47-1.75.99-.79,1.42.73.32,1.41-1.06.79-1.42Z"/><path class="cls-1" d="M208.6,4.1c-.63-.18-1.33-.4-2-.28-.32.06-.26.33-.45.41-.22.1-.64.05-.89.17-.21.11-.84.84-1.06,1.07.9-.34,1.79-.61,2.75-.27l-1.79.14c-.06.35.03.21.19.29.35.16.98.14,1.18.54-.65-.09-1.26-.57-1.93-.49-1.05.11-1.12.59-1.65,1.25-.23.28-.68.21-.53.79.05.2.3.33.33.58.09.94-.3,2.31-.22,3.45.22,3.17,3.26,4.99,3.31,8.25,0,.42-.26.75-.07,1.16.3.66,1.41.64,1.99.42v.82c.53-.28,1.42.23,1.1.82.94-.38.93.88.6.97-.81.23-1.04-.28-.74-.97-.45.5-1.27.07-1.31-.54-.02-.24.45-.54.08-.77-.06-.03-.79.12-1.14.04-1.36-.3-.82-1.75-.94-2.78-.31-2.71-2.82-4.26-3.22-7.09-.16-1.12-.05-2.22.21-3.31-.04-.05-.75.42-.81.65-.06.25.54.85.36,1.47-.12.4-.8.36-.8.98,0,.47.43.49.43.89-.97-.62-1.48-1.56-.27-2.27-.66-.26-.45-1.24,0-1.65.27-.25.74-.28.9-.76.05-.17-.42-.45-.08-1,.12-.19.49-.24.65-.42,1.02-1.09,1.79-2.44,3.35-2.91.82-.24,1.85-.38,2.47.34Z"/><path class="cls-1" d="M215.06,12.08c.55-.22.5-1.01.31-1.48-.11-.27-.49-.39-.44-.72.68.42,1.3,1.65.56,2.28-.22.19-.54.17-.56.19-.14.15.83,1.09.2,1.92-.19.25-.56.32-.68.69-.69-.56-.02-.41.35-.75.8-.71-.4-2.29-.56-2.14l-.28.55c-.01-.31.09-.64-.14-.9-.35-.4-1.32-.26-1.65-.75l1.51.41c-.23-.48-.73-.66-1.24-.69.02-.3.64-.06.77,0,.67.28.89,1.11,1.57,1.39-.04-.56-.04-1.4-.5-1.77-.04-.03-1.24-.49-.67-.57,1.01.37,1.81,1.21,1.45,2.34Z"/><path class="cls-1" d="M217,16.36c-.07.11.99,1.92-.76,1.91-1.56,0-1.37-1.92-.24-2.03.43-.04.66.27,1.13-.25.18-.2.73-1.29.78-1.57.24-1.27-.94-1.81-2.01-1.38.91-1.01,2.28.09,2.29,1.19,0,.33-.46,1.46-.66,1.74s-.5.35-.52.38ZM216.82,16.66c-.9-.78-1.91.66-1.3,1.17.79.67,2.05-.53,1.3-1.17Z"/><path class="cls-1" d="M208.46,14.01l-.41.28.27.27-1.65.55c.18,1.42,1.05.69,1.24-.28.22,0,.29.49.28.62-.02.78-1.11.66-1.45,1.3l.34-.69c-.63.09-.58-.61-.82-.76-.32-.2-1.24,0-1.65-.07-.51-.39,1.17-.24,1.28-.27.16-.04.14-.42.47-.52.56-.19,1.49-.18,2.1-.44ZM207.91,14.42c-1.51-.1-2.64,1.01-.38.23.14-.05.42-.03.38-.23Z"/><path class="cls-1" d="M217.4,13.59c-.4,0-.71.18-.96.48,1.28.14.74,1.56-.41,1.31-.08-.08.13-1.01.12-1.18-.01-.1-.22-.04-.24-.07-.19-.27,1.27-1.28,1.5-.54ZM216.3,15.11c.21.25,1.44-1.17-.14-.69l.14.69Z"/><path class="cls-1" d="M216.18,9.04s.2.03.25.12c.35.64.88,1.58.35,2.24-.12-.72,0-1.72-.68-2.21-.18-.13-.47-.11-.48-.13-.2-.18.65-.58.58-.86l.38-1.33c.27.41-.44,2.07-.39,2.18Z"/><path class="cls-1" d="M215.89,5.34l-1.37-.69c-.02-.3.66-.12.54-.46-.06-.15-.46-.65-.6-.78-.19-.17-1.4-.73-1.17-.96,1.31.57,2.11,1.56,2.61,2.89Z"/><path class="cls-1" d="M216.58,5.34c.1-1.79-1.06-2.11-2.32-2.85-.17-.1-.38.08-.3-.32.99.27,2.85,1.41,2.9,2.55,0,.24,0,.54-.28.62Z"/><path class="cls-1" d="M218.5,14.42c.85-.97,1.18-2.02,1.17-3.3.89.5-.7,3.75-1.17,3.3Z"/><path class="cls-1" d="M207.5,12.77l-.07.27c-1.19-.48-2.28.52-3.37.83.76-1,2.26-1.13,3.44-1.1Z"/><path class="cls-1" d="M214.24,8.64c-.22.22-1.3-1.22-1.4-1.41-.23-.45-.38-.96-.38-1.47l.43,1.15,1.36,1.74Z"/><path class="cls-1" d="M216.99,31.47c-.17.18-1-.68-1.14-.85-.11-.12-.41-.34-.23-.53.25-.25,1.62,1.11,1.37,1.37Z"/><path class="cls-1" d="M212.04,8.64c-1.17-.49-1.99-1.7-2.34-2.89l1.1,1.72,1.23,1.17Z"/><path class="cls-1" d="M217.54,12.77c.94-.64.66-1.49.62-2.47.56.67.51,2.58-.62,2.47Z"/><path class="cls-1" d="M220.97,12.63c-.22.47-.3.98-.55,1.44-.24.43-1.3,1.72-1.65,1.04,1.12-.08,1.53-1.29,1.89-2.17.08-.21-.08-.37.31-.3Z"/><path class="cls-1" d="M220.01,7.41c.05-.75-.06-1.5-.34-2.2-.07-.18-.29-.62-.48-.69-.01.39.22.64.28,1.03.02.15.1.87-.14.9-.16-1.04-.16-1.97-.96-2.75.18-.17,1.28,1.06,1.4,1.28.3.52.88,2.01.25,2.43Z"/><path class="cls-1" d="M211.62,17.31c-.36-.25-.39-.79-.29-1.17.38-1.34,1.49-.97,1.93-1.67.25-.41-.18-.98-.06-1.42,1.29,2.03-.97,1.84-1.43,2.56-.28.44.06,1.16-.15,1.7Z"/><path class="cls-1" d="M220.97,7.41c-.17.22-.25,0-.27-.2-.09-.74.07-1.51-.27-2.27.73.57.52,1.65.55,2.47Z"/><path class="cls-1" d="M205.3,9.33l-.41.48c.79.48,1.43.75,1.72,1.72.06.19-.11.42-.02.55s.4.05.35.27l-1.24-.14c-.03-.29.45-.05.54-.14.03-.02.08-.6.07-.7-.15-1.03-1.99-1.36-1.99-1.56l.96-.48Z"/><path class="cls-1" d="M218.22,13.73c.39-.86.55-1.82.48-2.75.34.34.23.98.17,1.41-.02.13-.33,1.69-.65,1.34Z"/><path class="cls-1" d="M210.66,3.14c-.39,0-.66-.38-1.04-.41s-1.26.2-1.64.4c-.33-.28.57-.5.84-.54.64-.08,1.44-.05,1.84.54Z"/><path class="cls-1" d="M210.8,9.19c-.29.26-1.81-1.87-1.65-2.34l.98,1.56.66.78Z"/><path class="cls-1" d="M220.59,14.95s.62.23.04.43c-.13.04,0-.28-.14-.28-.34,0-.78.91-1.31.83l1.44-1.37c.19.05-.11.32-.04.39Z"/><path class="cls-1" d="M213.28,8.23c.07.07.06.34-.2.27-.61-.18-1.5-1.08-1.45-1.78.3.23.31.65.62.96.26.26.98.5,1.03.55Z"/><path class="cls-1" d="M218.09,6.03c-.02-.82-.48-1.56-.69-2.34.4.33.84,1.44.91,1.92.03.23.04.34-.22.41Z"/><path class="cls-1" d="M211.58,12.13c.12.13.18.32.32.43-.04.15-.18.06-.28,0-.38-.25-1.17-1.11-1.23-1.58.34.42.84.79,1.19,1.15Z"/><path class="cls-1" d="M208.33,20.61l-1.24.69c.04-.78.6-.74,1.24-.69Z"/><path class="cls-1" d="M221.66,7.68c-.05-.49.2-.95.15-1.45-.04-.36-.28-.44-.28-.75.6.24.6,1.82.14,2.2Z"/><path class="cls-1" d="M208.33,11.4c-.66-.41-1.02-1.01-1.1-1.79l1.1,1.79Z"/><path class="cls-1" d="M208.46,10.71c-.44-.46-.76-1.31-.96-1.92.24.15.45.61.58.87.16.33.35.69.38,1.06Z"/><path class="cls-1" d="M205.44,9.06c-.24-.14-.12-.54-.29-.88-.19-.37-.62-.44-.81-.77.74.09,1.34.94,1.1,1.65Z"/><polygon class="cls-1" points="224.14 24.19 223.85 22.74 224.14 22.12 224.14 24.19"/><path class="cls-1" d="M225.24,19.37c.09.84.4,1.6.27,2.48l-.55-2.41.27-.07Z"/><path class="cls-1" d="M95.58,13.19c-.3,0-.6.12-.7.42.56.08,1.11.41,1.62.56.39.11-.11-.49.28-.28.48.26.64.52,1.34.49-.24.28-.63.18-.95.32-.74.32-1.45,1.02-2.15.03.34-.04.66.1.99.08.16-.01.8-.14.84-.36-.5-.35-1.22.08-1.59-.02-.31-.09-.38-.54-.58-.7-.19-.15-.52-.03-.5-.27.37.03.64-.04.84-.36.18-.31-.91-.3-.56-.63.05-.05,1.23.6,1.13.7Z"/><path class="cls-1" d="M103.45,16.31s.2.49.16.55c-1.2-.62-.77.07-.42.85-.22-.08-.73-.8-.98-.56-.05.05.14.33.11.48-.04.21-.46.33-.32.79-.29-.21-.21-.27-.13-.55.06-.21.24-.94.27-1,.12-.21,1.07-.7,1.32-.55Z"/><path class="cls-1" d="M93.31,19.39c-.34.24-.54-.36-.69-.49l.56.21-.14-1.13c.2.04.38.66.39.81.01.12-.07.56-.12.59Z"/><path class="cls-1" d="M107.41,32.22c.87-.68-.09-1.74,1.27-1.69-.34-.67-.43-1.1.42-1.34-.65-.74-1.25-1.34-1.71-2.23-.51-.99-.68-2.09-1.07-3.02-.34-.82-.97-1.88-1.44-2.65.71-.35-.17-.88-.35-1.21-.04-.07-.56-1.39-.58-1.47-.03-.09.13-.31.08-.35-.24-.21-1.59,1.07-1.9,1.27-.23.15-.58.11-.71.27-.56.71.02,2.84-.48,3.89-.29.61-.71.93-1.01.14-.47-1.25,1.44-3.13,1.26-4.2-.03-.17-.25-.39-.25-.46,0-.11.5-.38.61-.35.27.07.09.69.42.56.77-.88,1.99-.95,2.06-2.32.08-1.82-1.5-.66-1.95-.96-.06-.04.03-.33-.24-.24-.25.11-.04.35-.15.43-2.27,1.52-.71-1.43-1.12-2.26-.23-.46-3.06-1.55-3.73-1.55.54.64,1.51.93,2.16,1.43.13.1.44.28.02.26-1.03-.48-2.25-1.43-3.32-1.77-.05-.02-1-.2-1.06-.2-.27-.01-.57.21-.82.13-.23-.07-.15-.55-.44-.41-.4,1.13-1.11,2.12-1.58,3.21-.21.49-.33,1.17-.54,1.72-.19.49-.76,1.12-.64,1.6.04.18,1.16.38,1.25.54.19.31-.16,1.2-.12,1.24.02.02.27,0,.41.08.3.19,1.49,1.4,1.84,1.05.07-.07-.13-.47.14-.42l.14.99c-.36-.5-.63-.56-1.26-.35-1.1.38-.2,1.11-.99,1.61.02-.79-.55-1.61-1.41-1.55.06-.33.73-.08.9.02.43.24.39.76.79.97.03-.3-.22-.53-.26-.81-.04-.26.11-.49.09-.65-.04-.22-.46-.34-.53-.73s.23-1.14.12-1.32c-.07-.11-.98-.31-1.15-.43-.62-.44.3-1.37.49-1.89.25-.65.37-1.37.65-2.03.3-.71,1.13-1.91,1.28-2.54.02-.08-.54-.64-.56-1.09-.02-.75.86-1.52.85-1.98,0-.34-1.17-1.19.42-1.47-1.3.88-.29,1.59.7.77-.78-.05-.44-.74-.25-1.24.26-.65.74-1.1.98-1.69.33-.78.2-1.63,1.05-2.19,1.3-.87,4.2-1.31,5.71-.97,1.63.37,6.75,2.87,8.07,3.91s1.96,2.55,2.83,3.79c.18.26.51.32.69.58,1,1.41,2.09,2.69,1.75,4.56l-1.29,6.6c-.14.51-.7.29-1.03.52-.25.18-.29.67-.48.93-.61.84-1.5,1.49-2.26,2.18.7-.2.64.23.94.39.11.06.79.4.84.42.34.09.75-.09,1.18.4.22.24-.03.47,0,.49.03.04.88.16.98.3.02.03-.13.2-.11.24.63.92,2.18,1.92,2.95,2.91.11.14.29.71.32.75.19.25,1.23.78.52.95.06.13.35.16.44.31.1.16.24.85.4,1.1s.61.51.71.85c.03.09-.42,0-.28.28.1.21.62.31.84.36l-.42.14c.02.27.31.07.4.46.06.26-.1,1.03-.54.81.36.5-.14.41-.15.5-.03.41.61.71-.2,1.19-.57-.79-1.15-1.69-1.83-2.4-1.92-2.03-3.81-3.11-5.98-4.73-.27-.2-1.55-1.49-1.7-1.33.17.58-.48.38-.64.7-.1.21.41.43.09.92-.29.44-.82.31-.86.35-.11.11.35,1.02-.04,1.38-.07.07-.21,0-.25.03.25-.12.25-1.24-.42-.99ZM102.34,2.77s-1.06-.19-1.27-.28c.37,1.08-.24,1.28-.99,1.83.38.02,1.91-.23,2.09-.44.04-.04.2-1.06.17-1.1ZM101.28,4.36c-.1,0-.85.32-.9.47-.38,1.1,1.25,1.48,1.47.49.06-.28-.31-.94-.56-.96ZM109.8,6.99c-.13-.92-.77-1.37-1.7-1.06-.43.14-.55.74-1.12.36.26.82.09.42-.33.7-.21.14-.1.53-.8.14.1.53-.68,1.43-.71,1.77-.04.42.56.55,0,1.05.28-.04,1.29.7,1.41.57.03-.03-.06-.29.03-.39.08-.09.36-.03.47-.17.11-.15.03-.5.2-.65.04-.03.37.07.62-.07.38-.22.55-.86.69-.94.16-.1.42.02.6-.17.45-.5-.17-1.04-.07-1.13h.7ZM97.34,6.06c-.53-.03-1.51.92-.78,1.28,1.29.62,1.83-1.23.78-1.28ZM104.03,6.57c-.08-.3-.39-.29-.63-.29-1.28,0-4.46,1.09-5.7,1.64-.25.11-.6.21-.71.49,2.31-.96,4.6-1.39,7.04-1.83ZM109.66,7.84s-.19,0-.28,0c.27.5.09.36-.28.63,1.33,1.76,2.14,3.8,2.89,5.85l1.19,2.26c-.37-2.35-1.82-4.37-2.74-6.49-.12-.28-.04-.59-.15-.84-.08-.2-.58-1.36-.64-1.41ZM105.27,14.01c.07-.1,0-.36.1-.53.2-.33,1.3-.61,1.54-1.14.31-.68-.19-.79-.49-1.19-.13-.17-.13-.41-.29-.56-.1-.1-1.05-.56-1.12-.5.74.79-.6.58-.78.84-.04.06.08.37.02.57-.04.16-.36,1.18-.4,1.24-.07.1-.4.1-.54.24-.28.29.03.95-.84.78-.09.25.24.36.24.49,0,.11-.26.26-.24.42.02.09,1.25.95,1.47,1.06.09-.02.61-.83.71-1,.09-.16.04-.42.11-.52.09-.12.43-.08.51-.2ZM112.48,17c.15-.17-1.71-3.01-2.11-2.68.65.71,1.07,1.62,1.66,2.36.13.17.16.39.45.32ZM111.63,21.23s-.65-.31-.69-.28c-.02.01-.04.23-.16.33-.93.79-1.45,1.07-2.56,1.51-.17.07-.58.73-.89-.01-.07-.01-.1.58-.35.28-.08-.1.43-.47-.25-.53l-.88.17c.43.93.53.88,1.46.86.11,0,.63,0,.66,0,1.47-.21,1.31-.51,2.22-1.2.38-.29,1.1-.61,1.35-.84.1-.09.16-.2.09-.29ZM109.38,29.55s-.53-.17-.56-.15l-.14.7c.36.14.94-.21.7-.56ZM108.82,30.82c-.37-.05-.63.05-.84.35.46.6.94.42.84-.35Z"/><path class="cls-1" d="M82.33,45.9h6.9c-.04-.68-.21-1.37-.28-2.05-.05-.45.1-1.16-.02-1.53-.11-.35-.87-.3-.97-.88-.09-.54.29-.84.28-1.33l-3.83,5.33c-1.56.07-1.01-1.37-1.24-2.28-.03-.14-.33-.05-.28-.16.6-1.37.87-4.15,1.23-5.82.04-.2.01-.71.04-.74.24-.31.29.54.56.28.05-.05-.28-.36-.25-.6.05-.39.88-1.43,1.12-1.83.84-1.4,1.19-1.77,2.26-2.92.3-.33.7-.67.82-1.12l.42.28c-.21-.58.33-.58.41-.79.11-.3-.46-2.94-.59-3.47-.11-.5-.57-1.26-.52-1.73.06-.58,1.07-.7,1.13-.78.03-.05-.48-.98.41-.02l2.06,3.97.63.14c-.24.49-.76.07-.99-.21-.7-.87-1.54-4.83-3.1-3.1.33.14,1.15-.07.92.49l-.63-.28v.7c.62-.71.75.52,1.02.68.14.08.38-.02.5.05.14.09.59,1.45.73,1.72.01.03.63.38.21.38-.63,0-.79-1.12-1.33-1.41-.44,1.22.54,2.59.7,3.73.04.3-.13.26-.21.07-.49-1.08-.7-2.73-1.04-3.9l.34.23c.59,0-.35-1.45-.63-1.55.14,1.45.37,2.85.74,4.26.21.8.64,2.24,1,2.95.27.53.75.64,1.04,1.5.04.11.08.48-.11.25l-.28-.77-.28.28-.56-1.13c.19.81.51,2.23,1.17,2.77.3.25,1.14.33,1.22.54l-.28.21.84-.14-.42-.14c-.05-.2.17-.13.27-.22.53-.46-.4-.65-.59-1.08-.15-.35-.11-.72-.1-1.09l.35,1.12.63.29c.29-.72-.32-1.49-.38-1.93-.07-.46.03-2.37.17-2.86.2-.7.68-1.27.84-1.98.1.13.69.61.63.7,0,.01-.12,0-.26.12-.09.07.07.37-.37-.11-1.36,1.76-.37,4.21-.49,6.27.11.65.65.3,1.12.5.26-.39-.06-.85.02-1.17.05-.2.43-.4.56-.72.57-1.45.19-4.08.12-5.64-.04-.98.53-1.96-.7-2.19-.18.76-.38,1.45-.28,2.25-.24.03-.13-.32-.14-.49-.01-.36.06-.79,0-1.12-.01-.06-.39-1.01-.43-1.05-.09-.08-.66-.04-.77.12-.05.08.3,1.52-.91.71l.07.85c-.41-.71-.37-1.49-.7-2.26-.31-.73-1-1.44-1.24-2.22-.69.05-.1-.43-.24-1.02l.28.07c-.39.36.71,2.09.92,2.19l.21-.28c.2,2.12,1.81,1.23,2.95,1.63.15.05,2.52,1.44,2.67,1.56,1.73,1.38,1.79,4.68,2.97,6.47-.03.57-.5-.44-.42-.5-1.14.16-.26.61-.6,1.3-.19.4-.51.36-.53.39-.05.07.7.5.24,1.09-.06.08-.21.01-.24.03.37-.16.07-1.24-.57-.78-.5.36.14.97.57.78-.12.07-.17.22-.42.14.32.39.56.62.4,1.17-.05.18-.24.2-.26.23.38-.49-.18-1.52-.7-.99.2-.23.41-.26.42-.28.05-.06-.42-.43-.39-.75.04-.43.6-.55.63-.72.08-.47-.47-1.02.47-1.42-.13-.11-.22-.34-.43-.29-.33.08-2.03.9-2.25,1.14-.34.39.18.75.35,1.2.43,1.18.67,2.45.99,3.66.14.31.51.3.77.15-.03.09-.19.25-.14.28.77-.08.73.29.99.75s.29-.24.41-.4c.37-.5.99-.38,1.35.07.31-.27.21-.72.58-.97.55-.37.73.14.9.06.35-.16.26-.98.63-1.21.13.4-.62,1,.14,1.13.87.14.89-1,.07-1.06.91-.24.51-.85.99-1.2-.05.03-.2.68-.08.85.16.23.68.23.93.13-.52.52-.66.06-.93.27-.2.16-.1.91-.38,1.11-.23.16-.89.03-1.03.16-.42.4-.22,1.67-1.61.72l-.36.99c-.53.01.07-.38.05-.61-.05-.75-1.18-.6-1.21-.17,0,.04.24.58.28.61.14.09.43-.09.39.17-.57.16-.7-.4-1.12-.42-.05.3-.25.61-.57.56,1.42-1.88-2.09-1.46-.28-.07-.1.21-.53-.11-.56-.07-.07.09.13,1.84.14,2.11-1.95-.27-3.49,1.03-5.42,1-1.08-.02-2.56-.82-3.45-1.42l.28,3.52h36.06v2.96h-43.11v-2.96ZM93.18,26.44c.08-.73.02-.95-.7-1.13-.04.57.02,1.13.7,1.13ZM99.1,33.35c-1.26.39-.04,1.74.12.6.03-.22-.1-.39-.12-.6ZM96.56,37.72v-2.18s-.38-.83-.42-.86c-.18-.12-.41.27-.5-.2-.42.3-.21.78-.28,1.13-.16.82-.38.35-.95.44-1.13.18-.85.37-2.3.25-.24-.02-.48.13-.68.11-.31-.03-1.48-1.1-.93-1.51-.65-.07-.7,0-.97.51-.51.95-.48,2.32-.29,3.36.03.18.34.69.48.79.57.42.97-.29,1.39-.26.58.05,1.06.92,1.44.96.44.04,1.01-.61,1.58-.68.41-.05,1.04.23,1.27.09.08-.05.19-.49.35-.63.44-.4.94-.04.87-1.03-.08.64.45.79.49.85.14.2-.86.74.14.7-.56.41-.75.98.14.85.14-1.36-.18-2.53-.56-3.81l-.28,1.13ZM101.73,38.86c-.34.11-.53.65-.05.87,1.03.48,1.01-1.18.05-.87ZM96.7,40.12c-.43.03-.77.4-1.21.41-.31.01-.55-.18-.94-.11-.55.1-1.24.69-2.01.66-.52-.02-.91-.61-1.14-.66-.21-.04-.56.23-.84.25-.33.03-.63-.22-.9-.07.34.46.88.27,1.3.39,1.76.48,1.27.14,2.71.1.37-.01.73.19,1.12.16s.93-.48,1.34-.65c.38-.15.67.13.56-.49ZM89.52,41.39c.16-.17-.98-1.29-1.12-1.13-.31.35.85,1.08,1.12,1.13ZM97.12,41.11c-.1-.09-1.22.25-1.27.56.51.02,1.23.12,1.27-.56ZM94.73,42.09c-.4-.7-1.07.02-1.51.11-1.24.27-1.93-.67-3.14-.67,1.16,1.32,3.13,1.08,4.65.56Z"/><path class="cls-1" d="M107.41,32.22c-.55.21-.13,1.25.42.99-.17.11-.49.2-.55.37-.11.32.11.82-.14,1.12-.2.24-.66.15-.8.33-.1.12.09.51.08.77-.05.9-.8.28-1.06.65-.17.24.36.44-.2.99.15-.54-.23-1.36-.85-.99.24-.18.79-.24.83-.3.14-.21-.21-.5.3-.97-.56,1.63,1.23.92.7.23-.21-.28-.38-.25-.7-.23.27-.25.68-.25.71-.28.06-.08-.25-.37.05-.83-.08.25.05.52.31.61s.52-.05.61-.31-.05-.52-.31-.61-.52.05-.61.31c0-.1-.07-.27.09-.37.17-.11.53-.05.65-.2.21-.27-.3-.77.2-1.2.09-.07.24-.05.28-.08Z"/><path class="cls-1" d="M98.53,37.3c-.06.11-.26.32-.26.35,0,.08.94.87.12,1.34.42-1.31-.43-.92-.71-1.13-.01,0,.12-.21.09-.32-.14-.59-.54-.58.05-1.23-.4.4.08,1.2.7.99Z"/><path class="cls-1" d="M67.35,42.66c0,.45-.43.61-.05,1.12.08.1.71.33-.14.5-1.11.21-3.57,0-4.85,0-.71,0-1.4,0-2.1,0-1.31,0-2.61.02-3.92,0-.06-.06.41-1.36.5-1.55.33-.78.89-1.43,1.23-2.13,1.24-2.57,1.33-6.06,4.68-6.75,1.48-.31,1.99-.39,3.32-1.28.51-.34,2.39-2.13,2.45-2.65.04-.38-.37-1.25-.38-1.74,0-.44.24-.94.13-1.42h-.62s1.37-.37,1.37-.37c0,.22-.33.14-.47.28-.23.23-.18,1.62-.14,2.01.1.89.56,1.5.81,2.29.46,1.43.84,2.9,1.24,4.35.08.28.51.67.04.89-.4-1.31-.65-2.9-1.12-4.17-.06-.16.09-.23-.25-.18-.1,2.11-1,4.09-1.62,6.09.55-.23.96-.77,1.53-1.02,1.49-.64,2.59-.2,4.06.15-.06-1.18-.1-2.35-.12-3.54,0-.17-.11-.35-.11-.51,0-.25.11-.48.12-.73.02-.33-.25-.7.11-.81l.13,3.48c1.21-.85,1.85-2.27,2.92-3.24.12-.11.34-.06.43-.21.11-.17,1.33-3.6,1.37-3.82,0-.06,0-.13,0-.19l-.5.19c.6-.48.78-1.04.99-1.75.04-.14-.09-.22.19-.18.45.55.88,1.23,1.37,1.74,1.1,1.17,3.14,2.5,4.58,3.25,3.19,1.67,5.92,1.14,6.73,5.33.42,2.18,1.1,4.35,1.54,6.54.07.34.34,1.72.21,1.92-.22.13-.6.1-.86.1-6.03-.08-12.49-.73-18.51-.34-.39.03-1.54.56-1.55-.17,0-.23.47-1.54.59-1.89.99-3.05,2.2-6.04,3.23-9.08l-.24-.11c.36-.33.64-.82.74-1.31-.68.33-.7,1.16-.97,1.7s-.96.99-1.4,1.46c-.71.78-1.04,1.16-.87,2.3-.38.11-1.47-.37-1.72-.23-.12.07-.92,1.6-1.24,1.8.52,1.63,1.46,3.28,1.34,5.02-.43.1-.21-.61-.26-.92-.19-1.14-1.64-1.92-2.29-2.81-.09.24.35.71.5.87.57.61,1.5,1.02,1.55,1.99l-.66-.95c-.46-.33-.88-.75-1.27-1.16-.24-.25-.09-.55-.49-.26-1.2.86.55,1.51.99,2.25.05.09.04.19.07.24-.52-.54-1.16-1.01-1.74-1.49-.19.65.97.88,1.09,1.02.06.07.04.36.14.54.08.14.88,1.16.88.62-.27-.16-.27-.49-.37-.69.3.31.7.63.74,1.12-.99-.04-1.24.32-1.99-.43-.29-.29-.73-1.3-1.11-1.06,0-.2-.14-.48-.12-.5.03-.03.25.07.38-.08.14-.16.44-1.02.64-1.33.24-.39,1.24-1.65,1.32-1.92.11-.39-.05-.64-.08-.98-.02-.24.25-.66-.23-.78-.18-.05-.89.4-1.04.54-.9.86-1.15,4.06-1.11,5.29.19.03.07-.14.25-.25ZM71.33,36.82h-.74s.25.74.25.74l.49-.74ZM69.96,38.19c-.06-.06-.02-.52-.25-.5.22.27-.04,1.08,0,1.12.28.24,1.16-.83.43-1.12l.07.43c.01.11-.24.07-.25.06ZM70.58,40.55c.12-.28-.52-1.61-.68-1.61-.04,0-.31.27-.29.41.03.21.78.99.98,1.2ZM69.01,43.61c-.15-.18-1.2-1.51-1.41-1.32.16.23,1.45,2,1.74,1.74.07-.3-.22-.28-.33-.41Z"/><path class="cls-1" d="M65.99,22.03c-.31.18-.6.23-.5.68l.38.06c-.31.57.02.42.12.58.28.45-.66,1.22-.81,1.77-.27,1,.04,1.6,1.03,1.84l1.03.15c-.51.25-2.01-.12-2.2-.59-.54-1.28.92-2.69.83-3.05-.05-.22-.45-.38-.54-.59s-.03-.45-.13-.62c-.05-.08-1.07-.68-1.16-.95-.18-.54.29-.61.35-1.04-.34-.03-.62.19-.94.24-1.67.22-.97-.57-.92-1.54.04-.71.18-2.26.14-2.86-.04-.46-.46-.71-.63-1.12-.22-.54-.32-1.52-.24-2.1.15-1.09.61-.49.73-.57s.22-1.82.28-2.14c.32-1.68.91-3.23,2.27-4.32.12-.1.36-.09.41-.15.05-.06.04-.35.2-.6,1.72-2.55,5.75-3.93,8.7-3.34,1.21.24,2.59,1.1,3.61,1.86.45.33,2.56,2.29,2.78,2.69.24.42.39,1.59.48,2.13.27,1.56.44,3.17.41,4.75l-.25-.13c-.18.44-.05,1.01-.13,1.41-.02.09-.21.11-.29.24-.87,1.53-1.43,2.9-2.2,4.48-.04.08-.22.07-.24.17-.17.75.05,2.64,0,3.59-.05,1.04-.38,2.1-.26,3.16-.22.03-.12-.28-.12-.43-.08-1.8.35-3.61.25-5.48-.02-.45-.08-1.17-.14-1.6-.3-1.92-1.64-3.47-1.85-5.42-.35.21-.21.83-.33,1.22-.26.87-.79,1.78-1.05,2.68-.32.38-.73.52-1.23.45.01-.22.39-.09.62-.19.19-.08.46-.48.56-.68.3-.59,1.07-2.57,1.07-3.17,0-.28-.12-.53-.14-.8-.97.03-1.83.52-2.6,1.06-.18.13-.2.37-.41.47-.78.36-1.5-.32-1.98-.27-.44.04-2.1.48-2.61.63-.3.09-2.06.72-2.14.83-.21.32.24,2.13-1.03,1.53-.41-.19-.78-1.53-.87-1.99-.14-.72.28-1.05-.84-1.04-.76,0-.58.5-.37.5.11,0,.81-.64,1.06-.12-.69-.28-1.09.89-1.24,1.44-.26.98-.11,1.71-.16,2.6-.03.61-.59,1.99.21,2.06s1.41-.5,2.59-.26c.09.02.08.19.11.21.06.03.21-.1.22-.08.02.03-.04.23.04.33.08.11.31.08.35.35.03.22-.15.53-.14.56.07.09.86.06.99.31-.59,0-.71.44-1.06.81l.19-.62c-.08,0-.17,0-.25,0,.08-.05.12-.22.37-.13-.1-.41-1.49-.3-1.49-.06,0,.27.91.18,1.12.19ZM71.95,3.14c-.77-.15-1.28-.21-1.99.18-.17.09-.31-.01-.24.31.46.24.71-.1,1.11-.19.34-.08.95.03,1.13-.3ZM72.7,3.88c-.57-.22-1.18-.14-1.74.06.15.2.1.39.43.32l1.31-.38ZM68.07,5.28c-.2-.1-.43.23-.66.22-.31-.02-.7-.17-1.18-.05-2.22.57-3.28,3.94-3.36,5.95-.04.97.05,2.28,1.25,2.43l.03-1.79c.49-.73,1.03-.02,1.42.02.23.02.46-.19.72-.2.24,0,1.55.16,1.55.42s-1.69.22-1.99.31l.21.63c.33.04,2.43.04,2.53.12.25.19-.09.22-.18.26-.12.06-1.71.72-1.44.98,1.34-.54,2.8-.75,4.22-1-.22-.63-.04-1.41-.28-2.02-.22-.56-1.16-1.35-1.2-1.91-.05-.76.36-.73.49-1.01.04-.08.33-1.23.35-1.36.06-.42-.14-.75-.11-.95.02-.14.31.01.26-.2-.66.02-1.22-.41-1.83-.59-.43-.13-.37-.02-.81-.25ZM74.93,6.12c-.7-.23-1.37-.3-2.11-.25l1.69.36.42-.11ZM77.79,8.6c.44-.42-2.26-.86-2.48-.87.08.17.58.38.75.43.57.17,1.19.17,1.74.44ZM74.19,8.85c.18-.17-.81-1.05-1.12-.87.08.23.94,1.03,1.12.87ZM78.41,9.72c-.05-.64-1.01-.57-1.49-.62.03.18.4.31.56.37.15.06.85.32.93.25ZM78.88,10.5s-1.17-.45-1.21-.4c-.31.34.98.93,1.18.99.34.1.15-.48.03-.59ZM72.45,10.97s-.25-.04-.25.06c0,.26.32.32.36.51s-.3.46-.23.72c.12.46.86-.1.75-.6-.02-.09-.33-.2-.45-.32s-.16-.37-.18-.38ZM79.28,12.71c.2-.99-.63-1.2-1.37-1.49-.25.25,1.12,1.38,1.37,1.49ZM65.74,16.93c.2-.63-.45-5.06-.93-5.09-.6-.04-.47,2.22-.42,2.65.04.38.42,1.86.62,2.12.18.25.49.19.73.32ZM62.79,14.54c-.19-.4.1-1.6-.6-2.08-.41.53-.26,1.27-.13,1.87.14.63.6,2.02.91.65.11-.5-.15-.37-.18-.44ZM65.99,16.31v-2.18s-.22-.64-.37-.5l.37,2.67ZM67.6,13.7c-.21-.07-1.02-.22-1.11-.12-.03.04.02.29-.03.41-.06.15-.57.28-.35.46.14.11,1.37-.47,1.49-.74Z"/><path class="cls-1" d="M75.43,13.33c.01.21-.25.1-.35.33-.27.64-.15,2.1-.89,2.46-1,.48.03-1.01-.37-1.55.49.34.11,1.03.12,1.49.38-.24.63-.46.63-.93,0-.76-.4-.48-.75-.75-.42-.32.19-.35.45-.53.38-.25.63-.61,1.15-.52ZM74.93,13.7c-.79.29-1.43.68-.12.74l.12-.74Z"/><path class="cls-1" d="M65.99,19.67c-.93-.19-1.72-.05-2.61.25-.02-.54.42-.26.63-.32.61-.17,1.56-.68,1.98.07Z"/><path class="cls-1" d="M196.28,23.42c-.68-.17-.6-1.85-.56-2.41.07-.89.49-1.57.66-2.37.03-.13.25-1.51-.1-1.27-.2.51-1.33,2.3-1.93,1.59-.45-.52-.16-1.33.08-.9.08.14.15.83.41.83.23,0,1.88-2.19,1.96-2.58.1-.48.12-2-.64-1.53-.03.02-.29.57-.29.6.01.12.37.14.41.3.24.92-.87,1.53-1.38,2.11-.06-.42.41-1.1.36-1.45-.03-.22-.53-.4-.49-.66.06-.32,1.29-1.12,1.64-1.26-.95-.69-1.85.65-2.89.48.15-.86.2-1.72-.41-2.42-.16-.18-.42-.26-.51-.38-.57-.69-.93-2.06-1.06-2.92-.08-.51-1.66-2.15-2.15-2.34-.21-.08-.45.09-.71.04-.78-.13-2.86-.26-1.31-1.1l2.99-.93c-1.32.05-2.78.59-3.95,1.2-.19.1-.24.32-.51.46-.95.47-1.57-.1-2.56,0l.21-.55c-.24.31-.69.59-.9.89-.43.62-1.52,4.3-.97,4.69.22.16,1.29.14,1.37.22.07.06-.02.35.01.39.23.3.26-.48.55-.28,0,.5.68.98.76,1.36.06.28-.37,1.12-.45,1.49-.14.7-.62,3.4-.56,3.93.01.1.32.83.38.86.18.12,1.69.34,2.1.51.16.07,1.05.81,1.07.89.08.41-.21.8.28.94.08.26-.21.25-.38.3-.45.13-1.41.03-1.62.17-.71.45-.1,1.26.43.85.17-.13.21-.5.47-.56-.01.54-.53.94-1.04.95-.12,0-1.09-.12-1.14-.15-.06-.04-.49-1.09-.02-1.08-.14.84,1.02,1.17.67.37-.22-.51-1.59-.36-1.64-1.54-.03-.68.52-.99.56-1.38.04-.42-.34-.83-.39-1.23l.81-4.62-.82.21.41.14c-.55.87-.76.68-1.65.35-.48,1.75.03,3.12.26,4.77.18,1.34.24,3.83.86,4.92.09.16.35.17.39.32.22.74.05,2.03,1.24,2.1l.07-.41c1,.81,2.53.85,3.72.42.84-.3,3.37-1.76,3.91-2.42.67-.81.86-2.01,1.28-2.98.09-.22.2-.75.51-.66l-.93,2.85c-.73,1.65-3.91,3.49-5.62,3.74-.34.05-.68,0-1.02.02-.14.14.46,1.7.62,1.93.12.17.36.21.44.32.32.41.4,1.06,1.19,1.02,1.29-.07,5.19-4.8,6.21-5.88l.07.2c-.75.71-1.31,1.67-1.99,2.41-.86.94-3.39,3.4-4.51,3.76-.16.05-.36-.05-.37-.04-.33.43.06,2.81.16,3.47.36,2.39,1.07,4.74,1.48,7.13-.33.06-.26-.03-.34-.27-.34-1.04-.48-2.31-.76-3.38-.06-.23.14-.4-.28-.33.22,1.04.41,1.82.03,2.85-.31.82-.92,1.42-1.32,2.12-.23.4-1.46,2.73-1.59,2.82-1.25.78-1.47-2.31-1.52-2.9-.02-.29.16-.57.14-.82-.04-.68-.35-1.32-.26-2.05.06-.54,1.71-3.05,2.13-3.65.17-.24.42-.41.61-.63l-.41-.34c-.4.83-.91,1.74-1.4,2.52-.61.98-2.34,3.2-2.64,4.1-.24.7-.33,1.72-.49,2.47-.63.05-1.08-.23-1.1-.89-.08-1.99.91-3.82,1.58-5.58,1.28-3.38,2.57-6.77,3.92-10.12.04-.27-.04-.16-.17-.23-.63-.33-1.86-.16-2.27-.55-.16-.15-1.09-2.37-1.2-2.73-.43-1.42-1.25-6.11-1.17-7.5.03-.59.43-1.89.36-2.35-.04-.24-.53-.46-.77-.48.04-.35.4-.12.41-.14.06-.12-.14-1.6-.13-2,.05-2.11,1.37-6.16,2.64-7.82.54-.71,1.24-1.33,2.1-1.61,1.03-.34,3.97-.47,5.1-.41.59.03,2.83.27,3.27.45.1.04.17.08.23.18l-.55.48c.38.01.74.2,1.06.39,1.91,1.13,4.29,5.33,4.76,7.49.25,1.18.27,4.75-.33,5.81-.14.25-.44.32-.59.51-.53.66-.98,1.4-1.52,2.05-.41.49-1.04.82-1.04,1.72v2.68ZM191.46,3.45c-.81-.09-1.6.19-2.33.49-.16.07-.55.14-.55.34.81-.27,1.68-.36,2.5-.59.14-.04.42-.03.38-.23ZM181.7,13.5c.36.04.41-.38.76-.41.56-.06.94.39,1.3.49.71.21.19-.7-.26-.85-.57-.19-1.28.09-1.86-.34-.2,0,.01.95.07,1.1ZM196,15.84c-.85-.17-.39.33-.55.96.39-.19.63-.52.55-.96ZM186.05,21.67c-.58-.49-1-.2-1.54-.17-.24.01-.55-.16-.67-.13-.19.04-.3.44-.22.54.04.05,1.03.29,1.17.29.48-.02.83-.45,1.45-.15.02-.01-.13-.32-.18-.37ZM183.21,39.52c.6-1.29,1.4-2.47,2.23-3.62.4-1.2,2.07-3.2,2.29-4.33.18-.91-1.14-2.28-1.35-3.2-.2-.03-.19.24-.23.38-.29,1.07-.28,2.18-.49,3.23-.33,1.59-.91,3.18-1.2,4.79-.25.03-.12-.29-.1-.44.12-.89.6-1.99.65-2.79.02-.3-.04-.26-.21-.07l-1.54,4.93-.04,1.13Z"/><path class="cls-1" d="M192.55,45.3c-.13.09-1.59-.34-1.61-.46.43-1.45.55-2.99.88-4.46,1.05-4.56,2.75-8.99,3.97-13.51.26-.96.37-2.28.69-3.17.06-.17.15-.38.34-.41.51,2.71-.21,5.42-.83,8.04-.13.53-.41,1.07-.53,1.54-.99,4.14-1.86,8.31-2.91,12.43Z"/><path class="cls-1" d="M188.12,11.9c.61.28,1.16.28,1.86.54.53.19,1.71.93.51.74-1.28-.2-2.51-.38-3.79-.62-.68-.13-1.52.3-1.43-.84.65.22,2.41-.02,2.85.18Z"/><path class="cls-1" d="M191.32,13.92c.41.34-.9.42-.99.45-1.14.36-2.1,1.03-3.13-.11.27-.06.45-.21.14-.42-.2-.13-.56.15-.69.07-.03-.02.18-.49,0-.69.62.29,1.11-.03,1.7,0,.82.05,1.63.72,2.26.79.25.03.69-.14.72-.11ZM189.81,14.05l-1.65.55c.56.11.89.07,1.38-.2.08-.05.52-.14.27-.34Z"/><path class="cls-1" d="M186.51,18.6c.22.24.03,1.17-.36,1.23-.22.04-.69-.6-.97-.65-.26-.05-.45.31-.73.25.07-1.51,1.25-.25,1.92,0,.04-.03-.34-1.35.14-.83Z"/><path class="cls-1" d="M191.74,21.76c.42-1.11.63-2.32,1.04-3.44.1-.27.2-.71.47-.83-.55,1.37-.61,3.09-1.51,4.27Z"/><path class="cls-1" d="M250.78,8.04c-.18.34-.12.64-.25,1.19-.71,2.88-1.39,5.09-2.71,7.75-.25.51-.88,1.3-1.03,1.75-.2.6-.14,2.33-.28,3.11-.3,1.63-1.04,3.34-1.49,4.94.02.24,1.07,1.22,1.33,1.45,1.44,1.29,4.83,3.96,6.53,4.69.97.41,2.1.4,2.95,1.07.35.28,1.03,1.14,1.03,1.6,0,1.53-.84,3.48-1.24,4.94-.23.84-.69,3.59-1.26,4.04-.51.41-1.04.06-1.58.05-1.65-.04-3.31-.11-4.92-.12-.61,0-1.45-.08-2.02-.01-.27.03-.14.31-.24.26-.16-.08-.16-.22-.5-.26-.62-.07-2.79-.08-3.42,0-.26.03-.12.17-.24.26l-.06-.25c-.73.08-1.52-.07-2.23-.08-6.1-.07-12.46-.1-18.63.05-.42.01-2.36.18-2.5.16-.08-.01-.07-.23-.16-.26-.23-.06-.55.03-.8,0,.18-.28.43-.16.66-.54.85-1.41,1.06-3.36,1.71-4.84.36-.81.88-1.38,1.26-2.27.67-1.59,1.32-3.7,1.67-5.29.25-1.14.19-1.37,1.02-2.37.12-.15.56-.64.68-.7.62-.36,2.05,0,2.77.01,2.28.03,7.08.06,8.92-1.27.2-.14-.01-.49.59,0-.12-.77-.44-1.58-.45-2.35,0-.34.27-1.8.19-1.92-.04-.06-1.22-.5-1.32-.51-.45-.07-.84.16-1.26,0-.79-.29-.75-.97-.66-1.68.06-.44.41-.97.44-1.19.04-.31-.35-1.47-.36-1.74-.02-.65.94-1.17-.74-1.07,0-.1,0-.21,0-.32.01-.71.67-3.35.92-4.13.08-.24.35-.49.35-.66,0-.31-.99-.81-.99-1.76,0-.3.34-1.68.44-2.06.03-.13.09-.51.23-.52.26-.02.09.36.08.45-.11.87-.47,1.69-.39,2.57,1.56-.35,3.13-.04,4.66.25.2.15-.02.23-.19.25-.6.07-1.41-.26-2.02-.27-.68,0-1.48.27-2.2.14.07.27.79.67.75.93-.02.11-.28.26-.35.41-.41.88-.78,2.78-1,3.79s.44.75,1.23.79c.11.33-.18.2-.25.34-.04.08-.28.75-.25.78.03.03.68.46.72.48.48.2,1.06-.1,1.42.35-.41.4-.74-.16-1.17-.04-.06.02-.72.5-.72.55,0,.04.35.3.25.76-.03.13-.3-.01-.39.14-.24.44-.35,2.06.32,2.19.41.08.91-.11,1.21-.06.24.04.82.47,1.13.61.37.16.81.12,1.12.39-.14.21-.58-.16-.7.06-.08.14-.19,1.11-.2,1.33,0,1.1.49,2.11.62,3.17.15,1.15-.18,2.23.27,3.32.09.07,1.4-1.67,1.51-1.83.38-.56.71-1.42,1.09-1.94.08-.1.3-.39.43-.26.2.2-2.52,4.07-2.96,4.41l-.68-1.46-.2-2.32c-.19.12-.22.26-.31.45-.49,1.07-.79,2.24-1.39,3.27.03.39,1.45.09,1.7.12.14.02.28.21.44.26,1,.27,1.92.63,2.9.95l.38-5.17c.3-.02.22-.04.25.19.07.51-.28,2.23-.12,2.46,0,.01.18-.11.26-.06.1.07.09.31.19.32.13,0,2.01-.99,2.26-1.14.32-.19,1.73-1.11,1.8-1.35.08-.27-.02-.58.03-.85.61-3.03,2.16-5.61,1.73-8.93-.1-.78-1.14-4.35-1.54-4.89-.16-.21-.47-.47-.69-.63.43.94.88,1.4.35,2.44-.36.72-.65.52-1.16.86-.32.21-.27.62-.89.61-.32,0-.76-.32-.26-.37.2-.02.51.07.67-.03.06-.03.11-.29.28-.41.41-.28,1.03-.38,1.2-.94.21-.68-.03-1.88-.7-2.22-.2-.1-1.14.56-1.51.45.28-.34.85-.53,1.26-.63.05-.41-1.29.11-1.39.19-.16.14-.1.39-.2.56-.39.62-1.49,1.44-1.8,1.98-.37.63-.37,1.81-1.02,2.32.48-.94.7-2.39,1.21-3.27.06-.1.18-.24.3-.26l.06.38c.09-.29.91-.94.94-1.08.08-.39-.62-.31-.69-.43-.14-.23-.3-1.04-.47-1.42-.09-.2-.33-.31-.35-.54-.05-.47.83-1.35.76-1.44-.28-.1-.61-.09-.88-.19-1.42-.53-2.61-1.29-3.99-1.94-.83-.39-2.44-.38-1.69-1.59.16-.25.7-.54.73-.59.07-.13-.02-.36.05-.45.09-.11,2.23-.99,2.57-1.15.22-.11.5-.46.65-.49.19-.04.41.15.52.09.03-.02.37-.54.49-.62.49.24,1.15.07,1.58.16.31.06.51.29.7.33.61.14,1.72-.11,2.21-.08.16,0,.32.25.52.24.07,0,.01-.39.31-.26.11.87,1.03.52,1.38.7.38.19,1.86,1.41,2.28,1.76.1.08.25.33.38.13-.34-.56-.86-1.01-1.4-1.38-3.79-2.6-9.35-2.48-12.67.85l-1.18,2.35c-.18.01-.3.06-.24-.17.53-1.86,1.43-2.77,3.03-3.78,3.85-2.42,8.95-1.73,12.26,1.31.39.35.92,1.5,1.28,2,.26.36,1.33,1.27,1.14,1.62ZM242.22,4c-.27.16-1.07-.19-1.27-.19-.47.02-.87.35-.92.36-.15.02-.5-.19-.55-.14-.03.03.07.3-.07.39-.25.17-1.13.38-1.44.24.07.21.23.4,0,.57-.46.3-.97-.4-.94.63,0,.19.35,1.03.31,1.07-.07.07-.53-.14-.5.13l1.26.25-.38-.63c.53.05.68-.09.63-.63l.5.13-.25-.5c.7.08.08-.21.44-.5l.69.37c-.27-.57-.02-.28.14-.39.11-.07.13-.22.2-.23.33-.08.85-.02,1.17.12.06-.08-.14-.47.19-.38.1.04.37.44.44.38.02-.02-.08-.34.19-.25.55.43,1.55,1.76.95.38.05-.05.99.13,1.14.19.41.16.66.67.87.75.12.05.3-.06.5,0,.73.26,1.7,1.74,2.27,2.28.17.16.47.17.58.31s.33,1.2.41,1.48c.03.13-.02.39.16.22.16-.24.4-.57.38-.87,0-.11-.57-2.03-.63-2.13-.09-.15-.36-.11-.52-.27-.51-.5-.7-.98-1.38-1.4-1.15-.71-2.57-1.08-3.93-1.61-.2-.08-.32-.31-.41-.35-.23-.09-.17.19-.21.22ZM234.64,30.46l.74-1.98c-.28.31-.61.57-.88.88-.83.95-1.63,2.04-2.46,2.96-1.15,1.28-2.8,2.38-3.51,4.05-.56,1.31-.97,5.07-.95,6.54,0,.38.11.8.05,1.2l13.41.1c.3-.6.76-1.1,1.07-1.69.8-1.53,2.3-4.36,2.63-5.94.29-1.41.17-2.72.4-4.14l-.24-3.45c-.13-.15-.67.5-.84.61-.6.38-1.39.64-2.02,1.01-.29.17-1.47.87-1.62,1.02-.34.35-.33,1.4-.43,1.9-.4-.17-.76.05-1.17-.03-.57-.11-1.78-.95-2.6-1.04-.73-.08-1.85.16-2.54.43.23-.59.35-1.57.62-2.09.12-.23.33-.3.35-.34ZM224.98,31.26c-.6.18-1.45.5-1.26,1.26l1.26-1.26ZM225.78,31.97c-.08-.06-.14-.33-.23-.34-.18,0-1.51,1.51-1.83,1.7-.35.66-.23,1.42-.26,2.13.6,0,2.22,1.25,2.58,1.22.29-.03,1.29-1.35,1.39-1.65.16-.52.28-1.84.08-2.33-.36-.89-1.35-.44-1.74-.72Z"/><path class="cls-1" d="M234.94,10.71l-.13.38h1.26c-.14-.29-.74-.22-1.01-.25-.03-.23.43-.13.55-.11.45.08.93.34,1.4.49.62.19-.13.26-.28.35-.24.14-.4.38-.69.45-.12.03-1.19,0-1.23-.05-.14-.13.13-1.02-1.01-.94.18-.28.42-.01.66-.08.17-.05.24-.3.47-.23ZM236.32,11.47c-.19-.42-.78-.21-1.13-.25v.5s1.13-.25,1.13-.25Z"/><path class="cls-1" d="M243,13.23c.16.27.74.43.75.81,0,.32-.46.86-.82.83-.69-.06.18-.79-.12-1.27-.16-.26-.91.39-.7-.06.07-.14,1.34-.82,1.45-.82.52.02-.31.61-.57.5Z"/><path class="cls-1" d="M235.32,17.14c-.28-.1-.23-.44-.43-.64-.18-.17-.89-.38-1.14-.37-.27.02-.47.35-.7.19.23-.13,1.59-.96,1.69-.94.31.07.52,1.42.58,1.76Z"/><path class="cls-1" d="M241.49,20.92v-.63s-.82.5-.82.5c-.15-.38.7-.61.87-1.02l.58-1.5c-.1.94-.21,1.79-.63,2.65Z"/><path class="cls-1" d="M238.34,21.3c.35.33-1.83.92-2.02,1.01.13-.27,1.93-1.08,2.02-1.01Z"/><polygon class="cls-1" points="242.75 26.09 241.11 26.9 240.36 27.09 242 26.28 242.75 26.09"/><path class="cls-1" d="M178.44,17.83c-.15.21-.23.86-.38,1.18-.98,2-2.47,3.64-4.15,5.09-.6.52-1.47.79-1.79,1.56-.23.56-.43,1.89-.5,2.53-.8,7.54,3.59,8.27,7.86,12.64.25.26.49.6.56.95h-.32c-.86-.9-1.77-1.98-2.71-2.79-.66-.57-1.52-1-2.22-1.61-2.08-1.82-3.7-4.48-3.68-7.31.02-2.18.93-4.09.57-6.3-.11-.65-.66-2.83-.97-3.33-.55-.88-2.85-2.38-3.83-2.55-1.07-.18-1.53.81-2.62.79.42,1.33-.57.44-.09-.33.12-.18,1.39.09,1.52-.63-1.75-.22-3.51.09-5.25.32.28-3.28,2.7-5.94,4.62-8.44-.36.16-.52-.3-.56-.29-.1,0-.28.19-.37.12-.06-.04-.07-.3-.17-.38-.1-.07-.34.05-.48,0-.67-.26-1.08-.57-1.91-.4.34.54,1.02.71,1.48,1.14.12.11.47.25.19.45-1.89-1.12-4.18-2.67-6.29-1.19l.56.56c.31.11.23-.33.31-.32.2.04.44.29.8.29.61,0,1.19-.54,1.89.05l1.54,1.08c-1.11.19-2.15,1.11-3.34,1.27.87-.7.27-.28.11-.67-.13-.3-.04-.76-.25-1.02-.09-.12-1.7-.61-1.77-.54.2,1.38-.7,1.66-1.34,2.41-.38.45-2.81,3.33-2.81,3.57,0,.47,1.19.69,1.28.98.25.8-.75.86-.8,1.63.65.35,1.47.45,1.2,1.28-.22.68-.99.95-1,1.02-.02.08.16.63.13.97-.04.52-.43.94-.48,1.45-.12,1.28.95,1.85,2.05,2.06,1.41.26,2.28-.51,3.66.64,1.56,1.31,1.11,3.41,1.29,5.08.07.65.75,4.28.56,4.54-.12.16-.21.2-.4.16.17-1.04-.21-1.97-.32-2.95-.19-1.73.05-5.8-1.54-6.74-1.36-.81-2.5-.2-3.83-.63-1.21-.39-1.88-1.13-1.63-2.49.08-.42.47-.72.47-1.28,0-.34-.15-1.39-.2-1.87-.03-.36-.45-.87-.41-1.12.06-.33.92-1.11.93-1.47,0-.57-1.61-.36-1.25-1.55.8-.79,1.41-1.83,2.12-2.66.38-.45,1.75-1.56,1.91-1.91.43-.95-.2-2.34.69-3.93,2.17-3.88,7.07-5.21,11.24-4.65,6.13.83,11.69,5.87,10.92,12.47-.08.7-.59,1.71-.63,2.4M161.74,4.35v-.48c-.05-.06-1.21.76-1.4.6-.04-.03-.02-.3-.11-.28-.56.15-.95.89-.07.87.78-.02,1.18-.59,1.26.41l.4-.32c.15.71.71-.04,1.11-.01.09,0,.08.33.18.34.6.03.58-.09,1.43.08.13.03.52-.14.56-.08.04.07-.05.34.01.46.03.06,1.03.12,1.28.25.16.09-.03.39-.02.4.23.14,1.66-.6,1.91-.88.08-.43-.41-.14-.65-.31-.19-.13-.12-.53-.15-.57-.05-.06-1.32.4-1.59.32-.15-.17.47-.75-.88-.77-.53,0-1.18.52-1.04-.35-.51.02-.96.6-1.49.49-.12-.03,0-.49-.74-.17ZM170.81,6.9c-.63-.1-1.14.25-1.7.45l-1.33.82c.97-.17,2.27-.64,3.03-1.27ZM171.61,8.34c-.22-.31-1.62-.03-1.84.32-.1.15.08.39-.05.56-.15.19-.52.13-.5.39.3-.1,1.27.07,1.27.4,0,.26-.68.11-.63.4.57.02,1.1-.36,1.59.08.39.35-.39.29-.32.56h1.59c.07.34-.33.57-.33.87,0,.08.22.09.26.15.1.16.13.43.22.51.11.1.57-.18.65-.09.19.2-.69,1.56,1.44,1.35.33.17-.26.43-.16.8s.95.02,1.1.26c.27.45-.51.98.81,1.1-.11-.44-.09-1.04-.23-1.44s-.62-.62-.69-.9c-.04-.17.13-.44.06-.53-.16-.22-.6-.08-.7-.18s.16-.6-.5-.45c.45-.93-1.2-.63-.64-1.43-.79.17-.33-.43-.51-.62-.06-.07-1.05-.49-1.25-.34-.12-.55.58-.3.64-.63-.32-.02-.99.13-1.08-.26-.06-.25.45-.45-.35-.38-.06-.05.18-.44.16-.48ZM161.1,10.57l-1.75-.32c.2.47.07.8,0,1.27.57-.28,1.37-.41,1.75-.95Z"/><path class="cls-1" d="M147.72,41.78c.49-3.08.87-6.65,3.27-8.92.53-.5,3.07-2.07,3.66-2.07h4.14s.62.15.56.32c-2.51.38-3.95-.62-6.36.73-3.66,2.05-4.37,6.12-4.95,9.94h-.32Z"/><path class="cls-1" d="M149.47,41.78h-.32c.17-.74.91-1.37,1.43-1.91l-1.11,1.91Z"/><path class="cls-1" d="M166.19,22.67c-.27-.14-.16-.73-.27-1.08-.23-.77-.7-1.51-1.58-1.62-1.2-.15-2.12.66-2.29,1.84-.09.62.35,1.61.78,2.03.26.25.74.1.8.43-1.49-.05-2.2-1.82-1.62-3.13,1.19-2.72,4.64-1.18,4.17,1.54Z"/><path class="cls-1" d="M147.33,30.87c-.42.98-.92,1.93-1.29,2.93s-.55,2.18-.93,3.08c-.34.79-1,1.62-1.38,2.48-.75,1.67-1.35,3.42-2.05,5.11-.55-.68.02-1.71.29-2.43.81-2.17,2.05-3.69,2.89-5.55.75-1.65,1.19-3.74,2.12-5.33.11-.19-.03-.36.36-.28Z"/><path class="cls-1" d="M138.92,35.06c.47-.44,1.6-.4,1.9.25.71,1.59-1.63,2.93-2.33,1.61-.27-.52.06-1.52.43-1.86ZM139.41,35.19c-1.08.38-.03,2.17.99,1.27.73-.65-.03-1.6-.99-1.27Z"/><path class="cls-1" d="M151.77,38.03c-.23-.08-.28-.65-.33-.88-.18-.74-.27-1.5-.49-2.23-.2-.68-.57-1.39-.8-2.06-.33-.98-.35-2.12-1.1-2.98.46-.35,1.04,1.21,1.15,1.5.77,2.06,1.28,4.47,1.57,6.66Z"/><path class="cls-1" d="M133.87,35.74l-2.79,3.15c-2.02,1.72-3.59,3.8-5.23,5.87,0-.29.21-.61.37-.85,1.13-1.72,2.71-3.05,4.08-4.51,1-1.07,1.96-2.43,3.07-3.37.16-.13.23-.35.5-.29Z"/><path class="cls-1" d="M151.35,43.61c.34-1.67.25-3.38.44-5.07.02-.14.06-.54.27-.51,0,1.18-.18,2.35-.29,3.52-.06.59.2,1.59-.43,2.06Z"/><path class="cls-1" d="M119.98,40.89c-.14.51-1.36.91-1.42,1.23.39.85,1.27,1.36,1.42,2.34l3.19-2.03,1.61-.83c.54,0-.34.47-.37.49-.63.38-1.38.68-1.98,1.03-.36.21-2.43,1.74-2.59,1.63-.25-.97-1.15-1.55-1.44-2.43-.22-.06-.24.06-.36.14-.79.53-2.53,2.31-3.45,2.29-.66-.02,0-1.07.07-1.51.28-1.72-.2-3.68,1.16-5-2-.7-.69-2.56-.44-3.88.06-.33.24-1.34-.13-1.49-1.52,2.23-2.94,4.82-3.66,7.43-.14.5.05,1.27-.49,1.58.32-2.93,1.87-6.14,3.52-8.58.23-.34.76-.62.76-1.08,0-.13-.13-.24-.13-.29v-2.86c0-.13-.28-.24-.48-.19-.71.19-1,2.41-1.32,3.12-.87,1.98-3.16,3.53-4.51,5.23s-2.64,4-3.01,6.22c-.41.08-.3-.16-.25-.47.82-4.98,5.53-7.21,7.34-11.13.5-1.08.8-4.02,2.36-3,.03-.55.38-1.3.99-1.36.5-.05,1.33.7,2.3.29.07-.03,1.13-.87,1.24-.98.4-.4.7-1.03,1.06-1.45.26-.3,1.8-1.91,1.84-2.04.06-.21-.15-1.75-.13-2.26.04-.88.27-2.05.54-2.9.08-.25.46-.81.44-.97s-.83-.49-.94-.88.15-1,.12-1.04c-.11-.11-1.54-.09-1.29-.86h.86c.05-.28-.33-.07-.42-.16-.06-.06.01-.41-.01-.56.28-.08.37.28.62.26s1.64-.94,1.74-1.12c.28-.5-.02-.85.93-1.21-.67-.84-.49-.25-.96-.1-1.86.6-.14-1.62-.1-1.82.02-.08-.29-.99-.37-1.15.79.09.7.86.79,1.43l.79-.64c-.85-.24-.26-1.29-.86-1.36-.15-.2.86-.36,1.06-.44.91-.41,1.59-1.28,2.52-1.49.36-.08,1.4-.03,1.55-.24.03-.04.27-.85.27-.9,0-.21-.3-.4-.36-.61-.11-.41.37-1.27.73-1.5.08-.05.63-.26.66-.24.19.14.14.67.91.54.56-.1,1.94-1.03,2.72-1.3.71-.25,1.54-.49,2.29-.42.7-.75,5.33-.08,5.82.35.07.06.02.32.17.46.12.11.4.1.58.29.17.17.39,1.16.45,1.29.24.52.56.16.86.23.58.15.21.67.25.7.17.13.62-.41.9.18.48,1.03-.56.83-1.22.64-.6-.17-1.73-.88-2.33-.91-.13,0-.28.18-.42.18-.79-.04-2.43-1.42-3.1-1.86-.39-.25-1.2-.18-1.14-.95l-.57.79c.25.52.67.17.83.24.03.01.04.2.13.26.71.42,1.39.85,1.97,1.43.27-.76,1.75.31,2.15.72-.06-.95,1.11.21,1.36.51.27.33.9,1.62.87,1.99,0,.09-.29.08-.29.14.03.81.82,2.36.96,3.34.07.54.02,1.07.04,1.61.79-.32.63-1.37.39-2.04-.08-.23-.33-.36-.41-.61-.22-.71-.75-3.93-.28-4.3.4-.32.74.35.79.35.06,0,1.05-.18,1.09-.21.15-.12.04-.45.35-.35.45.15,2.37,2.62,3.09,2.96-.21.72-.27,1.67-.48,2.36-.54,1.81-2.43,2.85-2.4,5.05,0,.34.17.64.14.98-.03.53-.59,1.55-1.11,1.77-.14.06-1.43.45-1.56.46-.35.03-.6-.13-.85-.12-.46.01-1.45,1.15-1.93,1.48-2.93,1.98-6.04,1.66-9.33,2.41-1.71.39-4.47,3.16-5.91,4.39-.68.59-1.7,1.04-2.08,2,2.19-.74,3.69.83,5.66,1.41.59-.67.27-1.68.36-2.48.17-1.63.41-3.32,1.15-4.8.28-.03.11.28.07.43-.25.93-.62,1.84-.79,2.79,0,.31,3.07-.6,3.33-.68.44-.14,1.52-.47,1.83-.62.68-.32,2.1-2.16,2.94-2.77,1.47-1.07,1.38.3,2.16,1.13,1.32,1.4,2.86,2.23,4.28,3.45.47.4,1.51,1.73,1.94,1.93.38.17.84-.07,1.14.29-.27-.01-.95.09-1.14,0-.44-.2-1.44-1.37-1.82-1.77l-3.34-2.31c-.02,1.32-.19,2.62-.15,3.94,0,.28.31,1.35-.06,1.35h-3.22c.06.39.56.81.86,1.08.95.83,2.78,1.8,3.54,2.69.1.12.32.54.26.68-1.1,1.07-2.17,2.18-3.27,3.24-.77.74-1.56,1.53-2.38,2.27-1.57,1.41-3.22,2.73-4.94,3.93-.18.06-.29-.03-.21-.21.12-.29,1.56-1.21,1.93-1.51,1.37-1.13,2.77-2.31,4.09-3.5,1.21-1.08,3.05-2.64,4.09-3.79.23-.26.5-.62.22-.95-.97-.7-1.88-1.46-2.81-2.21-.14-.11-.35-.13-.48-.24-.25-.21-1.18-1.37-1.37-1.33-1.23,1.54-2.68,2.87-4.03,4.28-.09.1-.32.45-.49.3-.23-.22,4.1-4.18,4.29-4.65-1.61-1.03-1.2-3.24-2-4.79-.05-.03-.76.72-.86.83-.76.87-1.93,2.34-2.51,3.32-.16.26-.48,1.22-.53,1.26-.08.07-.33,0-.37.04-.05.05-.02.62-.08.86-.2.7-.49,1.53-1.22,1.71.13-.99-.56-1.27-1.28-.63-1.02.9.26,1.53,1.18,1.18.23-.09.52-.88.53-.33-.35.31-.36.83-.57,1.15-.17.27-.58.49-.78.8-1.51,2.28-2.78,5.06-3.88,7.58-.1.23-.19.82-.22.86-.51.55-.08-.81-.02-.96.6-1.49,1.5-3.34,2.24-4.77.15-.29,1.31-2.04,1.22-2.14-.4.4-1.27.79-1.58,1.21-.62.84-.96,2.47-1.93,3.22-.24-.21.21-.37.19-.62-.06-.62-.55-.49-.98-.38l.22,1.14c-1.06-1.66-1.68-3.53-1.8-5.5-.04-.69.24-2.86-.14-3.23s-.26.65-.29.78c-.22.87-.5,1.73-.67,2.62-.46,2.43.18,3.18-2.18,4.76.02-.08.05-.3-.07-.29-.59-.11-1.23.38-1.21,1,.05.06,1.13-.61,1.29-.71ZM124.42,27.51c.07.7-.05,1.5,0,2.22-.2-.02-.25-.64-.27-.8-.09-.92-.04-1.74-.35-2.66-.14-.41-.74-1.27-.8-1.65s.3-.42.27-.75c-.38.09-.37.27-.5-.14l-2.57,3.01-1.8,3c.89-.14,1.84-1.04,2.72-.94.43.05,2.71.8,2.94,1.08.39.51-.45-.01-.49.36,0,.06.12,1.07.41.79.24-.23.5-1.82.93-2.15,2.24-1.62,5.4-5.4,8.06-5.97,1.88-.4,4.41-.4,6.19-.96.59-.18,1.02-.47,1.22-1.08.18-.56.38-1.28.54-1.89.3-1.12,0-1.96.15-3.08s.6-3.28.11-4.41c-.09-.2-.21-.43-.44-.49.1.74-.67,2.18-1.31,2.49-.39.19-2.3.79-2.73.86-1.26.21-1.19-.95-.47-1.63l-.22,1.43c.29.29,2.97-.91,3.51-1,.89-1.25,1.95-2.71-.44-2.73-.71,0-1.57.06-2.29.16l-.79-.65c.11-.27.24-.53.38-.78.07-.13.54-.66.6-.75.03-.05-.15-.29-.06-.41.12-.16.49-.11.52-.14.26-.25-.28-.31-.28-.35.02-.56.42-.5.7-.73.15-.12.18-.4.39-.47.33-.12,1.51-.03,1.92.04,1.06.19,2.54,1.04,2.86,2.08.23.04.16-.37.15-.51-.05-.48-.11-.61-.51-.92l-.14.29c-.73-1.25-2.79-1.24-4.13-1.24-.48,0-.93.41-1.38.01-.09-.08-.2-.51-.29-.35-.03.05.03.24-.01.27-.3.27-.65-1.14-.66-1.37-.02-.37.25-.69.24-1.06l-.28-.14c.73.09.55-1.17,1.29-1.51.13-.31-.34-.22-.51-.22-2.2.02-4.28,1.4-6.06,2.53-.69.78.26,1.47-1.13,1.87-1.76.51-1.42.19-3.06,1.23-.64.41-1.38.34-1.41,1.18-.01.52,1.13.87,1.28.77.04-.03-.23-.53.54-.69.41-.09.71.38,1.1.39.34,0,1.77-.57,1.94-.41.04.37-.52,1.47-.84,1.51-.42.05-1.72-1.31-2.59-.79.23.31,1.32.33,1.55.59.08.09-.02.73.06,1.02.1.37.73.86.68,1.39.38.29.91-1.22,1.08-1.43.69-.84,1.98-.32,1.64,0-.4-.03-.83.11-1.09.43-.21.25-.05.4-.13.57-.51,1.03-1.28.98-1.97,1.29-.11.05-.14.38-.67.3.55-1.68-3.38-2.01-3-.8.14.44,1.24-.05.78,1.22-.36.98-2.37,1.34-2.48,1.67-.54,1.53,2.25,1.62,2.41,1.99.02.06.05.36-.07.35-.07-.37-1.43-.62-1.49-.57-.32.24-.84,2.84-.87,3.36-.17,2.65,1.18,4.47,1.43,6.87ZM148.62,7.97h-1.29s.14,1,.14,1c.31-.02,0-.59.37-.71.35-.1.91.54.77-.3ZM129.58,8.83c-.55.03-1.75.09-.79.72.57.38.72-.19.79-.72ZM126.43,11.12c-.47.33-.88-.47-1.28.07.28.47,1.26.6,1.28-.07ZM143.04,15.41l-.75.9-.11,1.25.87-1.64-.02-.5ZM133.01,27.01c-.26-.24-1.42.22-1.14.86.54.35,1.47-.55,1.14-.86ZM135.02,27.15c-.34-.18-1.49.58-1.29.86.67.41.8-.43,1.29-.86ZM117.69,28.01c-.47-.1-1.21-.18-1.37.42-.39,1.37,1.4.46,1.37-.42ZM132.01,28.87c-.65-.33-.89,1.22.14,1.14l-.14-1.14ZM133.59,28.87c-1.65.1-1.15.36-1.14,1.72l1.14-1.72ZM121.99,29.16c-.55-.04-1.55-.51-1.27.34.2.6,1.41-.2,1.27-.34ZM128,30.16c-.33.12-1.32-.75-1.43-.21-.14.66,1.18.89,1.43.21ZM116.4,31.87c.91-.17,1.64-.66,1.15-1.66-1.05-.2-1.59.73-1.15,1.66ZM118.87,31.84c.82.79,1.85-.91,1.26-1.62-.82-.43-1.76,1.14-1.26,1.62ZM125.96,30.62c-.22-.22-.81-.18-1.11-.18-.2.18.81.97.95.99.42.06.39-.58.16-.81ZM122.13,30.59c-.51-.45-1.35,1.32-.21,1.44.87.09.46-.65.28-1.01-.07-.13-.05-.41-.07-.43ZM130.15,31.16c-.56-.17-2.47-.88-1.72.36.55.92,1.18.17,1.72-.36ZM132.16,30.73c-.72-.1-1.41,1.26-.64,1.43.46.1.37-1.17.64-1.43ZM127.71,33.73c.15-.82-.37-1.01-1-1.29-.14.15.75,1.23,1,1.29ZM126.21,32.59c-.43.09-.24.95.22,1.2.27.15,1.18.39.85-.13-.13-.2-.86-1.12-1.07-1.07ZM117.67,32.9c-.67-.42-1.5.29-1.24,1.16.44,1.46,1.87-.77,1.24-1.16ZM122.7,32.88c-.51-.16-1.32.16-1.13.77.03.1.69.76.84.42.1-.23.14-.89.29-1.19ZM119.95,33.32c-.75.11-.91,1.26-.32,1.7.8-.13,1.39-1.86.32-1.7ZM125.28,35.16c.35-.84.14-1.78-.86-1.86-.14.14.22,2.01.86,1.86ZM114.97,36.74c.97.05.78-1.05.57-1.72-.18.03-.3.55-.35.72-.09.32-.15.67-.22.99ZM120.7,35.31c-.39.14-1.67.86-1.08,1.3.76.56,1.29-.61,1.08-1.3ZM126.38,35.47c-.55.19-.68,1.47.55,1.42,1.54-.06.51-1.78-.55-1.42ZM129.72,35.88c-.63-.06-.96,0-.86.71.31.18,1.03-.57.86-.71ZM117.98,37.17c-.33.39-.9.73-.8,1.36.19,1.33,1.93-1.48.8-1.36.12-.14.69-.73.57-.86-.35.13-.54.66-.93.72s-.11-.78-.59-.85c-.52-.08-1.05,1.33-.21,1.5.3.06.69-.46,1.16-.51ZM121.7,38.6l.14-2c-1,.35-.9,1.43-.14,2ZM124.67,37.21c-.13-.16-.83-.45-.96-.33-.13.72.27,1.3.29,2,.73-.22,1.19-1.03.67-1.68ZM119.8,39.56c.34-.28.54-1.71-.03-1.77-1.33.07-1.06,2.67.03,1.77ZM127.29,38.17l-1.43.14c.02.45-.16.89.36,1,.81.18.82-.5,1.07-1.14ZM116.4,38.74c-1.06-.22-1.16.93-1.14,1.72.68-.42,1.33-.79,1.14-1.72ZM116.56,41.88c1.24.33,1.85-1.88.52-1.68-.81.12-.8,1.07-.52,1.68ZM115.67,43.88c.11-.07.25-.81.1-.99-.96-.26-.77.29-.93,1.01.22-.04.68.08.84-.02Z"/><path class="cls-1" d="M134.67,4.31c.47.55.63,1.14.99,1.52.28.3.66.36.94.64l-.57.07.43,1c-.17-.05-.31-.23-.42-.36-.24-.28-1.05-1.5-1.19-1.61s-.51.12-.39-.46l-.86.36c.6.29,1.23.97,1.29,1.65-.67-.25-1.4.88-2.2.42-.7-.4-.2-.89-.31-1.14s-.74-.3-.64-.71l.57.07.87-.65c-.28-.04-.8.09-1.01-.07-.13-.1-.08-.4-.17-.48-.15-.14-.53.19-.4-.46,1.01.3,1.84-1.11,2.73-.5.19.13,0,.36.08.5.03.07.2.12.28.2ZM134.15,5.98s-1-.47-1.18-.42c-.16.04-.27.23-.39.34.25.17,1.37.7,1.57.5.01-.01.02-.38-.01-.42ZM134.16,6.83l-1.57.21c.32.57,1.27.24,1.57-.21Z"/><path class="cls-1" d="M139.88,10.7l.15.99c-.3-.06-.16-.57-.52-.69-.39-.13-.81.11-1.19.12-.07.54.68.09.84.67s-.61,1.23-.84,1.04c-.31-.26.66-.41.57-.78-.03-.13-.64-.45-.72-.36.21.99-.57.8-1.14,1.29-.21-.67.59-.41.79-.71s-.11-.99.21-1.23c.14-.1,1.74-.44,1.85-.34Z"/><path class="cls-1" d="M131.58,8.69c-.26.98,1.09.82,1.16,1.36s-.79,1.43-.73,2.07c-.35.05-.32-.02-.26-.33.07-.34.75-1.74.69-1.82-.02-.02-.33-.06-.48-.16-.3-.21-1.18-1.05-.38-1.13Z"/><path class="cls-1" d="M128.86,14.41c.12.1-2.11,1.95-1.29,2.65.4.35,1.36-.03,1.58.64-.26.08-.34-.21-.53-.25-.76-.16-1.88.12-1.36-1.28.07-.2,1.36-1.98,1.61-1.76Z"/><path class="cls-1" d="M132.87,17.56l1.91-.74,1.53-1.41c.06.27-.15.34-.28.5-.78.92-1.87,1.8-3.15,1.64Z"/><path class="cls-1" d="M125.86,25.29l1.6-2.62.4-.38c-.31.68-.75,1.44-1.17,2.05-.23.32-.5.74-.83.96Z"/><path class="cls-1" d="M128.43,21.43c.27-.82.88-1.65,1.57-2.15l-1.57,2.15Z"/><path class="cls-1" d="M130.58,6.68l-1.75.33c-.17.01-.93.42-.97.39-.25-.23.18-.31.28-.35.76-.34,1.61-.41,2.44-.36Z"/></g><g id="Layer_2"><path class="cls-6" d="M33.46,65.13l.28,9.21c0,.08-.02.15-.07.2l-9.51,9.52c-.16.16-.38-.1-.27-.32l9.23-18.74c.1-.2.33-.11.34.12Z"/><path class="cls-6" d="M32.98,64.15l-17.71-8.65c-.19-.09-.14-.47.07-.47l14.21.24c.07,0,.13.05.16.13l3.5,8.41c.08.2-.07.42-.23.34Z"/><path class="cls-2" d="M32.96,64.56l-5.84,2.32c-.06.02-.11.09-.12.17l-3.37,16.38c-.05.27.22.43.33.19l9.21-18.69c.09-.19-.04-.43-.21-.36Z"/><path class="cls-2" d="M32.93,64.12l-17.34-8.48c-.2-.1-.35.26-.17.42l11.54,10.78s.11.06.16.03l5.81-2.3c.17-.07.18-.38.01-.46Z"/><path class="cls-2" d="M33.45,63.46l.27-22.72c0-.28-.29-.34-.36-.08l-3.69,14.52c-.02.06-.01.13.01.19l3.42,8.2c.09.22.34.14.35-.11Z"/><path class="cls-1" d="M31.84,49.68l.59,24.73-8.23,8.52,3.64-15.42.18-.75-.54-.54-10.19-10.19h12.03c.74,0,1.36-.52,1.53-1.29l.99-5.06M32.91,37.01l-3.42,17.47c-.02.1-.09.18-.18.18h-15.36l12.54,12.55-4.79,20.3,12.12-12.55-.91-37.95h0Z"/><path class="cls-4" d="M15.44,55.27l17.53,8.53c.16.08.31-.15.22-.35l-3.54-8.18"/><path class="cls-4" d="M26.43,67.17l6.51-2.92c.16-.07.31.17.21.36l-9.84,20.3"/><rect class="cls-3" x="33.13" y="37.51" width="219.04" height="37.59"/><rect class="cls-3" x="35.71" y="39.74" width="213.88" height="33.13"/><line class="cls-5" x1="48.75" y1="51.59" x2="43.47" y2="39.74"/><line class="cls-5" x1="48.75" y1="51.59" x2="40.14" y2="39.74"/><line class="cls-5" x1="48.75" y1="51.59" x2="35.71" y2="39.85"/><line class="cls-5" x1="48.75" y1="51.59" x2="35.71" y2="44.07"/><line class="cls-5" x1="48.75" y1="51.59" x2="35.71" y2="47.36"/><line class="cls-5" x1="48.75" y1="61.28" x2="43.59" y2="72.87"/><line class="cls-5" x1="48.75" y1="61.28" x2="40.33" y2="72.87"/><line class="cls-5" x1="48.75" y1="61.28" x2="35.88" y2="72.87"/><line class="cls-5" x1="48.75" y1="61.28" x2="35.71" y2="68.81"/><line class="cls-5" x1="48.75" y1="61.28" x2="35.71" y2="65.52"/><line class="cls-5" x1="242.23" y1="39.74" x2="236.95" y2="51.59"/><line class="cls-5" x1="245.56" y1="39.74" x2="236.95" y2="51.59"/><line class="cls-5" x1="249.59" y1="40.21" x2="236.95" y2="51.59"/><line class="cls-5" x1="249.59" y1="44.3" x2="236.95" y2="51.59"/><line class="cls-5" x1="249.59" y1="47.49" x2="236.95" y2="51.59"/><line class="cls-5" x1="242.11" y1="72.87" x2="236.95" y2="61.28"/><line class="cls-5" x1="245.37" y1="72.87" x2="236.95" y2="61.28"/><line class="cls-5" x1="249.59" y1="72.66" x2="236.95" y2="61.28"/><line class="cls-5" x1="249.59" y1="68.58" x2="236.95" y2="61.28"/><line class="cls-5" x1="249.59" y1="65.39" x2="236.95" y2="61.28"/><rect class="cls-3" x="35.71" y="39.7" width="213.88" height="33.21" rx="16.58" ry="16.58"/></g></svg>