<?xml version="1.0" encoding="UTF-8"?><svg xmlns="http://www.w3.org/2000/svg" viewBox="0 0 587.44 99.51"><defs><style>.cls-1{fill:#231f20;}.cls-2,.cls-3{fill:#fff;}.cls-3,.cls-4,.cls-5{stroke:#231f20;}.cls-3,.cls-5{stroke-miterlimit:10;}.cls-4{stroke-linejoin:bevel;}.cls-4,.cls-5{fill:none;stroke-width:.75px;}.cls-6{fill:#dcddde;}</style></defs><g id="Layer_10"><path class="cls-1" d="M39.78,23.13c.03.16.35.57.48.72-.13.2-.26-.03-.34-.14-.5-.72-.21-1.26-.27-2.01-.03-.38-.73-2.74-.95-2.89-.18-.11-.46-.03-.59-.25l.48-.48c-.42-.07.02-.61-.12-1.02-.14.02-.21.44-.48.24-.05-.04.23-.22.24-.42,0-.04-.41-.11-.24-.42.65.54.64-.02.48-.6l-.12.36-.24-.24-.18.48c-.11-.36-.13-.17-.42-.12.34-.37.87-.64.96-1.2-.08-.09-.89.58-.95.67-.22.35.11.91-.49,1.13.03-.37.54-.61,0-.78.29-.46.66-.75,1.08-1.08,0-.19-2.1-.55-2.42-.69l-1.04-.73c.26-.46.66-.82.99-1.24,1.28-1.59,2.02-3.39,3.8-4.66.19-.13.5-.15.57-.21.05-.05.46-1.11.61-1.37,3.34-5.69,13.46-4.62,15.41,1.55.13.4.19,1.44.31,1.61s.71.3.96.48c.71.49,1.52,1.22,1.81,2.02.19.53.57,1.83.36,2.3-.17.38-1.06,1.28-1.41,1.49-.28.17-1.99.77-2.05.86-.06.09,0,.3-.09.45-.05.09-.26.08-.3.21-.29,1.11-.46,1.99-1.25,2.92-.15.18-.41.25-.55.41-.28.34-.34.9-.85,1.2-.13.08-.37.03-.45.09-.09.07,0,.43-.26.46-.08-.21-.06-.69.14-.82.02-.01.24.11.5-.03.21-.11.41-.38.51-.59.13-.27.05-.55.07-.57.05-.07.25-.08.37-.3.17-.31.51-2.57.45-2.91-.04-.21-.13-.34-.36-.3l-.24.72c-.03-.46.23-.8.25-1.26.02-.5-.21-.78-.15-1.24-1.03-.84-.86.98-2.02.81.29-.36,1.45-1.11.84-1.62-.17-.14-2.85-.94-3.21-.99-.69-.09-1.28-.12-1.62.6-.08.18-.07.54-.09.56-.04.04-.84-.08-.83.18,0,.28.94.12,1.05.03.1-.08.36-.89.87-.81-.25.36-.77.53-.72,1.08l.72-.24c.16.47-.31.61-.41.85-.12.28-.37,1.2.12,1.19l.54-.71c-.23.75-1.06,2.01.36,1.92-.05.38-.87.09-.94-.02-.09-.15.03-.61-.02-.85,0-.03-.31-.29-.4-.57s.29-.47-.32-.24c.46-.29.33-.65.6-1.08l-1.2.24c-.08-.21,1.18-.32.84-.6-.11-.09-.71.42-1.06.21-.05-.03-.1-.25-.19-.34-.12-.11-.42-.24-.44-.31-.04-.22.2-.59.11-.74-.08-.14-1.35-.7-1.58-.7-.37-.01-2.83.52-3.12.7-.34.21-.13.53-.23.85-.31,1.07-.81,2.26-1.26,3.28-.02.45.35.68.57,1-.18.16-.83-.68-.84-.9,0-.23,1.25-2.6,1.07-2.82-.74.45-.89.57-1.68.12-.45,1.06-.76,1.7-.57,2.91.12.77,1.05,2.7,1.05,3.27,0,.52-.09,1.48,0,1.92ZM48.63,3.55c-.12-.08-.39-.13-.33.14.54.72,1.69-.05.66-.18-.35-.04-.01.21-.06.24-.26.15-.25-.18-.27-.2ZM44.46,3.75c-1.12.31-1.9,1.58-2.45,2.53l-1.03,4.31h.6c-.16-.57-.06-1.17.13-1.73.3-.9.67-1.82.99-2.73.37-1.05.94-1.66,1.77-2.37ZM47.57,5.43c.7-.04.02-.87.12-1.32-.67.29-.04.78-.12,1.32ZM48.53,4.11c-.35-.37-.23,1.13-.24,1.2.51.14.32-1.11.24-1.2ZM44.9,4.48c-.14.04-.23.19-.32.28.98,1.34,1.28-.55.32-.28ZM47.2,4.48c-.07-.06-.49-.12-.47.17.01.19.49,1.04.54,1.02.27-.11-.03-1.15-.07-1.19ZM50.09,5.55c.17.17.98-.83.18-.96l-.18.96ZM46.49,4.71c-.56-.47.2,1.4.48,1.08.1-.12-.41-1.02-.48-1.08ZM46.49,5.56s-.19.11-.34.05-.36-.34-.54-.3c-.09.02-.25.27-.18.36.03.05.96.49,1.02.48.24-.05.14-.53.06-.59ZM48.89,6.51c.07-.08.24-1.2-.06-1.2-.23,0-.2.85-.18,1.02.02.16.07.36.24.18ZM51.41,6.51c.97-.34.22-.92-.36-1.08-.43,1.14.52.42.6.48l-.24.6ZM47.93,5.55c-.52-.39-.26,1.16-.12,1.32.41-.06.21-1.25.12-1.32ZM50.57,5.79c-.61-.12-.67.12-.86.64-.07.18-.14.14.08.32.46-.11.67-.53.78-.96ZM44.44,6.73c.49-.3-.4-1.47-.46.02.14-.02.35.05.46-.02ZM47.09,6.03c-1.07.23-.34.88.36,1.08l-.36-1.08ZM46.01,6.63c-.15-.25-1.02-.68-1.2-.3-.16.35,1.06.32,1.2.3ZM50.33,7.35c.17.18,1.17-.97.66-1.08-.32-.07-.7,1.03-.66,1.08ZM45.89,6.75h-1.2s0,.36,0,.36c.4-.05,1.19.22,1.2-.36ZM50.21,8.07c.16-.6-.59-1.31-1.13-1.32-.32,0-1.26.29-1.47.52-.16.17-.66,1.4-.04,1.28-.13-1.27,1.37-1.87,2.21-1.07.31.3.03.64.43.59ZM50.57,7.59c.07.05,1.08-.26,1.08-.42l-.42-.42-.66.84ZM52.25,6.75c-.47-.36-.29,1.37-.23,1.43.03.03.69.08.83.12.05-.2-.19-.05-.24-.2-.05-.19-.25-1.27-.36-1.36ZM47.09,7.71c-.03-.22-1.01-.78-1.08-.72-.02.01-.15.34,0,.42.21.12.81.24,1.08.3ZM45.77,7.23l-1.2.12v.36c.46-.05,1.29.24,1.2-.48ZM48.09,7.74c-.12.15-.23.63.03.68.43-.25,2.31-.11,1.31-.84-.42-.3-1.03-.25-1.34.16ZM43.75,7.48c-.08.05-.2.55.05.59.72.11.57-.97-.05-.59ZM51.77,7.71c.23-.33-1.32-.18-1.2.36.5.11.77-.22,1.2-.36ZM46.09,7.6c-.65.16-.05.98.64.28,0-.1-.53-.31-.64-.28ZM44.33,8.07c-.18-.2-1.5.77-.12.54l-.48.42c.78-.14.61-.2.6-.96ZM45.53,8.19s-1.01.09-.96.42.78-.2.96-.06c-.02-.1.02-.33,0-.36ZM46.97,8.19l-1.2.12c-.08.53.14.37.55.24.17-.05.6-.18.65-.36ZM59.09,14.43c.35-.33-.08-2.1-.27-2.55-1.07-2.54-6.56-3.76-9.02-3.57s-4.5,1.42-6.8,2.19c-1.73.58-3.64.41-5.28,1.45l-2.49,1.94c1.18.47,1.31-.58,1.93-.95.51-.31,1.18-.25,1.71-.45.34-.13.54-.44.8-.52.44-.14.93,0,1.38-.06.41-.06.82-.45,1.26-.54,1.09-.23.97-.27,1.89-.63.46-.18.98-.16,1.44-.36.42-.18.8-.69,1.23-.81,1.09-.29,1.82-.48,2.93-.54.76-.04,1.01-.46,1.96-.02.22.1.41.4.62.44.17.04.42-.09.66-.06.38.05.62.38.88.45.34.09.71-.04,1.03.05.42.12,1.36.71,1.72,1.04.68.61,1.21,1.21,1.72,1.98.29.43.43.07.56,1.05.02.15-.14.76.17.47ZM46.85,8.55c-.22.15-1.31.25-1.32.42,0,.39,1.29-.15,1.32-.42ZM44.33,9.03c-.88.07-.48.3-.6.96.19-.1.74-.8.6-.96ZM45.41,10.71c-.72-.09-1.35.16-1.8.72.41-.03.69-.42,1.08-.54.24-.08.67.04.72-.17ZM46.97,12.75l-1.2-.12c.07.18.64.48.78.48.17,0,.36-.19.42-.36ZM48.41,12.87c-.41.07-.81-.24-1.2-.06-.21.1-.85,1.01-.84,1.2.03.57.49-.43.6-.42l-.12.6c.65.02.68-.45,1.02-.84.19-.21.44-.27.54-.48ZM40.74,14.07c-.48-.07-.79.2-1.08.54l1.08.06-.36-.12v-.36s.36-.12.36-.12ZM55.27,17.41c-.14-.2.26-.34.32-.55.14-.49-.58-1.51-1.18-1.47.54.84.88,1.75.6,2.76.18-.07.43-.39.47-.55.05-.23-.18-.14-.21-.19ZM54.89,18.75c-.75-.19-.48.62-.84,1.08.14.15,1.07-.74.84-1.08Z"/><path class="cls-1" d="M37.5,19.59c-.51-.66-1.08-1.25-.84-2.16l.17.97c.22.41.67.67.67,1.19Z"/><path class="cls-1" d="M36.06,36.99c.07-1.23,1.54-3.07,2.21-4.09.87-1.33,2.6-4.39,3.91-5.21.35-.21,1.14-.26,1.38-.66.12-.2-1.15-2.98.29-2.76.02.22-.4.15-.46.26-.22.34.2,1.99.34,2.44.38,1.19,1.45,2.41,1.08,3.66l-.37-1.49c-.09-.2-.25-.22-.46-.19-.13.52-.52.87-.75,1.35-.34.72-.38,1.42-.64,2.12-.07.19-.12.56-.41.48.67-1.44.65-3.32,2.16-4.26-.31.08-.61-1.72-.96-1.38.21.52.05.27-.28.5-.76.51-1.4,1.19-1.85,1.99-.62,1.1-.88,2.6-1.58,3.58-.06.08-.3.33-.21.03.28-.4-.25-.05-.27-.33.35.21.85-.47.84-.66-.01-.14-.38-.1-.36-.3.13-.05.46.14.48.12.11-.12.2-1.29.27-1.41.35-.61.78-1.46,1.24-2.06.11-.14.48-.13.23-.37-.65.06-.63.72-1.11,1.04-.21.41-.35.84-.51,1.27-.06.14-.34-.02-.11.45-.34-.28-.73.04-.73.42,0,.13.3-.03.25.18-.64-.12-.19.32-.24.36-.02.02-.25,0-.37.06-.14.08.02.29,0,.3-.08.04-.38-.06-.47.01-.04.03-.03.31-.1.43-.22.37-.64.61-.63,1.11.49.01.76.12,1.2-.12-.26.32-.6.73-.71,1.14-.07.24.12.2.29.17.84-.16,1.83-.61,2.7-.78.31-.65.79-2.17,1.26-.78.1.31.08.71.21,1,.28.63.62.29.99.32.17.02.31.24.46.22s.47-.37.8-.22c-.22.33-.8.02-.58.64.18.51.91-.09.94-.04v.36c-.49-.01-1.28.17-1.74.13-.37-.03-.44-.3-.59-.32s-.34.11-.63,0-.19-.52-.34-.76c-.05-.08-.23-.1-.26-.15-.1-.17.09-.48-.15-.45-.16.8-.55,1.6-.6,2.4-.76-.14-.02-1.22-.12-1.8-.37-.06-.19.1-.23.3-.11.48-.2.96-.37,1.43l.84.31c-.47-.19-.95.1-1.26.12-1.3.07-2.59.32-3.95.37-.37.01-.01-.37.06-.48,0,.12,0,.24,0,.36.38-.31,1.01.09,1.26-.11.37-.29,1.15-1.4.54-1.63.36-.44.64-.96-.16-.78-.1.02-.1.19-.17.23-.19.1-.73.35-.82.49-.1.16.05.34,0,.48-.04.12-.53.76-.65.96ZM42.54,34.11c-.21-.23-.91.46-.3.72.27.11.34-.67.3-.72ZM43.02,35.54c.08-.65-.32-.81-.72-.3.18.26.4.35.72.3ZM40.14,35.07l-.33.32-.08,1.47c.36-.49.44-1.21.42-1.8ZM40.62,35.07c-.6.12-.33,1.31-.6,1.8.37-.43.53-1.24.6-1.8ZM43.4,35.76c.26.25.87.02.81-.27-.37-.73-1.26-.17-.81.27ZM38.7,37.1s.02-.25.11-.3c.1-.06.28.08.41.05.36-.09.49-1.31.44-1.66-.38.22-.34.83-.48,1.2-.22.03-.09-.25-.07-.37.05-.24.19-.46.19-.71l-.72.92c.07.23-.25,1.19.11.87Z"/><path class="cls-1" d="M55.01,31.83c.17.12.51.18.66.48.19-.53-.42-.87-.78-1.14l.6.18-.48-.72c.29.29.79.05.82.56,0,.16-.2.26-.17.41.04.16.31.32.31.53,0,.18-.27.33-.25.59.02.21.32.39.41.69.03.12.21,1.62.21,1.71,0,.07-.25.07-.25.13-.02.25.35.47.36.72,0,.27-.36.6-.36.9-.49-.51-.28-1.64-.96-2.04.32.74.53,1.5.72,2.28-.45-.11-.46-1.78-.78-1.8-.38.29.11.65.17,1.02.04.25.1.9-.19,1-.1.03-.62.04-.64.02-.12-.13.02-1.91-.72-1.92l.24,2.04c-.24.05-.29-.21-.51-.21-.18,0-.44.16-.66.19-.18.02-1.02.13-1.08.13-.28-.02-.52-.21-.67-.2-.24.02-.73.59-1.1.35-.19-.13-.18-.35,0-.37.17-.02.37.22.48.21.08,0,.57-.48.72-.57.11.36.17.16.42.2.1.02.37.33.48-.04.02-.08-.16-1.68-.23-1.72-.05-.03-.26.02-.36,0v.6c-.27-.05-.2-1.03-.55-.48-.08.13.27,1.16.18,1.44-.44-.29-.07-1.06-.42-1.44l-.3,1.2c.13-.39-.26-1.22.07-1.43.18-.12,1.16-.22,1.44-.24.47-.03,1.32.11,1.8.1.24,0,1.18-.03,1.25-.2.37-.98-.42-2.45-.59-3.46-.26-1.57.22-3.36-.86-4.66-.39-.48-.99-.72-1.32-1.26l1.38.96c1.32,1.92,3.96,1.91,5.64,3.36.24.21.33.51.66.66-.08.17-.3-.02-.4-.08-.44-.28-.81-.81-1.32-1.08-.29-.15-2.85-1.29-2.96-1.18.05.21-.12.47-.09.64.04.26.8,1.09.21,1.22l.48.6c-.33.04-.78-.82-.87-.87-.52-.29-.7.45-.22.45.07.2-.23.06-.25.18-.02.24.18.35.2.48,0,.07-.24.27-.07.57.04.07.34.23.48.33-.07-.03-.25.02-.36,0-.23.49.35.74.36.79.04.33.07.58.13.95.08.49-.13.78.24,1.19.6.65,1,.08.35-.47-.04-.1.28.03.24-.24l-.36-.48c.56-.19.06-.71-.36-.66-.03-.2.34-.15.36-.3,0-.05-.55-.76-.6-.78ZM52.36,35.43c-.06-.04-.24,0-.35,0l.12,1.8c.63.09.33-1.73.23-1.79ZM53.56,35.56c-.04-.05-.81-.17-.89-.03-.08.29-.17,1.63.12,1.69.58.12.37-1.12.3-1.44.42.12.14,1.22.24,1.32h.36c.06-.06-.08-1.49-.13-1.54ZM54.47,35.43c-.31,0,0,1.2.06,1.37.06.16.2.47.42.42.49-.11-.12-1.79-.48-1.8Z"/><path class="cls-1" d="M49.5,19.94c.5.31.29-.58.59-.71-.11.34.16.81-.24.9l.36.3.24-.48c.02.15-.44,1.31.04,1.18.56-.15,1.45-.62,1.74-1.14.27-.47.12-1.02.68-1.24-.02,1.04-.91,1.93-1.86,2.34-.31.13-1.13.15-.84.54.03.04.29-.18.36-.12-.16.24-.26.34-.25.65.01.43.81,2.77,1.08,3.1.15.18.39.14.46.23.75,1.01-1.36,4.98-.94,6.33l-.24-.24-.94,3.75c.41.49.11.25.02.36-.34.47-.04,1.12-.22,1.65-.33-1.54.3-2.96.54-4.44-.66.11-.38.27-.53.6-.35.74-.61.32-.79.42-.16.09-.16.45-.26.52-.14.1-.63.04-.79.17-.1.09-.06.35-.23.46-.27.18-.58-.06-.8-.02-.1.02-.22.58-.74.56-.46-.02-.62-.7-.18-.91-.48.85.69.91.7.32,0-.28-.54-.49-.46-.56.17-.09.55.28.6.24.03-.03-.01-.4.18-.48v.6c1.12.58.56-.75.89-1.16.23-.29.78-.11.85-.17.03-.03-.03-.37.11-.55.12-.14.37-.13.49-.23.3-.26.26-.99,1.09-.77-.64-.69.37-.64.54-1.07.14-.36,1.06-4.27,1.02-4.5-.03-.2-.93-1.61-1.12-2.13-.32-.9-.49-2.02-.63-2.97-.03-.22.08-.41.04-.63-.1-.51-.76-.42-.91-1.14-.06-.28-.06-.93.21-1.11,0,.27-.04,1.45.13,1.55ZM50.09,32.07c-.44-.16-.85.6-.42.72s.46-.42.42-.72ZM48.97,32.92c-.48.12-.44,1.03.21.81.33-.11.3-.95-.21-.81ZM48.53,33.75c-.09-.13-.64-.17-.78.12-.45.93,1.08.33.78-.12Z"/><path class="cls-1" d="M46.3,14.62c.1.1.3.12.31.28-.61-.21-.82.16-1.34.29-.56.13-1.8.29-1.78-.52l.36.12-.12-.36c.35.57,1.91.02,1.14-.24-.03-.01-.3.62-.54.36-.07-.08.13-.46.12-.48-.2-.29-1.48-.17-1.2.6l-.35-.18c.44-1.97,2.45-.79,3.39.13Z"/><path class="cls-1" d="M49.89,17.35c.27-.22.82-.65,1.16-.46-.73.26-.93.93-1.56,1.26.18-.36-.14-.54-.19-.83-.07-.36.31-1.15.67-1.33-.15.53-.83,1.11-.3,1.68.08,0,.15-.26.22-.31Z"/><path class="cls-1" d="M42.18,20.07c.18.17-.01.22-.18.24-.56.07-1.54.13-1.62-.6.29.12.77-.02.99.02.04,0,.77.31.81.34Z"/><path class="cls-1" d="M42.18,20.67c.3.3-1.14,1.4-1.54.4-.14-.35.22-.45.28-.05l.3-.24.06.48.3-.12c.07-.16-.49-.11-.24-.36.03-.03.81-.15.84-.12Z"/><path class="cls-1" d="M46.74,19.23c.16,0,.33.02.48-.06.21-.11.15-.42.36-.42.09.22-.24.7-.23.78.02.15.39.1.35.3-.4.14-.43-.33-.56-.36-.12-.03-1.45.05-1.12-.36.02-.02.43.2.6.12l.12-.84v.84Z"/><path class="cls-1" d="M46.85,15.39c-.03.14-.63.41-.18.48.21.03.56-.35.78-.18l-1.44.78s.87-.85,0-.66c.42-.36.21-.65.84-.42Z"/><path class="cls-1" d="M42.3,18.63l.24-.48-.31.71-1.13-.65c.41-.62.95.62,1.2.42Z"/><path class="cls-1" d="M51.77,16.71c.08.09-1.07,1.95.84,1.32-.34.53-1.19.42-1.3-.21-.03-.17.18-1.4.46-1.11Z"/><path class="cls-1" d="M50.21,15.51c.23.07.28-.18.48-.24v.48s.6,0,.6,0c-.2-.09-.63.24-.66.24-.2-.02-.02-.64-.54-.12v-.6s.12.24.12.24Z"/><path class="cls-1" d="M211.3,30.8s.2-.06.23.07c.04.16-.07.5.01.59.05.05.52.09.71.47.08.15.04.43.06.44.03.04.49-.25.9.28.09.11.09.35.12.38.09.07.58-.07.88.19.19.16.21.48.23.5.05.04.19-.17.3-.2.93-.2,1.04.45,1.1.42.14-.06.34-.43.61-.51.33-.1.66.1.79.01.07-.04.09-.23.19-.29.2-.12.51-.11.7-.28.17-.14.18-.41.34-.56.12-.11.4-.14.43-.19.05-.08,0-.43.08-.65s.37-.36.38-.42c.04-.22-.06-.47.06-.71.08-.16.39-.22.45-.33.05-.09-.08-.31-.04-.48.05-.22.3-.37.31-.58.02-.54.02-.45.1-.93.02-.13-.24-.3-.21-.64.02-.23.19-.34.23-.46.02-.06-.2-.04-.23-.12-.1-.37.23-.6.21-.75-.02-.11-.23-.32-.27-.52s.07-.38.04-.49c-.03-.15-.27-.22-.31-.47-.05-.29.12-.6.09-.77,0-.04-.52-.69-.56-.72-.11-.07-.31.01-.4-.04-.11-.07-.03-.45-.24-.43-.15.84-.23,1.68-.34,2.52-.02.15-.08.36-.22.17,0-1.37.38-2.72.45-4.09s.08-3.26-.13-4.59c-.06-.36-.38-.79-.21-1.3.95.84.53-1.63,1.18-1.57.39.04-.31.96-.17,1.12.15-.09.86-.3.89-.34.09-.12-.53-1.12.11-1.74.18-.17.44-.14.46-.16.11-.12-.37-.55-.42-.75-.23-.85.53-1.07.53-1.21,0-.12-1.11-.81-.5-1.73.14-.21.41-.23.5-.45-1.02-.31-.51-1.09-.55-1.74-.01-.22-.24-.91-.46-.73-.02.02.11.31.12.5.02.54.09,1.33-.45,1.63.2-.83.4-1.39.17-2.25-.21-.81-.47-.61-.9-1-1.18-1.08-2.54-2.32-4.26-2.47-.52-.04-3.09.09-3.56.23-.1.03-.08.21-.15.22-.34.05-1.41-.23-1.86-.2-.5.03-1.47.49-1.82.87-.04-.54.93-.95,1.46-1.01.64-.07,1.35.11,1.91.09,1.85-.08,3.85-.88,5.65-.02.46.22.99.76,1.43,1.04.59.37,1.47.68,1.95,1.19.34.36.57,1.28.9,1.73,1.23-.36,2.41.2,1.97,1.6-.08.25-.35.36-.25.64.27.78.85.66,1.46,1.01,1.37.8,1.46,2.44,1.4,3.87-.02.35-.18.77-.2,1.12-.02.52.15,1.18.09,1.79-.05.45-.31,1.31-.58,1.67-.3.41-1.09.74-1.27.97-.34.45-.17,1.27-.79,1.79-.14.11-1.52.82-1.71.87-.09.02-.89.17-.93.14s.02-.25,0-.34c-.54.32-1.03-.09-.9.79.63-.7.93.08,1.09.11.21.05.46-.06.71.05.6.28.06.98.12,1.06.01.02.28.08.39.22.46.56.28.74,1.17,1.07s1.32.31,2.21.93c.4.28,1.5,1.15,1.38,1.65-.14.56-.46-.53-.51-.61-.87-1.42-2.91-1.57-4.2-2.36.02.39.44.39.46.84.01.33.02.63.04.94.04.69-.07.98-.13,1.54-.02.21.13.47.08.77-.04.24-.3.36-.31.45,0,.13.29.36.18.76-.09.31-.49.37-.53.43-.02.03.18.39.08.7-.08.24-.36.25-.41.33-.07.12,0,.35-.08.53-.11.25-.67.52-.7.59-.11.18.06.6-.08.88-.15.3-.66.24-.81.36-.1.08-.08.37-.32.52-.43.28-1.01-.03-1.05.01-.07.07-.09.7-.62.79-.43.07-.55-.21-.79-.23-.38-.04-.68.59-1.4-.05-.12-.11-.21-.37-.23-.38-.13-.07-.6.25-1.05-.12-.27-.22-.25-.65-.28-.68-.01-.01-.21.12-.36.09-.72-.11-.54-.64-.66-.75-.06-.05-.39-.02-.59-.14-.28-.17-.27-.59-.43-.75-.11-.11-.41-.13-.54-.3-.19-.26-.04-.54-.12-.78-.08-.27-.71-.23-.52-.89.03-.11.24-.26.2-.3-.04-.05-.51,0-.57-.4-.06-.36.24-.58.24-.77,0-.07-.24-.11-.33-.24-.37-.53.25-1.01.21-1.06-.01-.02-.22-.03-.34-.16-.47-.53.02-.7,0-.89-.02-.14-.38-.24-.33-.57.02-.15.2-.29.2-.35,0-.09-.39-.32-.41-.67-.02-.46-.06-1.36-.03-1.8.02-.33.42-.68-.17-1.05-.17-.11-.98-.22-1.22-.23-1.13-.06-3.32.38-4.43.72-.21.07-.31.32-.56.28l.44-.4c1.89-.32,3.96-1.3,5.83-.5.03-.33.11-.83.5-.9.09.14-.21.25-.26.42-.16.54.15,1.09.61,1.36.58.35.87.07,1.44.02,1.07-.1,1.56-.06,2.51-.74s1.55-1.81,1.46-2.96c.53-.03,0,.93.11,1.23.39-.12.37-.6.67-.78.04.74-.6.93-.96,1.34-.64.75-1.47,1.96-2.58,2.12-1,.14-1.55-.14-2.51.35-.41-.93-1.22-.29-.45.28-.81.56.45,1.08.45.34,0-.34-.4-.28-.45-.5.16,0,.31-.04.45-.11.29.66-.03,1.06,0,1.11.05.06.38.08.43.43.03.22-.15.33-.16.42,0,.11.07.23.06.28-.98-.53-.93,1.1-.22.73.3-.15.19-.49.22-.73.37.2.02.61.05.79s.28.38.29.62c.01.39-.3.19,0,.83-.13-.34-.8-.26-.79.4,0,.83,1,.13.79-.4.01.03.2.1.2.29,0,.22-.21.38-.18.53.02.12.31.3.38.51.21.61.22,1.37.72,1.8-1.56-.26-.61,1.76-.03.59.11-.21.18-.39.03-.59ZM218.7,17.17c.06,1.4-.04,2.81,0,4.21l.56-.78c.08.41-.24.7-.34,1.06l.34-.22.45-1.29-.11,1.46c.49-.42.59-1.28.56-1.91.52.44-.03,1.46-.11,2.02.25,0,.41-.52.46-.55.09-.06.28.22.55-.06.11-.12.33-.78.33-.9v-1.68c0-.05-.2-.28-.11-.39.03-.04.22.14.22.17v2.58s-.29.2.05.17c.27-.14.49-.34.62-.61.09-.17.41-1.17.44-1.36.16-1-.23-2.31-.44-3.3.29.14.32.61.39.9.18.73.3,1.5.28,2.24.44-.24.15-1.04.56-1.23l-.11.9c.14,0,.34-.44.34-.5v-1.85l.22.95v.84c1.1-1.25.41-3.04.39-4.49l.28.22c.2-1.76-.08-3.77-2.12-4.15-.12.44-.21,1.03-.79,1.01-.06.25.25.31.31.53.3.98-.52,1.15-.55,1.44s.26.45.32.69c.19.79-.37,1.22-1.1,1.27.44.77.09,2-.93,1.77-.44-.1-.57-.75-.98-.04-.27.47,0,.62,0,.9ZM218.47,16.11c.43-.02.6-.54.56-.9-.17.09-.69.75-.56.9ZM220.37,22.96s-.83-.23-.89.05c-.15.77,1.37.53.89-.05ZM220.23,23.86c-.39.1-.41.93-.14.98,1.05.02.73-1.12.14-.98ZM209.72,24.53s-.62-.25-.66-.22-.25.48-.22.59c.16.69,1.11-.03.88-.36ZM221.17,25.49c0-.28-.23-.51-.51-.51s-.51.23-.51.51.23.51.51.51.51-.23.51-.51ZM221.13,26.73c.59-.48-.79-.89-.84-.22-.04.51.61.41.84.22ZM209.98,26.76c0-.23-.19-.42-.42-.42s-.42.19-.42.42.19.42.42.42.42-.19.42-.42ZM221.15,27.87c.11-.07.17-.62.08-.78-.14-.23-1.37-.03-.91.69.09.13.72.16.83.09ZM221.16,28.11c-.86-.31-1.31.9-.49.89.54,0,.52-.46.49-.89ZM209.63,29.56c.25.43,1.48-.49.27-1-.09-.02-.41.76-.27,1ZM220.91,30.1c.26-.23.27-.8-.25-.87-1.18-.18-.44,1.47.25.87ZM210.74,29.9c-1.41-.24-.66,1.35-.1.63.14-.18.11-.42.1-.63ZM220.13,30.15c-.28-.12-.85.63-.37.98.43.31.89,0,.84-.5-.03-.28-.23-.21-.41-.33-.05-.03-.04-.15-.06-.16ZM220.26,31.47c-.29.13-.66-.24-.86-.15-.59.28-.23,1.15.22,1.03.19-.05.77-.77.64-.88ZM211.59,31.71c-.44.1-.43,1.52.39.84.5-.42-.13-.9-.39-.84ZM219.34,32.51c-.29-.28-.92-.06-.97.27-.01.09.44.68.51.71.41.13.74-.7.46-.97ZM213.17,33.01c0-.27-.22-.49-.49-.49s-.49.22-.49.49.22.49.49.49.49-.22.49-.49ZM214.25,33.74c0-.3-.24-.54-.54-.54s-.54.24-.54.54.24.54.54.54.54-.24.54-.54ZM218.34,33.17c-.7-.44-1.51.99-.49,1,.66,0,.87-.76.49-1ZM214.94,33.66c-.54.05-.74.91-.06,1.13.96.31,1.22-1.24.06-1.13ZM216.99,33.63c-.66-.38-1.42.81-.64,1.16.59.26,1.15-.86.64-1.16Z"/><path class="cls-1" d="M208.27,4.22c-.51-.15-1.08-.33-1.63-.23-.26.05-.22.27-.36.34-.18.08-.52.04-.73.14-.17.09-.68.69-.87.87.73-.27,1.46-.5,2.24-.22l-1.46.11c-.05.29.02.17.16.23.29.13.8.11.96.44-.53-.07-1.03-.46-1.57-.4-.85.09-.91.48-1.34,1.02-.18.23-.56.17-.43.64.04.16.25.27.27.47.08.77-.24,1.88-.18,2.81.18,2.59,2.66,4.07,2.7,6.73,0,.34-.21.61-.06.94.25.54,1.15.52,1.62.34v.67c.44-.23,1.15.19.9.67.76-.31.76.72.49.79-.66.19-.85-.23-.61-.79-.37.41-1.03.06-1.07-.44-.01-.2.36-.44.06-.63-.05-.03-.64.1-.93.04-1.11-.25-.67-1.43-.76-2.26-.25-2.21-2.3-3.47-2.63-5.78-.13-.92-.04-1.81.17-2.7-.03-.04-.61.34-.66.53-.05.21.44.69.29,1.19-.1.33-.65.29-.65.8,0,.38.35.4.35.73-.79-.5-1.21-1.27-.22-1.85-.54-.21-.37-1.01,0-1.35.22-.21.61-.22.73-.62.04-.14-.34-.37-.06-.82.1-.15.4-.2.53-.34.83-.89,1.46-1.99,2.73-2.37.67-.2,1.51-.31,2.01.28Z"/><path class="cls-1" d="M213.54,10.73c.45-.18.41-.82.25-1.21-.09-.22-.4-.32-.36-.59.55.34,1.06,1.35.46,1.86-.18.16-.44.14-.46.16-.11.12.68.89.17,1.57-.15.2-.46.26-.56.56-.56-.45-.02-.34.29-.61.66-.58-.33-1.87-.46-1.75l-.22.45c0-.26.07-.52-.11-.73-.28-.32-1.08-.21-1.35-.61l1.23.33c-.19-.39-.59-.54-1.01-.56.01-.24.52-.05.62,0,.54.23.72.91,1.28,1.13-.03-.46-.03-1.14-.41-1.44-.03-.03-1.01-.4-.55-.46.82.3,1.48.99,1.18,1.9Z"/><path class="cls-1" d="M215.11,14.21c-.06.09.8,1.56-.62,1.56-1.27,0-1.11-1.57-.2-1.66.35-.04.54.22.92-.2.15-.17.59-1.05.64-1.28.2-1.03-.76-1.48-1.64-1.13.74-.82,1.86.07,1.87.97,0,.27-.37,1.19-.54,1.42s-.41.29-.43.31ZM214.97,14.45c-.73-.63-1.56.53-1.06.95.65.55,1.67-.43,1.06-.95Z"/><path class="cls-1" d="M208.16,12.3l-.34.22.22.22-1.34.45c.14,1.16.85.56,1.01-.22.18,0,.23.4.23.51-.02.63-.91.54-1.18,1.06l.28-.56c-.51.07-.47-.5-.67-.62-.26-.16-1.01,0-1.35-.05-.41-.31.95-.2,1.04-.22.13-.03.12-.34.38-.43.46-.15,1.21-.15,1.71-.36ZM207.71,12.63c-1.23-.08-2.15.82-.31.19.12-.04.34-.02.31-.19Z"/><path class="cls-1" d="M215.44,11.96c-.33,0-.58.15-.78.39,1.05.11.6,1.27-.34,1.06-.06-.06.11-.83.1-.96,0-.08-.18-.03-.2-.06-.15-.22,1.04-1.04,1.22-.44ZM214.55,13.19c.17.2,1.17-.96-.11-.56l.11.56Z"/><path class="cls-1" d="M214.45,8.24s.16.02.2.1c.28.52.72,1.28.28,1.83-.1-.58,0-1.4-.56-1.8-.14-.1-.38-.09-.4-.11-.16-.15.53-.47.47-.7l.31-1.09c.22.34-.36,1.69-.32,1.78Z"/><path class="cls-1" d="M214.21,5.23l-1.12-.56c-.02-.24.54-.1.44-.38-.04-.12-.37-.53-.49-.63-.15-.14-1.14-.59-.96-.78,1.07.46,1.72,1.28,2.13,2.35Z"/><path class="cls-1" d="M214.77,5.23c.08-1.46-.87-1.72-1.89-2.32-.14-.08-.31.07-.24-.26.81.22,2.32,1.15,2.36,2.08,0,.2,0,.44-.23.5Z"/><path class="cls-1" d="M216.34,12.63c.69-.79.96-1.64.95-2.69.72.41-.57,3.06-.95,2.69Z"/><path class="cls-1" d="M207.37,11.29l-.05.22c-.97-.39-1.86.42-2.75.67.62-.82,1.84-.92,2.8-.9Z"/><path class="cls-1" d="M212.87,7.92c-.18.18-1.06-.99-1.14-1.15-.19-.37-.31-.78-.31-1.2l.35.94,1.11,1.42Z"/><path class="cls-1" d="M215.11,26.54c-.14.14-.81-.56-.93-.69-.09-.1-.33-.28-.19-.43.2-.2,1.32.91,1.12,1.12Z"/><path class="cls-1" d="M211.07,7.92c-.96-.4-1.62-1.39-1.9-2.35l.9,1.4,1.01.95Z"/><path class="cls-1" d="M215.56,11.29c.77-.52.53-1.22.5-2.02.46.55.42,2.11-.5,2.02Z"/><path class="cls-1" d="M218.36,11.18c-.18.38-.24.8-.45,1.17-.2.35-1.06,1.4-1.34.84.92-.07,1.25-1.05,1.54-1.77.07-.17-.07-.3.25-.25Z"/><path class="cls-1" d="M217.58,6.91c.04-.61-.05-1.23-.28-1.79-.06-.14-.24-.51-.39-.56,0,.31.18.52.23.84.02.12.08.71-.11.73-.13-.85-.13-1.61-.79-2.24.15-.14,1.04.86,1.14,1.04.25.43.72,1.64.2,1.98Z"/><path class="cls-1" d="M210.74,14.99c-.29-.2-.32-.65-.23-.95.31-1.1,1.22-.79,1.57-1.36.21-.33-.14-.8-.05-1.16,1.05,1.66-.79,1.5-1.16,2.09-.23.36.05.94-.12,1.39Z"/><path class="cls-1" d="M218.36,6.91c-.14.18-.2,0-.22-.17-.08-.61.06-1.23-.22-1.85.6.46.43,1.35.45,2.02Z"/><path class="cls-1" d="M205.58,8.48l-.33.39c.64.39,1.17.61,1.4,1.4.05.15-.09.34-.01.45s.32.04.29.22l-1.01-.11c-.03-.24.37-.04.44-.12.02-.02.07-.49.06-.57-.12-.84-1.62-1.11-1.62-1.27l.78-.39Z"/><path class="cls-1" d="M216.12,12.07c.32-.7.45-1.48.39-2.24.28.27.18.8.14,1.15-.01.1-.27,1.37-.53,1.09Z"/><path class="cls-1" d="M209.95,3.44c-.32,0-.53-.31-.85-.33s-1.03.17-1.34.33c-.27-.23.47-.41.68-.44.52-.06,1.17-.04,1.5.44Z"/><path class="cls-1" d="M210.06,8.37c-.24.21-1.47-1.52-1.34-1.9l.8,1.27.54.64Z"/><path class="cls-1" d="M218.05,13.07s.51.19.03.35c-.11.04,0-.23-.11-.23-.28,0-.64.74-1.07.67l1.18-1.12c.15.04-.09.26-.03.32Z"/><path class="cls-1" d="M212.08,7.59c.05.05.05.28-.16.22-.49-.14-1.22-.88-1.18-1.45.25.19.25.53.5.78.21.21.8.41.84.45Z"/><path class="cls-1" d="M216.01,5.79c-.02-.67-.39-1.27-.56-1.91.32.27.68,1.17.74,1.57.03.19.03.28-.18.34Z"/><path class="cls-1" d="M210.7,10.77c.1.1.14.26.26.35-.03.13-.15.05-.23,0-.31-.2-.95-.9-1.01-1.29.28.35.68.64.97.94Z"/><path class="cls-1" d="M208.05,17.68l-1.01.56c.03-.63.49-.6,1.01-.56Z"/><path class="cls-1" d="M218.92,7.14c-.04-.4.16-.78.12-1.18-.03-.29-.23-.36-.23-.61.49.2.49,1.48.11,1.79Z"/><path class="cls-1" d="M208.04,10.17c-.54-.34-.83-.83-.89-1.46l.89,1.46Z"/><path class="cls-1" d="M208.16,9.6c-.36-.37-.62-1.07-.78-1.57.2.12.37.5.47.71.13.27.29.56.31.86Z"/><path class="cls-1" d="M205.69,8.26c-.19-.12-.1-.44-.24-.71-.15-.3-.5-.36-.66-.63.6.07,1.09.76.9,1.34Z"/><polygon class="cls-1" points="220.94 20.59 220.7 19.42 220.94 18.91 220.94 20.59"/><path class="cls-1" d="M221.83,16.67c.07.69.32,1.31.22,2.02l-.45-1.96.22-.05Z"/><path class="cls-1" d="M100.39,11.63c-.24,0-.49.1-.57.34.45.07.9.34,1.32.46.32.09-.09-.4.23-.23.39.21.52.42,1.09.4-.2.23-.51.15-.77.26-.6.26-1.19.83-1.75.03.28-.03.54.08.81.06.13,0,.65-.11.68-.29-.41-.29-1,.07-1.3-.02-.25-.07-.31-.44-.48-.57-.16-.12-.42-.02-.41-.22.3.03.52-.04.69-.29.15-.26-.74-.24-.46-.52.04-.04,1,.49.92.57Z"/><path class="cls-1" d="M106.81,14.17s.17.4.13.45c-.98-.51-.63.06-.34.69-.18-.07-.59-.65-.8-.46-.04.04.12.27.09.39-.03.17-.38.27-.26.64-.24-.17-.17-.22-.11-.45.05-.17.2-.77.22-.82.1-.17.87-.57,1.08-.45Z"/><path class="cls-1" d="M98.54,16.69c-.27.2-.44-.29-.57-.4l.46.17-.11-.92c.17.03.31.54.32.66.01.1-.06.45-.1.48Z"/><path class="cls-1" d="M110.04,27.15c.71-.56-.08-1.42,1.03-1.38-.28-.55-.35-.9.34-1.09-.53-.6-1.02-1.09-1.4-1.82-.42-.81-.56-1.7-.87-2.46-.28-.67-.79-1.53-1.17-2.16.58-.28-.14-.72-.28-.98-.03-.06-.46-1.14-.47-1.2-.02-.08.11-.25.07-.29-.2-.17-1.3.87-1.55,1.04-.18.12-.47.09-.58.22-.46.58.02,2.31-.39,3.17-.24.5-.58.76-.82.11-.39-1.02,1.18-2.55,1.03-3.42-.02-.14-.2-.32-.2-.37,0-.09.41-.31.5-.29.22.05.07.57.35.46.63-.72,1.63-.77,1.68-1.89.07-1.49-1.22-.54-1.59-.78-.05-.03.03-.27-.2-.19-.2.09-.03.29-.13.35-1.85,1.24-.58-1.17-.91-1.85-.18-.38-2.5-1.27-3.04-1.26.44.53,1.23.76,1.76,1.17.11.08.36.23.02.21-.84-.39-1.84-1.16-2.7-1.44-.04-.01-.82-.16-.86-.16-.22,0-.46.17-.67.1-.19-.06-.13-.45-.36-.34-.33.92-.91,1.73-1.29,2.62-.17.4-.27.96-.44,1.4-.15.4-.62.91-.52,1.31.03.14.94.31,1.02.44.16.26-.13.98-.1,1.01.01.01.22,0,.33.07.24.16,1.21,1.14,1.5.85.06-.06-.11-.38.12-.34l.11.8c-.3-.41-.52-.46-1.03-.28-.89.31-.16.91-.81,1.32.02-.65-.45-1.31-1.15-1.27.05-.27.6-.06.73.01.35.2.32.62.64.79.02-.25-.18-.43-.21-.66-.03-.21.09-.4.07-.53-.03-.18-.37-.28-.43-.59s.19-.93.1-1.07c-.06-.09-.8-.25-.94-.35-.5-.36.24-1.12.4-1.54.2-.53.3-1.11.53-1.65.24-.58.92-1.56,1.04-2.07.02-.07-.44-.52-.46-.89-.02-.61.7-1.24.69-1.62,0-.28-.95-.97.35-1.2-1.06.71-.24,1.3.57.63-.64-.04-.36-.6-.2-1.01.21-.53.6-.9.8-1.38.27-.63.16-1.33.85-1.79,1.06-.71,3.42-1.07,4.66-.79,1.33.3,5.5,2.34,6.58,3.19s1.6,2.08,2.31,3.09c.15.22.42.26.56.47.82,1.15,1.71,2.19,1.43,3.72l-1.05,5.39c-.11.42-.57.23-.84.42-.2.14-.24.55-.39.76-.5.69-1.22,1.21-1.84,1.78.57-.17.52.19.77.32.09.05.64.33.68.34.28.07.61-.08.96.33.18.2-.02.38,0,.4.03.03.71.13.8.24.02.02-.11.17-.09.2.51.75,1.78,1.56,2.4,2.37.09.12.24.58.26.61.15.2,1,.63.42.77.05.11.28.13.36.26.08.13.19.7.33.89s.5.42.58.69c.02.07-.34,0-.23.23.08.17.5.25.69.29l-.34.11c.01.22.26.06.33.38.05.21-.09.84-.44.66.29.41-.12.33-.12.41-.02.34.5.57-.16.97-.47-.65-.94-1.38-1.49-1.96-1.57-1.66-3.11-2.53-4.88-3.86-.22-.16-1.26-1.22-1.39-1.08.14.47-.39.31-.53.57-.08.17.34.35.07.75-.23.36-.67.26-.7.28-.09.09.28.84-.03,1.12-.06.05-.17,0-.2.02.21-.1.2-1.01-.34-.8ZM105.9,3.13s-.87-.15-1.03-.23c.3.88-.2,1.04-.8,1.49.31.01,1.56-.19,1.7-.36.03-.04.17-.87.13-.9ZM105.04,4.43c-.08,0-.69.26-.74.38-.31.9,1.02,1.2,1.2.4.05-.23-.26-.77-.46-.78ZM111.99,6.57c-.11-.75-.63-1.12-1.39-.87-.35.11-.45.61-.91.29.21.67.07.35-.27.57-.17.12-.08.43-.65.12.08.44-.56,1.17-.58,1.45-.03.34.46.45,0,.85.23-.03,1.05.57,1.15.46.02-.03-.05-.24.02-.32.06-.07.29-.02.38-.14.09-.13.02-.4.16-.53.03-.03.3.06.51-.06.31-.18.45-.7.56-.77.13-.08.35.02.49-.14.36-.41-.14-.85-.06-.92h.57ZM101.83,5.82c-.43-.02-1.23.75-.63,1.05,1.05.51,1.49-1,.63-1.05ZM107.28,6.23c-.06-.24-.31-.24-.52-.24-1.04,0-3.63.89-4.65,1.33-.2.09-.49.17-.58.4,1.88-.78,3.75-1.14,5.74-1.49ZM111.87,7.27s-.16,0-.23,0c.22.41.07.29-.23.51,1.08,1.43,1.75,3.1,2.35,4.77l.97,1.84c-.31-1.91-1.49-3.56-2.23-5.29-.1-.22-.04-.48-.12-.69-.07-.16-.47-1.11-.52-1.15ZM108.29,12.3c.06-.08,0-.29.08-.43.16-.27,1.06-.5,1.26-.93.25-.55-.15-.65-.4-.97-.1-.14-.11-.33-.23-.46-.08-.08-.85-.46-.92-.4.6.65-.49.48-.64.68-.04.05.06.3.02.47-.03.13-.29.97-.32,1.01-.06.08-.33.08-.44.19-.23.23.03.78-.69.64-.07.2.2.29.19.4,0,.09-.21.21-.19.34.01.07,1.02.78,1.2.87.08-.02.5-.68.58-.81.07-.13.03-.35.09-.42.07-.1.35-.07.42-.16ZM114.17,14.74c.13-.13-1.39-2.46-1.72-2.18.53.58.87,1.32,1.35,1.92.11.14.13.31.37.26ZM113.48,18.19s-.53-.25-.56-.23c-.02.01-.03.19-.13.27-.76.64-1.18.88-2.09,1.23-.14.05-.48.6-.72-.01-.06,0-.08.47-.29.23-.07-.08.35-.39-.2-.43l-.72.14c.35.76.43.72,1.19.7.09,0,.51,0,.54,0,1.2-.17,1.07-.41,1.81-.98.31-.24.9-.5,1.1-.68.08-.08.13-.16.07-.24ZM111.64,24.97s-.43-.14-.46-.12l-.12.57c.29.12.76-.17.57-.46ZM111.19,26c-.3-.04-.51.04-.69.29.38.49.76.34.69-.29Z"/><path class="cls-1" d="M89.59,38.3h5.63c-.04-.56-.17-1.11-.23-1.67-.04-.37.08-.94-.02-1.24-.09-.28-.71-.24-.79-.71-.07-.44.23-.68.23-1.09l-3.12,4.35c-1.27.06-.83-1.12-1.01-1.86-.03-.11-.27-.04-.23-.13.49-1.12.71-3.38,1-4.74.04-.16.01-.58.03-.6.2-.25.23.44.46.23.04-.04-.23-.29-.2-.49.04-.32.72-1.16.92-1.49.69-1.15.97-1.45,1.84-2.38.25-.27.57-.55.67-.92l.34.23c-.17-.48.27-.47.33-.65.09-.24-.38-2.4-.48-2.83-.09-.41-.46-1.03-.43-1.41.05-.47.87-.57.92-.64.03-.04-.39-.8.33-.02l1.68,3.24.52.12c-.19.4-.62.05-.81-.17-.57-.71-1.26-3.94-2.53-2.53.27.12.94-.06.75.4l-.52-.23v.57c.5-.58.61.42.83.55.11.06.31-.02.41.04.11.07.48,1.18.59,1.4.01.02.51.31.17.31-.51,0-.64-.91-1.09-1.15-.36,1,.44,2.11.57,3.05.04.25-.11.21-.17.06-.4-.88-.57-2.23-.85-3.18l.27.18c.48,0-.29-1.18-.52-1.26.11,1.18.3,2.33.61,3.47.17.65.52,1.83.82,2.4.22.43.61.52.85,1.22.03.09.07.39-.09.2l-.23-.63-.23.23-.46-.92c.16.66.42,1.82.95,2.26.25.2.93.27,1,.44l-.23.17.69-.12-.34-.11c-.04-.17.14-.11.22-.18.44-.38-.33-.53-.48-.88-.12-.29-.09-.59-.08-.89l.29.92.51.23c.24-.59-.26-1.21-.31-1.57-.05-.38.03-1.93.14-2.33.16-.57.56-1.03.69-1.61.08.11.56.5.52.57,0,0-.1,0-.22.09-.07.06.06.3-.3-.09-1.11,1.43-.3,3.43-.4,5.11.09.53.53.25.91.41.21-.32-.05-.69.02-.95.04-.16.35-.32.45-.59.47-1.18.15-3.33.1-4.6-.03-.8.43-1.6-.57-1.79-.15.62-.31,1.18-.23,1.84-.2.03-.11-.26-.11-.4-.01-.29.05-.65,0-.92,0-.05-.32-.82-.35-.85-.08-.07-.54-.03-.63.1-.04.06.24,1.24-.74.58l.06.69c-.33-.58-.3-1.22-.57-1.84-.25-.59-.82-1.17-1.01-1.81-.56.04-.08-.35-.2-.83l.23.06c-.31.29.58,1.7.75,1.78l.17-.23c.16,1.73,1.48,1.01,2.41,1.33.12.04,2.05,1.17,2.18,1.27,1.41,1.13,1.46,3.81,2.42,5.28-.02.46-.41-.36-.34-.41-.93.13-.21.5-.49,1.06-.16.32-.42.3-.43.32-.04.05.57.41.2.89-.05.06-.17.01-.2.03.3-.13.05-1.01-.47-.64-.4.29.11.79.47.64-.1.05-.14.18-.34.12.26.32.46.51.32.96-.04.14-.19.17-.21.19.31-.4-.14-1.24-.57-.8.17-.18.33-.22.34-.23.04-.05-.34-.35-.32-.61.03-.35.49-.45.51-.58.07-.39-.39-.84.38-1.16-.11-.09-.18-.28-.35-.24-.27.06-1.66.73-1.83.93-.28.32.15.61.28.98.35.96.54,2,.81,2.98.12.26.41.24.63.12-.02.07-.15.2-.11.23.63-.07.6.24.81.61s.23-.19.34-.33c.3-.41.81-.31,1.1.06.25-.22.17-.58.47-.79.45-.3.59.12.73.05.28-.13.21-.8.52-.98.1.33-.51.82.12.92.71.12.72-.82.06-.87.74-.2.41-.69.8-.98-.04.02-.17.55-.07.69.13.19.55.19.76.11-.42.42-.54.05-.75.22-.17.13-.08.74-.31.9-.18.13-.73.02-.84.13-.35.32-.18,1.36-1.31.59l-.29.8c-.43,0,.05-.31.04-.5-.04-.61-.96-.49-.98-.14,0,.04.2.48.23.5.11.07.35-.07.32.14-.46.13-.57-.32-.92-.34-.04.25-.21.5-.46.46,1.16-1.54-1.7-1.19-.23-.06-.08.17-.44-.09-.46-.06-.06.08.11,1.5.11,1.72-1.59-.22-2.85.84-4.42.81-.88-.01-2.09-.67-2.81-1.16l.23,2.87h29.41v2.41h-35.15v-2.41ZM98.43,22.44c.06-.6.02-.78-.57-.92-.03.46.02.92.57.92ZM103.26,28.07c-1.03.32-.03,1.42.1.49.03-.18-.08-.32-.1-.49ZM101.19,31.63v-1.78s-.31-.68-.34-.7c-.14-.1-.33.22-.4-.16-.34.25-.17.64-.23.92-.13.67-.31.29-.78.36-.92.14-.69.3-1.87.21-.2-.02-.39.1-.56.09-.26-.02-1.2-.9-.76-1.23-.53-.06-.57,0-.79.42-.41.77-.39,1.89-.24,2.74.03.15.28.56.39.65.46.34.79-.24,1.14-.21.47.04.87.75,1.17.78.36.04.83-.5,1.29-.56.34-.04.85.18,1.04.07.07-.04.16-.4.29-.52.36-.32.76-.03.71-.84-.06.52.37.64.4.69.11.16-.7.61.12.57-.46.33-.61.8.11.69.12-1.11-.15-2.06-.46-3.1l-.23.92ZM105.4,32.56c-.28.09-.43.53-.04.71.84.39.82-.96.04-.71ZM101.31,33.59c-.35.03-.63.33-.98.34-.26,0-.45-.15-.77-.09-.45.08-1.01.56-1.64.54-.43-.01-.75-.5-.93-.54-.17-.03-.46.19-.69.2-.27.02-.51-.18-.73-.06.27.38.71.22,1.06.32,1.43.39,1.04.12,2.21.08.31,0,.59.16.92.13s.75-.39,1.09-.53c.31-.13.55.11.46-.4ZM95.45,34.62c.13-.14-.8-1.05-.92-.92-.25.29.69.88.92.92ZM101.65,34.39c-.08-.07-1,.2-1.03.46.41.02,1,.1,1.03-.46ZM99.7,35.19c-.33-.57-.87.01-1.23.09-1.01.22-1.58-.55-2.56-.55.95,1.07,2.55.88,3.79.46Z"/><path class="cls-1" d="M110.04,27.15c-.45.17-.11,1.02.34.8-.14.09-.4.16-.44.3-.09.26.09.67-.12.92-.16.19-.54.13-.65.27-.08.1.08.42.06.62-.04.74-.65.23-.87.53-.14.2.29.36-.16.81.12-.44-.19-1.11-.69-.8.2-.14.64-.2.68-.24.11-.17-.17-.41.24-.79-.46,1.33,1,.75.57.19-.17-.22-.31-.21-.57-.19.22-.2.56-.21.58-.23.05-.06-.2-.3.04-.67-.07.21.04.43.25.49s.43-.04.49-.25-.04-.43-.25-.49-.43.04-.49.25c0-.08-.06-.22.07-.3.14-.09.43-.04.53-.17.17-.22-.24-.63.17-.98.07-.06.2-.04.22-.06Z"/><path class="cls-1" d="M102.8,31.29c-.05.09-.21.26-.21.29,0,.07.77.71.1,1.09.34-1.07-.35-.75-.58-.92-.01,0,.1-.17.08-.26-.11-.48-.44-.47.04-1-.33.33.06.98.57.8Z"/><path class="cls-1" d="M68.83,35.66c0,.37-.35.5-.04.91.06.08.58.27-.11.41-.9.17-2.91,0-3.95,0-.58,0-1.14,0-1.71,0-1.06,0-2.13.01-3.2,0-.05-.05.34-1.11.4-1.27.27-.64.73-1.17,1-1.73,1.01-2.09,1.09-4.94,3.82-5.5,1.2-.25,1.62-.31,2.71-1.04.42-.28,1.95-1.74,2-2.16.03-.31-.3-1.02-.31-1.42,0-.36.19-.77.1-1.16h-.51s1.11-.3,1.11-.3c0,.18-.27.11-.38.23-.19.19-.15,1.32-.11,1.64.08.72.46,1.23.66,1.87.37,1.17.69,2.36,1.01,3.54.06.22.42.55.03.73-.32-1.07-.53-2.36-.91-3.4-.05-.13.07-.19-.2-.15-.08,1.72-.82,3.34-1.32,4.96.45-.19.78-.63,1.25-.83,1.21-.53,2.11-.16,3.31.12-.05-.96-.08-1.92-.1-2.89,0-.14-.09-.29-.09-.42,0-.2.09-.39.1-.6.01-.27-.2-.57.09-.66l.1,2.84c.99-.69,1.5-1.85,2.38-2.64.1-.09.27-.05.35-.17.09-.14,1.09-2.94,1.11-3.12,0-.05,0-.1,0-.15l-.4.15c.49-.39.63-.85.81-1.42.03-.11-.07-.18.15-.15.37.45.72,1,1.11,1.42.9.96,2.56,2.04,3.73,2.65,2.6,1.36,4.82.93,5.49,4.34.35,1.77.9,3.54,1.26,5.33.06.28.28,1.4.17,1.57-.18.11-.49.08-.7.08-4.92-.07-10.19-.6-15.09-.28-.32.02-1.26.46-1.26-.14,0-.19.39-1.25.48-1.54.81-2.49,1.8-4.92,2.63-7.4l-.2-.09c.3-.27.52-.67.61-1.06-.56.27-.57.95-.79,1.39s-.79.8-1.14,1.19c-.58.64-.85.94-.71,1.88-.31.09-1.2-.3-1.4-.19-.1.06-.75,1.31-1.01,1.47.42,1.33,1.19,2.68,1.09,4.09-.35.08-.17-.5-.21-.75-.16-.93-1.33-1.57-1.87-2.29-.07.19.29.58.4.71.46.49,1.22.84,1.27,1.62l-.54-.77c-.38-.27-.72-.61-1.03-.95-.2-.21-.07-.45-.4-.21-.98.7.45,1.23.81,1.83.04.07.03.16.05.2-.42-.44-.95-.82-1.42-1.22-.15.53.79.71.89.83.05.06.03.29.12.44.06.12.72.94.72.5-.22-.13-.22-.4-.3-.56.24.26.57.51.61.91-.81-.03-1.01.26-1.63-.35-.24-.24-.59-1.06-.91-.87,0-.16-.12-.39-.1-.4.03-.02.21.06.31-.06.12-.13.36-.83.52-1.08.2-.32,1.01-1.34,1.07-1.56.09-.32-.04-.52-.07-.8-.02-.2.21-.54-.18-.64-.15-.04-.73.33-.85.44-.73.7-.94,3.31-.91,4.31.16.02.06-.11.2-.2ZM72.07,30.9h-.61s.2.61.2.61l.4-.61ZM70.96,32.01c-.05-.05-.01-.42-.2-.4.18.22-.04.88,0,.91.22.2.94-.68.35-.91l.05.35c.01.09-.19.06-.2.05ZM71.46,33.94c.1-.23-.43-1.31-.56-1.32-.03,0-.26.22-.24.33.02.17.63.81.8.98ZM70.18,36.43c-.12-.14-.98-1.23-1.15-1.08.13.19,1.18,1.63,1.42,1.42.06-.24-.18-.23-.27-.34Z"/><path class="cls-1" d="M67.72,18.84c-.25.15-.49.19-.41.56l.31.05c-.26.46.02.35.1.48.23.37-.54.99-.66,1.44-.22.82.03,1.3.84,1.5l.84.12c-.41.2-1.64-.1-1.8-.48-.44-1.04.75-2.2.67-2.49-.04-.18-.37-.31-.44-.48s-.03-.37-.1-.5c-.04-.06-.87-.55-.95-.77-.15-.44.24-.49.29-.85-.28-.02-.5.16-.77.19-1.36.18-.79-.46-.75-1.26.03-.58.15-1.85.11-2.33-.03-.37-.38-.58-.51-.91-.18-.44-.26-1.24-.2-1.71.13-.89.5-.4.6-.46s.18-1.48.23-1.75c.26-1.37.74-2.63,1.85-3.53.1-.08.29-.07.33-.12.04-.05.03-.29.17-.49,1.4-2.08,4.69-3.2,7.09-2.72.99.2,2.11.9,2.94,1.51.37.27,2.09,1.87,2.27,2.19.19.35.32,1.3.39,1.74.22,1.27.36,2.59.33,3.87l-.2-.1c-.14.36-.04.82-.1,1.15-.02.07-.17.09-.23.2-.71,1.25-1.17,2.37-1.79,3.65-.03.06-.18.06-.2.14-.14.61.04,2.15,0,2.92-.04.84-.31,1.71-.21,2.58-.18.02-.1-.23-.1-.35-.06-1.47.28-2.94.21-4.46-.02-.37-.06-.95-.12-1.3-.25-1.56-1.34-2.83-1.51-4.42-.28.17-.17.67-.27.99-.22.71-.65,1.45-.86,2.18-.26.31-.6.43-1,.37.01-.18.31-.07.5-.15.15-.07.38-.39.46-.55.25-.48.87-2.1.87-2.59,0-.22-.1-.43-.11-.66-.79.03-1.5.42-2.12.86-.15.1-.17.31-.34.38-.63.29-1.22-.26-1.62-.22-.36.04-1.71.39-2.13.51-.24.07-1.68.58-1.74.68-.17.26.2,1.74-.84,1.25-.33-.16-.64-1.25-.71-1.62-.12-.59.23-.85-.68-.85-.62,0-.47.41-.3.41.09,0,.66-.52.86-.1-.56-.23-.89.72-1.01,1.17-.21.8-.09,1.4-.13,2.12-.03.5-.48,1.62.17,1.68s1.15-.41,2.11-.21c.07.01.07.15.09.17.05.03.17-.08.18-.07.02.02-.03.19.03.27.07.09.26.06.29.29.02.18-.12.44-.11.45.05.08.7.05.81.25-.48,0-.58.36-.86.66l.15-.51c-.07,0-.13,0-.2,0,.06-.04.1-.18.3-.1-.08-.34-1.21-.24-1.21-.05,0,.22.74.15.91.15ZM72.58,3.43c-.63-.12-1.04-.17-1.63.15-.14.08-.25,0-.2.25.37.2.58-.08.91-.16.28-.06.78.02.92-.25ZM73.19,4.04c-.47-.18-.96-.11-1.42.05.12.16.08.32.35.26l1.07-.31ZM69.42,5.18c-.16-.08-.35.19-.54.18-.26-.02-.57-.14-.97-.04-1.81.47-2.67,3.21-2.74,4.85-.03.79.04,1.86,1.02,1.98l.02-1.46c.4-.59.84-.01,1.16.02.19.02.38-.15.59-.16.2,0,1.26.13,1.27.34s-1.38.18-1.62.25l.17.51c.27.03,1.98.03,2.06.1.2.16-.07.18-.14.21-.09.05-1.39.58-1.17.8,1.09-.44,2.28-.61,3.44-.81-.18-.51-.04-1.15-.23-1.64-.18-.46-.95-1.1-.98-1.56-.04-.62.29-.6.4-.83.03-.07.27-1,.29-1.11.05-.35-.11-.61-.09-.77.02-.11.26,0,.21-.16-.54.02-1-.33-1.49-.48-.35-.11-.3-.02-.66-.2ZM75.01,5.86c-.57-.19-1.12-.24-1.72-.2l1.38.3.35-.09ZM77.34,7.89c.36-.34-1.85-.7-2.03-.71.07.14.47.31.61.35.46.14.97.14,1.42.35ZM74.4,8.09c.15-.14-.66-.86-.91-.71.07.18.77.84.91.71ZM77.85,8.8c-.04-.52-.82-.46-1.21-.51.02.15.33.25.45.3.12.05.69.26.76.2ZM78.23,9.44s-.95-.37-.99-.33c-.26.27.8.76.97.81.27.08.12-.39.02-.48ZM72.98,9.82s-.2-.04-.2.05c0,.22.26.26.29.42s-.24.38-.19.59c.1.38.7-.08.61-.49-.02-.07-.27-.16-.37-.26s-.13-.3-.14-.31ZM78.56,11.23c.16-.81-.51-.98-1.11-1.22-.2.2.91,1.13,1.11,1.22ZM67.51,14.68c.16-.51-.37-4.12-.76-4.15-.49-.04-.38,1.81-.34,2.16.03.31.34,1.51.5,1.73.15.2.4.15.6.26ZM65.11,12.73c-.16-.33.08-1.31-.49-1.69-.33.43-.21,1.03-.1,1.52.11.51.49,1.65.74.53.09-.41-.12-.3-.15-.36ZM67.72,14.17v-1.77s-.18-.52-.31-.4l.31,2.18ZM69.03,12.05c-.17-.05-.83-.18-.91-.1-.03.03.02.23-.02.33-.05.12-.47.23-.29.37.11.09,1.12-.39,1.22-.61Z"/><path class="cls-1" d="M75.42,11.74c.01.17-.21.08-.29.27-.22.53-.12,1.72-.73,2.01-.81.39.02-.82-.3-1.26.4.28.09.84.1,1.22.31-.2.51-.37.52-.76,0-.62-.32-.39-.61-.61-.34-.26.16-.29.37-.43.31-.2.51-.5.94-.42ZM75.01,12.05c-.64.23-1.17.55-.1.61l.1-.61Z"/><path class="cls-1" d="M67.72,16.91c-.76-.16-1.4-.04-2.13.2-.02-.44.34-.21.51-.26.5-.14,1.28-.56,1.61.06Z"/><path class="cls-1" d="M152.35,26.05c-.34.8-.75,1.57-1.05,2.39s-.45,1.78-.76,2.51c-.27.64-.81,1.32-1.13,2.02-.61,1.36-1.1,2.79-1.67,4.16-.44-.56.02-1.39.23-1.98.66-1.77,1.67-3.01,2.36-4.53.61-1.34.97-3.05,1.73-4.35.09-.15-.02-.29.29-.23Z"/><path class="cls-1" d="M145.49,29.46c.38-.36,1.31-.32,1.55.21.58,1.29-1.33,2.39-1.9,1.31-.22-.42.05-1.24.35-1.52ZM145.89,29.57c-.88.31-.02,1.77.8,1.04.6-.53-.03-1.31-.8-1.04Z"/><path class="cls-1" d="M155.97,31.88c-.19-.06-.22-.53-.27-.72-.14-.61-.22-1.22-.4-1.82-.16-.55-.47-1.13-.65-1.68-.27-.8-.29-1.73-.9-2.43.37-.28.85.98.94,1.22.63,1.68,1.05,3.65,1.28,5.43Z"/><path class="cls-1" d="M141.38,30.01l-2.27,2.57c-1.65,1.4-2.93,3.1-4.26,4.78,0-.24.17-.5.3-.69.92-1.4,2.21-2.49,3.32-3.68.82-.87,1.6-1.98,2.51-2.75.13-.11.19-.28.41-.23Z"/><path class="cls-1" d="M155.63,36.43c.28-1.36.2-2.76.36-4.13.01-.11.05-.44.22-.42,0,.96-.14,1.91-.23,2.87-.05.48.16,1.3-.35,1.68Z"/><path class="cls-1" d="M130.05,34.22c-.11.41-1.11.74-1.16,1.01.31.7,1.04,1.11,1.16,1.91l2.6-1.66,1.31-.67c.44,0-.28.38-.3.4-.51.31-1.13.55-1.61.84-.29.17-1.98,1.42-2.11,1.33-.2-.79-.94-1.27-1.17-1.98-.18-.05-.19.05-.29.12-.65.43-2.07,1.88-2.81,1.87-.54-.01,0-.87.06-1.23.23-1.4-.17-3,.95-4.07-1.63-.57-.56-2.09-.36-3.16.05-.27.2-1.09-.1-1.21-1.24,1.82-2.4,3.93-2.99,6.06-.11.41.04,1.04-.4,1.29.26-2.39,1.52-5.01,2.87-6.99.19-.28.62-.51.62-.88,0-.11-.11-.2-.11-.23v-2.33c0-.11-.23-.2-.39-.16-.58.15-.82,1.96-1.07,2.55-.71,1.62-2.57,2.88-3.67,4.26s-2.15,3.26-2.46,5.07c-.34.06-.24-.13-.2-.38.67-4.06,4.51-5.88,5.98-9.08.4-.88.65-3.28,1.93-2.45.03-.45.31-1.06.81-1.11.41-.04,1.09.57,1.88.24.06-.03.92-.71,1.01-.8.33-.32.57-.84.86-1.18.21-.24,1.47-1.55,1.5-1.66.05-.17-.12-1.43-.11-1.85.03-.72.22-1.67.44-2.36.06-.2.38-.66.36-.79s-.67-.4-.77-.72.13-.82.1-.85c-.09-.09-1.26-.07-1.05-.7h.7c.04-.23-.27-.06-.34-.13-.05-.05,0-.34-.01-.46.23-.06.3.23.5.21s1.33-.76,1.42-.92c.23-.41-.02-.7.76-.99-.55-.68-.4-.21-.78-.08-1.52.49-.12-1.32-.09-1.49.01-.07-.23-.81-.3-.94.65.08.57.7.64,1.17l.64-.52c-.69-.2-.21-1.06-.7-1.11-.12-.17.7-.29.86-.36.74-.33,1.3-1.04,2.05-1.21.29-.07,1.14-.02,1.26-.2.02-.03.22-.7.22-.74,0-.18-.25-.33-.29-.5-.09-.33.3-1.04.6-1.22.06-.04.51-.22.54-.2.16.12.11.55.74.44.46-.08,1.58-.84,2.21-1.06.58-.2,1.25-.4,1.86-.34.57-.61,4.35-.07,4.74.29.06.05.02.26.14.38.1.09.33.08.48.23.14.14.32.94.37,1.05.19.43.46.13.7.19.47.12.17.55.2.57.14.1.51-.34.73.15.39.84-.45.68-.99.52-.49-.14-1.41-.71-1.9-.74-.11,0-.23.15-.34.14-.65-.03-1.98-1.16-2.52-1.52-.32-.21-.98-.15-.93-.77l-.46.64c.2.43.55.14.68.19.02.01.03.17.11.21.58.34,1.13.69,1.61,1.17.22-.62,1.43.26,1.75.58-.05-.78.91.17,1.11.41.22.27.74,1.32.71,1.62,0,.07-.24.06-.23.11.03.66.67,1.92.78,2.72.06.44.02.88.03,1.31.64-.26.51-1.12.32-1.66-.07-.19-.27-.29-.33-.5-.18-.58-.61-3.2-.23-3.51.33-.26.6.29.64.29.05,0,.85-.14.89-.17.12-.09.04-.37.28-.29.37.12,1.93,2.14,2.52,2.42-.17.59-.22,1.37-.39,1.93-.44,1.48-1.98,2.32-1.96,4.12,0,.27.14.52.12.8-.03.43-.48,1.26-.9,1.44-.12.05-1.17.37-1.27.38-.29.02-.49-.1-.69-.1-.38,0-1.18.94-1.58,1.2-2.39,1.62-4.92,1.36-7.61,1.97-1.4.32-3.65,2.57-4.82,3.58-.56.48-1.39.85-1.69,1.63,1.79-.6,3.01.68,4.62,1.15.48-.55.22-1.37.29-2.02.14-1.33.34-2.71.93-3.91.23-.02.09.23.06.35-.2.75-.5,1.5-.65,2.27,0,.25,2.5-.49,2.71-.56.36-.12,1.24-.39,1.5-.51.56-.26,1.71-1.76,2.39-2.26,1.2-.88,1.13.25,1.76.92,1.08,1.14,2.33,1.82,3.49,2.82.38.33,1.23,1.41,1.58,1.57.31.14.69-.06.93.24-.22-.01-.78.07-.93,0-.36-.16-1.17-1.12-1.48-1.44l-2.72-1.89c-.01,1.08-.15,2.13-.12,3.21,0,.23.25,1.1-.05,1.1h-2.63c.05.32.46.66.7.88.77.68,2.27,1.47,2.88,2.19.08.1.26.44.22.55-.89.88-1.77,1.77-2.67,2.64-.62.6-1.27,1.25-1.94,1.85-1.28,1.15-2.62,2.22-4.03,3.21-.15.05-.23-.03-.17-.17.1-.24,1.27-.98,1.57-1.23,1.12-.92,2.26-1.89,3.33-2.85.98-.88,2.49-2.15,3.33-3.09.19-.21.41-.51.18-.77-.79-.57-1.53-1.19-2.29-1.8-.11-.09-.28-.11-.39-.2-.21-.17-.96-1.12-1.12-1.09-1,1.25-2.18,2.34-3.29,3.49-.07.08-.26.37-.4.24-.19-.18,3.34-3.41,3.5-3.79-1.32-.84-.98-2.65-1.63-3.91-.04-.03-.62.58-.7.68-.62.71-1.58,1.91-2.05,2.71-.13.22-.39.99-.44,1.03-.06.06-.27,0-.3.03-.04.04-.01.5-.07.7-.16.57-.4,1.24-1,1.39.1-.8-.46-1.04-1.04-.52-.83.73.21,1.25.96.96.19-.07.42-.71.43-.27-.28.25-.29.68-.46.94-.14.22-.47.4-.64.65-1.23,1.86-2.26,4.13-3.16,6.18-.08.19-.15.67-.18.7-.41.44-.07-.66-.02-.78.49-1.21,1.22-2.72,1.83-3.89.12-.24,1.07-1.67.99-1.75-.32.33-1.03.65-1.29.99-.51.69-.78,2.02-1.57,2.63-.2-.17.18-.3.16-.5-.04-.51-.45-.4-.8-.31l.18.93c-.86-1.36-1.37-2.87-1.46-4.49-.03-.56.2-2.33-.11-2.63s-.21.53-.24.63c-.18.71-.41,1.41-.55,2.14-.37,1.98.15,2.59-1.78,3.88.02-.06.04-.24-.06-.23-.48-.09-1.01.31-.99.82.04.05.92-.5,1.05-.58ZM133.67,23.3c.06.57-.04,1.23,0,1.81-.17-.01-.21-.52-.22-.66-.08-.75-.03-1.41-.28-2.17-.11-.34-.61-1.03-.65-1.35s.25-.34.22-.61c-.31.07-.3.22-.41-.12l-2.09,2.46-1.47,2.44c.73-.11,1.5-.85,2.22-.77.35.04,2.21.65,2.4.88.32.41-.37-.01-.4.29,0,.05.1.87.33.65.19-.18.41-1.49.76-1.75,1.82-1.32,4.4-4.41,6.57-4.87,1.53-.33,3.59-.33,5.05-.79.48-.15.84-.38.99-.88.14-.46.31-1.05.44-1.54.25-.92,0-1.6.12-2.51s.49-2.68.09-3.6c-.07-.16-.17-.35-.36-.4.09.6-.55,1.78-1.06,2.03-.32.15-1.87.64-2.23.7-1.02.17-.97-.77-.39-1.33l-.18,1.17c.24.23,2.42-.74,2.86-.81.73-1.02,1.59-2.21-.36-2.23-.58,0-1.28.05-1.86.13l-.64-.53c.09-.22.2-.43.31-.63.06-.11.44-.54.49-.61.03-.04-.12-.23-.05-.34.1-.13.4-.09.42-.11.21-.2-.23-.25-.23-.28.02-.46.34-.41.57-.6.12-.09.15-.33.32-.39.27-.09,1.23-.03,1.56.03.86.16,2.07.85,2.33,1.7.19.04.13-.3.12-.41-.04-.39-.09-.5-.42-.75l-.12.23c-.59-1.02-2.27-1.01-3.37-1.01-.39,0-.75.33-1.12.01-.07-.06-.17-.41-.24-.29-.02.04.03.19-.01.22-.25.22-.53-.93-.54-1.12-.02-.3.2-.56.2-.86l-.23-.11c.6.08.45-.95,1.05-1.23.11-.25-.27-.18-.41-.18-1.79.02-3.49,1.14-4.94,2.06-.56.64.21,1.2-.92,1.53-1.43.42-1.16.16-2.5,1.01-.52.33-1.13.28-1.15.97-.01.42.92.71,1.05.63.03-.02-.19-.43.44-.56.33-.07.58.31.9.32.28,0,1.45-.47,1.58-.34.04.3-.42,1.2-.69,1.23-.34.04-1.4-1.07-2.11-.65.19.25,1.08.27,1.27.48.07.08-.02.6.05.83.08.3.6.7.56,1.14.31.23.74-1,.88-1.16.56-.68,1.62-.26,1.34,0-.33-.03-.68.09-.89.35-.17.21-.04.33-.11.46-.42.84-1.04.8-1.61,1.05-.09.04-.11.31-.55.24.44-1.37-2.76-1.64-2.45-.65.11.36,1.01-.04.63,1-.29.8-1.93,1.1-2.02,1.36-.44,1.24,1.83,1.32,1.97,1.62.02.05.04.29-.06.29-.06-.3-1.16-.5-1.22-.46-.26.19-.68,2.32-.71,2.74-.14,2.16.96,3.64,1.17,5.6ZM153.4,7.37h-1.05s.12.82.12.82c.25-.02,0-.48.3-.58.28-.08.74.44.63-.24ZM137.87,8.07c-.45.02-1.43.07-.65.59.47.31.58-.16.65-.59ZM135.31,9.94c-.38.27-.72-.38-1.05.06.23.38,1.03.49,1.05-.06ZM148.85,13.44l-.61.73-.09,1.02.71-1.34v-.41ZM140.68,22.9c-.21-.2-1.15.18-.93.7.44.29,1.2-.45.93-.7ZM142.31,23.01c-.28-.15-1.22.47-1.05.7.54.33.66-.35,1.05-.7ZM128.18,23.71c-.38-.09-.98-.15-1.12.34-.32,1.12,1.14.37,1.12-.34ZM139.86,24.41c-.53-.27-.72.99.12.93l-.12-.93ZM141.14,24.41c-1.35.08-.94.29-.93,1.4l.93-1.4ZM131.69,24.65c-.45-.04-1.26-.42-1.04.28.16.49,1.15-.16,1.04-.28ZM136.59,25.46c-.27.1-1.08-.62-1.17-.17-.11.54.96.73,1.17.17ZM127.13,26.86c.74-.14,1.34-.54.94-1.35-.85-.16-1.3.59-.94,1.35ZM129.15,26.83c.67.64,1.51-.74,1.03-1.32-.67-.35-1.44.93-1.03,1.32ZM134.93,25.84c-.18-.18-.66-.14-.9-.14-.16.14.66.79.77.81.34.05.32-.47.13-.66ZM131.8,25.81c-.42-.37-1.1,1.08-.17,1.17.71.07.38-.53.22-.83-.05-.11-.04-.34-.06-.35ZM138.34,26.28c-.45-.14-2.02-.72-1.41.3.45.75.96.14,1.41-.3ZM139.98,25.93c-.59-.08-1.15,1.03-.52,1.17.37.08.3-.96.52-1.17ZM136.36,28.38c.13-.67-.3-.82-.82-1.05-.12.12.61,1,.82,1.05ZM135.13,27.45c-.35.07-.2.77.18.98.22.12.96.31.69-.11-.11-.16-.7-.91-.87-.88ZM128.17,27.7c-.55-.34-1.22.24-1.01.95.36,1.19,1.53-.63,1.01-.95ZM132.27,27.68c-.42-.13-1.07.13-.92.63.03.08.57.62.69.35.08-.19.12-.72.23-.97ZM130.02,28.05c-.61.09-.74,1.02-.26,1.38.65-.1,1.13-1.51.26-1.38ZM134.37,29.55c.28-.68.11-1.45-.7-1.52-.11.11.18,1.64.7,1.52ZM125.97,30.83c.79.04.63-.85.47-1.4-.15.02-.24.45-.29.59-.08.26-.12.54-.18.81ZM130.64,29.66c-.32.11-1.36.7-.88,1.06.62.46,1.06-.5.88-1.06ZM135.27,29.8c-.45.16-.56,1.2.44,1.16,1.25-.05.41-1.45-.44-1.16ZM137.99,30.13c-.51-.05-.78,0-.7.58.25.15.84-.46.7-.58ZM128.42,31.18c-.27.32-.73.59-.66,1.11.16,1.08,1.57-1.2.66-1.11.1-.12.56-.6.47-.7-.28.11-.44.54-.76.59s-.09-.63-.48-.7c-.42-.07-.85,1.09-.17,1.23.24.05.56-.38.94-.41ZM131.45,32.35l.12-1.63c-.81.29-.73,1.17-.12,1.63ZM133.87,31.21c-.11-.13-.68-.37-.78-.27-.11.59.22,1.06.23,1.63.59-.18.97-.84.55-1.37ZM129.9,33.13c.28-.23.44-1.4-.02-1.45-1.08.06-.87,2.18.02,1.45ZM136.01,32l-1.17.12c.02.37-.13.72.29.82.66.14.67-.41.87-.93ZM127.13,32.46c-.87-.18-.95.76-.93,1.4.56-.34,1.09-.65.93-1.4ZM127.26,35.02c1.01.27,1.51-1.54.42-1.37-.66.1-.65.87-.42,1.37ZM126.53,36.65c.09-.06.2-.66.08-.81-.78-.21-.63.24-.76.82.18-.03.55.06.68-.02Z"/><path class="cls-1" d="M142.02,4.39c.38.44.51.93.81,1.24.23.24.53.3.76.52l-.47.06.35.82c-.14-.04-.25-.19-.35-.29-.19-.23-.86-1.22-.97-1.31s-.42.1-.32-.38l-.7.29c.49.24,1.01.79,1.05,1.34-.55-.21-1.14.71-1.79.34-.57-.33-.16-.72-.25-.93s-.6-.24-.52-.58l.46.06.71-.53c-.23-.03-.65.08-.83-.05-.11-.08-.07-.33-.14-.39-.12-.11-.43.16-.32-.37.82.24,1.5-.91,2.23-.41.16.11,0,.29.06.41.03.06.17.1.23.16ZM141.6,5.75s-.82-.38-.96-.34c-.13.04-.22.19-.32.28.2.14,1.12.57,1.28.41.01-.01.01-.31,0-.34ZM141.61,6.44l-1.28.17c.26.47,1.04.19,1.28-.17Z"/><path class="cls-1" d="M146.27,9.6l.12.81c-.25-.05-.13-.47-.43-.57-.32-.1-.66.09-.97.1-.06.44.55.07.68.55s-.5,1-.68.85c-.25-.21.54-.34.47-.64-.02-.1-.52-.37-.58-.29.17.81-.46.65-.93,1.05-.17-.55.48-.33.65-.58s-.09-.81.17-1c.11-.09,1.42-.36,1.51-.28Z"/><path class="cls-1" d="M139.51,7.96c-.21.8.88.67.94,1.11s-.64,1.17-.59,1.69c-.28.04-.26-.02-.21-.27.06-.28.61-1.42.56-1.48-.01-.02-.27-.05-.39-.13-.25-.17-.96-.85-.31-.92Z"/><path class="cls-1" d="M137.29,12.63c.1.09-1.72,1.59-1.05,2.16.33.28,1.11-.02,1.29.52-.21.07-.28-.17-.43-.21-.62-.13-1.54.1-1.11-1.04.06-.16,1.11-1.62,1.31-1.43Z"/><path class="cls-1" d="M140.56,15.19l1.56-.6,1.24-1.15c.05.22-.12.28-.23.41-.64.75-1.52,1.47-2.57,1.34Z"/><path class="cls-1" d="M134.84,21.49l1.3-2.14.33-.31c-.25.55-.61,1.17-.96,1.67-.18.26-.41.61-.68.78Z"/><path class="cls-1" d="M136.94,18.34c.22-.67.72-1.34,1.28-1.75l-1.28,1.75Z"/><path class="cls-1" d="M138.69,6.32l-1.42.27c-.14.01-.76.34-.79.32-.2-.19.15-.25.23-.29.62-.28,1.32-.33,1.99-.29Z"/><path class="cls-1" d="M196.27,19.97c-.56-.14-.49-1.51-.45-1.97.06-.72.4-1.28.54-1.93.02-.11.2-1.23-.08-1.04-.16.42-1.09,1.87-1.58,1.3-.36-.43-.13-1.09.06-.74.07.12.12.67.33.67.19,0,1.53-1.78,1.6-2.1.08-.39.1-1.63-.52-1.25-.02.01-.24.46-.24.49,0,.1.3.12.34.24.2.75-.71,1.25-1.12,1.72-.05-.34.33-.9.29-1.18-.03-.18-.44-.32-.4-.54.05-.26,1.05-.91,1.34-1.03-.78-.56-1.51.53-2.35.39.13-.7.17-1.41-.33-1.97-.13-.14-.34-.21-.42-.31-.47-.56-.75-1.68-.87-2.38-.07-.41-1.35-1.75-1.75-1.91-.17-.07-.36.07-.58.03-.64-.1-2.33-.22-1.07-.9l2.43-.76c-1.08.04-2.26.48-3.22.98-.15.08-.2.26-.41.37-.78.38-1.28-.08-2.09,0l.17-.45c-.19.25-.56.48-.73.73-.35.51-1.24,3.5-.79,3.82.18.13,1.05.12,1.12.18.05.05-.02.29,0,.32.19.24.21-.39.45-.22,0,.41.55.8.62,1.11.05.23-.31.91-.37,1.22-.11.57-.5,2.77-.45,3.2,0,.08.26.67.31.7.14.09,1.38.28,1.71.42.13.05.86.66.87.72.06.33-.17.66.23.76.06.21-.17.21-.31.25-.37.1-1.15.03-1.32.14-.58.37-.08,1.03.35.69.14-.11.17-.41.38-.46-.01.44-.43.76-.85.78-.1,0-.89-.1-.93-.12-.05-.03-.4-.89-.02-.88-.11.69.83.95.54.3-.18-.41-1.3-.29-1.34-1.25-.02-.55.42-.81.46-1.12.03-.34-.27-.67-.32-1l.66-3.76-.67.17.34.11c-.45.71-.62.55-1.34.28-.39,1.42.03,2.55.21,3.89.15,1.09.19,3.12.7,4.01.07.13.28.14.32.26.18.61.04,1.65,1.01,1.71l.06-.34c.81.66,2.06.69,3.03.35.68-.24,2.75-1.44,3.19-1.97.54-.66.71-1.64,1.05-2.43.08-.18.16-.61.41-.54l-.76,2.32c-.59,1.35-3.19,2.84-4.58,3.05-.27.04-.55,0-.83.01-.11.12.37,1.39.51,1.57.1.14.29.17.36.26.26.33.33.87.97.83,1.05-.06,4.23-3.91,5.07-4.79l.05.17c-.61.58-1.07,1.36-1.62,1.97-.7.77-2.77,2.77-3.67,3.06-.13.04-.29-.04-.3-.03-.27.35.05,2.29.13,2.83.3,1.95.87,3.87,1.2,5.81-.27.05-.21-.03-.28-.22-.28-.85-.39-1.88-.62-2.76-.05-.19.11-.33-.23-.27.18.84.33,1.49.02,2.32-.25.67-.75,1.16-1.08,1.73-.19.32-1.19,2.23-1.3,2.3-1.02.64-1.2-1.89-1.24-2.37-.02-.24.13-.46.12-.67-.03-.55-.28-1.08-.22-1.67.05-.44,1.39-2.48,1.74-2.98.14-.19.34-.33.5-.51l-.33-.28c-.33.68-.74,1.42-1.14,2.05-.5.8-1.91,2.61-2.16,3.34-.19.57-.27,1.4-.4,2.01-.51.04-.88-.19-.9-.73-.06-1.63.74-3.11,1.29-4.55,1.05-2.76,2.1-5.52,3.2-8.26.03-.22-.03-.13-.14-.19-.51-.27-1.52-.13-1.85-.45-.13-.12-.89-1.93-.98-2.22-.35-1.15-1.02-4.98-.96-6.11.03-.48.35-1.54.29-1.92-.03-.2-.43-.38-.63-.39.03-.28.33-.1.34-.11.05-.09-.12-1.3-.11-1.63.04-1.72,1.11-5.02,2.15-6.38.44-.58,1.01-1.09,1.71-1.32.84-.28,3.24-.38,4.16-.34.48.03,2.31.22,2.66.37.08.03.14.07.19.14l-.45.39c.31.01.6.16.86.32,1.56.93,3.5,4.35,3.88,6.11.21.96.22,3.88-.27,4.74-.12.21-.36.26-.48.42-.44.54-.8,1.14-1.24,1.68-.33.4-.84.67-.84,1.4v2.19ZM192.34,3.69c-.66-.07-1.3.15-1.9.4-.13.05-.45.12-.45.28.66-.22,1.37-.29,2.04-.48.12-.03.34-.03.31-.19ZM184.38,11.88c.29.04.33-.31.62-.34.46-.05.77.32,1.06.4.58.17.16-.57-.21-.69-.47-.15-1.04.08-1.52-.27-.17,0,.01.77.06.9ZM196.04,13.79c-.69-.14-.32.27-.45.79.31-.16.51-.42.45-.79ZM187.93,18.54c-.47-.4-.81-.16-1.26-.14-.2,0-.45-.13-.55-.11-.16.03-.24.36-.18.44.03.04.84.24.95.24.39-.02.67-.37,1.18-.12.01-.01-.11-.26-.15-.3ZM185.61,33.1c.49-1.06,1.14-2.02,1.82-2.95.33-.98,1.69-2.61,1.87-3.53.15-.74-.93-1.86-1.1-2.61-.16-.03-.16.2-.19.31-.24.87-.23,1.77-.4,2.63-.27,1.3-.74,2.59-.98,3.9-.2.03-.1-.24-.08-.36.1-.73.49-1.63.53-2.28.02-.24-.03-.21-.17-.06l-1.26,4.02-.03.92Z"/><path class="cls-1" d="M193.23,37.81c-.11.08-1.29-.28-1.31-.38.35-1.19.44-2.44.72-3.64.86-3.72,2.25-7.33,3.24-11.02.21-.78.3-1.86.56-2.58.05-.13.12-.31.28-.34.42,2.21-.17,4.42-.68,6.56-.1.43-.34.88-.43,1.25-.81,3.38-1.52,6.78-2.38,10.14Z"/><path class="cls-1" d="M189.62,10.57c.5.23.94.23,1.52.44.43.16,1.39.75.41.6-1.04-.16-2.05-.31-3.09-.5-.55-.1-1.24.24-1.17-.68.53.18,1.96-.02,2.33.15Z"/><path class="cls-1" d="M192.23,12.22c.34.27-.74.34-.81.37-.93.3-1.71.84-2.55-.09.22-.05.37-.17.11-.34-.16-.1-.46.13-.56.06-.02-.02.14-.4,0-.56.5.24.9-.02,1.39,0,.67.04,1.33.59,1.84.65.2.02.56-.11.59-.09ZM190.99,12.33l-1.34.45c.45.09.72.06,1.13-.17.07-.04.43-.11.22-.28Z"/><path class="cls-1" d="M188.3,16.04c.18.2.02.95-.29,1.01-.18.03-.56-.49-.79-.53-.21-.04-.37.25-.6.2.06-1.23,1.02-.2,1.57,0,.03-.03-.28-1.1.11-.67Z"/><path class="cls-1" d="M192.57,18.62c.34-.91.51-1.89.84-2.8.08-.22.16-.58.39-.68-.45,1.12-.5,2.52-1.23,3.48Z"/><path class="cls-1" d="M250.61,7.43c-.15.28-.1.52-.2.97-.57,2.35-1.14,4.15-2.21,6.32-.21.42-.72,1.06-.84,1.43-.16.49-.11,1.9-.23,2.54-.24,1.33-.85,2.72-1.21,4.03.02.2.87.99,1.08,1.18,1.18,1.05,3.94,3.23,5.32,3.82.79.34,1.71.33,2.4.87.29.23.84.93.84,1.31,0,1.25-.68,2.84-1.01,4.03-.19.69-.56,2.92-1.02,3.29-.42.33-.85.05-1.29.04-1.35-.03-2.7-.09-4.01-.1-.5,0-1.19-.06-1.65,0-.22.03-.11.25-.2.21-.13-.06-.13-.18-.41-.21-.51-.06-2.27-.06-2.79,0-.21.02-.09.14-.2.22l-.05-.21c-.6.06-1.24-.06-1.82-.06-4.98-.06-10.16-.08-15.19.04-.34,0-1.92.14-2.04.13-.07,0-.05-.19-.13-.21-.19-.05-.45.02-.65,0,.14-.23.35-.13.54-.44.69-1.15.86-2.74,1.39-3.95.29-.66.72-1.12,1.02-1.85.54-1.29,1.08-3.02,1.36-4.31.2-.93.15-1.12.83-1.93.1-.12.46-.52.56-.57.5-.29,1.68,0,2.26.01,1.86.02,5.77.05,7.28-1.03.16-.12-.01-.4.48,0-.1-.62-.36-1.29-.37-1.92,0-.28.22-1.47.15-1.56-.03-.05-.99-.41-1.07-.42-.37-.05-.68.13-1.02,0-.64-.24-.62-.79-.54-1.37.05-.36.33-.79.36-.97.04-.25-.29-1.2-.29-1.42-.01-.53.76-.95-.61-.88,0-.08,0-.17,0-.26.01-.58.55-2.73.75-3.37.06-.2.28-.4.28-.54,0-.25-.81-.66-.81-1.44,0-.24.28-1.37.36-1.68.03-.1.08-.42.19-.42.21-.01.07.3.06.37-.09.71-.38,1.38-.32,2.1,1.27-.28,2.55-.04,3.8.21.17.13-.01.19-.15.21-.49.06-1.15-.21-1.64-.22-.55,0-1.2.22-1.8.11.06.22.65.55.61.76-.02.09-.23.21-.29.34-.33.71-.64,2.27-.81,3.09s.36.61,1,.64c.09.27-.15.16-.2.28-.03.07-.23.61-.21.64.02.03.55.38.59.39.39.16.86-.08,1.16.28-.33.32-.61-.13-.95-.04-.05.01-.58.41-.58.45,0,.03.28.24.21.62-.02.11-.25-.01-.32.12-.19.35-.29,1.68.26,1.78.33.06.74-.09.99-.05.2.04.67.39.93.5.3.13.66.1.91.32-.12.17-.47-.13-.57.05-.06.11-.16.9-.16,1.08,0,.9.4,1.72.51,2.58.12.94-.15,1.82.22,2.71.08.06,1.14-1.36,1.23-1.49.31-.46.58-1.16.89-1.58.06-.08.25-.32.35-.22.16.16-2.05,3.32-2.42,3.6l-.56-1.19-.16-1.89c-.16.1-.18.22-.25.36-.4.87-.65,1.83-1.13,2.67.03.32,1.18.07,1.39.1.11.02.22.17.36.21.82.22,1.56.52,2.36.77l.31-4.21c.24-.01.18-.03.2.15.06.42-.23,1.81-.1,2.01,0,0,.14-.09.21-.05.08.06.07.26.16.26.1,0,1.64-.81,1.85-.93.26-.15,1.41-.91,1.47-1.1.06-.22-.02-.47.03-.69.5-2.47,1.76-4.58,1.41-7.28-.08-.64-.93-3.55-1.26-3.98-.13-.17-.38-.38-.57-.51.35.77.71,1.14.29,1.99-.3.58-.53.42-.94.7-.26.17-.22.5-.72.5-.26,0-.62-.26-.22-.3.16-.02.42.05.55-.02.05-.03.09-.24.23-.34.33-.23.84-.31.98-.77.17-.55-.02-1.53-.57-1.81-.17-.08-.93.46-1.23.37.23-.28.69-.43,1.03-.51.04-.33-1.06.09-1.13.15-.13.11-.08.32-.16.45-.32.51-1.21,1.17-1.47,1.61-.3.52-.3,1.48-.83,1.89.39-.77.57-1.95.98-2.66.05-.08.15-.2.25-.21l.05.31c.07-.24.74-.76.77-.88.07-.32-.5-.26-.56-.35-.11-.19-.25-.85-.39-1.16-.07-.16-.27-.25-.29-.44-.04-.38.68-1.1.62-1.18-.23-.08-.5-.07-.72-.16-1.16-.43-2.13-1.05-3.25-1.58-.68-.32-1.99-.31-1.38-1.3.13-.2.57-.44.6-.48.06-.11-.02-.29.04-.37.07-.09,1.82-.81,2.09-.94.18-.09.41-.37.53-.4.16-.04.33.12.42.07.03-.01.3-.44.4-.5.4.2.94.06,1.29.13.25.05.42.23.57.27.5.11,1.4-.09,1.8-.07.13,0,.26.2.43.2.06,0,.01-.32.26-.21.09.71.84.43,1.13.57.31.16,1.52,1.15,1.86,1.44.08.07.21.27.31.1-.28-.46-.7-.82-1.14-1.12-3.09-2.12-7.62-2.02-10.33.69l-.96,1.92c-.14,0-.25.05-.19-.14.43-1.52,1.17-2.26,2.47-3.08,3.14-1.97,7.3-1.41,10,1.07.31.29.75,1.23,1.04,1.63.21.29,1.09,1.04.93,1.32ZM243.64,4.13c-.22.13-.87-.16-1.04-.15-.38.01-.71.29-.75.29-.12.02-.41-.16-.45-.11-.02.02.05.24-.06.32-.2.14-.92.31-1.17.2.06.17.19.33,0,.47-.38.24-.79-.33-.77.51,0,.16.28.84.25.87-.06.05-.43-.11-.41.1l1.03.21-.31-.51c.43.04.56-.08.51-.51l.41.1-.21-.41c.57.07.06-.17.36-.41l.57.3c-.22-.47-.02-.23.12-.32.09-.06.11-.18.16-.19.27-.07.7-.01.95.1.05-.06-.12-.38.15-.31.08.03.3.36.36.31.02-.02-.06-.28.15-.2.45.35,1.27,1.44.77.31.04-.04.8.1.93.15.33.13.54.54.71.61.1.04.24-.05.41,0,.6.21,1.39,1.42,1.85,1.86.14.13.39.14.47.25s.27.98.33,1.21c.03.1-.01.32.13.18.13-.2.32-.47.31-.71,0-.09-.46-1.66-.51-1.73-.07-.12-.29-.09-.42-.22-.42-.41-.57-.8-1.13-1.14-.94-.58-2.1-.88-3.21-1.31-.17-.07-.26-.25-.34-.28-.18-.07-.14.16-.18.18ZM237.46,25.71l.6-1.61c-.23.25-.5.46-.72.72-.67.77-1.33,1.66-2,2.42-.94,1.04-2.28,1.94-2.86,3.3-.46,1.07-.79,4.14-.78,5.33,0,.31.09.65.04.98l10.93.08c.24-.49.62-.9.87-1.38.66-1.25,1.88-3.55,2.14-4.85.24-1.15.14-2.22.33-3.37l-.2-2.81c-.1-.12-.55.41-.68.5-.49.31-1.13.52-1.64.82-.23.14-1.2.71-1.32.83-.28.29-.27,1.14-.35,1.55-.33-.14-.62.04-.95-.02-.47-.09-1.45-.78-2.12-.85-.6-.06-1.51.13-2.07.35.19-.48.29-1.28.5-1.71.09-.19.27-.24.28-.28ZM229.58,26.36c-.49.15-1.18.41-1.03,1.03l1.03-1.03ZM230.23,26.94c-.07-.05-.11-.27-.18-.27-.15,0-1.23,1.23-1.49,1.38-.29.54-.19,1.15-.21,1.74.49,0,1.81,1.02,2.11.99.24-.02,1.05-1.1,1.13-1.35.13-.42.23-1.5.06-1.9-.29-.73-1.1-.36-1.42-.59Z"/><path class="cls-1" d="M237.7,9.61l-.1.31h1.03c-.11-.23-.61-.18-.82-.21-.02-.18.35-.11.45-.09.37.06.76.28,1.14.4.5.16-.11.21-.23.28-.19.12-.33.31-.56.37-.09.02-.97,0-1-.04-.11-.11.11-.83-.83-.77.15-.23.34-.01.54-.07.14-.04.2-.24.39-.19ZM238.83,10.22c-.15-.34-.63-.17-.93-.2v.41s.93-.21.93-.21Z"/><path class="cls-1" d="M244.28,11.66c.13.22.61.35.61.66,0,.26-.38.7-.66.68-.56-.05.14-.65-.1-1.04-.13-.21-.75.32-.57-.05.05-.11,1.1-.67,1.18-.67.42.02-.25.5-.46.41Z"/><path class="cls-1" d="M238.01,14.85c-.23-.08-.19-.36-.35-.52-.15-.14-.72-.31-.93-.3-.22.01-.39.28-.57.15.19-.11,1.3-.78,1.38-.76.25.06.43,1.16.47,1.43Z"/><path class="cls-1" d="M243.04,17.93v-.51s-.67.41-.67.41c-.12-.31.57-.49.71-.83l.47-1.22c-.08.77-.17,1.46-.51,2.16Z"/><path class="cls-1" d="M240.47,18.24c.29.27-1.5.75-1.64.82.11-.22,1.58-.88,1.64-.82Z"/><polygon class="cls-1" points="244.07 22.15 242.73 22.81 242.12 22.97 243.46 22.3 244.07 22.15"/><path class="cls-1" d="M183.04,34.94c-.7-.74-1.44-1.62-2.21-2.27-.54-.47-1.24-.82-1.81-1.31-1.7-1.48-3.02-3.65-3-5.96.02-1.78.75-3.34.46-5.14-.09-.53-.54-2.3-.79-2.72-.45-.72-2.32-1.94-3.12-2.08-.87-.15-1.25.66-2.13.65.35,1.08-.47.36-.07-.27.09-.15,1.13.08,1.24-.51-1.43-.18-2.86.07-4.28.26.23-2.68,2.2-4.84,3.77-6.88-.29.13-.42-.24-.46-.24-.08,0-.23.15-.3.1-.05-.04-.05-.24-.14-.31-.08-.06-.28.04-.4,0-.55-.22-.88-.46-1.56-.32.28.44.83.58,1.21.93.1.09.38.2.15.37-1.54-.92-3.41-2.17-5.13-.97l.45.45c.25.09.19-.27.25-.26.16.03.36.24.65.24.5,0,.97-.44,1.54.04l1.26.88c-.9.16-1.76.9-2.73,1.04.71-.57.22-.22.09-.54-.1-.25-.04-.62-.2-.83-.07-.09-1.39-.5-1.44-.44.16,1.12-.57,1.36-1.09,1.96-.31.36-2.29,2.71-2.29,2.91,0,.38.97.56,1.05.8.21.65-.62.7-.65,1.33.53.29,1.2.37.98,1.04-.18.56-.81.77-.82.83-.01.07.13.51.11.79-.04.42-.35.76-.39,1.18-.1,1.04.77,1.51,1.68,1.68,1.15.21,1.86-.42,2.98.52,1.28,1.07.91,2.78,1.05,4.14.06.53.61,3.49.46,3.7-.09.13-.17.16-.33.13.14-.85-.17-1.61-.26-2.4-.15-1.41.04-4.73-1.25-5.5-1.11-.66-2.04-.16-3.12-.51-.99-.32-1.53-.92-1.33-2.03.06-.34.39-.58.38-1.05,0-.28-.12-1.14-.16-1.53-.03-.29-.37-.71-.34-.92.05-.27.75-.9.76-1.2,0-.46-1.31-.3-1.02-1.27.65-.64,1.15-1.49,1.73-2.17.31-.36,1.43-1.27,1.56-1.56.35-.78-.16-1.91.56-3.2,1.77-3.16,5.76-4.25,9.16-3.79,5,.67,9.53,4.79,8.9,10.17-.07.57-.48,1.39-.51,1.96-.02.33.1.13.26.06.14.6-.26.27-.4.47-.12.17-.19.7-.31.96-.8,1.63-2.01,2.96-3.38,4.15-.49.43-1.2.65-1.46,1.27-.19.46-.35,1.54-.4,2.06-.65,6.15,2.93,6.75,6.41,10.31.2.21.4.49.46.78h-.26ZM168.36,4.42v-.39s-.98.62-1.14.49c-.03-.03-.02-.25-.09-.23-.46.12-.78.72-.05.71.64-.01.96-.48,1.03.33l.32-.26c.12.58.57-.04.9,0,.07,0,.07.27.14.27.49.03.47-.07,1.16.06.11.02.43-.11.45-.07.03.06-.04.28.01.37.03.05.84.1,1.04.21.13.07-.03.32-.01.33.19.11,1.35-.49,1.56-.71.07-.35-.33-.11-.53-.25-.16-.11-.09-.43-.12-.46-.04-.05-1.08.33-1.3.26-.12-.14.38-.61-.71-.62-.43,0-.96.42-.84-.29-.42.02-.78.49-1.22.4-.1-.02,0-.4-.6-.14ZM175.77,6.5c-.51-.08-.93.21-1.39.37l-1.08.67c.79-.14,1.85-.52,2.47-1.04ZM176.42,7.67c-.18-.26-1.32-.02-1.5.26-.08.12.07.32-.04.46-.12.15-.42.11-.41.32.25-.08,1.04.05,1.04.33,0,.21-.55.09-.52.32.46.01.89-.3,1.3.07.32.28-.32.24-.26.45h1.3c.06.28-.27.46-.27.71,0,.06.18.07.21.12.08.13.1.35.18.42.09.08.46-.14.53-.08.15.16-.56,1.27,1.17,1.1.27.14-.21.35-.13.65s.77.01.89.21c.22.36-.42.8.66.89-.09-.36-.08-.85-.19-1.17s-.51-.51-.57-.74c-.04-.14.1-.36.05-.43-.13-.18-.49-.06-.57-.15s.13-.49-.41-.37c.36-.76-.97-.51-.52-1.17-.65.14-.27-.35-.41-.5-.05-.06-.85-.4-1.02-.28-.1-.45.47-.25.52-.52-.26-.01-.8.1-.88-.21-.05-.2.37-.37-.29-.31-.05-.04.15-.36.13-.39ZM167.84,9.49l-1.43-.26c.16.38.06.65,0,1.04.46-.22,1.12-.34,1.43-.78Z"/><path class="cls-1" d="M156.94,34.94c.4-2.51.71-5.42,2.66-7.27.43-.4,2.5-1.69,2.99-1.69h3.38s.51.12.45.26c-2.05.31-3.22-.5-5.18.6-2.98,1.67-3.56,4.99-4.04,8.11h-.26Z"/><path class="cls-1" d="M158.36,34.94h-.26c.14-.61.74-1.12,1.17-1.56l-.91,1.56Z"/><path class="cls-1" d="M172,19.36c-.22-.12-.13-.6-.22-.88-.19-.63-.57-1.23-1.29-1.32-.98-.12-1.73.54-1.86,1.5-.07.5.29,1.31.64,1.65.21.2.6.08.66.35-1.21-.04-1.79-1.48-1.32-2.56.97-2.22,3.78-.96,3.4,1.26Z"/></g><g id="Layer_2"><path class="cls-6" d="M33.46,65.13l.28,9.21c0,.08-.02.15-.07.2l-9.51,9.52c-.16.16-.38-.1-.27-.32l9.23-18.74c.1-.2.33-.11.34.12Z"/><path class="cls-6" d="M32.98,64.15l-17.71-8.65c-.19-.09-.14-.47.07-.47l14.21.24c.07,0,.13.05.16.13l3.5,8.41c.08.2-.07.42-.23.34Z"/><path class="cls-2" d="M32.96,64.56l-5.84,2.32c-.06.02-.11.09-.12.17l-3.37,16.38c-.05.27.22.43.33.19l9.21-18.69c.09-.19-.04-.43-.21-.36Z"/><path class="cls-2" d="M32.93,64.12l-17.34-8.48c-.2-.1-.35.26-.17.42l11.54,10.78s.11.06.16.03l5.81-2.3c.17-.07.18-.38.01-.46Z"/><path class="cls-2" d="M33.45,63.46l.27-22.72c0-.28-.29-.34-.36-.08l-3.69,14.52c-.02.06-.01.13.01.19l3.42,8.2c.09.22.34.14.35-.11Z"/><path class="cls-1" d="M31.84,49.68l.59,24.73-8.23,8.52,3.64-15.42.18-.75-.54-.54-10.19-10.19h12.03c.74,0,1.36-.52,1.53-1.29l.99-5.06M32.91,37.01l-3.42,17.47c-.02.1-.09.18-.18.18h-15.36l12.54,12.55-4.79,20.3,12.12-12.55-.91-37.95h0Z"/><path class="cls-4" d="M15.44,55.27l17.53,8.53c.16.08.31-.15.22-.35l-3.54-8.18"/><path class="cls-4" d="M26.43,67.17l6.51-2.92c.16-.07.31.17.21.36l-9.84,20.3"/><rect class="cls-3" x="33.13" y="37.51" width="219.04" height="37.59"/><rect class="cls-3" x="35.71" y="39.74" width="213.88" height="33.13"/><line class="cls-5" x1="48.75" y1="51.59" x2="43.47" y2="39.74"/><line class="cls-5" x1="48.75" y1="51.59" x2="40.14" y2="39.74"/><line class="cls-5" x1="48.75" y1="51.59" x2="35.71" y2="39.85"/><line class="cls-5" x1="48.75" y1="51.59" x2="35.71" y2="44.07"/><line class="cls-5" x1="48.75" y1="51.59" x2="35.71" y2="47.36"/><line class="cls-5" x1="48.75" y1="61.28" x2="43.59" y2="72.87"/><line class="cls-5" x1="48.75" y1="61.28" x2="40.33" y2="72.87"/><line class="cls-5" x1="48.75" y1="61.28" x2="35.88" y2="72.87"/><line class="cls-5" x1="48.75" y1="61.28" x2="35.71" y2="68.81"/><line class="cls-5" x1="48.75" y1="61.28" x2="35.71" y2="65.52"/><line class="cls-5" x1="242.23" y1="39.74" x2="236.95" y2="51.59"/><line class="cls-5" x1="245.56" y1="39.74" x2="236.95" y2="51.59"/><line class="cls-5" x1="249.59" y1="40.21" x2="236.95" y2="51.59"/><line class="cls-5" x1="249.59" y1="44.3" x2="236.95" y2="51.59"/><line class="cls-5" x1="249.59" y1="47.49" x2="236.95" y2="51.59"/><line class="cls-5" x1="242.11" y1="72.87" x2="236.95" y2="61.28"/><line class="cls-5" x1="245.37" y1="72.87" x2="236.95" y2="61.28"/><line class="cls-5" x1="249.59" y1="72.66" x2="236.95" y2="61.28"/><line class="cls-5" x1="249.59" y1="68.58" x2="236.95" y2="61.28"/><line class="cls-5" x1="249.59" y1="65.39" x2="236.95" y2="61.28"/><rect class="cls-3" x="35.71" y="39.7" width="213.88" height="33.21" rx="16.58" ry="16.58"/></g></svg>