<?xml version="1.0" encoding="UTF-8"?>
<svg xmlns="http://www.w3.org/2000/svg" version="1.1" viewBox="0 0 205 51">
  <!-- Generator: Adobe Illustrator 29.0.1, SVG Export Plug-In . SVG Version: 2.1.0 Build 192)  -->
  <defs>
    <style>
      .st0, .st1, .st2, .st3 {
        stroke: #231f20;
        stroke-miterlimit: 10;
      }

      .st0, .st1, .st3 {
        fill: #fff;
      }

      .st4 {
        fill: #231f20;
      }

      .st1, .st2 {
        stroke-width: .5px;
      }

      .st2 {
        fill: none;
      }

      .st5 {
        fill: #333;
        opacity: .5;
      }

      .st3 {
        stroke-width: .2px;
      }

      .st6 {
        display: none;
      }
    </style>
  </defs>
  <g id="Layer_1" class="st6">
    <path class="st5" d="M195.5,43.4h-7.8c4.7-2,11.5-5.6,14.8-10.5v2.7c-2.8,2.1-5.2,4.8-7,7.8ZM51,40.8h139c-1.9,1-3.9,1.8-5.9,2.6H51v-2.6ZM40.1,47.8c-1.1-1.2-2.5-2.2-4-2.9-1.5-.7-3.1-1-4.8-1h-11.6c-1.7,0-3.3.3-4.8,1-1.5.7-2.9,1.7-4,2.9h-2.1s-5.7,0-5.7-7.7V10.9c0-7.6,5.7-7.7,5.7-7.7h2.1c1.1,1.2,2.5,2.2,4,2.9,1.5.7,3.1,1,4.8,1h11.6c1.7,0,3.3-.3,4.8-1,1.5-.7,2.9-1.7,4-2.9h2.1s5.7,0,5.7,7.7v29.3c0,7.6-5.7,7.7-5.7,7.7h-2.1ZM26.7,48.7c-.1-.2-.3-.4-.5-.5-.2-.1-.4-.2-.7-.2-.2,0-.5,0-.7.2-.2.1-.4.3-.5.5-2.3-.1-4.5-.6-6.7-1.3.7-.2,1.3-.2,2-.2h11.6c.7,0,1.4,0,2,.3-2.1.8-4.4,1.2-6.7,1.3h0ZM24.4,2.3c.1.2.3.4.5.5s.4.2.7.2c.2,0,.5,0,.7-.2.2-.1.4-.3.5-.5,2.3,0,4.5.5,6.7,1.3-.7.2-1.3.3-2,.3h-11.6c-.7,0-1.4,0-2-.3,2.1-.8,4.4-1.2,6.7-1.3h0ZM184.1,7.6c2,.8,4,1.6,5.9,2.6H51v-2.5h133ZM202.5,15.4v2.7c-3.3-4.9-10.1-8.4-14.8-10.5h7.8c1.8,3,4.2,5.7,7,7.8h0ZM51,11.6h2.3v27.9h-2.3V11.6ZM192.6,39.4H54.6V11.6h137.9c4.2,2.4,8.4,5.6,9.9,9.5v9c-1.5,3.9-5.7,7.1-9.9,9.5ZM205,13.9l-.7-.3c-2.6-1.3-5.9-6.1-7-7.8l-.4-.6H51V0h-12.5l-.5.6c-.8,1-1.8,1.8-2.9,2.4-2.7-1.1-5.5-1.8-8.4-2-.1-.2-.3-.4-.5-.6-.2-.1-.5-.2-.8-.2s-.5,0-.8.2c-.2.1-.4.4-.5.6-2.9.1-5.8.8-8.4,2-1.1-.6-2.1-1.4-2.9-2.4l-.5-.6H0v51h12.5l.5-.6c.8-1,1.8-1.8,2.9-2.4,2.7,1.2,5.5,1.8,8.4,2,.1.2.3.4.5.6.2.1.5.2.7.2s.5,0,.7-.2c.2-.1.4-.3.5-.6,2.9-.2,5.8-.8,8.4-2,1.1.6,2.1,1.4,2.9,2.4l.5.6h12.5v-5.1h145.9l.4-.6c1-1.8,4.3-6.6,7-7.8l.7-.3V13.9Z"/>
  </g>
  <g id="Layer_2">
    <g>
      <path class="st0" d="M200.7,45.4H43.5l-3.8-3.6V8.8c1.5-1.4,2.3-2.2,3.8-3.6h157.2c1.5,1.4,2.3,2.2,3.8,4.5v33c-1.5.5-2.3,1.3-3.8,2.7Z"/>
      <path class="st1" d="M47.9,6.5h147.9c0,3,2.6,5.5,5.7,5.5v24.3c-3.2,0-5.7,2.4-5.7,5.5H47.9"/>
      <ellipse class="st4" cx="199.7" cy="9.1" rx="1.3" ry="1.2"/>
      <ellipse class="st4" cx="199.7" cy="40.8" rx="1.3" ry="1.2"/>
    </g>
    <g>
      <path class="st0" d="M48.4,50.7H3.6c0-1.7-1.3-3-3-3V3.3c1.7,0,3-1.3,3-3h44.8c0,1.7,1.3,3,3,3v44.4c-1.7,0-3,1.3-3,3Z"/>
      <rect class="st2" x="8.6" y="7.9" width="34.8" height="35.1" transform="translate(25.6 -10.9) rotate(45)"/>
      <rect class="st1" x="3.1" y="2.8" width="45.7" height="45.4"/>
      <g>
        <line class="st3" x1="25.9" y1="50.2" x2="26" y2="25.5"/>
        <line class="st3" x1="27.4" y1="48.2" x2="26" y2="25.3"/>
        <line class="st3" x1="47.3" y1="48.2" x2="26" y2="25.5"/>
        <line class="st3" x1="48.6" y1="46.8" x2="26" y2="25.5"/>
        <line class="st3" x1="48.9" y1="26.8" x2="26" y2="25.3"/>
        <line class="st3" x1="50.7" y1="25.4" x2="26" y2="25.5"/>
        <line class="st3" x1="48.9" y1="23.9" x2="26" y2="25.3"/>
        <line class="st3" x1="48.6" y1="4.2" x2="26" y2="25.5"/>
        <line class="st3" x1="47.3" y1="2.8" x2="26" y2="25.5"/>
        <line class="st3" x1="27.6" y1="2.8" x2="26" y2="25.5"/>
        <line class="st3" x1="26" y1="25.5" x2="26.1" y2=".8"/>
        <line class="st3" x1="26" y1="25.5" x2="24.4" y2="2.8"/>
        <line class="st3" x1="26" y1="25.5" x2="4.7" y2="2.8"/>
        <line class="st3" x1="26" y1="25.5" x2="3.3" y2="4.2"/>
        <line class="st3" x1="26" y1="25.3" x2="3.1" y2="23.9"/>
        <line class="st3" x1="26" y1="25.5" x2="1.3" y2="25.6"/>
        <line class="st3" x1="26" y1="25.3" x2="3.1" y2="26.8"/>
        <path class="st3" d="M26,25.5"/>
        <path class="st3" d="M26,25.5"/>
        <path class="st3" d="M26,25.5"/>
        <path class="st3" d="M26,25.5"/>
        <path class="st3" d="M26,25.5"/>
        <path class="st3" d="M26,25.5"/>
        <path class="st3" d="M26,25.5"/>
        <path class="st3" d="M26,25.5"/>
        <path class="st3" d="M26,25.5"/>
        <line class="st3" x1="26" y1="25.5" x2="3.3" y2="46.8"/>
        <line class="st3" x1="26" y1="25.5" x2="4.7" y2="48.2"/>
        <line class="st3" x1="26" y1="25.3" x2="24.6" y2="48.2"/>
      </g>
      <path class="st1" d="M44.6,47.2H7.4l-3.2-3.2V7.1l3.2-3.2h37.2l3.2,3.2v36.9l-3.2,3.2Z"/>
    </g>
    <ellipse class="st0" cx="47.3" cy="46.8" rx=".4" ry=".4"/>
    <ellipse class="st0" cx="4.7" cy="46.8" rx=".4" ry=".4"/>
    <ellipse class="st0" cx="4.7" cy="4.2" rx=".4" ry=".4"/>
    <ellipse class="st0" cx="47.3" cy="4.2" rx=".4" ry=".4"/>
  </g>
</svg>