<?xml version="1.0" encoding="UTF-8"?><svg id="Layer_1" xmlns="http://www.w3.org/2000/svg" viewBox="0 0 227.27 56"><defs><style>.cls-1,.cls-2{fill:none;stroke:#000;stroke-miterlimit:10;}.cls-3{fill:#fff;}.cls-2{stroke-width:.25px;}.cls-4{fill:#dcddde;}</style></defs><path class="cls-4" d="M214.4,30.74c.38-.83.72-1.69,1.03-2.55.16-.48.32-.96.46-1.44,1.9,3.12,2.64,6.92,2.02,10.52-.11.62-.26,1.25-.58,1.79s-.84,1-1.46,1.11c-.59.1-1.39-.93-1.57-.8-.04.49-.07.96-.11,1.45-.02.19-.03.39-.11.57-.09.2-.26.37-.41.53-.04.04-.07.08-.1.12-.77.86-1.27,1.93-2.04,2.77-.06.06-.15.13-.21.07-.03-.03-.03-.08-.03-.12-.03-1.41-.06-2.81-.08-4.22h0v-.04c-.07.02-.08.04-.12.1-.81,1.33-1.33,2.86-2.4,4-.02.02-.08.05-.11.03l-.06.08c-.64-.54-1.34-1.02-2.05-1.46,0,0,0-.01-.01-.01-.22-.14-.44-.27-.66-.4-1.68-.99-3.47-1.88-5.32-2.5-1.36-.45-2.74-.76-4.14-.86-.18-.02-.36-.03-.53-.03v-.02c-.35-.06-1.04-.31-1.24-.43-1.22-.73-1.31-2.17-.94-3.46.01-.05.03-.09.04-.14.53-1.76,2.5-2.62,4.04-3.63,1.02-.67,2.06-1.33,3.11-1.97.7-.44,1.41-.87,2.11-1.3l.06-.08c.16.15.34.24.55.22.25-.02,1.69-.13,1.79-.5h2.68v-1.05h.91v1.05h.84v.31h.37v.45h1.17v-.76h.93v.49c.69.18,1.23.74,1.66,1.31.2.25.38.51.51.8Z"/><path class="cls-3" d="M215.43,28.19c-.31.86-.65,1.72-1.03,2.55-.13-.29-.31-.55-.51-.8-.43-.57-.97-1.13-1.66-1.31v-.49h1.1v-1.05h-1.06v-1.06h1.06v-1.13h-1.06v-1.07h1.06v-.94h-2.03v-.96c-.14-.12-.25-.27-.35-.43-.15-.25-.26-.52-.35-.8-.04-.15-.08-.29-.12-.43-.25.01-.48.03-.72.05-.04,0-.08,0-.12.01-.04,0-.09-.01-.13-.01-.17,0-.44-.07-.59,0h0s-.03-.07-.04-.11c-.02-.21-.04-.43-.03-.64,0-.05,0-.09.02-.13,0,0,.02-.02.02-.02.08-.04.17-.06.26-.08h.04c.19-.01.39-.02.58-.04h0c.44-.02.88-.04,1.33-.07.06-.17-.11-.41-.29-.48-.17-.06-.37-.04-.55-.01-.17.01-.33.03-.49.04s-.31.01-.46.01h-.09c-.07-.01-.14-.01-.21,0-.12,0-.24,0-.35-.01-.09-.01-.19-.02-.26-.07-.04-.04-.08-.1-.11-.16-.01.02-.01.03-.01.05-.02-.04-.04-.09-.05-.13-.08-.25-.1-.51-.08-.76.53-.13,1.07-.16,1.62-.16.52-.01,1.03,0,1.54-.02.07-.01.14-.01.2-.02-.06-.04-.13-.08-.2-.11-.47-.24-1.01-.35-1.54-.32h-.02s-.03-.01-.04-.01c-.28-.01-.55.04-.82.12-.14.05-.28.1-.42.11-.1,0-.23-.02-.33-.09-.03-.01-.04-.04-.05-.06-.02-.06-.01-.13,0-.2.03-.23.07-.45.1-.68.2,0,.4,0,.61,0,.01,0,.02,0,.02,0,.02,0,.03,0,.04-.02.3,0,.6,0,.91.01.52,0,1.03.03,1.54.08.28.02.55.04.82.07-.23-.2-.52-.33-.82-.43-.23-.07-.47-.13-.71-.18-.27-.05-.55-.11-.83-.14-.37-.05-.74-.08-1.11-.05h-.01s-.02-.05-.02-.08c-.05-.29-.03-.6.07-.89.02-.05.04-.1.08-.14.05-.04.12-.05.19-.06.27-.02.54,0,.8.05.52.1,1.03.3,1.54.44l.21.06c.47.12.96.17,1.44.23.15.22.28.39.43.61.77,1.14,1.86,1.92,2.54,3.13.31.54.62,1.11.66,1.72h-.01c.35,1.62.06,3.32-.36,4.93-.1.38-.21.76-.32,1.14-.14.48-.3.96-.46,1.44Z"/><path class="cls-4" d="M212.35,8.89c1.28,0,2.31.97,2.31,2.16s-1.04,2.17-2.33,2.17c-.62,0-1.18-.22-1.6-.58v-1.4h-.97v1.41c-.41.36-.97.57-1.57.57-1.29,0-2.34-.97-2.34-2.17s1.03-2.15,2.31-2.16h.02c.68,0,1.29.26,1.71.69.12.11.22.23.3.37.03.03.05.07.07.1.39-.69,1.17-1.16,2.07-1.16h.02ZM213.61,11.05c0-.63-.55-1.15-1.24-1.15s-1.24.52-1.24,1.15.56,1.16,1.24,1.16,1.24-.52,1.24-1.16ZM209.48,11.05c0-.63-.56-1.15-1.25-1.15s-1.24.52-1.24,1.15.56,1.16,1.24,1.16,1.25-.52,1.25-1.16Z"/><path class="cls-4" d="M211.21,40.54c.02,1.41.05,2.81.08,4.22,0,.04,0,.09.03.12.06.06.15-.01.21-.07.77-.84,1.27-1.91,2.04-2.77-.04,1.84-.08,3.67-.12,5.5-.01.17-.04.39-.19.45-.07.03-.14.02-.22,0-.77-.15-1.53-.43-2.22-.83l-.07.05c-.15-.26-.32-.51-.5-.75-.5-.65-1.09-1.23-1.73-1.75l.06-.08s.09-.01.11-.03c1.07-1.14,1.59-2.67,2.4-4,.04-.06.05-.08.12-.1v.03h0Z"/><polygon class="cls-4" points="213.33 27.09 213.33 28.14 212.23 28.14 211.3 28.14 211.3 22.89 213.33 22.89 213.33 23.83 212.27 23.83 212.27 24.9 213.33 24.9 213.33 26.03 212.27 26.03 212.27 27.09 213.33 27.09"/><path class="cls-4" d="M212.59,7.92c0,.35-.08.68-.24.97h-.02c-.9,0-1.68.47-2.07,1.16-.02-.03-.04-.07-.07-.1-.08-.14-.18-.27-.3-.37-.42-.43-1.03-.69-1.71-.69h-.02c-.15-.29-.24-.62-.24-.97,0-1.2,1.04-2.17,2.34-2.17s2.33.97,2.33,2.17ZM211.5,7.74c0-.64-.56-1.15-1.24-1.15s-1.24.51-1.24,1.15.55,1.15,1.24,1.15,1.24-.52,1.24-1.15Z"/><path class="cls-4" d="M211.44,13.46v.44h-.14v1.03c-.51-.14-1.02-.34-1.54-.44v-3.25h.97v1.95h.14v.27h.57Z"/><polygon class="cls-4" points="211.3 28.14 211.3 28.9 210.13 28.9 210.13 28.45 209.76 28.45 209.76 28.14 210.6 28.14 211.3 28.14"/><rect class="cls-4" x="210.6" y="22.89" width=".7" height="5.25"/><path class="cls-4" d="M211.3,21.93v.96h-.7v-2.19c.09.28.2.55.35.8.1.16.21.31.35.43Z"/><path class="cls-4" d="M211.3,17.4v.13c-.51.03-1.02.01-1.54.02v-.06s.02,0,.02-.01c.01,0,.01-.03.01-.04.01-.1,0-.19-.01-.29-.01-.02-.01-.04-.02-.05v-.02c.53-.03,1.07.08,1.54.32Z"/><path class="cls-4" d="M211.3,15.98v.36c-.51-.05-1.02-.07-1.54-.08v-.6c.28.03.56.09.83.14.24.05.48.11.71.18Z"/><path class="cls-4" d="M196.34,39.48c1.4.1,2.78.41,4.14.86,1.85.62,3.64,1.51,5.32,2.5.22.13.44.26.66.4.01,0,.01.01.01.01.71.44,1.41.92,2.05,1.46.64.52,1.23,1.1,1.73,1.75.18.24.35.49.5.75.15.28.28.57.37.87.12.43.16.87.17,1.32.02.86-.06,1.75-.45,2.51-.29.59-.76,1.07-1.21,1.54-.43.45-.88.91-1.43,1.18-.84.42-1.84.37-2.75.15l-1.14.02-.03-1.71c.26-.06.39-.35.48-.6.17-.47.33-.95.38-1.44.04-.4.01-.81-.15-1.18-.07-.17-.16-.3-.27-.42,0,0-.01,0-.02-.01-.11-.12-.25-.23-.4-.35-.26-.22-.52-.44-.82-.59-.29-.13-.6-.2-.91-.25-.53-.09-1.07-.12-1.62-.16-1.68-.1-3.39-.21-5.06.09-.11.02-.22.05-.32.1-.09.06-.17.14-.26.2-.11.09-.24.14-.36.19-.29.12-.63.18-.86.38-.05.05-.13.05-.19.02h-.01c-.07-.03-.12-.08-.18-.11-.25-.14-.56-.06-.83.01-.19.06-.39.16-.46.34-1.2.09-2.41.12-3.61.11-.31,0-.61,0-.91-.02-1.01,0-2-.03-3.03.05-.28-.42-.54-.98-.77-1.44-.12-.23-.33-.42-.59-.49-.67-.17-1.45.01-2,.45-.67.52-1.06,1.35-1.24,2.18l-.09.45h-.02l-.28-.28c-.43-.44-.83-.84-1.28-1.29-.17-.18-.35-.36-.47-.58-.18-.33-.22-.72-.28-1.09-.17-.87-.54-1.7-.96-2.47-.36-.64-.76-1.41-.4-2.05l.02-.11h.04s.1-.02.15-.05c.33-.19.6-.46.85-.75l1.34-1.58.11.09c1.94.95,4.15,1.1,6.31,1.23.36.02.79.02,1.02-.27.06-.08.11-.19.2-.24.07-.04.17-.04.25-.04.49,0,1-.12,1.49-.08.59.04,1.18-.01,1.76-.15.07-.02.15-.04.21-.09.07-.06.11-.15.14-.23.18-.43.32-1.13.62-1.49.05-.06.41-.31.64-.44.12-.06.18-.21.13-.33-.03-.09-.08-.18-.12-.26l.05-.03c.24-.73.37-1.5.49-2.26.05-.31.09-.63.11-.95h.17c.12-.06.23-.13.34-.22v.89s0,.08.02.11c.03.04.08.05.12.05.23,0,.46-.02.66-.11h.02c-.37,1.3-.28,2.74.94,3.47.2.12.89.37,1.24.43v.02c.17,0,.35.01.53.03Z"/><path class="cls-4" d="M210.8,18.75c.18.07.35.31.29.48-.45.03-.89.05-1.33.07v-.06s.02-.05.03-.08c.01-.1.02-.19.03-.29.01-.01.01-.03,0-.04s-.03-.02-.05-.02h-.01v-.03c.16-.01.32-.03.49-.04.18-.03.38-.05.55.01Z"/><rect class="cls-4" x="209.76" y="22.89" width=".84" height="5.25"/><path class="cls-4" d="M210.6,20.7v2.19h-.84v-2.57c.24-.02.47-.04.72-.05.04.14.08.28.12.43Z"/><path class="cls-4" d="M209.82,18.83s.01.03,0,.04c-.01.1-.02.19-.03.29-.01.03-.02.06-.03.08v-.43h.01s.04.01.05.02Z"/><path class="cls-4" d="M209.78,17.15c.01.1.02.19.01.29,0,.01,0,.03-.01.04,0,.01-.01.01-.02.01v-.39s.01.03.02.05Z"/><polygon class="cls-4" points="205.33 28.14 205.31 28.14 205.31 26.14 206.6 26.14 206.6 27.09 207.51 27.09 207.51 26.14 208.46 26.14 208.46 24.9 207.51 24.9 207.51 23.94 206.6 23.94 206.6 24.9 205.31 24.9 205.31 22.89 207.91 22.89 208.01 22.89 208.01 23.94 208.92 23.94 208.92 22.89 209.76 22.89 209.76 28.14 208.92 28.14 208.92 27.09 208.01 27.09 208.01 28.14 207.3 28.14 205.33 28.14"/><path class="cls-4" d="M209.76,18.81v.43s0,.01,0,.02c-.03.02-.07.02-.11.02-.15,0-.31.02-.46.06h-.08c-.08,0-.18.02-.22.08-.01,0-.03,0-.04.01-.22.08-.49-.03-.59-.24-.08-.17-.04-.39.02-.59.02.03.04.05.06.08.02,0,.04.03.06.03.06.06.13.1.21.12.08.01.16-.01.23-.03.06-.01.11-.01.17-.01h.3c.16.01.3.02.46.02Z"/><path class="cls-4" d="M209.76,17.1v.39s-.02.02-.03.02c-.18.05-.36.04-.55.04-.33,0-.71.02-1.03.13-.17-.13-.22-.38-.13-.57.02.04.06.08.11.1.06.08.19.11.3.11.29-.01.58-.11.87-.18.15-.03.3-.05.45-.06,0,0,0,.01,0,.02Z"/><path class="cls-4" d="M208.64,15.61h.01c.37-.03.74,0,1.11.05v.6c-.31-.01-.61-.01-.91-.01-.02,0-.04,0-.06.01-.04-.02-.05-.06-.07-.1-.07-.2-.11-.41-.11-.63h.01s.01.06.02.08Z"/><path class="cls-4" d="M209.73,20.36c.03.22.03.44.01.66,0,.05-.01.11-.05.15-.17,0-.43-.09-.63-.14-.03-.01-.07-.02-.1-.04-.04-.04-.04-.1-.05-.15-.01-.17,0-.35,0-.52h0s0,.01.01.02c.04.04.1.03.15.03.2-.02.38-.03.56-.04h.08s.01.02.01.03Z"/><path class="cls-4" d="M209.75,17.08c-.15.01-.3.03-.45.06-.29.07-.58.17-.87.18-.11,0-.24-.03-.3-.11.1.07.23.1.33.09.14-.01.28-.06.42-.11.27-.08.54-.13.82-.12h.05Z"/><path class="cls-4" d="M209.51,20.32s.09.01.13.01c-.18.01-.36.02-.56.04-.05,0-.11.01-.15-.03t-.01-.02c.15-.07.42,0,.59,0Z"/><path class="cls-4" d="M209.21,18.79h-.21c.07-.01.14-.01.21,0Z"/><path class="cls-4" d="M209.14,19.34c-.09.02-.18.04-.26.08.04-.06.14-.07.22-.08h.04Z"/><path class="cls-4" d="M201.67,21.48c.13.2.26.39.4.58.13.17.26.34.43.47.48.38,1.2.39,1.73.09.54-.29,1.03-.8,1.13-1.4.03-.17.05-.35.06-.53.31,0,.6.14.87.31.71.46,1.62,1.17,1.62,1.82v.07h-2.6v2.01h1.29v-.96h.91v.96h.95v1.24h-.95v.95h-.91v-.95h-1.29v2h.02c-.1.37-1.54.48-1.79.5-.21.02-.39-.07-.55-.22-.12-.1-.22-.23-.31-.36-.75-1.04-1.42-2.15-1.81-3.37-.38-1.22-.12-2.8.3-4.01.17.27.33.54.5.8Z"/><path class="cls-4" d="M208.39,18.71s-.04-.02-.06-.03c-.02-.03-.04-.05-.06-.08,0-.02,0-.03.01-.05.03.06.07.12.11.16Z"/><path class="cls-4" d="M205.42,20.69c0,.18-.03.36-.06.53-.1.6-.59,1.11-1.13,1.4-.53.3-1.25.29-1.73-.09-.17-.13-.3-.3-.43-.47-.14-.19-.27-.38-.4-.58-.17-.26-.33-.53-.5-.8-.07-.1-.13-.21-.16-.32s-.02-.23-.02-.34c.04-.62.07-1.23.1-1.85.02-.44-.05-.91-.22-1.32-.07-.17-.15-.33-.27-.47-.14-.16-.3-.29-.47-.42.1-.19.18-.39.25-.6.04-.1.07-.21.1-.31l.11.03c1.45.11,2.84.86,3.74,2.01.79,1.01,1.18,2.32,1.09,3.6Z"/><path class="cls-4" d="M193.9,49.07c.06.03.14.03.19-.02.23-.2.57-.26.86-.38.12-.05.25-.1.36-.19.09-.06.17-.14.26-.2.1-.05.21-.08.32-.1,1.67-.3,3.38-.19,5.06-.09.55.04,1.09.07,1.62.16.31.05.62.12.91.25.3.15.56.37.82.59.15.12.29.23.4.35.01.01.02.01.02.01.11.12.2.25.27.42.16.37.19.78.15,1.18-.05.49-.21.97-.38,1.44-.09.25-.22.54-.48.6l.03,1.71-7.51.12c-1.06.06-2.15-.17-3.1-.64-.25-.13-.5-.27-.76-.38-.42-.16-.87-.21-1.3-.33-.66-.18-1.26-.5-1.85-.83-.43-.23-.87-.47-1.22-.82-.11-.11-.21-.23-.29-.35-.05-.08-.1-.15-.14-.23-.31-.57-.4-1.26-.24-1.88v-.06c.3.01.6.02.91.02,1.2.01,2.41-.02,3.61-.11.07-.18.27-.28.46-.34.27-.07.58-.15.83-.01.06.03.11.08.18.11h.01Z"/><path class="cls-4" d="M202.99,28.42l-.06.08c-.7.43-1.41.86-2.11,1.3-.45-.99-.63-2.9-.3-4.22.08-.35.2-.65.35-.89.39,1.22,1.06,2.33,1.81,3.37.09.13.19.26.31.36Z"/><path class="cls-4" d="M193.56,31.47c-.08.03-.15.05-.23.07-.46.1-.97.03-1.34-.27h-.24v-1.31h.53v-2.05h-1.86v-.05h1.33v-1.29h-1.33v-2.58s0-.02,0-.04c-.02-1.1-1.01-2.07-2.47-2.58v-.03c.7-.69,1.19-1.3,1.74-2.11.21-.31.42-.63.54-.99.13-.38.17-.78.16-1.18,0-.12-.01-.23-.02-.35l.17-.02c.31-.14.65.1.89.34s.54.51.87.43c.35-.09.5-.54.84-.66.48.55,1.36,1.63,1.84,2.18.27.31.55.62.91.83.35.2.81.28,1.18.1.25-.12.43-.35.56-.59.32-.57.39-1.44.46-2.08.63,0,1.26-.28,1.68-.75.15-.16.27-.34.37-.53.17.13.33.26.47.42.12.14.2.3.27.47.17.41.24.88.22,1.32-.03.62-.06,1.23-.1,1.85,0,.11-.01.23.02.34s.09.22.16.32c-.42,1.21-.68,2.79-.3,4.01-.15.24-.27.54-.35.89l-.33-.08c-.15.62-.52,1.2-1.05,1.58-.3.21-.64.36-.99.47-.37.12-.8.18-1.17.08-.45,1.24-1.34,2.49-2.4,3.28-.31.24-.65.45-1.02.56Z"/><path class="cls-4" d="M200.78,12.22c.06.55.05,1.1-.03,1.64l-.61-.08c.02-.43-.14-.87-.43-1.19-.28-.32-.7-.52-1.13-.54h-.16c-.03-.55-.09-1.1-.2-1.63.22-.24.58-.36.9-.29.18.05.35.14.5.24.41.27.77.63,1.04,1.04.05.27.09.54.12.81Z"/><path class="cls-4" d="M198.43,13.62l.02-.04c.02-.51.01-1.02-.03-1.52h.16c.43.01.85.21,1.13.53.29.32.45.76.43,1.19l.61.08c-.05.41-.14.8-.27,1.19-.03.1-.06.21-.1.31-.07.21-.15.41-.25.6s-.22.37-.37.53c-.42.47-1.05.75-1.68.75-.09,0-.19-.01-.28-.02-.59-.08-1.13-.42-1.47-.91-.08-.11-.15-.23-.2-.35-.35-.81-.11-1.83.55-2.41.12-.11.26-.2.41-.25.06-.03.12-.04.18-.05.24-.04.48.01.7.11.16.07.32.15.46.26Z"/><path class="cls-4" d="M200.5,10.61c.05.26.11.53.16.8-.27-.41-.63-.77-1.04-1.04-.15-.1-.32-.19-.5-.24-.32-.07-.68.05-.9.29-.1-.54-.23-1.06-.41-1.57l.18-.06c.29-.27.71-.39,1.11-.33.39.06.75.3.96.64l.08-.02c.14.5.25,1.02.36,1.53Z"/><path class="cls-4" d="M200.14,9.08l-.08.02c-.21-.34-.57-.58-.96-.64-.4-.06-.82.06-1.11.33l-.18.06c-.22-.65-.5-1.27-.85-1.85l.12-.08c.58-.41,1.35-.52,2.02-.29l.06-.04s0,0,0,.02c.45.76.74,1.6.97,2.47Z"/><path class="cls-4" d="M199.16,6.59l-.06.04c-.67-.23-1.44-.12-2.02.29l-.12.08c-.09-.17-.19-.33-.3-.49-.22-.33-.46-.65-.74-.94l.07-.06c.27-.57.97-.91,1.59-.76l.02-.02c.48.45.93.93,1.3,1.47.09.13.18.26.26.39Z"/><path class="cls-4" d="M197.77,1.82c.87,1.23,1.42,2.79,1.13,4.38-.37-.54-.82-1.02-1.3-1.47-.33-.32-.69-.62-1.04-.92-.26-.23-.53-.45-.81-.64-.15-.12-.31-.22-.47-.31-1.02-.57-2.25-.73-3.41-.58-1.17.14-2.28.57-3.31,1.12-.22.12-.44.24-.64.4h0c.99-1.64,2.66-2.9,4.52-3.35.55-.13,1.12-.2,1.69-.25.65-.06,1.32-.09,1.93.13.73.26,1.28.86,1.72,1.49Z"/><path class="cls-4" d="M198.22,10.42c.11.53.17,1.08.2,1.64.04.5.05,1.01.03,1.52l-.02.04c-.14-.11-.3-.19-.46-.26-.22-.1-.46-.15-.7-.11-.06.01-.12.02-.18.05-.12-.09-.21-.33-.2-.47,0-.15.06-.29.16-.39.02-.02.03-.05.04-.07,0-.04-.05-.07-.09-.09-.21-.13-.3-.4-.32-.65-.02-.2.05-.45.07-.67,0-.13-.01-.24-.06-.33-.04-.07-.04-.16-.05-.24-.01-.48-.02-.95-.03-1.43-.22-.25-.44-.54-.59-.83-.03-.04-.05-.09-.05-.13-.01-.06,0-.12.01-.18.02-.11.05-.21.07-.32-.24.01-.4-.08-.53-.27-.05-.09-.09-.19-.17-.26-.07-.06-.17-.09-.23-.16-.18-.2.04-.55-.1-.79-.19-.3-.74-.08-.95-.37-.09-.13-.1-.34-.25-.38-.05-.02-.1,0-.15.01-.39.09-.86.19-1.13-.1-.06-.07-.1-.15-.17-.2-.19-.17-.48-.11-.73-.08-.26.03-.59-.06-.62-.31-.32.29-.77.43-1.2.37-.03.23-.25.42-.48.41-.1,0-.19-.04-.29-.03-.19,0-.34.15-.5.27-.08.06-.18.11-.28.13-.08.03-.15.04-.22.05h-.03c-.16,0-.32-.06-.44-.17-.16-.13-.28-.32-.31-.52-.01-.04-.01-.09-.01-.13.22.12.34.02.56-.09,1.25-.58,2.61-.98,3.99-.97.88,0,1.76.18,2.56.55.45.2.88.48,1.25.81.11.1.21.2.3.3.28.29.52.61.74.94.11.16.21.32.3.49.35.58.63,1.2.85,1.85.18.51.31,1.03.41,1.57Z"/><path class="cls-4" d="M197.8,17.22c.09,0,.19.02.28.02-.07.64-.14,1.51-.46,2.08-.13.24-.31.47-.56.59-.37.18-.83.1-1.18-.1-.36-.21-.64-.52-.91-.83-.48-.55-1.36-1.63-1.84-2.18.24-.08.55,0,.7-.2v-.11l.27.09c.72.2,1.5.06,2.18-.24l.05-.03c.34.49.88.83,1.47.91Z"/><path class="cls-4" d="M197.6,4.73l-.02.02c-.62-.15-1.32.19-1.59.76l-.07.06c-.09-.1-.19-.2-.3-.3-.37-.33-.8-.61-1.25-.81l.02-.03c.32-.53.72-1.12,1.33-1.22l.03-.04c.28.19.55.41.81.64.35.3.71.6,1.04.92Z"/><path class="cls-3" d="M197.09,12.37s-.02.05-.04.07c-.1.1-.16.24-.16.39-.01.14.08.38.2.47-.15.05-.29.14-.41.25-.66.58-.9,1.6-.55,2.41.05.12.12.24.2.35l-.05.03c-.68.3-1.46.44-2.18.24-.09-.03-.18-.06-.26-.09-.45-.2-.85-.55-1.06-.99-.07-.14-.12-.29-.14-.45-.03-.2-.02-.4.07-.59.08-.18.26-.31.45-.35-.01-.28-.01-.55-.02-.83v-.03c.23-.01.46-.01.7-.02.33,0,.52-.23.79-.42.71-.5,1.31-1.14,1.78-1.87l.34.02c-.02.22-.09.47-.07.67.02.25.11.52.32.65.04.02.09.05.09.09Z"/><path class="cls-3" d="M191.42,11.32c-.19-.06-.36.09-.52-.02-.1-.07-.11-.22-.1-.34v-.63c-.14.02-.29,0-.38.09-.06.05-.08.14-.14.21-.1.14-.33.14-.48.05s-.24-.25-.33-.41c-.67-1.25-.95-2.66-1.22-4.05-.03-.12-.03-.36.02-.48.1-.02.2-.07.28-.13.16-.12.31-.26.5-.27.1-.01.19.03.29.03.23.01.45-.18.48-.41.43.06.88-.08,1.2-.37.03.25.36.34.62.31.25-.03.54-.09.73.08.07.05.11.13.17.2.27.29.74.19,1.13.1.05-.01.1-.03.15-.01.15.04.16.25.25.38.21.29.76.07.95.37.14.24-.08.59.1.79.06.07.16.1.23.16.08.07.12.17.17.26.13.19.29.28.53.27-.02.11-.05.21-.07.32-.01.06-.02.12-.01.18,0,.04.02.09.05.13.15.29.37.58.59.83.01.48.02.95.03,1.43.01.08.01.17.05.24.05.09.06.2.06.33l-.34-.02c-.47.73-1.07,1.37-1.78,1.87-.27.19-.46.41-.79.42-.24.01-.47.01-.7.02-.22,0-.45.01-.67.01-.16,0-.35,0-.47-.11-.13-.12-.15-.32-.16-.5,0-.19,0-.37-.02-.56h-.02c-.16-.02-.27-.15-.36-.28-.09-.15-.1-.34-.02-.49Z"/><path class="cls-4" d="M195.75,3.17l-.03.04c-.61.1-1.01.69-1.33,1.22l-.02.03c-.8-.37-1.68-.55-2.56-.55-1.38-.01-2.74.39-3.99.97-.22.11-.34.21-.56.09,0-.34.14-.66.37-.92.09-.1.18-.18.29-.25.2-.16.42-.28.64-.4,1.03-.55,2.14-.98,3.31-1.12,1.16-.15,2.39.01,3.41.58.16.09.32.19.47.31Z"/><path class="cls-4" d="M193.84,16.49v.11c-.16.2-.47.12-.71.2-.34.12-.49.57-.84.66-.33.08-.63-.19-.87-.43s-.58-.48-.89-.34l-.17.02c-.06-.59-.22-1.17-.48-1.71l.06-.03c.53.03,1.06.19,1.52.48.2.12.39.27.62.32s.51-.02.61-.23l.09-.04c.21.44.61.79,1.06.99Z"/><path class="cls-4" d="M192.81,34.59c-.11.09-.22.16-.34.23h-.17c.02-.18.02-.35.02-.52-.02-.69-.2-1.37-.52-1.97h-.05v-1.06h.24c.37.3.88.37,1.34.27.08-.02.15-.04.23-.07.27.58.31,1.27.12,1.88-.16.49-.47.92-.87,1.24Z"/><path class="cls-4" d="M187.24,8.1s-.06-.07-.1-.1c-.47-.41-.49-1.91.44-2.38.12.11.28.17.44.17h.03c.07-.01.14-.02.22-.05-.05.12-.05.36-.02.48.27,1.39.55,2.8,1.22,4.05.09.16.18.32.33.41s.38.09.48-.05c.06-.07.08-.16.14-.21.09-.09.24-.07.37-.09v.08c.01.18.01.36.01.55-.01.12,0,.27.1.34.16.11.33-.04.52.02-.08.15-.07.34.02.49.09.13.2.26.36.28h.02c.01.19.02.37.02.56.01.18.03.38.16.5.12.11.31.11.47.11.22,0,.45-.01.67-.01v.03c.01.28.01.55.02.83-.19.04-.37.17-.45.35-.09.19-.1.39-.07.59.02.16.07.31.14.45l-.09.04c-.1.21-.38.28-.61.23s-.42-.2-.62-.32c-.46-.29-.99-.45-1.52-.48l-.06.03c-.4-.87-1.04-1.63-1.85-2.16,0,0,0-.01-.01-.01h0c-.01-.32-.02-.62-.02-.93-.01-.06-.01-.12-.04-.17-.04-.08-.13-.11-.2-.15-.17-.11-.28-.3-.28-.5,0-.16.06-.31.08-.47.05-.37-.15-.72-.32-1.06-.16-.34-.29-.75-.1-1.08.06-.1.16-.21.12-.33,0-.01,0-.03-.02-.04Z"/><path class="cls-4" d="M192.32,34.3c0,.17,0,.34-.02.51-.02.32-.06.64-.11.95-.12.76-.25,1.53-.49,2.26l-.05.03c-.22-.39-.56-.71-.97-.73-.68-.02-1.35-.02-2.01,0v-.02l3.08-3.72v-1.26h.05c.32.6.5,1.28.52,1.97Z"/><path class="cls-3" d="M179.45,29.96h-.53v-2.05h1.86v.04h2.62v-.04h8.88v2.05h-5.64c-.25-.32-.62-.53-1.04-.53s-.79.21-1.04.53h-5.11Z"/><path class="cls-4" d="M191.8,55.31l-3.57-.22c-1.19-.64-1.17-2.27-2.25-3.08-.24-.18,0,1.41,0,1.41-.3.35-.45,1.59-.68,1.19-.33-.57.17-1.73.17-1.73-.37.15-.6.5-.77.86-.18.35-.31.73-.57,1.03l-1.04.54c-1.04-.03-2.07-.06-3.1-.09-.3,0-.61-.01-.87-.14-.2-.09-.36-.24-.54-.35-.8-.48-1.92-.15-2.54.57l-2.55-.14c-.07-.19.21-.31.39-.41.38-.21.46-.72.67-1.1.49-.86,1.64-1.03,2.63-1.08.98-.05,2.13-.17,2.66-1,.19-.29.27-.63.34-.97l.09-.45c.18-.83.57-1.66,1.24-2.18.55-.44,1.33-.62,2-.45.26.07.47.26.59.49.23.46.49,1.02.77,1.44,1.03-.08,2.02-.06,3.03-.05v.06c-.16.62-.07,1.31.24,1.88.04.08.09.15.14.23,1.09,1.79,1.5,2.97,3.52,3.74Z"/><path class="cls-3" d="M191.77,38.31c.05.12-.01.27-.13.33-.23.13-.59.38-.64.44-.3.36-.44,1.06-.62,1.49-.03.08-.07.17-.14.23-.06.05-.14.07-.21.09-.58.14-1.17.19-1.76.15-.49-.04-1,.08-1.49.08-.08,0-.18,0-.25.04-.09.05-.14.16-.2.24-.23.29-.66.29-1.02.27-2.16-.13-4.37-.28-6.31-1.23l-.11-.09,2.66-3.13c.31.36.66.64,1.05.89.33-.4.74-.64,1.2-.8.52-.18,1.09-.26,1.65-.31.12-.01.26-.02.4-.02.46-.01.92.05,1.24.33.05.05.11.1.15.17.48-.07.96-.12,1.43-.15.66-.03,1.33-.03,2.01,0,.41.02.75.34.97.73.04.08.09.17.12.26Z"/><path class="cls-3" d="M191.75,32.33v1.26l-3.08,3.72v.02c-.47.03-.95.08-1.43.15-.04-.07-.1-.12-.15-.17-.32-.28-.78-.34-1.24-.33l-.06-1.42c.07,0,.14,0,.21-.04.16-.07.28-.19.4-.31.09-.09.18-.18.22-.3.07-.22-.06-.45-.22-.61s-.37-.28-.52-.45c-.14-.17-.23-.44-.1-.63.05-.07.12-.12.19-.17.34-.29.57-.73.54-1.17-.02-.45-.35-.88-.78-.97-.2-.04-.4,0-.58.1l-.59-1.05c.25-.32.62-.53,1.04-.53s.79.21,1.04.53h5.11v2.37Z"/><path class="cls-3" d="M191.75,26.57v1.29h-3.95v-3.87c0-.45-.99-.81-2.2-.81s-2.2.36-2.2.81v3.92h-3.95v-1.29h1.33v-2.63c0-.38.11-.74.33-1.07.69-1.12,2.44-1.92,4.49-1.92.45,0,.89.04,1.3.11.37.06.71.15,1.04.26,1.46.51,2.45,1.48,2.47,2.58,0,.02,0,.03,0,.04v2.58h1.33Z"/><path class="cls-4" d="M177.5,25.61v.05c.32,1.18.64,2.17,1.39,3.14h.03v1.16h.53v3.63l3.07,3.72h1.28c-.46.16-.87.4-1.2.8-.39-.25-.74-.53-1.05-.89-.12-.26-.24-.51-.44-.71-.18-.16-.43-.27-.66-.23l-.02-.12c-.18-.48-.69-.74-1.04-1.12-.81-.87-.72-2.21-.74-3.4-.01-.36-.04-.73-.13-1.08-.08-.33-.22-.64-.36-.94-.52-1.12-1.09-2.22-1.71-3.3-.39-.68-.85-1.39-1.59-1.67-.56-.21-1.18-.12-1.71.15l-.16-.44c-1.17.5-2.06,1.55-2.7,2.66-.37.66-.68,1.35-.92,2.07h-.56c0-1.83.17-3.67.53-5.46,2.89-2.6,5.85-5.27,9.52-6.57.56-.91,1.48-1.64,2.36-2.25,1-.7,2.05-1.33,3.21-1.72,1.15-.39,2.41-.53,3.58-.23l.02-.02c.81.53,1.45,1.29,1.85,2.16.26.54.42,1.12.48,1.71.01.12.02.23.02.35.01.4-.03.8-.16,1.18-.12.36-.33.68-.54.99-.55.81-1.04,1.42-1.73,2.11v.03c-.34-.11-.68-.2-1.05-.26-.41-.07-.85-.11-1.3-.11-2.05,0-3.8.8-4.49,1.92-.22.33-.33.69-.33,1.07v.22h-.04c-.12.15-.25.16-.44.17-.16.01-.33.01-.49.03-.35.37-.72.76-1.18,1-.34.18-.76.27-1.13.2Z"/><path class="cls-4" d="M187.8,27.86v.05h-4.4v-3.92c0-.45.99-.81,2.2-.81s2.2.36,2.2.81v3.87Z"/><path d="M186.4,34.3c.16.16.29.39.22.61-.04.12-.13.21-.22.3-.12.12-.24.24-.4.31-.07.03-.14.04-.21.04-.1,0-.2-.03-.27-.09-.13-.12-.14-.32-.09-.48.06-.16.17-.29.28-.42-.31-.26-.61-.54-.88-.85-.11-.13-.22-.27-.22-.44.01-.24.24-.4.46-.5.57-.25.68-.37.07-.65-.13-.06-.26-.12-.33-.24-.06-.09-.07-.2-.06-.3.02-.25.19-.46.4-.58.18-.1.38-.14.58-.1.43.09.76.52.78.97.03.44-.2.88-.54,1.17-.07.05-.14.1-.19.17-.13.19-.04.46.1.63.15.17.36.29.52.45Z"/><path class="cls-3" d="M185.79,35.56l.06,1.42c-.14,0-.28,0-.4.02-.56.05-1.13.13-1.65.31h-1.28l-3.07-3.72v-3.63h5.11l.59,1.05c-.21.12-.38.33-.4.58-.01.1,0,.21.06.3.07.12.2.18.33.24.61.28.5.4-.07.65-.22.1-.45.26-.46.5,0,.17.11.31.22.44.27.31.57.59.88.85-.11.13-.22.26-.28.42-.05.16-.04.36.09.48.07.06.17.09.27.09Z"/><path class="cls-4" d="M181.11,36.51c.2.2.32.45.44.71l-2.66,3.13-1.34,1.58c-.25.29-.52.56-.85.75-.05.03-.1.05-.15.05h-.04c-.2,0-.36-.18-.41-.37-.04-.21.04-.57.1-.78-1.94-.23-4.08-.65-5.26-2.22-.49-.65-.76-1.43-.99-2.21-.77-2.62-1.15-5.34-1.14-8.07h.56c.24-.71.55-1.4.92-2.06.64-1.11,1.53-2.16,2.7-2.66l.16.44c-.11.06-.22.12-.32.19-.58.41-1,1.02-1.31,1.66-.63,1.28-.99,2.65-.88,4.07.18,2.17.53,4.4,1.66,6.26.38.62.86,1.2,1.49,1.55.41.22.86.34,1.32.41,1.06.16,2.17.05,3.13-.41.97-.46,1.73-1.23,2.1-2.23.03-.01.07-.02.11-.02.23-.04.48.07.66.23Z"/><path class="cls-4" d="M180.43,36.16l.02.12s-.08.01-.11.02c-.37,1-1.13,1.77-2.1,2.23-.96.46-2.07.57-3.13.41-.46-.07-.91-.19-1.32-.41-.63-.35-1.11-.93-1.49-1.55-1.13-1.86-1.48-4.09-1.66-6.26-.11-1.42.25-2.79.88-4.07.31-.64.73-1.25,1.31-1.66.1-.07.21-.13.32-.19.53-.27,1.15-.36,1.71-.15.74.28,1.2.99,1.59,1.67.62,1.08,1.19,2.18,1.71,3.3.14.3.28.61.36.94.09.35.12.72.13,1.08.02,1.19-.07,2.53.74,3.4.35.38.86.64,1.04,1.12Z"/><path class="cls-4" d="M180.16,50.6h.02c-.07.34-.15.68-.34.97-.53.83-1.68.95-2.66,1-.99.05-2.14.22-2.63,1.08-.21.38-.29.89-.67,1.1-.18.1-.46.22-.39.41l-2.78.35c-.16-.29.15-.63.46-.75.32-.13.7-.21.83-.52.09-.19.05-.44.15-.63.23-.41.87-.21,1.32-.38.38-.15.57-.56.9-.81.31-.23.71-.3,1.09-.36.79-.11,1.58-.23,2.37-.35.23-.04.48-.08.68-.2.5-.33.71-1.18,1.31-1.14l.06-.05.28.28Z"/><line class="cls-2" x1="183.4" y1="27.91" x2="187.8" y2="27.91"/><path class="cls-2" d="M190.42,27.91h1.86v2.05h-5.64c-.25-.32-.62-.53-1.04-.53s-.79.21-1.04.53h-5.64v-2.05h.53"/><polyline class="cls-2" points="191.75 29.87 191.75 29.96 191.75 31.27 191.75 32.33 191.75 33.59 188.67 37.31"/><polyline class="cls-2" points="179.45 29.87 179.45 29.96 179.45 33.59 182.52 37.31 183.8 37.31"/><path class="cls-2" d="M180.78,27.91h-1.33v-1.29h1.33v-2.63c0-.38.11-.74.33-1.07.69-1.12,2.44-1.92,4.49-1.92.45,0,.89.04,1.3.11.37.06.71.15,1.04.26,1.46.51,2.45,1.48,2.47,2.58,0,.02,0,.03,0,.04v2.58h1.33v1.29h-1.33"/><path class="cls-2" d="M187.8,27.86v-3.87c0-.45-.99-.81-2.2-.81s-2.2.36-2.2.81v3.92"/><polyline class="cls-2" points="183.4 27.91 183.4 27.95 180.78 27.95 180.78 27.91"/><rect class="cls-2" x="187.8" y="27.86" width="2.62" height=".05"/><path class="cls-2" d="M182.09,26.66v-2.81s1.22-1.48,3.51-1.48"/><path class="cls-2" d="M189.11,26.66v-2.81s-1.22-1.48-3.51-1.48"/><path class="cls-2" d="M185.79,35.56c-.1,0-.2-.03-.27-.09-.13-.12-.14-.32-.09-.48.06-.16.17-.29.28-.42-.31-.26-.61-.54-.88-.85-.11-.13-.22-.27-.22-.44.01-.24.24-.4.46-.5.57-.25.68-.37.07-.65-.13-.06-.26-.12-.33-.24-.06-.09-.07-.2-.06-.3.02-.25.19-.46.4-.58.18-.1.38-.14.58-.1.43.09.76.52.78.97.03.44-.2.88-.54,1.17-.07.05-.14.1-.19.17-.13.19-.04.46.1.63.15.17.36.29.52.45s.29.39.22.61c-.04.12-.13.21-.22.3-.12.12-.24.24-.4.31-.07.03-.14.04-.21.04Z"/><polygon class="cls-2" points="211.3 22.89 213.33 22.89 213.33 23.83 212.27 23.83 212.27 24.9 213.33 24.9 213.33 26.03 212.27 26.03 212.27 27.09 213.33 27.09 213.33 28.14 212.23 28.14 211.3 28.14 210.6 28.14 209.76 28.14 208.92 28.14 208.92 27.09 208.01 27.09 208.01 28.14 207.3 28.14 205.33 28.14 205.31 28.14 205.31 26.14 206.6 26.14 206.6 27.09 207.51 27.09 207.51 26.14 208.46 26.14 208.46 24.9 207.51 24.9 207.51 23.94 206.6 23.94 206.6 24.9 205.31 24.9 205.31 22.89 207.91 22.89 208.01 22.89 208.01 23.94 208.92 23.94 208.92 22.89 209.76 22.89 210.6 22.89 211.3 22.89"/><path class="cls-2" d="M211.09,19.23c-.45.03-.89.05-1.33.08h0v-.53"/><polyline class="cls-2" points="209.76 17.55 209.76 17.49 209.76 17.1 209.76 17.08"/><line class="cls-2" x1="211.3" y1="17.4" x2="211.3" y2="17.53"/><line class="cls-2" x1="209.76" y1="16.26" x2="209.76" y2="15.66"/><line class="cls-2" x1="211.3" y1="15.98" x2="211.3" y2="16.34"/><line class="cls-2" x1="209.76" y1="14.49" x2="209.76" y2="12.65"/><polyline class="cls-2" points="210.73 12.64 210.73 13.19 210.87 13.19 210.87 13.46 211.44 13.46 211.44 13.9 211.3 13.9 211.3 14.93"/><path class="cls-2" d="M208.16,8.89c-1.28,0-2.31.97-2.31,2.16s1.05,2.17,2.34,2.17c.6,0,1.16-.21,1.57-.57v-1.41h.97v1.4c.42.36.98.58,1.6.58,1.29,0,2.33-.97,2.33-2.17s-1.03-2.15-2.31-2.16"/><path class="cls-2" d="M210.19,9.95c-.08-.14-.18-.27-.3-.37"/><path class="cls-2" d="M209.48,11.05c0,.64-.56,1.16-1.25,1.16s-1.24-.52-1.24-1.16.56-1.15,1.24-1.15,1.25.52,1.25,1.15Z"/><ellipse class="cls-2" cx="210.26" cy="7.74" rx="1.24" ry="1.15"/><path class="cls-2" d="M208.16,8.89c-.15-.29-.24-.62-.24-.97,0-1.2,1.04-2.17,2.34-2.17s2.33.97,2.33,2.17c0,.35-.08.68-.24.97h-.02c-.9,0-1.68.47-2.07,1.16-.02-.03-.04-.07-.07-.1-.08-.14-.18-.26-.3-.37-.42-.43-1.03-.69-1.71-.69h-.02Z"/><path class="cls-2" d="M213.61,11.05c0,.64-.55,1.16-1.24,1.16s-1.24-.52-1.24-1.16.56-1.15,1.24-1.15,1.24.52,1.24,1.15Z"/><polyline class="cls-2" points="211.3 21.93 211.3 22.89 211.3 28.14 211.3 28.9 210.13 28.9 210.13 28.45 209.76 28.45 209.76 28.14 209.76 22.89 209.76 20.32"/><polyline class="cls-2" points="210.6 28.14 210.6 22.89 210.6 20.7"/><path class="cls-2" d="M181.55,37.22l-2.66,3.13-1.34,1.58c-.25.29-.52.56-.85.75-.05.03-.1.05-.15.05h-.04c-.2,0-.36-.18-.41-.37-.04-.21.04-.57.1-.78-1.94-.23-4.08-.65-5.26-2.22-.49-.65-.76-1.43-.99-2.21-.77-2.62-1.15-5.34-1.14-8.07,0-1.82.17-3.66.53-5.45,2.89-2.6,5.85-5.27,9.52-6.57.56-.91,1.48-1.64,2.36-2.25,1-.7,2.05-1.33,3.21-1.72,1.15-.39,2.41-.53,3.58-.23"/><path class="cls-2" d="M179,40.44c1.94.95,4.15,1.1,6.31,1.23.36.02.79.02,1.02-.27.06-.08.11-.19.2-.24.07-.04.17-.04.25-.04.49,0,1-.12,1.49-.08.59.04,1.18-.01,1.76-.15.07-.02.15-.04.21-.09.07-.06.11-.15.14-.23.18-.43.32-1.13.62-1.49.05-.06.41-.31.64-.44.12-.06.18-.21.13-.33-.03-.09-.08-.18-.12-.26-.22-.39-.56-.71-.97-.73-.68-.02-1.35-.02-2.01,0-.47.03-.95.08-1.43.15-.04-.07-.1-.12-.15-.17-.32-.28-.78-.34-1.24-.33-.14,0-.28,0-.4.02-.56.05-1.13.13-1.65.31-.46.16-.87.4-1.2.8-.39-.25-.74-.53-1.05-.89"/><path class="cls-2" d="M186.46,39.24c.31,0,.61.01.92.01.09,0,.19-.01.25-.07.03-.04.05-.1.09-.14.04-.03.09-.03.14-.03.96-.05,2.17.12,3.13.07"/><path class="cls-2" d="M181.55,37.22c-.12-.26-.24-.51-.44-.71-.18-.16-.43-.27-.66-.23-.04,0-.08.01-.11.02-.37,1-1.13,1.77-2.1,2.23-.96.46-2.07.57-3.13.41-.46-.07-.91-.19-1.32-.41-.63-.35-1.11-.93-1.49-1.55-1.13-1.86-1.48-4.09-1.66-6.26-.11-1.42.25-2.79.88-4.07.31-.64.73-1.25,1.31-1.66.1-.07.21-.13.32-.19.53-.27,1.15-.36,1.71-.15.74.28,1.2.99,1.59,1.67.62,1.08,1.19,2.18,1.71,3.3.14.3.28.61.36.94.09.35.12.72.13,1.08.02,1.19-.07,2.53.74,3.4.35.38.86.64,1.04,1.12"/><path class="cls-2" d="M175.87,32.85c-1.04-.09-1.97-.73-2.61-1.55-.65-.82-1.03-1.81-1.32-2.82"/><path class="cls-2" d="M173.39,32.72c1.23,1.77,3.56,2.7,5.67,2.25"/><path class="cls-2" d="M171.05,31.13c.55,1.15,1.1,2.3,1.82,3.35.72,1.04,1.62,1.99,2.73,2.6"/><path class="cls-2" d="M171.64,34.75c.61,1.06,1.36,2.07,2.37,2.75,1.02.68,2.32,1.01,3.49.64.59-.18,1.14-.53,1.75-.57"/><path class="cls-2" d="M170.14,34.97c-.26-1.02-.24-2.11.06-3.11"/><path class="cls-2" d="M171.54,37.54c.22.58.72.99,1.22,1.36.4.29.81.58,1.27.76.46.19.97.28,1.45.17"/><path class="cls-2" d="M171.27,24.67c.18-.55.8-.79,1.36-.93.57-.14,1.16-.26,1.75-.22.59.03,1.19.24,1.61.66s.64,1.01,1.15,1.3c.11.06.23.11.36.13.37.07.79-.02,1.13-.2.46-.24.83-.63,1.18-1,.16-.02.33-.02.49-.03.19-.01.32-.02.44-.17"/><path class="cls-2" d="M172.35,23.01c1.05-.68,2.48-.54,3.58.05.58.31,1.1.72,1.7.98s1.33.33,1.87-.04c.41-.29.61-.63,1.04-.89.26-.16.18-.34.57-.19"/><path class="cls-2" d="M179.92,17.64c.48-.23,1.09-.15,1.5.2.24.2.4.49.63.72.7.71,1.83.72,2.83.69,1.23-.04,2.58-.13,3.47-.98"/><path class="cls-2" d="M188.46,14.26c-.16-.3-.45-.53-.78-.62-.22-.06-.45-.06-.68-.05-1.34.02-2.75.06-3.88.76"/><path class="cls-2" d="M187.96,12.79s.04.02.05.04h.01s.01.01.01.01c.81.53,1.45,1.29,1.85,2.16.26.54.42,1.12.48,1.71.01.12.02.23.02.35.01.4-.03.8-.16,1.18-.12.36-.33.68-.54.99-.55.81-1.04,1.42-1.73,2.11"/><path class="cls-2" d="M186.9,21.11c1.02-.59,1.84-1.73,2-2.89"/><path class="cls-2" d="M184.53,21.05c.52-.32.87-.89.93-1.5"/><path class="cls-2" d="M184.56,27.35c.7-.59,1.2-1.39,1.43-2.27"/><path class="cls-2" d="M183.86,26.88c.83-.64,1.52-1.47,2-2.4"/><path class="cls-2" d="M176.49,42.84c-.36.64.04,1.41.4,2.05.42.77.79,1.6.96,2.47.06.37.1.76.28,1.09.12.22.3.4.47.58.45.45.85.85,1.28,1.29l.28.28"/><path class="cls-2" d="M177.53,42.3c.08.19.17.39.25.59.25.61.5,1.22.93,1.72.39.44.9.76,1.41,1.08"/><path class="cls-2" d="M177.99,41.57c.31.53.76.97,1.29,1.27"/><path class="cls-2" d="M182.36,45.94l.06-.78c.02-.27.04-.54.11-.79.18-.65.67-1.2.73-1.88.01-.2,0-.43.13-.59"/><path class="cls-2" d="M183.47,44.85c-.1-.63.38-1.19.56-1.8.09-.34.09-.71.09-1.06"/><path class="cls-2" d="M188.02,12.82c-.01-.31-.02-.61-.02-.92-.01-.06-.01-.12-.04-.17-.04-.08-.13-.11-.2-.15-.17-.11-.28-.3-.28-.5,0-.16.06-.31.08-.47.05-.37-.15-.72-.32-1.06-.16-.34-.29-.75-.1-1.08.06-.1.16-.21.12-.33,0-.01,0-.03-.02-.04-.03-.04-.06-.07-.1-.1-.47-.41-.49-1.91.44-2.38"/><path class="cls-2" d="M197.85,15.29c.3.18.74.05.93-.25.2-.3.18-.71,0-1.02-.09-.15-.21-.29-.35-.4s-.3-.19-.46-.26c-.22-.1-.46-.15-.7-.11-.06.01-.12.02-.18.05-.15.05-.29.14-.41.25-.66.58-.9,1.6-.55,2.41.05.12.12.24.2.35.34.49.88.83,1.47.91.09,0,.19.02.28.02.63,0,1.26-.28,1.68-.75.15-.16.27-.34.37-.53s.18-.39.25-.6c.04-.1.07-.21.1-.31.13-.39.22-.78.27-1.19.08-.54.09-1.09.03-1.64-.03-.27-.07-.54-.12-.81s-.11-.54-.16-.8c-.11-.51-.22-1.03-.36-1.53-.23-.87-.52-1.71-.97-2.47,0-.01,0-.01,0-.02-.08-.13-.17-.26-.26-.39-.37-.54-.82-1.02-1.3-1.47-.33-.32-.69-.62-1.04-.92-.26-.23-.53-.45-.81-.64-.15-.12-.31-.22-.47-.31-1.02-.57-2.25-.73-3.41-.58-1.17.14-2.28.57-3.31,1.12-.22.12-.44.24-.64.4-.11.07-.2.15-.29.25-.23.26-.38.58-.37.92,0,.04,0,.09.01.13.03.2.15.39.31.52.12.11.28.17.44.17"/><path class="cls-2" d="M197.09,13.3c-.12-.09-.21-.33-.2-.47,0-.15.06-.29.16-.39.02-.02.03-.05.04-.07,0-.04-.05-.07-.09-.09-.21-.13-.3-.4-.32-.65-.02-.2.05-.45.07-.67,0-.13-.01-.24-.06-.33-.04-.07-.04-.16-.05-.24-.01-.48-.02-.95-.03-1.43-.22-.25-.44-.54-.59-.83-.03-.04-.05-.09-.05-.13-.01-.06,0-.12.01-.18.02-.11.05-.21.07-.32-.24.01-.4-.08-.53-.27-.05-.09-.09-.19-.17-.26-.07-.06-.17-.09-.23-.16-.18-.2.04-.55-.1-.79-.19-.3-.74-.08-.95-.37-.09-.13-.1-.34-.25-.38-.05-.02-.1,0-.15.01-.39.09-.86.19-1.13-.1-.06-.07-.1-.15-.17-.2-.19-.17-.48-.11-.73-.08-.26.03-.59-.06-.62-.31-.32.29-.77.43-1.2.37-.03.23-.25.42-.48.41-.1,0-.19-.04-.29-.03-.19,0-.34.15-.5.27-.08.06-.18.11-.28.13-.08.03-.15.04-.22.05h-.03"/><path class="cls-2" d="M198.45,13.58c.02-.51.01-1.02-.03-1.52-.03-.56-.09-1.11-.2-1.64-.1-.54-.23-1.06-.41-1.57-.22-.65-.5-1.27-.85-1.85-.09-.17-.19-.33-.3-.49-.22-.33-.46-.65-.74-.94-.09-.1-.19-.2-.3-.3-.37-.33-.8-.61-1.25-.81-.8-.37-1.68-.55-2.56-.55-1.38-.01-2.74.39-3.99.97-.22.11-.34.21-.56.09"/><path class="cls-2" d="M198.9,6.2c.29-1.59-.26-3.15-1.13-4.38-.44-.63-.99-1.23-1.72-1.49-.61-.22-1.28-.19-1.93-.13-.57.05-1.14.12-1.69.25-1.86.45-3.53,1.71-4.52,3.34"/><path class="cls-2" d="M188.28,5.72s-.01,0-.01.02c-.05.12-.05.36-.02.48.27,1.39.55,2.8,1.22,4.05.09.16.18.32.33.41s.38.09.48-.05c.06-.07.08-.16.14-.21.09-.09.24-.07.37-.09h.04c.14-.02.29-.19.18-.29"/><path class="cls-2" d="M190.85,9.58c.21-.01.43.02.59.16.16.13.21.41.06.55"/><path class="cls-2" d="M189.28,6.85c.16.08.36.03.51-.07s.26-.24.4-.35c.16-.12.34-.21.53-.25.14-.03.28-.04.41-.04.23-.01.47.06.7.12.11.03.22.06.33.08"/><path class="cls-2" d="M190.39,7.16c.26,0,.43.21.52.41"/><path class="cls-2" d="M190.35,7.52c.03-.12.04-.24.04-.36,0-.25-.06-.5-.2-.7"/><path class="cls-2" d="M191.8,12.09c-.16-.02-.27-.15-.36-.28-.09-.15-.1-.34-.02-.49-.19-.06-.36.09-.52-.02-.1-.07-.11-.22-.1-.34v-.55"/><path class="cls-2" d="M196.41,10.94c-.47.73-1.07,1.37-1.78,1.87-.27.19-.46.41-.79.42-.24.01-.47.01-.7.02-.22,0-.45.01-.67.01-.16,0-.35,0-.47-.11-.13-.12-.15-.32-.16-.5,0-.19,0-.37-.02-.56"/><path class="cls-2" d="M192.56,10.94c-.01.12-.1.25-.21.29-.05.01-.1,0-.16,0-.19-.03-.6.01-.77.09"/><path class="cls-2" d="M191.35,6.92c.24-.07.55-.33.48-.66"/><path class="cls-2" d="M193.14,13.28c.01.28.01.55.02.83-.19.04-.37.17-.45.35-.09.19-.1.39-.07.59.02.16.07.31.14.45.21.44.61.79,1.06.99.08.03.17.06.26.09.72.2,1.5.06,2.18-.24"/><path class="cls-2" d="M193.13,16.8c.48.55,1.36,1.63,1.84,2.18.27.31.55.62.91.83.35.2.81.28,1.18.1.25-.12.43-.35.56-.59.32-.57.39-1.44.46-2.08"/><path class="cls-2" d="M192.39,18.55c1.16.92,2.18,2.01,3.04,3.21.08.12.17.25.3.31.23.13.52.03.76-.1,1.52-.81,2.4-2.42,3.19-3.96"/><path class="cls-2" d="M190.87,21.26c.62-.34,1.31-.68,2-.53,1.46.32,1.89,2.55,3.36,2.78.9.14,1.7-.56,2.28-1.27.96-1.18,1.76-2.61,1.67-4.13"/><path class="cls-2" d="M190.53,16.69c.31-.14.65.1.89.34s.54.51.87.43c.35-.09.5-.54.84-.66.24-.08.55,0,.7-.2"/><path class="cls-2" d="M200.59,15.08c1.45.11,2.84.86,3.74,2.01.79,1.01,1.18,2.32,1.09,3.6,0,.18-.03.36-.06.53-.1.6-.59,1.11-1.13,1.4-.53.3-1.25.29-1.73-.09-.17-.13-.3-.3-.43-.47-.14-.19-.27-.38-.4-.58-.17-.26-.33-.53-.5-.8-.07-.1-.13-.21-.16-.32s-.02-.23-.02-.34c.04-.62.07-1.23.1-1.85.02-.44-.05-.91-.22-1.32-.07-.17-.15-.33-.27-.47-.14-.16-.3-.29-.47-.42"/><path class="cls-2" d="M205.34,28.1s0,.03,0,.04c-.1.37-1.54.48-1.79.5-.21.02-.39-.07-.55-.22-.12-.1-.22-.23-.31-.36-.75-1.04-1.42-2.15-1.81-3.37-.38-1.22-.12-2.8.3-4.01"/><path class="cls-2" d="M205.18,25.45c-.54.01-1.55-.3-1.97-.64-.8-.66-1.88-2.18-1.54-3.33"/><path class="cls-2" d="M205.41,20.69h0c.31,0,.6.14.87.31.71.46,1.62,1.17,1.62,1.82"/><path class="cls-2" d="M206.73,51.85c-.2-.4-.4-.8-.65-1.16-.26-.36-.96-1.02-1.36-1.24"/><path class="cls-2" d="M206.69,49.98c.08-.29-.08-.59-.29-.8-.21-.2-.48-.35-.69-.56"/><path class="cls-2" d="M195.54,52.53c-.44-.22-.98-.21-1.43-.42-.23-.11-.43-.28-.61-.46-.63-.62-1.11-1.44-1.11-2.33"/><path class="cls-2" d="M193.9,49.07c.19.16.33.38.4.61"/><path class="cls-2" d="M173.49,55.16l2.55.14c.62-.72,1.74-1.05,2.54-.57.18.11.34.26.54.35.26.13.57.14.87.14,1.03.03,2.06.06,3.1.09l1.04-.54c.26-.3.39-.68.57-1.03.17-.36.4-.71.77-.86,0,0-.5,1.16-.17,1.73.23.4.38-.84.68-1.19,0,0-.24-1.59,0-1.41,1.08.81,1.06,2.44,2.25,3.08l3.57.22c-2.02-.77-2.43-1.95-3.52-3.74"/><path class="cls-2" d="M198.89,44.94c.56-.32,1.12-.64,1.67-.97.45-.25.89-.51,1.38-.67.7-.24,1.45-.26,2.18-.28"/><path class="cls-2" d="M200.83,45.06c1.22-.43,2.54-.56,3.81-.38"/><path class="cls-2" d="M206.47,43.25c.71.44,1.41.92,2.05,1.46.64.52,1.23,1.1,1.73,1.75.18.24.35.49.5.75.15.28.28.57.37.87.12.43.16.87.17,1.32.02.86-.06,1.75-.45,2.51-.29.59-.76,1.07-1.21,1.54-.43.45-.88.91-1.43,1.18-.84.42-1.84.37-2.75.15l-1.14.02-7.51.12c-1.06.06-2.15-.17-3.1-.64-.25-.13-.5-.27-.76-.38-.42-.16-.87-.21-1.3-.33-.66-.18-1.26-.5-1.85-.83-.43-.23-.87-.47-1.22-.82-.11-.11-.21-.23-.29-.35-.05-.08-.1-.15-.14-.23-.31-.57-.4-1.26-.24-1.88"/><path class="cls-2" d="M191.55,40.07c.76-.29,1.56-.46,2.37-.55.63-.07,1.26-.09,1.89-.07.17,0,.35.01.53.03,1.4.1,2.78.41,4.14.86,1.85.62,3.64,1.51,5.32,2.5.22.13.44.26.66.4"/><path class="cls-2" d="M195.93,39.44s-.07,0-.12,0c-.35-.06-1.04-.31-1.24-.43-1.22-.73-1.31-2.17-.94-3.46.01-.05.03-.09.04-.14.53-1.76,2.5-2.62,4.04-3.63,1.02-.67,2.06-1.33,3.11-1.97.7-.44,1.41-.87,2.11-1.3"/><path class="cls-2" d="M200.87,24.69c-.15.24-.27.54-.35.89-.33,1.32-.15,3.23.3,4.22"/><path class="cls-2" d="M196.37,39.5s-.02-.01-.03-.02c-.5-.29-1.01-.59-1.37-1.04-.44-.54-.62-1.23-.79-1.9"/><path class="cls-2" d="M200.44,40.34h.04c.36,0,.71-.06,1.04-.19.4-.15.76-.38,1.09-.64.62-.48,1.16-1.05,1.67-1.65,1.16-1.36,2.15-2.88,2.93-4.5"/><path class="cls-2" d="M204.32,41.91c-.29-1.12.15-2.3.66-3.33.42-.84.9-1.64,1.43-2.41s1.13-1.51,1.88-2.08c.75-.56,1.67-.95,2.6-.92"/><path class="cls-2" d="M206.47,43.25s0-.01-.01-.01c-.87-1.58-1.05-3.53-.47-5.24"/><path class="cls-2" d="M210.82,47.16c.69.4,1.45.68,2.22.83.08.02.15.03.22,0,.15-.06.18-.28.19-.45.04-1.83.08-3.66.12-5.5v-.04"/><path class="cls-2" d="M211.21,40.53v-.03c-.07.02-.08.04-.12.1-.81,1.33-1.33,2.86-2.4,4-.02.02-.08.05-.11.03-.01,0-.01-.01-.01-.02"/><path class="cls-2" d="M214.3,39.36h0c-.04.5-.07.97-.11,1.46-.02.19-.03.39-.11.57-.09.2-.26.37-.41.53-.04.04-.07.08-.1.12-.77.86-1.27,1.93-2.04,2.77-.06.06-.15.13-.21.07-.03-.03-.03-.08-.03-.12-.03-1.41-.06-2.81-.08-4.22"/><path class="cls-2" d="M212.59,46.12c-.15-.51-.49-.99-.98-1.37"/><path class="cls-2" d="M211.2,40.59s0-.03.01-.05h0c.07-.41.31-.74.47-1.1.28-.64.3-1.37.3-2.07.01-1.33-.02-2.65-.09-3.98"/><path class="cls-2" d="M207.3,28.14c.39.28.92.56,1.33.8,1.47.82,2.56,2.3,2.93,3.94"/><path class="cls-2" d="M211.85,38.99c.05.17.23.25.38.33.5.27.9.71,1.12,1.22.02.04.04.07.05.11"/><path class="cls-2" d="M212.72,34.11v1.34c0,.05,0,.11.02.16.03.06.07.11.12.13.58.24.34,1.08.36,1.46"/><path class="cls-2" d="M213.35,40.54c.37-.46.32-1.2-.11-1.6-.06-.06-.14-.13-.12-.22.01-.06.07-.11.13-.15.43-.29.83-.66,1.03-1.14.21-.48.2-1.07-.11-1.48-.09-.11-.19-.2-.24-.32-.07-.15-.06-.31-.06-.47.03-.64.05-1.28.08-1.91-.27-.46-.71-.83-.83-1.33-.11-.43-.28-.89-1.02-1.54-.93-.83-.87.33-1.67-.99"/><path class="cls-2" d="M212.23,28.63c.69.18,1.23.74,1.66,1.31.2.25.38.51.51.8.03.06.06.12.08.19.3.79.14,1.67-.02,2.5"/><path class="cls-2" d="M214.28,39.41s.01-.03.02-.04c.18-.13.98.9,1.57.8.62-.11,1.14-.57,1.46-1.11s.47-1.17.58-1.79c.62-3.6-.12-7.4-2.02-10.52-.01-.02-.03-.05-.04-.07"/><path class="cls-2" d="M216.57,20.68c.35,1.62.06,3.32-.36,4.93-.1.38-.21.76-.32,1.14-.14.48-.3.96-.46,1.44-.31.86-.65,1.72-1.03,2.55,0,.02-.01.03-.02.05"/><path class="cls-2" d="M216.59,20.75s0-.05,0-.07c-.04-.61-.35-1.18-.66-1.72-.68-1.21-1.77-1.99-2.54-3.13-.15-.22-.28-.39-.43-.61-.48-.06-.97-.11-1.44-.23l-.21-.06c-.51-.14-1.02-.34-1.54-.44-.26-.05-.53-.07-.8-.05-.07.01-.14.02-.19.06-.04.04-.06.09-.08.14-.1.29-.12.6-.07.89,0,.03.01.06.02.08,0,.03.01.06.02.09"/><path class="cls-2" d="M208.92,20.32s0,.01.01.02c.04.04.1.03.15.03.2-.02.38-.03.56-.04.04-.01.08-.01.12-.01.24-.02.47-.04.72-.05.04.14.08.28.12.43.09.28.2.55.35.8.1.16.21.31.35.43.19.18.41.31.66.37.31.07.64.02.94.1.24.05.45.19.66.32"/><path class="cls-2" d="M209.14,19.34h-.04c-.08,0-.18.02-.22.08,0,0-.02.01-.02.02-.02.04-.02.08-.02.13,0,.21.01.43.03.64.01.04.02.08.04.11"/><path class="cls-2" d="M209.3,18.79c.15,0,.3,0,.46-.01s.32-.03.49-.04c.18-.03.38-.05.55.01.18.07.35.31.29.48-.45.03-.89.05-1.33.07-.19.02-.39.03-.58.04"/><path class="cls-2" d="M208.65,15.61c.37-.03.74,0,1.11.05.28.03.56.09.83.14.24.05.48.11.71.18.3.1.59.23.82.43-.27-.03-.54-.05-.82-.07-.51-.05-1.02-.07-1.54-.08-.31-.01-.61-.01-.91-.01-.02,0-.04,0-.06.01-.21,0-.41,0-.61,0-.03.23-.07.45-.1.68-.01.07-.02.14,0,.2,0,.02.02.05.05.06.06.08.19.11.3.11.29-.01.58-.11.87-.18.15-.03.3-.05.45-.06h0c.53-.03,1.07.08,1.54.32.07.03.14.07.2.11-.06,0-.13,0-.2.02-.51.03-1.02.01-1.54.02-.55,0-1.09.03-1.62.16-.02.25,0,.51.08.76.01.04.03.09.05.13.02.03.04.05.06.08.02,0,.04.03.06.03.07.05.17.06.26.07.11.01.23.01.35.01h.21"/><path class="cls-2" d="M208.91,20.32c0,.17-.01.35,0,.52,0,.05,0,.11.05.15.03.02.07.03.1.04.2.05.46.14.63.14.04-.04.05-.1.05-.15.02-.22.02-.44-.01-.66,0-.01,0-.02-.01-.03h-.08s-.09-.01-.13-.01c-.17,0-.44-.07-.59,0h0Z"/><path class="cls-2" d="M208.88,19.42s-.03,0-.04.01c-.22.08-.49-.03-.59-.24-.08-.17-.04-.39.02-.59,0-.02,0-.03.01-.05.03.06.07.12.11.16.06.06.13.1.21.12.08.01.16-.01.23-.03.06-.01.11-.01.17-.01.07-.01.14-.01.21,0h.09c.16.01.3.02.46.02h.01s.04.01.05.02.01.03,0,.04c-.01.1-.02.19-.03.29-.01.03-.02.06-.03.08,0,.01,0,.01,0,.02-.03.02-.07.02-.11.02-.15,0-.31.02-.46.06h-.04c-.09.02-.18.04-.26.08Z"/><path class="cls-2" d="M209.76,17.49s-.02.02-.03.02c-.18.05-.36.04-.55.04-.33,0-.71.02-1.03.13-.17-.13-.22-.38-.13-.57.02.04.06.08.11.1.1.07.23.1.33.09.14-.01.28-.06.42-.11.27-.08.54-.13.82-.12h.05s0,.02,0,.03c.01.01.01.03.02.05.01.1.02.19.01.29,0,.01,0,.03-.01.04,0,.01-.01.01-.02.01Z"/><path class="cls-2" d="M208.88,16.2s-.01.04-.03.05c-.01.01-.02.02-.04.02,0,0-.01,0-.02,0-.04-.02-.05-.06-.07-.1-.07-.2-.11-.41-.11-.63"/><path class="cls-2" d="M215.42,28.17s.01.01.01.02c.79,1.6,1.17,3.42,1.09,5.2-.02.48-.08,1.01-.42,1.35-.34.35-.83,0-1.24,0,.03.62.5,1.5,1.01,1.85"/><path class="cls-2" d="M214.46,36.64c.1.38.46.88.82,1.02.37.14.79.1,1.12-.11.42-.27.64-.76.76-1.24.13-.48.18-.98.37-1.43"/><path class="cls-2" d="M214.46,38.53c.06.42.43.76.85.84.41.07.85-.09,1.16-.37.32-.28.52-.67.63-1.08"/><path class="cls-2" d="M179.82,50.37c-.6-.04-.81.81-1.31,1.14-.2.12-.45.16-.68.2-.79.12-1.58.24-2.37.35-.38.06-.78.13-1.09.36-.33.25-.52.66-.9.81-.45.17-1.09-.03-1.32.38-.1.19-.06.44-.15.63-.13.31-.51.39-.83.52-.31.12-.62.46-.46.75l2.78-.35c-.07-.19.21-.31.39-.41.38-.21.46-.72.67-1.1.49-.86,1.64-1.03,2.63-1.08.98-.05,2.13-.17,2.66-1,.19-.29.27-.63.34-.97l.09-.45c.18-.83.57-1.66,1.24-2.18.55-.44,1.33-.62,2-.45.26.07.47.26.59.49.23.46.49,1.02.77,1.44,1.03-.08,2.02-.06,3.03-.05.3.01.6.02.91.02,1.2.01,2.41-.02,3.61-.11.07-.18.27-.28.46-.34.27-.07.58-.15.83-.01.06.03.11.08.18.11h.01c.06.03.14.03.19-.02.23-.2.57-.26.86-.38.12-.05.25-.1.36-.19.09-.06.17-.14.26-.2.1-.05.21-.08.32-.1,1.67-.3,3.38-.19,5.06-.09.55.04,1.09.07,1.62.16.31.05.62.12.91.25.3.15.56.37.82.59.15.12.29.23.4.35.01.01.02.01.02.01.11.12.2.25.27.42.16.37.19.78.15,1.18-.05.49-.21.97-.38,1.44-.09.25-.22.54-.48.6"/><path class="cls-2" d="M191.7,38.02c.24-.73.37-1.5.49-2.26.05-.31.09-.63.11-.95.02-.17.02-.34.02-.51-.02-.69-.2-1.37-.52-1.97"/><path class="cls-2" d="M190.32,37.21c.02-.25.2-.45.33-.65.3-.44.48-.97.5-1.5"/><path class="cls-2" d="M192.81,34.54v.94s0,.08.02.11c.03.04.08.05.12.05.23,0,.46-.02.66-.11"/><path class="cls-2" d="M192.47,34.82c.12-.07.23-.14.34-.23.4-.32.71-.75.87-1.24.19-.61.15-1.3-.12-1.88,0-.01-.01-.01-.01-.02"/><path class="cls-2" d="M192.38,38.83c.16,0,.31-.12.39-.26.07-.15.09-.31.11-.48.05-.61.04-1.22-.03-1.83"/><path class="cls-2" d="M191.99,31.27c.37.3.88.37,1.34.27.08-.02.15-.04.23-.07.37-.11.71-.32,1.02-.56,1.06-.79,1.95-2.04,2.4-3.28"/><path class="cls-2" d="M195.28,26.23c-.25.72-.16,1.56.26,2.2.06.09.13.18.22.21"/><path class="cls-2" d="M195.54,25.49c.2.42.39.85.59,1.28.1.21.2.43.37.6.14.13.3.21.48.26.37.1.8.04,1.17-.08.35-.11.69-.26.99-.47.53-.38.9-.96,1.05-1.58.08-.35.1-.72.04-1.07-.07-.42-.24-.82-.45-1.2-.12-.23-.26-.45-.41-.66"/><path class="cls-2" d="M200.6,21.05c-.12.7-.37,1.62-.82,2.18"/><path class="cls-2" d="M194.64,25.61c-.19.65-.79,1.08-1.36,1.44-.35.22-.71.43-1.09.6"/><path class="cls-2" d="M191.43,18.57c-.85.69-1.18,1.96-.77,2.98.09.22.22.44.4.59s.43.24.66.2"/><path class="cls-2" d="M189.94,14.97c.53.03,1.06.19,1.52.48.2.12.39.27.62.32s.51-.02.61-.23"/><path class="cls-2" d="M169.37,29.09c.24-.72.55-1.41.92-2.07.64-1.11,1.53-2.16,2.7-2.66.15-.06.3-.12.45-.16"/><path class="cls-2" d="M177.49,25.66c.33,1.18.65,2.17,1.4,3.14"/><path class="cls-2" d="M174.98,20.66c1.12-.78,2.3-1.47,3.53-2.08.46-.23.94-.45,1.45-.45.45,0,.87.17,1.27.34"/><path class="cls-2" d="M188.07,11.7c.46-.04.9-.33,1.12-.75"/><path class="cls-2" d="M187.6,10.18c.42-.03.8-.36.89-.76"/><path class="cls-2" d="M187.21,8.1h.03c.38.02.75-.23.89-.58"/><path class="cls-2" d="M190.35,11.56c.06.37-.09.76-.33,1.05s-.57.5-.89.68"/><path class="cls-2" d="M190.13,14.15c.59-.39.98-1.06,1.03-1.77"/><path class="cls-2" d="M191.34,14.9c.35-.29.54-.74.52-1.19"/><path class="cls-2" d="M197.08,6.92c.58-.41,1.35-.52,2.02-.29"/><path class="cls-2" d="M195.99,5.51c.27-.57.97-.91,1.59-.76"/><path class="cls-2" d="M197.99,8.79c.29-.27.71-.39,1.11-.33.39.06.75.3.96.64"/><path class="cls-2" d="M198.18,10.46s.02-.03.04-.04c.22-.24.58-.36.9-.29.18.05.35.14.5.24.41.27.77.63,1.04,1.04,0,.01,0,.02.02.03"/><path class="cls-2" d="M198.58,12.05c.43.02.85.22,1.13.54.29.32.45.76.43,1.19"/><path class="cls-2" d="M194.39,4.43c.32-.53.72-1.12,1.33-1.22"/><path class="cls-2" d="M193.42,2.32c-.37.3-.64.73-.76,1.2"/><path class="cls-2" d="M191.63,2.49c-.3.28-.47.7-.46,1.12"/><path class="cls-2" d="M190.13,2.84c-.25.2-.36.56-.27.86"/><path class="cls-2" d="M188.84,3.37c-.11.22-.16.47-.13.72"/><path class="cls-2" d="M191.79,12.09h.03c.29.05.6,0,.87-.13"/><path class="cls-4" d="M16,40.53v-.03c.07.02.08.04.12.1.81,1.33,1.33,2.86,2.4,4,.02.02.08.05.11.03l.06.08c.65-.54,1.34-1.02,2.05-1.46,0,0,0-.01.01-.01.22-.14.44-.27.66-.4,1.68-.99,3.47-1.88,5.32-2.5,1.36-.45,2.74-.76,4.14-.86.18-.02.36-.03.53-.03v-.02c.35-.06,1.04-.31,1.24-.43,1.22-.73,1.31-2.17.94-3.46-.01-.05-.03-.09-.04-.14-.53-1.76-2.5-2.62-4.04-3.63-1.02-.68-2.06-1.33-3.11-1.98-.7-.43-1.41-.86-2.11-1.29l-.06-.08c-.16.15-.34.24-.55.22-.25-.02-1.69-.13-1.79-.5h-2.68v-1.05h-.91v1.05h-.84v.31h-.37v.45h-1.17v-.76h-.93v.49c-.69.18-1.23.74-1.66,1.31-.2.25-.38.51-.51.8-.38-.83-.72-1.69-1.03-2.55-.16-.48-.32-.96-.46-1.44-1.9,3.12-2.64,6.92-2.02,10.52.11.62.26,1.25.58,1.79s.84,1,1.46,1.11c.59.1,1.39-.93,1.57-.8.04.49.07.96.11,1.45.02.19.03.39.11.57.09.2.26.37.41.53.04.04.07.08.1.12.77.86,1.27,1.93,2.04,2.77.06.06.15.13.21.07.03-.03.03-.08.03-.12.03-1.41.06-2.81.08-4.22h0Z"/><path class="cls-3" d="M15.91,21.93c.14-.12.25-.27.35-.43.15-.25.26-.52.35-.8.04-.15.08-.29.12-.43.25.01.48.03.72.05.04,0,.08,0,.12.01.04,0,.09-.01.13-.01.17,0,.44-.07.59,0h.01s.03-.07.04-.11c.02-.21.04-.43.03-.64,0-.05,0-.09-.02-.13,0,0-.02-.02-.02-.02-.08-.04-.17-.06-.26-.08h-.04c-.19-.01-.39-.02-.58-.04h0c-.44-.02-.88-.04-1.33-.07-.06-.17.11-.41.29-.48.17-.06.37-.04.55-.01.17.01.33.03.49.04.15.01.3.01.46.01h.1c.07-.01.14-.01.21,0,.11,0,.22,0,.34-.01.09-.01.19-.02.26-.07.04-.04.07-.1.11-.16,0,0,0,.03,0,.04.02-.04.04-.08.05-.12.08-.25.1-.51.08-.76-.53-.13-1.07-.16-1.62-.16-.52-.01-1.03,0-1.54-.02-.07-.01-.14-.01-.2-.02.06-.04.13-.08.2-.11.47-.24,1.01-.35,1.54-.32h.02s.03-.01.04-.01c.28-.01.55.04.82.12.14.05.28.1.42.11.11,0,.24-.03.34-.09.02-.01.03-.04.04-.06.02-.06.01-.13,0-.2-.03-.23-.07-.45-.1-.68-.2,0-.4,0-.61,0-.01,0-.02,0-.02,0-.02,0-.03,0-.04-.02-.3,0-.6,0-.91.01-.52,0-1.03.03-1.54.08-.28.02-.55.04-.82.07.23-.2.52-.33.82-.43.23-.07.47-.13.71-.18.27-.05.55-.11.83-.14.37-.05.74-.08,1.11-.05h0s.02-.05.02-.08c.05-.29.03-.6-.07-.89-.02-.05-.04-.1-.08-.14-.05-.04-.12-.05-.19-.06-.27-.02-.54,0-.8.05-.52.1-1.03.3-1.54.44l-.21.06c-.47.12-.96.17-1.44.23-.15.22-.28.39-.43.61-.77,1.14-1.86,1.92-2.54,3.13-.31.54-.62,1.11-.66,1.72h.01c-.35,1.62-.06,3.32.36,4.93.1.38.21.76.32,1.14.14.48.3.96.46,1.44.31.86.65,1.72,1.03,2.55.13-.29.31-.55.51-.8.43-.57.97-1.13,1.66-1.31v-.49h-1.1v-1.05h1.06v-1.06h-1.06v-1.13h1.06v-1.07h-1.06v-.94h2.03v-.96Z"/><path class="cls-4" d="M12.55,11.05c0,1.2,1.04,2.17,2.33,2.17.62,0,1.18-.22,1.6-.58v-1.4h.97v1.41c.41.36.97.57,1.57.57,1.29,0,2.34-.97,2.34-2.17s-1.03-2.15-2.31-2.16h-.02c-.68,0-1.29.26-1.71.69-.12.11-.22.23-.3.37-.03.03-.05.07-.07.1-.39-.69-1.17-1.16-2.07-1.16h-.02c-1.28,0-2.31.97-2.31,2.16ZM13.6,11.05c0-.63.55-1.15,1.24-1.15s1.24.52,1.24,1.15-.56,1.16-1.24,1.16-1.24-.52-1.24-1.16ZM17.73,11.05c0-.63.56-1.15,1.25-1.15s1.24.52,1.24,1.15-.56,1.16-1.24,1.16-1.25-.52-1.25-1.16Z"/><path class="cls-4" d="M16,40.54c-.02,1.41-.05,2.81-.08,4.22,0,.04,0,.09-.03.12-.06.06-.15-.01-.21-.07-.77-.84-1.27-1.91-2.04-2.77.04,1.84.08,3.67.12,5.5.01.17.04.39.19.45.07.03.14.02.22,0,.77-.15,1.53-.43,2.22-.83l.07.05c.15-.26.32-.51.5-.75.5-.65,1.09-1.23,1.73-1.75l-.06-.08s-.09-.01-.11-.03c-1.07-1.14-1.59-2.67-2.4-4-.04-.06-.05-.08-.12-.1v.03h0Z"/><polygon class="cls-4" points="13.88 27.09 13.88 28.14 14.98 28.14 15.91 28.14 15.91 22.89 13.88 22.89 13.88 23.83 14.94 23.83 14.94 24.9 13.88 24.9 13.88 26.03 14.94 26.03 14.94 27.09 13.88 27.09"/><path class="cls-4" d="M14.62,7.92c0,.35.08.68.24.97h.02c.9,0,1.68.47,2.07,1.16.02-.03.04-.07.07-.1.08-.14.18-.27.3-.37.42-.43,1.03-.69,1.71-.69h.02c.15-.29.24-.62.24-.97,0-1.2-1.04-2.17-2.34-2.17s-2.33.97-2.33,2.17ZM15.71,7.74c0-.64.56-1.15,1.24-1.15s1.24.51,1.24,1.15-.55,1.15-1.24,1.15-1.24-.52-1.24-1.15Z"/><path class="cls-4" d="M15.77,13.46v.44h.14v1.03c.51-.14,1.02-.34,1.54-.44v-3.25h-.97v1.95h-.14v.27h-.57Z"/><polygon class="cls-4" points="15.91 28.14 15.91 28.9 17.08 28.9 17.08 28.45 17.45 28.45 17.45 28.14 16.61 28.14 15.91 28.14"/><rect class="cls-4" x="15.91" y="22.89" width=".7" height="5.25"/><path class="cls-4" d="M15.91,21.93v.96h.7v-2.19c-.09.28-.2.55-.35.8-.1.16-.21.31-.35.43Z"/><path class="cls-4" d="M15.91,17.4v.13c.51.03,1.02.01,1.54.02v-.06s-.02,0-.02-.01c-.01,0-.01-.03-.01-.04-.01-.1,0-.19.01-.29,0-.02,0-.04.02-.05v-.02c-.53-.03-1.07.08-1.54.32Z"/><path class="cls-4" d="M15.91,15.98v.36c.51-.05,1.02-.07,1.54-.08v-.6c-.28.03-.56.09-.83.14-.24.05-.48.11-.71.18Z"/><path class="cls-4" d="M22.49,49.45s.01,0,.02-.01c.11-.12.25-.23.4-.35.26-.22.52-.44.82-.59.29-.13.6-.2.91-.25.53-.09,1.07-.12,1.62-.16,1.68-.1,3.39-.21,5.06.09.11.02.22.05.32.1.09.06.17.14.26.2.11.09.24.14.36.19.29.12.63.18.86.38.05.05.13.05.19.02h0c.07-.03.12-.08.18-.11.25-.14.56-.06.83.01.19.06.39.16.46.34,1.2.09,2.41.12,3.61.11.31,0,.61,0,.91-.02,1.01,0,2-.03,3.03.05.28-.42.54-.98.77-1.44.12-.23.33-.42.59-.49.67-.17,1.45.01,2,.45.67.52,1.06,1.35,1.24,2.18l.09.45h.02l.28-.28c.43-.44.83-.84,1.28-1.29.17-.18.35-.36.47-.58.18-.33.22-.72.28-1.09.17-.87.54-1.7.96-2.47.36-.64.76-1.41.4-2.05l-.02-.11h-.04c-.05,0-.1-.02-.15-.05-.33-.19-.6-.46-.85-.75l-1.34-1.58-.11.09c-1.94.95-4.15,1.1-6.31,1.23-.36.02-.79.02-1.02-.27-.06-.08-.11-.19-.2-.24-.07-.04-.17-.04-.25-.04-.49,0-1-.12-1.49-.08-.59.04-1.18-.01-1.76-.15-.07-.02-.15-.04-.21-.09-.07-.06-.11-.15-.14-.23-.18-.43-.32-1.13-.62-1.49-.05-.06-.41-.31-.64-.44-.12-.06-.18-.21-.13-.33.03-.09.08-.18.12-.26l-.05-.03c-.24-.73-.37-1.5-.49-2.26-.05-.31-.09-.63-.11-.95h-.17c-.12-.06-.23-.13-.34-.22v.89s0,.08-.02.11c-.03.04-.08.05-.12.05-.23,0-.46-.02-.66-.11h-.02c.37,1.3.28,2.74-.94,3.47-.2.12-.89.37-1.24.43v.02c-.17,0-.35.01-.53.03-1.4.1-2.78.41-4.14.86-1.85.62-3.64,1.51-5.32,2.5-.22.13-.44.26-.66.4-.01,0-.01.01-.01.01-.71.44-1.4.92-2.05,1.46-.64.52-1.23,1.1-1.73,1.75-.18.24-.35.49-.5.75-.15.28-.28.57-.37.87-.12.43-.16.87-.17,1.32-.02.86.06,1.75.45,2.51.29.59.76,1.07,1.21,1.54.43.45.88.91,1.43,1.18.84.42,1.84.37,2.75.15l1.14.02.03-1.71c-.26-.06-.39-.35-.48-.6-.17-.47-.33-.95-.38-1.44-.04-.4,0-.81.15-1.18.07-.17.16-.3.27-.42Z"/><path class="cls-4" d="M16.41,18.75c-.18.07-.35.31-.29.48.45.03.89.05,1.33.07v-.06s-.02-.05-.03-.08c-.01-.1-.02-.19-.03-.29-.01-.01-.01-.03,0-.04s.03-.02.05-.02h.01v-.03c-.16-.01-.32-.03-.49-.04-.18-.03-.38-.05-.55.01Z"/><rect class="cls-4" x="16.61" y="22.89" width=".84" height="5.25"/><path class="cls-4" d="M16.61,20.7v2.19h.84v-2.57c-.24-.02-.47-.04-.72-.05-.04.14-.08.28-.12.43Z"/><path class="cls-4" d="M17.39,18.83s-.01.03,0,.04c0,.1.02.19.03.29.01.03.01.06.03.08v-.43h-.01s-.04.01-.05.02Z"/><path class="cls-4" d="M17.43,17.15c-.01.1-.02.19-.01.29,0,.01,0,.03.01.04,0,.01,0,.01.02.01v-.39s-.01.03-.02.05Z"/><polygon class="cls-4" points="21.88 28.14 21.9 28.14 21.9 26.14 20.61 26.14 20.61 27.09 19.7 27.09 19.7 26.14 18.75 26.14 18.75 24.9 19.7 24.9 19.7 23.94 20.61 23.94 20.61 24.9 21.9 24.9 21.9 22.89 19.3 22.89 19.2 22.89 19.2 23.94 18.29 23.94 18.29 22.89 17.45 22.89 17.45 28.14 18.29 28.14 18.29 27.09 19.2 27.09 19.2 28.14 19.91 28.14 21.88 28.14"/><path class="cls-4" d="M17.45,18.81v.43s0,.01.01.02c.03.02.07.02.11.02.15,0,.31.02.46.06h.08c.08,0,.18.02.22.08.01,0,.03,0,.04.01.22.08.49-.03.59-.24.08-.17.04-.39-.02-.59-.02.03-.04.05-.06.08-.02.02-.04.03-.06.03-.06.06-.13.1-.21.12-.08.01-.16-.01-.23-.03-.05-.01-.11-.01-.16-.01h-.31c-.16.01-.3.02-.46.02Z"/><path class="cls-4" d="M17.45,17.1v.39s.02.02.03.02c.18.05.36.04.55.04.33,0,.71.02,1.03.13.17-.13.22-.38.13-.57-.02.04-.06.07-.1.1-.07.08-.2.11-.31.11-.29-.01-.58-.11-.87-.18-.15-.03-.3-.05-.45-.06-.01,0-.01.01-.01.02Z"/><path class="cls-4" d="M18.36,16.25s.04,0,.06.01c.04-.02.05-.06.07-.1.07-.2.11-.41.11-.63h-.01s-.01.06-.02.08h0c-.37-.03-.74,0-1.11.05v.6c.31-.01.61-.01.91-.01Z"/><path class="cls-4" d="M17.48,20.36c-.03.22-.03.44,0,.66,0,.05,0,.11.05.15.17,0,.43-.09.63-.14.03-.01.07-.02.1-.04.04-.04.04-.1.05-.15.01-.17-.01-.35,0-.52h-.01s0,.01-.01.02c-.04.04-.1.03-.15.03-.2-.02-.38-.03-.56-.04h-.08s-.01.02-.01.03Z"/><path class="cls-4" d="M17.46,17.08c.15.01.3.03.45.06.29.07.58.17.87.18.11,0,.24-.03.31-.11-.1.06-.23.1-.34.09-.14-.01-.28-.06-.42-.11-.27-.08-.54-.13-.82-.12h-.05Z"/><path class="cls-4" d="M17.7,20.32s-.09.01-.13.01c.18.01.36.02.56.04.05,0,.11.01.15-.03t.01-.02c-.15-.07-.42,0-.59,0Z"/><path class="cls-4" d="M18.01,18.79h.21c-.07-.01-.14-.01-.21,0Z"/><path class="cls-4" d="M18.07,19.34c.09.02.18.04.26.08-.04-.06-.14-.07-.22-.08h-.04Z"/><path class="cls-4" d="M25.54,21.48c-.13.2-.26.39-.4.58-.13.17-.26.34-.43.47-.48.38-1.2.39-1.73.09-.54-.29-1.03-.8-1.13-1.4-.03-.17-.05-.35-.06-.53-.31,0-.6.14-.87.31-.71.46-1.62,1.17-1.62,1.82v.07h2.6v2.01h-1.29v-.96h-.91v.96h-.95v1.24h.95v.95h.91v-.95h1.29v2h-.02c.1.37,1.54.48,1.79.5.21.02.39-.07.55-.22.12-.1.22-.23.31-.36.75-1.04,1.42-2.15,1.81-3.37.38-1.22.12-2.8-.3-4.01-.17.27-.33.54-.5.8Z"/><path class="cls-4" d="M18.82,18.71s.04-.01.06-.03c.02-.03.04-.05.06-.08h0s0-.04,0-.05c-.04.06-.07.12-.11.16Z"/><path class="cls-4" d="M21.79,20.69c.01.18.03.36.06.53.1.6.59,1.11,1.13,1.4.53.3,1.25.29,1.73-.09.17-.13.3-.3.43-.47.14-.19.27-.38.4-.58.17-.26.33-.53.5-.8.07-.1.13-.21.16-.32s.02-.23.02-.34c-.04-.62-.07-1.23-.1-1.85-.02-.44.05-.91.22-1.32.07-.17.15-.33.27-.47.14-.16.3-.29.47-.42-.1-.19-.18-.39-.25-.6-.04-.1-.07-.21-.1-.31l-.11.03c-1.45.11-2.84.86-3.74,2.01-.79,1.01-1.18,2.32-1.09,3.6Z"/><path class="cls-4" d="M33.31,49.07c-.06.03-.14.03-.19-.02-.23-.2-.57-.26-.86-.38-.12-.05-.25-.1-.36-.19-.09-.06-.17-.14-.26-.2-.1-.05-.21-.08-.32-.1-1.67-.3-3.38-.19-5.06-.09-.55.04-1.09.07-1.62.16-.31.05-.62.12-.91.25-.3.15-.56.37-.82.59-.15.12-.29.23-.4.35-.01.01-.02.01-.02.01-.11.12-.2.25-.27.42-.16.37-.19.78-.15,1.18.05.49.21.97.38,1.44.09.25.22.54.48.6l-.03,1.71,7.51.12c1.06.06,2.15-.17,3.1-.64.25-.13.5-.27.76-.38.42-.16.87-.21,1.3-.33.66-.18,1.26-.5,1.85-.83.43-.23.87-.47,1.22-.82.11-.11.21-.23.29-.35.05-.08.1-.15.14-.23.31-.57.4-1.26.24-1.88v-.06c-.3.01-.6.02-.91.02-1.2.01-2.41-.02-3.61-.11-.07-.18-.27-.28-.46-.34-.27-.07-.58-.15-.83-.01-.06.03-.11.08-.18.11h0Z"/><path class="cls-4" d="M24.22,28.42l.06.08c.7.43,1.41.86,2.11,1.29.45-1,.63-2.9.3-4.22-.08-.34-.2-.64-.35-.88-.39,1.22-1.06,2.33-1.81,3.37-.09.13-.19.26-.31.36Z"/><path class="cls-4" d="M27.02,25.5c.15.62.53,1.2,1.05,1.58.3.21.64.36.99.47.37.12.8.18,1.17.08.45,1.24,1.34,2.49,2.4,3.28.31.24.65.45,1.02.56.08.03.15.05.23.07.46.1.97.03,1.34-.27h.24v-1.31h-.53v-2.05h1.86v-.05h-1.33v-1.29h1.33v-2.58s0-.02.01-.04c.02-1.1,1.01-2.07,2.47-2.58v-.03c-.7-.69-1.19-1.3-1.74-2.11-.21-.31-.42-.63-.54-.99-.13-.38-.17-.78-.16-1.18,0-.12.01-.23.02-.35l-.17-.02c-.31-.14-.65.1-.89.34s-.54.51-.87.43c-.35-.09-.5-.54-.84-.66-.48.55-1.36,1.63-1.84,2.18-.27.31-.55.62-.91.83-.35.2-.81.28-1.18.1-.25-.12-.43-.35-.56-.59-.32-.57-.39-1.44-.46-2.08-.63,0-1.26-.28-1.68-.75-.14-.16-.26-.34-.37-.53-.17.13-.33.26-.47.42-.12.14-.2.3-.27.47-.17.41-.24.88-.22,1.32.03.62.06,1.23.1,1.85,0,.11,0,.23-.02.34s-.09.22-.16.32c.42,1.21.68,2.79.3,4.01.15.24.27.54.35.88l.33-.07Z"/><path class="cls-4" d="M26.43,12.22c-.06.55-.05,1.1.03,1.64l.61-.08c-.02-.43.14-.87.43-1.19.28-.32.7-.52,1.13-.54h.16c.03-.55.09-1.1.2-1.63-.22-.24-.58-.36-.9-.29-.18.05-.35.14-.5.24-.41.27-.77.63-1.04,1.04-.05.27-.1.54-.12.81Z"/><path class="cls-4" d="M28.78,13.61l-.02-.03c-.02-.51-.01-1.02.03-1.52h-.16c-.43.01-.85.21-1.13.53-.29.32-.45.76-.43,1.19l-.61.08c.05.41.14.8.27,1.19.03.1.06.21.1.31.07.21.15.41.25.6.11.19.23.37.37.53.42.47,1.05.75,1.68.75.09,0,.19-.01.28-.02.59-.08,1.13-.42,1.47-.91.08-.11.15-.23.2-.35.35-.81.11-1.83-.55-2.41-.12-.11-.26-.2-.41-.25-.06-.03-.12-.04-.18-.05-.24-.04-.48.01-.7.11-.16.06-.32.15-.46.25Z"/><path class="cls-4" d="M26.71,10.61c-.06.26-.11.53-.16.8.27-.41.63-.77,1.04-1.04.15-.1.32-.19.5-.24.32-.07.68.05.9.29.1-.54.23-1.06.41-1.57l-.18-.06c-.29-.27-.71-.39-1.11-.33-.39.06-.75.3-.96.64l-.08-.02c-.14.5-.25,1.02-.36,1.53Z"/><path class="cls-4" d="M27.07,9.08l.08.02c.21-.34.57-.58.96-.64.4-.06.82.06,1.11.33l.18.06c.22-.65.5-1.27.85-1.85l-.12-.08c-.58-.41-1.35-.52-2.02-.29l-.06-.04s-.01,0-.01.02c-.45.76-.74,1.6-.97,2.47Z"/><path class="cls-4" d="M28.05,6.59l.06.04c.67-.23,1.44-.12,2.02.29l.12.08c.09-.17.19-.33.3-.49.22-.33.46-.65.74-.94l-.07-.06c-.27-.57-.97-.91-1.59-.76l-.02-.02c-.48.45-.93.93-1.3,1.47-.09.13-.18.26-.26.39Z"/><path class="cls-4" d="M29.44,1.82c-.87,1.23-1.42,2.79-1.13,4.38.37-.54.82-1.02,1.3-1.47.33-.32.69-.62,1.04-.92.26-.23.53-.45.81-.64.15-.12.31-.22.47-.31,1.02-.57,2.25-.73,3.41-.58,1.17.14,2.28.57,3.31,1.12.22.12.44.24.64.4h.01c-.99-1.64-2.66-2.9-4.52-3.35-.55-.13-1.12-.2-1.69-.25-.65-.06-1.32-.09-1.93.13-.73.26-1.28.86-1.72,1.49Z"/><path class="cls-4" d="M28.99,10.42c-.11.53-.17,1.08-.2,1.64-.04.5-.05,1.01-.03,1.52l.02.03c.14-.1.3-.19.46-.25.22-.1.46-.15.7-.11.06.01.12.02.18.05.12-.09.21-.33.2-.47,0-.15-.06-.29-.16-.39-.02-.02-.03-.05-.04-.07,0-.04.05-.07.09-.09.21-.13.3-.4.32-.65.02-.2-.05-.45-.07-.67,0-.13.01-.24.06-.33.04-.07.04-.16.05-.24.01-.48.02-.95.03-1.43.22-.25.44-.54.59-.83.03-.04.05-.09.05-.13.01-.06,0-.12-.01-.18-.02-.11-.05-.21-.07-.32.24.01.4-.08.53-.27.05-.09.09-.19.17-.26.07-.06.17-.09.23-.16.18-.2-.04-.55.1-.79.19-.3.74-.08.95-.37.09-.13.1-.34.25-.38.05-.02.1,0,.15.01.39.09.86.19,1.13-.1.06-.07.1-.15.17-.2.19-.17.48-.11.73-.08.26.03.59-.06.62-.31.32.29.77.43,1.2.37.03.23.25.42.48.41.1,0,.19-.04.29-.03.19,0,.34.15.5.27.08.06.18.11.28.13.08.03.15.04.22.05h.03c.16,0,.32-.06.44-.17.16-.13.28-.32.31-.52.01-.04.01-.09.01-.13-.22.12-.34.02-.56-.09-1.25-.58-2.61-.98-3.99-.97-.88,0-1.76.18-2.56.55-.45.2-.88.48-1.25.81-.11.1-.21.2-.3.3-.28.29-.52.61-.74.94-.11.16-.21.32-.3.49-.35.58-.63,1.2-.85,1.85-.18.51-.31,1.03-.41,1.57Z"/><path class="cls-4" d="M29.41,17.22c-.09,0-.19.02-.28.02.07.64.14,1.51.46,2.08.13.24.31.47.56.59.37.18.83.1,1.18-.1.36-.21.64-.52.91-.83.48-.55,1.36-1.63,1.84-2.18-.24-.08-.55,0-.7-.2v-.11l-.27.09c-.72.2-1.5.06-2.18-.24l-.05-.03c-.34.49-.88.83-1.47.91Z"/><path class="cls-4" d="M29.61,4.73l.02.02c.62-.15,1.32.19,1.59.76l.07.06c.09-.1.19-.2.3-.3.37-.33.8-.61,1.25-.81l-.02-.03c-.32-.53-.72-1.12-1.33-1.22l-.03-.04c-.28.19-.55.41-.81.64-.35.3-.71.6-1.04.92Z"/><path class="cls-3" d="M30.12,12.37s.02.05.04.07c.1.1.16.24.16.39.01.14-.08.38-.2.47.15.05.29.14.41.25.66.58.9,1.6.55,2.41-.05.12-.12.24-.2.35l.05.03c.68.3,1.46.44,2.18.24.09-.03.18-.06.26-.09.45-.2.85-.55,1.06-.99.07-.14.12-.29.14-.45.03-.2.02-.4-.07-.59-.08-.18-.26-.31-.45-.35.01-.28.01-.55.02-.83v-.03c-.23-.01-.46-.01-.7-.02-.33,0-.52-.23-.79-.42-.71-.5-1.31-1.14-1.78-1.87l-.34.02c.02.22.09.47.07.67-.02.25-.11.52-.32.65-.04.02-.09.05-.09.09Z"/><path class="cls-3" d="M35.79,11.32c.19-.06.36.09.52-.02.1-.07.11-.22.1-.34v-.63c.14.02.29,0,.38.09.06.05.08.14.14.21.1.14.33.14.48.05s.24-.25.33-.41c.67-1.25.95-2.66,1.22-4.05.03-.12.03-.36-.02-.48-.1-.02-.2-.07-.28-.13-.16-.12-.31-.26-.5-.27-.1-.01-.19.03-.29.03-.23.01-.45-.18-.48-.41-.43.06-.88-.08-1.2-.37-.03.25-.36.34-.62.31-.25-.03-.54-.09-.73.08-.07.05-.11.13-.17.2-.27.29-.74.19-1.13.1-.05-.01-.1-.03-.15-.01-.15.04-.16.25-.25.38-.21.29-.76.07-.95.37-.14.24.08.59-.1.79-.06.07-.16.1-.23.16-.08.07-.12.17-.17.26-.13.19-.29.28-.53.27.02.11.05.21.07.32.01.06.02.12.01.18,0,.04-.02.09-.05.13-.15.29-.37.58-.59.83-.01.48-.02.95-.03,1.43,0,.08,0,.17-.05.24-.05.09-.06.2-.06.33l.34-.02c.47.73,1.07,1.37,1.78,1.87.27.19.46.41.79.42.24.01.47.01.7.02.22,0,.45.01.67.01.16,0,.35,0,.47-.11.13-.12.15-.32.16-.5,0-.19.01-.37.02-.56h.02c.16-.02.27-.15.36-.28.09-.15.1-.34.02-.49Z"/><path class="cls-4" d="M31.46,3.17l.03.04c.61.1,1.01.69,1.33,1.22l.02.03c.8-.37,1.68-.55,2.56-.55,1.38-.01,2.74.39,3.99.97.22.11.34.21.56.09.01-.34-.14-.66-.37-.92-.09-.1-.18-.18-.29-.25-.2-.16-.42-.28-.64-.4-1.03-.55-2.14-.98-3.31-1.12-1.16-.15-2.39.01-3.41.58-.16.09-.32.19-.47.31Z"/><path class="cls-4" d="M33.37,16.49v.11c.16.2.47.12.71.2.34.12.49.57.84.66.33.08.63-.19.87-.43s.58-.48.89-.34l.17.02c.06-.59.22-1.18.47-1.72l-.05-.02c-.53.03-1.06.19-1.52.48-.2.12-.39.27-.62.32s-.51-.02-.61-.23l-.09-.04c-.21.44-.61.79-1.06.99Z"/><path class="cls-4" d="M34.4,34.59c.11.09.22.16.34.23h.17c-.02-.18-.02-.35-.02-.52.02-.69.2-1.37.52-1.97h.05v-1.06h-.24c-.37.3-.88.37-1.34.27-.08-.02-.15-.04-.23-.07-.27.58-.31,1.27-.12,1.88.16.49.47.92.87,1.24Z"/><path class="cls-4" d="M39.97,8.1s.06-.07.1-.1c.47-.41.49-1.91-.44-2.38-.12.11-.28.17-.44.17h-.03c-.07-.01-.14-.02-.22-.05.05.12.05.36.02.48-.27,1.39-.55,2.8-1.22,4.05-.09.16-.18.32-.33.41s-.38.09-.48-.05c-.06-.07-.08-.16-.14-.21-.09-.09-.24-.07-.37-.09v.08c-.01.18-.01.36-.01.55.01.12,0,.27-.1.34-.16.11-.33-.04-.52.02.08.15.07.34-.02.49-.09.13-.2.26-.36.28h-.02c-.01.19-.02.37-.02.56-.01.18-.03.38-.16.5-.12.11-.31.11-.47.11-.22,0-.45-.01-.67-.01v.03c0,.28,0,.55-.02.83.19.04.37.17.45.35.09.19.1.39.07.59-.02.16-.07.31-.14.45l.09.04c.1.21.38.28.61.23s.42-.2.62-.32c.46-.29.99-.45,1.52-.48l.05.02c.42-.87,1.06-1.63,1.86-2.15t0-.01h0c.01-.32.02-.62.02-.93.01-.06.01-.12.04-.17.04-.08.13-.11.2-.15.17-.11.28-.3.28-.5,0-.16-.06-.31-.08-.47-.05-.37.15-.72.32-1.06.16-.34.29-.75.1-1.08-.06-.1-.16-.21-.12-.33,0-.01.01-.03.02-.04Z"/><path class="cls-4" d="M34.89,34.3c0,.17,0,.34.02.51.02.32.06.64.11.95.12.76.25,1.53.49,2.26l.05.03c.22-.39.56-.71.97-.73.68-.02,1.35-.02,2.01,0v-.02l-3.08-3.72v-1.26h-.05c-.32.6-.5,1.28-.52,1.97Z"/><path class="cls-3" d="M35.46,29.96h5.11c.25-.32.62-.53,1.04-.53s.79.21,1.04.53h5.64v-2.05h-1.86v.04h-2.62v-.04h-8.88v2.05h.53Z"/><path class="cls-4" d="M35.41,55.31l3.57-.22c1.19-.64,1.17-2.27,2.25-3.08.24-.18,0,1.41,0,1.41.3.35.45,1.59.68,1.19.33-.57-.17-1.73-.17-1.73.37.15.6.5.77.86.18.35.31.73.57,1.03l1.04.54c1.04-.03,2.07-.06,3.1-.09.3,0,.61-.01.87-.14.2-.09.36-.24.54-.35.8-.48,1.92-.15,2.54.57l2.55-.14c.07-.19-.21-.31-.39-.41-.38-.21-.46-.72-.67-1.1-.49-.86-1.64-1.03-2.63-1.08-.98-.05-2.13-.17-2.66-1-.19-.29-.27-.63-.34-.97l-.09-.45c-.18-.83-.57-1.66-1.24-2.18-.55-.44-1.33-.62-2-.45-.26.07-.47.26-.59.49-.23.46-.49,1.02-.77,1.44-1.03-.08-2.02-.06-3.03-.05v.06c.16.62.07,1.31-.24,1.88-.04.08-.09.15-.14.23-1.09,1.79-1.5,2.97-3.52,3.74Z"/><path class="cls-3" d="M35.44,38.31c-.05.12.01.27.13.33.23.13.59.38.64.44.3.36.44,1.06.62,1.49.03.08.07.17.14.23.06.05.14.07.21.09.58.14,1.17.19,1.76.15.49-.04,1,.08,1.49.08.08,0,.18,0,.25.04.09.05.14.16.2.24.23.29.66.29,1.02.27,2.16-.13,4.37-.28,6.31-1.23l.11-.09-2.66-3.13c-.31.36-.66.64-1.05.89-.33-.4-.74-.64-1.2-.8-.52-.18-1.09-.26-1.65-.31-.13-.01-.26-.02-.4-.02-.46-.01-.92.05-1.24.33-.05.05-.11.1-.15.17-.48-.07-.96-.12-1.43-.15-.66-.03-1.33-.03-2.01,0-.41.02-.75.34-.97.73-.04.08-.09.17-.12.26Z"/><path class="cls-3" d="M35.46,32.33v1.26l3.08,3.72v.02c.47.03.95.08,1.43.15.04-.07.1-.12.15-.17.32-.28.78-.34,1.24-.33l.06-1.42c-.07,0-.14,0-.21-.04-.16-.07-.28-.19-.4-.31-.09-.09-.18-.18-.22-.3-.07-.22.06-.45.22-.61s.37-.28.52-.45c.14-.17.23-.44.1-.63-.05-.07-.12-.12-.19-.17-.34-.29-.57-.73-.54-1.17.02-.45.35-.88.78-.97.2-.04.4,0,.58.1l.59-1.05c-.25-.32-.62-.53-1.04-.53s-.79.21-1.04.53h-5.11v2.37Z"/><path class="cls-3" d="M35.46,26.57v1.29h3.95v-3.87c0-.45.99-.81,2.2-.81s2.2.36,2.2.81v3.92h3.95v-1.29h-1.33v-2.63c0-.38-.11-.74-.33-1.07-.69-1.12-2.44-1.92-4.49-1.92-.45,0-.89.04-1.3.11-.37.06-.72.15-1.04.26-1.46.51-2.45,1.48-2.47,2.58-.01.02-.01.03-.01.04v2.58h-1.33Z"/><path class="cls-4" d="M40.31,21.11c.41-.07.85-.11,1.3-.11,2.05,0,3.8.8,4.49,1.92.22.33.33.69.33,1.07v.22h.04c.12.15.25.16.44.17.16.01.33.01.49.03.35.37.72.76,1.18,1,.34.18.76.27,1.13.2v.05c-.32,1.18-.64,2.17-1.39,3.14h-.03v1.16h-.53v3.63l-3.07,3.72h-1.28c.46.16.87.4,1.2.8.39-.25.74-.53,1.05-.89.12-.26.24-.51.44-.71.18-.16.43-.27.66-.23l.02-.12c.18-.48.69-.74,1.04-1.12.81-.87.72-2.21.74-3.4,0-.36.04-.73.13-1.08.08-.33.22-.64.36-.94.52-1.12,1.09-2.22,1.71-3.3.39-.68.85-1.39,1.59-1.67.56-.21,1.18-.12,1.71.15l.16-.44c1.17.5,2.06,1.55,2.7,2.66.37.66.68,1.35.92,2.07h.56c0-1.83-.17-3.67-.53-5.46-2.89-2.6-5.85-5.27-9.52-6.57-.56-.91-1.48-1.64-2.36-2.25-1-.7-2.05-1.33-3.21-1.72-1.15-.39-2.41-.53-3.58-.23l-.02-.02c-.8.52-1.44,1.28-1.86,2.15-.25.54-.41,1.13-.47,1.72-.01.12-.02.23-.02.35-.01.4.03.8.16,1.18.12.36.33.68.54.99.55.81,1.04,1.42,1.73,2.11v.03c.33-.11.68-.2,1.05-.26Z"/><path class="cls-4" d="M39.41,27.86v.05h4.4v-3.92c0-.45-.99-.81-2.2-.81s-2.2.36-2.2.81v3.87Z"/><path d="M40.81,34.3c-.16.16-.29.39-.22.61.04.12.13.21.22.3.12.12.24.24.4.31.07.03.14.04.21.04.1,0,.2-.03.27-.09.13-.12.14-.32.09-.48-.06-.16-.17-.29-.28-.42.31-.26.61-.54.88-.85.11-.13.22-.27.22-.44-.01-.24-.24-.4-.46-.5-.57-.25-.68-.37-.07-.65.13-.06.26-.12.33-.24.06-.09.07-.2.06-.3-.03-.25-.19-.46-.4-.58-.18-.1-.38-.14-.58-.1-.43.09-.76.52-.78.97-.03.44.2.88.54,1.17.07.05.14.1.19.17.13.19.04.46-.1.63-.15.17-.36.29-.52.45Z"/><path class="cls-3" d="M41.42,35.56l-.06,1.42c.14,0,.27,0,.4.02.56.05,1.13.13,1.65.31h1.28l3.07-3.72v-3.63h-5.11l-.59,1.05c.21.12.37.33.4.58.01.1,0,.21-.06.3-.07.12-.2.18-.33.24-.61.28-.5.4.07.65.22.1.45.26.46.5,0,.17-.11.31-.22.44-.27.31-.57.59-.88.85.11.13.22.26.28.42.05.16.04.36-.09.48-.07.06-.17.09-.27.09Z"/><path class="cls-4" d="M46.1,36.51c-.2.2-.32.45-.44.71l2.66,3.13,1.34,1.58c.25.29.52.56.85.75.05.03.1.05.15.05h.04c.2,0,.36-.18.41-.37.04-.21-.04-.57-.1-.78,1.94-.23,4.08-.65,5.26-2.22.49-.65.76-1.43.99-2.21.77-2.62,1.15-5.34,1.14-8.07h-.56c-.24-.71-.55-1.4-.92-2.06-.64-1.11-1.53-2.16-2.7-2.66l-.16.44c.11.06.22.12.32.19.58.41,1,1.02,1.31,1.66.63,1.28.99,2.65.88,4.07-.18,2.17-.53,4.4-1.66,6.26-.38.62-.86,1.2-1.49,1.55-.41.22-.86.34-1.32.41-1.06.16-2.17.05-3.13-.41-.97-.46-1.73-1.23-2.1-2.23-.03-.01-.07-.02-.11-.02-.23-.04-.48.07-.66.23Z"/><path class="cls-4" d="M46.78,36.16l-.02.12s.08.01.11.02c.37,1,1.13,1.77,2.1,2.23.96.46,2.07.57,3.13.41.46-.07.91-.19,1.32-.41.63-.35,1.11-.93,1.49-1.55,1.13-1.86,1.48-4.09,1.66-6.26.11-1.42-.25-2.79-.88-4.07-.31-.64-.73-1.25-1.31-1.66-.1-.07-.21-.13-.32-.19-.53-.27-1.15-.36-1.71-.15-.74.28-1.2.99-1.59,1.67-.62,1.08-1.19,2.18-1.71,3.3-.14.3-.28.61-.36.94-.09.35-.12.72-.13,1.08-.02,1.19.07,2.53-.74,3.4-.35.38-.86.64-1.04,1.12Z"/><path class="cls-4" d="M47.05,50.6h-.02c.07.34.15.68.34.97.53.83,1.68.95,2.66,1,.99.05,2.14.22,2.63,1.08.21.38.29.89.67,1.1.18.1.46.22.39.41l2.78.35c.16-.29-.15-.63-.46-.75-.32-.13-.7-.21-.83-.52-.09-.19-.05-.44-.15-.63-.23-.41-.87-.21-1.32-.38-.38-.15-.57-.56-.9-.81-.31-.23-.71-.3-1.09-.36-.79-.11-1.58-.23-2.37-.35-.23-.04-.48-.08-.68-.2-.5-.33-.71-1.18-1.31-1.14l-.06-.05-.28.28Z"/><line class="cls-2" x1="43.81" y1="27.91" x2="39.41" y2="27.91"/><path class="cls-2" d="M36.79,27.91h-1.86v2.05h5.64c.25-.32.62-.53,1.04-.53s.79.21,1.04.53h5.64v-2.05h-.53"/><polyline class="cls-2" points="35.46 29.87 35.46 29.96 35.46 31.27 35.46 32.33 35.46 33.59 38.54 37.31"/><polyline class="cls-2" points="47.76 29.87 47.76 29.96 47.76 33.59 44.69 37.31 43.41 37.31"/><path class="cls-2" d="M46.43,27.91h1.33v-1.29h-1.33v-2.63c0-.38-.11-.74-.33-1.07-.69-1.12-2.44-1.92-4.49-1.92-.45,0-.89.04-1.3.11-.37.06-.72.15-1.04.26-1.46.51-2.45,1.48-2.47,2.58-.01.02-.01.03-.01.04v2.58h-1.33v1.29h1.33"/><path class="cls-2" d="M39.41,27.86v-3.87c0-.45.99-.81,2.2-.81s2.2.36,2.2.81v3.92"/><polyline class="cls-2" points="43.81 27.91 43.81 27.95 46.43 27.95 46.43 27.91"/><rect class="cls-2" x="36.79" y="27.86" width="2.62" height=".05"/><path class="cls-2" d="M45.12,26.66v-2.81s-1.22-1.48-3.51-1.48"/><path class="cls-2" d="M38.1,26.66v-2.81s1.22-1.48,3.51-1.48"/><path class="cls-2" d="M41.42,35.56c.1,0,.2-.03.27-.09.13-.12.14-.32.09-.48-.06-.16-.17-.29-.28-.42.31-.26.61-.54.88-.85.11-.13.22-.27.22-.44-.01-.24-.24-.4-.46-.5-.57-.25-.68-.37-.07-.65.13-.06.26-.12.33-.24.06-.09.07-.2.06-.3-.03-.25-.19-.46-.4-.58-.18-.1-.38-.14-.58-.1-.43.09-.76.52-.78.97-.03.44.2.88.54,1.17.07.05.14.1.19.17.13.19.04.46-.1.63-.15.17-.36.29-.52.45s-.29.39-.22.61c.04.12.13.21.22.3.12.12.24.24.4.31.07.03.14.04.21.04Z"/><polygon class="cls-2" points="15.91 22.89 13.88 22.89 13.88 23.83 14.94 23.83 14.94 24.9 13.88 24.9 13.88 26.03 14.94 26.03 14.94 27.09 13.88 27.09 13.88 28.14 14.98 28.14 15.91 28.14 16.61 28.14 17.45 28.14 18.29 28.14 18.29 27.09 19.2 27.09 19.2 28.14 19.91 28.14 21.88 28.14 21.9 28.14 21.9 26.14 20.61 26.14 20.61 27.09 19.7 27.09 19.7 26.14 18.75 26.14 18.75 24.9 19.7 24.9 19.7 23.94 20.61 23.94 20.61 24.9 21.9 24.9 21.9 22.89 19.3 22.89 19.2 22.89 19.2 23.94 18.29 23.94 18.29 22.89 17.45 22.89 16.61 22.89 15.91 22.89"/><path class="cls-2" d="M16.12,19.23c.45.03.89.05,1.33.08h0v-.53"/><polyline class="cls-2" points="17.45 17.55 17.45 17.49 17.45 17.1 17.45 17.08"/><line class="cls-2" x1="15.91" y1="17.4" x2="15.91" y2="17.53"/><line class="cls-2" x1="17.45" y1="16.26" x2="17.45" y2="15.66"/><line class="cls-2" x1="15.91" y1="15.98" x2="15.91" y2="16.34"/><line class="cls-2" x1="17.45" y1="14.49" x2="17.45" y2="12.65"/><polyline class="cls-2" points="16.48 12.64 16.48 13.19 16.34 13.19 16.34 13.46 15.77 13.46 15.77 13.9 15.91 13.9 15.91 14.93"/><path class="cls-2" d="M19.05,8.89c1.28,0,2.31.97,2.31,2.16s-1.05,2.17-2.34,2.17c-.6,0-1.16-.21-1.57-.57v-1.41h-.97v1.4c-.42.36-.98.58-1.6.58-1.29,0-2.33-.97-2.33-2.17s1.03-2.15,2.31-2.16"/><path class="cls-2" d="M17.02,9.95c.08-.14.18-.27.3-.37"/><path class="cls-2" d="M17.73,11.05c0,.64.56,1.16,1.25,1.16s1.24-.52,1.24-1.16-.56-1.15-1.24-1.15-1.25.52-1.25,1.15Z"/><ellipse class="cls-2" cx="16.95" cy="7.74" rx="1.24" ry="1.15"/><path class="cls-2" d="M19.05,8.89c.15-.29.24-.62.24-.97,0-1.2-1.04-2.17-2.34-2.17s-2.33.97-2.33,2.17c0,.35.08.68.24.97h.02c.9,0,1.68.47,2.07,1.16.02-.03.04-.07.07-.1.08-.14.18-.26.3-.37.42-.43,1.03-.69,1.71-.69h.02Z"/><path class="cls-2" d="M13.6,11.05c0,.64.55,1.16,1.24,1.16s1.24-.52,1.24-1.16-.56-1.15-1.24-1.15-1.24.52-1.24,1.15Z"/><polyline class="cls-2" points="15.91 21.93 15.91 22.89 15.91 28.14 15.91 28.9 17.08 28.9 17.08 28.45 17.45 28.45 17.45 28.14 17.45 22.89 17.45 20.32"/><polyline class="cls-2" points="16.61 28.14 16.61 22.89 16.61 20.7"/><path class="cls-2" d="M45.66,37.22l2.66,3.13,1.34,1.58c.25.29.52.56.85.75.05.03.1.05.15.05h.04c.2,0,.36-.18.41-.37.04-.21-.04-.57-.1-.78,1.94-.23,4.08-.65,5.26-2.22.49-.65.76-1.43.99-2.21.77-2.62,1.15-5.34,1.14-8.07,0-1.82-.17-3.66-.53-5.45-2.89-2.6-5.85-5.27-9.52-6.57-.56-.91-1.48-1.64-2.36-2.25-1-.7-2.05-1.33-3.21-1.72-1.15-.39-2.41-.53-3.58-.23"/><path class="cls-2" d="M48.21,40.44c-1.94.95-4.15,1.1-6.31,1.23-.36.02-.79.02-1.02-.27-.06-.08-.11-.19-.2-.24-.07-.04-.17-.04-.25-.04-.49,0-1-.12-1.49-.08-.59.04-1.18-.01-1.76-.15-.07-.02-.15-.04-.21-.09-.07-.06-.11-.15-.14-.23-.18-.43-.32-1.13-.62-1.49-.05-.06-.41-.31-.64-.44-.12-.06-.18-.21-.13-.33.03-.09.08-.18.12-.26.22-.39.56-.71.97-.73.68-.02,1.35-.02,2.01,0,.47.03.95.08,1.43.15.04-.07.1-.12.15-.17.32-.28.78-.34,1.24-.33.14,0,.27,0,.4.02.56.05,1.13.13,1.65.31.46.16.87.4,1.2.8.39-.25.74-.53,1.05-.89"/><path class="cls-2" d="M40.75,39.24c-.31,0-.61.01-.92.01-.09,0-.19-.01-.25-.07-.03-.04-.05-.1-.09-.14-.04-.03-.09-.03-.14-.03-.96-.05-2.17.12-3.13.07"/><path class="cls-2" d="M45.66,37.22c.12-.26.24-.51.44-.71.18-.16.43-.27.66-.23.04,0,.08.01.11.02.37,1,1.13,1.77,2.1,2.23.96.46,2.07.57,3.13.41.46-.07.91-.19,1.32-.41.63-.35,1.11-.93,1.49-1.55,1.13-1.86,1.48-4.09,1.66-6.26.11-1.42-.25-2.79-.88-4.07-.31-.64-.73-1.25-1.31-1.66-.1-.07-.21-.13-.32-.19-.53-.27-1.15-.36-1.71-.15-.74.28-1.2.99-1.59,1.67-.62,1.08-1.19,2.18-1.71,3.3-.14.3-.28.61-.36.94-.09.35-.12.72-.13,1.08-.02,1.19.07,2.53-.74,3.4-.35.38-.86.64-1.04,1.12"/><path class="cls-2" d="M51.34,32.85c1.04-.09,1.97-.73,2.61-1.55.65-.82,1.03-1.81,1.32-2.82"/><path class="cls-2" d="M53.82,32.72c-1.23,1.77-3.56,2.7-5.67,2.25"/><path class="cls-2" d="M56.16,31.13c-.55,1.15-1.1,2.3-1.82,3.35-.72,1.04-1.62,1.99-2.73,2.6"/><path class="cls-2" d="M55.57,34.75c-.61,1.06-1.36,2.07-2.37,2.75-1.02.68-2.32,1.01-3.49.64-.59-.18-1.14-.53-1.75-.57"/><path class="cls-2" d="M57.07,34.97c.26-1.02.24-2.11-.06-3.11"/><path class="cls-2" d="M55.67,37.54c-.22.58-.72.99-1.22,1.36-.4.29-.81.58-1.27.76-.46.19-.97.28-1.45.17"/><path class="cls-2" d="M55.94,24.67c-.18-.55-.8-.79-1.36-.93-.57-.14-1.16-.26-1.75-.22-.59.03-1.19.24-1.61.66s-.64,1.01-1.15,1.3c-.11.06-.23.11-.36.13-.37.07-.79-.02-1.13-.2-.46-.24-.83-.63-1.18-1-.16-.02-.33-.02-.49-.03-.19-.01-.32-.02-.44-.17"/><path class="cls-2" d="M54.86,23.01c-1.05-.68-2.48-.54-3.58.05-.58.31-1.1.72-1.7.98s-1.33.33-1.87-.04c-.41-.29-.61-.63-1.04-.89-.26-.16-.18-.34-.57-.19"/><path class="cls-2" d="M47.29,17.64c-.48-.23-1.09-.15-1.5.2-.24.2-.4.49-.63.72-.7.71-1.83.72-2.83.69-1.23-.04-2.58-.13-3.47-.98"/><path class="cls-2" d="M38.75,14.26c.16-.3.45-.53.78-.62.22-.06.45-.06.68-.05,1.34.02,2.75.06,3.88.76"/><path class="cls-2" d="M39.25,12.79s-.03.02-.05.04h-.01s0,0,0,.01c-.8.52-1.44,1.28-1.86,2.15-.25.54-.41,1.13-.47,1.72-.01.12-.02.23-.02.35-.01.4.03.8.16,1.18.12.36.33.68.54.99.55.81,1.04,1.42,1.73,2.11"/><path class="cls-2" d="M40.31,21.11c-1.02-.59-1.84-1.73-2-2.89"/><path class="cls-2" d="M42.68,21.05c-.52-.32-.87-.89-.93-1.5"/><path class="cls-2" d="M42.65,27.35c-.7-.59-1.2-1.39-1.43-2.27"/><path class="cls-2" d="M43.35,26.88c-.83-.64-1.52-1.47-2-2.4"/><path class="cls-2" d="M50.72,42.84c.36.64-.04,1.41-.4,2.05-.42.77-.79,1.6-.96,2.47-.06.37-.1.76-.28,1.09-.12.22-.3.4-.47.58-.45.45-.85.85-1.28,1.29l-.28.28"/><path class="cls-2" d="M49.68,42.3c-.08.19-.17.39-.25.59-.25.61-.5,1.22-.93,1.72-.39.44-.9.76-1.41,1.08"/><path class="cls-2" d="M49.22,41.57c-.31.53-.76.97-1.29,1.27"/><path class="cls-2" d="M44.85,45.94l-.06-.78c-.02-.27-.04-.54-.11-.79-.18-.65-.67-1.2-.73-1.88-.01-.2.01-.43-.13-.59"/><path class="cls-2" d="M43.74,44.85c.1-.63-.38-1.19-.56-1.8-.09-.34-.09-.71-.09-1.06"/><path class="cls-2" d="M39.19,12.82c.01-.31.02-.61.02-.92.01-.06.01-.12.04-.17.04-.08.13-.11.2-.15.17-.11.28-.3.28-.5,0-.16-.06-.31-.08-.47-.05-.37.15-.72.32-1.06.16-.34.29-.75.1-1.08-.06-.1-.16-.21-.12-.33,0-.01.01-.03.02-.04.02-.04.06-.07.1-.1.47-.41.49-1.91-.44-2.38"/><path class="cls-2" d="M29.36,15.29c-.3.18-.74.05-.93-.25-.2-.3-.18-.71,0-1.02.09-.16.21-.29.35-.41.14-.1.3-.19.46-.25.22-.1.46-.15.7-.11.06.01.12.02.18.05.15.05.29.14.41.25.66.58.9,1.6.55,2.41-.05.12-.12.24-.2.35-.34.49-.88.83-1.47.91-.09,0-.19.02-.28.02-.63,0-1.26-.28-1.68-.75-.14-.16-.26-.34-.37-.53-.1-.19-.18-.39-.25-.6-.04-.1-.07-.21-.1-.31-.13-.39-.22-.78-.27-1.19-.08-.54-.09-1.09-.03-1.64.02-.27.07-.54.12-.81s.1-.54.16-.8c.11-.51.22-1.03.36-1.53.23-.87.52-1.71.97-2.47,0-.01.01-.01.01-.02.08-.13.17-.26.26-.39.37-.54.82-1.02,1.3-1.47.33-.32.69-.62,1.04-.92.26-.23.53-.45.81-.64.15-.12.31-.22.47-.31,1.02-.57,2.25-.73,3.41-.58,1.17.14,2.28.57,3.31,1.12.22.12.44.24.64.4.11.07.2.15.29.25.23.26.38.58.37.92,0,.04,0,.09-.01.13-.03.2-.15.39-.31.52-.12.11-.28.17-.44.17"/><path class="cls-2" d="M30.12,13.3c.12-.09.21-.33.2-.47,0-.15-.06-.29-.16-.39-.02-.02-.03-.05-.04-.07,0-.04.05-.07.09-.09.21-.13.3-.4.32-.65.02-.2-.05-.45-.07-.67,0-.13.01-.24.06-.33.04-.07.04-.16.05-.24.01-.48.02-.95.03-1.43.22-.25.44-.54.59-.83.03-.04.05-.09.05-.13.01-.06,0-.12-.01-.18-.02-.11-.05-.21-.07-.32.24.01.4-.08.53-.27.05-.09.09-.19.17-.26.07-.06.17-.09.23-.16.18-.2-.04-.55.1-.79.19-.3.74-.08.95-.37.09-.13.1-.34.25-.38.05-.02.1,0,.15.01.39.09.86.19,1.13-.1.06-.07.1-.15.17-.2.19-.17.48-.11.73-.08.26.03.59-.06.62-.31.32.29.77.43,1.2.37.03.23.25.42.48.41.1,0,.19-.04.29-.03.19,0,.34.15.5.27.08.06.18.11.28.13.08.03.15.04.22.05h.03"/><path class="cls-2" d="M28.76,13.58c-.02-.51-.01-1.02.03-1.52.03-.56.09-1.11.2-1.64.1-.54.23-1.06.41-1.57.22-.65.5-1.27.85-1.85.09-.17.19-.33.3-.49.22-.33.46-.65.74-.94.09-.1.19-.2.3-.3.37-.33.8-.61,1.25-.81.8-.37,1.68-.55,2.56-.55,1.38-.01,2.74.39,3.99.97.22.11.34.21.56.09"/><path class="cls-2" d="M28.31,6.2c-.29-1.59.26-3.15,1.13-4.38.44-.63.99-1.23,1.72-1.49.61-.22,1.28-.19,1.93-.13.57.05,1.14.12,1.69.25,1.86.45,3.53,1.71,4.52,3.34"/><path class="cls-2" d="M38.93,5.72s0,0,0,.02c.05.12.05.36.02.48-.27,1.39-.55,2.8-1.22,4.05-.09.16-.18.32-.33.41s-.38.09-.48-.05c-.06-.07-.08-.16-.14-.21-.09-.09-.24-.07-.37-.09h-.04c-.14-.02-.29-.19-.18-.29"/><path class="cls-2" d="M36.36,9.58c-.21-.01-.43.02-.59.16-.16.13-.21.41-.06.55"/><path class="cls-2" d="M37.93,6.85c-.16.08-.36.03-.51-.07s-.26-.24-.4-.35c-.16-.12-.34-.21-.53-.25-.14-.03-.28-.04-.41-.04-.23-.01-.47.06-.7.12-.11.03-.22.06-.33.08"/><path class="cls-2" d="M36.82,7.16c-.26,0-.43.21-.52.41"/><path class="cls-2" d="M36.86,7.52c-.03-.12-.04-.24-.04-.36,0-.25.06-.5.2-.7"/><path class="cls-2" d="M35.41,12.09c.16-.02.27-.15.36-.28.09-.15.1-.34.02-.49.19-.06.36.09.52-.02.1-.07.11-.22.1-.34v-.55"/><path class="cls-2" d="M30.8,10.94c.47.73,1.07,1.37,1.78,1.87.27.19.46.41.79.42.24.01.47.01.7.02.22,0,.45.01.67.01.16,0,.35,0,.47-.11.13-.12.15-.32.16-.5,0-.19.01-.37.02-.56"/><path class="cls-2" d="M34.65,10.94c.01.12.1.25.21.29.05.01.1,0,.16,0,.19-.03.6.01.77.09"/><path class="cls-2" d="M35.86,6.92c-.24-.07-.55-.33-.48-.66"/><path class="cls-2" d="M34.07,13.28c0,.28,0,.55-.02.83.19.04.37.17.45.35.09.19.1.39.07.59-.02.16-.07.31-.14.45-.21.44-.61.79-1.06.99-.08.03-.17.06-.26.09-.72.2-1.5.06-2.18-.24"/><path class="cls-2" d="M34.08,16.8c-.48.55-1.36,1.63-1.84,2.18-.27.31-.55.62-.91.83-.35.2-.81.28-1.18.1-.25-.12-.43-.35-.56-.59-.32-.57-.39-1.44-.46-2.08"/><path class="cls-2" d="M34.82,18.55c-1.16.92-2.18,2.01-3.04,3.21-.08.12-.17.25-.3.31-.23.13-.52.03-.76-.1-1.52-.81-2.4-2.42-3.19-3.96"/><path class="cls-2" d="M36.34,21.26c-.62-.34-1.31-.68-2-.53-1.46.32-1.89,2.55-3.36,2.78-.9.14-1.7-.56-2.28-1.27-.96-1.18-1.76-2.61-1.67-4.13"/><path class="cls-2" d="M36.68,16.69c-.31-.14-.65.1-.89.34s-.54.51-.87.43c-.35-.09-.5-.54-.84-.66-.24-.08-.55,0-.7-.2"/><path class="cls-2" d="M26.62,15.08c-1.45.11-2.84.86-3.74,2.01-.79,1.01-1.18,2.32-1.09,3.6.01.18.03.36.06.53.1.6.59,1.11,1.13,1.4.53.3,1.25.29,1.73-.09.17-.13.3-.3.43-.47.14-.19.27-.38.4-.58.17-.26.33-.53.5-.8.07-.1.13-.21.16-.32s.02-.23.02-.34c-.04-.62-.07-1.23-.1-1.85-.02-.44.05-.91.22-1.32.07-.17.15-.33.27-.47.14-.16.3-.29.47-.42"/><path class="cls-2" d="M21.87,28.1s0,.03.01.04c.1.37,1.54.48,1.79.5.21.02.39-.07.55-.22.12-.1.22-.23.31-.36.75-1.04,1.42-2.15,1.81-3.37.38-1.22.12-2.8-.3-4.01"/><path class="cls-2" d="M22.03,25.45c.54.01,1.55-.3,1.97-.64.8-.66,1.88-2.18,1.54-3.33"/><path class="cls-2" d="M21.8,20.69h-.01c-.31,0-.6.14-.87.31-.71.46-1.62,1.17-1.62,1.82"/><path class="cls-2" d="M20.48,51.85c.2-.4.4-.8.65-1.16.26-.36.96-1.02,1.36-1.24"/><path class="cls-2" d="M20.52,49.98c-.08-.29.08-.59.29-.8.21-.2.48-.35.69-.56"/><path class="cls-2" d="M31.67,52.53c.44-.22.98-.21,1.43-.42.23-.11.43-.28.61-.46.63-.62,1.11-1.44,1.11-2.33"/><path class="cls-2" d="M33.31,49.07c-.19.16-.33.38-.4.61"/><path class="cls-2" d="M53.72,55.16l-2.55.14c-.62-.72-1.74-1.05-2.54-.57-.18.11-.34.26-.54.35-.26.13-.57.14-.87.14-1.03.03-2.06.06-3.1.09l-1.04-.54c-.26-.3-.39-.68-.57-1.03-.17-.36-.4-.71-.77-.86,0,0,.5,1.16.17,1.73-.23.4-.38-.84-.68-1.19,0,0,.24-1.59,0-1.41-1.08.81-1.06,2.44-2.25,3.08l-3.57.22c2.02-.77,2.43-1.95,3.52-3.74"/><path class="cls-2" d="M28.32,44.94c-.56-.32-1.12-.64-1.67-.97-.45-.25-.89-.51-1.38-.67-.7-.24-1.45-.26-2.18-.28"/><path class="cls-2" d="M26.38,45.06c-1.22-.43-2.54-.56-3.81-.38"/><path class="cls-2" d="M20.74,43.25c-.71.44-1.4.92-2.05,1.46-.64.52-1.23,1.1-1.73,1.75-.18.24-.35.49-.5.75-.15.28-.28.57-.37.87-.12.43-.16.87-.17,1.32-.02.86.06,1.75.45,2.51.29.59.76,1.07,1.21,1.54.43.45.88.91,1.43,1.18.84.42,1.84.37,2.75.15l1.14.02,7.51.12c1.06.06,2.15-.17,3.1-.64.25-.13.5-.27.76-.38.42-.16.87-.21,1.3-.33.66-.18,1.26-.5,1.85-.83.43-.23.87-.47,1.22-.82.11-.11.21-.23.29-.35.05-.08.1-.15.14-.23.31-.57.4-1.26.24-1.88"/><path class="cls-2" d="M35.66,40.07c-.76-.29-1.56-.46-2.37-.55-.63-.07-1.26-.09-1.89-.07-.17,0-.35.01-.53.03-1.4.1-2.78.41-4.14.86-1.85.62-3.64,1.51-5.32,2.5-.22.13-.44.26-.66.4"/><path class="cls-2" d="M31.28,39.44s.07,0,.12,0c.35-.06,1.04-.31,1.24-.43,1.22-.73,1.31-2.17.94-3.46-.01-.05-.03-.09-.04-.14-.53-1.76-2.5-2.62-4.04-3.63-1.02-.68-2.06-1.33-3.11-1.98-.7-.43-1.41-.86-2.11-1.29"/><path class="cls-2" d="M26.34,24.69c.15.24.27.54.35.88.33,1.32.15,3.22-.3,4.22h0"/><path class="cls-2" d="M30.84,39.5s.02-.01.03-.02c.5-.29,1.01-.59,1.37-1.04.44-.54.62-1.23.79-1.9"/><path class="cls-2" d="M26.77,40.34h-.04c-.36,0-.71-.06-1.04-.19-.4-.15-.76-.38-1.09-.64-.62-.48-1.16-1.05-1.67-1.65-1.16-1.36-2.15-2.88-2.93-4.5"/><path class="cls-2" d="M22.89,41.91c.29-1.12-.15-2.3-.66-3.33-.42-.84-.9-1.64-1.43-2.41s-1.13-1.51-1.88-2.08c-.75-.56-1.67-.95-2.6-.92"/><path class="cls-2" d="M20.74,43.25s0-.01.01-.01c.87-1.58,1.05-3.53.47-5.24"/><path class="cls-2" d="M16.39,47.16c-.69.4-1.45.68-2.22.83-.08.02-.15.03-.22,0-.15-.06-.18-.28-.19-.45-.04-1.83-.08-3.66-.12-5.5v-.04"/><path class="cls-2" d="M16,40.53v-.03c.07.02.08.04.12.1.81,1.33,1.33,2.86,2.4,4,.02.02.08.05.11.03,0,0,.01-.01.01-.02"/><path class="cls-2" d="M12.91,39.36h0c.04.5.07.97.11,1.46.02.19.03.39.11.57.09.2.26.37.41.53.04.04.07.08.1.12.77.86,1.27,1.93,2.04,2.77.06.06.15.13.21.07.03-.03.03-.08.03-.12.03-1.41.06-2.81.08-4.22"/><path class="cls-2" d="M14.62,46.12c.15-.51.49-.99.98-1.37"/><path class="cls-2" d="M16.01,40.59s0-.03-.01-.05h0c-.07-.41-.31-.74-.47-1.1-.28-.64-.3-1.37-.3-2.07,0-1.33.02-2.65.09-3.98"/><path class="cls-2" d="M19.91,28.14c-.39.28-.92.56-1.33.8-1.47.82-2.56,2.3-2.93,3.94"/><path class="cls-2" d="M15.36,38.99c-.05.17-.23.25-.38.33-.5.27-.9.71-1.12,1.22-.02.04-.04.07-.05.11"/><path class="cls-2" d="M14.49,34.11v1.34c0,.05,0,.11-.02.16-.03.06-.07.11-.12.13-.58.24-.34,1.08-.36,1.46"/><path class="cls-2" d="M13.86,40.54c-.37-.46-.32-1.2.11-1.6.06-.06.14-.13.12-.22-.01-.06-.07-.11-.13-.15-.43-.29-.83-.66-1.03-1.14-.21-.48-.2-1.07.11-1.48.09-.11.19-.2.24-.32.07-.15.06-.31.06-.47-.03-.64-.05-1.28-.08-1.91.27-.46.71-.83.83-1.33.11-.43.28-.89,1.02-1.54.93-.83.87.33,1.67-.99"/><path class="cls-2" d="M14.98,28.63c-.69.18-1.23.74-1.66,1.31-.2.25-.38.51-.51.8-.03.06-.06.12-.08.19-.3.79-.14,1.67.02,2.5"/><path class="cls-2" d="M12.93,39.41s-.01-.03-.02-.04c-.18-.13-.98.9-1.57.8-.62-.11-1.14-.57-1.46-1.11s-.47-1.17-.58-1.79c-.62-3.6.12-7.4,2.02-10.52.01-.02.03-.05.04-.07"/><path class="cls-2" d="M10.64,20.68c-.35,1.62-.06,3.32.36,4.93.1.38.21.76.32,1.14.14.48.3.96.46,1.44.31.86.65,1.72,1.03,2.55,0,.02,0,.03.02.05"/><path class="cls-2" d="M10.62,20.75s0-.05.01-.07c.04-.61.35-1.18.66-1.72.68-1.21,1.77-1.99,2.54-3.13.15-.22.28-.39.43-.61.48-.06.97-.11,1.44-.23l.21-.06c.51-.14,1.02-.34,1.54-.44.26-.05.53-.07.8-.05.07.01.14.02.19.06.04.04.06.09.08.14.1.29.12.6.07.89,0,.03-.01.06-.02.08,0,.03,0,.06-.02.09"/><path class="cls-2" d="M18.29,20.32s0,.01-.01.02c-.04.04-.1.03-.15.03-.2-.02-.38-.03-.56-.04-.04-.01-.08-.01-.12-.01-.24-.02-.47-.04-.72-.05-.04.14-.08.28-.12.43-.09.28-.2.55-.35.8-.1.16-.21.31-.35.43-.19.18-.41.31-.66.37-.31.07-.64.02-.94.1-.24.05-.45.19-.66.32"/><path class="cls-2" d="M18.07,19.34h.04c.08,0,.18.02.22.08,0,0,.02.01.02.02.02.04.02.08.02.13.01.21-.01.43-.03.64-.01.04-.02.08-.04.11"/><path class="cls-2" d="M17.91,18.79c-.16,0-.31,0-.46-.01-.16-.01-.32-.03-.49-.04-.18-.03-.38-.05-.55.01-.18.07-.35.31-.29.48.45.03.89.05,1.33.07.19.02.39.03.58.04"/><path class="cls-2" d="M18.94,18.6s-.04.05-.06.08c-.02.02-.04.03-.06.03-.07.05-.17.06-.26.07-.12.01-.23.01-.34.01h-.21"/><path class="cls-2" d="M18.56,15.61c-.37-.03-.74,0-1.11.05-.28.03-.56.09-.83.14-.24.05-.48.11-.71.18-.3.1-.59.23-.82.43.27-.03.54-.05.82-.07.51-.05,1.02-.07,1.54-.08.31-.01.61-.01.91-.01.02,0,.04,0,.06.01.21,0,.41,0,.61,0,.03.23.07.45.1.68.01.07.02.14,0,.2-.01.02-.02.05-.04.06-.07.08-.2.11-.31.11-.29-.01-.58-.11-.87-.18-.15-.03-.3-.05-.45-.06h-.01c-.53-.03-1.07.08-1.54.32-.07.03-.14.07-.2.11.06,0,.13,0,.2.02.51.03,1.02.01,1.54.02.55,0,1.09.03,1.62.16.02.25,0,.51-.08.76-.01.04-.03.08-.05.12"/><path class="cls-2" d="M18.3,20.32c-.01.17.01.35,0,.52-.01.05-.01.11-.05.15-.03.02-.07.03-.1.04-.2.05-.46.14-.63.14-.04-.04-.05-.1-.05-.15-.02-.22-.02-.44,0-.66,0-.01,0-.02.01-.03h.08s.09-.01.13-.01c.17,0,.44-.07.59,0h.01Z"/><path class="cls-2" d="M18.33,19.42s.03,0,.04.01c.22.08.49-.03.59-.24.08-.17.04-.39-.02-.59h0s0-.04,0-.05c-.04.06-.07.12-.11.16-.06.06-.13.1-.21.12-.08.01-.16-.01-.23-.03-.05-.01-.11-.01-.16-.01-.07-.01-.14-.01-.21,0h-.1c-.16.01-.3.02-.46.02h-.01s-.04.01-.05.02-.01.03,0,.04c0,.1.02.19.03.29.01.03.01.06.03.08t.01.02s.07.02.11.02c.15,0,.31.02.46.06h.04c.09.02.18.04.26.08Z"/><path class="cls-2" d="M17.45,17.49s.02.02.03.02c.18.05.36.04.55.04.33,0,.71.02,1.03.13.17-.13.22-.38.13-.57-.02.04-.06.07-.1.1-.1.06-.23.1-.34.09-.14-.01-.28-.06-.42-.11-.27-.08-.54-.13-.82-.12h-.05s-.01.02-.01.03c-.01.01-.01.03-.02.05-.01.1-.02.19-.01.29,0,.01,0,.03.01.04,0,.01,0,.01.02.01Z"/><path class="cls-2" d="M18.33,16.2s.01.04.03.05c.01.01.02.02.04.02,0,0,.01,0,.02,0,.04-.02.05-.06.07-.1.07-.2.11-.41.11-.63"/><path class="cls-2" d="M11.79,28.17s-.01.01-.01.02c-.79,1.6-1.17,3.42-1.09,5.2.02.48.08,1.01.42,1.35.34.35.83,0,1.24,0-.03.62-.5,1.5-1.01,1.85"/><path class="cls-2" d="M12.75,36.64c-.1.38-.46.88-.82,1.02-.37.14-.79.1-1.12-.11-.42-.27-.64-.76-.76-1.24-.13-.48-.18-.98-.37-1.43"/><path class="cls-2" d="M12.75,38.53c-.06.42-.43.76-.85.84-.41.07-.85-.09-1.16-.37-.32-.28-.52-.67-.63-1.08"/><path class="cls-2" d="M47.39,50.37c.6-.04.81.81,1.31,1.14.2.12.45.16.68.2.79.12,1.58.24,2.37.35.38.06.78.13,1.09.36.33.25.52.66.9.81.45.17,1.09-.03,1.32.38.1.19.06.44.15.63.13.31.51.39.83.52.31.12.62.46.46.75l-2.78-.35c.07-.19-.21-.31-.39-.41-.38-.21-.46-.72-.67-1.1-.49-.86-1.64-1.03-2.63-1.08-.98-.05-2.13-.17-2.66-1-.19-.29-.27-.63-.34-.97l-.09-.45c-.18-.83-.57-1.66-1.24-2.18-.55-.44-1.33-.62-2-.45-.26.07-.47.26-.59.49-.23.46-.49,1.02-.77,1.44-1.03-.08-2.02-.06-3.03-.05-.3.01-.6.02-.91.02-1.2.01-2.41-.02-3.61-.11-.07-.18-.27-.28-.46-.34-.27-.07-.58-.15-.83-.01-.06.03-.11.08-.18.11h0c-.06.03-.14.03-.19-.02-.23-.2-.57-.26-.86-.38-.12-.05-.25-.1-.36-.19-.09-.06-.17-.14-.26-.2-.1-.05-.21-.08-.32-.1-1.67-.3-3.38-.19-5.06-.09-.55.04-1.09.07-1.62.16-.31.05-.62.12-.91.25-.3.15-.56.37-.82.59-.15.12-.29.23-.4.35-.01.01-.02.01-.02.01-.11.12-.2.25-.27.42-.16.37-.19.78-.15,1.18.05.49.21.97.38,1.44.09.25.22.54.48.6"/><path class="cls-2" d="M35.51,38.02c-.24-.73-.37-1.5-.49-2.26-.05-.31-.09-.63-.11-.95-.02-.17-.02-.34-.02-.51.02-.69.2-1.37.52-1.97"/><path class="cls-2" d="M36.89,37.21c-.02-.25-.2-.45-.33-.65-.3-.44-.48-.97-.5-1.5"/><path class="cls-2" d="M34.4,34.54v.94s0,.08-.02.11c-.03.04-.08.05-.12.05-.23,0-.46-.02-.66-.11"/><path class="cls-2" d="M34.74,34.82c-.12-.07-.23-.14-.34-.23-.4-.32-.71-.75-.87-1.24-.19-.61-.15-1.3.12-1.88,0-.01.01-.01.01-.02"/><path class="cls-2" d="M34.83,38.83c-.16,0-.31-.12-.39-.26-.07-.15-.09-.31-.11-.48-.05-.61-.04-1.22.03-1.83"/><path class="cls-2" d="M35.22,31.27c-.37.3-.88.37-1.34.27-.08-.02-.15-.04-.23-.07-.37-.11-.71-.32-1.02-.56-1.06-.79-1.95-2.04-2.4-3.28"/><path class="cls-2" d="M31.93,26.23c.25.72.16,1.56-.26,2.2-.06.09-.13.18-.22.21"/><path class="cls-2" d="M31.67,25.49c-.2.42-.39.85-.59,1.28-.1.21-.2.43-.37.6-.14.13-.3.21-.48.26-.37.1-.8.04-1.17-.08-.35-.11-.69-.26-.99-.47-.52-.38-.9-.96-1.05-1.58-.08-.35-.1-.72-.04-1.07.07-.42.24-.82.45-1.2.12-.23.26-.45.41-.66"/><path class="cls-2" d="M26.61,21.05c.12.7.37,1.62.82,2.18"/><path class="cls-2" d="M32.57,25.61c.19.65.79,1.08,1.36,1.44.35.22.71.43,1.09.6"/><path class="cls-2" d="M35.78,18.57c.85.69,1.18,1.96.77,2.98-.09.22-.22.44-.4.59s-.43.24-.66.2"/><path class="cls-2" d="M37.27,14.97c-.53.03-1.06.19-1.52.48-.2.12-.39.27-.62.32s-.51-.02-.61-.23"/><path class="cls-2" d="M57.84,29.09c-.24-.72-.55-1.41-.92-2.07-.64-1.11-1.53-2.16-2.7-2.66-.15-.06-.3-.12-.45-.16"/><path class="cls-2" d="M49.72,25.66c-.33,1.18-.65,2.17-1.4,3.14"/><path class="cls-2" d="M52.23,20.66c-1.12-.78-2.3-1.47-3.53-2.08-.46-.23-.94-.45-1.45-.45-.45,0-.87.17-1.27.34"/><path class="cls-2" d="M39.14,11.7c-.46-.04-.9-.33-1.12-.75"/><path class="cls-2" d="M39.61,10.18c-.42-.03-.8-.36-.89-.76"/><path class="cls-2" d="M40,8.1h-.03c-.38.02-.75-.23-.89-.58"/><path class="cls-2" d="M36.86,11.56c-.06.37.09.76.33,1.05s.57.5.89.68"/><path class="cls-2" d="M37.08,14.15c-.59-.39-.98-1.06-1.03-1.77"/><path class="cls-2" d="M35.87,14.9c-.35-.29-.54-.74-.52-1.19"/><path class="cls-2" d="M30.13,6.92c-.58-.41-1.35-.52-2.02-.29"/><path class="cls-2" d="M31.22,5.51c-.27-.57-.97-.91-1.59-.76"/><path class="cls-2" d="M29.22,8.79c-.29-.27-.71-.39-1.11-.33-.39.06-.75.3-.96.64"/><path class="cls-2" d="M29.03,10.46s-.02-.03-.04-.04c-.22-.24-.58-.36-.9-.29-.18.05-.35.14-.5.24-.41.27-.77.63-1.04,1.04-.01.01-.01.02-.02.03"/><path class="cls-2" d="M28.63,12.05c-.43.02-.85.22-1.13.54-.29.32-.45.76-.43,1.19"/><path class="cls-2" d="M32.82,4.43c-.32-.53-.72-1.12-1.33-1.22"/><path class="cls-2" d="M33.79,2.32c.37.3.64.73.76,1.2"/><path class="cls-2" d="M35.58,2.49c.3.28.47.7.46,1.12"/><path class="cls-2" d="M37.08,2.84c.25.2.36.56.27.86"/><path class="cls-2" d="M38.37,3.37c.11.22.16.47.13.72"/><path class="cls-2" d="M35.42,12.09h-.03c-.29.05-.6,0-.87-.13"/><rect class="cls-1" x=".65" y=".61" width="225.98" height="54.75"/><rect class="cls-1" x=".65" y=".61" width="6.84" height="54.75"/><rect class="cls-1" x="93.14" y="-22.13" width="41" height="99.98" transform="translate(141.5 -85.77) rotate(90)"/><rect class="cls-1" x="219.79" y=".61" width="6.84" height="54.75"/></svg>