<?xml version="1.0" encoding="UTF-8"?>
<svg xmlns="http://www.w3.org/2000/svg" viewBox="0 0 227.27 56">
  <defs>
    <style>
      .cls-1 {
        stroke-width: 2px;
      }

      .cls-1, .cls-2 {
        fill: none;
        stroke: #231f20;
        stroke-miterlimit: 10;
      }

      .cls-3 {
        fill: #231f20;
      }

      .cls-2 {
        stroke-width: .75px;
      }
    </style>
  </defs>
  <g id="Layer_7" data-name="Layer 7">
    <g>
      <path class="cls-3" d="M23.49,19.21v2c-.58-.24-.95-.6-.95-1v-.04c.02-.38.38-.75.95-.97Z"/>
      <path class="cls-3" d="M25.31,18.94v2.59c-.07-.02-.15-.02-.2-.02-.02,0-.05,0-.07-.02-.2,0-.38-.02-.56-.04v-2.5c.18-.02.36-.04.56-.04h.07c.05,0,.13,0,.2.02Z"/>
      <path class="cls-3" d="M25.31,22.22v2.57c-.09.02-.18.02-.27.02-.2,0-.38-.02-.56-.05v-2.57c.18.02.38.04.56.04h.27Z"/>
      <path class="cls-3" d="M27.6,23.51v.04c-.04.46-.56.87-1.33,1.07v-2.26c.78.22,1.33.66,1.33,1.15Z"/>
      <path class="cls-3" d="M28.64,14.37h-7.16l-5.06,4.39v6.21l5.06,4.39h7.16l5.08-4.39v-6.21l-5.08-4.39ZM27.33,21.87h.02c1,.36,1.68.97,1.68,1.64t-.02.04c-.04.87-1.15,1.6-2.73,1.86v.97h-.97v-.87c-.09.02-.18.02-.27.02-.2,0-.38-.02-.56-.04v.89h-.98v-1c-1.4-.31-2.4-1-2.44-1.82h1.42c.02.4.42.77,1.02.98v-2.5c-.26-.04-.47-.11-.69-.18-1.04-.38-1.69-.97-1.69-1.64v-.04c.04-.8,1.02-1.49,2.39-1.79v-1.04h.98v.89c.18-.02.36-.04.56-.04h.27v-.86h.97v.95c1.62.24,2.79.98,2.82,1.88h-1.42c-.02-.49-.58-.91-1.4-1.11v2.53c.38.07.75.15,1.06.27Z"/>
      <polygon class="cls-3" points="29.73 7.8 19.34 7.8 21.89 13.73 27.82 13.73 29.73 7.8"/>
      <path class="cls-3" d="M29.37,29.89h-2.06l4.17,5.12-1.75-.22-3.92-4.9h-1.37l3.66,5.21-.38.49-4.01-5.7h-.6l3.64,5.92-.24.69-3.86-6.61h-.71l4.04,7.43,7.34,1.2.35.29.47.42.51,1.2.2.47-.49-.47-.22-.22-.82-1.11-.46-.07-7.14-1.13-4.21-8.01h-1.13l4.19,10.31,6.65.16.09,5.63,5.65,3.35v-12.93l-7.61-6.52ZM27.86,36.46l.71-.55,1.38-.24.58.35-2.68.44Z"/>
    </g>
    <g>
      <path class="cls-3" d="M203.71,19.21v2c.58-.24.95-.6.95-1v-.04c-.02-.38-.38-.75-.95-.97Z"/>
      <path class="cls-3" d="M201.89,18.94v2.59c.07-.02.15-.02.2-.02.02,0,.05,0,.07-.02.2,0,.38-.02.56-.04v-2.5c-.18-.02-.36-.04-.56-.04h-.07c-.05,0-.13,0-.2.02Z"/>
      <path class="cls-3" d="M201.89,22.22v2.57c.09.02.18.02.27.02.2,0,.38-.02.56-.05v-2.57c-.18.02-.38.04-.56.04h-.27Z"/>
      <path class="cls-3" d="M199.59,23.51v.04c.04.46.56.87,1.33,1.07v-2.26c-.78.22-1.33.66-1.33,1.15Z"/>
      <path class="cls-3" d="M198.56,14.37h7.16l5.06,4.39v6.21l-5.06,4.39h-7.16l-5.08-4.39v-6.21l5.08-4.39ZM199.87,21.87h-.02c-1,.36-1.68.97-1.68,1.64t.02.04c.04.87,1.15,1.6,2.73,1.86v.97h.97v-.87c.09.02.18.02.27.02.2,0,.38-.02.56-.04v.89h.98v-1c1.4-.31,2.4-1,2.44-1.82h-1.42c-.02.4-.42.77-1.02.98v-2.5c.26-.04.47-.11.69-.18,1.04-.38,1.69-.97,1.69-1.64v-.04c-.04-.8-1.02-1.49-2.39-1.79v-1.04h-.98v.89c-.18-.02-.36-.04-.56-.04h-.27v-.86h-.97v.95c-1.62.24-2.79.98-2.82,1.88h1.42c.02-.49.58-.91,1.4-1.11v2.53c-.38.07-.75.15-1.06.27Z"/>
      <polygon class="cls-3" points="197.46 7.8 207.86 7.8 205.31 13.73 199.38 13.73 197.46 7.8"/>
      <path class="cls-3" d="M197.83,29.89h2.06l-4.17,5.12,1.75-.22,3.92-4.9h1.37l-3.66,5.21.38.49,4.01-5.7h.6l-3.64,5.92.24.69,3.86-6.61h.71l-4.04,7.43-7.34,1.2-.35.29-.47.42-.51,1.2-.2.47.49-.47.22-.22.82-1.11.46-.07,7.14-1.13,4.21-8.01h1.13l-4.19,10.31-6.65.16-.09,5.63-5.65,3.35v-12.93l7.61-6.52ZM199.34,36.46l-.71-.55-1.38-.24-.58.35,2.68.44Z"/>
    </g>
  </g>
  <g id="Layer_5" data-name="Layer 5">
    <polygon class="cls-1" points="222.06 9.17 222.06 47.19 214.12 47.19 214.12 55.12 13.11 55.12 13.11 47.19 5.18 47.19 5.18 9.17 13.11 9.17 13.11 1.23 214.12 1.23 214.12 9.17 222.06 9.17"/>
    <polygon class="cls-2" points="218.45 12.7 218.45 43.66 210.78 43.66 210.78 51.85 16.45 51.85 16.45 43.66 8.79 43.66 8.79 12.7 16.45 12.7 16.45 4.5 210.78 4.5 210.78 12.7 218.45 12.7"/>
  </g>
</svg>