<?xml version="1.0" encoding="UTF-8"?>
<svg xmlns="http://www.w3.org/2000/svg" version="1.1" viewBox="0 0 82 103.5">
  <!-- Generator: Adobe Illustrator 29.0.1, SVG Export Plug-In . SVG Version: 2.1.0 Build 192)  -->
  <defs>
    <style>
      .st0, .st1, .st2 {
        stroke: #231f20;
      }

      .st0, .st3, .st4 {
        stroke-width: .5px;
      }

      .st0, .st3, .st2 {
        fill: none;
      }

      .st0, .st2 {
        stroke-linejoin: bevel;
      }

      .st1 {
        fill: #fff;
      }

      .st1, .st3, .st4, .st5 {
        stroke-miterlimit: 10;
      }

      .st3, .st4, .st5 {
        stroke: #666766;
      }

      .st4, .st5 {
        fill: #1f1f1f;
      }

      .st2 {
        stroke-width: .2px;
      }
    </style>
  </defs>
  <g id="Layer_1">
    <path class="st1" d="M41,53.5"/>
    <path class="st1" d="M41,86.1"/>
    <path class="st1" d="M41,51.8"/>
    <path class="st1" d="M41,87.3"/>
    <path class="st4" d="M41.3-3.2"/>
    <path class="st1" d="M41,53.5"/>
    <path class="st0" d="M41,88.1"/>
    <path class="st0" d="M41,81.3"/>
    <path class="st2" d="M41,81.3"/>
    <path class="st2" d="M41,88.1"/>
    <path class="st0" d="M41,81.4"/>
    <path class="st0" d="M41,88.4"/>
    <g>
      <path class="st2" d="M81,21.9"/>
      <path class="st2" d="M81,16.6"/>
      <path class="st0" d="M80.8,21.6"/>
      <path class="st0" d="M80.8,16.6"/>
      <path class="st1" d="M4.7,17.9"/>
      <path class="st5" d="M9.2,9.2c0,2.6-2,4.8-4.6,4.8v-4.8h4.6Z"/>
      <path class="st5" d="M78,83.7V16.5c-4,0-7.3-3.2-7.3-7.3H11.9c0,4-3.2,7.3-7.3,7.3v67.2c4,0,7.2,4.5,7.2,8.4h59c0-4,3.2-8.4,7.3-8.4Z"/>
      <path class="st4" d="M75.3,83.3V19.1c-4,0-7.3-3.3-7.3-7.5H14.6c0,4.1-3.2,7.5-7.3,7.5v64.2c4,0,7.3,3.3,7.3,7.5h53.5c0-4.1,3.2-7.5,7.3-7.5h0Z"/>
      <path class="st5" d="M73.5,9.2c0,2.6,2,4.8,4.6,4.8v-4.8h-4.6Z"/>
      <path class="st4" d="M41.3,10.5"/>
      <path class="st2" d="M4.4,22.7"/>
      <path class="st2" d="M4.4,15.9"/>
      <path class="st2" d="M1,21.9"/>
      <path class="st2" d="M1,16.6"/>
      <path class="st0" d="M1.2,21.6"/>
      <path class="st0" d="M1.2,16.6"/>
      <path class="st0" d="M4.4,22.6"/>
      <path class="st0" d="M4.4,15.6"/>
      <polyline class="st4" points="41.3 9.4 58.8 9.4 60.3 6.3 54.6 6.3 53.5 9.4 55.1 5.1 49.6 5.1 48.3 9.4 50.1 3.3 45 3.3 43.8 9.4 45.5 .8 41.3 .8 37.2 .8 38.8 9.4 37.7 3.3 32.5 3.3 34.3 9.4 33.1 5.1 27.5 5.1 29.2 9.4 28 6.3 22.2 6.3 23.8 9.4 41.3 9.4"/>
      <path class="st5" d="M9.2,9.2c0,2.6-2,4.8-4.6,4.8v-4.8h4.6Z"/>
      <path class="st5" d="M73.5,9.2c0,2.6,2,4.8,4.6,4.8v-4.8h-4.6Z"/>
    </g>
  </g>
  <g id="Layer_2">
    <g>
      <polygon class="st5" points="61 73.2 21 73.2 1 88.2 21 103.2 61 103.2 81 88.2 61 73.2"/>
      <polyline class="st3" points="60.9 103.2 76.8 88.2 60.9 73.2"/>
      <polyline class="st3" points="21.1 103.2 5.1 88.2 21.1 73.2"/>
    </g>
  </g>
</svg>