<?xml version="1.0" encoding="UTF-8"?>
<svg id="Layer_1" xmlns="http://www.w3.org/2000/svg" version="1.1" xmlns:xlink="http://www.w3.org/1999/xlink" viewBox="0 0 272.5 302">
  <!-- Generator: Adobe Illustrator 29.0.1, SVG Export Plug-In . SVG Version: 2.1.0 Build 192)  -->
  <defs>
    <style>
      .st0 {
        stroke-width: .5px;
      }

      .st0, .st1 {
        stroke: #1f1f1f;
        stroke-miterlimit: 10;
      }

      .st0, .st2 {
        fill: #333;
      }

      .st3, .st1 {
        fill: none;
      }

      .st1 {
        stroke-width: .2px;
      }

      .st4 {
        fill: #1f1f1f;
      }

      .st5 {
        display: none;
      }

      .st6 {
        fill: #353535;
      }

      .st7 {
        clip-path: url(#clippath);
      }

      .st8 {
        opacity: .5;
      }
    </style>
    <clipPath id="clippath">
      <rect class="st3" x="46.2" y="27" width="180" height="247.4"/>
    </clipPath>
  </defs>
  <g id="Layer_11" class="st5">
    <g class="st8">
      <g class="st7">
        <g>
          <path class="st6" d="M56.6,27.1h-5.9c-.8,2-4.5,4.2-4.5,4.2v2.6c2.9-3.1,6.5-5.4,10.4-6.8"/>
          <path class="st6" d="M215.9,274.4h5.9c.9-2,4.6-4.1,4.6-4.1v-2.6c-2.9,3-6.5,5.3-10.4,6.7h-.1Z"/>
          <path class="st6" d="M226.2,33.7v-2.6s-3.6-2.2-4.6-4.2h-5.9c4,1.4,7.5,3.7,10.4,6.7h.1Z"/>
          <path class="st6" d="M46.2,267.6v2.6s3.7,2.2,4.6,4.1h5.9c-4-1.4-7.5-3.7-10.4-6.7"/>
          <path class="st6" d="M46.2,254.1v9.6c.3.4.6,1,1,1.5-.4-2-.3-4.2.3-6.1l-1.3-5Z"/>
          <path class="st6" d="M214.9,271.9h-62.2c0,.1-.2.2-.3.3,0,0-.3.1-.4.1h-.3s-.2,0-.3-.2c0,0,0-.2-.2-.3v-.6c0-.1,0-.2.2-.3,0,0,.2-.1.3-.2h.3s.3,0,.4.1c0,0,.2.2.3.3h62.2c1.9,0,3.7-.5,5.4-1.4s3.1-2.1,4.3-3.5c.6-2.3.6-4.7,0-6.9h0c0-.1,1.8-7,1.8-7V49.2l-1.9-6.9h0c.7-2.3.7-4.7.1-7-1.2-1.5-2.6-2.7-4.3-3.6s-3.5-1.3-5.4-1.4h-62.2l-.3.3h-.7s-.2,0-.3-.2c0,0,0-.2-.2-.3v-.6s0-.2.2-.3c0,0,.2,0,.3-.2h.7l.3.3h62.2c5.7,0,9.5,4,11.4,6.7v-1.9c-3.3-3.6-7.5-6.2-12.2-7.5H58.4c-4.7,1.5-8.9,4.1-12.2,7.6v1.9c1.9-2.7,5.7-6.7,11.4-6.7h62.2l.3-.3h.7s.2,0,.3.2c0,0,0,.2.2.3v.6s0,.2-.2.3c0,0-.2,0-.3.2h-.7l-.3-.3h-62.2c-1.9,0-3.7.5-5.4,1.4s-3.1,2.1-4.3,3.6c-.6,2.3-.6,4.7,0,6.9h0c0,0-1.8,7-1.8,7v202.9l1.9,6.9h0c-.7,2.3-.7,4.7,0,7,1.2,1.5,2.6,2.7,4.3,3.6s3.5,1.3,5.4,1.4h62.2c0-.1.2-.2.3-.3,0,0,.3-.1.4-.1h.3s.2,0,.3.2c0,0,0,.2.2.3v.6c0,.1,0,.2-.2.3,0,0-.2.1-.3.2h-.3s-.3,0-.4-.1c0,0-.2-.2-.3-.3h-62.3c-5.7,0-9.5-3.9-11.4-6.7v1.9c3.3,3.6,7.5,6.2,12.2,7.4h155.5c4.7-1.3,9-3.9,12.2-7.4v-1.9c-1.9,2.8-5.7,6.7-11.4,6.7h.2Z"/>
          <path class="st6" d="M46.2,37.7v9.6l1.3-5c-.6-2-.7-4.1-.3-6.1-.4.5-.8,1.1-1,1.5Z"/>
          <path class="st6" d="M226.2,47.2v-9.6c-.3-.4-.6-1-1-1.5.4,2,.3,4.1-.3,6.1l1.3,5Z"/>
          <path class="st6" d="M225.2,265.1c.4-2,.3-4.2-.3-6.1l1.3-5v9.6c-.3.4-.6,1-1,1.5"/>
        </g>
      </g>
    </g>
  </g>
  <g id="Layer_2">
    <g>
      <path class="st2" d="M268,302H4.5l-4.5-3.6V3.6L4.5,0h263.4l4.5,3.6v294.7l-4.5,3.6h.1Z"/>
      <g>
        <g>
          <g>
            <polyline class="st1" points=".5 22 2.1 20.2 2.1 2 113.5 2"/>
            <polyline class="st1" points="2.4 12.3 5.4 14.6 5.4 4.5 18 4.5 15.3 2.4"/>
            <polyline class="st1" points="5.4 10.9 7.1 12.2 7.1 6 15 6 13.3 4.6"/>
            <ellipse class="st0" cx="6.5" cy="5.6" rx="3.6" ry="2.9"/>
            <ellipse class="st0" cx="6.5" cy="5.6" rx="2.1" ry="1.7"/>
            <ellipse class="st4" cx="6.5" cy="5.6" rx="1.1" ry=".9"/>
          </g>
          <polygon class="st4" points="115.4 2 113.2 .9 113.2 3.4 115.4 2"/>
        </g>
        <g>
          <g>
            <polyline class="st1" points="272.5 22 270.8 20.2 270.8 2 159.4 2"/>
            <polyline class="st1" points="270.4 12.3 267.5 14.6 267.5 4.5 254.9 4.5 257.7 2.4"/>
            <polyline class="st1" points="267.4 10.9 265.7 12.2 265.7 6 258 6 259.6 4.6"/>
            <ellipse class="st0" cx="266.3" cy="5.6" rx="3.6" ry="2.9"/>
            <ellipse class="st0" cx="266.3" cy="5.6" rx="2.1" ry="1.7"/>
            <ellipse class="st4" cx="266.3" cy="5.6" rx="1.1" ry=".9"/>
          </g>
          <polygon class="st4" points="157.6 2 159.7 .9 159.7 3.4 157.6 2"/>
        </g>
        <g>
          <g>
            <polyline class="st1" points=".5 279.5 2.1 281.3 2.1 299.5 113.5 299.5"/>
            <polyline class="st1" points="2.4 289.2 5.4 286.8 5.4 297 18 297 15.3 299.1"/>
            <polyline class="st1" points="5.4 290.7 7.1 289.2 7.1 295.5 15 295.5 13.3 296.9"/>
            <ellipse class="st0" cx="6.5" cy="295.9" rx="3.6" ry="2.9"/>
            <ellipse class="st0" cx="6.5" cy="295.9" rx="2.1" ry="1.7"/>
            <ellipse class="st4" cx="6.5" cy="295.9" rx="1.1" ry=".9"/>
          </g>
          <polygon class="st4" points="115.4 299.5 113.2 300.7 113.2 298.1 115.4 299.5"/>
        </g>
        <g>
          <g>
            <polyline class="st1" points="272.5 279.5 270.8 281.3 270.8 299.5 159.4 299.5"/>
            <polyline class="st1" points="270.4 289.2 267.5 286.8 267.5 297 254.9 297 257.7 299.1"/>
            <polyline class="st1" points="267.4 290.7 265.7 289.2 265.7 295.5 258 295.5 259.6 296.9"/>
            <ellipse class="st0" cx="266.3" cy="295.9" rx="3.6" ry="2.9"/>
            <ellipse class="st0" cx="266.3" cy="295.9" rx="2.1" ry="1.7"/>
            <ellipse class="st4" cx="266.3" cy="295.9" rx="1.1" ry=".9"/>
          </g>
          <polygon class="st4" points="157.6 299.5 159.7 300.7 159.7 298.1 157.6 299.5"/>
        </g>
      </g>
    </g>
  </g>
</svg>