<?xml version="1.0" encoding="UTF-8"?><svg xmlns="http://www.w3.org/2000/svg" viewBox="0 0 587.4 98"><defs><style>.cls-1{fill:#231f20;}.cls-2,.cls-3{fill:#fff;}.cls-3,.cls-4,.cls-5{stroke:#231f20;}.cls-3,.cls-5{stroke-miterlimit:10;}.cls-4{stroke-linejoin:bevel;}.cls-4,.cls-5{fill:none;stroke-width:.8px;}.cls-6{fill:#dcddde;}</style></defs><g id="Layer_4"><g id="Layer_21"><path class="cls-6" d="M33.5,65.1l.3,9.2v.2l-9.5,9.5c-.2.2-.4,0-.3-.3l9.2-18.7c0-.2.3-.1.3.1h0Z"/><path class="cls-6" d="M33,64.1l-17.7-8.7c-.2,0-.1-.5,0-.5l14.2.2s.1,0,.2.1l3.5,8.4c0,.2,0,.4-.2.3v.2Z"/><path class="cls-2" d="M33,64.6l-5.8,2.3s-.1,0-.1.2l-3.4,16.4c0,.3.2.4.3.2l9.2-18.7c0-.2,0-.4-.2-.4Z"/><path class="cls-2" d="M32.9,64.1l-17.3-8.5c-.2,0-.3.3-.2.4l11.5,10.8h.2l5.8-2.3c.2,0,.2-.4,0-.5v.1Z"/><path class="cls-2" d="M33.4,63.5l.3-22.7c0-.3-.3-.3-.4,0l-3.7,14.5v.2l3.4,8.2c0,.2.3.1.3-.1l.1-.1Z"/><path class="cls-1" d="M31.8,49.7l.6,24.7-8.2,8.5,3.6-15.4.2-.7-.5-.5-10.2-10.2h12c.7,0,1.4-.5,1.5-1.3l1-5.1M32.9,37l-3.4,17.5c0,.1,0,.2-.2.2h-15.4l12.5,12.5-4.8,20.3,12.1-12.5-.9-38h.1Z"/><path class="cls-4" d="M15.4,55.3l17.5,8.5c.2,0,.3-.2.2-.3l-3.5-8.2"/><path class="cls-4" d="M26.4,67.2l6.5-2.9c.2,0,.3.2.2.4l-9.8,20.3"/><rect class="cls-3" x="33.1" y="37.5" width="219" height="37.6"/><rect class="cls-3" x="35.7" y="39.7" width="213.9" height="33.1"/><line class="cls-5" x1="48.8" y1="51.6" x2="43.5" y2="39.7"/><line class="cls-5" x1="48.8" y1="51.6" x2="40.1" y2="39.7"/><line class="cls-5" x1="48.8" y1="51.6" x2="35.7" y2="39.9"/><line class="cls-5" x1="48.8" y1="51.6" x2="35.7" y2="44.1"/><line class="cls-5" x1="48.8" y1="51.6" x2="35.7" y2="47.4"/><line class="cls-5" x1="48.8" y1="61.3" x2="43.6" y2="72.9"/><line class="cls-5" x1="48.8" y1="61.3" x2="40.3" y2="72.9"/><line class="cls-5" x1="48.8" y1="61.3" x2="35.9" y2="72.9"/><line class="cls-5" x1="48.8" y1="61.3" x2="35.7" y2="68.8"/><line class="cls-5" x1="48.8" y1="61.3" x2="35.7" y2="65.5"/><line class="cls-5" x1="242.2" y1="39.7" x2="236.9" y2="51.6"/><line class="cls-5" x1="245.6" y1="39.7" x2="236.9" y2="51.6"/><line class="cls-5" x1="249.6" y1="40.2" x2="236.9" y2="51.6"/><line class="cls-5" x1="249.6" y1="44.3" x2="236.9" y2="51.6"/><line class="cls-5" x1="249.6" y1="47.5" x2="236.9" y2="51.6"/><line class="cls-5" x1="242.1" y1="72.9" x2="236.9" y2="61.3"/><line class="cls-5" x1="245.4" y1="72.9" x2="236.9" y2="61.3"/><line class="cls-5" x1="249.6" y1="72.7" x2="236.9" y2="61.3"/><line class="cls-5" x1="249.6" y1="68.6" x2="236.9" y2="61.3"/><line class="cls-5" x1="249.6" y1="65.4" x2="236.9" y2="61.3"/><path class="cls-3" d="M52.3,39.7h180.7c9.17,0,16.6,7.43,16.6,16.6h0c0,9.17-7.43,16.6-16.6,16.6H52.3c-9.17,0-16.6-7.43-16.6-16.6h0c0-9.17,7.43-16.6,16.6-16.6Z"/></g></g><g id="Layer_3"><path class="cls-1" d="M236.91,37.22c-.19-.13.13-.33.13-.33.05-.09-.09-.26-.09-.26-.2.02-.07-.07-.07-.16,0-.02-.13-.09-.14-.1-.01-.03.05-.1-.03-.14-.03.1.09-.09-.08-.33-.04-.06-.11-.16-.09-.17.3-.17.55-.41.84-.6.93-.6,1.49-2.42,1.8-3.47.09-.3,0-.28.23-.53.04-.05.04-.19.16-.17,0,.05-.12.21-.11.22,0,0,.05,0,.07.03.07.1.16.26.15.38,0,0,.27.36.45.48.07.05-.01.14.17,0,0,0-.24-.12-.22-.26l-.15-.2c-.15-.11-.2-.27-.22-.45,0-.05.03-.14.02-.16-.04-.05-.14,0-.13-.07.06-.01.12-.03.17-.07.31-.2.44-.55.67-.84.21-.26.64-.75.98-.79.01,0,.13.14.16.14l.11-.11-.07-.05c.17-.28.69-.32.77-.68.04-.16.07-.72.09-.79.04-.12.21-.35.22-.45,0-.12-.32-.62-.4-.79-.17-.37-.53-1.28-.56-1.66,0-.13.05-.25.03-.36-.04-.19-.47-.7-.54-.94-.05-.16.03-.42-.02-.58-.02-.07-.14-.12-.16-.21-.04-.12.05-.21.02-.31-.02-.05-.09-.05-.11-.09-.07-.11,0-.39-.01-.54-.02-.23-.11-.48-.13-.71-.02-.16.02-.36,0-.51-.03-.17-.36-.52-.33-.66,0-.03.17-.02,0-.08.19-.19-.02-.42-.04-.66-.03-.33.05-.86.08-1.22.02-.32.18-.43-.19-.63-.57-.29-1.02-.77-1.38-1.32-.15-.23-.42-.82-.62-.93-.35-.19-.62.08-.94.15-.14.03-.51.06-.65.04-.21-.04-.25-.18-.36-.33-.02-.03-.08-.04-.09-.06-.04-.08-.03-.47,0-.57.02-.09.26-.44.24-.46-.3.12-.41.41-.4.39,0-.04-.05-.1-.04-.18,0-.06.13-.5.16-.55.18-.33.8-.75.9-1.17.05-.21-.03-.45.16-.61.1-.09.44-.08.33-.28.31.08.17.27.18.31.01.03-.07,0-.08.04-.02.09.05.21.02.3-.08.22-.28.41-.41.59-.04.06.01.13-.08.12,0,.08.16.02.2,0,.02-.01.32-.36.35-.39.3-.43-.05-.58.05-.99.02-.07.1-.14.1-.19,0-.06-.15-.15.02-.17.08,0,.19.04.29.04s.23-.04.33-.08c.06-.03.36-.25.38-.3.05-.09-.1-.2.04-.18.01-.06-.05-.02-.07-.06-.02-.04-.03-.15-.04-.16-.06-.05-.45.33-.71.18-.09-.05-.11-.32-.15-.36-.08-.08-.28.01-.37-.01-.07-.02-.09-.12-.14-.16-.04-.04-.1-.04-.14-.08-.04-.04-.06-.12-.11-.15-.1-.05-.33,0-.37-.02-.03-.02-.09-.53-.15-.61-.07-.09-.55-.14-.67-.09.09-.17-.02-.09-.11-.14-.44-.24-.28-.71-.55-.99-.08-.09-.37-.24-.48-.29-.13-.06-.37-.05-.47-.23.02-.23.06-.5.06-.73,0-.25-.13-.32.17-.5.04.03.08.07.1.12.03.06,0,.17.06.18-.02-.14.12-.18.18-.28.19-.33.21-.65.31-.95.05-.14.4-.97.47-1.04.1-.1.5-.22.64-.29.18-.09.33-.23.52-.29-.25.66-.94,1.27-.72,2.03.14.11.18-.55.21-.62.05-.14.44-.41.58-.46.09-.03.26-.01.39-.05s.18-.1.28-.16c-.05.2-.38.27-.39.46,0,.06,0,.06.06.06l1.48-1.15c.21-.02.85.36,1.11.45.4.15,1.06.21,1.41.4.18.09.5.45.7.6.13.09.38.19.49.31s-.16.05-.2.05c-.11,0-.22,0-.33.03-.22-.03-.75-.36-.93-.36-.04,0-.65.29-.73.33-.12.07-.3.14-.28.31,0,.01.1.27.11.28.05.05.11-.12.21-.14.09-.02.17.03.26.06.29.12.87.48,1.15.66.18.12.36.27.49.43l-1.72-.39c-.35.14.1.57.3.62.13.03.49-.11.73-.07.13.03.11.17.22.19s.09-.08.11-.08c.04,0,.11.05.18.04.04,0,.08.07.08.07.05-.22.32-.22.46-.06.05.06.21.44.29.39.02-.01.23-.37.07-.28.05-.25.28-.2.43-.27s.26-.33.48-.37c.15-.03.23.07.34.05.12-.02.43-.18.58-.23.24-.08.37-.09.59-.19.09-.04.24-.06.31.04-.23-.04-.15.04-.21.11-.16.18-.3.18-.53.23,0,.03.04.07.06.07.02,0,.38-.12.45-.14s.21-.01.26-.04c.05-.02.05-.08.05-.08.06-.02,1.04.08.84.33.22.01.22-.04.27.03.07.09.31.24.38.38.19.42-.15.87-.5,1.09-.05.03-.14.02-.17.06-.03.04-.03.36-.02.43.02.14.31.46.42.57.66.68,1.39,1.21,1.9,2.06.09.15.26.63.35.7.18.13.64.11.84.18.31.1.78.62.95.9.06.1.07.26.16.32.06.04.14.03.19.06.04.02.07.13.15.11.07-.02.1-.24.21-.26.03.06.19.34.22.35.26.13.51-.53.62-.68.03-.04.04-.1.12-.08-.06.23-.08.48-.11.72-.03.18-.09.36-.07.55,0,.09.04.26.07.33.08.15.27.16.35.25.06.07.1.22.19.33.19.23.52.43.72.68.1.12.19.3.3.44.05.07.14.09.18.15.03.05.03.15.04.16.03.02.21-.03.33.09.06.06.07.15.13.21.2.22.39.43.64.54.18.08.12.22.18.3.03.04.12.04.17.09.07.07.08.24.12.27.06.05.19,0,.24.18.09.35.26.67.31,1.02.07.45.1.92-.21,1.28-.08.1-.29.26-.38.22.05.17-.15.35-.29.25-.02-.01-.02-.09-.04-.12-.02-.03-.11-.04-.17-.1-.17-.16-.27-.49-.51-.67-.05-.04-.13-.03-.19-.07-.08-.07-.32-.5-.46-.65-.13-.13-.3-.23-.44-.33-.07-.1.01-.47,0-.58-.03-.14-.18-.15-.21-.24-.06-.2.12-.35-.25-.38-.09,0-.15.03-.22.03-.21,0-.44-.39-.61-.53-.23-.18-.58-.32-.84-.49-.36-.25-1.25-1.04-1.58-1.16-.1-.03-.27-.02-.32-.05-.06-.04-.07-.55-.1-.6-.05-.07-.19-.09-.26-.15-.08-.06-.42-.43-.48-.51-.11-.14-.2-.47-.29-.56-.08-.08-.3-.13-.43-.25-.17-.16-.32-.46-.51-.64s-.46-.33-.65-.53c.02.25.24.46.32.69.07.2.11.65.12.88,0,.25-.13.55-.15.81-.02.35.05,1,.28,1.27.06.06.45.39.54.46.21.17.41.17.56.44.18.31.06.69.07,1.04.01.47.19,1.22.02,1.64-.07.18-.27.36-.16.57.03.05.27.25.33.3.15.11.4.26.58.31.08.02.41.16.41.2l.07-.02s.06-.03.09-.02c.1.03.3-.08.4-.07.07,0,.68-.08.93.07,0,0,.2-.06.3-.06.03,0,.54.01.6.04.53.25,1.12,1.12.99,1.72-.02.12-.36.61-.46.69-.29.22-1.1.52-1.41.28-.22-.17-.07-.23-.04-.41.03-.23-.01-.38-.12-.58-.31-.6-.66-.38-1.2-.39-.21,0-1.11-.11-1.23,0-.04.04-.18.58-.19.68-.06.52.07,1.2.04,1.78-.06,1.32-.65,2.26-.98,3.45-.15.55-.29,1.14-.42,1.69-.05.19.02.41-.01.61-.02.1-.18.52-.24.61-.17.26-.76.34-.78.55,0,.07.09.13.06.24s-.21.21-.23.35c-.3.22-.48.63-.74.89-.1.09-.31.2-.37.27-.06.06-.09.21-.15.29-.59.85-1.42,1.8-2.19,2.48-.13.12-.32.23-.45.35-.1.09-.21.19-.26.31h-2.29c-.1-.34.05-.34.18-.54.43-.67.84-1.4,1.09-2.15-.17.07-.3.22-.44.33-.64.54-1.15.96-1.73,1.59-.08.08-.21.13-.27.24-.07.14-.07.38-.15.53h-.33l.17-.15h.13c.01-.06.05-.19.03-.24,0-.02-.06-.01-.07-.04,0-.07.04-.12.02-.2-.12-.35-.33-.35-.31-.8,0-.05.03-.22.05-.26.02-.04.22-.21.24-.25,0-.02.06-.08.09-.1.13-.11.17-.25.26-.36.1-.13.26-.12.17-.34-.02-.03-.33.34-.38.39-.07.06-.2.1-.28.18-.17.14-.29.42-.46.57-.05.15.03.2.04.24.04.27.04.41.26.6.05.04.16.02.17.15,0,.06-.12.2-.13.2-.07,0-.17-.14-.22,0,0,.02.12.3-.02.41h-1ZM243.74,7.36l-.37.04c.07.09.25.07.25.08.01.02,0,.09.04.13.04.05.11.04.14.06.03.03.05.18.12.23.03.02.24.02.27.02s.02.07.04.07c.06,0,.23-.11.28-.17-.2-.1-.16,0-.23.03-.04.02-.26.01-.3-.01-.02-.01-.12-.24-.15-.28s-.12-.09-.13-.1c-.02-.04.05-.09.03-.1ZM241.33,9.35s0-.21-.06-.16c-.08.15-.17.29-.28.42-.05.06-.19.23-.21.25-.04.06-.21.19-.21.19.06.13-.08.16-.08.17,0,.06.1.11.04.2.08.02.18,0,.19,0,.06.05.09-.07.12-.1.05-.04.18-.11.24-.12-.03-.06,0-.16.02-.26.02-.11.07-.27.17-.31,0,0,.04-.25.06-.28ZM241.63,10.2s.14-.52.16-.6c0-.06.02-.07-.04-.03-.05.04-.08.03-.09.04-.02.02-.35.59-.35.59-.04.17-.28.35-.35.52-.03.08.07.25-.13.22.08.17.15-.04.19-.07.01,0,.12.03.23-.05.01-.01.2-.2.2-.21.07-.13.16-.41.18-.42ZM246.48,18.19c.07.06.4-.39.42-.44.04-.1.04-.29.02-.41l-.18.04c.04.2-.34.65-.26.81ZM245.44,18.3c-.09.08-.26.05-.38.03-.24-.04-.51-.14-.74-.21l-.13.13c.07.09.55.27.55.28.21-.03.12.28.33.17-.01-.04.09-.21.18-.23.14-.04.27.01.19-.16ZM246.03,24.37c-.02-.32-.09-.74-.13-1.07-.06-.58-.11-1.01-.29-1.58l-.14-.29-.04.04c-.15-.03-.18.03-.14.17,0,.02.12,0,0,.16-.03.04-.1.02-.09.08,0,0,.12.12.11.17,0,.02.07.56.07.57.02.03-.01.56,0,.63.13-.03.01.07.06.07.11,0,.13.2.13.39,0,0,.1.23.1.41,0,0-.14.05-.07.13.04.04.07.11.07.13,0,.08.11.4.07.45-.02.02-.02.09-.03.13l-.07-.04c0,.13.04.28.04.24,0-.03-.01.17-.08.27,0,0,.14.06.15.09.03.14.11.17.15.23.05.09-.01.19.15.16.02-.06-.03-.17-.04-.24,0-.11-.09-.33-.07-.48.01-.08.07-.16.07-.23,0-.08.04-.18.04-.22,0-.04-.03-.27-.04-.37ZM243.26,31.45c-.1.04-.21-.05-.31-.08l-.36-.29s-.23.64-.41.55c.07.09-.08.1-.13.11-.15.02-.42.26-.42.26,0,.05-.05.23-.09.22-.08-.03-.19.08-.23.12s-.09.27-.23.31c0,0,.3.02.37-.04.13-.11.27-.21.41-.32,0,0,.09-.15.14-.18.2-.11.3-.21.47,0,.04.05.05.14.06.14.06.05.21-.08.16.23.2-.17.44-.3.65-.46.04-.03.13-.09.2-.13.09-.06.27-.33.31-.41-.18-.04-.35.05-.55,0,0,0-.01,0-.04-.04ZM241.32,31.75s-.06.05-.09.06c-.13.03-.32.07-.43.12-.09.05-.12.14-.13.15-.01,0-.2-.08-.28.01,0,.01-.07.25-.07.28,0,.06.02.11-.02.17-.05.08-.22.39-.24.4,0,0-.22.33-.34.47-.05.06-.1.2-.17.27-.09.08-.28.25-.32.3-.05.08-.03.07-.04.1,0,.01-.07.01-.08.08-.02.09.06.13.13.15,0-.13.04-.18.15-.24,0,0,.14-.12.18-.17,0-.01.12-.1.12-.1,0,0,.02-.11.03-.12.01-.02.17-.14.23-.24.03-.05.09-.13.13-.16.18-.14.32-.35.53-.45l.3-.3c-.09-.15.23-.42.26-.44.02-.01.08.04.1.03.01,0,.13-.15.19-.14.01-.07-.08-.19-.13-.22Z"/><path class="cls-1" d="M219.24,6.29s.1,0,.14.03c.07.04.31.69.35.81.06.19,0,.43.2.55.13-.42.59-.48.98-.52.16-.02.37.03.52,0,.09-.02.13-.12.27-.15.23-.04.86-.08,1.08-.04.4.07.54.75.58,1.09.51-.17,1.01-.23,1.55-.18.4.04.79.28,1.19.13.13-.05.22-.2.37-.17v.19c.16-.04.34-.02.5-.04.14-.02.2-.1.41-.07.34.05.37.27.51.49.07.11.27.23.22.41-.22.54-.33,1.13-.54,1.68-.27.7-.79.95-.73,1.78.03.47.09.3-.06.77-.03.09,0,.18-.03.27-.06.2-.39.47-.6.53-.85.23-2.18-.18-2.48-1.09-.04-.12-.02-.24-.08-.37-.08-.18-.37-.4-.39-.59-.02-.24.29-.27.45-.15l.38.32c-.17-.54-.23-1.09-.3-1.65-.13-.02-.27.08-.39.08-.1,0-.29-.1-.38,0-.07.08-.25.59-.34.75-.38.71-.92,1.43-1.41,2.08-.21.28-.25.42-.42.71-.09.16-.52.64-.52.76,0,.21.17.22.29.32.17.14.24.46.24.68.05-.04.19-.14.21-.19.02-.06-.04-.12.02-.17.06-.05.3-.12.39-.17.08-.05.34-.27.39-.29.19-.06.3.11.36.1.06-.01.39-.5.58-.59.48-.21,1.26.04,1.77.12.12.02.28,0,.42.03.05,0,.34.1.36.11.04.04.04.17.05.18.01.01.24-.04.32-.04.15,0,.45.02.59.05.12.02.68.15.72.22.03.05.03.14,0,.19,0,.01-.22.14-.23.14-.17.05-.58,0-.81.05-.51.09-.93.41-1.32.74-.33-.05-.67-.03-1-.03-.06,0-.13-.04-.19-.04-.12.01-.49.33-.61.37-.33.09-.61.04-.99.21-.16.07-.92.61-.93.76-.01.14.21.3.04.47.36.02.53.59.75.73.13.09.71.21.94.3.95.39,2.09.99,2.79,1.74.33.36,1.4,1.66,1.44,2.09.01.13-.08.26-.06.31,0,.02.21.25.23.26.06.01.25-.09.32,0,.17.22.12.85.02,1.11-.17.44-.73.86-1.21.89-.91.06-2.25-.36-3.05-.82-.41-.24-.78-.84-1.17-1.15-.43-.34-1.2-.54-1.74-.47-.22.03-.25.17-.52.14-.34-.03-.41-.33-.79-.34-.17,0-.16.08-.27.15-.22.12-.53.23-.72.36-.29.2-.56.81-.98.68-.04-.01-.34-.21-.35-.25-.04-.09-.07-.47-.05-.58.02-.15.36-.89.45-1.01.1-.13.78-.56.78-.61.02-.11-.18-.22-.19-.34-.01-.15.26-.33-.08-.38-.12.13-.49.27-.58.36s-.03.24-.09.36c-.09.16-.45.39-.58.54-.18.19-.35.55-.53.79-.82,1.09-2.07,1.37-3.05,2.2-.12.1-.88.87-.92.96s0,.18-.04.26c-.04.09-.21.15-.28.25-.08.13-.08.34-.18.5-.26.45-.75.54-1.03.88-.13.17-.23.45-.34.63-.8,1.28-2.12,1.51-3.11,2.56-.35.37-.97,1.16-1.21,1.61-.13.25.16.23.15.37,0,.1-.52.74-.62.77-.11.03-.3-.18-.37-.18-.02,0-.22.34-.23.37,0,.05.06.09.06.17,0,.24-.55,1.29-.74,1.41-.05.03-.11,0-.16.06-.24.26-.35.64-.66.92-.11.1-.79.62-.88.66-.13.05-.65-.26-.67-.42.07-.27.07-.59.12-.86.11-.57.41-1.08.57-1.65.09-.32.62-.77.74-1.12.06-.02.12.09.17.07.03,0,.4-.5.41-.53.07-.2-.16-.19-.07-.37.18-.13.41-.61.58-.7.1-.05.2.12.28.12.16,0,.9-.76,1.05-.92.44-.48.87-1.06,1.11-1.66.16-.38.21-.81.38-1.2.36-.83,1.07-1.32,1.78-1.82.08-.05.26-.11.27-.13.01-.01.04-.22.09-.31.03-.05.36-.42.41-.45.09-.07.22-.07.3-.15.09-.08.24-.46.3-.49s.16,0,.18-.02c.01,0,.06-.22.1-.3.81-1.62,1.51-2.71,2.87-3.92.21-.19.82-.61.95-.77.05-.07.06-.16.1-.24.1-.16.4-.61.56-.68.12-.06.27.22.34.17.16-.39-.23-.38-.32-.53-.12-.2.2-.59.26-.79.04-.13.04-.31.08-.4.03-.07.16-.11.16-.14s-.18-.33-.21-.42c-.1-.28-.13-.72-.23-.97-.04-.1-.16-.16-.18-.27-.03-.15.08-.18.05-.31-.03-.18-.38-.46-.5-.66-.11-.19-.18-.55-.27-.67-.14-.18-.6-.42-.81-.69-.25-.33-.54-1.02-.31-1.4.17-.28.7-.5.86-.72.07-.1.09-.35.21-.51.17-.24.88-.64,1.17-.71.12-.03.64-.04.67-.08-.03-.57.54-.79.77-1.15.06-.1.05-.19.1-.28.02-.05.1-.08.12-.14.06-.19-.09-.7,0-1.01s.29-.37.48-.57c.28-.3.18-.49.65-.63.66-.2.9-.01,1.41.36.06.04.08.12.1.14ZM221.4,12.26c.57-1.18.99-2.48.94-3.81,0-.16-.02-.36-.05-.51-.06-.28-.21-.48-.29-.74-.05-.01-.04.04-.05.08-.03.11-.08.31,0,.4.14.18.16.22.2.48.16,1.05-.18,2.38-.52,3.37-.07.21-.18.41-.25.62-.01.04-.05.12.02.11ZM221.47,7.48c-.11-.07-.36-.03-.49-.01-.05,0-.07-.02-.06.06.1.07.03.2.13.28.03.02.48.08.52.07.06-.01.07-.19.06-.23,0-.01-.15-.16-.16-.16ZM224.82,8.06l-.76.08c-.06.13-.2.06-.33.07l.07.06c-.03.09-.55.23-.41.39.02.03.45-.26.52-.29.3-.15.47-.15.78-.23.05-.01.12,0,.13-.08ZM226.84,8.21c-.1,0-.19-.08-.28-.08-.02,0-.34.1-.38.11-.1.04-.2.15-.2.27.15-.02.24-.12.4-.14.14-.02.28,0,.42-.01l-.07-.11.11-.04ZM216.38,8.93s-.12,0-.15.02c-.03.02-.38.45-.4.5-.11.24-.07.5.02.75.02.04.07.05.07.06.04.08.04.24.15.33.07.06.14-.03.19.04.04.06-.04.12,0,.19.04.06.26.22.32.29.03.04.03.09.05.11.08.08.43.43.51.45.1.03.2.02.3.02l-.11-.04c.15-.16.02-.14-.02-.22s.05-.25-.05-.41c-.04-.06-.09-.07-.12-.11-.1-.15,0-.29-.3-.23.18-.42-.07-.24-.15-.31,0,0,0-.06-.02-.09-.01-.02-.05-.02-.06-.04-.03-.13.04-.25.03-.36-.01-.15-.19-.59-.25-.77-.02-.05,0-.15-.01-.16ZM225.38,11.36c.07-.1.03-1.3-.06-1.27-.1.14-.44.12-.51.17-.09.06.03.33.04.43.27-.2.34.3.4.48.02.05.07.18.12.2ZM214.5,10.17s-.21,0-.26.01c-.09.03-.09.1-.12.12-.15.09-.32,0-.36.29-.06.45.31,1.11.68,1.34.03.02.09.01.13.03.02,0,.03.08.08.09.08.01.1-.04.14-.05.08,0,.34.01.38-.11.12-.36-.31-.82-.46-1.11-.06-.12-.19-.61-.21-.63ZM213.54,12.1l-.25-.74c-.1.04-.05.14-.06.15-.04.03-.31.03-.4.11-.06.06-.03.12-.06.16-.02.03-.06.03-.07.06-.04.18.11.68.24.8.04.03.08,0,.09,0,.07.06.1.3.31.26l-.04.07c.17,0,.13.11.19.17.01.01.34.2.36.2.23.07.26-.14.31-.31l-.15-.02c-.03-.09.04-.21.04-.28,0-.02-.05-.02-.07-.05-.1-.17-.21-.33-.33-.49-.03-.05-.1-.06-.12-.09ZM223.43,14.37c-.24-.02-.49.05-.67.21.12.16.39.26.58.25.1,0,.19-.12.32-.08.03-.15-.11-.17-.23-.19l.04-.07h-.19s.15-.11.15-.11ZM222.98,14.89l-.34-.22.04.11-.22-.03c-.41.51-.19.3.2.37.09.02.17.14.32.17.1.02.19,0,.27.03.17.04.37.17.55.1-.05-.12-.18-.11-.28-.15-.07-.03-.16-.13-.2-.14-.13-.02-.27.15-.39.09l-.19-.19.22-.13ZM215.52,14.74c-.06,0-.12-.01-.18.01-.1.04-.25.16-.32.2-.02,0-.39.12-.29.2.13.03.22-.07.33-.1.14-.04.26-.02.4-.16.03-.03.08-.13.06-.15ZM219.53,15.27s-.5-.08-.55-.03c0,0,.02.05,0,.07-.09.1-.17.13-.3.16l-.23.4s.41-.05.46-.08c.04-.02.04-.08.07-.09.07-.04.54-.26.55-.29.01-.02.01-.13,0-.14ZM215.82,15.42s-.02-.17-.06-.19c-.13-.02-.27.14-.3.14-.09.02-.19-.23-.25.01-.03.14.11.17.12.24,0,.04-.04.1-.03.12,0,0,.1.04.15.1.03.04.02.1.04.14.04.07.23.33.09.36-.12.03-.15-.33-.17-.34-.01,0-.07.03-.09.02-.06-.01-.21-.45-.24-.55-.05-.01-.04.04-.05.08-.09.24,0,.3.08.52.02.07,0,.15.02.2s.14-.02.01.12c.13.22.18.54.28.76.02.04.09.18.11.22.07.13.15.1.25.12.03,0,.05.13.18.07.03-.02-.48-.68-.15-.51.12.06.1.28.26.28.06-.19-.06-.31-.1-.45-.05-.21-.07-.46-.12-.66s-.31-.6-.18-.8c.04-.06.15-.02.17-.04ZM216.26,17.07s-.12-.03-.11.05c.03.14.11.2.14.28.02.03,0,.1.02.16.01.03.2.24.17.26-.11.01-.25-.06-.28.08l-.13-.15v.23c.23-.09.11,0,.12.03,0,0,.08.09.09.09.04,0,.13-.07.22-.08.04,0,.19-.03.17.06-.09.17-.35.16-.45.26s-.09.34-.19.47c.08.02.09-.04.12-.08.21-.25.3-.48.67-.58.02-.06-.06-.65-.11-.58l-.04.11c.03-.16-.1-.13-.14-.16-.06-.06-.16-.19-.21-.26-.04-.06-.06-.17-.07-.18ZM217.2,17.78l.02-.15c-.08.06-.09.16-.13.24-.02.03-.07.02-.07.03-.05.08.06.08.06.08.05.08-.05.16-.06.24-.05.28.15.42.24.66.04.1,0,.31.13.3.04-.18-.19-.54-.12-.66.09-.13.2-.03.16-.34,0-.04-.15-.22-.15-.23-.01-.07.08-.25-.07-.16ZM214.71,19.26c-.07-.06-.18-.16-.13,0,0,.01.06.02.07.05.06.11.12.19.17.27.08.14.15.45.27.56.03.03.22.09.24.07v-.11c.06.06.12.03.07-.03-.09-.12-.04-.1-.1-.22-.03-.06-.12-.07-.12-.11-.01-.05.02-.13,0-.16,0,0-.09-.01-.13-.03-.17-.09-.21-.19-.33-.29ZM219.53,21.19c-.14.06-.26-.07-.35.08-.02.03-.1.25-.1.28,0,.02.06.02.08.05.03.06.09.28.15.17.07-.12.16-.28.19-.42l.11-.02-.07-.02v-.11ZM213.49,21.31l-.28.11c-.17.24-.59.43-.58.75l-.07-.07c0,.06-.06.1-.09.15-.04.06-.1.15-.15.21-.03.04-.11.02-.13.06-.03.04-.02.19-.12.25.27-.06.44-.36.64-.55.12-.11.35-.2.45-.37l.34-.54ZM220.23,21.81c-.08-.05-.17-.07-.23-.16-.03.12-.06.03-.17.04.06.21-.2.21.02.37.18.12.38.07.55.12.03,0,.02.06.05.07.06.02.46.07.46-.02,0-.07-.16-.06-.18-.07-.19-.11-.33-.22-.51-.35ZM211.42,23.59s-.08-.05-.11.02c.05.08.07.17.19.11.03-.01.37-.36.39-.4.09-.15.15-.39.13-.56-.17.02-.14.29-.15.3-.03.03-.13-.08-.28.15-.04.07-.15.21-.15.22-.03.05,0,.12-.02.15ZM223.89,23.51c-.07-.06-.35-.36-.46-.29,0,0,.03.06.02.08-.05.12-.13.13-.07.29.02.04.06.04.07.06.02.03,0,.09.01.1.02.02.13-.09.13.04.07-.15.25-.1.32-.14.21-.1-.01-.13-.03-.14ZM210.21,24.86c-.06.06-.22.09-.08.2.14-.18.93-.39.71-.71-.08-.13-.24.17-.28.21-.12.11-.22.17-.35.31ZM208.01,26.87c-.1-.05-.41.32-.51.4-.09.08-.22.13-.31.21l.19-.06v.15c.2-.01.38-.08.54-.19.03-.02.04-.08.07-.1.06-.04.19-.06.24-.1.01,0,.14-.24.12-.25-.1-.01-.22.02-.31,0-.03,0-.03-.06-.03-.06ZM206.59,29.37s-.11,0-.11,0c-.01.01.02.12,0,.15-.01.01-.24.15-.26.18-.01.02-.2.33-.2.35-.05.17.23.12.21.22l.11-.11-.11-.04c.06,0,.12,0,.17-.04.04-.03.35-.54.32-.57,0,0-.09.01-.11,0-.02-.02,0-.13,0-.15ZM205.73,30.57c-.1-.09-.41.37-.46.44-.08.09-.27.15-.25.31.22.11.77-.7.71-.75ZM204.38,32.03s-.02-.15-.06-.15c-.01,0-.06.08-.1.09-.05.02-.13.01-.15.02,0,0,.03.05.01.07-.1.18-.2.27-.2.51,0,.11.13.26.23.18.16-.14-.17-.25-.02-.54.08-.15.27-.18.28-.19ZM203.64,33.26c-.02-.05,0-.12-.03-.14-.09.04-.01.14-.02.15s-.1,0-.14.03c-.06.03-.1.09-.15.11-.11.04-.24-.04-.27.14-.04.21.05.36.28.32.12-.02.42-.36.42-.48,0-.12-.08-.12-.09-.13ZM203.01,34.11c-.09-.06-.14-.11-.26-.09-.07.02-.02.15-.02.15-.04.02-.17-.02-.22,0-.02.01-.22.41-.22.43-.05.2.42.4.48.37.02,0,.27-.3.28-.32.02-.05-.04-.13-.01-.18.02-.03.22-.05.13-.23,0,0-.13-.12-.15-.13Z"/><path class="cls-1" d="M183.78,36.53c-.42.3-.77,0-1.12.23-.04.02-.36.3-.37.32-.04.07,0,.17-.04.26,0,.02-.24.26-.26.26h-1.55c-.07-.06.38-.32.42-.4.07-.16,0-.33.15-.58.13-.2.49-.38.54-.48.07-.15.02-.33.15-.51.3-.43.86-.56,1.35-.48.1.02.16.11.29.1.43-.04.6-.24.92-.36.19-.07.53-.02.6-.22-.32.06-.25-.21-.34-.28-.1-.08-.4.02-.36-.28.03-.17.44-.14.44-.37,0-.1-.1-.12-.04-.26.08-.19.3-.17.37-.24.06-.06.03-.2.06-.28,0-.01.19-.24.21-.25.04-.02.09,0,.14,0-.09.15-.16.45,0,.57.06.04.16.04.19.08.06.08,0,.25.04.3,0,.01.22.14.24.14.08.03.3.06.38.04.04-.01.54-.42.61-.48.25-.23.97-1.07.99-1.39,0-.1-.1-.41-.15-.51-.18-.33-.61-.55-.83-.85-.07-.09-.3-.54-.33-.57-.02-.01-.37.11-.39.12-.03.02-.13.24-.19.3-.2.2-.37.08-.55.15-.43.17-.92.88-1.22,1.05-.42.24-1.25.36-1.73.32-.22-.02-.4-.04-.52-.24-.1-.17-.15-.6-.15-.8,0-.27.1-.45-.03-.7s-.75-.92-.98-1.11c-.3-.25-.5-.17-.41-.67.07-.39.56-1.05.77-1.42.05-.09.35-.66.35-.71,0-.08-.3-.17-.39-.22-.18-.11-.37-.25-.29-.48.05-.14.71-.54.86-.67.17-.15.34-.35.44-.54.04-.07.05-.2.09-.24.06-.07.19-.04.24-.1.02-.03.08-.18.1-.22.14-.4-.01-.56-.06-.94-.09-.77.14-1.43.65-2.01.14-.16.33-.28.46-.42.21-.23.38-.55.61-.79.14-.14.47-.3.42-.53-.03-.16-.38-.34-.36-.55.02-.25.51-.33.51-.51,0-.12-.58-.83-.55-1.08-.35.1-.62-.16-.49-.51.04-.1.19-.15.09-.23-.16-.14-.48-.18-.67-.35-.09-.09-.15-.27-.26-.29-.28-.04-.18.22-.28.36-.18.23-.75.17-.76-.19,0-.2.07-.53.33-.46l-.15.11.18-.04.05.18.11-.29c.18.1.26.13.46.04-.06-.26-.04-.55-.04-.82,0-.09.09-.36-.02-.37-.21-.04-.28.33-.48.38-.17.04-.54-.03-.58-.21,0-.03.02-.45.03-.49.04-.14.28-.21.41-.21.34,0,.39.4.73.22l.53-1.57c-.32.36-.93.14-.91-.35,0-.07.21-.35.27-.38.1-.05.39-.05.5-.02.19.06.2.29.22.31.02.01.18.01.21,0,.02,0,.22-.25.24-.29.34-.47.64-.82,1.08-1.22.08-.07.51-.37.51-.4,0-.01-.09-.07-.11-.15-.09-.45.22-.85.69-.72.22.06.21.25.39.23.66-.27,1.29-.71,1.96-.93,1.96-.65,4.24-.15,6.09.62.23.09.87.46,1.04.49.24.04.13-.05.19-.25.15-.54.82-.52.98,0,.06.18-.07.47-.23.58-.07.05-.2.04-.23.15.69.37,1.21.97,1.62,1.63.08.09.53-.03.57-.07.02-.02.11-.29.16-.35.19-.19.7-.07.81.17.02.04-.02.35-.04.4-.08.25-.4.29-.62.25-.09-.02-.18-.13-.26-.14s-.23.12-.34.1c.1.25.3.48.38.73.09.27-.01.67.43.55.06-.02.15-.32.37-.36.79-.14.71,1.05,0,.9-.21-.04-.31-.26-.38-.28-.04-.01-.36-.02-.37,0-.01.01-.02.29-.08.34l-.47.79c.2.1.17-.03.25-.07.4-.23.89.31.57.66-.2.21-.6.22-.73-.06-.05-.12-.07-.43-.31-.37-.08.02-.5.42-.63.5-.08.05-.5.24-.52.27-.01.02.07.35.03.48-.07.25-.45.29-.65.17.08.19.22.38.28.58.17.55.18,1.06-.09,1.57-.04.08-.18.2-.19.29,0,.1.12.17.16.28.11.32,0,.81-.12,1.12.17-.08.54.2.55.35.01.22-.3.32-.32.45-.03.21.14.14.19.23,0,.01.06.29.06.31,0,.04-.32.11-.31.41.01.49.53.6.72,1.02.2.21,1.32.82,1.4,1.01.08.18.02.62.06.81.03.13.36.44.45.58.21.33.24.61.2,1-.05.44-.36.65-.6.97-.48.66-.92,1.36-1.43,2.01-.02.72-.06,1.45-.38,2.11-.44.9-1.7,1.94-2.54,2.5-.19.13-.57.28-.7.39-.23.21-.66,1.18-.73,1.5-.1.42-.1,1.26,0,1.69.02.1.07.19.1.28h-6.35c.11-.16.35-.19.48-.32.21-.22.34-.65.58-.87M187.16,36.63c-.18.17-.54.45-.79.49-.14.02-.33-.05-.41-.01-.09.04-.46.49-.49.49h-2.1c.08-.17.06-.36.14-.53M196.22,9.24c.16.16.4-.18.19-.32-.1-.07-.44-.04-.52.07-.02.04-.05.13.04.11.09-.09.17-.2.31-.18.03.03-.13.22-.03.32ZM186.1,9.15c-.45-.23-.92.3-.56.69,0-.12-.07-.17-.06-.31.01-.16.14-.29.29-.31-.03.13.04.29.2.26.02,0,.16-.29.13-.33ZM195.26,9.66c-.44-.02-.88-.18-1.33-.18-.84,0-1.45.26-2.19.55-.08.03-.58.16-.6.19s.02.18-.04.27c-.13.19-.5.12-.44-.16-.26-.03-.53-.04-.79-.1-.49-.11-.94-.38-1.45-.42-.22-.02-.64-.06-.75.15.3,0,.63.02.92.08.54.11,1.12.39,1.65.46.1.01.24-.02.32,0,.15.05.14.48.13.62h.4c.03-.13-.05-.46,0-.53.16-.25.61-.42.88-.51.73-.24,2.37-.63,3.05-.28.1.05.22.29.3.23.02-.01-.22-.22-.07-.36ZM185.66,21.86c-.07-.02-.09.04-.13.07-.22.19-.45.39-.66.58l-.38.22c.52.13.88-.53,1.17-.88ZM182.89,24.23s-.21-.04-.24-.04c-.23,0-.13.11-.18.26-.08.22-.36.41-.55.55-.09.07-.69.38-.6.51.03.04.26.04.33.02.03,0,.35-.27.41-.31.1-.08.31-.26.39-.36.05-.06.17-.31.22-.35.2-.16.06-.06.13-.17.01-.02.16-.05.09-.11ZM182.12,36.14c-.29.08-.61.2-.77.47.17-.06.31-.09.49-.07.11,0,.39.12.37,0-.02-.11-.16-.24-.1-.4Z"/><path class="cls-1" d="M156.74,37.54s.1-.05.12-.09c.13-.21.3-1.06.34-1.33.09-.68.05-1.6.25-2.24.19-.57.76-.68.66-1.5-.02-.14-.13-.24-.08-.36.17-.37,1.91-.96,2.35-1.16.92-.42,1.41-.83,2.1-1.55.25-.26,1-1.3,1.36-1.28.09.18.26.3.38.45.97,1.22,2.16,2.78,3.3,3.85.62.58,1.44,1.09,2.01,1.69.62.65.69,1.2,1.55,1.71.12.07.37.13.43.18.05.04.04.13.08.17.32.36.83.36,1.28.54.31.13,1.39.87,1.48.87h3.34c-.68-.56-1.08-1.4-1.66-2.02-.72-.78-1.57-1.12-2.44-1.64-.25-.15-.8-.65-1.05-.61-.27.05-.27.33-.69.04-.28-.19-.79-.95-.95-1.26-.11-.22-.15-.53-.24-.77-.44-1.14-1.01-2.2-1.7-3.2-.44-.64-.93-1.24-1.48-1.78-.05-.13.35-.96.38-1.2.07-.47-.07-1.26-.21-1.72-.04-.14-.27-.54-.25-.61.04-.13.37-.06.5-.08.58-.09,1.27-.25,1.75-.6.13-.09.24-.26.36-.36.19-.15.87-.6.96-.72.16-.23.21-.84.16-1.12-.04-.23-.27-.38-.37-.59-.17-.37-.19-.83-.39-1.25-.56-1.19-.8-1.47-1.12-2.82-.06-.27-.34-.65-.37-.83-.13-.72.18-.96-.27-1.75-.27-.47-.58-.83-.86-1.35s-1.05-1.85-1.17-2.34c-.03-.12.03-.22,0-.3-.04-.17-.37-.87-.47-1.06-.31-.58-.97-1.5-1.66-1.61-1.11-.18-2.21.16-2.62,1.28-.11.3,0,.36-.03.54-.02.09-.11.15-.14.25-.03.17.16,1.47.21,1.71.04.21.24.47.32.69.6,1.48.85,2.05.5,3.69-.12.57-.34.93-.49,1.43-.16.55.08.55.07.93-.01.7-.29,1.58-.38,2.31-.04.34.05.92-.22,1.17-.09.08-.27.14-.38.24-1.61,1.37-1.36,3.04-1.97,4.8-.09.25-.31.58-.35.81s.05.86,0,.96-.71.55-.86.68c-.57.51-.82,1.07-1.29,1.59-.33.36-.92.52-1.29,1.01-.43.57-.19.89-.38,1.35-.08.2-.45.46-.51.69s-.04.53-.11.8c-.26,1.03-.8,2.17-1.11,3.21-.13.42-.27.9-.35,1.33,0,.05.03.1.05.1h3.55ZM164.3,6.41l.33-.04c.18.29.58.58.72.89.05.11.05.13,0,.25-.08-.04-.34-.02-.38-.05,0,0,.04-.07.02-.13-.03-.07-.09-.13-.1-.19s.04-.14.03-.15c-.01-.02-.4-.27-.46-.28-.07,0-.14.04-.21.03l.19-.22-.14-.12ZM163.11,15c-.09-.16.35-.65.25-.86l.27-.43.14,1.39c-.1,0,.02-.22-.17-.14s.15.32-.24.24c-.03,0-.25-.19-.25-.2ZM163.57,16.15s0-.15.06-.06c0,.2.02.41-.05.6-.08.02-.03-.07-.06-.08-.19-.14-.12.16-.14.18-.25,0-.55-.23-.47-.49.11-.34.53-.07.65-.14ZM166.83,20.33c-.1.08-.38.38-.46.33-.19-.1-.19-.64-.14-.81.02-.06.39-.32.47-.39.43-.4.72-.82,1.08-1.27.13.35.83.87.88,1.19.01.09-.07.2,0,.3-.55,0-1.16.16-1.63.46-.11.07-.14.14-.21.19ZM162.62,22.12c-.05-.18-.09-.36-.1-.55-.05-.75.09-1.51.1-2.26,0-.33-.06-.66-.03-.99l.22,1.87.1-.74-.05-.79c.06-.01.08.09.08.13.06.41.13.85.19,1.25.01.1-.07.28-.03.4l.1-.05c0,.1-.04.17.1.14-.03-.46-.04-.89.05-1.34.08.03.05.28.05.36-.01.23-.08.46-.05.69l.1-.24c.08-.01.05.12.05.17-.02.63-.26,1.28-.39,1.9-.09-.02-.28-.12-.35-.09s-.04.15-.12.14ZM161.13,20.97c.22-.23.42-.59.77-.58-.2.24-.43.45-.62.7-.13.17-.09.4-.38.22-.04.19-.04.36-.22.48-.03-.13.19-.6.27-.65.04-.03.22.02.29-.14l-.1-.02ZM159.75,24.2s.12.11.17-.24.05-.24.22-.54c.03-.05.19-.52.27-.43-.02.25-.54,1.74-.67,1.8-.02,0-.14-.02-.15-.03-.02-.02.13-.55.15-.57ZM160.6,25.34c-.04-.05.39-1.21.46-1.3.02-.02.43-.06.5-.24-.03.21.14.46.15.65,0,.02-.07.34-.08.36-.02.04-.67.51-.72.53-.06.02-.09-.2-.31,0ZM155.7,37.45h-2.33c-.16,0,0-.53.02-.62l.09.05-.03-.24.99-3.02c.16-.03.2.1.22.1.03,0,.2-.07.25-.09.31-.17.39-.34.61-.54.12-.1.29-.01.17-.29-.03-.02-.09.1-.16.09-.07-.01-.48-.29-.61-.31v-.21c-.06-.03-.04.2-.14.1-.02-.02.14-.43.17-.43.05.31.28.17.46.2.24.04.5.17.74.18.43.02,1.39-.35,1.7-.22.19.08.15.34.14.5l-.1-.05c.13.14-.15.59-.27.61-.03,0-.5-.02-.52-.04-.11-.06.03-.1.07-.14.01-.02,0-.08,0-.1.03-.02.18,0,.25-.02.09-.02.41-.3.44-.37.05-.11-.16-.1-.23-.09-.46.09-.91.38-1.43.28.55,1.6.2,3.19-.53,4.66ZM177.41,37.4h-1.51s-.29-.31-.36-.36c-.27-.22-1.56-1.16-1.81-1.21-.07-.01-.15.04-.25.02s-.49-.26-.53-.22l.1.19-.53-.14c-.04.15.23.11.12.24-.18.23-.66.15-.58-.05.02-.06.21-.23.27-.35.29-.55.03-1.2.16-1.76.05-.24.13-.13.2-.19.06-.05.06-.14.07-.15.05-.03.35.28.42.33.74.52,1.54.76,2.27,1.38.62.52.81,1.01,1.3,1.58.21.24.48.44.67.7ZM157.19,34.18l.07-.19c.07.24-.05.5-.07.74-.08.74-.06,1.48-.31,2.18-.2.57-.26.57-.89.53-.05-.05.34-.54.29-.67l.1.05c.06-.87.3-1.74.46-2.59l.14-.19.22.14ZM173.52,36.53c.1.06.19-.02.28.02.17.07.45.41.61.5.07.04.45.14.55.18.08.03.12.1.2.11.16,0,.17-.12.03-.21.09-.09.16.1.24.14.04.02.23-.01.24.1s-.43,0-.5.07c-.2-.02-.41.03-.6-.02-.05-.01-.92-.54-.96-.58s-.11-.29-.1-.31Z"/><path class="cls-1" d="M114.87,9.72c.19.05.42.22.49.41.02.05.03.17.04.19.01.02.19.14.22.17s.11.15.14.16c.04.02.14-.05.18.05.04.1-.02.14-.02.18,0,.03.13.25.15.32.12.33.18.71.14,1.06h.53s.17.19.2.22c.12.12.41.37.56.42.07.02.31.05.34.07s.02.07.04.09c.02.02.13.04.18.06.1.05.32.3.33.41,0,.08-.15.46-.12.48.12.02.57-.25.59-.34,0-.02-.09-.25-.11-.31-.11-.4-.2-1.02.2-1.3.11-.08.16-.04.24.05.2.22.4.6.56.86.05.09.28.24.38.25.11.01.29-.02.39,0,.06.01.17.12.24.16.4.18.98.01,1.37-.16s1.04-.61,1.46-.58c.29.03.57.23.83.36.24-.2.7-.49.9-.08v.02c-.04.09-.11.19-.14.29-.14.38.25.87.02,1.33-.08.17-.45.51-.62.62-.13.09-.28.14-.39.24-.25.25-.56.79-.6,1.14-.04.27-.07.59.06.83.03.06.14.16.15.2.01.07-.05.19-.05.27,0,.17.14.45.19.61-.07.13-.14.67-.23.74-.03.02-.07.02-.1.04-.29.2-.51.48-.91.51-.16.01,0-.06.04-.09.11-.08.2-.17.31-.25.02-.02.04-.13,0-.11-.04.01-.19.18-.25.23-.16.13-.39.26-.6.24.12-.11.26-.22.37-.35s.07-.09.09-.23c0-.05.02-.16.03-.2.04-.09.21-.17.27-.27-.18.01-.27-.09-.39-.19-.21.2-.44.38-.72.47l.42-.63s-.02-.09-.03-.12c-.12-.19-.27-.14-.46-.18-.15-.04-.28-.12-.37-.24-.04-.05-.12-.21-.14-.23-.04-.03-.08,0-.11-.02-.03-.02-.08-.09-.14-.12-.18-.09-.21,0-.36.07-.04.02-.12.02-.15.05s-.06.15-.09.19c-.05.08-.15.11-.24.13-.15.03-.28-.03-.28.15,0,.17.06.35.12.5-.02.02-.12-.09-.13-.1-.19-.2-.3-.48-.25-.76.03-.21.48-.52.62-.72.04-.06.08-.18.13-.22.15-.11.45.05.68-.02.05-.02.18-.12.21-.16.03-.06.02-.28.04-.37.02-.14.09-.33.09-.46,0-.05-.03-.1-.03-.15,0-.04.03-.19.05-.23.03-.06.29-.18.37-.26.1-.09.1-.12.16-.22.05-.08.23-.09.31-.07s.19.12.23.19c.12.22-.07.43,0,.65.13-.11.29-.29.35-.45.05-.15.08-.45.07-.61,0-.06-.05-.31-.09-.35-.05-.05-.37-.2-.45-.21-.3-.07-.73.11-.98.28-.12.09-.17.21-.29.28-.31.19-.71.19-1.05.1-.06-.02-.23-.09-.27-.09-.04,0-.21.08-.28.1-.39.1-.83.15-1.23.09.05.26.19.48.41.63.3-.11,1.13-.3,1.18.19.09.9-1.33,1.91-2.08,2.14-.26.08-.87.19-1-.12-.02-.04-.01-.08-.03-.11-.02-.05-.04,0-.07-.01-.14-.01-.1.01-.22.06-.07.03-.2.05-.25.08-.03.02-.06.11-.15.09.42.53-.43.85-.84.93-.74.15-2,.11-2.58-.45-.49-.46-.08-.74.38-.92.15-.31.19-.65.07-.98-.26.35-.59.58-.98.75-.04.02-.18.05-.2.07-.01.01-.1.25-.1.29-.1.4-.12.62-.33,1-.05.1-.14.18-.17.29.01.04.29.13.35.18s.25.29.3.36c.07.09.38.56.38.64,0,.1-.11-.06-.16-.06,0,.03,0,.14.02.15,0,.01.1.02.14.05.05.03.14.17.14.23s-.07.16-.06.21c0,.02.12.19.15.22.03.04.1.09.11.12.03.11-.11.41-.02.46.02.01.05.01.07.03.34.24.32,1.16.06,1.46-.13.14-.36.18-.53.11-.2-.07-.31-.4-.3-.59,0-.09.06-.21.05-.29,0-.03-.11-.25-.13-.26-.07.02-.21.14-.27.13l-.98-.58c.08.55-.47.97-.82.39-.23-.39-.23-.92-.23-1.36-.04-.02-.07-.04-.11-.06-.36-.12-.52.07-.86.09-.27.01-.42-.15-.59-.33-.34-.37-.63-.79-.99-1.16-.03-.04-.09-.06-.12-.1-.04-.06-.03-.11-.07-.17v-.07s.03-.11.08-.16c.15-.14.59-.12.77-.05.03-.06.06-.12.1-.17.1-.14.11-.15.19-.3.06-.11.14-.19.24-.27,0-.03-.02-.03-.03-.04-.16-.16-.36-.27-.51-.45-.67-.76-.75-2.24-.52-3.19.18-.71.84-2.07,1.43-2.52.02-.01.02-.03.05-.03-.04.19-.09.37-.13.56-.14.65-.16,1.42-.13,2.09.05,1.01.44,1.95.99,2.78.03.05.14.24.19.25.04,0,.21-.07.25-.1.28-.19.22-.43.3-.69.06-.19.38-.23.49-.4.08-.36.12-.73.23-1.08.05-.15.11-.27.3-.26.14,0,.39.3.48.41.2.27.37.63.39.97.21,0,.4-.09.58-.2-.13-.13-.51-.22-.51-.44,0-.07.05-.41.08-.48.05-.11.19-.15.29-.22-.05,0-.21-.09-.19-.16,0-.01.18-.12.22-.15.16-.12.32-.32.41-.49.1-.19.12-.44.31-.56-.16-.19-.27-.42-.33-.66-.02-.08-.02-.18-.04-.25-.03-.08-.12-.11-.13-.22,0-.12.08-.15.1-.21,0-.02.06-.39.06-.41,0-.04-.08-.12-.1-.17-.13-.31,0-.69.33-.81.68-.24,1.14.74.47,1.1-.04.02-.12.03-.15.05-.02.02-.11.27-.11.3,0,.04.12.09.12.19,0,.1-.1.14-.12.19-.04.15.13.54.23.67.17-.17.3-.4.4-.62.03-.06.03-.13.08-.17.05-.01.12.12.13.16.03.07.05.16.05.24.2-.17.45-.28.72-.3-.03-.08-.02-.46.06-.49.04-.01.21.11.26.14.21.11.43.2.66.28-.01-.12,0-.26-.02-.37-.01-.09-.16-.56-.22-.6-.05-.03-.17.02-.22-.08-.03-.08.02-.13.02-.17,0-.02-.18-.15-.21-.15-.03,0-.16.09-.21.11-.66.24-1.11-.71-.55-1.08.09-.06.17-.08.28-.12h.19ZM107.42,16.4c-.06-.05-.15-.37-.17-.46-.38-1.44.07-2.89.94-4.05.11-.14.26-.26.31-.43-.14.11-.25.26-.36.4-.94,1.25-1.36,2.81-.91,4.35.31,1.07,1.24,1.37,1.98,2.03.26.23.49.52.72.79h.07c-.08-.15-.17-.3-.24-.47s-.16-.41-.2-.57c0-.02,0-.03.02-.02.06.02.18.2.24.24,0-.06-.08-.12-.12-.18-.16-.22-.34-.42-.52-.64-.01-.01-.1-.04-.09,0,.03.11.16.39.21.5.12.25.29.48.38.74-.03,0-.04-.02-.06-.03-.17-.14-.33-.34-.49-.49-.21-.2-.44-.4-.67-.57.02-.38-.05-.75-.06-1.13-.08-.04-.02-.05-.04-.11-.02-.08-.2-.34-.25-.44-.05-.09-.1-.18-.11-.28-.03,0-.02.04-.01.06.02.14.13.36.19.49.04.09.16.26.17.34.01.12-.06.39-.07.54,0,.11,0,.24.02.34h-.05s.02.03.02.03c-.04.03-.39-.25-.44-.31.02-.09.19-.01.12-.11.07.02.04-.04.07-.06.01-.01,0,.02.04-.03,0-.01.05-.06.05-.06.04-.07.1-.27.07-.35-.01-.04-.15-.29-.17-.3-.05-.04-.04.05-.06.08,0,0-.12.13-.13.13-.05.04-.17.08-.23.07-.02,0-.04-.03-.06-.03-.04,0-.1.01-.14-.03ZM108.55,15.41c.07-.04-.02-.18-.04-.25-.29-.97-.27-1.94-.15-2.93l.11-.57c-.07.14-.14.27-.2.41-.19.48-.31.99-.4,1.5-.02.14-.04.28-.04.41l.11-.54.03-.03c.02.08.04.34.09.38.01,0,.04,0,.06.02.09.09.11.47.14.61.07.33.16.66.29.97ZM110.51,17.82c-.1.03-.22.06-.3.15l.11.13c.06-.09.16-.16.18-.28ZM110.14,19.48s-.07-.32-.13-.31c-.04,0-.01.04,0,.06.04.08.05.15.08.22,0,.02.03.06.05.04Z"/><path class="cls-1" d="M136.92,15.02c.15-.18.4-.4.51-.59.06-.1.08-.23.13-.32.2-.34.4-.49.78-.6-.04.26.16.61.15.84,0,.05-.09.37-.11.41-.05.08-.14.09-.2.17,0,.03.07,0,.08.03,0,.04-.08.7-.1.76-.03.09-.09.15-.12.26-.06.2-.14,1.01-.08,1.19.03.09.11.15.15.22.08.18.2.53,0,.65l.1.08c.16-.22.43-.3.63-.48-.08-.12-.23-.22-.27-.36-.03-.11.02-.18.03-.28,0-.05-.04-.1-.03-.16,0-.04.21-.6.24-.64.05-.08.2-.15.21-.23.01-.08-.05-.14-.05-.2s.34-.67.41-.73.2-.1.21-.11c.01-.02-.16-.14-.03-.34.05-.08.31-.24.21-.07.14-.04.22.14.31.17.14.05.31-.13.42-.22-.06-.04-.11.05-.19.03-.07-.01-.14-.16-.26-.12.03-.14.11-.22.24-.28.27-.15.86-.32,1.18-.42.12-.04.25-.05.37-.08-.12.56-.65.88-.96,1.33-.18.27-.46.73-.47,1.05,0,.16.05.34.03.5-.02.18-.2.27-.21.45.52-.13,1.01-.37,1.55-.43.3-.04.63,0,.93,0,.18,0,.61.08.72.05.04,0,.09-.08.16-.1.52-.16,1.03-.35,1.57-.45,0,.08-.07.07-.12.08-.12.04-.25.07-.37.13-.05.02-.41.22-.42.24-.01.02.07.12.02.23-.04.07-.17.09-.2.13-.04.05-.02.13-.03.19-.01.04-.08.02-.07.05.05.1.36.31.45.42.13.14.38.58.46.65.05.04.5.15.68.27s.35.38.48.47c.07.05.19.05.3.12.23.14.28.32.41.51.07.1.18.11.22.26.07.26.06.62-.07.86.31-.07.49-.35.79-.5.41-.21,1.03-.35,1.49-.36,2.5-.05,1.32,2.38.58,3.61l.49,1.48.05.05c.21-.08.43-.13.65-.19.09-.02.19,0,.28-.04.13-.04.38-.29.54-.35s.26-.03.42.02c.18.06.8.3.95.39.05.03.1.05.11.11h0c.47.99.5,2.14.07,3.16-.55,1.28-1.27,2.81-1.87,3.17-.1.06-.51.24-.61.25-.14.01-.86-.32-1.03-.4-.24-.12-1.01-.57-1.12-.78-.12-.24-.02-.99.03-1.28.03-.17.16-.45.1-.6-.02-.05-.12-.1-.16-.17-.2-.3.02-.79.01-1.14l-.83-1.33c-.29.2-.67.5-1.04.52-.51.02-1.17-.38-1.58-.65.15.38.36.74.43,1.15.09.5-.04,1.04.06,1.53.06.27.22.17.43.21.08.01.16.06.24.07.12,0,.24-.03.35-.01.13.02.72.66.78.8.04.1,0,.18,0,.27.04.35.24.32.33.57.04.12.02.3.11.39.07.07.35.12.46.17.22.09.37.19.44.44.04.16,0,.36.02.46.02.09.47.45.57.52.22.16.62.34.81.51.26.23.18.48.28.79.1.29.26.56.32.86,0,.05-.05.09-.05.15,0,.8.51.87.53,1.66,0,.21-.38,1.25-.59,1.37-.22.13-1.15.07-1.46.14-.09-.02-.21-.29-.27-.35-.05-.05-.14-.06-.2-.13-.07-.08-.26-.64-.28-.75-.01-.1.11-.23.1-.3,0-.05-.12-.16-.15-.25-.05-.19-.04-.67.02-.86.04-.12.28-.37.28-.4.01-.09-.12-.27-.13-.35-.03-.19.07-.66-.02-.82-.03-.05-.14-.11-.19-.17-.22-.26-.4-.41-.61-.64-.1-.11-.17-.29-.29-.4-.19-.17-1.17-.74-1.41-.78-.29-.05-.37.09-.69-.1-.24-.15-.55-.48-.77-.61-.14-.08-.44-.08-.59-.13-.66-.21-.93-.94-1.09-1.54-.03-.12,0-.25-.05-.38,0-.02-.21-.23-.26-.32s-.21-.52-.26-.53c-.73.23-1.52.42-2.29.42-.13,0-.31-.02-.43-.05-.1-.02-.38-.16-.43-.16-.07,0-1.04.65-1.18.74-.05.03-.31.21-.31.23.13.63.29,2.28-.33,2.69-.23.15-1.61.68-1.88.71-.77.09-1.55-1.23-1.85-1.83-.22-.43-.34-.87-.51-1.32-.02-.02-.46.04-.48.05-.01.01-.02.1-.05.14-.14.21-.31.35-.44.53-.03.04-.13.18-.17.2-.23.13-.25-.04-.38.32-.19.54-.11,1.06-.26,1.63-.06.22-.25.59-.27.74s.04.32-.09.46c-.04.04-.1.04-.14.09-.18.27-.12.74-.09,1.02.02.21-.11.26-.2.4-.04.07-.05.16-.09.22-.04.06-.13.09-.14.15-.04.17.05.62.02.82,0,.04-.24.64-.27.71-.02.03-.19.33-.2.34-.15.14-.83.32-1.06.35-.23.03-.82-.39-1.04-.48-.11-.62.38-.84.28-1.47.36-.3.6-.74.81-1.16.45-.87.95-1.82,1.22-2.77.07-.25.34-1.31.34-1.49,0-.21-.05-.64-.12-.84-.09-.26-.13-.39-.11-.7.04-.89.62-.77,1.09-1.2.09-.08.15-.26.23-.31.1-.06.32,0,.35-.11.04-.16-.06-.6-.03-.86.02-.18.19-.54.19-.65,0-.11-.08-.16-.1-.25-.07-.27.08-.65.03-.84-.02-.07-.11-.12-.15-.19-.47-.81.09-1.36.59-1.95.04-.05.15-.12.17-.16.03-.07-.17-.43-.19-.59-.03-.41.15-1.22.36-1.58.13-.22.4-.46.54-.69,0-.09-.04-.04-.09-.05-.12-.01-.29-.04-.41-.03-.17,0-.36.09-.49.07-.09,0-.42-.13-.47-.2-.03-.06-1.16-.76-1.11-.85,0-.08,1.25-.35,1.27-.37,0,0,.2-.02.23-.02.05.01.09.14.31.11.06,0,.09-.06.15-.08.04-.01.11.02.12.02.05-.04-.03-.16.22-.15.34,0,.66.2.97.32.09.04.22.04.31.07.05.02.23.19.24.19.03,0,.1-.09.21-.09s.28.06.39.08c.03-.04-.16-.19-.18-.24-.09-.21-.13-.44-.19-.65-.05-.16-.21-.49-.2-.64,0-.1.16-.45.22-.55.07.08-.14.33-.09.37.07-.03.21.13.24.05.02-.06,0-.13.01-.19,0-.04.05-.08.05-.13,0-.08-.05-.35-.03-.37,0-.01.09-.02.13-.04.09-.06.17-.13.26-.19.05-.03.11,0,.13-.02.02-.02.15-.23.05-.24,0,.14-.14.21-.27.21-.03-.28.11-.54.13-.81.11-.11.12.23.13.24.02.02.08.02.09.03.03.03-.14.24.09.32.08-.23.33-.34.18-.6.19-.04.14.15.16.17,0,0,.1,0,.15,0,.05.02.2.15.23.11.11-.16-.39-.28-.39-.38.1-.26.27-.49.39-.74.07-.14.23-.61.32-.13.04.2.09.65.1.86,0,.13-.06.29-.02.43ZM139.67,14.77l-.03-.14c-.14.16.04.23.09.36-.1-.02-.27.04-.34.1-.02.02-.29.47-.31.51-.01.04-.04.05-.02.1.09,0,.21,0,.29.03.11.03.12.16.17.08.03-.05.25-.58.22-.6-.12.03-.26-.01-.34-.12.11.03.2.02.31.02.03,0,.07.04.08.04.02,0,.17-.18.17-.21,0-.08-.21-.3-.3-.17ZM138.09,14.98c-.12,0-.15.1-.24.15-.07.04-.27.1-.31.13-.02.01-.13.39-.12.4.43-.15.83-.07.67-.68ZM137.44,15.15c-.13.06-.25-.04-.39-.03-.16.01-.09.08-.13.18-.07.21-.03.12-.03.28,0,.07-.07.11-.01.2.07-.06.35-.05.33.06-.09.17-.38-.04-.47.03-.06.04-.1.45-.1.55.22-.05.41.03.63.05-.09-.48.07-.88.17-1.33ZM140.74,14.89c-.25.1-.74-.03-.81.29.08-.02.3-.11.37-.11.02,0,.03.06.05.07.17.03.37-.06.39-.25ZM135.49,15.69s-.28.23-.29.24c0,.02.02.11.01.18-.03.13-.1.24-.09.38.09-.02.4-.39.39-.16-.01.32-.52.35-.26.77.07-.04.22-.24.27-.26.04-.02.1.02.11.01.04-.06-.07-.16-.07-.2,0-.02.03-.05.03-.07-.03-.29-.06-.59-.1-.89ZM140.52,15.28c-.29.06-.54.13-.8.29-.09.21-.19.44-.14.67.05-.04.34-.13.35-.14.12-.14-.28.02-.29.06-.03-.19.07-.26.25-.31.08-.02.17,0,.24-.02.02,0,.01-.05.05-.07.02-.01.08,0,.11-.02.02-.02.2-.38.22-.45ZM137.84,15.92c-.09,0-.13.08-.2.12-.22.1-.34.02-.27.36.15-.08.36-.2.53-.16v-.15s-.08.04-.08.04l.02-.22ZM139.38,16.77c-.24-.08-.48-.28-.47-.54-.06.09-.29.64-.25.68.23-.11.28.08.4.22l.06-.19.14.17.12-.34ZM140.27,16.6s.07-.24.06-.25c-.06.05-.15.04-.22.07-.07.04-.72.54-.74.58-.03.06-.02.14-.04.2-.03.07-.13.14-.14.23.11-.03.6-.31.66-.27.02.01,0,.07.03.06.07-.03.22-.5.29-.59.03-.04.08-.02.1-.04ZM137.82,16.91c-.15,0-.51.09-.38.29,0,0,.06-.03.07-.03.07.04-.03.24.12.3.09-.11.2-.14.34-.1-.1-.14-.15-.29-.15-.46ZM142.86,16.56c-.32-.08-.54.04-.84.16l-.3.18c.08.28.24.13.26.15.01,0,0,.12.07.14s.24-.11.33-.1c.01-.02-.17-.42-.06-.43.1,0,.25.31.23.34-.01.02-.09-.01-.06.05.21.05.12-.03.18-.07.04-.04.13-.02.14-.03.04-.04-.06-.22-.06-.26,0-.04.11-.05.1-.1ZM138.78,17.04s-.11-.03-.13.01c-.1.24.44.66.46.85.01.11-.2.45-.18.56,0,.03.06,0,.08.03.03.07-.14.06-.04.17.29-.08.14-.56.48-.48-.05-.11.18-.27.12-.34-.01-.01-.29.17-.3.18-.09.1-.12.34-.27.41-.04-.19.19-.36.17-.55-.01-.09-.13-.18-.1-.3-.01-.01-.09.06-.1.05-.07-.05.08-.1.09-.14.05-.23-.24-.26-.3-.35-.03-.04.01-.11.01-.11ZM133.71,18s-.02-.13-.02-.14c-.05-.07-.61-.21-.67-.19-.09.02-.02.15-.02.2-.02.25.01.42.12.66l-.25.06c-.04-.26-.03-.51,0-.77-.14.02-.25.14-.39.11.11.14.12.37.16.55.01.06.03.1-.05.1s-.29-.05-.25-.14h.11c.03-.11-.1-.03-.12-.07-.04-.12.07-.52-.02-.56-.17-.08-.2.1-.19.23l.14-.05c-.02.12.03.32.02.42,0,.07-.18.22.02.24.1,0,.21-.11.24.03-.01.08-.39.16-.41.27.1-.02.17.07.25.08.35.05.68-.28,1-.37.04.03-.2.3-.27.28.03.06.22.06.28.05.19-.02.32-.19.51-.23l-.17-.05c-.15-.18-.1-.41-.07-.64,0-.06.06-.06.06-.07ZM141.45,17.09c-.07-.05-.55.42-.7.32.05.09.05.47-.09.45-.04,0-.09-.14-.12-.13-.02,0-.23.24-.17.31.14-.12.21.1.27.08.04-.01.44-.33.47-.37.14-.18-.06-.16-.06-.2-.01-.07.05-.23.13-.17.05.04,0,.34.34.11-.06-.15-.21-.23-.07-.39ZM142.83,17.44c.04-.06-.21-.28-.27-.3-.06-.01-.53.13-.54.15,0,0,.03.17.04.18.02.03.14.07.19.13.04.04.13.2.16.2,0,0,.11-.04.08-.1s-.14-.07-.12-.15c.14.04.19-.02.28-.05.07-.02.11.09.07-.13l.11.06ZM134.34,18.11c-.07-.03-.15-.03-.21-.07.01.12-.03.25-.02.37,0,.14.08.27.14.38,0,.01.06,0,.06.03.05.13-.15.12-.24.2-.03.03-.08.11-.12.17-.01.02-.11.04,0,.06.02,0,.31-.05.33-.06.07-.03.19-.22.29-.26.09-.04.16.03.21-.05-.18-.11-.33.11-.49.17-.01-.12.13-.18.2-.25h-.11c-.05-.1.05-.12.05-.14,0-.03-.06-.18-.05-.2.19.02.03-.15.16-.25-.13.03-.17-.08-.2-.1ZM138.04,17.73s-.12.13-.21.02c-.06.29.1.52.14.79.31-.09,0-.43.02-.57,0-.04.08,0,.1-.03.05-.06,0-.18-.05-.2ZM141.88,17.38c-.13.05-.97.59-.96.65,0,.01.13.11.09.19-.1.03-.2-.15-.28-.05-.02.03-.05.09-.04.13.01.04.31.38.35.47.25-.08-.11-.41-.06-.47.12,0,.19.13.3.15.04,0,.32-.04.33-.06.08-.15-.24-.41-.19-.49.17-.04.17.04.23.08,0,0,.06-.02.1-.02.15.02.29.05.44.05-.04-.07-.16-.03-.21-.13-.04-.07.02-.17,0-.18,0,0-.08.03-.11-.01-.08-.09-.05-.22.01-.31ZM143.79,17.21s-.18.09-.25.02l.05.14h-.34s-.47.36-.47.36c.08,0,.12-.08.2-.09.09-.01.15.06.22.05.06,0,.35-.12.41-.16.03-.02.02-.09.05-.1.05,0,.15.05.2.07.03,0,.08-.03.1-.02.03.01.06.13.13.13-.01-.07-.27-.39-.3-.41ZM135.15,18.5c-.1.05-.16-.08-.21-.08-.21-.02-.13.48.14.46.01-.02-.03-.29.07-.26.07.02.05.25.09.31.01.02.08.02.11.05.18.17.16.11.36.21.1.05.12.15.23.13.18-.3-.26-.16-.36-.33-.02-.04,0-.1,0-.15-.03-.09-.17-.17-.17-.3-.13,0-.24-.15-.33-.11l.08.08ZM140.23,18.91c.34-.01.8.23.49-.29-.03-.05-.06-.11-.11-.15l-.38.43ZM133.51,19.26s-.05-.08-.08-.05c-.26.24-.27.58-.39.89.11-.1.42,0,.47-.06.09-.08-.12-.67.3-.27-.06-.25-.16-.16-.3-.18-.08-.01-.25-.07-.19-.18.02-.05.18-.15.19-.16ZM142.01,19.63c-.03-.16.13-.29.14-.4,0-.09-.01-.24-.13-.21-.07.02-.48.2-.52.24-.03.04.03.2-.07.24-.06.02-.28-.07-.37-.05-.02,0-.22.1-.24.12-.08.07-.04.22-.11.31s-.22.1-.23.26c.12.07.85-.19.97-.3.04-.04-.03-.34.11-.42.12-.06.03.3.05.32.14-.08.3-.16.26-.35.04-.01.09,0,.11.05.02.06-.06.19.02.19ZM135.7,20.59s-.27-.47-.2-.61l-.13-.23c-.06.25.02.45.08.68.02.1-.02.18.08.29.02.01.16-.12.16-.13ZM143.31,19.15s-.27.06-.28.12c0,.05.19.29.14.4.08,0,.14-.11.15-.11.03-.02.1.05.13-.04-.06-.05-.11-.35-.14-.37ZM142.05,20.18s-.08-.01-.12-.08c-.06-.09-.08-.28-.1-.38-.09.11-.33.15-.34.27.19-.04,0,.06,0,.11,0,.07.01.15.08.2l.02-.15c.12.06.17.25.31.23.07-.01.2-.11.14-.19ZM141.29,20.21v-.14c-.08.08-.46.13-.47.15-.01.01.04.3.03.36.02.02.38-.09.39-.11,0-.01-.1-.21-.06-.29l.11.03ZM143.37,20.67c.07-.17-.52-.28-.63-.23.01.07.13.04.15.12,0,.02-.07.31-.1.31-.08-.04-.2-.03-.27-.06-.05-.02-.11-.15-.17-.15-.03.22.15.22.28.33.1.08.17.21.34.23.11-.05.06-.16.08-.23.02-.05.07-.06.08-.08.02-.05,0-.11.03-.16.07-.09.07.04.08.05.09.05.06-.06.07-.08.02-.03.06-.04.06-.04ZM148.25,21.26c-.08-.07-.84.16-.7.32,0,0,.16.09.17.09.06,0,.27-.21.32-.23.06-.02.14,0,.19-.04.04-.03.04-.12.02-.13ZM149.16,24.24l-.31.41.7.49s.17-.06.17-.09c0-.06-.47-.72-.56-.81ZM149.24,25.48c-.05-.07-.61-.33-.71-.44-.05,0-.37.34-.33.42l.64,1s.13-.33.16-.4c.06-.12.31-.47.23-.58ZM138.98,27.71l-1.16.61v.19c.37-.26.86-.45,1.16-.8ZM143.56,29.16s-.07,0-.07.02c.02.41.6.98,1.03.95.02-.14-.14-.2-.19-.28-.03-.06-.02-.13-.07-.19-.15-.22-.44-.25-.6-.36-.07-.05-.1-.13-.1-.14Z"/><path class="cls-1" d="M89.97,37.64v-.62c-.29.03-.3.39-.29.62-.39.1-.58-.29-.65-.61-.19-.92-.22-2.48,0-3.39.02-.09.15-.24.15-.26,0-.02-.22-.2-.24-.33-.03-.2.08-.36-.02-.63-.14-.4-.19-.54-.15-1.01s.33-.6.27-1.02c-.08-.57-.45-1.13-.52-1.69-.1-.85-.03-1.66.09-2.5.08-.55.11-.76.13-1.33,0-.08.06-.16.06-.25,0-.22-.48-.54-.61-.78l-.25-.59c.05.16-.07.16-.09.22-.09.22-.14.47-.25.69-.38.74-1.23,1.7-1.33,2.53-.02.17.05.31.04.45-.02.2-.18.2-.05.5.06.14.34.59.33.73,0,.05-.07.11-.07.17-.01.15.02.3-.01.44-.01.05-.3.73-.33.76-.16.17-.65.02-.86.04l-.79-.52c-.29-.36.07-.49.07-.68,0-.21-.21-.42-.17-.78.04-.35.31-.46.42-.69.13-.26.19-.88.32-1.04.12-.14.23-.2.34-.4.21-.42.45-1.25.52-1.7.04-.26-.07-.52-.03-.81.11-.79.68-2.01,1.2-2.62.24-.28.27-.2.35-.64.17-.99.3-2,.46-3,.02-.13.16-.28.16-.37,0-.07-.12-.17-.14-.27-.03-.1,0-.2-.04-.29-.03-.07-.15-.11-.18-.24-.03-.13-.03-.92,0-1.04.04-.13.54-.47.69-.58.7-.54,1.35-1.04,1.98-1.67.23-.23.42-.55.67-.76-.14-.41-.2-.84-.3-1.26-.03-.12-.1-.21-.13-.32-.21-.77-.15-2.2.04-2.98.02-.08.21-.63.23-.65,0,0,.09-.02.08.02-.05.14-.17.32-.2.46-.02.12.09.16-.05.19.69.5.43-.24.37-.66,0-.06-.07-.1-.06-.15.02-.16.29-.37.39-.49-.47.13-.07-.53.04-.59.26-.16.71.03.83.32.09.22-.09.19-.13.24-.07.12.07.12.12.18s.19.3.21.31c.01,0,.1-.06.12-.04-.01.39.24.76.32,1.14.13.62.24,2.26.11,2.85-.02.09-.14.35-.14.38,0,.11.29.49.39.56.67.44.88.26,1.6.21.39-.03.68.05,1.05.12l-.04.12c.2-.04.42.06.2.23-.24.18-.72-.02-.66.47.16-.12.35-.08.53-.08,0,.12.03.26-.04.35-.09.12-.44.16-.45.19-.03.04.05.37.1.37,0,0,.1-.04.1-.04.02-.02-.06-.14-.04-.16.02-.03.53-.26.62-.29-.09-.18.02-.96.19-1.03.09-.01.07.02.04.08-.13.35-.2.79-.02,1.12.21.37.79.65.9.05,0-.03.01-.15-.04-.08-.02.36-.29.29-.53.16-.31-.17-.41-.48-.37-.82.02-.16.12-.56.32-.48l-.08-.08.29.06c-.15.13-.25.1-.28.33-.05.39.13.93.57.55l-.08.27c.27,0,.18-.22.16-.41,0-.04-.03-.16.04-.14.02.29.1.67-.02.95-.05.12-.2.14-.25.25-.06.13-.1.49-.16.67-.03.09-.13.23-.14.3s.2.66.23.86c.05.38.16,1,.12,1.35-.03.31-.19.7-.23,1-.06.43.43,1.29.48,1.8.03.34-.08.43-.12.7-.1.8-.08,1.64-.41,2.39s-.69,1.34-.79,2.25c-.03.32.05.72,0,1.03-.01.09-.11.22-.11.25,0,.05.44.3.52.37.73.6.68.94,1.12,1.64.27.43.61.51.61,1.12,0,.5-.12.94-.3,1.39-.15.38-.54.47-.64.88-.12.96-.16,1.94-.3,2.9-.16,1.08-.43,2.15-.57,3.23-.09.1-.13-.28-.12-.3,0-.03.07-.03.09-.08.09-.23-.03-.37-.1-.57-.07.01-.07.08-.09.14-.04.16-.05.66-.13.76-.19.25-.16-.31-.17-.41-.29.24-.55-.12-.47.45h-.12c0-.71.14-1.59,0-2.28-.07-.35-.34-.62-.43-.93-.2-.67.17-2.22.36-2.93.06-.2.24-.53.27-.76,0-.07-.16-.38-.16-.61,0-.26.29-.99.27-1.09-.08-.41-.63-.25-.9-.29-.39-.06-.53-.42-.77-.59s-.71-.35-.99-.53c-.69-.44-1.15-.87-1.44-1.64-.04-.1-.17-.63-.19-.65-.02-.02-.22-.04-.28-.05-.04.04.12.98.12,1.13,0,.1-.05.19-.04.28.07,1.08.25,2-.1,3.06-.09.27-.38.48-.39.76,0,.1.03.52.05.61.03.15.25.31.27.51.03.37-.12.76-.15,1.1-.06.59.21,1.05.32,1.61.16.86.22,1.75.09,2.61-.03.22-.09.49-.18.68h-1.17ZM92.11,5.45s0,.15.06.16c.17.04.08-.16-.05-.24-.33-.21-.61-.08-.71.28.27.02.42-.11.47.21.03-.09.22-.07.23-.08.02-.02-.16-.49,0-.33ZM92.18,6.07s-.31-.14-.32-.13c.2.38-.06.8.1,1.15.1-.18,0-.46.27-.33-.05-.13-.01-.64-.05-.69ZM92.81,7.59c.1-.04.13-.11.12-.22,0-.06-.11-.39-.14-.48-.03-.08-.08-.24-.14-.29-.16.39.03.64.16.99ZM92.03,7.65c.02.19-.02.41,0,.6.07.02.35-.1.37-.08.09.08-.11.07-.08.12.05-.03.18.1.16-.02,0-.1-.08-.59-.1-.64-.06-.1-.29-.09-.39-.08-.02.05.04.08.04.1ZM91.64,8.89c.04-.1.08-.65.03-.73-.02-.04-.29-.29-.35-.31-.18-.08-.39-.06-.57-.06v.16s.43-.13.49.03c.16.46-.49-.02-.53.02-.09.11.08.18.12.22.09.09.18.21.35.21.08,0,.19-.12.32-.1.45.07-.25.82-.22.86.07,0,.18-.08.23-.12,0,0,.13-.17.13-.18ZM92.48,8.41c-.05-.07-.36-.03-.45,0,.02.24.05.46,0,.7.02.03.29-.14.25.04-.26-.04-.53.29-.57.52,0,.06.03.13.02.18-.04.28-.21,1.02-.6.82-.03.03.16.34.23.37-.07-.19.25-.53.41-.54.02,0,.29.3.23.41.14-.12.21.14.25.16.03.01.44-.06.44-.14-.14-.06-.3-.22-.41-.29-.03-.02-.22,0-.24-.08-.03-.09.04-.05.09-.04.08.01.2.02.26.04.15.04.21.16.44.07.04-.05-.1-.49-.14-.49-.11.1-.2.2-.27.02l-.16-.11c.06.14-.27.27-.34.21-.03-.02-.02-.07-.04-.11-.01-.02-.07-.02-.07-.04,0-.11.21-.25.29-.33-.27-.03-.03-.2.12-.21.14,0,.19.24.22.26.04.02.11,0,.15.01.02.01.05.25.13.16.04-.05-.07-.32-.04-.41l-.06.08c-.41-.24-.19-.27-.13-.61,0-.04.04-.63.02-.66ZM93.71,13.01s.06-.09-.02-.12c-.04.04-.15.05-.14.14,0,.03.28.4.33.46.17.21.64.75.84.89.03.02.04.06.1.04-.09-.15.09-.11.06-.29-.17-.48-.57-.82-.93-1.16-.12-.11-.11.12-.24.05ZM94.02,13.86c-.19-.29-.44-.55-.61-.85-.1.09-.25.15-.39.16-.03.03.09.26.13.3.07.08.15.08.19.12.02.02.27.35.3.39.22.31.32.76.72.91.34-.28.22-.6-.12-.81-.09-.05-.14.05-.06-.14h-.12c.07-.1,0-.07-.02-.1ZM94.7,13.22l.04-.16c-.14.12-.29.04-.45.06.28.23.46.54.7.8.07-.26-.09-.48-.08-.74l-.2.04ZM97.16,13.34c-.08-.02-.17.04-.25.02s-.14-.15-.22-.14c-.06,0-.56.31-.56.34.14.16.36-.1.52-.13.08-.02.17,0,.26,0l-.2.27c.21.05.39-.16.45-.35ZM90.1,13.67c-.28.06-.4-.02-.6.2-.11.12-.66.88-.7.99-.03.1-.03.19-.02.29.31.03.29-.31.43-.42.06-.05.16.09.06-.12.16.04.1-.07.14-.11.24-.26.51-.52.68-.84ZM94.41,14.99c.5.42.86.28.51-.37-.1.23-.22.45-.51.37ZM92.5,18.46c-.34-.29-.74-.51-1.2-.55-.43-.04-.68.28-.84.63-.22.46-.22.52.23.77.12-.1.05-.28.08-.41.19-.77,1.44-.31,1.48.1,0,.08-.08.45-.06.47.16-.07.65-.06.72-.17.19-.28-.21-.67-.41-.84ZM90.5,20.32s.18-.74.15-.81c-.11-.34-.83-.19-1.06-.63-.07-.13-.1-.62-.3-.56l-.76,3.08.3-.3c.14-.13.36-.02.45-.04.07-.02.16-.17.24-.22.2-.14.46-.11.65.02.02-.02.05-.38.1-.45.05-.08.17-.06.22-.09ZM95.11,21.65c.09-.4,0-.81.05-1.21.05-.43.3-.83.36-1.24.03-.25-.06-.47-.04-.72l-.22.45c-.66.87-1.57.33-2.49.59-.09.02-.65.25-.68.29-.03.04-.08.47-.13.57.31-.13.4.1.29.37.17,0,.34,0,.51.05.1.02.54.24.57.24.06,0,.16-.11.23-.14.27-.1.47-.14.75-.05.21.07.6.38.71.57.05.08.03.21.11.24ZM97.41,19.3c-.02-.09-.21-.7-.24-.72-.11-.08-.51.04-.39.15.12.1.25.17.34.31.11.18.02.31.29.26ZM91.25,19.47s.1-.01.12-.06l-.18-.23c-.09-.04-.25.7-.23.79,0,.04.09.05.13.09.04.05.02.16.12.15l-.08.04.08.12c-.12,0-.22.09-.33.04-.03.07.07.1.07.14,0,.04-.06.09-.06.16,0,.08.06.18.04.27.11.05.21-.16.23-.17.1,0,.41.19.51.25-.04-.3-.23-.29-.19-.62.04-.3.2-.35.39-.12l.08-.41-.06.08-.02-.12-.1.12-.06-.08-.04.12c.05-.16-.1-.2-.14-.29-.02-.03-.01-.2-.07-.24-.01,0-.32.1-.2-.04ZM96.96,19.55c-.42.12-.62.53-1.01.7-.03-.14.15-.22.18-.34.01-.06-.08-.3-.15-.23-.06.15-.32.68-.23.82.15.23.06-.09.06-.1,0-.07.15-.03.16-.02,0,.01-.04.18-.03.23,0,.02.06.02.06.03.01.04-.02.08,0,.11.03.06.19.3.23.32.05.03.18-.05.29-.03.04,0,.26.16.27.18.13.33-.55,1.96-.44,2.08.09.02.11-.06.15-.12.1-.14.39-.65.43-.8.02-.07.07-.41.07-.45-.02-.09-.21-.15-.2-.27.04-.04.2.13.22.17.06.1.03.2.1.24,0-.18.1-.61.08-.76-.02-.13-.09-.35-.1-.53,0-.03.03-.1.03-.1-.02-.01-.12.09-.19-.06-.01-.02.03-.13-.04-.15-.15-.04-.56.19-.59.17-.07-.06.05-.09.08-.1.11-.06.44-.13.45-.14,0,0,.01-.09-.02-.08-.16.13-.19-.3-.33-.08-.03,0-.03-.04-.02-.06.03-.14.41-.45.49-.6ZM95.27,20.41c.23.02.48-.25.44-.47,0-.03-.16-.19-.18-.19-.12-.03-.26.55-.27.66ZM95.6,20.41s-.31.08-.32.15l-.05,1.58c.1.1.53-.46.57-.56-.03-.07-.12-.02-.12-.02-.01-.03,0-.11-.02-.16-.08-.17-.18-.23-.14-.46,0-.05.07-.13.07-.13,0-.04-.12-.05-.12-.09,0-.07.14-.29.13-.3ZM87.51,20.46c-.12-.07-.68.5-.31.66.1.04.08-.19.11-.23.02-.04.12-.05.16-.15s0-.18.03-.28ZM92.68,21.15l.16-.21c-.42.06-.69.53-.84.91-.19.47-.23.94-.19,1.44.05-.05.22-.13.24-.19.04-.11.02-.57.05-.77.07-.45.27-.9.55-1.26l.02.08ZM92.77,21.65s.02-.11.06-.16c.07-.09.34-.31.37-.37.04-.09-.25-.16-.3-.12-.01.01,0,.1-.04.14-.15.19-.29.19-.17.45.01.03,0,.14.08.06ZM91.66,21.24c.02-.09-.04-.1-.1-.13-.25-.13-.42.03-.68.06-.21.47.37.34.66.35.07-.22-.3-.17-.33-.21-.13-.15.35-.22.45-.08ZM87.82,21.39c.13-.18-.04-.45-.16-.18-.1.24.21.33.33.45.07.07.23.31.1.38l-.35-.47c-.11-.06-.42-.42-.55-.33-.02.01-.18.36-.15.41.12.17.41-.14.56-.12-.28.28-.37.32.12.35-.27.24-.51-.13-.78-.14l-.12.48.12.02c.03.07-.12.2-.08.25.07.08.09-.08.1-.08.05,0,.15.06.22.07.06,0,.13-.02.18-.01.21.04.4.16.61.2-.06-.24.58-1.18.49-1.27-.16.07-.32.02-.47.04-.09.01-.16.16-.23,0,.02,0,.06,0,.07-.01ZM89.23,24.03s-.21-.62-.23-.73c-.12-.47-.2-.99-.18-1.47.01-.22.09-.45.06-.68-.12.1-.18.21-.22.35-.17.63.07,1.89.45,2.42.02.03.07.17.12.1ZM95.39,23.62c.25-.03.33.09.43-.21.1-.28.2-1.02.23-1.34.02-.19-.01-.4,0-.6-.07.02-.07.12-.12.19-.07.08-.45.48-.51.52-.08.04-.18.03-.19.04-.04.04.08.32.08.39,0,.15-.13.36-.12.51.15-.12.14-.42.41-.33-.08.28-.07.56-.21.82ZM89.4,21.75c-.04.28.03.64,0,.93l.21-.27c0-.09.2-.43.2-.46,0-.06-.16-.07-.2-.13-.04-.06-.07-.22-.08-.3-.06.02-.12.18-.12.23ZM86.85,21.69s-.23-.1-.24-.09c-.12.18-.03.29-.04.43,0,.13-.05.22-.04.36.03.26.24.59.49.68l-.04-.29-.08.04c-.05-.05-.13-.58-.13-.68s.11-.44.08-.47ZM91.82,21.69c-.06.07-.23-.01-.25,0-.05.03-.19.74-.2.85,0,.1,0,.77.04.79.01.01.15-.01.18.04-.08-.6.02-1.13.22-1.69ZM90.55,21.81c-.11.02-.46-.04-.53,0-.02.02-.24.44-.26.5-.16.44-.16,1.09-.04,1.54.03.1.21.58.26.65.04.06.28.3.34.35.26.21.72.31,1.05.37.05-.05-.25-.27-.29-.32-.27-.38,0-.7.21-1.04-.12,0-.3-.11-.35-.23-.1-.49-.12-1,.02-1.48-.09-.04-.1-.23-.17-.35l-.15.44c-.13.73-.02,1.48.23,2.17h-.12s.2.51.2.51c-.19-.08-.32-.85-.37-.9-.1-.1-.05.17-.09.2,0,0-.2,0-.24-.02-.23-.06-.48-.43-.54-.64.04.05.15.05.16.05.08.06-.01.16.19.03.08.21.25-.12.27-.27.04-.42,0-.88.1-1.29.02-.1.07-.19.1-.29ZM89.28,21.89c-.19,0-.13.49-.12.64,0,.11.17.89.21.92s.14,0,.2,0c-.22-.49-.32-1.02-.29-1.56ZM86.48,22.02c-.14-.02-.11.25-.13.34-.05.18-.39,1.02-.27,1.14.02.02.11,0,.12,0,.03.03-.06.26-.04.33.12.02.07-.04.09-.09.12-.25.21-.87.23-1.16,0-.16-.08-.37,0-.55ZM94.53,22.14c-.09.06-.21.21-.25.31-.05.15-.17.81.1.51.18-.19.14-.58.14-.82ZM94.82,24.57s.14-.28.15-.32c.05-.14.05-.3.09-.45l.05-1.45-.24.81c-.19.29-.27.64-.5.9-.01.08.22.19.28.28.04.05.09.29.16.23ZM95.68,25.59l.7-3c-.1.04-.14.12-.18.21-.17.44-.21,1.02-.33,1.48-.05.2-.42,1.15-.35,1.26,0,.01.14.06.16.05ZM87.31,23.49s0-.2-.09-.2c.02.13-.06.57.07.61.27.09.54-.37.51-.61-.07-.01-.03.07-.09.1-.07.03-.16.03-.24.03l.04.12s-.19-.04-.2-.05ZM95.43,23.71c-.17-.1-.24.38-.29.5-.06.13-.21.29-.25.4-.06.15-.06.35-.14.52-.04.1-.2.26-.21.29-.03.14.23.56.34.67.06-.09-.06-.16-.06-.26,0-.15.15-.33.15-.42,0-.08-.09-.13-.07-.22.13-.02.09.13.18.21.05.04.13.05.19.08.14-.36.18-.61-.04-.95l.29.29c.02-.14.25-.83.21-.9,0,0-.08.04-.2-.06-.06-.05-.08-.13-.09-.14ZM87.42,24.23c.16-.18-.15-.22-.22-.32-.04,0-.38.68-.39.78.09-.02.34-.3.38-.32.02,0,.07.03.07.03,0-.01-.01-.08,0-.11.03-.04.11-.02.15-.06ZM94.78,26.13v.84c0,.06.13.53.25.43-.09-.28,0-.65.08-.93.05-.06.07.07.07.09,0,.19-.23.57.18.45.18-.05.41-.4.41-.58,0-.17-.16-.32-.21-.47l.35.29c.42-.52.08-1.13.29-1.71l-.07-.51c-.1.33-.11.69-.18,1.03-.04.19-.16.43-.19.59s.25-.11.33.04c-.2.26-.55.05-.76.06,0,0-.1.1-.11.11-.04.14.13.1.15.2.01.06-.04.24-.07.31.05.04.36-.07.41.08-.09,0-.17,0-.26,0-.13-.01-.36-.13-.37,0-.15-.07-.18-.23-.31-.33ZM86.8,24.89s-.03-.11-.07-.12l-.41.95c.22.11.52-.66.49-.7l-.08.04c-.05-.17.06-.15.07-.17ZM85.91,26.05c0-.14,0-.28.01-.42.03-.23.29-.49-.05-.57,0,.17-.21.45-.21.59,0,.02.06.02.08.06.05.1.07.27.17.34ZM85.95,26.87c.01-.17.08-.31,0-.48l-.25-.47c.02.18-.13.62-.08.75.01.03.31.21.32.19ZM96.66,29.6c-.19-.16-.46.07-.42.28.09.48.8.03.42-.28ZM97.24,31.1c-.12-.04-.21.12-.22.12-.03,0-.07-.05-.1-.04-.02.01.02.46.06.53.05.09.18.14.22.02.01-.04.09-.37.09-.41,0-.08-.04-.15-.04-.22ZM89.65,31.52s0-.12,0-.17c.02-.07.15-.12-.05-.18s-.61.32-.53.56l.29-.1-.21.02c.03-.15.47-.1.49-.12ZM89.89,33.53s-.17-.44-.19-.53c-.08-.3-.11-.64-.09-.95-.11.11-.37.09-.5.04-.05-.02,0-.1-.07-.08-.01.17-.02.38,0,.55.01.09.09.21.08.29,0,.03-.09,0-.08.08.03.23.41.39.37.69l.49-.08s-.04.21-.06.24c0,.02-.08.02-.1.08-.07.18-.12.38-.19.54,0,.01-.06.01-.07.04-.02.1.04.16.04.2v.6c.08-.02.1-.12.15-.17.07-.05.31-.14.34-.19.08-.13.04-.57.12-.72.03-.06.5-.14.29-.3-.08-.06-.32-.07-.41-.23,0,.1.08.11.08.22,0,.18-.06.58-.08.78,0,.06-.03.13-.08.06.05-.31,0-.62,0-.93,0-.07.05-.17.04-.2,0-.04-.08-.02-.08-.02ZM89.97,35.09c-.23,0-.39.06-.41.31-.03.35.09.78.05,1.15l.36.32v-1.77Z"/><path class="cls-1" d="M71.14,13.92c.1.15.04.24.07.38.03.16.18.33.19.51,0,.03-.02.09-.01.1,0,.02.05.02.06.03.02.01.02.04.03.05,0,0,.03-.03.05-.04.02,0,.12-.03.13-.04,0,0,0-.03,0-.04,0-.01.03-.02.04-.03.03-.04.04-.12.07-.17.02-.03.08-.05.12-.08.02-.02.06-.07.08-.09-.04-.03,0-.06-.01-.08,0-.02-.06-.05-.05-.08,0,0,.02-.02.02-.04,0-.02,0-.05,0-.08,0-.02.08-.14.09-.14.02-.01.11,0,.13.02.05.02.13.13.12.18l-.07.16c.03.07-.04.1-.06.13-.01.02,0,.05-.02.08-.05.12-.08.18-.18.26-.02.01-.09.05-.1.05,0,0,.04.08-.04.13-.05.03-.1,0-.12.02-.02,0-.04.06-.06.08-.06.06-.12.12-.2.15.02.01.04-.01.06,0,.05.01.13.11.15.15.02.04.03.13.05.15.02.02.05,0,.08.02.03.02.03.09.04.1.02.02.05-.01.07.06.02.06.01.11-.02.16,0,.01-.06.08-.07.09-.02.02-.1.06-.1.06.01.03.06,0,.08,0,.02.02.08.23.1.27-.04.07,0,.11.03.17,0,.02,0,.05,0,.06,0,0,.03,0,.04.02,0,0,0,.03,0,.03,0,0,.05,0,.07.02,0,0,.06.06.06.07,0,.03-.01.03-.01.04,0,.02.03.06.02.12,0,0-.07.08-.08.08-.05.01-.05-.01-.05-.02-.05-.03-.03.05-.03.08,0,.04-.08.14-.12.16-.05.04-.22.07-.29.06-.02,0-.06,0-.06-.03,0,0,.05-.07.06-.07.03-.02.08-.02.11-.05.03-.02.04-.07.07-.09-.13,0-.25.09-.38.11v.04c-.06,0-.13.07-.2.09-.14.05-.32.05-.47.07-.02,0-.04.02-.06.02-.04,0-.21,0-.24,0-.02,0-.07-.12-.09-.15-.03-.07-.12-.25-.14-.31-.02-.08.05-.13.09-.19.04-.04.26-.26.26-.28,0-.02,0-.04,0-.07.01-.09.1-.23.15-.32,0,0,.02,0,.03-.02.02-.05,0-.17.03-.26.02-.05.01-.05.05-.04.03,0,0-.06-.02-.06-.02,0-.14.07-.18.08-.15.03-.09-.06-.14-.09-.01,0-.04,0-.05-.01-.09-.04,0-.1-.02-.14-.03,0-.04-.05-.06-.05-.02,0-.06.01-.09,0,0,0-.06-.04-.06-.05-.01-.02,0-.15,0-.19,0-.05-.03-.1-.03-.14,0-.02.01-.05.01-.05-.01-.01-.04.02-.05-.05-.02-.21.12-.49.26-.65.17-.19.44-.23.63-.39.07-.06.09-.17.19-.02Z"/><path class="cls-1" d="M68.35,8.07c.19.21.41.38.6.57.13.14.19.27.17.47.05-.03.18-.15.19-.03,0,.01-.02.14-.02.16-.01.06-.1.11,0,.07.01.02.07.04.08.05.01.01,0,.03.02.04.03.02.09.02.12.03,0,0,.06.07.06.08,0,.02.01.04,0,.07,0,0,.03-.02.05-.01.03.01.05.1.04.13,0,0-.02,0-.02.02-.05.13-.07.11-.14.19-.05.07-.04.1-.06.17-.01.05-.08.08-.06.13.07-.02.15-.05.22-.07.07-.02.14-.02.2-.03.06,0,.07-.08.15,0,.02.02.06.11.06.13,0,0-.04.07-.05.08-.01,0-.04,0-.04,0s0,.06,0,.08c0,.05-.03.05-.05.07-.09.15-.18.29-.28.43-.03.05-.04.14-.12.12v.04c.07-.07.1.02.14.05.05.03.14.04.19.03.03,0,.12-.06.12-.01,0,.02-.05.11-.06.13-.06.08-.29.1-.38.06-.02,0-.06-.05-.07-.05-.01,0-.01.03-.03.04-.04,0-.16-.07-.17-.11-.01-.07.04-.11.04-.15,0-.01-.04-.06-.02-.09-.03.02-.06.03-.09.03-.05,0-.09-.01-.13,0-.02,0-.03.02-.05.02-.05,0-.26-.02-.3-.05-.01,0,0-.03-.01-.02l-.04.04s.07.06.08.07c0,.02,0,.04.02.07.04.09-.14.18-.21.15-.02,0-.02-.04-.05-.04-.04,0-.16.08-.21.09-.12.02-.3-.09-.3-.22,0-.11.16.07.25.01.04-.03.02-.02.07-.04.09-.04.17-.06.08-.18s-.22-.21-.31-.32c-.03-.03-.05-.09-.05-.1,0,0-.07-.02-.1-.05-.07-.08,0-.25.1-.25.05,0,.13.09.13.02s-.03-.04-.06-.07c-.03-.03-.06-.12-.06-.16,0-.02.02-.08.01-.09,0,0-.08-.04-.1-.06-.03-.03-.17-.19-.15-.22,0-.01.12-.01.14-.01-.05-.06-.1-.13-.13-.21-.07-.26.04-.51.07-.76.02-.17,0-.4.02-.55.01-.07.06-.16.14-.17.19-.03.21.09.32.21Z"/><path class="cls-1" d="M65.19,17.32s.09.09.13.13c.13.1.27.18.4.27.04.03.16.14.19.15.01,0,.03-.02.05-.02.29-.01.37.05.29.34.09,0,.13,0,.2.06.01.01.02.04.02.04.02.01.07-.08.13.01,0,.01,0,.04.02.05.01.01.06.02.08.04s.07.09.06.12c0,.06-.06.06-.06.06,0,.02,0,.04,0,.07,0,.02-.08.13-.1.15-.03.04-.09.07-.13.11.02,0,.05.02.07.03,0,0,.11.1.11.11.02.03.02.07.03.09.03.04.15.07.2.07.04,0-.08.12-.13.13-.1.01-.13-.04-.23-.05l.07.19c0,.36-.18.8-.62.65-.04-.01-.11-.03-.14-.05-.08-.03-.17-.08-.21-.15-.03-.04-.03-.08-.07-.12-.03,0,0,.04-.01.07,0,.01-.04.03-.06.04-.01,0-.12.02-.13.02-.03,0-.1-.02-.12-.05-.03-.04.03-.04.06-.06.07-.04.08-.13.11-.19,0-.01.02,0,.02-.02,0-.02-.05-.08-.05-.11-.12.03-.24.07-.36.06-.03-.06-.04,0-.05,0-.09.02-.18-.1-.15-.17,0-.02.04-.03.05-.05-.15.08-.22-.21-.06-.18-.04-.1.02-.2.04-.3-.29-.09-.24-.37-.01-.5-.05-.17-.03-.35-.03-.53,0-.15-.01-.35,0-.49.01-.08.03-.14.12-.15s.2.03.27.09Z"/><path class="cls-1" d="M64.24,27.96s.05.14.08.16c.03.03.07,0,.09,0,.04,0,.14.14.14.18,0,.02-.04.11-.05.13-.02.03-.08.05-.1.06-.01.01,0,.03-.02.04-.04.03-.08-.01-.11.09-.04.12-.01.2-.11.31-.04.05-.1.05-.1.11,0,0,.06.07.07.09.05.07.09.16.11.24,0,.02,0,.09.02.11,0,0,.05.01.07.03.02.01.08.07.09.09.02.04,0,.07,0,.11.02,0,.04-.01.06,0,.03,0,.23.1.27.12.03.02.1.07.11.08,0,0,.08,0,.09,0,.02,0,.08-.09.11-.11.03-.02.11-.06.14-.07.12-.02.24.08.35,0,.03-.02.07-.09.1-.08,0,0,0,.02,0,.02.04.01.06-.09.09-.01.01,0,0-.03.01-.04.02,0,.1,0,.11,0,0,0,0,.02.02.02.04.02.05,0,.07.06.02.1,0,.1-.08.15.04.05.08.02.08.09,0,.04-.08.33-.1.36-.03.05-.12.06-.17.06-.02,0-.19,0-.19-.01-.03-.04.06-.05.07-.06,0,0,.06-.11.06-.12,0-.02-.02-.04-.03-.08,0-.05.06-.11-.02-.12-.1-.02-.2.06-.3.09-.03,0-.07.02-.1.03-.02,0-.05,0-.06,0,0,0-.02.08-.03.09-.03.03-.15.03-.19.03,0,0-.04-.04-.07-.05-.02,0-.04.02-.07.02-.04,0-.16,0-.2,0-.03,0-.11-.05-.12-.05-.01,0-.03.03-.04.04,0,0-.07.03-.08.03-.05,0-.03-.06-.07-.06-.01,0,0,.02-.01.04-.03.03-.08.02-.09.02,0,0,0,.06,0,.08,0,0-.02.08-.02.08,0,.01-.05.04-.05.04,0,0,.02.06.03.06.03.02.06-.02.07-.02.04,0,.16.07.16.07.02,0,.05-.04.12-.02,0,0,0,.02.02.02.1.04.18.06.2.18.02.1-.02.19.06.27-.03.08-.02.12-.1.16-.07.04-.14.03-.22.03,0,.04.03.03.05.04.1.1.14.51.19.65-.03.05-.01.1-.02.14-.04.2-.14.28-.34.31-.11.01-.22.02-.33,0-.03,0-.09-.05-.1-.04,0,0,.02.03-.02.04-.08,0-.25-.1-.31-.15-.02-.02-.05-.06-.05-.06,0,0-.03.02-.05,0-.02-.01-.08-.1-.1-.12-.09-.1-.39-.41-.4-.54,0-.04.02-.08,0-.12-.02,0-.01.02-.03.04-.04.03-.21.15-.25.16-.06.01-.14-.03-.17-.08-.01-.02-.05-.14-.05-.16-.01-.08.02-.16.02-.23.02-.21.02-.47.07-.67,0-.03.06-.15.07-.17.02-.03.02.03.04.02-.02-.09.05-.07.12-.07-.01-.02-.06,0-.09-.01-.07-.01.03-.08.05-.12s0-.02-.02-.03c-.05-.05-.03-.05-.1-.08,0,0,0-.02-.02-.02-.04,0-.12.06-.22.03-.02,0-.03-.03-.05-.03-.02,0-.15,0-.17,0-.01,0-.02.05-.05.05-.02,0-.05-.01-.06,0,0,0,0,.08-.04.1-.03.01-.05,0-.06.02-.01,0,0,.02-.02.02-.02,0-.08.03-.1.03-.02,0-.03-.03-.05-.03-.02,0-.04,0-.08-.02-.02-.01-.08-.07-.08-.08,0-.01.02-.03.02-.05,0-.01-.02-.02-.02-.04,0-.01.02-.02.03-.03.01-.03.04-.14.07-.15.08,0,.16,0,.23,0,.02,0,.05.01.05.01,0,0,0-.04.03-.04s.1.02.15,0c.12-.02.21-.09.35-.07.02,0,.03.03.06.02,0,0,.02-.05.07-.05.02,0,.07.02.09.02.05.01.13.03.19.05.03.01.04.04.08.04.08.01.13-.03.2-.03.03,0,.01.03.02.02.02,0,.05-.06.09-.07.03,0,.12-.02.15-.03.06,0,.24-.01.24.07h.01s.04-.02.07-.02c0-.02-.02,0-.02-.02,0-.05.11-.12.11-.13,0,0-.03-.01-.04-.03-.03-.05-.03-.35-.02-.42,0-.04.02-.06.06-.05,0-.03-.05-.02-.06-.02-.01-.01,0-.14.02-.15.02,0,.06,0,.07,0,0,0,.01-.07.02-.09.03-.06.12-.15.15-.21.02-.03.02-.08.03-.11,0-.01.03-.02.03-.03,0,0-.09-.09-.1-.12-.01-.04,0-.07-.01-.1,0-.03-.1-.04-.13-.06-.02-.01-.02-.03-.03-.04-.02-.01-.07,0-.1-.02-.01,0-.05-.06-.05-.07,0-.05.17-.1.22-.1.07,0,.24.04.28.09Z"/><path class="cls-1" d="M62.74,22.71c.1.11.09.42.14.57.09.28.22.34.16.67-.02.1.03.05.09.08.1.05.02.23,0,.31,0,.03-.04.07-.04.1,0,0,0,.16.01.18,0,.02.03.04.04.06.03.07.05.15.01.22.14-.05.13.18.05.21-.01,0-.04,0-.05,0-.01.02,0,.06-.01.08s-.04.04-.04.06c0,0,.05.04.06.05.1.12.1.22.13.36.02.08.09.18-.01.25-.02.02-.05.01-.07.03-.02.01-.05.06-.09.08s-.14.03-.15.07c0,.03,0,.05,0,.08,0,0-.02,0-.02.02,0,.02.01.13.02.16,0,.07.02.17.1.17,0,.01-.02.07-.04.08-.02.01-.17.01-.2,0-.03-.01-.06-.07-.08-.1l-.03-.09-.14.21c-.13.08-.26.18-.38.27-.18.12-.32.22-.54.1-.11-.06-.24-.23-.16-.35-.01,0-.03,0-.04-.01,0,0,0-.18,0-.21,0-.06,0-.07.01-.13,0-.11.03-.28.08-.37.05-.08.21-.28.28-.35.02-.02.03-.02.05-.03,0,0,.04,0,.02-.02,0,0-.05.01-.06.01-.08,0-.13-.03-.19-.04-.04,0-.07.03-.13,0-.07-.04-.08-.18-.07-.25.01-.05.07-.04.08-.06.02-.02,0-.06.06-.1.06-.03.22-.09.29-.1.04,0,.21.02.22.01,0,0,0-.02,0-.03,0-.02.04-.06.04-.06,0,0-.04-.02-.05-.04-.02-.03-.02-.07-.04-.09-.03-.05-.1-.08-.14-.16-.02-.04-.05-.18-.07-.19-.01,0-.02.02-.04.02-.07,0-.24-.03-.29-.07s-.09-.1-.13-.15c0,.13-.16.07-.19-.02-.05-.12.03-.12.03-.16,0-.03-.01-.07-.01-.11,0-.16.06-.24.09-.37.02-.08,0-.12,0-.19,0-.03,0-.13.01-.16,0-.04.05-.09.09-.1.02,0,.07,0,.07,0,.01-.01-.03-.05.06-.03.03,0,.06,0,.08.01.1.02.05.13.06.14,0,0,.03,0,.04.03,0,.02.01.05,0,.07,0,0-.05.11-.06.12-.04.06-.12.04-.14.15-.01.06-.01.2,0,.26,0,.03.03.05.02.08,0,.02-.03.06-.03.08,0,.02.19.09.21.08-.01-.06-.03-.16.05-.14-.01-.06-.02-.11-.01-.17.04-.38.32-.53.52-.81.02-.03.03-.07.06-.11.1-.14.31-.31.46-.14Z"/><path class="cls-1" d="M68.75,30.33s-.01,0-.02,0c0,0,.01.05-.01.07.05.01.03-.03.06-.06.02-.02.05-.02.07-.05.12-.01.01.08.03.09.17.01,0,.08-.04.12s-.06.13-.08.17c0,.01-.03.01-.04.03-.03.08.04.21.03.3.06-.01.08-.08.13-.12.1-.08.33-.15.45-.17.18-.01.35.02.52.05.13.02.27-.02.41.03.05.02.13.12.13.18,0,.11-.13.19-.2.26-.05.06-.14.17-.19.23-.13.19-.16.43-.36.57l.09.06c.08.1-.17.24-.18.27,0,.03.04.05.04.05,0,.01,0,.04,0,.04,0,0,.03,0,.04,0,.01,0,0,.02.03.02.03,0,.07-.03.1-.02.02,0,.05.04.07.05.03.01.07,0,.1.03.04-.11.08-.1.16-.15.02-.01.03-.04.05-.05.05-.02.06,0,.05.05,0,.04-.06.06-.06.07.03.07.22-.04.23-.03.02.08-.07.09-.12.12,0,.04.2.04.12.11-.06.05-.09-.03-.15,0,.02.02.11.04.09.09-.02.06-.13-.03-.14-.02,0,0,0,.04,0,.05,0,0,.08.02.04.06-.04.05-.08-.03-.13-.05-.16-.07-.27-.03-.42-.04-.06,0-.06,0-.12,0-.07,0-.19-.06-.15-.14-.07.01-.15-.02-.18-.08,0-.01,0-.03,0-.03,0,0-.21.07-.24.02,0-.01,0-.04-.01-.05-.03-.02-.11,0-.15-.01,0,.11.06.07.14.06.04.09-.02.12-.04.19-.02.06.03.02.06.06.06.07,0,.17-.02.25.08,0,.13.05.04.07.06.07.08.11.03.19l.23.19c0,.09.07.15.06.23s-.09.28-.12.36c-.04.09-.18.21-.25.28-.02.02-.09.06-.09.06,0,.01,0,.03-.03.05-.03.03-.16.07-.21.06-.03,0-.04-.03-.06-.03s-.03.01-.06,0c-.02,0-.19-.12-.22-.15-.31-.22-.68-.49-.83-.85-.03-.07,0-.04-.05-.08-.02-.01-.09-.18-.09-.21,0-.3.25-.54.55-.46.04.01.09,0,.06.05.02,0,.03-.02.05-.02.07-.01.26.09.29.07-.04-.06.01-.06.03-.1.05-.1,0-.16.03-.26,0-.04.05-.05.05-.09,0-.02-.04-.03-.05-.07,0-.02,0-.11,0-.13,0-.01.05-.01.06-.02-.04-.04-.08-.03-.06-.11,0-.01.04,0,.02-.03-.09-.02-.03-.12-.02-.18,0-.03,0-.06,0-.09,0-.05.05-.15.11-.15,0-.02-.04,0-.06-.02-.02-.01-.01-.17-.01-.2,0-.05.05-.12.05-.16,0-.03-.02-.06.02-.09,0-.01-.03,0-.04-.01,0-.04,0-.17.02-.21.05-.18.08-.23.07-.44,0-.04-.04-.12.02-.11,0,0,0,.04.04.02-.02-.04.02-.05.02-.05,0,0,0-.05,0-.05.06-.04.03.09.07.09l.04-.11s.06-.06.07-.02c0,.02-.02.05-.03.07Z"/><path class="cls-1" d="M39.52,35.29c-.23-.38-.75-.26-.76-.79-.01-.56.41-.38.48-.47.04-.06.1-.52.14-.67.11-.4.4-.63-.06-.98l-.61.54c.3.11.37.32.28.63-.07.22-.36.18-.51.25s-.25.18-.41.2c.1-.34-.24-.58-.16-.89.1-.43.65-.25.68-.28.02-.01.04-.18.08-.25.07-.14.39-.58.39-.66.02-.19-.31-.6-.35-.88-.09-.69-.01-2.05.15-2.72.09-.39.28-.76.43-1.14-.14-.01-.21.15-.38.15-.23-.01-.6-.39-.91-.32.17-.16.44-.06.66-.1.16-.03.39-.21.55-.26.12-.04.26.02.36-.04.14-.08.43-.91.35-1.02-.2.27-.45-.02-.55,0-.09.02-.14.38-.49.45l-1.01.04c.13-.19.24-.5.47-.58.17-.06.42,0,.51-.04.05-.03.17-.32.35-.38.38-.13.85.43.72-.6-.13-.13-1.7.86-1.97.99-.32.15-1.32.46-1.49.68-.06.08,0,.15-.08.26-.12.17-.36.31-.53.41-.23-.01.07-.66.12-.75.13-.22.4-.42.54-.63.26-.39.72-1.41,1.16-1.53.6-.17,1.61.02,2.16-.35.13-.09.3-.55.46-.71s.38-.25.55-.39c-.51-.25-.2-.23-.17-.53.03-.41-.46-.28-.52-.47-.08-.24.32-.59.34-.81.02-.2-.13-.3-.12-.49.22,0,.49.32.51.51.01.13-.09.23-.02.37.08.16.46.17.54.41.02.05-.02.48-.03.55-.01.06-.18,0-.12.16.54.07,1.17-.07,1.72,0,.19.02.45.23.59.12.21-.17-.18-.6,0-.88.07-.11.5-.19.62-.38.12-.19-.02-.73.41-.79-.19.31,0,.66-.09.97,0,.03-.16.36-.18.38-.07.08-.22.05-.25.15-.05.13,0,.43.06.56.02.06.16.03.11.19-.01.05-.17.07-.18.12,0,.03.37.35.43.44.13.18.28.65.42.75.19.13.69.18.94.29.21.09.45.26.68.37.43.2.69.17,1.03.61.26.35.32,1.13.71,1.48v.76c-.35-.03-.52-.46-.76-.67s-.55-.29-.79-.44c-.51-.33-.92-.81-1.37-1.2-.06-.05-.43-.36-.47-.32l-.17.61c.1.14.28.07.42.1.34.08.26.55.68.51l-.12.09c.19.05.25.31.31.37.12.1.32,0,.33.02.02.02.11.36.03.41-.15-.23-.34-.07-.54-.16-.21-.09-.18-.32-.31-.4-.15-.08-.45-.03-.62-.14-.16-.1-.2-.57-.34-.24-.17.39-.5,1.08.08,1.26.16.05.27-.12.5-.1.35.03.55.34.91.18-.38.56-.9.14-1.34.5.41.73.64,1.51.7,2.34.01.17-.04.99,0,1.02.02.02.18-.01.23,0,0,.07-.18.25-.18.26v.85c-.13,0-.21-.21-.27-.23-.12-.03-.48.25-.49.23,0-.3.09-.52-.23-.67-.04-.15.15-.06.18-.09.07-.08-.13-.31-.16-.4-.05-.17-.05-.35-.12-.52-.03-.08-.41-.66-.45-.66-.2.61-.85.77-1.2,1.2-.07.09-.39.64-.4.71,0,.02.21.36.23.37.03.02.41-.3.6.13.17.39-.23.5-.19.86l-.67-.35c-.04-.08-.05-.34-.03-.43,0-.04.22-.05.12-.15-.01-.01-.31-.07-.37-.05-.06.02-.25.2-.27.26-.06.18.09.13.22.23.17.12.41.3.53.46.08.11.16.37.18.38.04.03.33-.21.48.13.22.52-.34.58-.31,1.04-.27-.08-.89-.35-.81-.72,0-.03.14-.28.16-.3.12-.1.33.05.3-.13-.04-.23-.69-.76-.85-.55-.36.46-.03,1.33-.09,1.87-.58.05-.76-.7-1.05-1.02-.19-.21-.55-.37-.67-.67-.21.26-.4.58-.38.94.21,0,.47-.06.52.21.09.47-.4.62-.41,1.08h-.06Z"/></g></svg>