<?xml version="1.0" encoding="UTF-8"?>
<svg xmlns="http://www.w3.org/2000/svg" version="1.1" viewBox="0 0 82 103.5">
  <!-- Generator: Adobe Illustrator 29.0.1, SVG Export Plug-In . SVG Version: 2.1.0 Build 192)  -->
  <defs>
    <style>
      .st0, .st1, .st2, .st3 {
        fill: #fff;
        stroke: #231f20;
      }

      .st0, .st2, .st4 {
        stroke-width: .5px;
      }

      .st0, .st3 {
        stroke-linejoin: bevel;
      }

      .st1, .st2, .st4 {
        stroke-miterlimit: 10;
      }

      .st4 {
        fill: #1f1f1f;
        stroke: #666766;
      }

      .st3 {
        stroke-width: .2px;
      }
    </style>
  </defs>
  <g id="Layer_1">
    <path class="st3" d="M82.2,21.9"/>
    <path class="st3" d="M82.2,16.6"/>
    <path class="st0" d="M82,21.6"/>
    <path class="st0" d="M82,16.6"/>
    <path class="st1" d="M79.1,53.5"/>
    <path class="st1" d="M79.1,86.1"/>
    <path class="st1" d="M79.1,51.8"/>
    <path class="st1" d="M79.1,87.3"/>
    <path class="st4" d="M41.3-3.2"/>
    <path class="st1" d="M3.5,53.5"/>
    <path class="st1" d="M3.5,17.9"/>
    <path class="st1" d="M8.2,9.2c0,2.6-2.1,4.8-4.7,4.8v-4.8h4.7Z"/>
    <path class="st1" d="M79.1,83.7V16.5c-4.1,0-7.5-3.2-7.5-7.3H10.9c0,4-3.3,7.3-7.5,7.3v67.2c4.1,0,7.4,4.5,7.4,8.4h60.8c0-4,3.3-8.4,7.5-8.4Z"/>
    <path class="st2" d="M76.3,83.5V19.3c-4.1,0-7.5-3.3-7.5-7.5H13.7c0,4.1-3.3,7.5-7.5,7.5v64.2c4.1,0,7.5,3.3,7.5,7.5h55.2c0-4.1,3.3-7.5,7.5-7.5h0Z"/>
    <path class="st1" d="M74.5,9.2c0,2.6,2.1,4.8,4.7,4.8v-4.8h-4.7Z"/>
    <path class="st2" d="M41.3,10.5"/>
    <path class="st0" d="M78.9,88.1"/>
    <path class="st0" d="M78.9,81.3"/>
    <path class="st3" d="M78.9,81.3"/>
    <path class="st3" d="M78.9,88.1"/>
    <path class="st0" d="M78.9,81.4"/>
    <path class="st0" d="M78.9,88.4"/>
    <path class="st3" d="M3.2,22.7"/>
    <path class="st3" d="M3.2,15.9"/>
    <path class="st3" d="M-.3,21.9"/>
    <path class="st3" d="M-.3,16.6"/>
    <path class="st0" d="M-.1,21.6"/>
    <path class="st0" d="M-.1,16.6"/>
    <path class="st0" d="M3.2,22.6"/>
    <path class="st0" d="M3.2,15.6"/>
    <polyline class="st2" points="41.3 9.4 59.3 9.4 60.9 6.3 55 6.3 53.8 9.4 55.5 5.1 49.8 5.1 48.5 9.4 50.3 3.3 45.1 3.3 43.8 9.4 45.6 .8 41.3 .8 37 .8 38.7 9.4 37.5 3.3 32.2 3.3 34 9.4 32.8 5.1 27 5.1 28.8 9.4 27.5 6.3 21.6 6.3 23.2 9.4 41.3 9.4"/>
    <path class="st1" d="M8.2,9.2c0,2.6-2.1,4.8-4.7,4.8v-4.8h4.7Z"/>
    <path class="st1" d="M74.5,9.2c0,2.6,2.1,4.8,4.7,4.8v-4.8h-4.7Z"/>
  </g>
  <g id="Layer_2">
    <polygon class="st1" points="61.7 73.2 21 73.2 .7 88.2 21 103.2 61.7 103.2 82 88.2 61.7 73.2"/>
    <polyline class="st2" points="61.7 103.2 75.2 88.2 61.7 73.2"/>
    <polyline class="st2" points="21.8 103.2 8.2 88.2 21.8 73.2"/>
  </g>
</svg>