<?xml version="1.0" encoding="UTF-8"?>
<svg xmlns="http://www.w3.org/2000/svg" version="1.1" xmlns:xlink="http://www.w3.org/1999/xlink" viewBox="0 0 53 50">
  <!-- Generator: Adobe Illustrator 29.0.1, SVG Export Plug-In . SVG Version: 2.1.0 Build 192)  -->
  <defs>
    <style>
      .st0, .st1 {
        stroke-miterlimit: 10;
      }

      .st0, .st1, .st2 {
        fill: #fff;
        stroke: #000;
      }

      .st3 {
        opacity: .5;
      }

      .st4 {
        fill: none;
      }

      .st5 {
        fill: #1f1f1f;
      }

      .st1 {
        stroke-width: .5px;
      }

      .st2 {
        stroke-linejoin: bevel;
      }

      .st6 {
        display: none;
      }

      .st7 {
        fill: #353535;
      }

      .st8 {
        clip-path: url(#clippath);
      }
    </style>
    <clipPath id="clippath">
      <rect class="st4" y="0" width="52.2" height="49.3"/>
    </clipPath>
  </defs>
  <g id="Layer_1" class="st6">
    <g class="st3">
      <g class="st8">
        <g>
          <path class="st7" d="M51.6,5v39.1l-4.2,4.2H5.1l-4.2-4.2V5L5.1.8h42.3l4.2,4.2Z"/>
          <path class="st5" d="M46.7,47.9h-2.7c2-.9,3.8-2.4,5-4.2h0c.8-1.2,1.4-2.5,1.8-3.8v3.9l-4.1,4.2ZM1.4,43.7v-3.9c.4,1.3,1,2.6,1.8,3.8h0c0,0,0,0,0,0,1.2,1.9,3,3.4,5.1,4.2h-2.7l-4.2-4.2ZM5.6,1.4h2.7c-2.1.9-3.8,2.4-5.1,4.2h0c-.8,1.2-1.4,2.5-1.8,3.8v-3.9L5.6,1.4ZM49.1,6.8c.2.3.3.6.5.9.6,1.3,1,2.6,1.3,3.9v25.9c-.3,1.7-1,3.3-1.8,4.9V6.8ZM1.4,11.7c.3-1.7,1-3.3,1.8-4.9v35.6c-.2-.3-.3-.6-.5-.9-.6-1.3-1-2.6-1.3-3.9V11.7ZM42,47.9H10.2c-2.6-.6-4.8-2.1-6.3-4.3V5.7c1.5-2.2,3.7-3.7,6.3-4.3h31.8c2.5.6,4.8,2.1,6.3,4.3v38c-1.5,2.1-3.7,3.6-6.3,4.2ZM50.9,5.6v3.9c-.4-1.3-1-2.6-1.8-3.8h0c-1.2-2-3-3.4-5.1-4.3h2.7l4.2,4.2ZM47.2,0H5L0,5v39.3l5,5h42.2l5-5V5L47.2,0Z"/>
        </g>
      </g>
    </g>
  </g>
  <g id="Layer_2">
    <g>
      <path class="st0" d="M47.6,48.7H4.6l-4-4V4.6L4.6.5h43l4,4v40.2l-4,4Z"/>
      <rect class="st2" x="2.7" y="2.5" width="46.8" height="44.1"/>
      <g>
        <g>
          <path class="st1" d="M26.1,24.6"/>
          <path class="st1" d="M26.1,24.6"/>
          <path class="st1" d="M26.1,24.6"/>
          <path class="st1" d="M26.1,24.6"/>
          <path class="st1" d="M26.1,24.6"/>
          <path class="st1" d="M26.1,24.6"/>
          <line class="st1" x1="26.1" y1="24.6" x2="2.7" y2="8"/>
          <line class="st1" x1="26.1" y1="24.6" x2="2.7" y2="5.6"/>
          <line class="st1" x1="26.1" y1="24.6" x2="2.7" y2="2.5"/>
          <line class="st1" x1="26.1" y1="24.6" x2="4.9" y2="2.5"/>
          <line class="st1" x1="26.1" y1="24.6" x2="7.4" y2="2.5"/>
        </g>
        <g>
          <path class="st1" d="M25.5,23.8"/>
          <path class="st1" d="M25.5,23.8"/>
          <path class="st1" d="M25.5,23.8"/>
          <path class="st1" d="M25.5,23.8"/>
          <path class="st1" d="M25.5,23.8"/>
          <path class="st1" d="M25.5,23.8"/>
          <line class="st1" x1="25.5" y1="23.8" x2="49.5" y2="40.9"/>
          <line class="st1" x1="25.5" y1="23.8" x2="49.5" y2="43.3"/>
          <line class="st1" x1="25.5" y1="23.8" x2="49.5" y2="46.5"/>
          <line class="st1" x1="25.5" y1="23.8" x2="47.4" y2="46.8"/>
          <line class="st1" x1="25.5" y1="23.8" x2="44.8" y2="46.8"/>
        </g>
        <g>
          <g>
            <path class="st1" d="M26.1,24.6"/>
            <path class="st1" d="M26.1,24.6"/>
            <path class="st1" d="M26.1,24.6"/>
            <path class="st1" d="M26.1,24.6"/>
            <path class="st1" d="M26.1,24.6"/>
            <path class="st1" d="M26.1,24.6"/>
            <line class="st1" x1="26.1" y1="24.6" x2="49.5" y2="8"/>
            <line class="st1" x1="26.1" y1="24.6" x2="49.5" y2="5.6"/>
            <line class="st1" x1="26.1" y1="24.6" x2="49.5" y2="2.5"/>
            <line class="st1" x1="26.1" y1="24.6" x2="47.2" y2="2.5"/>
            <line class="st1" x1="26.1" y1="24.6" x2="44.7" y2="2.5"/>
          </g>
          <g>
            <path class="st1" d="M26.7,23.8"/>
            <path class="st1" d="M26.7,23.8"/>
            <path class="st1" d="M26.7,23.8"/>
            <path class="st1" d="M26.7,23.8"/>
            <path class="st1" d="M26.7,23.8"/>
            <path class="st1" d="M26.7,23.8"/>
            <line class="st1" x1="26.7" y1="23.8" x2="2.7" y2="40.9"/>
            <line class="st1" x1="26.7" y1="23.8" x2="2.7" y2="43.3"/>
            <line class="st1" x1="26.7" y1="23.8" x2="2.7" y2="46.5"/>
            <line class="st1" x1="26.7" y1="23.8" x2="4.8" y2="46.8"/>
            <line class="st1" x1="26.7" y1="23.8" x2="7.4" y2="46.8"/>
          </g>
        </g>
      </g>
      <path class="st1" d="M40.7,46.7H11.5l-8.8-8.8V11.3L11.5,2.5h29.2l8.8,8.8v26.6l-8.8,8.8Z"/>
    </g>
  </g>
</svg>