<?xml version="1.0" encoding="UTF-8"?>
<svg id="Layer_1" xmlns="http://www.w3.org/2000/svg" version="1.1" xmlns:xlink="http://www.w3.org/1999/xlink" viewBox="0 0 272.5 383.5">
  <!-- Generator: Adobe Illustrator 29.0.1, SVG Export Plug-In . SVG Version: 2.1.0 Build 192)  -->
  <defs>
    <style>
      .st0 {
        stroke-width: .2px;
      }

      .st0, .st1, .st2, .st3 {
        stroke: #fff;
        stroke-miterlimit: 10;
      }

      .st0, .st4 {
        fill: none;
      }

      .st1 {
        stroke-width: .5px;
      }

      .st1, .st2 {
        fill: #333;
      }

      .st5 {
        opacity: .3;
      }

      .st6 {
        display: none;
      }

      .st3 {
        fill: #1f1f1f;
      }

      .st7 {
        fill: #353535;
      }

      .st8 {
        opacity: .7;
      }

      .st9 {
        clip-path: url(#clippath);
      }

      .st10 {
        opacity: .5;
      }
    </style>
    <clipPath id="clippath">
      <rect class="st4" x="46.2" y="67.8" width="180" height="247.4"/>
    </clipPath>
  </defs>
  <g id="Layer_11" class="st6">
    <g class="st10">
      <g class="st9">
        <g>
          <path class="st7" d="M56.6,67.8h-5.9c-.8,2-4.5,4.2-4.5,4.2v2.6c2.9-3.1,6.5-5.4,10.4-6.8"/>
          <path class="st7" d="M215.9,315.1h5.9c.9-2,4.6-4.1,4.6-4.1v-2.6c-2.9,3-6.5,5.3-10.4,6.7h-.1Z"/>
          <path class="st7" d="M226.2,74.4v-2.6s-3.6-2.2-4.6-4.2h-5.9c4,1.4,7.5,3.7,10.4,6.7h.1Z"/>
          <path class="st7" d="M46.2,308.4v2.6s3.7,2.2,4.6,4.1h5.9c-4-1.4-7.5-3.7-10.4-6.7"/>
          <path class="st7" d="M46.2,294.9v9.6c.3.4.6,1,1,1.5-.4-2-.3-4.2.3-6.1l-1.3-5Z"/>
          <path class="st7" d="M214.9,312.6h-62.2c0,.1-.2.2-.3.3,0,0-.3.1-.4.1h-.3s-.2,0-.3-.2c0,0,0-.2-.2-.3v-.6c0-.1,0-.2.2-.3,0,0,.2-.1.3-.2h.3s.3,0,.4.1l.3.3h62.2c1.9,0,3.7-.5,5.4-1.4s3.1-2.1,4.3-3.5c.6-2.3.6-4.7,0-6.9h0c0-.1,1.8-7,1.8-7V90l-1.9-6.9h0c.7-2.3.7-4.7.1-7-1.2-1.5-2.6-2.7-4.3-3.6s-3.5-1.3-5.4-1.4h-62.2s-.2.2-.3.3h-.7s-.2,0-.3-.2c0,0,0-.2-.2-.3v-.6s0-.2.2-.3c0,0,.2,0,.3-.2h.7s.2.2.3.3h62.2c5.7,0,9.5,4,11.4,6.7v-1.9c-3.3-3.6-7.5-6.2-12.2-7.5H58.4c-4.7,1.7-8.9,4.3-12.2,7.8v1.9c1.9-2.7,5.7-6.7,11.4-6.7h62.2s.2-.2.3-.3h.7s.2,0,.3.2c0,0,0,.2.2.3v.6s0,.2-.2.3c0,0-.2,0-.3.2h-.7s-.2-.2-.3-.3h-62.2c-1.9,0-3.7.5-5.4,1.4s-3.1,2.1-4.3,3.6c-.6,2.3-.6,4.7.1,6.9h0c0-.1-1.8,6.8-1.8,6.8v202.9l1.9,6.9h0c-.7,2.3-.7,4.7-.1,7,1.2,1.5,2.6,2.7,4.3,3.6,1.7.9,3.5,1.3,5.4,1.4h62.2c0-.1.2-.2.3-.3,0,0,.3-.1.4-.1h.3s.2,0,.3.2c0,0,0,.2.2.3v.6c0,.1,0,.2-.2.3,0,0-.2.1-.3.2h-.3s-.3,0-.4-.1l-.3-.3h-62.3c-5.7,0-9.5-3.9-11.4-6.7v1.9c3.3,3.6,7.5,6.2,12.2,7.4h155.5c4.7-1.3,9-3.9,12.2-7.4v-1.9c-1.9,2.8-5.7,6.7-11.4,6.7h.1Z"/>
          <path class="st7" d="M46.2,78.4v9.6l1.3-5c-.6-2-.7-4.1-.3-6.1-.4.5-.8,1.1-1,1.5Z"/>
          <path class="st7" d="M226.2,88v-9.6c-.3-.4-.6-1-1-1.5.4,2,.3,4.1-.3,6.1l1.3,5Z"/>
          <path class="st7" d="M225.2,305.9c.4-2,.3-4.2-.3-6.1l1.3-5v9.6c-.3.4-.6,1-1,1.5"/>
        </g>
      </g>
    </g>
  </g>
  <g id="Layer_2" class="st5">
    <g class="st8">
      <path class="st2" d="M268,383.5H4.5l-4.5-4.6V5.6L4.5,1h263.4l4.5,4.6v373.2l-4.5,4.6Z"/>
      <g>
        <g>
          <g>
            <polyline class="st0" points=".5 28.9 2.1 26.6 2.1 3.6 113.5 3.6"/>
            <polyline class="st0" points="2.4 16.6 5.4 19.5 5.4 6.7 18 6.7 15.3 4.1"/>
            <polyline class="st0" points="5.4 14.7 7.1 16.4 7.1 8.6 15 8.6 13.3 6.9"/>
            <ellipse class="st1" cx="6.5" cy="8.1" rx="3.6" ry="3.7"/>
            <ellipse class="st1" cx="6.5" cy="8.1" rx="2.1" ry="2.2"/>
            <ellipse class="st3" cx="6.5" cy="8.1" rx="1.1" ry="1.1"/>
          </g>
          <polygon class="st3" points="115.4 3.6 113.2 2.1 113.2 5.3 115.4 3.6"/>
        </g>
        <g>
          <g>
            <polyline class="st0" points="272.5 28.9 270.8 26.6 270.8 3.6 159.4 3.6"/>
            <polyline class="st0" points="270.4 16.6 267.5 19.5 267.5 6.7 254.9 6.7 257.7 4.1"/>
            <polyline class="st0" points="267.4 14.7 265.7 16.4 265.7 8.6 258 8.6 259.6 6.9"/>
            <ellipse class="st1" cx="266.3" cy="8.1" rx="3.6" ry="3.7"/>
            <ellipse class="st1" cx="266.3" cy="8.1" rx="2.1" ry="2.2"/>
            <ellipse class="st3" cx="266.3" cy="8.1" rx="1.1" ry="1.1"/>
          </g>
          <polygon class="st3" points="157.6 3.6 159.7 2.1 159.7 5.3 157.6 3.6"/>
        </g>
        <g>
          <g>
            <polyline class="st0" points=".5 355 2.1 357.3 2.1 380.3 113.5 380.3"/>
            <polyline class="st0" points="2.4 367.3 5.4 364.2 5.4 377.2 18 377.2 15.3 379.8"/>
            <polyline class="st0" points="5.4 369.2 7.1 367.3 7.1 375.3 15 375.3 13.3 377"/>
            <ellipse class="st1" cx="6.5" cy="375.8" rx="3.6" ry="3.7"/>
            <ellipse class="st1" cx="6.5" cy="375.8" rx="2.1" ry="2.2"/>
            <ellipse class="st3" cx="6.5" cy="375.8" rx="1.1" ry="1.1"/>
          </g>
          <polygon class="st3" points="115.4 380.3 113.2 381.8 113.2 378.6 115.4 380.3"/>
        </g>
        <g>
          <g>
            <polyline class="st0" points="272.5 355 270.8 357.3 270.8 380.3 159.4 380.3"/>
            <polyline class="st0" points="270.4 367.3 267.5 364.2 267.5 377.2 254.9 377.2 257.7 379.8"/>
            <polyline class="st0" points="267.4 369.2 265.7 367.3 265.7 375.3 258 375.3 259.6 377"/>
            <ellipse class="st1" cx="266.3" cy="375.8" rx="3.6" ry="3.7"/>
            <ellipse class="st1" cx="266.3" cy="375.8" rx="2.1" ry="2.2"/>
            <ellipse class="st3" cx="266.3" cy="375.8" rx="1.1" ry="1.1"/>
          </g>
          <polygon class="st3" points="157.6 380.3 159.7 381.8 159.7 378.6 157.6 380.3"/>
        </g>
      </g>
    </g>
  </g>
</svg>