<?xml version="1.0" encoding="UTF-8"?>
<svg id="Layer_1" xmlns="http://www.w3.org/2000/svg" version="1.1" xmlns:xlink="http://www.w3.org/1999/xlink" viewBox="0 0 272.5 344.5">
  <!-- Generator: Adobe Illustrator 29.0.1, SVG Export Plug-In . SVG Version: 2.1.0 Build 192)  -->
  <defs>
    <style>
      .st0 {
        stroke-width: .2px;
      }

      .st0, .st1, .st2, .st3 {
        stroke: #fff;
        stroke-miterlimit: 10;
      }

      .st0, .st4 {
        fill: none;
      }

      .st1 {
        stroke-width: .5px;
      }

      .st1, .st2 {
        fill: #333;
      }

      .st5 {
        opacity: .3;
      }

      .st6 {
        display: none;
      }

      .st3 {
        fill: #1f1f1f;
      }

      .st7 {
        fill: #353535;
      }

      .st8 {
        opacity: .7;
      }

      .st9 {
        clip-path: url(#clippath);
      }

      .st10 {
        opacity: .5;
      }
    </style>
    <clipPath id="clippath">
      <rect class="st4" x="46.2" y="48.2" width="180" height="247.4"/>
    </clipPath>
  </defs>
  <g id="Layer_11" class="st6">
    <g class="st10">
      <g class="st9">
        <g>
          <path class="st7" d="M56.6,48.2h-5.9c-.8,2-4.5,4.2-4.5,4.2v2.6c2.9-3.1,6.5-5.4,10.4-6.8"/>
          <path class="st7" d="M215.9,295.6h5.9c.9-2,4.6-4.1,4.6-4.1v-2.6c-2.9,3-6.5,5.3-10.4,6.7h-.1Z"/>
          <path class="st7" d="M226.2,54.9v-2.6s-3.6-2.2-4.6-4.2h-5.9c4,1.4,7.5,3.7,10.4,6.7h.1Z"/>
          <path class="st7" d="M46.2,288.9v2.6s3.7,2.2,4.6,4.1h5.9c-4-1.4-7.5-3.7-10.4-6.7"/>
          <path class="st7" d="M46.2,275.4v9.6c.3.4.6,1,1,1.5-.4-2-.3-4.2.3-6.1l-1.3-5Z"/>
          <path class="st7" d="M214.9,293.1h-62.2c0,.1-.2.2-.3.3,0,0-.3.1-.4.1h-.3s-.2,0-.3-.2c0,0,0-.2-.2-.3v-.6c0-.1,0-.2.2-.3,0,0,.2-.1.3-.2h.3s.3,0,.4.1l.3.3h62.2c1.9,0,3.7-.5,5.4-1.4s3.1-2.1,4.3-3.5c.6-2.3.6-4.7,0-6.9h0c0-.1,1.8-7,1.8-7V70.5l-1.9-6.9h0c.7-2.3.7-4.7.1-7-1.2-1.5-2.6-2.7-4.3-3.6s-3.5-1.3-5.4-1.4h-62.2s-.2.2-.3.3h-.7s-.2,0-.3-.2c0,0,0-.2-.2-.3v-.6s0-.2.2-.3c0,0,.2,0,.3-.2h.7s.2.2.3.3h62.2c5.7,0,9.5,4,11.4,6.7v-1.9c-3.3-3.6-7.5-6.2-12.2-7.5H58.4c-4.7,1.7-8.9,4.3-12.2,7.8v1.9c1.9-2.7,5.7-6.7,11.4-6.7h62.2s.2-.2.3-.3h.7s.2,0,.3.2c0,0,0,.2.2.3v.6s0,.2-.2.3c0,0-.2,0-.3.2h-.7s-.2-.2-.3-.3h-62.2c-1.9,0-3.7.5-5.4,1.4s-3.1,2.1-4.3,3.6c-.6,2.3-.6,4.7.1,6.9h0c0-.1-1.8,6.8-1.8,6.8v202.9l1.9,6.9h0c-.7,2.3-.7,4.7-.1,7,1.2,1.5,2.6,2.7,4.3,3.6,1.7.9,3.5,1.3,5.4,1.4h62.2c0-.1.2-.2.3-.3,0,0,.3-.1.4-.1h.3s.2,0,.3.2c0,0,0,.2.2.3v.6c0,.1,0,.2-.2.3,0,0-.2.1-.3.2h-.3s-.3,0-.4-.1l-.3-.3h-62.3c-5.7,0-9.5-3.9-11.4-6.7v1.9c3.3,3.6,7.5,6.2,12.2,7.4h155.5c4.7-1.3,9-3.9,12.2-7.4v-1.9c-1.9,2.8-5.7,6.7-11.4,6.7h.1Z"/>
          <path class="st7" d="M46.2,58.9v9.6l1.3-5c-.6-2-.7-4.1-.3-6.1-.4.5-.8,1.1-1,1.5Z"/>
          <path class="st7" d="M226.2,68.5v-9.6c-.3-.4-.6-1-1-1.5.4,2,.3,4.1-.3,6.1l1.3,5Z"/>
          <path class="st7" d="M225.2,286.4c.4-2,.3-4.2-.3-6.1l1.3-5v9.6c-.3.4-.6,1-1,1.5"/>
        </g>
      </g>
    </g>
  </g>
  <g id="Layer_2" class="st5">
    <g class="st8">
      <path class="st2" d="M268,344.5H4.5l-4.5-4.2V5.2L4.5,1h263.4l4.5,4.2v335.2l-4.5,4.2Z"/>
      <g>
        <g>
          <g>
            <polyline class="st0" points=".5 26.1 2.1 24 2.1 3.4 113.5 3.4"/>
            <polyline class="st0" points="2.4 15 5.4 17.6 5.4 6.1 18 6.1 15.3 3.8"/>
            <polyline class="st0" points="5.4 13.3 7.1 14.9 7.1 7.8 15 7.8 13.3 6.3"/>
            <ellipse class="st1" cx="6.5" cy="7.4" rx="3.6" ry="3.3"/>
            <ellipse class="st1" cx="6.5" cy="7.4" rx="2.1" ry="1.9"/>
            <ellipse class="st3" cx="6.5" cy="7.4" rx="1.1" ry="1"/>
          </g>
          <polygon class="st3" points="115.4 3.4 113.2 2 113.2 4.9 115.4 3.4"/>
        </g>
        <g>
          <g>
            <polyline class="st0" points="272.5 26.1 270.8 24 270.8 3.4 159.4 3.4"/>
            <polyline class="st0" points="270.4 15 267.5 17.6 267.5 6.1 254.9 6.1 257.7 3.8"/>
            <polyline class="st0" points="267.4 13.3 265.7 14.9 265.7 7.8 258 7.8 259.6 6.3"/>
            <ellipse class="st1" cx="266.3" cy="7.4" rx="3.6" ry="3.3"/>
            <ellipse class="st1" cx="266.3" cy="7.4" rx="2.1" ry="1.9"/>
            <ellipse class="st3" cx="266.3" cy="7.4" rx="1.1" ry="1"/>
          </g>
          <polygon class="st3" points="157.6 3.4 159.7 2 159.7 4.9 157.6 3.4"/>
        </g>
        <g>
          <g>
            <polyline class="st0" points=".5 318.9 2.1 321 2.1 341.6 113.5 341.6"/>
            <polyline class="st0" points="2.4 330 5.4 327.2 5.4 338.8 18 338.8 15.3 341.2"/>
            <polyline class="st0" points="5.4 331.6 7.1 330 7.1 337.2 15 337.2 13.3 338.7"/>
            <ellipse class="st1" cx="6.5" cy="337.6" rx="3.6" ry="3.3"/>
            <ellipse class="st1" cx="6.5" cy="337.6" rx="2.1" ry="1.9"/>
            <ellipse class="st3" cx="6.5" cy="337.6" rx="1.1" ry="1"/>
          </g>
          <polygon class="st3" points="115.4 341.6 113.2 343 113.2 340.1 115.4 341.6"/>
        </g>
        <g>
          <g>
            <polyline class="st0" points="272.5 318.9 270.8 321 270.8 341.6 159.4 341.6"/>
            <polyline class="st0" points="270.4 330 267.5 327.2 267.5 338.8 254.9 338.8 257.7 341.2"/>
            <polyline class="st0" points="267.4 331.6 265.7 330 265.7 337.2 258 337.2 259.6 338.7"/>
            <ellipse class="st1" cx="266.3" cy="337.6" rx="3.6" ry="3.3"/>
            <ellipse class="st1" cx="266.3" cy="337.6" rx="2.1" ry="1.9"/>
            <ellipse class="st3" cx="266.3" cy="337.6" rx="1.1" ry="1"/>
          </g>
          <polygon class="st3" points="157.6 341.6 159.7 343 159.7 340.1 157.6 341.6"/>
        </g>
      </g>
    </g>
  </g>
</svg>