<?xml version="1.0" encoding="UTF-8"?>
<svg xmlns="http://www.w3.org/2000/svg" version="1.1" xmlns:xlink="http://www.w3.org/1999/xlink" viewBox="0 0 180 248">
  <!-- Generator: Adobe Illustrator 29.0.1, SVG Export Plug-In . SVG Version: 2.1.0 Build 192)  -->
  <defs>
    <style>
      .st0 {
        stroke-width: .5px;
      }

      .st0, .st1 {
        fill: #333;
      }

      .st0, .st2 {
        stroke: #1f1f1f;
        stroke-miterlimit: 10;
      }

      .st2 {
        stroke-width: .2px;
      }

      .st2, .st3 {
        fill: none;
      }

      .st4 {
        fill: #1f1f1f;
      }

      .st5 {
        opacity: .5;
      }

      .st6 {
        display: none;
      }

      .st7 {
        fill: #353535;
      }

      .st8 {
        clip-path: url(#clippath);
      }
    </style>
    <clipPath id="clippath">
      <rect class="st3" width="180" height="247.4"/>
    </clipPath>
  </defs>
  <g id="Layer_1" class="st6">
    <g class="st5">
      <g class="st8">
        <g>
          <path class="st7" d="M10.4,0h-5.9C3.7,2,0,4.2,0,4.2v2.6C2.9,3.7,6.5,1.4,10.4,0"/>
          <path class="st7" d="M169.6,247.4h5.9c.9-2,4.6-4.1,4.6-4.1v-2.6c-2.9,3-6.5,5.3-10.4,6.7Z"/>
          <path class="st7" d="M180,6.7v-2.6s-3.6-2.2-4.6-4.2h-5.9c4,1.4,7.5,3.7,10.4,6.7Z"/>
          <path class="st7" d="M0,240.7v2.6s3.7,2.2,4.6,4.1h5.9c-4-1.4-7.5-3.7-10.4-6.7"/>
          <path class="st7" d="M0,227.1v9.6c.3.4.6,1,1,1.5-.4-2-.3-4.2.3-6.1l-1.3-5Z"/>
          <path class="st7" d="M168.6,244.8h-62.2c0,.1-.2.2-.3.3-.1,0-.3.1-.4.1-.1,0-.2,0-.3,0-.1,0-.2,0-.3-.2,0,0-.1-.2-.2-.3,0-.1,0-.2,0-.3s0-.2,0-.3c0-.1.1-.2.2-.3,0,0,.2-.1.3-.2.1,0,.2,0,.3,0,.1,0,.3,0,.4.1.1,0,.2.2.3.3h62.2c1.9,0,3.7-.5,5.4-1.4,1.7-.9,3.1-2.1,4.3-3.5.6-2.3.6-4.7,0-6.9h0c0-.1,1.8-7,1.8-7V22.2l-1.9-6.9h0c.7-2.3.7-4.7.1-7-1.2-1.5-2.6-2.7-4.3-3.6-1.7-.9-3.5-1.3-5.4-1.4h-62.2c0,.1-.2.2-.3.3-.1,0-.3.1-.4.1-.1,0-.2,0-.3,0-.1,0-.2,0-.3-.2,0,0-.1-.2-.2-.3,0-.1,0-.2,0-.3s0-.2,0-.3c0-.1.1-.2.2-.3,0,0,.2-.1.3-.2.1,0,.2,0,.3,0,.1,0,.3,0,.4.1.1,0,.2.2.3.3h62.2c5.7,0,9.5,4,11.4,6.7v-1.9c-3.3-3.6-7.5-6.2-12.2-7.5H12.2C7.5,1.3,3.3,3.9,0,7.4v1.9C1.9,6.6,5.7,2.6,11.4,2.6h62.2c0-.1.2-.2.3-.3.1,0,.3-.1.4-.1.1,0,.2,0,.3,0,.1,0,.2,0,.3.2,0,0,.1.2.2.3,0,.1,0,.2,0,.3s0,.2,0,.3c0,.1-.1.2-.2.3,0,0-.2.1-.3.2-.1,0-.2,0-.3,0-.1,0-.3,0-.4-.1-.1,0-.2-.2-.3-.3H11.4c-1.9,0-3.7.5-5.4,1.4-1.7.9-3.1,2.1-4.3,3.6-.6,2.3-.6,4.7.1,6.9h0c0,.1-1.8,7-1.8,7v202.9l1.9,6.9h0c-.7,2.3-.7,4.7-.1,7,1.2,1.5,2.6,2.7,4.3,3.6,1.7.9,3.5,1.3,5.4,1.4h62.2c0-.1.2-.2.3-.3.1,0,.3-.1.4-.1.1,0,.2,0,.3,0,.1,0,.2,0,.3.2,0,0,.1.2.2.3,0,.1,0,.2,0,.3s0,.2,0,.3c0,.1-.1.2-.2.3,0,0-.2.1-.3.2-.1,0-.2,0-.3,0-.1,0-.3,0-.4-.1-.1,0-.2-.2-.3-.3H11.4c-5.7,0-9.5-3.9-11.4-6.7v1.9c3.3,3.6,7.5,6.2,12.2,7.4h155.5c4.7-1.3,9-3.9,12.2-7.4v-1.9c-1.9,2.8-5.7,6.7-11.4,6.7Z"/>
          <path class="st7" d="M0,10.7v9.6l1.3-5c-.6-2-.7-4.1-.3-6.1-.4.5-.8,1.1-1,1.5Z"/>
          <path class="st7" d="M180,20.3v-9.6c-.3-.4-.6-1-1-1.5.4,2,.3,4.1-.3,6.1l1.3,5Z"/>
          <path class="st7" d="M179,238.2c.4-2,.3-4.2-.3-6.1l1.3-5v9.6c-.3.4-.6,1-1,1.5"/>
        </g>
      </g>
    </g>
  </g>
  <g id="Layer_2">
    <g>
      <path class="st1" d="M177,248H3l-3-3V3L3,0h174l3,3v242l-3,3Z"/>
      <g>
        <g>
          <g>
            <polyline class="st2" points=".3 18.1 1.4 16.6 1.4 1.7 75 1.7"/>
            <polyline class="st2" points="1.6 10.1 3.6 12 3.6 3.7 11.9 3.7 10.1 2"/>
            <polyline class="st2" points="3.6 8.9 4.7 10 4.7 4.9 9.9 4.9 8.8 3.8"/>
            <ellipse class="st0" cx="4.3" cy="4.6" rx="2.4" ry="2.4"/>
            <ellipse class="st0" cx="4.3" cy="4.6" rx="1.4" ry="1.4"/>
            <ellipse class="st4" cx="4.3" cy="4.6" rx=".7" ry=".7"/>
          </g>
          <polygon class="st4" points="76.2 1.7 74.8 .7 74.8 2.8 76.2 1.7"/>
        </g>
        <g>
          <g>
            <polyline class="st2" points="180 18.1 178.9 16.6 178.9 1.7 105.3 1.7"/>
            <polyline class="st2" points="178.6 10.1 176.7 12 176.7 3.7 168.4 3.7 170.2 2"/>
            <polyline class="st2" points="176.6 8.9 175.5 10 175.5 4.9 170.4 4.9 171.5 3.8"/>
            <ellipse class="st0" cx="175.9" cy="4.6" rx="2.4" ry="2.4"/>
            <ellipse class="st0" cx="175.9" cy="4.6" rx="1.4" ry="1.4"/>
            <ellipse class="st4" cx="175.9" cy="4.6" rx=".7" ry=".7"/>
          </g>
          <polygon class="st4" points="104.1 1.7 105.5 .7 105.5 2.8 104.1 1.7"/>
        </g>
        <g>
          <g>
            <polyline class="st2" points=".3 229.5 1.4 231 1.4 245.9 75 245.9"/>
            <polyline class="st2" points="1.6 237.5 3.6 235.5 3.6 243.9 11.9 243.9 10.1 245.6"/>
            <polyline class="st2" points="3.6 238.7 4.7 237.5 4.7 242.7 9.9 242.7 8.8 243.8"/>
            <ellipse class="st0" cx="4.3" cy="243" rx="2.4" ry="2.4"/>
            <ellipse class="st0" cx="4.3" cy="243" rx="1.4" ry="1.4"/>
            <ellipse class="st4" cx="4.3" cy="243" rx=".7" ry=".7"/>
          </g>
          <polygon class="st4" points="76.2 245.9 74.8 246.9 74.8 244.8 76.2 245.9"/>
        </g>
        <g>
          <g>
            <polyline class="st2" points="180 229.5 178.9 231 178.9 245.9 105.3 245.9"/>
            <polyline class="st2" points="178.6 237.5 176.7 235.5 176.7 243.9 168.4 243.9 170.2 245.6"/>
            <polyline class="st2" points="176.6 238.7 175.5 237.5 175.5 242.7 170.4 242.7 171.5 243.8"/>
            <ellipse class="st0" cx="175.9" cy="243" rx="2.4" ry="2.4"/>
            <ellipse class="st0" cx="175.9" cy="243" rx="1.4" ry="1.4"/>
            <ellipse class="st4" cx="175.9" cy="243" rx=".7" ry=".7"/>
          </g>
          <polygon class="st4" points="104.1 245.9 105.5 246.9 105.5 244.8 104.1 245.9"/>
        </g>
      </g>
    </g>
  </g>
</svg>