<?xml version="1.0" encoding="UTF-8"?>
<svg id="Layer_1" xmlns="http://www.w3.org/2000/svg" version="1.1" viewBox="0 0 82 103.5">
  <!-- Generator: Adobe Illustrator 29.0.1, SVG Export Plug-In . SVG Version: 2.1.0 Build 192)  -->
  <defs>
    <style>
      .st0, .st1, .st2 {
        stroke: #231f20;
      }

      .st0, .st3 {
        stroke-width: .5px;
      }

      .st0, .st2 {
        fill: none;
        stroke-linejoin: bevel;
      }

      .st1 {
        fill: #fff;
      }

      .st1, .st3, .st4, .st5 {
        stroke-miterlimit: 10;
      }

      .st3, .st4, .st5 {
        fill: #1f1f1f;
        stroke: #666766;
      }

      .st5, .st2 {
        stroke-width: .2px;
      }
    </style>
  </defs>
  <path class="st2" d="M81,22.1"/>
  <path class="st2" d="M81,16.8"/>
  <path class="st0" d="M80.8,21.8"/>
  <path class="st0" d="M80.8,16.8"/>
  <path class="st1" d="M78,53.7"/>
  <path class="st1" d="M78,18.1"/>
  <path class="st1" d="M78,52"/>
  <path class="st1" d="M78,87.5"/>
  <path class="st3" d="M41.3-3"/>
  <path class="st4" d="M66,90.2H16c0,1.1-.9,2-1.9,2v5.6c1.1,0,1.9.9,1.9,2h49.9c0-1.1.9-2,1.9-2v-5.6c-1.1,0-1.9-.9-1.9-2Z"/>
  <path class="st3" d="M64.1,92H18.5c0,1.1-.9,2-1.9,2v2c1.1,0,1.9.9,1.9,2h45.7c0-1.1.9-2,1.9-2v-2c-1.1,0-1.9-.9-1.9-2Z"/>
  <path class="st1" d="M4.7,53.7"/>
  <path class="st1" d="M4.7,18.1"/>
  <g>
    <path class="st4" d="M6.1,95c0-2.6-2.2-4.8-5-4.8v4.8h5Z"/>
    <path class="st4" d="M80.9,18.1v69.4c-4.3,0-7.9,3.3-7.9,7.5H8.9c0-4.1-3.5-7.5-7.9-7.5V18.1c4.3,0,7.8-4.6,7.8-8.7h64.2c0,4.1,3.5,8.7,7.9,8.7Z"/>
    <path class="st3" d="M77.9,20.7v64.2c-4.3,0-7.9,3.3-7.9,7.5H11.9c0-4.1-3.5-7.5-7.9-7.5V20.7c4.3,0,7.9-3.3,7.9-7.5h58.3c0,4.1,3.5,7.5,7.9,7.5h-.1Z"/>
    <path class="st4" d="M76,95c0-2.6,2.2-4.8,5-4.8v4.8h-5Z"/>
  </g>
  <g>
    <path class="st5" d="M41.9,73.5c-13.9,0-25.5,6.6-25.9,14.9s10.3,15,24.2,15.1c13.9,0,25.5-6.6,25.9-14.9.5-8.3-10.3-15.1-24.2-15.1ZM39.9,100.8c-12.1,0-21.4-5.6-21-12.5.5-6.8,10.5-12.3,22.5-12.3s21.4,5.6,21,12.5c-.5,6.9-10.5,12.3-22.6,12.3h.1Z"/>
    <path class="st5" d="M62.7,88.5c-.5,6.8-10.5,12.3-22.6,12.3s-21.4-5.6-21-12.5c.5-6.8,10.5-12.3,22.5-12.3s21.4,5.6,21,12.5h.1Z"/>
  </g>
  <path class="st3" d="M41.3,10.7"/>
  <path class="st0" d="M77.8,16.1"/>
  <path class="st0" d="M77.8,22.9"/>
  <path class="st2" d="M77.8,22.9"/>
  <path class="st2" d="M77.8,16.1"/>
  <path class="st0" d="M77.8,22.8"/>
  <path class="st0" d="M77.8,15.8"/>
  <path class="st2" d="M4.4,22.9"/>
  <path class="st2" d="M4.4,16.1"/>
  <path class="st2" d="M1,22.1"/>
  <path class="st2" d="M1,16.8"/>
  <path class="st0" d="M1.2,21.8"/>
  <path class="st0" d="M1.2,16.8"/>
  <path class="st0" d="M4.4,22.8"/>
  <path class="st0" d="M4.4,15.8"/>
  <polyline class="st3" points="41 9.6 58.5 9.6 60.1 6.5 54.3 6.5 53.2 9.6 54.8 5.3 49.3 5.3 48 9.6 49.8 3.5 44.7 3.5 43.5 9.6 45.2 1 41 1 36.9 1 38.5 9.6 37.4 3.5 32.2 3.5 34 9.6 32.8 5.3 27.2 5.3 28.9 9.6 27.7 6.5 21.9 6.5 23.5 9.6 41 9.6"/>
</svg>