<?xml version="1.0" encoding="UTF-8"?>
<svg xmlns="http://www.w3.org/2000/svg" version="1.1" viewBox="0 0 60.4 453">
  <!-- Generator: Adobe Illustrator 29.1.0, SVG Export Plug-In . SVG Version: 2.1.0 Build 142)  -->
  <defs>
    <style>
      .st0 {
        fill: #333;
      }

      .st1 {
        fill: #333;
      }

      .st2 {
        fill: none;
        stroke: #333;
        stroke-miterlimit: 10;
        stroke-width: .8px;
      }

      .st3 {
        display: none;
      }

      .st4 {
        fill: #dcddde;
      }
    </style>
  </defs>
  <g id="Layer_1" class="st3">
    <path class="st4" d="M15.7,445.4c.6-.6,1.2-1.1,1.9-1.6-3.1,1-6.4,1.4-9.7,1.1,1.1.4,2.3.5,3.4.5h4.5ZM1.2,433.4l-1.2-4.4v9.3c.2.4.5.8.9,1.2-.4-2-.3-4.1.3-6.1M38.8,448.9h-.9c-4.4,3.9-11,3.9-15.4,0h-.9c.3.3.6.5.9.8,0,0,.1,0,.2,0,.3,0,.6.3.6.6,0,0,0,0,0,0h0c4.2,3,9.8,3,14,0h0c0-.3.2-.6.5-.6,0,0,0,0,0,0,0,0,.1,0,.2,0,.3-.2.6-.5.9-.8M60.4,439.6v1.8c-3.4,3.6-7.7,6.2-12.6,7.4h-8.4c-.3.4-.6.7-1,1h13.7l.7-1h-3.2c4-1.3,7.7-3.6,10.6-6.7v2.5s-3.7,2.2-4.6,4.1h-2l-1.3,1.7h-7.3c-2.8.4-6.4,1-8.1,2.2,0,0-1.2.7-1.2-.5s2.7-1.4,4.9-1.7h-2.7c-.1.1-.2.2-.4.2-.1,0-.2,0-.3-.1-4.3,3.1-10.2,3.1-14.5,0,0,0-.2.1-.3.1-.1,0-.3,0-.4-.2h-2.7c2.1.4,4.9,1,4.9,1.7,0,1.2-1.2.5-1.2.5-1.7-1.2-5.2-1.8-8.1-2.2h-7.3l-1.3-1.7h-1.9c-.9-2-4.6-4.1-4.6-4.1v-2.5c3,3,6.6,5.3,10.6,6.7h-3.2l.7,1h13.7c-.3-.3-.7-.6-1-1h-8.3c-4.8-1.2-9.2-3.8-12.6-7.4v-1.8c2,2.7,5.7,6.5,11.3,6.5h12.4c.1.3.4.4.7.4.4,0,.8-.4.8-.8,0-.4-.4-.8-.8-.8-.3,0-.5.2-.7.4h-6.9c7.6-6.9,19.2-6.9,26.7,0h-6.9c-.1-.3-.4-.4-.7-.4-.4,0-.8.4-.8.8,0,.4.4.8.8.8.3,0,.5-.2.7-.4h12.4c5.6,0,9.3-3.7,11.3-6.5M59.5,439.6c.3-.5.6-.9.9-1.2v-9.3l-1.2,4.4c.6,2,.7,4.1.3,6.1M49.1,445.3c1.2,0,2.3-.2,3.4-.5-3.3.3-6.6,0-9.7-1.1.7.5,1.3,1,1.9,1.6h4.4ZM49.1,7.6h-4.4c-.6.6-1.2,1.1-1.9,1.7,3.1-1,6.4-1.4,9.7-1.1-1.1-.4-2.3-.5-3.4-.6M59.2,19.6l1.2,4.4v-9.3c-.2-.4-.5-.8-.9-1.2.4,2,.3,4.1-.3,6.1M37.9,3.3c0,0-.1,0-.2,0-.3,0-.6-.3-.6-.6h0c-4.2-3-9.8-3-14,0h0c0,.3-.3.6-.6.6,0,0-.1,0-.2,0-.3.2-.6.5-.9.8h.9c4.4-3.9,11-3.9,15.4,0h.9c-.3-.3-.6-.5-.9-.8M49.8,4.1h3.2l-.7-1h-13.7c.3.3.7.6,1,1h8.4c4.8,1.2,9.2,3.8,12.6,7.4v1.8c-2-2.7-5.7-6.5-11.3-6.5h-12.4c-.1-.3-.4-.4-.7-.4-.4,0-.7.5-.6.9,0,.3.3.5.6.6.3,0,.5-.2.7-.4h6.9c-3.6,3.3-8.4,5.2-13.4,5.2-4.9,0-9.7-1.8-13.4-5.2h6.9c.1.2.4.4.7.4.4,0,.8-.3.8-.8s-.3-.8-.8-.8c-.3,0-.6.2-.7.4h-12.4c-5.6,0-9.3,3.7-11.3,6.5v-1.8c3.4-3.6,7.7-6.2,12.6-7.4h8.4c.3-.3.6-.7,1-1h-13.7l-.7,1h3.2C6.6,5.5,3,7.7,0,10.8v-2.5s3.7-2.2,4.6-4.1h2l1.2-1.7h7.3c2.8-.3,6.4-1,8.1-2.2,0,0,1.2-.7,1.2.5s-2.7,1.4-4.9,1.7h2.7c.1,0,.2-.2.4-.2.1,0,.2,0,.3.1,4.3-3.1,10.2-3.1,14.5,0,.2-.2.5-.2.7,0h2.7c-2.1-.3-4.9-.9-4.9-1.7,0-1.2,1.2-.5,1.2-.5,1.7,1.2,5.2,1.8,8.1,2.2h7.3l1.3,1.7h2c.9,2,4.6,4.2,4.6,4.2v2.5c-3-3-6.6-5.3-10.6-6.7M58.8,19.5c.6-2.3.7-4.7.1-6.9-1-1.2-2.1-2.2-3.3-3-4.9-2.3-12,0-14,.6-3.3,2.2-7.2,3.3-11.2,3.3-4,0-7.9-1.1-11.3-3.3-2.1-.7-9.2-3-14.1-.6-1.2.8-2.4,1.8-3.3,3-.6,2.3-.5,4.7.1,6.9h0c0,.1-1.7,6.3-1.7,6.3v401.3l1.7,6.3h0c-.6,2.3-.7,4.7-.1,7,1,1.2,2.1,2.2,3.3,3,4.9,2.4,12,0,14-.6,6.8-4.4,15.6-4.4,22.5,0,2.1.8,9.2,3,14.1.6,1.2-.8,2.4-1.8,3.3-3,.6-2.3.6-4.7,0-6.9h0c0-.1,1.7-6.4,1.7-6.4V25.9l-1.7-6.3h0ZM.9,13.4c-.3.4-.6.9-.9,1.2v9.3l1.2-4.4c-.6-2-.7-4.1-.3-6.1M7.9,8.2c1.1-.4,2.3-.5,3.4-.6h4.4c.6.6,1.2,1.1,1.9,1.6-3.1-1-6.4-1.4-9.7-1.1"/>
  </g>
  <g id="Layer_2" class="st3">
    <path class="st1" d="M56.4,4.1h-2.4l-.7-1.3h-8.8c-.6-.5-1.4-.8-2.2-.8-1.3,0-2.4.7-3,1.8-2-2.1-5.3-3.6-9-3.6s-7,1.4-9.1,3.6c-.6-1.1-1.8-1.8-3.1-1.8s-1.6.3-2.2.8H7.1l-.7,1.3h-2.4L0,8.1v243.7l4,4h52.4l4-4V8.1l-4-4ZM14.9,4.1h-8l.4-.8h8c-.2.2-.3.5-.5.8ZM38,4.1c-.2-.2-.4-.4-.6-.5-.3-.2-.6-.4-.9-.6-.3-.2-.6-.3-.9-.5-.3-.2-.6-.3-.9-.4-.3-.1-.6-.2-.9-.3-.3,0-.6-.2-.9-.2-.3,0-.6-.1-.9-.2-.3,0-.6,0-.9-.1-.3,0-.6,0-.9,0s-.6,0-.9,0c-.3,0-.6,0-.9.1-.3,0-.6,0-.9.2-.3,0-.6.1-.9.2-.3,0-.6.2-.9.3-.3.1-.6.3-.9.4-.3.2-.6.3-.9.5-.3.2-.6.4-.9.6-.2.2-.4.3-.6.5h-.8c1.9-2,5.1-3.4,8.6-3.4s6.7,1.3,8.6,3.4h-.8ZM45.5,4.1c-.1-.3-.3-.5-.5-.8h8l.4.8h-7.9Z"/>
    <path class="st1" d="M56.4,448.9h-2.4l-.7,1.3h-8.8c-.6.5-1.4.8-2.2.8-1.3,0-2.4-.7-3-1.8-2,2.1-5.3,3.6-9,3.6s-7-1.4-9.1-3.6c-.6,1.1-1.8,1.8-3.1,1.8s-1.6-.3-2.2-.8H7.1l-.7-1.3h-2.4l-4-4v-203.3l4-4h52.4l4,4v203.3l-4,4ZM14.9,448.9h-8l.4.8h8c-.2-.2-.3-.5-.5-.8ZM38,448.9c-.2.2-.4.4-.6.5-.3.2-.6.4-.9.6-.3.2-.6.3-.9.5-.3.2-.6.3-.9.4-.3.1-.6.2-.9.3-.3,0-.6.2-.9.2-.3,0-.6.1-.9.2-.3,0-.6,0-.9.1-.3,0-.6,0-.9,0s-.6,0-.9,0c-.3,0-.6,0-.9-.1-.3,0-.6,0-.9-.2-.3,0-.6-.1-.9-.2-.3,0-.6-.2-.9-.3-.3-.1-.6-.3-.9-.4-.3-.2-.6-.3-.9-.5-.3-.2-.6-.4-.9-.6-.2-.2-.4-.3-.6-.5h-.8c1.9,2,5.1,3.4,8.6,3.4s6.7-1.3,8.6-3.4h-.8ZM45.5,448.9c-.1.3-.3.5-.5.8h8l.4-.8h-7.9Z"/>
  </g>
  <g id="Layer_3">
    <g>
      <path class="st2" d="M20,6.9c0-2,1.5-3.8,3.7-5,1.8-.9,4-1.4,6.4-1.4s4.7.5,6.4,1.4c2.3,1.2,3.7,3,3.7,5"/>
      <polyline class="st2" points="38.1 2.8 52.5 2.8 56.4 6.2"/>
      <polyline class="st2" points="4 6.1 7.9 2.8 22.3 2.8"/>
      <path class="st2" d="M20,446.5c0,2,1.5,3.8,3.7,5,1.8.9,4,1.4,6.4,1.4s4.7-.5,6.4-1.4c2.3-1.2,3.7-3,3.7-5"/>
      <polyline class="st2" points="38.1 450.6 52.5 450.6 56.4 447.2"/>
      <polyline class="st2" points="4 447.3 7.9 450.6 22.3 450.6"/>
      <g>
        <path class="st0" d="M37.7,441.5l-1,1v-1.3c.2,0,.5.1.7.2,0,0,0,0,0,0,0,0,.2,0,.2,0Z"/>
        <path class="st0" d="M40.8,442.7c.3.2.6.3.8.5v1.4c0,0-1.6.7-1.6.7l.8-2.5Z"/>
        <path class="st0" d="M39.6,442.1c.3.1.5.2.8.4l-.9,3.1-2.5,1.2,2.7-4.6Z"/>
        <path class="st0" d="M26.7,442.1h-.7l.5-1.4c.2,0,.3,0,.5,0l-.3,1.5Z"/>
        <path class="st0" d="M28.5,447.2h-1l.8-6.7s0,0,.1,0v6.8Z"/>
        <path class="st0" d="M42.1,443.6c.2.2.4.3.5.5l-.6.3v-.8Z"/>
        <path class="st0" d="M27.4,444.6h-.7l.8-4c.1,0,.2,0,.4,0l-.5,4.1Z"/>
        <polygon class="st0" points="58.1 436 58.1 443.5 56.8 444.5 56.8 439.8 56.8 436 58.1 436"/>
        <path class="st0" d="M56,446h-3.3v-3.3h3.3v3.3ZM53.4,443.3v2.1h2.1v-2.1h-2.1Z"/>
        <rect class="st0" x="54.2" y="444.1" width=".6" height=".6"/>
        <path class="st0" d="M39.1,441.9l-2.4,4v-2.8l1.5-1.5c.3.1.6.2.9.3Z"/>
        <path class="st0" d="M3.6,434v1.5h-1.8v8.2s1.8,1.4,1.8,1.4v1.6h1.5l1.5,2h8.2s0-2,0-2h1.8v-.4c0-.5.2-1,.5-1.5,0,0,0-.1.1-.2l7.2,3.3v-6.9c.5-.1,1.1-.2,1.6-.3l-.5,1.5.2.3h.9l-.4,2.2.2.3h.9l-.3,2.4.2.3h1.2v3.3l.2.2h2.9l.2-.2v-3.3h1.2l.2-.3-.3-2.4h.9l.2-.3-.4-2.2h.9l.2-.3-.5-1.5c.5,0,1,.2,1.5.3v6.9l7.2-3.3c.4.5.6,1.1.6,1.7v.4h1.8v2h8.2s1.5-2,1.5-2h1.5v-1.6l1.9-1.4v-8.2h-1.9v-1.5l3.6-3.4v14.7l-4,4h-18.4c-2,1.8-4.7,2.9-7.8,2.9s-5.8-1.1-7.8-2.9H4l-4-4v-14.7l3.6,3.4Z"/>
        <path class="st0" d="M55.2,440.3c.3,0,.6,0,.9,0v1.8h-3.8v3.8h-1.8c0-.3,0-.6,0-.9,0-2.6,2.1-4.8,4.8-4.8Z"/>
        <polygon class="st0" points="46.1 448.2 46.1 446.7 49.9 446.7 54.7 446.7 53.6 448.2 46.1 448.2"/>
        <path class="st0" d="M31.4,440.5v10.4h-2.4v-10.4c.4,0,.8,0,1.2,0s.8,0,1.2,0Z"/>
        <path class="st0" d="M7.6,446h-3.3v-3.3h3.3v3.3ZM7,443.3h-2.1v2.1h2.1v-2.1Z"/>
        <rect class="st0" x="5.6" y="444.1" width=".6" height=".6"/>
        <path class="st0" d="M32.8,447.2h-1v-6.8s0,0,.1,0l.8,6.7Z"/>
        <path class="st0" d="M8.1,442.2h-3.8v-1.8c.3,0,.6,0,.9,0,2.6,0,4.8,2.1,4.8,4.8s0,.6,0,.9h-1.8v-3.8Z"/>
        <path class="st0" d="M60.4,23.8v405.7l-4.4,4.2v5.9c-.3,0-.6,0-.9,0-3,0-5.5,2.5-5.5,5.5s0,.6,0,.9h-5.2c-.4-3.6-6.6-6.3-14.3-6.3s-2,0-3,.1c-1.1,0-2.2.3-3.3.5,0,0-.1,0-.2,0-.6.1-1.2.3-1.8.5-.5.1-.9.3-1.3.5-.4.2-.8.4-1.2.5-.4.2-.8.5-1.2.7-.6.4-1.1.9-1.5,1.3h0l-.3.4h0c0,0,0,0,0,.1-.3.5-.5,1-.5,1.5h-5.2c0-.3,0-.6,0-.9,0-3-2.5-5.5-5.5-5.5s-.6,0-.9,0v-5.9l-4.3-4.1V23.8l4.3-4.1v-5.9c.3,0,.6,0,.9,0,3.1,0,5.5-2.5,5.5-5.5s0-.6,0-.9h5.2c0,.5.2,1,.5,1.5,0,0,0,0,0,.1h0s.3.4.3.4h0c.4.5.8.9,1.5,1.3.4.3.8.5,1.2.7.4.2.8.4,1.2.5.4.2.8.3,1.3.5.5.2,1.1.3,1.8.5,0,0,.2,0,.2,0,1.1.2,2.2.4,3.3.5,1,.1,2,.1,3,.1,7.8,0,13.9-2.7,14.3-6.3h5.2c0,.3,0,.6,0,.9,0,3,2.5,5.5,5.5,5.5s.6,0,.9,0v5.9l4.4,4.1Z"/>
        <polygon class="st0" points="2.3 443.5 2.3 436 3.6 436 3.6 439.8 3.6 439.8 3.6 444.5 2.3 443.5"/>
        <polygon class="st0" points="14.3 448.2 6.8 448.2 5.7 446.7 10.5 446.7 14.3 446.7 14.3 448.2"/>
        <path class="st0" d="M23.6,443.2v2.8l-2.4-4c.3-.1.5-.2.9-.3l1.5,1.5Z"/>
        <path class="st0" d="M23.4,446.7l-2.5-1.2-.9-3.1c.2-.1.5-.2.8-.4l2.7,4.6Z"/>
        <path class="st0" d="M34.3,442.1h-.7l-.3-1.5c.2,0,.3,0,.5,0l.5,1.4Z"/>
        <path class="st0" d="M33.7,444.6h-.7l-.5-4.1c.1,0,.2,0,.4,0l.8,4Z"/>
        <path class="st0" d="M22.6,441.5c.1,0,.2,0,.3,0,0,0,.2,0,.3,0,.1,0,.3,0,.4-.1v1.3l-1-1Z"/>
        <path class="st0" d="M20.3,445.3l-1.5-.7v-1.4c.2-.2.5-.3.7-.5l.8,2.5Z"/>
        <path class="st0" d="M17.8,443.9c0,0,.1,0,.2-.1,0,0,.2-.1.2-.2v.7s-.5-.3-.5-.3c0,0,0-.1.2-.2Z"/>
      </g>
      <g>
        <path class="st0" d="M37.7,11.9l-1-1v1.3c.2,0,.5-.1.7-.2,0,0,0,0,0,0,0,0,.2,0,.2,0Z"/>
        <path class="st0" d="M40.8,10.7c.3-.2.6-.3.8-.5v-1.4c0,0-1.6-.7-1.6-.7l.8,2.5Z"/>
        <path class="st0" d="M39.6,11.3c.3-.1.5-.2.8-.4l-.9-3.1-2.5-1.2,2.7,4.6Z"/>
        <path class="st0" d="M26.7,11.3h-.7l.5,1.4c.2,0,.3,0,.5,0l-.3-1.5Z"/>
        <path class="st0" d="M28.5,6.2h-1l.8,6.7s0,0,.1,0v-6.8Z"/>
        <path class="st0" d="M42.1,9.8c.2-.2.4-.3.5-.5l-.6-.3v.8Z"/>
        <path class="st0" d="M27.4,8.8h-.7l.8,4c.1,0,.2,0,.4,0l-.5-4.1Z"/>
        <polygon class="st0" points="58.1 17.4 58.1 9.9 56.8 8.9 56.8 13.6 56.8 17.4 58.1 17.4"/>
        <path class="st0" d="M56,7.4h-3.3v3.3h3.3v-3.3ZM53.4,10.1v-2.1h2.1v2.1h-2.1Z"/>
        <rect class="st0" x="54.2" y="8.7" width=".6" height=".6"/>
        <path class="st0" d="M39.1,11.5l-2.4-4v2.8l1.5,1.5c.3-.1.6-.2.9-.3Z"/>
        <path class="st0" d="M3.6,19.4v-1.5h-1.8v-8.2s1.8-1.4,1.8-1.4v-1.6h1.5l1.5-2h8.2s0,2,0,2h1.8v.4c0,.5.2,1,.5,1.5,0,0,0,.1.1.2l7.2-3.3v6.9c.5.1,1.1.2,1.6.3l-.5-1.5.2-.3h.9l-.4-2.2.2-.3h.9l-.3-2.4.2-.3h1.2v-3.3l.2-.2h2.9l.2.2v3.3h1.2l.2.3-.3,2.4h.9l.2.3-.4,2.2h.9l.2.3-.5,1.5c.5,0,1-.2,1.5-.3v-6.9l7.2,3.3c.4-.5.6-1.1.6-1.7v-.4h1.8v-2h8.2s1.5,2,1.5,2h1.5v1.6l1.9,1.4v8.2h-1.9v1.5l3.6,3.4v-14.7l-4-4h-18.4c-2-1.8-4.7-2.9-7.8-2.9s-5.8,1.1-7.8,2.9H4L0,8.1v14.7l3.6-3.4Z"/>
        <path class="st0" d="M55.2,13.1c.3,0,.6,0,.9,0v-1.8h-3.8v-3.8h-1.8c0,.3,0,.6,0,.9,0,2.6,2.1,4.8,4.8,4.8Z"/>
        <polygon class="st0" points="46.1 5.2 46.1 6.7 49.9 6.7 54.7 6.7 53.6 5.2 46.1 5.2"/>
        <path class="st0" d="M31.4,12.9V2.6h-2.4v10.4c.4,0,.8,0,1.2,0s.8,0,1.2,0Z"/>
        <path class="st0" d="M7.6,7.4h-3.3v3.3h3.3v-3.3ZM7,10.1h-2.1v-2.1h2.1v2.1Z"/>
        <rect class="st0" x="5.6" y="8.7" width=".6" height=".6"/>
        <path class="st0" d="M32.8,6.2h-1v6.8s0,0,.1,0l.8-6.7Z"/>
        <path class="st0" d="M8.1,11.2h-3.8v1.8c.3,0,.6,0,.9,0,2.6,0,4.8-2.1,4.8-4.8s0-.6,0-.9h-1.8v3.8Z"/>
        <polygon class="st0" points="2.3 9.9 2.3 17.4 3.6 17.4 3.6 13.6 3.6 13.6 3.6 8.9 2.3 9.9"/>
        <polygon class="st0" points="14.3 5.2 6.8 5.2 5.7 6.7 10.5 6.7 14.3 6.7 14.3 5.2"/>
        <path class="st0" d="M23.6,10.2v-2.8l-2.4,4c.3.1.5.2.9.3l1.5-1.5Z"/>
        <path class="st0" d="M23.4,6.7l-2.5,1.2-.9,3.1c.2.1.5.2.8.4l2.7-4.6Z"/>
        <path class="st0" d="M34.3,11.3h-.7l-.3,1.5c.2,0,.3,0,.5,0l.5-1.4Z"/>
        <path class="st0" d="M33.7,8.8h-.7l-.5,4.1c.1,0,.2,0,.4,0l.8-4Z"/>
        <path class="st0" d="M22.6,11.9c.1,0,.2,0,.3,0,0,0,.2,0,.3,0,.1,0,.3,0,.4.1v-1.3l-1,1Z"/>
        <path class="st0" d="M20.3,8.1l-1.5.7v1.4c.2.2.5.3.7.5l.8-2.5Z"/>
        <path class="st0" d="M17.8,9.5c0,0,.1,0,.2.1,0,0,.2.1.2.2v-.7s-.5.3-.5.3c0,0,0,.1.2.2Z"/>
      </g>
    </g>
  </g>
  <g id="Layer_4" class="st3">
    <g>
      <g>
        <path class="st1" d="M18.1,2.6l-2.9,2.8h1.2l1.7-1.6,2,1.9-2,1.9-1.2-1.2c.1.5.3,1,.6,1.5.2.3.4.5.6.8l3.1-3-3.1-3Z"/>
        <path class="st1" d="M33.1,1.6l-1.7,10.2s0,0,.1,0c0,0,.1,0,.2,0l2.5-9.9c-.1,0-.2,0-.3-.1-.3,0-.5-.1-.8-.2Z"/>
        <path class="st1" d="M34.4,1.9l-2.5,9.8s0,0,0,0c0,0,0,0,.1,0,0,0,0,0,.1,0l3.2-9.3c-.2-.1-.4-.2-.7-.3-.1,0-.3,0-.4-.1Z"/>
        <path class="st1" d="M35.7,2.5s0,0,0,0l-3.1,9.1c0,0,.1,0,.2,0,0,0,.1,0,.2,0l3.7-8.6s0,0,0,0c-.3-.2-.6-.3-.9-.5Z"/>
        <path class="st1" d="M4.6,5.4h10.3l3.2-3.2,3.5,3.4-.4.4-.8.8c0,1.4,1.1,2.6,3,3.6l.4.2c.1,0,.2,0,.3.1.3.1.6.2.9.3.3,0,.5.2.8.2,0,0,.1,0,.2,0,.2,0,.3,0,.5.1l-3.9-7.3s0,0,0,0h-.8c1.9-2,5.1-3.4,8.6-3.4s6.7,1.3,8.6,3.4h-.8s0,0-.1-.1l-4,7.4h.1c.1,0,.3,0,.4-.1.1,0,.2,0,.3,0,.2,0,.5-.1.7-.2.4-.1.8-.3,1.1-.4h0c0,0,.2,0,.2-.1,0,0,.2,0,.3-.1,1.9-1,2.9-2.2,2.9-3.5l-1.2-1.1,3.5-3.4,3.2,3.2h10.4c-.2-.4-.3-.8-.4-1.3h-1.5l-.7-1.3h-8.8c-.6-.5-1.4-.8-2.2-.8-1.3,0-2.4.7-3,1.8-2-2.1-5.3-3.6-9-3.6s-7,1.4-9.1,3.6c-.6-1.1-1.8-1.8-3.1-1.8s-1.6.3-2.2.8H7.1l-.7,1.3h-1.4c0,.4-.2.9-.4,1.3ZM53,3.4l.4.8h-7.9c-.1-.3-.3-.5-.5-.8h8ZM7.4,3.4h8c-.2.2-.3.5-.5.8h-8l.4-.8Z"/>
        <path class="st1" d="M37.4,3.6c-.2-.2-.4-.3-.6-.4l-3.7,8.4s0,0,0,0c0,0,.1,0,.2,0,0,0,.1,0,.2,0l4.1-7.6c0,0-.2-.2-.3-.2Z"/>
        <path class="st1" d="M21.8,11.1c.7.3,1.5.6,2.3.8.4.1.8.2,1.2.3.3,0,.6.1.9.2.2,0,.4,0,.7,0,.2,0,.4,0,.5,0,0,0,.2,0,.2,0h.2c.1,0,.3,0,.4,0,0,0,.2,0,.3,0,.1,0,.2,0,.3,0,.2,0,.3,0,.4,0,0,0,0,0,.1,0h.3c.1,0,.2,0,.3,0h.5c0,0,.2,0,.2,0,.1,0,.2,0,.3,0,.1,0,.2,0,.3,0,.1,0,.2,0,.3,0,0,0,.1,0,.2,0,0,0,.1,0,.2,0,.1,0,.3,0,.4,0,.1,0,.2,0,.4,0h.4c.2,0,.4,0,.6-.1.2,0,.5,0,.7,0,.3,0,.6-.1.9-.2.4,0,.9-.2,1.3-.3.9-.3,1.7-.5,2.4-.9.3-.1.5-.2.8-.4,1-.5,1.8-1.1,2.4-1.7l-1.9-1.8c-.1,1.3-1.2,2.6-3,3.5-.1,0-.2.1-.3.1,0,0-.2,0-.2.1h0c-.3.2-.7.3-1.1.4-.2,0-.5.1-.7.2,0,0-.2,0-.3,0-.1,0-.3,0-.4.1h-.2s0,0-.1,0c0,0,0,0-.1,0,0,0-.1,0-.2,0,0,0-.1,0-.2,0,0,0-.2,0-.3,0h0c0,0-.1,0-.2,0-.1,0-.3,0-.4,0,0,0-.1,0-.2,0,0,0,0,0-.2,0,0,0-.2,0-.2,0h0c0,0-.1,0-.2,0-.1,0-.2,0-.3,0,0,0-.2,0-.2,0,0,0-.1,0-.2,0h-.2s-.1,0-.2,0h-.4c0,0-.1,0-.2,0h-.4c0,0-.2,0-.2,0h0c0,0-.1,0-.2,0,0,0,0,0-.1,0,0,0-.1,0-.2,0,0,0,0,0,0,0,0,0,0,0,0,0,0,0,0,0,0,0h-.3s0,0,0,0h0c-.1,0-.2,0-.3,0,0,0-.2,0-.3,0,0,0,0,0-.1,0-.2,0-.4,0-.5,0,0,0,0,0,0,0,0,0,0,0,0,0-.3,0-.5-.1-.7-.2,0,0-.1,0-.2,0-.3,0-.6-.2-.8-.2-.3,0-.6-.2-.9-.3-.1,0-.2,0-.3-.1l-.4-.2c-1.9-.9-3-2.2-3.1-3.6l-1.9,1.8c.7.7,1.5,1.3,2.6,1.8.3.2.6.3.9.4Z"/>
        <polygon class="st1" points="19.4 5.7 18.1 4.5 16.9 5.7 18.1 7 19.4 5.7"/>
        <path class="st1" d="M59.6,11.3v-.5c-2.9-.3-5.3-2.3-6.1-4.9h-.5c.9,2.8,3.5,5,6.6,5.4Z"/>
        <path class="st1" d="M50.5,5.9h-1c1,4.7,5.1,8.2,10.1,8.7v-1c-4.4-.5-8.1-3.6-9.1-7.7Z"/>
        <path class="st1" d="M59.6,13.2v-.8c-3.7-.4-6.7-3-7.7-6.4h-.9c1,3.8,4.4,6.8,8.6,7.2Z"/>
        <path class="st1" d="M56.2,6h-2.1c.8,2.3,3,4.1,5.5,4.4v-1.7c-1.5-.4-2.7-1.4-3.4-2.7Z"/>
        <path class="st1" d="M6.5,5.9h-2.1c-.7,1.3-2,2.3-3.4,2.7v1.7c2.6-.3,4.8-2.1,5.6-4.4Z"/>
        <polygon class="st1" points="41 5.7 42.3 7 43.5 5.7 42.3 4.5 41 5.7"/>
        <path class="st1" d="M31.7,1.3l-.9,10.4c0,0,.1,0,.2,0,0,0,0,0,.1,0l1.7-10.2c-.3,0-.5-.1-.8-.1-.1,0-.2,0-.3,0Z"/>
        <path class="st1" d="M39.2,5.6l3.1,3c.2-.2.4-.5.6-.7.3-.5.6-1,.7-1.5l-1.2,1.2-2-1.9,2-1.9,1.7,1.6h1.2s-2.9-2.8-2.9-2.8l-3.1,3Z"/>
        <path class="st1" d="M9.5,5.9h-.9c-.9,3.4-4,6-7.7,6.4v.8c4.1-.5,7.6-3.4,8.6-7.2Z"/>
        <path class="st1" d="M.9,10.8v.5c3.1-.4,5.7-2.6,6.6-5.4h-.5c-.8,2.6-3.2,4.6-6.1,4.9Z"/>
        <path class="st1" d="M11.1,5.9h-1c-1,4.1-4.7,7.3-9.1,7.7v1c5-.5,9.1-4,10.1-8.7Z"/>
        <path class="st1" d="M27.5,1.5h0l1.7,10.2c0,0,.1,0,.2,0h0l-.9-10.4c0,0-.2,0-.2,0-.3,0-.6,0-.9.2Z"/>
        <path class="st1" d="M28.9,1.3l.9,10.4h0c0,0,.1,0,.2,0h0V1.2c-.2,0-.5,0-.7,0-.1,0-.3,0-.4,0Z"/>
        <path class="st1" d="M30.3,1.2v10.5h.1c0,0,.1,0,.2,0l.9-10.5c-.1,0-.2,0-.3,0-.3,0-.6,0-.8,0Z"/>
        <path class="st1" d="M23.8,3.1l3.7,8.5c0,0,.2,0,.2,0,0,0,0,0,.1,0l-3.1-9.1c-.3.1-.5.3-.8.4,0,0-.1,0-.2.1Z"/>
        <path class="st1" d="M26.2,1.9l2.5,9.8c0,0,.1,0,.2,0,0,0,0,0,.1,0,0,0,0,0,0,0l-1.7-10.1c-.2,0-.4.1-.7.2-.1,0-.3,0-.4.1Z"/>
        <path class="st1" d="M22.7,3.9l4.1,7.6c.1,0,.3,0,.4,0l-3.6-8.3c-.2.1-.3.2-.5.4-.1,0-.2.2-.4.3Z"/>
        <path class="st1" d="M25,2.4l3.2,9.2h.2s.2,0,.2,0l-2.5-9.7c0,0-.2,0-.3,0-.3.1-.5.2-.8.4Z"/>
      </g>
      <g>
        <path class="st1" d="M28.5,451.6c0,0,.1,0,.2,0l.9-10.5h0c0,0-.1,0-.2,0l-1.7,10.3s0,0,0,0c.3,0,.6.1.9.2Z"/>
        <path class="st1" d="M27.3,451.4l1.7-10.2s0,0,0,0c0,0,0,0-.1,0,0,0-.1,0-.2,0l-2.5,9.9c.1,0,.3.1.4.1.2,0,.4.1.6.2Z"/>
        <path class="st1" d="M26,451l2.5-9.8h-.2s-.2,0-.2,0l-3.2,9.3c.3.1.5.2.8.4,0,0,.2,0,.2,0Z"/>
        <path class="st1" d="M32.8,451.5l-1.7-10.3s0,0-.1,0c0,0-.1,0-.2,0l.9,10.5c.1,0,.2,0,.3,0,.3,0,.5,0,.8-.1Z"/>
        <path class="st1" d="M24.7,450.4l3.1-9.1s0,0-.1,0c0,0-.2,0-.2,0l-3.7,8.5c0,0,.1,0,.2.1.2.1.5.3.8.4Z"/>
        <path class="st1" d="M30.1,451.7v-10.6h0c0,0-.1,0-.2,0h0l-.9,10.5c.1,0,.3,0,.4,0,.2,0,.5,0,.7,0Z"/>
        <path class="st1" d="M34.2,451.1l-2.5-9.9c0,0-.1,0-.2,0,0,0,0,0-.1,0l1.7,10.2c.3,0,.5-.1.8-.2.1,0,.2,0,.3-.1Z"/>
        <path class="st1" d="M31.5,451.7l-.9-10.5c0,0-.1,0-.2,0h-.1v10.6c.3,0,.6,0,.8,0,.1,0,.2,0,.3,0Z"/>
        <path class="st1" d="M49.4,447h1c1-4.1,4.7-7.3,9.1-7.7v-1c-5,.5-9.1,4-10.1,8.7Z"/>
        <path class="st1" d="M59.6,440.6v-.8c-4.1.5-7.6,3.4-8.6,7.2h.9c.9-3.4,4-6,7.7-6.4Z"/>
        <path class="st1" d="M23.1,449.4c.2.1.3.2.5.3l3.7-8.3c-.1,0-.3,0-.4,0l-4.1,7.6c.1.1.2.2.4.3Z"/>
        <path class="st1" d="M60.4,22.5v408l-.8,1.6v5.8c-5.3.5-9.6,4.2-10.6,9.2h-4.8c0-.8-.3-1.6-.8-2.3-.7-1-1.9-2-3.4-2.8-.2-.1-.5-.2-.8-.4-.8-.3-1.6-.6-2.5-.9-.4-.1-.8-.2-1.3-.3-.3,0-.6-.1-.9-.2-.2,0-.4,0-.7-.1-.2,0-.3,0-.5,0h-.5c-.1,0-.3,0-.4,0-.1,0-.2,0-.3,0,0,0-.2,0-.2,0h-.1c-.1,0-.2,0-.3,0s-.2,0-.3,0h-.3c0,0-.2,0-.3,0h-.5c0,0-.2,0-.3,0h-.4c-.1,0-.3,0-.5,0,0,0-.2,0-.3,0-.1,0-.2,0-.3,0-.2,0-.3,0-.4,0h-.3c0,0-.2,0-.2,0-.2,0-.4,0-.5,0-.2,0-.5,0-.7,0-.3,0-.6.1-.9.2-.4,0-.9.2-1.3.3-.8.2-1.6.5-2.4.8-.3.1-.7.3-1,.4-1.6.8-2.8,1.8-3.5,2.9-.5.7-.8,1.5-.8,2.3h-4.7c-1-5-5.4-8.7-10.7-9.2v-5.8s-.9-1.8-.9-1.8V22.7l1-1.8v-5.8c5.3-.5,9.6-4.2,10.6-9.2h4.7c0,.8.3,1.5.8,2.2.7,1.1,2,2.1,3.5,2.9.3.2.6.3,1,.4.7.3,1.5.6,2.4.8.4,0,.8.2,1.3.3.3,0,.6.1.9.2.2,0,.4,0,.7.1.2,0,.4,0,.5,0,0,0,.2,0,.2,0h.3c.1,0,.2,0,.4,0,.1,0,.2,0,.3,0s.2,0,.3,0c.2,0,.3,0,.5,0,0,0,.1,0,.2,0h.2c0,0,.2,0,.3,0h.5c0,0,.2,0,.3,0,0,0,.2,0,.3,0,.1,0,.2,0,.3,0,.1,0,.2,0,.3,0h.1c0,0,.1,0,.2,0,0,0,.2,0,.3,0,.1,0,.3,0,.4,0h.5c.2,0,.4,0,.5-.1.2,0,.5,0,.7,0,.3,0,.6-.1.9-.2.5,0,.9-.2,1.3-.3.9-.3,1.7-.5,2.5-.9.3-.1.5-.2.8-.4,1.5-.8,2.6-1.7,3.4-2.8.5-.8.8-1.5.8-2.3h4.8c1,5,5.4,8.7,10.7,9.2v5.8s.8,1.5.8,1.5Z"/>
        <path class="st1" d="M59.6,444.3v-1.7c-2.6.3-4.7,2-5.5,4.4h2.1c.7-1.3,2-2.3,3.4-2.7Z"/>
        <path class="st1" d="M59.6,442.1v-.5c-3.1.4-5.7,2.5-6.6,5.4h.5c.8-2.6,3.2-4.6,6.1-4.9Z"/>
        <path class="st1" d="M.9,441.6v.5c2.9.3,5.3,2.3,6.1,4.9h.5c-.9-2.9-3.5-5-6.6-5.4Z"/>
        <path class="st1" d="M.9,442.6v1.7c1.5.4,2.7,1.4,3.4,2.7h2.1c-.8-2.3-3-4.1-5.6-4.4Z"/>
        <path class="st1" d="M55.9,447.5h-10.4s-3.2,3.2-3.2,3.2l-3.5-3.4,1.2-1.1c0-1.3-1-2.6-2.9-3.5,0,0-.2,0-.3-.1,0,0-.2,0-.2,0h0c-.3-.2-.7-.3-1.1-.4-.2,0-.4-.1-.7-.2,0,0-.2,0-.3,0-.1,0-.3,0-.4-.1h-.1s4,7.4,4,7.4c0,0,0,0,.1-.1h.8c-1.9,2-5.1,3.4-8.6,3.4s-6.7-1.3-8.6-3.4h.8s0,0,0,0l4-7.4c-.2,0-.4,0-.5.1,0,0-.1,0-.2,0-.3,0-.5.2-.8.2-.3,0-.6.2-.9.3-.1,0-.2,0-.3.1l-.4.2c-1.9.9-3,2.2-3,3.6l.8.8.4.4-3.5,3.4-3.2-3.2H4.6c.2.4.3.9.4,1.4h1.4l.7,1.3h8.8c.6.5,1.4.8,2.2.8,1.3,0,2.5-.7,3.1-1.8,2,2.2,5.3,3.6,9.1,3.6s7-1.4,9-3.6c.6,1.1,1.7,1.8,3,1.8s1.6-.3,2.2-.8h8.8l.7-1.3h1.5c0-.5.2-.9.4-1.4ZM7.4,449.6l-.4-.8h8c.1.3.3.5.5.8H7.4ZM53,449.6h-8c.2-.2.3-.5.5-.8h7.9l-.4.8Z"/>
        <path class="st1" d="M.9,439.8v.8c3.7.4,6.8,3,7.7,6.4h.9c-1-3.9-4.4-6.8-8.6-7.2Z"/>
        <path class="st1" d="M.9,438.3v1c4.4.5,8.1,3.6,9.1,7.7h1c-1-4.7-5.1-8.2-10.1-8.7Z"/>
        <path class="st1" d="M42.3,450.3l2.9-2.8h-1.2s-1.7,1.6-1.7,1.6l-2-1.9,2-1.9,1.2,1.2c-.1-.5-.3-1-.7-1.5-.2-.2-.4-.5-.6-.7l-3.1,3,3.1,3Z"/>
        <path class="st1" d="M37.7,449.1l-4.1-7.7c0,0-.1,0-.2,0,0,0-.1,0-.2,0,0,0,0,0,0,0l3.7,8.4c.2-.1.4-.3.6-.4.1,0,.2-.2.3-.3Z"/>
        <path class="st1" d="M36.6,450l-3.8-8.6s0,0-.2,0c0,0-.1,0-.2,0l3.2,9.2c.3-.1.6-.3.9-.5,0,0,0,0,0,0Z"/>
        <path class="st1" d="M34.5,441.4c.1,0,.2,0,.3,0,.2,0,.5.1.7.2.4.1.8.3,1.1.4h0c0,0,.2,0,.2.1,0,0,.2,0,.3.1,1.9.9,2.9,2.2,3,3.5l1.9-1.8c-.6-.6-1.5-1.2-2.4-1.7-.2-.1-.5-.2-.8-.4-.7-.3-1.5-.6-2.4-.9-.4-.1-.8-.2-1.3-.3-.3,0-.6-.1-.9-.2-.2,0-.4,0-.7,0-.2,0-.3,0-.6,0h-.4c-.1,0-.3,0-.4,0-.1,0-.2,0-.4,0,0,0-.1,0-.2,0,0,0-.1,0-.2,0,0,0-.2,0-.3,0,0,0-.2,0-.3,0,0,0-.2,0-.3,0,0,0-.2,0-.2,0h-.5c0,0-.2,0-.3,0h-.3s0,0-.1,0c-.1,0-.3,0-.4,0,0,0-.2,0-.3,0-.1,0-.2,0-.3,0-.1,0-.3,0-.4,0h-.2c0,0-.2,0-.2,0-.2,0-.4,0-.5,0-.2,0-.4,0-.7,0-.3,0-.6,0-.9.2-.4,0-.8.2-1.2.3-.8.2-1.6.5-2.3.8-.3.1-.6.3-.9.4-1,.5-1.9,1.1-2.6,1.8l1.9,1.8c.1-1.4,1.2-2.6,3.1-3.6l.4-.2c.1,0,.2,0,.3-.1.3-.1.6-.2.9-.3.3,0,.5-.2.8-.2,0,0,.2,0,.2,0,.2,0,.4-.1.7-.2,0,0,0,0,0,0,0,0,0,0,0,0,.2,0,.3,0,.5,0,0,0,.1,0,.1,0,.1,0,.2,0,.3,0,0,0,.2,0,.3,0h0s0,0,0,0h.3s0,0,0,0c0,0,0,0,0,0,0,0,0,0,0,0,0,0,.1,0,.2,0,0,0,0,0,.1,0,0,0,.1,0,.2,0h0c0,0,.2,0,.2,0h.4c0,0,.1,0,.2,0h.4c0,0,.1,0,.2,0h.2c0,0,.2,0,.2,0,0,0,.2,0,.2,0,0,0,.1,0,.3,0,0,0,.1,0,.2,0h0c0,0,.1,0,.2,0,0,0,.1,0,.2,0,0,0,.1,0,.2,0,.1,0,.3,0,.4,0,0,0,.1,0,.2,0h0c0,0,.2,0,.3,0,0,0,.1,0,.2,0,0,0,.2,0,.2,0,0,0,0,0,.1,0,0,0,0,0,.1,0h.2c.2,0,.3.1.4.1Z"/>
        <polygon class="st1" points="19.4 447.2 18.1 446 16.9 447.2 18.1 448.4 19.4 447.2"/>
        <path class="st1" d="M35.5,450.6l-3.2-9.3s0,0-.1,0c0,0-.1,0-.1,0,0,0,0,0,0,0l2.5,9.8c.1,0,.2,0,.4-.1.2,0,.5-.2.7-.3Z"/>
        <path class="st1" d="M21.2,447.3l-3.1-3c-.2.2-.4.5-.6.8-.3.5-.5,1-.6,1.5l1.2-1.2,2,1.9-2,1.9-1.7-1.6h-1.2l2.9,2.8,3.1-3Z"/>
        <polygon class="st1" points="41 447.2 42.3 448.4 43.5 447.2 42.3 446 41 447.2"/>
      </g>
    </g>
  </g>
</svg>