<?xml version="1.0" encoding="UTF-8"?>
<svg xmlns="http://www.w3.org/2000/svg" version="1.1" xmlns:xlink="http://www.w3.org/1999/xlink" viewBox="0 0 61 453">
  <!-- Generator: Adobe Illustrator 29.0.1, SVG Export Plug-In . SVG Version: 2.1.0 Build 192)  -->
  <defs>
    <style>
      .st0, .st1, .st2, .st3, .st4, .st5, .st6, .st7, .st8, .st9, .st10 {
        stroke-miterlimit: 10;
      }

      .st0, .st3, .st4 {
        stroke: #fff;
      }

      .st0, .st4, .st11, .st5, .st6, .st7, .st9, .st10 {
        fill: none;
      }

      .st0, .st6, .st9 {
        stroke-width: .2px;
      }

      .st1, .st12, .st2, .st8 {
        fill: #333;
      }

      .st1, .st2, .st7, .st10 {
        stroke-width: .2px;
      }

      .st1, .st10 {
        stroke: #333;
      }

      .st2, .st7, .st8 {
        stroke: #231f20;
      }

      .st3 {
        fill: #fff;
      }

      .st4, .st5, .st8 {
        stroke-width: .5px;
      }

      .st5, .st9 {
        stroke: #333;
      }

      .st6 {
        stroke: #1f1f1f;
      }

      .st13 {
        fill: #333;
      }

      .st14 {
        display: none;
      }

      .st15 {
        fill: #353535;
      }

      .st16 {
        opacity: .7;
      }

      .st17 {
        clip-path: url(#clippath);
      }
    </style>
    <clipPath id="clippath">
      <rect class="st11" y="0" width="60.4" height="453"/>
    </clipPath>
  </defs>
  <g id="Layer_1" class="st14">
    <g id="Layer_11" class="st14">
      <g class="st17">
        <path class="st15" d="M15.7,445.4c.6-.6,1.2-1.1,1.9-1.6-3.1,1-6.4,1.4-9.7,1.1,1.1.4,2.3.5,3.4.5,0,0,4.4,0,4.4,0ZM1.2,433.4l-1.2-4.4v9.3c.2.4.5.8.9,1.2-.4-2-.3-4.1.3-6.1ZM38.8,448.9h-.9c-2.1,1.9-4.8,2.9-7.7,2.9s-5.6-1-7.7-2.9h-.9c.3.3.6.5.9.8h.4s.1,0,.2.1c0,0,0,.1.1.2v.2c2,1.5,4.5,2.2,7,2.2s5-.8,7-2.2v-.4h.2c0-.1.4-.1.4-.1.3-.2.6-.5.9-.8h0ZM60.4,439.6v1.8c-3.4,3.6-7.7,6.2-12.6,7.4h-8.4c-.3.4-.6.7-1,1h13.7l.7-1h-3.2c4-1.3,7.7-3.6,10.6-6.7v2.5s-3.7,2.2-4.6,4.1h-2l-1.3,1.7h-7.3c-2.8.4-6.4,1-8.1,2.2,0,0-1.2.7-1.2-.5s2.7-1.3,4.9-1.7h-2.9c0,.1-.2.1-.2.1,0,0-.2,0-.3-.1-2.1,1.5-4.7,2.3-7.2,2.3s-5.1-.8-7.2-2.3c0,0-.2.1-.3.1h-.2s-.1,0-.2-.1h-2.7c2.1.4,4.9,1,4.9,1.7,0,1.2-1.2.5-1.2.5-1.7-1.2-5.2-1.8-8.1-2.2h-7.3l-1.3-1.7h-2c-.9-2-4.6-4.1-4.6-4.1v-2.5c3,3,6.6,5.3,10.6,6.7h-3.2l.7,1h13.7c-.3-.3-.7-.6-1-1h-8.3c-4.8-1.2-9.2-3.8-12.6-7.4v-1.8c2,2.7,5.7,6.5,11.3,6.5h12.4c0,.1.2.2.3.3.1,0,.3.1.4.1.2,0,.4,0,.6-.2s.2-.3.2-.6,0-.4-.2-.6-.3-.2-.6-.2-.3,0-.4.1c-.1,0-.2.2-.3.3h-6.9c3.6-3.3,8.4-5.2,13.4-5.2s9.7,1.9,13.4,5.2h-6.9c0-.1-.2-.2-.3-.3,0,0-.3-.1-.4-.1-.2,0-.4,0-.6.2s-.2.3-.2.6,0,.4.2.6c0,.1.3.2.6.2s.3,0,.4-.1c0,0,.2-.2.3-.3h12.4c5.6,0,9.3-3.7,11.3-6.5h.3ZM59.5,439.6c.3-.5.6-.9.9-1.2v-9.3l-1.2,4.4c.6,2,.7,4.1.3,6.1h0ZM49.1,445.3c1.2,0,2.3-.2,3.4-.6-3.3.3-6.6,0-9.7-1.1.7.5,1.3,1,1.9,1.6h4.4,0ZM49.1,7.6h-4.4c-.6.6-1.2,1.1-1.9,1.6,3.1-1,6.4-1.4,9.7-1.1-1.1-.4-2.3-.5-3.4-.6h0ZM59.2,19.6l1.2,4.4v-9.3c-.2-.4-.5-.8-.9-1.2.4,2,.3,4.1-.3,6.1ZM37.9,3.3h-.2s-.3,0-.4-.2c0,0-.2-.2-.2-.4-2-1.5-4.5-2.2-7-2.2s-5,.8-7,2.2c0,0,0,.3-.2.4-.1,0-.2.2-.4.2h-.2c-.3.2-.6.5-.9.8h.9c2.1-1.9,4.8-3,7.7-3s5.6,1.1,7.7,3h.9c-.3-.3-.6-.5-.9-.8h.2ZM49.8,4.1h3.2l-.7-1h-13.7c.3.3.7.6,1,1h8.4c4.8,1.2,9.2,3.8,12.6,7.4v1.8c-2-2.7-5.7-6.5-11.3-6.5h-12.4s-.2-.2-.3-.3h-.4c-.2,0-.3,0-.4.3,0,0-.2.3-.2.5s0,.4.2.5c0,0,.3.2.4.3h.4s.2-.2.3-.3h6.9c-3.6,3.3-8.4,5.2-13.4,5.2s-9.7-1.8-13.4-5.1h6.9s.2.2.3.3h.8c.1,0,.2-.2.3-.3,0,0,.1-.3.1-.4s0-.3-.1-.4c0,0-.2-.2-.3-.3h-.8c-.1,0-.2.2-.3.3h-12.4c-5.6,0-9.3,3.6-11.3,6.4v-1.8c3.4-3.6,7.7-6.2,12.6-7.4h8.4c.3-.3.6-.7,1-1h-13.7l-.7,1h3.2C6.6,5.5,3,7.7,0,10.8v-2.5s3.7-2.2,4.6-4.1h2l1.2-1.7h7.3c2.8-.4,6.4-1,8.1-2.2,0,0,1.2-.7,1.2.5s-2.7,1.4-4.9,1.7h2.7c.1,0,.2-.2.4-.2h.3C25.1.8,27.6,0,30.2,0s5.1.8,7.2,2.3h3.4c-2.1-.3-4.9-.9-4.9-1.7C35.9-.7,37.1,0,37.1,0c1.7,1.2,5.2,1.8,8.1,2.2h7.3l1.3,1.7h2c.9,2,4.6,4.2,4.6,4.2v2.5c-3-3-6.6-5.3-10.6-6.7h0v.2ZM58.8,19.5c.6-2.3.7-4.7,0-6.9-1-1.2-2.1-2.2-3.3-3-4.9-2.4-12,0-14,.6-3.3,2.2-7.2,3.3-11.2,3.3s-7.9-1.1-11.3-3.3c-2.1-.7-9.2-3-14.1-.6-1.2.8-2.4,1.8-3.3,3-.6,2.3-.5,4.7.1,6.9h0C1.7,19.6,0,25.8,0,25.8v401.3l1.7,6.3h0c-.6,2.3-.7,4.7-.1,7,1,1.2,2.1,2.2,3.3,3,4.9,2.4,12,0,14-.7,3.3-2.2,7.2-3.3,11.2-3.3s7.9,1.2,11.2,3.3c2.1.8,9.2,3,14.1.6,1.2-.8,2.4-1.8,3.3-3,.6-2.3.6-4.7,0-6.9h0c0-.1,1.7-6.4,1.7-6.4V25.9l-1.7-6.3h0ZM.9,13.4c-.3.4-.6.9-.9,1.2v9.3l1.2-4.4c-.6-2-.7-4.1-.3-6.1ZM7.9,8.2c1.1-.4,2.3-.5,3.4-.6h4.4c.6.6,1.2,1.1,1.9,1.6-3.1-1-6.4-1.4-9.7-1.1"/>
      </g>
    </g>
    <g id="Layer_4">
      <g class="st16">
        <g>
          <ellipse class="st13" cx="30.3" cy="444.7" rx="8.1" ry="6.6"/>
          <ellipse class="st5" cx="30.3" cy="444.4" rx="10.1" ry="8"/>
          <path class="st5" d="M8.1,448.3v1.9h9.4v2.2h-2.3v-1.4h1.2v1"/>
          <path class="st5" d="M52.4,448.3v1.9h-9.4v2.2h2.3v-1.4h-1.2v1"/>
          <ellipse class="st13" cx="30.3" cy="8.3" rx="8.1" ry="6.6"/>
          <ellipse class="st5" cx="30.3" cy="8.6" rx="10.1" ry="8"/>
          <path class="st5" d="M8.1,4.7v-1.9h9.4V.6h-2.3v1.4h1.2v-1"/>
          <path class="st5" d="M52.4,4.7v-1.9h-9.4V.6h2.3v1.4h-1.2v-1"/>
        </g>
        <g>
          <path class="st13" d="M57.5,449.3H3.2l-3-3V6.6l3-3h54.2l3,3v439.7l-3,3h0Z"/>
          <g>
            <polygon class="st4" points="52.3 11.4 55.6 11.4 55.6 14.7 57.9 12.5 58 5.9 51.2 5.9 49 8.2 52.3 8.2 52.3 11.4"/>
            <path class="st6" d="M57.9,5.8"/>
            <polygon class="st3" points="52.3 8.2 54.5 6 55.6 11.4 57.8 9.3 52.3 8.2"/>
            <polygon class="st4" points="55.6 11.4 52.3 11.4 52.3 8.2 54.5 6.2 57.8 6.2 57.8 9.4 55.6 11.4"/>
            <polygon class="st4" points="8.4 11.4 5.1 11.4 5.1 14.7 2.8 12.5 2.7 5.9 9.5 5.9 11.7 8.2 8.4 8.2 8.4 11.4"/>
            <path class="st6" d="M2.8,5.8"/>
            <polygon class="st3" points="8.4 8.2 6.2 6 5.1 11.4 2.9 9.3 8.4 8.2"/>
            <polygon class="st4" points="5.1 11.4 8.4 11.4 8.4 8.2 6.2 6.2 2.9 6.2 2.9 9.4 5.1 11.4"/>
            <path class="st6" d="M59.3,10.9"/>
            <path class="st6" d="M6,448.3"/>
            <polygon class="st4" points="52.3 441.6 55.6 441.6 55.6 438.3 57.9 440.5 58 447.1 51.2 447.1 49 444.8 52.3 444.8 52.3 441.6"/>
            <path class="st6" d="M57.9,447.2"/>
            <polygon class="st3" points="52.3 444.8 54.5 447 55.6 441.6 57.8 443.7 52.3 444.8"/>
            <polygon class="st4" points="55.6 441.6 52.3 441.6 52.3 444.8 54.5 446.8 57.8 446.8 57.8 443.6 55.6 441.6"/>
            <polygon class="st4" points="8.4 441.6 5.1 441.6 5.1 438.3 2.8 440.5 2.7 447.1 9.5 447.1 11.7 444.8 8.4 444.8 8.4 441.6"/>
            <path class="st6" d="M2.8,447.2"/>
            <polygon class="st3" points="8.4 444.8 6.2 447 5.1 441.6 2.9 443.7 8.4 444.8"/>
            <polygon class="st4" points="5.1 441.6 8.4 441.6 8.4 444.8 6.2 446.8 2.9 446.8 2.9 443.6 5.1 441.6"/>
          </g>
        </g>
        <rect class="st4" x="1.9" y="5.2" width="56.8" height="442.7"/>
        <rect class="st0" x="1.4" y="4.7" width="57.9" height="443.7"/>
        <path class="st9" d="M2.4,3.6h56.1l2,2v441.7l-2,2H2.4l-2-2V5.6l2-2Z"/>
      </g>
    </g>
  </g>
  <g id="Layer_41" data-name="Layer_4">
    <path class="st7" d="M61.1,3.8"/>
    <path class="st2" d="M15.2,3.8"/>
    <polygon class="st1" points="5.2 3.9 5.1 3.7 7.8 1.9 14.5 1.9 14.5 2.2 7.9 2.2 5.2 3.9"/>
    <g>
      <path class="st12" d="M25.2,1.4c-.4.2-.7.3-1,.5h-7.1s0-.5,0-.5h8.1Z"/>
      <path class="st12" d="M43.8,1.4l-.4.5h-6.9c-.3-.2-.7-.4-1-.5h8.3Z"/>
    </g>
    <g>
      <path class="st12" d="M23.7,2.2c-.5.3-.9.7-1.2,1h-4.9v-1h6.2Z"/>
      <path class="st12" d="M43.2,2.2v1h-5.1c-.4-.4-.8-.7-1.2-1h6.3Z"/>
    </g>
    <path class="st2" d="M45.5,3.8"/>
    <polygon class="st1" points="55.6 3.9 52.9 2.2 46.3 2.2 46.3 1.9 52.9 1.9 55.7 3.7 55.6 3.9"/>
    <path class="st2" d="M39.9,449.1"/>
    <path class="st2" d="M15.2,449.2"/>
    <path class="st2" d="M45.5,449.2"/>
    <path class="st7" d="M61.1,3.8"/>
    <path class="st2" d="M15.2,3.8"/>
    <path class="st2" d="M45.5,3.8"/>
    <path class="st2" d="M39.9,449.1"/>
    <path class="st2" d="M15.2,449.2"/>
    <path class="st2" d="M45.5,449.2"/>
    <path class="st8" d="M43.1,451.9"/>
    <path class="st2" d="M42.3,453.1"/>
    <path class="st8" d="M17.6,451.9"/>
    <polygon class="st1" points="5.2 449.1 5.1 449.3 7.8 451.1 14.5 451.1 14.5 450.9 7.9 450.9 5.2 449.1"/>
    <path class="st2" d="M18.1,453.1"/>
    <g>
      <path class="st12" d="M25.4,451.6h-8.1v-.5h7.1c.3.2.6.3,1,.5Z"/>
      <path class="st12" d="M44,451.6h-8.3c.3-.2.7-.3,1-.5h6.9l.4.5Z"/>
    </g>
    <g>
      <path class="st12" d="M23.7,450.6h-6v-1h4.8c.4.4.8.7,1.2,1Z"/>
      <path class="st12" d="M43.4,449.6v1h-6c.4-.3.8-.7,1.2-1h4.8Z"/>
    </g>
    <path class="st8" d="M43.2,451.9"/>
    <polygon class="st1" points="55.6 449.1 52.9 450.9 46.3 450.9 46.3 451.1 52.9 451.1 55.7 449.3 55.6 449.1"/>
    <path class="st2" d="M42.7,453.1"/>
    <path class="st8" d="M43.1,451.9"/>
    <path class="st2" d="M42.3,453.1"/>
    <path class="st8" d="M17.6,451.9"/>
    <path class="st2" d="M18.1,453.1"/>
    <path class="st8" d="M43.2,451.9"/>
    <path class="st2" d="M42.7,453.1"/>
    <g>
      <polyline class="st10" points="52.1 5 55.5 4 55.6 4"/>
      <polyline class="st10" points="48.9 5 53.1 3.6 54.2 3.2 54.5 3.1"/>
      <polyline class="st10" points="46.2 5 49.8 3.6 52.9 2.4 53.1 2.3"/>
      <polyline class="st10" points="46.9 3.6 48.5 2.9 49.5 2.4 50.1 2.1"/>
      <polyline class="st10" points="10.9 2.1 11.4 2.4 12.7 2.9 14.5 3.8"/>
      <polyline class="st10" points="14.8 5 11.2 3.6 8.1 2.4 7.7 2.2"/>
      <polyline class="st10" points="12.1 5 7.8 3.6 6.6 3.2 6.3 3"/>
      <polyline class="st10" points="5.1 3.9 5.3 3.9 8.9 5"/>
    </g>
    <g>
      <polyline class="st10" points="52.1 448.3 55.5 449.3 55.6 449.3"/>
      <polyline class="st10" points="48.9 448.3 53.1 449.7 54.2 450.1 54.5 450.2"/>
      <polyline class="st10" points="46.2 448.3 49.8 449.7 52.9 450.9 53.1 451"/>
      <polyline class="st10" points="46.9 449.7 48.5 450.4 49.5 450.9 50.1 451.2"/>
      <polyline class="st10" points="10.9 451.2 11.4 450.9 12.7 450.4 14.5 449.5"/>
      <polyline class="st10" points="14.8 448.3 11.2 449.7 8.1 450.9 7.7 451.1"/>
      <polyline class="st10" points="12.1 448.3 7.8 449.7 6.6 450.1 6.3 450.2"/>
      <polyline class="st10" points="5.1 449.4 5.3 449.4 8.9 448.3"/>
    </g>
  </g>
  <g id="Layer_5">
    <ellipse class="st13" cx="30.5" cy="445" rx="9.4" ry="7.2"/>
    <path class="st5" d="M40,447.3c0,.2-.1.3-.2.5-.3.5-.6,1-1,1.5,0,0-.2.2-.2.3-.4.4-.8.7-1.2,1-.2.2-.5.3-.7.5-.3.2-.6.3-1,.5-1.5.7-3.3,1.1-5.1,1.1s-3.6-.4-5.1-1.1c-.3-.2-.7-.3-1-.5-.3-.2-.5-.3-.7-.5-.4-.3-.8-.7-1.2-1,0,0-.2-.2-.2-.3-.4-.5-.8-1-1-1.5,0-.2-.2-.3-.2-.5"/>
    <path class="st5" d="M20.8,5.9c0-.2.2-.4.2-.5.3-.5.6-1.1,1-1.5.1-.2.3-.3.4-.5.4-.4.8-.7,1.2-1.1.1,0,.3-.2.4-.3.3-.2.6-.4,1-.6,1.5-.7,3.3-1.2,5.1-1.2s3.6.4,5.2,1.2c.3.2.7.4,1,.6.1,0,.3.2.4.3.5.3.9.7,1.2,1.1.1.1.3.3.4.5.4.5.8,1,1,1.5,0,.2.2.3.2.5"/>
  </g>
  <g id="Layer_3">
    <circle class="st13" cx="30.5" cy="75.7" r="10.2"/>
    <g>
      <polygon class="st13" points="54.5 445.1 57.4 445.1 57.4 442.4 54.9 442.8 54.5 445.1 54.5 445.1"/>
      <polygon class="st13" points="54.9 442.8 55.4 440.4 55.3 440.4 52.4 440.4 52.4 443.3 52.5 443.3 54.9 442.8"/>
      <polygon class="st13" points="57.4 441.6 57.4 439.2 55.7 437.5 55.7 440 57.4 441.6"/>
      <polygon class="st13" points="52.1 443.6 49.5 443.6 51.2 445.4 54 445.4 52.1 443.6"/>
      <polygon class="st13" points="6.1 10.2 5.6 12.6 5.7 12.6 8.6 12.6 8.6 9.7 8.5 9.7 6.1 10.2"/>
      <polygon class="st13" points="3.5 11.2 3.5 13.7 5.3 15.5 5.3 13 3.5 11.2"/>
      <polygon class="st13" points="5.3 440 5.3 437.5 3.5 439.2 3.5 441.8 5.3 440"/>
      <polygon class="st13" points="7 445.4 9.8 445.4 11.5 443.6 8.9 443.6 7 445.4"/>
      <polygon class="st13" points="6.5 7.9 3.6 7.9 3.6 10.6 6.1 10.2 6.5 7.9 6.5 7.9"/>
      <polygon class="st13" points="7 7.6 8.9 9.4 11.5 9.4 9.8 7.6 7 7.6"/>
      <path class="st13" d="M37.9,5.6c0,.1.1.3.2.4h20.8v440.8H2.2V6.1h20.4c0-.2.1-.3.2-.4H1.9v441.7h57.2V5.6h-21.2Z"/>
      <polygon class="st13" points="5.6 440.4 6.1 442.8 8.5 443.3 8.6 443.3 8.6 440.4 5.7 440.4 5.6 440.4"/>
      <path class="st13" d="M15,3.7c.2.2.5.4.8.5.5.1,1,0,1.4-.1.2,0,.4-.2.5-.3h-2.7ZM43,3.7c.2.2.4.3.6.4.4.2.8.2,1.3,0,.3,0,.6-.2.8-.5h-2.7Z"/>
      <path class="st13" d="M44.9,448.9c-.7-.2-1.4,0-1.9.5h2.6c-.2-.2-.5-.4-.8-.5ZM15.8,448.9c-.3,0-.5.2-.7.5h2.6c-.5-.4-1.2-.7-1.9-.5Z"/>
      <path class="st13" d="M58.7,3.7h-10.7s0,0,0-.1c0-.1,0-.3,0-.4,0-2.4-3.5-3.6-5-1.8,0,0,0,0,0,0-.2.2-.3.4-.3.5,0,0,0,.2,0,.3,0,.4,0,.7.2,1,0,.2.2.3.3.5h2.7c.2-.3.4-.6.3-.9,0-.1,0-.2-.1-.4-.4-.7-1.6-.7-2,0-.3.6.4,1.1.9.9.2,0,.3-.2.3-.4,0-.1,0-.2.1-.2.2,0,.3.2.2.3,0,0,0,.2-.1.2-.1.2-.4.3-.6.3-.4,0-.8-.1-1-.5-.4-1.4,1.8-1.8,2.4-.8,0,.1.1.2.2.4,0,.4,0,.8-.2,1.1-.2.4-.6.7-1,.8-.6.2-1.2.1-1.7-.2-.3-.1-.5-.3-.8-.6h-4c.4.5.8,1,1,1.5h20v442.7h-19.8c-.3.5-.6,1-1,1.5h3.8c.6-.7,1.6-1,2.4-.7.4,0,.8.4,1,.7,0,0,0,0,0,0,.3.4.4,1,0,1.5-.6,1.1-2.8.7-2.4-.8.3-.7,1.4-.7,1.8,0,0,.1,0,.3-.2.3-.1,0-.2-.1-.1-.2,0-.2-.1-.4-.3-.4-.5-.2-1.3.3-.9.9.4.7,1.6.6,2,0,.3-.4.2-.9-.2-1.3t0,0h-2.6s0,0,0,0c0,0-.1.2-.2.2-.2.3-.3.7-.3,1,0,.2,0,.3.1.5,0,.2.2.3.3.5,0,0,0,0,0,0,1.7,1.9,5.5.4,5-2.3,0,0,0,0,0-.1t0,0h10.7c.9-.9,1.4-1.4,2.3-2.3V5.9c-.9-.9-1.4-1.4-2.3-2.3ZM17.7,449.3h-2.6c-.3.4-.5.9-.2,1.3.4.7,1.6.7,2,0,.2-.3,0-.8-.4-.9-.3-.2-.9,0-.8.4,0,.3-.5.2-.3,0,.4-.8,1.4-.8,1.8,0,.4,1.4-1.8,1.8-2.4.8-.3-.5-.2-1,0-1.5.2-.4.6-.6,1-.7.9-.2,1.9,0,2.4.7h4.1c-.4-.5-.8-1-1-1.5H1.4V5.1h19.6c.3-.5.6-1,1-1.5h-3.9c-.2.2-.4.4-.6.5-.5.3-1.2.4-1.8.2-.4-.1-.8-.4-1-.8-.2-.4-.3-.8-.2-1.2,0,0,0-.2.1-.2.6-1.1,2.8-.7,2.4.8-.2.3-.4.5-.8.5-.4,0-.8-.1-1-.6h0c-.2-.3.4-.4.3,0,0,.1,0,.2.1.3s0,0,0,0c.2.1.5.1.7,0,.4-.1.6-.6.4-.9-.4-.7-1.6-.7-2,0,0,0,0,.2-.1.2-.1.4,0,.8.3,1.1h2.7c.1-.1.2-.3.3-.5.2-.3.2-.7.2-1,0,0,0-.2-.1-.3h0c0-.2-.2-.4-.3-.5,0,0,0,0,0,0-1.5-1.8-5-.6-5,1.7,0,.2,0,.4,0,.5,0,0,0,0,0,.1H2.3c-.9.9-1.4,1.4-2.3,2.3v441.1c.9.9,1.4,1.4,2.3,2.3h10.5s0,0,0,.1c-.5,2.6,3.3,4.2,5,2.3,0,0,0,0,0,0,.1-.2.3-.3.3-.5,0-.2.1-.3.1-.5,0-.4,0-.7-.3-1,0,0-.1-.2-.2-.3Z"/>
      <path class="st13" d="M38.2,6.3c0,0,0-.2,0-.2,0-.2-.1-.3-.2-.4-1.2-2.5-4.1-4.3-7.6-4.3s-6.5,1.8-7.6,4.3c0,.1-.1.3-.2.4,0,0,0,.2,0,.2H2.4v440.3h56.2V6.3h-20.4ZM10,445.8H3v-6.8l2.9-2.7v3.6h3.3v3.2h3.6l-2.8,2.7ZM9.1,9.9v3.2h-3.3v3.6l-2.9-2.8v-6.7h7l2.8,2.7h-3.6ZM57.9,445.8h-6.9l-2.8-2.7h3.6v-3.2h3.3v-3.6l2.7,2.7v6.8ZM57.9,14l-2.7,2.7v-3.6h-3.3v-3.2h-3.6l2.8-2.7h6.9v6.8Z"/>
      <polygon class="st13" points="3.6 445.1 6.5 445.1 6.5 445.1 6.1 442.8 3.6 442.4 3.6 445.1"/>
      <polygon class="st13" points="57.4 7.9 54.5 7.9 54.5 7.9 54.9 10.2 57.4 10.6 57.4 7.9"/>
      <polygon class="st13" points="55.4 12.6 54.9 10.2 52.5 9.7 52.4 9.7 52.4 12.6 55.3 12.6 55.4 12.6"/>
      <polygon class="st13" points="55.7 13 55.7 15.5 57.4 13.8 57.4 11.4 55.7 13"/>
      <polygon class="st13" points="52.1 9.4 54 7.6 51.2 7.6 49.5 9.4 52.1 9.4"/>
    </g>
  </g>
</svg>