<?xml version="1.0" encoding="UTF-8"?>
<svg xmlns="http://www.w3.org/2000/svg" version="1.1" xmlns:serif="http://www.serif.com/" viewBox="0 0 1920 1080">
  <!-- Generator: Adobe Illustrator 29.0.1, SVG Export Plug-In . SVG Version: 2.1.0 Build 192)  -->
  <defs>
    <style>
      .st0 {
        stroke-width: 5px;
      }

      .st0, .st1, .st2, .st3, .st4, .st5, .st6, .st7 {
        stroke: #231f20;
        stroke-miterlimit: 10;
      }

      .st0, .st1, .st2, .st5, .st6 {
        fill: #fff;
      }

      .st1 {
        stroke-width: 30px;
      }

      .st2, .st7 {
        stroke-width: 3px;
      }

      .st3 {
        stroke-width: 6px;
      }

      .st3, .st4, .st7 {
        fill: none;
      }

      .st8 {
        fill: #231f20;
      }

      .st4 {
        stroke-width: 10px;
      }

      .st5 {
        stroke-width: 8px;
      }

      .st9 {
        opacity: .3;
      }

      .st10 {
        display: none;
      }

      .st6 {
        stroke-width: 15px;
      }
    </style>
  </defs>
  <g id="Layer_1" class="st10">
    <g class="st9">
      <path class="st8" d="M260.3,246.8c-3.2,1.3-4.8,5-3.5,8.2.3.8,2.2,5.2,5.7,11.9-38.6,1.4-75.1,10.6-108.1,26.5,31.5-3.7,80.9-1,128,8.4.8,0,1.4,0,2.1,0,2.5,3.3,5.2,6.7,8,10.2-215-50.2-270.9,58.3-270.9,58.3,18.9-19.4,40.9-33.2,64.2-42.8,7.1-1.9,14.2-3.5,21.2-4.9C42.1,372.2,0,450.3,0,538.2s42.1,166,107,215.6c-7.1-1.4-14.1-3-21.2-4.9-23.3-9.6-45.3-23.5-64.2-42.8,0,0,55.9,108.5,270.9,58.3-2.9,3.4-5.5,6.8-8,10.2-.6,0-1.2,0-2.1,0-47.1,9.4-96.5,12.1-128,8.4,32.9,15.8,69.5,25.1,108.1,26.4-3.5,6.7-5.4,11.2-5.7,11.9-1.3,3.2.2,6.9,3.5,8.2,3.2,1.3,6.9-.2,8.2-3.5.1-.2,50.9-96.6,116.9-114.8,19.6-5.4,39.2-10.8,60.3-11.4-34.3,36.8-80,62.9-131.6,72.2-13.9,13.7-20,26.4-22.1,36.9,38.2-2.8,74.1-13.6,106.3-30.6l36.2-23.2c4.5-3.4,8.9-6.9,13.1-10.6h1395.5l3.4-5.7c9.7-16.3,40.3-61.1,64.9-72.7l6.7-3.1v-250l-6.7-3.1c-24.7-11.6-55.2-56.4-64.9-72.7l-3.4-5.7H447.7c-4.3-3.7-8.6-7.2-13.1-10.6l-36.2-23.2c-32.2-17-68.2-27.8-106.3-30.6,2.1,10.6,8.2,23.2,22.1,36.9,51.6,9.3,97.3,35.4,131.6,72.3-21.1-.6-40.6-6-60.3-11.4-66.1-18.1-116.8-114.5-116.9-114.8-1.3-3.2-5-4.8-8.2-3.5M471.7,721.4c5.5-5.9,10.7-12.1,15.6-18.5,20.7,3.4,42.1,9.4,64.3,18.5h-79.9ZM1894.9,648.9c-28,17.2-55.3,57.5-64.8,72.5h-72.6c43.7-18.8,106.8-52.1,137.4-97.6v25.1ZM1830.1,354.9c9.5,15,36.8,55.4,64.8,72.5v25.1c-30.6-45.5-93.7-78.8-137.4-97.6h72.6ZM471.7,354.9h79.9c-22.2,9.1-43.6,15.1-64.3,18.5-4.9-6.4-10.1-12.6-15.6-18.5M582.3,355h0s1140.8,0,1140.8,0c40.5,15.1,146.9,60.1,171.7,124.7v117.1c-24.8,64.6-131.2,109.6-171.7,124.7H582.3c-30.1-14.9-59-24.7-86.7-30,30.1-43.6,47.8-96.4,47.8-153.3s-17.7-109.7-47.8-153.3c27.7-5.3,56.6-15.1,86.7-29.9M320,340c16.6,14.4,36.7,27.6,60.9,36.8,23.9,9.1,49.3,13,75.9,12.3,33,40.8,52.9,92.6,52.9,149s-19.9,108.3-52.9,149c-26.7-.7-52.1,3.2-75.9,12.3-24.2,9.2-44.3,22.4-60.9,36.8-23.5,8.2-72.6,22.5-131.9,24.2-90-33.9-154.3-120.6-154.3-222.3s64.4-188.4,154.3-222.3c59.3,1.6,108.3,15.9,131.9,24.1"/>
    </g>
  </g>
  <g id="Layer_2">
    <path class="st1" d="M1904.9,389.7v306.3c-3.7,3.3-7,6.3-10.2,9.1-.2.1-.4.3-.5.5-.5.5-1,.9-1.6,1.4-.2.2-.3.3-.5.4,0,0,0,0,0,0,0,0-.2.2-.3.2-10.4,9.3-19.1,17-31.7,28.3H471.6c-17.5-15.6-27.3-24.4-44.8-40v-306.3c17.5-15.6,27.3-24.4,44.8-40h1388.5c12.7,11.3,21.3,19,31.7,28.3,0,0,.2.2.3.2,0,0,0,0,.1,0,.2.2.3.3.5.4.5.5,1,.9,1.5,1.4.2.2.3.3.5.5,3.1,2.8,6.5,5.8,10.2,9.1Z"/>
    <path class="st3" d="M1904.9,477.5v130.7c-18.4-15.8-30-39.2-30-65.4s11.7-49.6,30-65.3Z"/>
    <path class="st4" d="M1904.9,434.8v216.2c-39-20.3-65.7-61.1-65.7-108.1s26.7-87.8,65.7-108.1Z"/>
    <g>
      <path class="st7" d="M1893.2,378c-7.7,1.7-15.7,2.7-23.9,2.7-29.6,0-56.4-11.8-75.9-31h71.6c11.3,11.3,19,19,28.3,28.3Z"/>
      <path class="st7" d="M1895.1,377.6c-.5.3-1,.5-1.5.8-17.4,8.8-37,13.8-57.9,13.8-37.8,0-71.7-16.4-95.1-42.5h124.3c11.3,11.3,19,19,28.3,28.3.6-.1,1.2-.3,1.8-.4Z"/>
      <path class="st7" d="M1895.4,380.2c-24,17.9-53.9,28.6-86.2,28.6-47.8,0-90.1-23.2-116.4-59h172.1c11.3,11.3,19,19,28.3,28.3.6-.1,1.2-.3,1.8-.4-.5.3-1,.5-1.5.8.6.6,1.2,1.2,1.8,1.8Z"/>
    </g>
    <g>
      <path class="st7" d="M1869.3,705c8.2,0,16.2.9,23.9,2.7-9.3,9.3-17,17-28.3,28.3h-71.6c19.6-19.2,46.4-31,75.9-31Z"/>
      <path class="st7" d="M1895,708.1c-.6-.2-1.2-.3-1.8-.4-9.3,9.3-17,17-28.3,28.3h-124.3c23.4-26.1,57.3-42.5,95.1-42.5s40.5,5,57.9,13.8c.5.2,1,.5,1.4.8Z"/>
      <path class="st7" d="M1893.6,707.4c.5.2,1,.5,1.4.8-.6-.2-1.2-.3-1.8-.4-9.3,9.3-17,17-28.3,28.3h-172.1c26.3-35.8,68.6-59,116.4-59s62.1,10.6,86.2,28.5c-.6.6-1.2,1.2-1.8,1.8Z"/>
    </g>
    <g>
      <path class="st7" d="M1893.2,378c-7.7,1.7-15.7,2.7-23.9,2.7-29.6,0-56.4-11.8-75.9-31h71.6c11.3,11.3,19,19,28.3,28.3Z"/>
      <path class="st7" d="M1895.1,377.6c-.5.3-1,.5-1.5.8-17.4,8.8-37,13.8-57.9,13.8-37.8,0-71.7-16.4-95.1-42.5h124.3c11.3,11.3,19,19,28.3,28.3.6-.1,1.2-.3,1.8-.4Z"/>
      <path class="st7" d="M1895.4,380.2c-24,17.9-53.9,28.6-86.2,28.6-47.8,0-90.1-23.2-116.4-59h172.1c11.3,11.3,19,19,28.3,28.3.6-.1,1.2-.3,1.8-.4-.5.3-1,.5-1.5.8.6.6,1.2,1.2,1.8,1.8Z"/>
    </g>
    <g>
      <path class="st7" d="M1869.3,705c8.2,0,16.2.9,23.9,2.7-9.3,9.3-17,17-28.3,28.3h-71.6c19.6-19.2,46.4-31,75.9-31Z"/>
      <path class="st7" d="M1895,708.1c-.6-.2-1.2-.3-1.8-.4-9.3,9.3-17,17-28.3,28.3h-124.3c23.4-26.1,57.3-42.5,95.1-42.5s40.5,5,57.9,13.8c.5.2,1,.5,1.4.8Z"/>
      <path class="st7" d="M1893.6,707.4c.5.2,1,.5,1.4.8-.6-.2-1.2-.3-1.8-.4-9.3,9.3-17,17-28.3,28.3h-172.1c26.3-35.8,68.6-59,116.4-59s62.1,10.6,86.2,28.5c-.6.6-1.2,1.2-1.8,1.8Z"/>
    </g>
    <g>
      <circle class="st1" cx="283.1" cy="542.9" r="270.7"/>
      <polygon class="st0" points="428.1 334.5 435.7 489.1 522.6 622.7 379.7 675.7 287.1 794.4 191.7 675.5 43.6 623.7 131.4 488.9 138.8 335.1 282.3 373.7 428.1 334.5"/>
      <polygon class="st5" points="414.2 354.1 421.1 493.9 499.6 614.6 370.5 662.5 286.7 769.9 200.4 662.4 66.5 615.6 146 493.6 152.6 354.6 282.3 389.5 414.2 354.1"/>
      <path class="st0" d="M307.1,299.9l71.4,88.7c4.2,5.3,9.8,9.3,16.1,11.7l110.4,42.5c23.1,8.9,31.8,36.9,17.9,57.4l-61.3,90.1c-4,5.9-6.3,12.9-6.6,20l-4.3,106.5c-1,24.7-24.7,42-48.5,35.5l-106.3-29.3c-6.9-1.9-14.1-1.8-20.9.2l-110.2,32.2c-23.9,7-47.9-10.2-49.1-35.1l-5.4-117.9c-.3-6.9-2.5-13.5-6.2-19.3l-61.1-93.3c-13.5-20.6-4.4-48.4,18.7-57l100-37.3c6.3-2.4,11.9-6.3,16.2-11.5l69.8-84.5c15.5-18.7,44.2-18.6,59.5.4Z"/>
      <g>
        <line class="st2" x1="283.1" y1="721.7" x2="283.1" y2="541.1"/>
        <line class="st2" x1="297.4" y1="723.4" x2="283.1" y2="541.1"/>
        <line class="st2" x1="312.6" y1="727.6" x2="283.1" y2="541.1"/>
        <line class="st2" x1="328.9" y1="732.1" x2="283.1" y2="541.1"/>
        <line class="st2" x1="346.7" y1="737" x2="283.1" y2="541.1"/>
        <line class="st2" x1="388.8" y1="748.6" x2="283.1" y2="541.1"/>
        <line class="st2" x1="413.4" y1="753.7" x2="283.1" y2="541.1"/>
        <line class="st2" x1="433.1" y1="747.6" x2="283.1" y2="541.1"/>
        <line class="st2" x1="446.7" y1="732.6" x2="283.1" y2="541.1"/>
        <line class="st2" x1="451" y1="709" x2="283.1" y2="541.1"/>
        <line class="st2" x1="452.8" y1="664.4" x2="283.1" y2="541.1"/>
        <line class="st2" x1="453.6" y1="645.6" x2="283.1" y2="541.1"/>
        <line class="st2" x1="454.3" y1="628.3" x2="283.1" y2="541.1"/>
        <line class="st2" x1="454.9" y1="612.3" x2="283.1" y2="541.1"/>
        <line class="st2" x1="457.7" y1="597.8" x2="283.1" y2="541.1"/>
        <line class="st2" x1="465.4" y1="584.8" x2="283.1" y2="541.1"/>
        <line class="st2" x1="474.5" y1="571.4" x2="283.1" y2="541.1"/>
        <line class="st2" x1="484.4" y1="556.9" x2="283.1" y2="541.1"/>
        <line class="st2" x1="507.1" y1="523.4" x2="283.1" y2="541.1"/>
        <line class="st2" x1="520.7" y1="503.4" x2="283.1" y2="541.1"/>
        <line class="st2" x1="529.4" y1="481.9" x2="283.1" y2="541.1"/>
        <line class="st2" x1="525.8" y1="462.2" x2="283.1" y2="541.1"/>
        <line class="st2" x1="511.8" y1="446.3" x2="283.1" y2="541.1"/>
        <line class="st2" x1="488.4" y1="436.5" x2="283.1" y2="541.1"/>
        <line class="st2" x1="448.3" y1="421" x2="283.1" y2="541.1"/>
        <line class="st2" x1="431.3" y1="414.5" x2="283.1" y2="541.1"/>
        <line class="st2" x1="415.7" y1="408.5" x2="283.1" y2="541.1"/>
        <line class="st2" x1="401.1" y1="402.9" x2="283.1" y2="541.1"/>
        <line class="st2" x1="387.8" y1="396.9" x2="283.1" y2="541.1"/>
        <line class="st2" x1="377.3" y1="387.2" x2="283.1" y2="541.1"/>
        <line class="st2" x1="367.6" y1="375.1" x2="283.1" y2="541.1"/>
        <line class="st2" x1="357.2" y1="362.2" x2="283.1" y2="541.1"/>
        <line class="st2" x1="345.8" y1="348" x2="283.1" y2="541.1"/>
        <line class="st2" x1="318.9" y1="314.7" x2="283.1" y2="541.1"/>
        <line class="st2" x1="302.4" y1="295.1" x2="283.1" y2="541.1"/>
        <line class="st2" x1="283.1" y1="541.1" x2="283.1" y2="286.1"/>
        <line class="st2" x1="283.1" y1="541.1" x2="263.2" y2="288.2"/>
        <line class="st2" x1="283.1" y1="541.1" x2="245.3" y2="302.4"/>
        <line class="st2" x1="283.1" y1="541.1" x2="230.2" y2="320.7"/>
        <line class="st2" x1="283.1" y1="541.1" x2="204.6" y2="351.6"/>
        <line class="st2" x1="283.1" y1="541.1" x2="193.4" y2="365.1"/>
        <line class="st2" x1="283.1" y1="541.1" x2="183" y2="377.8"/>
        <line class="st2" x1="283.1" y1="541.1" x2="172.7" y2="389.2"/>
        <line class="st2" x1="283.1" y1="541.1" x2="159.5" y2="396.4"/>
        <line class="st2" x1="283.1" y1="541.1" x2="144.1" y2="402.1"/>
        <line class="st2" x1="283.1" y1="541.1" x2="127.6" y2="408.3"/>
        <line class="st2" x1="283.1" y1="541.1" x2="89.5" y2="422.5"/>
        <line class="st2" x1="283.1" y1="541.1" x2="66.9" y2="430.9"/>
        <line class="st2" x1="283.1" y1="541.1" x2="46.5" y2="443.1"/>
        <line class="st2" x1="283.1" y1="541.1" x2="37.4" y2="461.2"/>
        <line class="st2" x1="283.1" y1="541.1" x2="39.1" y2="482.5"/>
        <line class="st2" x1="283.1" y1="541.1" x2="52.5" y2="504.6"/>
        <line class="st2" x1="283.1" y1="541.1" x2="76.4" y2="541.1"/>
        <line class="st2" x1="283.1" y1="541.1" x2="86.5" y2="556.5"/>
        <line class="st2" x1="283.1" y1="541.1" x2="95.8" y2="570.7"/>
        <line class="st2" x1="283.1" y1="541.1" x2="104.5" y2="583.9"/>
        <line class="st2" x1="283.1" y1="541.1" x2="109.6" y2="597.4"/>
        <line class="st2" x1="283.1" y1="541.1" x2="110.7" y2="612.5"/>
        <line class="st2" x1="283.1" y1="541.1" x2="111.4" y2="628.5"/>
        <line class="st2" x1="283.1" y1="541.1" x2="112.2" y2="645.8"/>
        <line class="st2" x1="283.1" y1="541.1" x2="113.1" y2="664.6"/>
        <line class="st2" x1="283.1" y1="541.1" x2="115.1" y2="709"/>
        <line class="st2" x1="283.1" y1="541.1" x2="118.7" y2="733.6"/>
        <line class="st2" x1="283.1" y1="541.1" x2="131.5" y2="749.6"/>
        <line class="st2" x1="283.1" y1="541.1" x2="150.9" y2="756.8"/>
        <line class="st2" x1="283.1" y1="541.1" x2="175.5" y2="752.2"/>
        <line class="st2" x1="283.1" y1="541.1" x2="218.5" y2="739.6"/>
        <line class="st2" x1="283.1" y1="541.1" x2="236.7" y2="734.3"/>
        <line class="st2" x1="283.1" y1="541.1" x2="253.2" y2="729.5"/>
        <line class="st2" x1="283.1" y1="541.1" x2="268.6" y2="725"/>
      </g>
      <circle class="st6" cx="281.7" cy="539.5" r="201.4"/>
    </g>
    <g>
      <path class="st7" d="M492,378c7.5,1.7,15.3,2.7,23.3,2.7,28.7,0,54.8-11.8,73.9-31h-69.6c-11,11.3-18.5,19-27.5,28.3Z"/>
      <path class="st7" d="M490.2,377.6c.5.3,1,.5,1.4.8,16.9,8.8,36,13.8,56.3,13.8,36.7,0,69.8-16.4,92.5-42.5h-120.9c-11,11.3-18.5,19-27.5,28.3-.6-.1-1.2-.3-1.8-.4Z"/>
      <path class="st7" d="M489.9,380.2c23.4,17.9,52.4,28.6,83.8,28.6,46.5,0,87.7-23.2,113.2-59h-167.4c-11,11.3-18.5,19-27.5,28.3-.6-.1-1.2-.3-1.8-.4.5.3,1,.5,1.4.8-.6.6-1.2,1.2-1.8,1.8Z"/>
    </g>
    <g>
      <path class="st7" d="M515.2,705c-8,0-15.8.9-23.3,2.7,9.1,9.3,16.6,17,27.5,28.3h69.6c-19-19.2-45.1-31-73.9-31Z"/>
      <path class="st7" d="M490.2,708.1c.6-.2,1.1-.3,1.7-.4,9.1,9.3,16.6,17,27.5,28.3h120.9c-22.7-26.1-55.8-42.5-92.5-42.5s-39.4,5-56.3,13.8c-.5.2-.9.5-1.4.8Z"/>
      <path class="st7" d="M491.6,707.4c-.5.2-.9.5-1.4.8.6-.2,1.1-.3,1.7-.4,9.1,9.3,16.6,17,27.5,28.3h167.4c-25.5-35.8-66.7-59-113.2-59s-60.5,10.6-83.8,28.5c.6.6,1.2,1.2,1.8,1.8Z"/>
    </g>
  </g>
</svg>