<?xml version="1.0" encoding="UTF-8"?>
<svg xmlns="http://www.w3.org/2000/svg" version="1.1" xmlns:xlink="http://www.w3.org/1999/xlink" viewBox="0 0 206 63">
  <!-- Generator: Adobe Illustrator 29.0.1, SVG Export Plug-In . SVG Version: 2.1.0 Build 192)  -->
  <defs>
    <style>
      .st0, .st1, .st2, .st3, .st4 {
        fill: #fff;
        stroke: #231f20;
      }

      .st0, .st2 {
        stroke-width: .5px;
      }

      .st0, .st3 {
        stroke-linejoin: bevel;
      }

      .st1, .st2, .st4 {
        stroke-miterlimit: 10;
      }

      .st5 {
        opacity: .4;
      }

      .st6 {
        fill: none;
      }

      .st3, .st4 {
        stroke-width: .2px;
      }

      .st7 {
        fill: #333;
      }

      .st8 {
        display: none;
      }

      .st9 {
        clip-path: url(#clippath);
      }
    </style>
    <clipPath id="clippath">
      <rect class="st6" width="206" height="63"/>
    </clipPath>
  </defs>
  <g id="Layer_1" class="st8">
    <g id="Layer_11" data-name="Layer_1">
      <g class="st5">
        <g class="st9">
          <path class="st7" d="M34.4,10.1c1.9,1.7,4.1,3,6.5,4,2.6,1,5.4,1.4,8.2,1.3,3.7,4.5,5.7,10.2,5.7,16.1s-2,11.5-5.7,16.1c-2.8,0-5.5.4-8.2,1.3-2.4.9-4.6,2.2-6.5,3.9-4.6,1.6-9.3,2.5-14.2,2.6-4.9-1.8-9.1-5.1-12-9.4-3-4.3-4.6-9.4-4.6-14.6s1.6-10.3,4.6-14.6c3-4.3,7.2-7.6,12-9.4,4.8.2,9.6,1.1,14.2,2.7ZM62.6,11.7h122.5c4.4,1.6,15.8,6.5,18.4,13.5v12.6c-2.7,7-14.1,11.8-18.4,13.5H62.5c-2.9-1.5-6.1-2.6-9.3-3.2,3.3-4.9,5.1-10.6,5.1-16.5s-1.8-11.7-5.1-16.5c3.2-.7,6.4-1.7,9.3-3.2h0v-.2ZM50.8,11.7h8.6c-2.2.9-4.5,1.6-6.9,2-.5-.7-1.1-1.3-1.7-2ZM196.6,11.7c1.8,3,4.2,5.7,7,7.8v2.7c-3.3-4.9-10.1-8.5-14.8-10.5,0,0,7.8,0,7.8,0ZM203.6,43.5c-2.8,2.1-5.2,4.8-7,7.8h-7.8c4.7-2,11.5-5.6,14.8-10.5v2.7ZM50.8,51.3c.6-.6,1.1-1.3,1.7-2,2.4.4,4.7,1.1,6.9,2h-8.6ZM28,0c-.2,0-.3.2-.4.4v.5s.3.6.6,1.3c-4,0-8,1.1-11.6,2.9,4.6-.4,9.2,0,13.7.9h.2c.3.4.6.7.9,1.1C8.3,1.6,2.4,13.3,2.4,13.3c2-2,4.3-3.6,6.9-4.6.8-.2,1.5-.4,2.3-.5-3.6,2.7-6.5,6.2-8.5,10.3C1.1,22.5,0,26.9,0,31.4s1,9,3,13,4.9,7.6,8.5,10.3c-.8,0-1.5-.3-2.3-.5-2.6-1.1-4.9-2.6-6.9-4.6,0,0,6,11.7,29,6.3l-.9,1.1h-.2c-4.5.9-9.1,1.2-13.7.9,3.6,1.8,7.6,2.7,11.6,2.9-.4.7-.6,1.2-.6,1.3v.6s0,.2.2.2c0,0,.1,0,.2.2h.6s.2,0,.2-.2c0,0,.1-.2.1-.3,0,0,5.4-10.4,12.6-12.4,2.1-.7,4.3-1.1,6.5-1.2-3.7,4.1-8.7,6.8-14.1,7.8-1.2,1.1-2,2.5-2.4,4,4-.3,7.9-1.4,11.4-3.3l3.9-2.5c.5-.4.9-.7,1.4-1.1h149.9l.3-.6c1.1-1.8,4.3-6.6,7-7.9l.7-.3v-26.9l-.7-.3c-2.6-1.3-5.9-6.1-7-7.8l-.3-.6H48.1c-.5-.4-.9-.8-1.4-1.1l-3.9-2.5c-3.5-1.9-7.4-3-11.4-3.3.4,1.5,1.2,2.9,2.4,4,5.4,1,10.4,3.7,14.1,7.8-2.2-.2-4.4-.6-6.5-1.3C34.3,10.9,28.8.5,28.8.4c0,0,0-.2-.1-.2,0,0-.1-.1-.2-.1h-.6"/>
        </g>
      </g>
    </g>
  </g>
  <g id="Layer_2">
    <g>
      <path class="st1" d="M205.5,12.8v35.4c-2,2.1-3.2,3.3-5.3,5.4H50.2c-2-2.1-3.2-3.3-5.3-5.4V12.8c2.1-2.1,3.2-3.3,5.3-5.4h150c2,2.1,3.2,3.3,5.3,5.4Z"/>
      <path class="st2" d="M205.5,15.9v29.3c-1.3,0-2.5,0-3.5.2-7.1.8-9.9,4-10.1,7.9,0,.1,0,.2,0,.4h-127.1c0-.1,0-.3,0-.4-.2-4.5-3.7-8.1-8.1-8.1V15.9c4.3,0,7.8-3.5,8.1-8,0-.2,0-.3,0-.5h127.1c0,.2,0,.3,0,.5.2,3.8,3,6.9,9.8,7.7,1.2.1,2.4.2,3.8.2Z"/>
      <path class="st2" d="M200,45.6c-9.8,0-13.4,3.9-13.8,7.7H61.1c.4-3.8-3.2-7.7-7.6-7.7V15.5c4.4,0,8-3.9,8.2-7.5h125.1c-.2,3.7,3.4,7.5,13.2,7.5"/>
      <path class="st2" d="M205.5,16.6v27.9c-1.3,0-2.5.3-3.5.8-2.9,1.4-4.8,4.4-4.8,7.9H58.7c0-3.3-1.7-6.1-4.3-7.6h0c-.3-.2-.6-.3-.9-.4-1-.4-2-.6-3.1-.6v-27.9c1.1,0,2.2-.2,3.1-.6.4-.2.8-.4,1.1-.6h0c2.4-1.5,4-4.3,4-7.5h138.5c0,3.4,1.8,6.3,4.5,7.7,1.1.6,2.4,1,3.8,1Z"/>
      <path class="st2" d="M205.5,17.3v26.5c-3.3-2.4-5.5-7.4-5.5-13.2s2.2-10.9,5.5-13.2Z"/>
      <path class="st2" d="M205.5,20v20c-1.6-2.6-2.6-6.2-2.6-10s1-7.4,2.6-10Z"/>
    </g>
    <g>
      <ellipse class="st1" cx="30.7" cy="30.7" rx="30.3" ry="30.4"/>
      <path class="st0" d="M32.7,1.6l10.5,12.2,14.9,6.2c1.5.6,2.1,2.5,1.3,3.9l-8.4,13.7-1.3,16c-.1,1.6-1.7,2.8-3.3,2.4l-15.7-3.7-15.7,3.7c-1.6.4-3.1-.8-3.3-2.4l-1.3-16L2,23.8c-.9-1.4-.3-3.2,1.3-3.9l14.9-6.2L28.7,1.6c1.1-1.2,3-1.2,4.1,0Z"/>
      <g>
        <path class="st4" d="M30.6,31.3"/>
        <path class="st4" d="M30.6,31.3"/>
        <path class="st4" d="M30.6,31.3"/>
        <path class="st4" d="M30.6,31.3"/>
        <path class="st4" d="M30.6,31.3"/>
        <path class="st4" d="M30.6,31.3"/>
        <path class="st4" d="M30.6,31.3"/>
        <polyline class="st4" points="30.6 31.3 43.1 54.7 43.3 55.1"/>
        <polyline class="st4" points="30.6 31.3 44.5 53.8 45.7 55.7"/>
        <polyline class="st4" points="30.6 31.3 45.8 52.8 47.9 55.8"/>
        <polyline class="st4" points="30.6 31.3 47.1 51.8 49.3 54.6"/>
        <polyline class="st4" points="30.6 31.3 48.3 50.6 49.8 52.3"/>
        <path class="st4" d="M64,53.1"/>
        <path class="st4" d="M30.6,31.3"/>
        <path class="st4" d="M69.9,36.4"/>
        <path class="st4" d="M30.6,31.3"/>
        <polyline class="st4" points="30.6 31.3 55.7 26.3 58 25.9"/>
        <polyline class="st4" points="30.6 31.3 55.3 24.7 59.3 23.7"/>
        <polyline class="st4" points="30.6 31.3 54.9 23.1 59.4 21.6"/>
        <polyline class="st4" points="30.6 31.3 54.4 21.6 58.1 20"/>
        <polyline class="st4" points="30.6 31.3 53.7 20.1 55.8 19"/>
        <path class="st4" d="M61.1,5.3"/>
        <path class="st4" d="M30.6,31.3"/>
        <path class="st4" d="M30.6,31.3"/>
        <path class="st4" d="M30.6,31.3"/>
        <path class="st4" d="M30.6,31.3"/>
        <path class="st4" d="M30.6,31.3"/>
        <path class="st4" d="M30.6,31.3"/>
        <path class="st4" d="M30.6,31.3"/>
        <path class="st4" d="M30.6,31.3"/>
        <path class="st4" d="M30.6,31.3"/>
        <path class="st4" d="M30.6,31.3"/>
        <polyline class="st4" points="30.6 31.3 33.8 4.9 34.1 2.8"/>
        <polyline class="st4" points="30.6 31.3 32.2 4.7 32.4 1.1"/>
        <polyline class="st4" points="30.6 .7 30.6 4.7 30.6 31.3"/>
        <polyline class="st4" points="28.8 1.9 28.9 4.7 30.6 31.3"/>
        <polyline class="st4" points="27.2 3.8 27.3 4.8 30.6 31.3"/>
        <path class="st4" d="M30.6,31.3"/>
        <polyline class="st4" points="5.4 19 6.5 19.6 30.6 31.3"/>
        <polyline class="st4" points="2.5 20.3 5.1 21.3 30.6 31.3"/>
        <polyline class="st4" points="1.4 21.9 4.5 22.9 30.6 31.3"/>
        <polyline class="st4" points="1.8 24 4 24.5 30.6 31.3"/>
        <polyline class="st4" points="3.1 26.1 3.7 26.2 30.6 31.3"/>
        <polyline class="st4" points="11.7 52.2 12 51.8 30.6 31.3"/>
        <polyline class="st4" points="11.9 54.7 13.3 53 30.6 31.3"/>
        <polyline class="st4" points="13.5 55.4 15 53.2 30.6 31.3"/>
        <polyline class="st4" points="15.3 55.9 16.4 54.2 30.6 31.3"/>
        <polyline class="st4" points="17.6 55.4 17.8 55 30.6 31.3"/>
        <path class="st4" d="M30.6,31.3"/>
        <path class="st4" d="M30.6,31.3"/>
        <path class="st4" d="M30.6,31.3"/>
        <path class="st4" d="M30.6,31.3"/>
        <path class="st4" d="M30.6,31.3"/>
        <path class="st4" d="M30.6,31.3"/>
      </g>
      <polygon class="st3" points="48.2 6.1 50.1 24.1 59.1 39.8 42.6 47.2 30.5 60.6 18.4 47.2 1.9 39.8 10.9 24.1 12.8 6.1 30.5 9.9 48.2 6.1"/>
      <polygon class="st3" points="46.7 8.2 48.5 24.7 56.7 39 41.6 45.8 30.5 58.1 19.4 45.8 4.3 39 12.5 24.7 14.3 8.2 30.5 11.6 46.7 8.2"/>
      <ellipse class="st4" cx="30.7" cy="30.1" rx="23.9" ry="24"/>
    </g>
  </g>
</svg>