<?xml version="1.0" encoding="UTF-8"?>
<svg xmlns="http://www.w3.org/2000/svg" version="1.1" viewBox="0 0 114.9 102.2">
  <!-- Generator: Adobe Illustrator 29.0.1, SVG Export Plug-In . SVG Version: 2.1.0 Build 192)  -->
  <defs>
    <style>
      .st0 {
        stroke-width: .5px;
      }

      .st0, .st1, .st2 {
        fill: none;
        stroke: #000;
        stroke-miterlimit: 10;
      }

      .st3 {
        fill: #231f20;
      }

      .st2 {
        stroke-width: .2px;
      }

      .st4 {
        display: none;
      }

      .st5 {
        opacity: .5;
      }
    </style>
  </defs>
  <g id="Layer_1" class="st4">
    <g id="Layer_2" class="st5">
      <g id="Layer_1-2">
        <path class="st3" d="M113,81.9c-.5-4.1-.7-8.2-.6-12.3.3,3.8.8,7.7,1.6,11.4-.4.3-.7.5-1,.8M112.8,87l-.2,2.3c-.4-1.2-.8-2.2-.8-2.3-.2-.9,0-1.8.3-2.6.2.9.4,1.7.7,2.6M107.4,100.8h-3.6c6.8-2.8,8-7.9,8.2-10.9.2.5.3,1,.4,1.5l-.5,5.7c-1.1.4-3.9,1.6-4.4,3.7M3,97.1l-.5-5.7c0-.5.2-1,.4-1.5,0,1.2.2,2.4.6,3.5.8,2.4,2.8,5.5,7.5,7.4h-3.6c-.5-2.1-3.3-3.3-4.4-3.7M3.2,86.9c0,0-.5,1.1-.9,2.3l-.2-2.3c.3-.9.5-1.7.7-2.6.4.8.6,1.7.4,2.6M.9,81.1c.8-3.8,1.4-7.6,1.6-11.4.1,4.1,0,8.2-.6,12.3-.3-.3-.6-.6-1-.8M1.9,20.3c.5,4.1.7,8.2.6,12.3-.3-3.8-.8-7.7-1.6-11.4.4-.3.7-.5,1-.8M2.1,15.2l.2-2.3c.4,1.2.8,2.2.8,2.3.2.9,0,1.8-.3,2.6-.2-.9-.4-1.7-.7-2.6M7.5,1.4h3.6C4.3,4.1,3,9.3,3,12.3c-.2-.5-.3-1-.4-1.5l.5-5.7c1.1-.4,3.9-1.6,4.4-3.7M111.8,5.1l.5,5.7c0,.5-.2,1-.4,1.5,0-1.2-.2-2.4-.6-3.5-.8-2.4-2.8-5.5-7.5-7.4h3.6c.5,2.1,3.3,3.3,4.4,3.7M111.7,15.3c0,0,.5-1.1.9-2.3l.2,2.3c-.3.9-.5,1.7-.7,2.6-.4-.8-.6-1.7-.4-2.6M114,21.1c-.8,3.8-1.4,7.6-1.6,11.4-.1-4.1,0-8.2.6-12.3.3.3.6.6,1,.8M111,87.2s.2.4.4,1c.2,1.7,0,3.4-.5,5-1.2,3.5-4.2,6.1-8.5,7.5H12.5c-9.4-3.1-9.3-10.3-9.1-12.5.2-.7.4-1.1.5-1.1.3-1.4,0-2.8-.9-3.9,1.4-7.6.7-17.2.7-17.6v-29c0-.5.7-10.1-.6-17.7.8-1.1,1.2-2.6.8-4,0,0-.2-.4-.4-1-.2-1.7,0-3.4.5-5,1.2-3.5,4.2-6.1,8.5-7.5h89.8c9.4,3.1,9.3,10.3,9.1,12.5-.2.6-.4,1.1-.4,1.1-.3,1.4,0,2.8.8,3.9-1.4,7.6-.7,17.2-.6,17.6v29c0,.5-.7,10.1.7,17.7-.8,1.1-1.2,2.6-.8,4M112.6,61.8v-17.4c.3-5.1,1.1-19.5,2.3-23.4v-.3c0,0-.2-.2-.2-.2-.6-.4-1.1-.8-1.5-1.3.2-1.3.6-2.6,1-3.8h0c0-.1-1-11.4-1-11.4h-.5c-1-.4-4-1.7-4-3.3V0H6.2v.7c0,1.7-2.9,2.9-4,3.3h-.4c0,.1-1,11.4-1,11.4h0c.4,1.4.8,2.7,1,4-.5.5-1,.9-1.5,1.3l-.2.2v.3c1.3,3.8,2,18.2,2.3,23.3v17.4c-.3,5.1-1.1,15.5-2.3,19.4v.3c0,0,.2.2.2.2.5.4,1,.8,1.5,1.3-.2,1.3-.6,2.6-1,3.8h0c0,.1,1,11.4,1,11.4h.4c1.1.5,4,1.7,4,3.4v.7h102.5v-.7c0-1.7,2.9-2.9,4-3.3h.4c0-.1,1-11.4,1-11.4h0c-.4-1.4-.7-2.7-.9-4,.4-.5,1-.9,1.5-1.3l.2-.2v-.3c-1.3-3.8-2-14.2-2.3-19.3"/>
      </g>
    </g>
  </g>
  <g id="Layer_21" data-name="Layer_2">
    <g>
      <rect class="st1" x="2" y="1.9" width="110.9" height="98.3"/>
      <path class="st1" d="M109.5,101.7H5.4c0-2.8-2.2-5-5-5V5.5c2.8,0,5-2.2,5-5h104.1c0,2.8,2.2,5,5,5v91.1c-2.8,0-5,2.2-5,5Z"/>
      <path class="st0" d="M108,98.3H6.9c0-1.7-1.3-3-3-3V6.9c1.7,0,3-1.3,3-3h101.1c0,1.7,1.3,3,3,3v88.4c-1.7,0-3,1.3-3,3Z"/>
      <rect class="st2" x="3.1" y="3.1" width="108.6" height="96"/>
    </g>
  </g>
</svg>