<?xml version="1.0" encoding="UTF-8"?>
<svg xmlns="http://www.w3.org/2000/svg" version="1.1" xmlns:xlink="http://www.w3.org/1999/xlink" viewBox="0 0 180 248">
  <!-- Generator: Adobe Illustrator 29.0.1, SVG Export Plug-In . SVG Version: 2.1.0 Build 192)  -->
  <defs>
    <style>
      .st0 {
        fill: none;
      }

      .st1 {
        display: none;
      }

      .st2 {
        fill: #353535;
      }

      .st3 {
        fill: #e6e6e6;
      }

      .st4 {
        clip-path: url(#clippath);
      }

      .st5 {
        stroke: #1f1f1f;
        stroke-miterlimit: 10;
        stroke-width: .2px;
      }
    </style>
    <clipPath id="clippath">
      <rect class="st0" y=".3" width="180" height="247.4"/>
    </clipPath>
  </defs>
  <g id="Layer_1" class="st1">
    <g class="st4">
      <g>
        <path class="st2" d="M10.4.3h-5.9C3.7,2.3,0,4.5,0,4.5v2.6C2.9,4,6.5,1.7,10.4.3"/>
        <path class="st2" d="M169.6,247.7h5.9c.9-2,4.6-4.1,4.6-4.1v-2.6c-2.9,3-6.5,5.3-10.4,6.7Z"/>
        <path class="st2" d="M180,7v-2.6s-3.6-2.2-4.6-4.2h-5.9c4,1.4,7.5,3.7,10.4,6.7Z"/>
        <path class="st2" d="M0,241v2.6s3.7,2.2,4.6,4.1h5.9c-4-1.4-7.5-3.7-10.4-6.7"/>
        <path class="st2" d="M0,227.4v9.6c.3.4.6,1,1,1.5-.4-2-.3-4.2.3-6.1l-1.3-5Z"/>
        <path class="st2" d="M168.6,245.1h-62.2c0,.1-.2.2-.3.3-.1,0-.3.1-.4.1-.1,0-.2,0-.3,0-.1,0-.2,0-.3-.2,0,0-.1-.2-.2-.3,0-.1,0-.2,0-.3s0-.2,0-.3c0-.1.1-.2.2-.3,0,0,.2-.1.3-.2.1,0,.2,0,.3,0,.1,0,.3,0,.4.1.1,0,.2.2.3.3h62.2c1.9,0,3.7-.5,5.4-1.4,1.7-.9,3.1-2.1,4.3-3.5.6-2.3.6-4.7,0-6.9h0c0-.1,1.8-7,1.8-7V22.5l-1.9-6.9h0c.7-2.3.7-4.7.1-7-1.2-1.5-2.6-2.7-4.3-3.6-1.7-.9-3.5-1.3-5.4-1.4h-62.2c0,.1-.2.2-.3.3-.1,0-.3.1-.4.1-.1,0-.2,0-.3,0-.1,0-.2,0-.3-.2,0,0-.1-.2-.2-.3,0-.1,0-.2,0-.3s0-.2,0-.3c0-.1.1-.2.2-.3,0,0,.2-.1.3-.2.1,0,.2,0,.3,0,.1,0,.3,0,.4.1.1,0,.2.2.3.3h62.2c5.7,0,9.5,4,11.4,6.7v-1.9c-3.3-3.6-7.5-6.2-12.2-7.5H12.2C7.5,1.6,3.3,4.2,0,7.8v1.9C1.9,6.9,5.7,2.9,11.4,2.9h62.2c0-.1.2-.2.3-.3.1,0,.3-.1.4-.1.1,0,.2,0,.3,0,.1,0,.2,0,.3.2,0,0,.1.2.2.3,0,.1,0,.2,0,.3s0,.2,0,.3c0,.1-.1.2-.2.3,0,0-.2.1-.3.2-.1,0-.2,0-.3,0-.1,0-.3,0-.4-.1-.1,0-.2-.2-.3-.3H11.4c-1.9,0-3.7.5-5.4,1.4-1.7.9-3.1,2.1-4.3,3.6-.6,2.3-.6,4.7.1,6.9h0c0,.1-1.8,7-1.8,7v202.9l1.9,6.9h0c-.7,2.3-.7,4.7-.1,7,1.2,1.5,2.6,2.7,4.3,3.6,1.7.9,3.5,1.3,5.4,1.4h62.2c0-.1.2-.2.3-.3.1,0,.3-.1.4-.1.1,0,.2,0,.3,0,.1,0,.2,0,.3.2,0,0,.1.2.2.3,0,.1,0,.2,0,.3s0,.2,0,.3c0,.1-.1.2-.2.3,0,0-.2.1-.3.2-.1,0-.2,0-.3,0-.1,0-.3,0-.4-.1-.1,0-.2-.2-.3-.3H11.4c-5.7,0-9.5-3.9-11.4-6.7v1.9c3.3,3.6,7.5,6.2,12.2,7.4h155.5c4.7-1.3,9-3.9,12.2-7.4v-1.9c-1.9,2.8-5.7,6.7-11.4,6.7Z"/>
        <path class="st2" d="M0,11v9.6l1.3-5c-.6-2-.7-4.1-.3-6.1-.4.5-.8,1.1-1,1.5Z"/>
        <path class="st2" d="M180,20.6v-9.6c-.3-.4-.6-1-1-1.5.4,2,.3,4.1-.3,6.1l1.3,5Z"/>
        <path class="st2" d="M179,238.5c.4-2,.3-4.2-.3-6.1l1.3-5v9.6c-.3.4-.6,1-1,1.5"/>
      </g>
    </g>
  </g>
  <g id="Layer_4">
    <g>
      <path class="st3" d="M4.5,4h-.6c-.1,1-.9,1.8-1.9,1.9v.4c1.2-.2,2.2-1.1,2.5-2.3Z"/>
      <path class="st3" d="M4,8c0,0-.1,0-.2,0v1.5c0,0,0,.1-.1.1h-1.7v.3h2v-2.1Z"/>
      <path class="st3" d="M2,240.2v.4c1.8.2,3.3,1.6,3.5,3.3h.4c-.2-2-1.9-3.6-3.9-3.8Z"/>
      <path class="st3" d="M2,241.1v.3c1.4.2,2.5,1.2,2.7,2.6h.3c-.2-1.5-1.5-2.7-3-2.9Z"/>
      <path class="st3" d="M6,4h-.4c-.2,1.8-1.7,3.2-3.5,3.3v.4c2.1-.2,3.7-1.7,3.9-3.8Z"/>
      <path class="st3" d="M5,4h-.3c-.2,1.4-1.3,2.4-2.7,2.6v.3c1.5-.2,2.8-1.3,3-2.9Z"/>
      <path class="st3" d="M2,4v1.4c.7-.1,1.3-.7,1.4-1.4h-1.4Z"/>
      <path class="st3" d="M178.8,230.9v7.5h0s-2,0-2,0v1.3c.5-.2,1-.3,1.5-.4v-.4h.5v5.4h-5.4v-.5h.2c0-.5.2-1,.4-1.5h-1.3v2h0,0s-65.5.3-65.5.3v.8l-1.8-1,1.8-1v.8l64.6-.3v-2.1c0,0,0-.1.1-.1h2.4c.4-.7,1.1-1.3,1.8-1.7v-2.3c0,0,0-.1.1-.1h2.1v-6.9l1.7-1.9V19.2l-1.7-1.9v-6.9h-2.1c0,0-.1,0-.1-.1v-2.3c-.7-.4-1.3-1-1.8-1.7h-2.4c0,0-.1,0-.1-.1v-2.1l-64.6-.3v.8l-1.8-1,1.8-1v.8l65.5.3h0s0,0,0,0v2h1.3c-.2-.5-.3-1-.4-1.5h-.2v-.5h5.4v5.4h-.5v-.4c-.5,0-1-.2-1.5-.4v1.3h2s0,0,0,0v7.5l1.2,1.4V4.4l-4.4-4.4H4.4L0,4.4v14.4l1.5-1.7v-7.5h0s2,0,2,0v-1.3c-.5.2-1,.3-1.5.4v.4h-.5V3.5h5.4v.5h-.2c0,.5-.2,1-.4,1.5h1.3v-2h0,0s65.5-.3,65.5-.3v-.8l1.8,1-1.8,1v-.8l-64.6.3v2.1c0,0,0,.1-.1.1h-2.4c-.4.7-1.1,1.3-1.8,1.7v2.3c0,0,0,.1-.1.1h-2.1v6.9l-1.7,2-.3-.3v210.1l.3-.3,1.7,2v6.9h2.1c0,0,.1,0,.1.1v2.3c.7.4,1.3,1,1.8,1.7h2.4c0,0,.1,0,.1.1v2.1l64.6.3v-.8l1.8,1-1.8,1v-.8l-65.5-.3h0s0,0,0,0v-2h-1.3c.2.5.3,1,.4,1.5h.2v.5H1.5v-5.4h.5v.4c.5,0,1,.2,1.5.4v-1.3H1.5s0,0,0,0v-7.5l-1.5-1.7v14.4l4.4,4.4h171.2l4.4-4.4v-14l-1.2,1.4Z"/>
      <path class="st3" d="M2,241.6v.4c1,.1,1.8.9,1.9,1.9h.6c-.2-1.2-1.2-2.2-2.5-2.3Z"/>
      <path class="st3" d="M4,7.7c.7-.4,1.4-1,1.8-1.7.4-.6.6-1.3.7-2h-.3c-.3,2.2-2,3.8-4.2,4v.3c.6,0,1.1-.2,1.6-.4.1,0,.3-.1.4-.2Z"/>
      <path class="st3" d="M6.3,242.3h1.6c0,0,.1,0,.1.1v1.6h.3s0-1.9,0-1.9h-2.2c0,0,0,.1,0,.2Z"/>
      <path class="st3" d="M3.8,238.4v1.5c0,0,.1,0,.2,0v-2.1h-2v.3h1.7c0,0,.1,0,.1.1Z"/>
      <path class="st3" d="M2,242.6v1.4h1.4c-.1-.7-.7-1.3-1.4-1.4Z"/>
      <path class="st3" d="M4,240.3c-.1,0-.3-.1-.4-.2-.5-.2-1.1-.4-1.6-.4v.3c2.2.2,3.9,1.9,4.2,4h.3c0-.7-.3-1.3-.7-2-.4-.7-1.1-1.3-1.8-1.7Z"/>
      <path class="st3" d="M176.3,240c0,0,.1,0,.2,0v-1.5c0,0,0-.1.1-.1h1.7v-.3h-2v2.1Z"/>
      <path class="st3" d="M178.3,7.8v-.4c-1.8-.2-3.3-1.6-3.5-3.3h-.4c.2,2,1.9,3.6,3.9,3.8Z"/>
      <path class="st3" d="M175.3,244h.3c.2-1.4,1.3-2.4,2.7-2.6v-.3c-1.5.2-2.8,1.3-3,2.9Z"/>
      <path class="st3" d="M6.2,5.9h2.2v-1.9h-.3v1.6c0,0,0,.1-.1.1h-1.6c0,0,0,.1,0,.2Z"/>
      <path class="st3" d="M178.3,244v-1.4c-.7.1-1.3.7-1.4,1.4h1.4Z"/>
      <path class="st3" d="M174.4,244h.4c.2-1.8,1.7-3.2,3.5-3.3v-.4c-2.1.2-3.7,1.7-3.9,3.8Z"/>
      <path class="st3" d="M174.2,242.1h-2.2v1.9h.3v-1.6c0,0,0-.1.1-.1h1.6c0,0,0-.1,0-.2Z"/>
      <path class="st3" d="M176.3,240.3c-.7.4-1.4,1-1.8,1.7-.4.6-.6,1.3-.7,2h.3c.3-2.2,2-3.8,4.2-4v-.3c-.6,0-1.1.2-1.6.4-.1,0-.3.1-.4.2Z"/>
      <path class="st3" d="M175.8,244h.6c.1-1,.9-1.8,1.9-1.9v-.4c-1.2.2-2.2,1.1-2.5,2.3Z"/>
      <path class="st3" d="M174.1,5.7h-1.6c0,0-.1,0-.1-.1v-1.6h-.3s0,1.9,0,1.9h2.2c0,0,0-.1,0-.2Z"/>
      <path class="st3" d="M178.3,6.9v-.3c-1.4-.2-2.5-1.2-2.7-2.6h-.3c.2,1.5,1.5,2.7,3,2.9Z"/>
      <path class="st3" d="M176.5,9.6v-1.5c0,0-.1,0-.2,0v2.1h2v-.3h-1.7c0,0-.1,0-.1-.1Z"/>
      <path class="st3" d="M176.3,7.7c.1,0,.3.1.4.2.5.2,1.1.4,1.6.4v-.3c-2.2-.2-3.9-1.9-4.2-4h-.3c0,.7.3,1.3.7,2,.4.7,1.1,1.3,1.8,1.7Z"/>
      <path class="st3" d="M178.3,5.4v-1.4h-1.4c.1.7.7,1.3,1.4,1.4Z"/>
      <path class="st3" d="M178.3,6.4v-.4c-1-.1-1.8-.9-1.9-1.9h-.6c.2,1.2,1.2,2.2,2.5,2.3Z"/>
    </g>
  </g>
  <g id="Layer_2" class="st1">
    <polygon class="st5" points="0 20.3 0 20.2 1 18.8 1 4.1 74.8 4.1 74.8 4.3 1.2 4.3 1.2 18.9 0 20.3"/>
    <polygon class="st5" points="11.9 6.1 6.2 6.1 6.2 5.8 11.3 5.8 9.7 4.3 9.9 4.1 11.9 6.1"/>
    <polygon points="3.2 6.1 3.1 6.1 3.1 6 3 6 3 5.8 3.2 5.8 3.2 6 3.2 6 3.2 6 3.2 6 3.2 6.1"/>
    <polygon class="st5" points="3.2 14.6 1 12.4 1.2 12.3 3 14 3 9.2 3.2 9.2 3.2 14.6"/>
    <polygon class="st5" points="9.9 7.2 6.4 7.2 6.4 7 9.3 7 8.4 6 8.6 5.9 9.9 7.2"/>
    <polygon class="st5" points="4.4 12.7 3 11.3 3.2 11.1 4.1 12.1 4.1 9.4 4.4 9.4 4.4 12.7"/>
    <path d="M4.1,9.6c-.4,0-.7,0-1-.2-1-.4-1.6-1.4-1.6-2.4s1.2-2.6,2.6-2.6,1.9.5,2.3,1.4c.2.4.3.8.3,1.2,0,1.4-1.1,2.5-2.4,2.6,0,0-.1,0-.2,0ZM4.1,5c-1.2,0-2.1.9-2.1,2.1s.5,1.6,1.3,1.9c.3.1.6.2.9.2,0,0,0,0,.1,0,1.1,0,1.9-1,2-2,0-.4,0-.7-.2-1h0c-.4-.7-1.1-1.1-1.9-1.1ZM4.1,8.7c-.4,0-.8-.2-1.1-.4-.3-.3-.6-.7-.6-1.2s.2-.9.5-1.2c0,0,.1,0,.1-.1.5-.4,1.5-.5,2.1,0,.4.3.6.8.6,1.3,0,.8-.6,1.5-1.4,1.6,0,0-.2,0-.2,0ZM4.1,5.9c-.3,0-.5,0-.7.3h0c-.2.3-.4.6-.4.9s.1.6.4.8c.2.2.5.3.8.3s0,0,.1,0h0c.6,0,1-.5,1-1.1,0-.4-.2-.7-.4-.9-.2-.2-.5-.3-.7-.3Z"/>
    <path d="M4.1,8.7c-.4,0-.8-.2-1.1-.4-.3-.3-.6-.7-.6-1.2s.2-.9.5-1.2c0,0,.1,0,.1-.1.5-.4,1.5-.5,2.1,0,.4.3.6.8.6,1.3h0c0,.9-.6,1.5-1.4,1.6,0,0-.1,0-.2,0ZM4.1,5.9c-.3,0-.5,0-.7.3h0c-.2.3-.4.6-.4.9s.1.6.4.8c.2.2.5.3.8.3s0,0,.1,0c.6,0,1-.5,1-1.1h.2s-.2,0-.2,0c0-.4-.2-.7-.4-.9-.2-.2-.5-.3-.7-.3Z"/>
    <path d="M4.1,8.7c-.4,0-.8-.2-1.1-.4-.3-.3-.6-.7-.6-1.2s.2-.9.5-1.2c0,0,.1,0,.1-.1.5-.4,1.5-.5,2.1,0,.4.3.6.8.6,1.3h0c0,.9-.6,1.5-1.4,1.6,0,0-.1,0-.2,0ZM4.1,5.9c-.3,0-.5,0-.7.3h0c-.2.3-.4.6-.4.9s.1.6.4.8c.2.2.5.3.8.3s0,0,.1,0c.6,0,1-.5,1-1.1h.2s-.2,0-.2,0c0-.4-.2-.7-.4-.9-.2-.2-.5-.3-.7-.3Z"/>
    <ellipse cx="4.1" cy="7" rx=".7" ry=".7"/>
    <polygon class="st5" points="76 4.2 74.6 3.2 74.6 5.2 76 4.2"/>
    <polygon class="st5" points="179.9 20.4 178.8 18.9 178.8 4.4 105.2 4.4 105.2 4.1 179 4.1 179 18.8 180.1 20.2 179.9 20.4"/>
    <polygon class="st5" points="173.8 6.1 168.1 6.1 170.1 4.1 170.3 4.3 168.7 5.9 173.8 5.9 173.8 6.1"/>
    <polygon points="176.9 6.1 176.8 6.1 176.8 6 176.8 6 176.8 6 176.8 6 176.8 5.9 177 5.9 177 6 176.9 6 176.9 6.1"/>
    <polygon class="st5" points="176.8 14.6 176.8 9.2 177 9.2 177 14.1 178.8 12.3 179 12.5 176.8 14.6"/>
    <polygon class="st5" points="173.6 7.2 170.1 7.2 171.4 5.9 171.6 6.1 170.7 7 173.6 7 173.6 7.2"/>
    <polygon class="st5" points="175.6 12.7 175.6 9.4 175.9 9.4 175.9 12.1 176.8 11.2 177 11.3 175.6 12.7"/>
    <path d="M175.9,9.6c0,0-.2,0-.2,0-1.3,0-2.4-1.2-2.4-2.5,0-.5.1-.9.3-1.2h0c.5-.9,1.3-1.4,2.3-1.4,1.4,0,2.6,1.2,2.6,2.6s-.6,1.9-1.6,2.4c-.3.1-.7.2-1.1.2ZM175.9,5c-.8,0-1.5.4-1.9,1.1h0c-.2.3-.2.6-.2,1,0,1.1.9,2,1.9,2.1,0,0,.1,0,.2,0,.3,0,.6,0,.9-.2.8-.3,1.3-1.1,1.3-1.9s-.9-2.1-2.1-2.1ZM175.9,8.7c0,0-.2,0-.2,0-.8-.1-1.4-.8-1.4-1.6,0-.6.2-1,.6-1.3.6-.5,1.5-.5,2.1,0,0,0,0,0,0,0,.3.3.5.7.5,1.2s-.2.9-.6,1.2c-.3.3-.7.4-1.1.4ZM175.9,5.9c-.3,0-.5,0-.7.3-.3.2-.4.5-.4.9,0,.6.4,1.1,1,1.1h0s0,0,.1,0c.3,0,.6-.1.8-.3.2-.2.4-.5.4-.8s-.1-.6-.4-.8h0c-.2-.2-.5-.3-.7-.3Z"/>
    <path d="M175.9,8.7c0,0-.2,0-.3,0-.8,0-1.4-.8-1.4-1.6h0c0-.6.2-1,.6-1.3.6-.5,1.5-.5,2.1,0,0,0,0,0,0,0,.3.3.5.7.5,1.2s-.2.9-.6,1.2c-.3.3-.7.4-1.1.4ZM175.9,5.9c-.3,0-.5,0-.7.3-.3.2-.4.5-.4.9h0c0,.6.4,1.1,1,1.1,0,0,.1,0,.2,0,.3,0,.6-.1.8-.3.2-.2.4-.5.4-.8s-.1-.6-.4-.8h0c-.2-.2-.5-.3-.7-.3Z"/>
    <path d="M175.9,8.7c0,0-.2,0-.3,0-.8,0-1.4-.8-1.4-1.6h0c0-.6.2-1,.6-1.3.6-.5,1.5-.5,2.1,0,0,0,0,0,0,0,.3.3.5.7.5,1.2s-.2.9-.6,1.2c-.3.3-.7.4-1.1.4ZM175.9,5.9c-.3,0-.5,0-.7.3-.3.2-.4.5-.4.9h0c0,.6.4,1.1,1,1.1,0,0,.1,0,.2,0,.3,0,.6-.1.8-.3.2-.2.4-.5.4-.8s-.1-.6-.4-.8h0c-.2-.2-.5-.3-.7-.3Z"/>
    <ellipse cx="175.9" cy="7.1" rx=".7" ry=".7"/>
    <polygon class="st5" points="104 4.2 105.4 3.2 105.4 5.3 104 4.2"/>
    <polygon class="st5" points="74.8 244.3 1 244.3 1 229.6 0 228.2 0 228 1.2 229.5 1.2 244 74.8 244 74.8 244.3"/>
    <polygon class="st5" points="9.9 244.3 9.7 244.1 11.3 242.5 6.2 242.5 6.2 242.3 11.9 242.3 9.9 244.3"/>
    <polygon points="3.2 242.5 3 242.5 3 242.4 3.1 242.4 3.1 242.3 3.2 242.3 3.2 242.4 3.2 242.4 3.2 242.4 3.2 242.4 3.2 242.5"/>
    <polygon class="st5" points="3.2 239.2 3 239.2 3 234.3 1.2 236.1 1 235.9 3.2 233.7 3.2 239.2"/>
    <polygon class="st5" points="8.6 242.5 8.4 242.3 9.3 241.4 6.4 241.4 6.4 241.2 9.9 241.2 8.6 242.5"/>
    <polygon class="st5" points="4.4 239 4.1 239 4.1 236.3 3.2 237.2 3 237 4.4 235.7 4.4 239"/>
    <path d="M4.1,243.9c-1.4,0-2.6-1.2-2.6-2.6s.6-1.9,1.6-2.4c.4-.2.9-.3,1.3-.2,1.3,0,2.4,1.2,2.4,2.5,0,.5-.1.9-.3,1.2h0c-.4.9-1.3,1.4-2.3,1.4ZM4.1,239.2c-.3,0-.6,0-.9.2-.8.3-1.3,1.1-1.3,1.9s.9,2.1,2.1,2.1,1.5-.4,1.9-1.1h0c.2-.3.2-.6.2-1,0-1.1-.9-2-1.9-2.1,0,0-.1,0-.1,0ZM4.1,243c-.4,0-.8-.1-1-.4,0,0,0,0,0,0-.3-.3-.5-.7-.5-1.2s.2-.9.6-1.2c.3-.3.7-.4,1.1-.4s.2,0,.2,0c.8.1,1.4.8,1.4,1.6,0,.6-.2,1-.6,1.3-.3.2-.7.4-1,.4ZM4.1,240.2c-.3,0-.6.1-.8.3-.2.2-.4.5-.4.8s.1.6.4.8h0c.4.4,1.1.4,1.5,0,.3-.2.4-.5.4-.9,0-.6-.4-1.1-1-1.1h0s0,0-.1,0Z"/>
    <path d="M4.1,243c-.4,0-.8-.1-1-.4,0,0,0,0,0,0-.3-.3-.5-.7-.5-1.2s.2-.9.6-1.2c.3-.3.7-.4,1.1-.4s.2,0,.3,0c.8,0,1.4.8,1.4,1.6h0c0,.6-.2,1-.6,1.3-.3.2-.7.4-1,.4ZM4.1,240.2c-.3,0-.6.1-.8.3-.2.2-.4.5-.4.8s.1.6.4.8h0c.4.4,1.1.4,1.5,0,.3-.2.4-.5.4-.9h0c0-.6-.4-1.1-1-1.1,0,0-.1,0-.2,0Z"/>
    <path d="M4.1,243c-.4,0-.8-.1-1-.4,0,0,0,0,0,0-.3-.3-.5-.7-.5-1.2s.2-.9.6-1.2c.3-.3.7-.4,1.1-.4s.2,0,.3,0c.8,0,1.4.8,1.4,1.6h0c0,.6-.2,1-.6,1.3-.3.2-.7.4-1,.4ZM4.1,240.2c-.3,0-.6.1-.8.3-.2.2-.4.5-.4.8s.1.6.4.8h0c.4.4,1.1.4,1.5,0,.3-.2.4-.5.4-.9h0c0-.6-.4-1.1-1-1.1,0,0-.1,0-.2,0Z"/>
    <ellipse cx="4.1" cy="241.3" rx=".7" ry=".7"/>
    <polygon class="st5" points="76 244.2 74.6 245.2 74.6 243.1 76 244.2"/>
    <polygon class="st5" points="179 244.3 105.2 244.3 105.2 244 178.8 244 178.8 229.5 179.9 228 180.1 228.2 179 229.5 179 244.3"/>
    <polygon class="st5" points="170.1 244.2 168.1 242.2 173.8 242.2 173.8 242.5 168.7 242.5 170.3 244 170.1 244.2"/>
    <polygon points="177 242.5 176.8 242.5 176.8 242.4 176.8 242.4 176.8 242.3 176.8 242.3 176.8 242.2 176.9 242.2 176.9 242.3 177 242.3 177 242.5"/>
    <polygon class="st5" points="177 239.2 176.8 239.2 176.8 233.7 179 235.9 178.8 236.1 177 234.3 177 239.2"/>
    <polygon class="st5" points="171.4 242.5 170.1 241.1 173.6 241.1 173.6 241.4 170.7 241.4 171.6 242.3 171.4 242.5"/>
    <polygon class="st5" points="175.9 239 175.6 239 175.6 235.7 177 237 176.8 237.2 175.9 236.3 175.9 239"/>
    <path d="M175.9,243.9c-1,0-1.9-.5-2.3-1.4-.2-.4-.3-.8-.3-1.2,0-1.4,1.1-2.5,2.4-2.6,0,0,.1,0,.2,0,.4,0,.7,0,1,.2,1,.4,1.6,1.4,1.6,2.4s-1.2,2.6-2.6,2.6ZM175.9,239.2s0,0-.1,0c-1.1,0-1.9,1-2,2,0,.4,0,.7.2,1h0c.4.7,1.1,1.1,1.9,1.1,1.2,0,2.1-.9,2.1-2.1s-.5-1.6-1.3-1.9c-.3-.1-.6-.2-.9-.2ZM175.9,242.9c-.4,0-.8-.1-1-.4-.4-.3-.6-.8-.6-1.3,0-.8.6-1.5,1.4-1.6,0,0,.2,0,.2,0,.4,0,.8.2,1.1.4.3.3.6.7.6,1.2s-.2.9-.5,1.2c0,0-.1,0-.1.1-.2.2-.6.3-1,.3ZM175.9,240.1s0,0-.1,0h0c-.6,0-1,.5-1,1.1,0,.4.2.7.4.9.4.4,1.1.3,1.5,0l.2.2v-.2c.1-.2.3-.5.3-.9s-.1-.6-.4-.8c-.2-.2-.5-.3-.8-.3Z"/>
    <path d="M175.9,242.9c-.4,0-.8-.1-1-.4-.4-.3-.6-.8-.6-1.3h0c0-.9.6-1.5,1.4-1.6,0,0,.1,0,.2,0,.4,0,.8.2,1.1.4.3.3.6.7.6,1.2s-.2.9-.5,1.2c0,0-.1,0-.1.1-.2.2-.6.3-1,.3ZM175.9,240.1s0,0-.1,0c-.6,0-1,.5-1,1.1h-.2s.2,0,.2,0c0,.4.2.7.4.9.4.4,1.1.3,1.5,0l.2.2v-.2c.1-.2.3-.5.3-.9s-.1-.6-.4-.8c-.2-.2-.5-.3-.8-.3Z"/>
    <path d="M175.9,242.9c-.4,0-.8-.1-1-.4-.4-.3-.6-.8-.6-1.3h0c0-.9.6-1.5,1.4-1.6,0,0,.1,0,.2,0,.4,0,.8.2,1.1.4.3.3.6.7.6,1.2s-.2.9-.5,1.2c0,0-.1,0-.1.1-.2.2-.6.3-1,.3ZM175.9,240.1s0,0-.1,0c-.6,0-1,.5-1,1.1h-.2s.2,0,.2,0c0,.4.2.7.4.9.4.4,1.1.3,1.5,0l.2.2v-.2c.1-.2.3-.5.3-.9s-.1-.6-.4-.8c-.2-.2-.5-.3-.8-.3Z"/>
    <ellipse cx="175.9" cy="241.3" rx=".7" ry=".7"/>
    <polygon class="st5" points="104 244.1 105.4 245.2 105.4 243.1 104 244.1"/>
  </g>
</svg>