<?xml version="1.0" encoding="UTF-8"?>
<svg id="Layer_1" xmlns="http://www.w3.org/2000/svg" version="1.1" xmlns:xlink="http://www.w3.org/1999/xlink" viewBox="0 0 53 50">
  <!-- Generator: Adobe Illustrator 29.0.1, SVG Export Plug-In . SVG Version: 2.1.0 Build 192)  -->
  <defs>
    <style>
      .st0 {
        stroke-width: .5px;
      }

      .st0, .st1 {
        stroke-miterlimit: 10;
      }

      .st0, .st1, .st2, .st3 {
        fill: none;
      }

      .st0, .st1, .st3 {
        stroke: #000;
      }

      .st4 {
        fill: #1f1f1f;
      }

      .st5 {
        display: none;
      }

      .st3 {
        stroke-linejoin: bevel;
      }

      .st6 {
        fill: #353535;
      }

      .st7 {
        clip-path: url(#clippath);
      }

      .st8 {
        opacity: .5;
      }
    </style>
    <clipPath id="clippath">
      <rect class="st2" y="0" width="52.2" height="49.3"/>
    </clipPath>
  </defs>
  <g id="Layer_11" data-name="Layer_1" class="st5">
    <g class="st8">
      <g class="st7">
        <g>
          <path class="st6" d="M51.6,5v39.1l-4.2,4.2H5.1l-4.2-4.2V5L5.1.8h42.3l4.2,4.2Z"/>
          <path class="st4" d="M46.7,47.9h-2.7c2-.9,3.8-2.4,5-4.2h0c.8-1.2,1.4-2.5,1.8-3.8v3.9l-4.1,4.2h0ZM1.4,43.7v-3.9c.4,1.3,1,2.6,1.8,3.8h0c1.2,1.9,3,3.4,5.1,4.2h-2.7l-4.2-4.2h0ZM5.6,1.4h2.7c-2.1.9-3.8,2.4-5.1,4.2h0c-.8,1.2-1.4,2.5-1.8,3.8v-3.9L5.6,1.4ZM49.1,6.8c.2.3.3.6.5.9.6,1.3,1,2.6,1.3,3.9v25.9c-.3,1.7-1,3.3-1.8,4.9V6.8ZM1.4,11.7c.3-1.7,1-3.3,1.8-4.9v35.6c-.2-.3-.3-.6-.5-.9-.6-1.3-1-2.6-1.3-3.9,0,0,0-25.9,0-25.9ZM42,47.9H10.2c-2.6-.6-4.8-2.1-6.3-4.3V5.7c1.5-2.2,3.7-3.7,6.3-4.3h31.8c2.5.6,4.8,2.1,6.3,4.3v38c-1.5,2.1-3.7,3.6-6.3,4.2ZM50.9,5.6v3.9c-.4-1.3-1-2.6-1.8-3.8h0c-1.2-2-3-3.4-5.1-4.3h2.7s4.2,4.2,4.2,4.2ZM47.2,0H5L0,5v39.3l5,5h42.2l5-5V5L47.2,0Z"/>
        </g>
      </g>
    </g>
  </g>
  <g id="Layer_2">
    <g>
      <path class="st1" d="M47.6.5H4.6L.6,4.6v40.1l4,4h43l4-4V4.5L47.6.5ZM49.5,37.9l-8.7,8.7H11.4l-8.7-8.7V11.3l5.4-5.4,1.2-1.1,2.2-2.2h29.2l2.2,2.2,1.2,1.2.9.9,1.4,1.4,1.2,1.2,1.9,1.9v26.6Z"/>
      <polygon class="st3" points="11.5 2.5 9.3 4.7 8.1 5.9 2.7 11.3 2.7 2.5 11.5 2.5"/>
      <polygon class="st3" points="11.4 46.6 2.7 46.6 2.7 37.9 11.4 46.6"/>
      <polygon class="st3" points="49.5 2.5 49.5 11.3 47.6 9.4 46.3 8.1 45 6.8 44 5.8 42.9 4.7 40.7 2.5 49.5 2.5"/>
      <polygon class="st3" points="49.5 37.9 49.5 46.6 40.8 46.6 49.5 37.9"/>
      <g>
        <g>
          <line class="st0" x1="4.6" y1="9.4" x2="2.7" y2="8"/>
          <line class="st0" x1="5.9" y1="8.1" x2="2.7" y2="5.6"/>
          <line class="st0" x1="7.2" y1="6.8" x2="2.7" y2="2.5"/>
          <line class="st0" x1="8.1" y1="5.9" x2="4.9" y2="2.5"/>
          <line class="st0" x1="9.3" y1="4.7" x2="7.4" y2="2.5"/>
        </g>
        <g>
          <line class="st0" x1="49.5" y1="40.9" x2="47.8" y2="39.6"/>
          <line class="st0" x1="49.5" y1="43.3" x2="46.5" y2="40.9"/>
          <line class="st0" x1="49.5" y1="46.5" x2="45.1" y2="42.3"/>
          <polyline class="st0" points="47.4 46.8 47.2 46.6 44.1 43.3"/>
          <polyline class="st0" points="44.8 46.8 44.6 46.6 42.9 44.5"/>
        </g>
        <g>
          <g>
            <line class="st0" x1="49.5" y1="8" x2="47.6" y2="9.4"/>
            <line class="st0" x1="49.5" y1="5.6" x2="46.4" y2="8.1"/>
            <line class="st0" x1="49.5" y1="2.5" x2="45" y2="6.8"/>
            <line class="st0" x1="47.2" y1="2.5" x2="44" y2="5.8"/>
            <line class="st0" x1="44.7" y1="2.5" x2="42.9" y2="4.7"/>
          </g>
          <g>
            <line class="st0" x1="4.4" y1="39.6" x2="2.7" y2="40.9"/>
            <line class="st0" x1="5.7" y1="40.9" x2="2.7" y2="43.3"/>
            <line class="st0" x1="7.1" y1="42.3" x2="2.7" y2="46.5"/>
            <polyline class="st0" points="4.8 46.8 5 46.6 8.1 43.3"/>
            <polyline class="st0" points="7.4 46.8 7.6 46.6 9.3 44.5"/>
          </g>
        </g>
      </g>
      <polygon class="st0" points="40.8 46.6 40.7 46.7 11.5 46.7 11.4 46.6 40.8 46.6"/>
    </g>
  </g>
</svg>