<?xml version="1.0" encoding="UTF-8"?>
<svg xmlns="http://www.w3.org/2000/svg" version="1.1" viewBox="0 0 180 247.4">
  <!-- Generator: Adobe Illustrator 29.1.0, SVG Export Plug-In . SVG Version: 2.1.0 Build 142)  -->
  <defs>
    <style>
      .st0 {
        display: none;
      }

      .st1 {
        fill: #dcddde;
      }
    </style>
  </defs>
  <g id="Layer_1" class="st0">
    <path class="st1" d="M10.4,0h-5.9C3.7,2,0,4.2,0,4.2v2.6C2.9,3.7,6.5,1.4,10.4,0"/>
    <path class="st1" d="M169.6,247.4h5.9c.9-2,4.6-4.1,4.6-4.1v-2.6c-2.9,3-6.5,5.3-10.4,6.7"/>
    <path class="st1" d="M180,6.7v-2.6S176.4,2,175.4,0h-5.9c4,1.4,7.5,3.7,10.4,6.7"/>
    <path class="st1" d="M0,240.7v2.6s3.7,2.2,4.6,4.1h5.9c-4-1.4-7.5-3.7-10.4-6.7"/>
    <path class="st1" d="M0,227.1v9.6c.3.4.6,1,1,1.5-.4-2-.3-4.2.3-6.1l-1.3-5Z"/>
    <path class="st1" d="M168.6,244.8h-62.2c-.1.3-.4.4-.7.4-.4,0-.8-.3-.9-.7,0-.4.3-.8.7-.9,0,0,.1,0,.2,0,.3,0,.5.2.7.4h62.2c3.8-.1,7.4-1.9,9.7-4.9.6-2.3.6-4.7-.1-6.9h0c0-.1,1.8-7,1.8-7V22.2l-1.9-6.9h0c.7-2.3.7-4.7.1-7-2.3-3-5.9-4.8-9.7-4.9h-62.2c-.1.3-.4.4-.7.4-.4,0-.8-.3-.9-.7s.3-.8.7-.9c0,0,.1,0,.2,0,.3,0,.5.2.7.4h62.2c5.7,0,9.5,4,11.4,6.7v-1.9C176.7,3.9,172.5,1.3,167.8,0H12.2C7.5,1.3,3.3,3.9,0,7.4v1.9C1.9,6.6,5.7,2.6,11.4,2.6h62.2c.1-.3.4-.4.7-.4.4,0,.8.3.9.7,0,.4-.3.8-.7.9,0,0-.1,0-.2,0-.3,0-.5-.2-.7-.4H11.4c-3.8.1-7.4,1.9-9.7,4.9-.6,2.3-.6,4.7.1,6.9h0c0,.1-1.8,7-1.8,7v202.9l1.9,6.9h0c-.7,2.3-.7,4.7-.1,7,2.3,3,5.9,4.8,9.7,4.9h62.2c.1-.3.4-.4.7-.4.4,0,.8.3.9.7,0,.4-.3.8-.7.9,0,0-.1,0-.2,0-.3,0-.5-.2-.7-.4H11.4c-5.7,0-9.5-3.9-11.4-6.7v1.9c3.3,3.6,7.5,6.2,12.2,7.4h155.5c4.7-1.3,9-3.9,12.2-7.4v-1.9c-1.9,2.8-5.7,6.7-11.4,6.7"/>
    <path class="st1" d="M0,10.7v9.6l1.3-5c-.6-2-.7-4.1-.3-6.1-.4.5-.8,1.1-1,1.5"/>
    <path class="st1" d="M180,20.3v-9.6c-.3-.4-.6-1-1-1.5.4,2,.3,4.1-.3,6.1l1.3,5Z"/>
    <path class="st1" d="M179,238.2c.4-2,.3-4.2-.3-6.1l1.3-5v9.6c-.3.4-.6,1-1,1.5"/>
  </g>
  <g id="Layer_2">
    <g>
      <path class="st1" d="M12.1,3.5h-3.7c-.2,2.6-2.2,4.7-4.8,5.2v3.8c4.6-.4,8.3-4.2,8.5-8.9Z"/>
      <path class="st1" d="M171.7,3.5c.2,2.1,1.8,3.8,3.8,4.1v-1.8l-2.3-2.3h-1.5Z"/>
      <path class="st1" d="M5.9,3.5l-2.3,2.3v1.8c2-.4,3.5-2.1,3.8-4.1h-1.5Z"/>
      <polygon class="st1" points="155.2 245.3 173.8 245.3 177.2 242 177.2 229.9 179.7 225.8 180 226 180 220.3 176.5 226.4 176.5 241.5 173.6 244.5 154.2 244.5 155.2 245.3"/>
      <polygon class="st1" points="23.9 1.6 5.3 1.6 1.9 4.9 1.9 17.1 0 20.2 0 25.1 2.6 20.5 2.6 5.4 5.5 2.5 24.9 2.5 23.9 1.6"/>
      <polygon class="st1" points="180 26.6 180 20.9 179.7 21.1 177.2 17.1 177.2 4.9 173.8 1.6 155.2 1.6 154.2 2.5 173.6 2.5 176.5 5.4 176.5 20.5 180 26.6"/>
      <path class="st1" d="M170.7,3.5h-3.7c.2,4.7,3.9,8.5,8.5,8.9v-3.8c-2.6-.4-4.6-2.5-4.8-5.2Z"/>
      <path class="st1" d="M167,243.5h3.7c.2-2.6,2.2-4.7,4.8-5.2v-3.8c-4.6.4-8.3,4.2-8.5,8.9Z"/>
      <polygon class="st1" points="0 221.8 0 226.8 1.9 229.9 1.9 242 5.3 245.3 23.9 245.3 24.9 244.5 5.5 244.5 2.6 241.5 2.6 226.4 0 221.8"/>
      <path class="st1" d="M178,230.1v12.3l-3.9,3.7h-19.2l-1.9-1.6h-45.5v1.5l-2-2,2-2v1.5h58.5c.2-5.2,4.3-9.5,9.5-9.9v-7.4l4.1-7.1.4.2V27.6l-.4.2-4.1-7.1v-7.4c-5.2-.5-9.3-4.7-9.5-9.9h-58.5v1.5l-2-2,2-2v1.5h45.5l1.9-1.6h19.2l3.9,3.7v12.3l2,3.3V4.8L175.2,0H4.8L0,4.8v14l1.1-1.9V4.6L5,.9h19.2l1.9,1.6h45.5V1l2,2-2,2v-1.5H13.1c-.2,5.2-4.3,9.5-9.5,9.9v7.4l-3.6,6.3v192.7l3.6,6.3v7.4c5.2.5,9.3,4.7,9.5,9.9h58.5v-1.5l2,2-2,2v-1.5H26.1l-1.9,1.6H5l-3.9-3.7v-12.3l-1.1-1.9v14.4l4.8,4.8h170.5l4.8-4.8v-15.9l-2,3.3Z"/>
      <path class="st1" d="M173.2,243.5l2.3-2.3v-1.8c-2,.4-3.5,2.1-3.8,4.1h1.5Z"/>
      <path class="st1" d="M7.4,243.5c-.2-2.1-1.8-3.7-3.8-4.1v1.8l2.3,2.3h1.5Z"/>
      <path class="st1" d="M8.4,243.5h3.7c-.2-4.7-3.9-8.5-8.5-8.9v3.8c2.6.4,4.6,2.5,4.8,5.2Z"/>
    </g>
  </g>
</svg>