<?xml version="1.0" encoding="UTF-8"?>
<svg xmlns="http://www.w3.org/2000/svg" version="1.1" xmlns:xlink="http://www.w3.org/1999/xlink" viewBox="0 0 180 248">
  <!-- Generator: Adobe Illustrator 29.0.1, SVG Export Plug-In . SVG Version: 2.1.0 Build 192)  -->
  <defs>
    <style>
      .st0 {
        fill: #333;
      }

      .st1 {
        fill: none;
      }

      .st2 {
        display: none;
      }

      .st3 {
        fill: #353535;
      }

      .st4 {
        clip-path: url(#clippath);
      }
    </style>
    <clipPath id="clippath">
      <rect class="st1" y=".3" width="180" height="247.4"/>
    </clipPath>
  </defs>
  <g id="Layer_1" class="st2">
    <g class="st4">
      <g>
        <path class="st3" d="M10.4.3h-5.9C3.7,2.3,0,4.5,0,4.5v2.6C2.9,4,6.5,1.7,10.4.3"/>
        <path class="st3" d="M169.6,247.7h5.9c.9-2,4.6-4.1,4.6-4.1v-2.6c-2.9,3-6.5,5.3-10.4,6.7Z"/>
        <path class="st3" d="M180,7v-2.6s-3.6-2.2-4.6-4.2h-5.9c4,1.4,7.5,3.7,10.4,6.7Z"/>
        <path class="st3" d="M0,241v2.6s3.7,2.2,4.6,4.1h5.9c-4-1.4-7.5-3.7-10.4-6.7"/>
        <path class="st3" d="M0,227.4v9.6c.3.4.6,1,1,1.5-.4-2-.3-4.2.3-6.1l-1.3-5Z"/>
        <path class="st3" d="M168.6,245.1h-62.2c0,.1-.2.2-.3.3-.1,0-.3.1-.4.1-.1,0-.2,0-.3,0-.1,0-.2,0-.3-.2,0,0-.1-.2-.2-.3,0-.1,0-.2,0-.3s0-.2,0-.3c0-.1.1-.2.2-.3,0,0,.2-.1.3-.2.1,0,.2,0,.3,0,.1,0,.3,0,.4.1.1,0,.2.2.3.3h62.2c1.9,0,3.7-.5,5.4-1.4,1.7-.9,3.1-2.1,4.3-3.5.6-2.3.6-4.7,0-6.9h0c0-.1,1.8-7,1.8-7V22.5l-1.9-6.9h0c.7-2.3.7-4.7.1-7-1.2-1.5-2.6-2.7-4.3-3.6-1.7-.9-3.5-1.3-5.4-1.4h-62.2c0,.1-.2.2-.3.3-.1,0-.3.1-.4.1-.1,0-.2,0-.3,0-.1,0-.2,0-.3-.2,0,0-.1-.2-.2-.3,0-.1,0-.2,0-.3s0-.2,0-.3c0-.1.1-.2.2-.3,0,0,.2-.1.3-.2.1,0,.2,0,.3,0,.1,0,.3,0,.4.1.1,0,.2.2.3.3h62.2c5.7,0,9.5,4,11.4,6.7v-1.9c-3.3-3.6-7.5-6.2-12.2-7.5H12.2C7.5,1.6,3.3,4.2,0,7.8v1.9C1.9,6.9,5.7,2.9,11.4,2.9h62.2c0-.1.2-.2.3-.3.1,0,.3-.1.4-.1.1,0,.2,0,.3,0,.1,0,.2,0,.3.2,0,0,.1.2.2.3,0,.1,0,.2,0,.3s0,.2,0,.3c0,.1-.1.2-.2.3,0,0-.2.1-.3.2-.1,0-.2,0-.3,0-.1,0-.3,0-.4-.1-.1,0-.2-.2-.3-.3H11.4c-1.9,0-3.7.5-5.4,1.4-1.7.9-3.1,2.1-4.3,3.6-.6,2.3-.6,4.7.1,6.9h0c0,.1-1.8,7-1.8,7v202.9l1.9,6.9h0c-.7,2.3-.7,4.7-.1,7,1.2,1.5,2.6,2.7,4.3,3.6,1.7.9,3.5,1.3,5.4,1.4h62.2c0-.1.2-.2.3-.3.1,0,.3-.1.4-.1.1,0,.2,0,.3,0,.1,0,.2,0,.3.2,0,0,.1.2.2.3,0,.1,0,.2,0,.3s0,.2,0,.3c0,.1-.1.2-.2.3,0,0-.2.1-.3.2-.1,0-.2,0-.3,0-.1,0-.3,0-.4-.1-.1,0-.2-.2-.3-.3H11.4c-5.7,0-9.5-3.9-11.4-6.7v1.9c3.3,3.6,7.5,6.2,12.2,7.4h155.5c4.7-1.3,9-3.9,12.2-7.4v-1.9c-1.9,2.8-5.7,6.7-11.4,6.7Z"/>
        <path class="st3" d="M0,11v9.6l1.3-5c-.6-2-.7-4.1-.3-6.1-.4.5-.8,1.1-1,1.5Z"/>
        <path class="st3" d="M180,20.6v-9.6c-.3-.4-.6-1-1-1.5.4,2,.3,4.1-.3,6.1l1.3,5Z"/>
        <path class="st3" d="M179,238.5c.4-2,.3-4.2-.3-6.1l1.3-5v9.6c-.3.4-.6,1-1,1.5"/>
      </g>
    </g>
  </g>
  <g id="Layer_2">
    <g>
      <path class="st0" d="M4.2,8.2c.6,0,1-.5,1-1.1,0-.4-.2-.7-.4-.9-.2-.2-.5-.3-.7-.3s-.5,0-.7.3h0c-.2.3-.4.6-.4.9s.1.6.4.8c.2.2.5.3.8.3s0,0,.1,0ZM3.3,7c0-.4.3-.7.7-.7s.7.3.7.7-.3.7-.7.7-.7-.3-.7-.7Z"/>
      <path class="st0" d="M4.1,9.6s0,0,0,0c-.3,0-.6,0-.8-.1v1.7l.9.9v-2.4Z"/>
      <path class="st0" d="M8.5,6.1h-2c.1.3.2.6.2.9h2.7l-.9-.9Z"/>
      <path class="st0" d="M179,229.5v14.7h-73.6v.9l-1.4-1,1.4-1v.9h64.5l-1.8-1.8h3.1l-1.1-1.1h3.3c0-1.3,1-2.2,2.3-2.4v-3.1l1.1,1.1v-3.1l2,2v-6.2l1.1-1.4h0c0,0,0-207.7,0-207.7h0c0,0-1.1-1.4-1.1-1.4v-6.2l-2,2v-3.1l-1.1,1.1v-3.1c-1.2-.1-2.2-1.1-2.3-2.4h-3.3l1.1-1.1h-3.1l1.8-1.8h-64.5v.9l-1.4-1,1.4-1v.9h73.6v14.7l1,1.3V4.4l-4.4-4.4H4.4L0,4.4v15.6l1-1.3V4.1h73.6v-.9l1.4,1-1.4,1v-.9H10.1l1.8,1.8h-3.1l1.1,1.1h-3.3c0,1.3-1,2.2-2.3,2.4v3.1l-1.1-1.1v3.1l-2-2v6.2l-1.1,1.4h0c0,0,0,207.8,0,207.8h0c0,0,1.1,1.4,1.1,1.4v6.2l2-2v3.1l1.1-1.1v3.1c1.2.1,2.2,1.1,2.3,2.4h3.3l-1.1,1.1h3.1l-1.8,1.8h64.5v-.9l1.4,1-1.4,1v-.9H1v-14.7l-1-1.3v15.3l4.4,4.4h171.2l4.4-4.4v-15.3l-1,1.3Z"/>
      <path class="st0" d="M6.2,7.1c0-.4,0-.7-.2-1h0c-.4-.7-1.1-1.1-1.9-1.1-1.2,0-2.1.9-2.1,2.1s.5,1.6,1.3,1.9c.3.1.6.2.9.2,0,0,0,0,.1,0,1.1,0,1.9-1,2-2ZM4.3,8.7s0,0,0,0c0,0,0,0,0,0,0,0-.1,0-.2,0-.4,0-.8-.2-1.1-.4-.3-.3-.6-.7-.6-1.2s.2-.9.5-1.2c0,0,.1,0,.1-.1.5-.4,1.5-.5,2.1,0,.4.3.6.8.6,1.3h0c0,.6-.3,1.1-.7,1.4,0,0,0,0-.1,0,0,0-.2,0-.3,0,0,0-.2,0-.3,0Z"/>
      <path class="st0" d="M175.9,9.6v2.4l.9-.9v-1.7c-.3,0-.5.1-.8.1s0,0,0,0Z"/>
      <path class="st0" d="M170.7,7h2.7c0-.3,0-.6.2-.9h-2l-.9.9Z"/>
      <path class="st0" d="M9.3,241.4h-2.7c0,.3,0,.6-.2.9h2l.9-.9Z"/>
      <path class="st0" d="M4.1,238.7v-2.4l-.9.9v1.7c.3,0,.6-.1.9-.1Z"/>
      <path class="st0" d="M4.2,240.2c0,0-.1,0-.2,0-.3,0-.6.1-.8.3-.2.2-.4.5-.4.8s.1.6.4.8h0c.4.4,1.1.4,1.5,0,.3-.2.4-.5.4-.9,0-.6-.4-1.1-1-1.1ZM4.1,242c-.4,0-.7-.3-.7-.7s.3-.7.7-.7.7.3.7.7-.3.7-.7.7Z"/>
      <path class="st0" d="M1.2,244h8.5l1.5-1.5h-4.9c-.5.8-1.3,1.4-2.3,1.4-1.4,0-2.6-1.2-2.6-2.6s.6-1.9,1.5-2.4v-4.6l-1.8,1.7v8Z"/>
      <path class="st0" d="M4.2,239.3c0,0-.1,0-.1,0-.3,0-.6,0-.9.2-.8.3-1.3,1.1-1.3,1.9s.9,2.1,2.1,2.1,1.5-.4,1.9-1.1h0c.2-.3.2-.6.2-1,0-1.1-.9-2-1.9-2.1ZM5.7,241.3c0,.5-.2,1-.6,1.3-.3.2-.7.4-1,.4s-.8-.1-1-.4c0,0,0,0,0,0-.3-.3-.5-.7-.5-1.2s.2-.9.6-1.2c.3-.3.7-.4,1.1-.4s.2,0,.2,0c0,0,0,0,0,0,0,0,0,0,0,0,.6,0,1.1.5,1.3,1,0,.2.1.4.1.6h0Z"/>
      <path class="st0" d="M1.2,12.3l1.8,1.7v-4.6c-.9-.4-1.5-1.3-1.5-2.4,0-1.4,1.2-2.6,2.6-2.6s1.9.5,2.3,1.4h4.9l-1.5-1.5H1.2v8Z"/>
      <path class="st0" d="M171.5,242.2h2c-.1-.3-.2-.6-.2-.9h-2.7l.9.9Z"/>
      <path class="st0" d="M178.8,236l-1.8-1.7v4.6c.9.4,1.5,1.3,1.5,2.4,0,1.4-1.2,2.6-2.6,2.6s-1.9-.5-2.3-1.4h-4.9l1.5,1.5h8.5v-8Z"/>
      <path class="st0" d="M178.8,4.4h-8.5l-1.5,1.5h4.9c.5-.8,1.3-1.4,2.3-1.4,1.4,0,2.6,1.2,2.6,2.6s-.6,1.9-1.5,2.4v4.6l1.8-1.7v-8Z"/>
      <path class="st0" d="M173.8,241.3c0,.4,0,.7.2,1h0c.4.7,1.1,1.1,1.9,1.1,1.2,0,2.1-.9,2.1-2.1s-.5-1.6-1.3-1.9c-.3-.1-.6-.2-.9-.2,0,0,0,0-.1,0-1.1,0-1.9,1-2,2ZM175.7,239.7s0,0,0,0c0,0,0,0,0,0,0,0,.1,0,.2,0,.4,0,.8.2,1.1.4.3.3.6.7.6,1.2s-.2.9-.5,1.2c0,0-.1,0-.1.1-.2.2-.6.3-1,.3s-.8-.1-1-.4c-.4-.3-.6-.8-.6-1.3h0c0-.6.3-1.1.7-1.3,0,0,0,0,.1,0,0,0,.2,0,.3,0,0,0,.2,0,.3,0Z"/>
      <path class="st0" d="M175.9,238.7s0,0,0,0c.3,0,.6,0,.8.1v-1.7l-.9-.9v2.4Z"/>
      <path class="st0" d="M175.8,9.1c0,0,.1,0,.2,0,.3,0,.6,0,.9-.2.8-.3,1.3-1.1,1.3-1.9s-.9-2.1-2.1-2.1-1.5.4-1.9,1.1h0c-.2.3-.2.6-.2,1,0,1.1.9,2,1.9,2.1ZM174.3,7.1c0-.5.2-1,.6-1.3.6-.5,1.5-.5,2.1,0,0,0,0,0,0,0,.3.3.5.7.5,1.2s-.2.9-.6,1.2c-.3.3-.7.4-1.1.4s-.2,0-.2,0c0,0,0,0,0,0,0,0,0,0,0,0-.6,0-1.1-.5-1.3-1,0-.2-.1-.4-.1-.6h0Z"/>
      <path class="st0" d="M175.8,240.1c-.6,0-1,.5-1,1.1,0,.4.2.7.4.9.4.4,1.1.3,1.5,0h.1c0,.1,0,.1,0,.1v-.2c.2-.2.3-.5.3-.9s-.1-.6-.4-.8c-.2-.2-.5-.3-.8-.3s0,0-.1,0ZM176.7,241.3c0,.4-.3.7-.7.7s-.7-.3-.7-.7.3-.7.7-.7.7.3.7.7Z"/>
      <path class="st0" d="M175.8,8.2c0,0,.1,0,.2,0,.3,0,.6-.1.8-.3.2-.2.4-.5.4-.8s-.1-.6-.4-.8h0c-.2-.2-.5-.3-.7-.3s-.5,0-.7.3c-.3.2-.4.5-.4.9,0,.6.4,1.1,1,1.1ZM175.9,6.3c.4,0,.7.3.7.7s-.3.7-.7.7-.7-.3-.7-.7.3-.7.7-.7Z"/>
    </g>
  </g>
</svg>