<?xml version="1.0" encoding="UTF-8"?>
<svg id="Layer_1" xmlns="http://www.w3.org/2000/svg" version="1.1" viewBox="0 0 82 103.5">
  <!-- Generator: Adobe Illustrator 29.0.1, SVG Export Plug-In . SVG Version: 2.1.0 Build 192)  -->
  <defs>
    <style>
      .st0 {
        stroke-width: .8px;
      }

      .st0, .st1, .st2, .st3, .st4 {
        stroke-miterlimit: 10;
      }

      .st0, .st3, .st4 {
        fill: #1f1f1f;
        stroke: #666766;
      }

      .st5, .st1, .st6 {
        stroke: #231f20;
      }

      .st5, .st2, .st6 {
        fill: none;
      }

      .st5, .st3 {
        stroke-width: .5px;
      }

      .st5, .st6 {
        stroke-linejoin: bevel;
      }

      .st1 {
        fill: #fff;
      }

      .st2 {
        stroke: #666766;
      }

      .st6 {
        stroke-width: .2px;
      }
    </style>
  </defs>
  <path class="st6" d="M81,22.1"/>
  <path class="st6" d="M81,16.8"/>
  <path class="st5" d="M80.8,21.8"/>
  <path class="st5" d="M80.8,16.8"/>
  <path class="st1" d="M78,53.7"/>
  <path class="st1" d="M78,18.1"/>
  <path class="st1" d="M78,52"/>
  <path class="st1" d="M78,87.5"/>
  <path class="st3" d="M41.3-3"/>
  <path class="st4" d="M66,90.2H16c0,1.1-.9,2-1.9,2v5.6c1.1,0,1.9.9,1.9,2h49.9c0-1.1.9-2,1.9-2v-5.6c-1.1,0-1.9-.9-1.9-2h0Z"/>
  <path class="st3" d="M64.1,92H18.5c0,1.1-.9,2-1.9,2v2c1.1,0,1.9.9,1.9,2h45.7c0-1.1.9-2,1.9-2v-2c-1.1,0-1.9-.9-1.9-2h0Z"/>
  <path class="st1" d="M4.7,53.7"/>
  <path class="st1" d="M4.7,18.1"/>
  <g>
    <path class="st4" d="M8.3,95c0-2.6-2.1-4.8-4.7-4.8v4.8h4.7Z"/>
    <path class="st4" d="M78.4,18.1v69.4c-4,0-7.4,3.3-7.4,7.5H10.9c0-4.1-3.3-7.5-7.4-7.5V18.1c4,0,7.3-4.6,7.3-8.7h60.2c0,4.1,3.3,8.7,7.4,8.7Z"/>
    <path class="st3" d="M75.6,20.7v64.2c-4,0-7.4,3.3-7.4,7.5H13.7c0-4.1-3.3-7.5-7.4-7.5V20.7c4,0,7.4-3.3,7.4-7.5h54.7c0,4.1,3.3,7.5,7.4,7.5h-.2Z"/>
    <path class="st4" d="M73.8,95c0-2.6,2.1-4.8,4.7-4.8v4.8h-4.7Z"/>
  </g>
  <path class="st3" d="M41.3,10.7"/>
  <path class="st5" d="M77.8,16.1"/>
  <path class="st5" d="M77.8,22.9"/>
  <path class="st6" d="M77.8,22.9"/>
  <path class="st6" d="M77.8,16.1"/>
  <path class="st5" d="M77.8,22.8"/>
  <path class="st5" d="M77.8,15.8"/>
  <path class="st6" d="M4.4,22.9"/>
  <path class="st6" d="M4.4,16.1"/>
  <path class="st6" d="M1,22.1"/>
  <path class="st6" d="M1,16.8"/>
  <path class="st5" d="M1.2,21.8"/>
  <path class="st5" d="M1.2,16.8"/>
  <path class="st5" d="M4.4,22.8"/>
  <path class="st5" d="M4.4,15.8"/>
  <polyline class="st3" points="41 9.6 58.5 9.6 60.1 6.5 54.3 6.5 53.2 9.6 54.8 5.3 49.3 5.3 48 9.6 49.8 3.5 44.7 3.5 43.5 9.6 45.2 1 41 1 36.9 1 38.5 9.6 37.4 3.5 32.2 3.5 34 9.6 32.8 5.3 27.2 5.3 28.9 9.6 27.7 6.5 21.9 6.5 23.5 9.6 41 9.6"/>
  <path class="st0" d="M66.1,88.6c-.4,8.3-12,14.9-25.9,14.9-13.9,0-24.6-6.8-24.2-15.1s12-14.9,25.9-14.9,24.7,6.8,24.2,15.1Z"/>
  <path class="st2" d="M62.4,88.6c-.3,7.1-10.2,12.7-22.1,12.7-11.8,0-21-5.8-20.6-12.9s10.2-12.7,22.1-12.7,21.1,5.8,20.6,12.9Z"/>
</svg>