<?xml version="1.0" encoding="UTF-8"?>
<svg xmlns="http://www.w3.org/2000/svg" version="1.1" xmlns:xlink="http://www.w3.org/1999/xlink" viewBox="0 0 331 200">
  <!-- Generator: Adobe Illustrator 29.1.0, SVG Export Plug-In . SVG Version: 2.1.0 Build 142)  -->
  <defs>
    <style>
      .st0 {
        fill: #333;
      }

      .st1 {
        display: none;
      }
    </style>
  </defs>
  <g id="Layer_1" class="st1">
    <path class="st0" d="M316.5,197.8h-4c2.7-.9,5.1-2,7.3-3.2,1.7-1,3.2-2,4.5-3.1v2.6c-2,.4-7,1.6-7.8,3.7ZM7.7,194v-2.6c1.3,1.1,2.8,2.1,4.5,3.1,2.2,1.2,4.7,2.3,7.3,3.2h-4c-.9-2.1-5.9-3.3-7.8-3.7ZM2.8,178.5c.9-.2,1.6-.5,2.2-.9.2-.1.4-.3.5-.4v9.6c-1.7-2.6-2.7-5.4-2.7-8.3ZM15.5,1.2h4.5c-5.8,1.7-10.1,5.1-12.3,7.4v-3.6c2-.4,7-1.6,7.8-3.7h0ZM324.3,5v3.6c-2.2-2.2-6.5-5.6-12.3-7.4h4.5c.9,2.1,5.9,3.3,7.8,3.7h0ZM324.3,184.6c-.9-3.8-1.5-7.6-1.5-11.5V9.2c.7.7,1.2,1.2,1.5,1.6v173.8ZM7.7,188.1c1.5-5,2.3-10,2.4-15V8.3c3-2.7,8.2-6.3,15.1-7.1h281.5c6.9.7,12.2,4.4,15.1,7.1v164.8c.1,5,.9,10,2.4,15v1.4c-1.5,1.6-3.5,3-5.7,4.3-2.9,1.7-6.3,3-10,4H23.4c-6.6-1.8-12.1-4.7-15.7-8.3v-1.4ZM7.7,10.8c.3-.3.8-.9,1.5-1.6v163.9c0,3.8-.6,7.7-1.5,11.5V10.8ZM327,177.6c.5.4,1.3.7,2.1.9,0,2.8-.9,5.6-2.7,8.2v-9.6c.2.2.3.3.5.4ZM330.9,178.1v-.5h-.8s-2.8-.2-3.6-4V4.1h-.8c-2-.4-7.1-1.7-7.1-3.4v-.7H13.5v.6c0,1.7-5.2,3-7.1,3.3h-.8v169.7c-.8,3.8-3.6,4-3.6,4h-1v.5c-.1,3.9,1.4,7.7,4.5,11.1v5.7h.8c2,.5,7.1,1.8,7.1,3.5v.6h305.2v-.6c0-1.7,5.2-3,7.1-3.3h.8v-5.8c3.1-3.5,4.6-7.3,4.5-11.2"/>
  </g>
  <g id="Layer_2" class="st1">
    <image width="474" height="946" transform="translate(-258.3 -83.9) scale(.1)" xlink:href="../../asset ref/6fb2ead154607cc5af693d3e633c64db.jpg"/>
    <image width="2048" height="1547" transform="translate(-162.6 -88) scale(0)" xlink:href="../../asset ref/art-deco-corners-set-filigree-geometric-lines-for-vintage-borders-and-frames-vector.png"/>
    <image width="1709" height="2048" transform="translate(-307.7 72.6) scale(0)" xlink:href="../../asset ref/art-deco-frames-set-decorative-border-ornament.png"/>
    <image width="1087" height="2048" transform="translate(-119.2 86.7) scale(0)" xlink:href="../../asset ref/art-deco-golden-frames-set.png"/>
    <image width="2048" height="1536" transform="translate(-275.9 248) scale(0)" xlink:href="../../asset ref/art-deco-line-border-modern-arabic-gold-frames-decorative-lines-borders-and-geometric-golden.png"/>
    <image width="2048" height="2048" transform="translate(-7.6 230.3) scale(0)" xlink:href="../../asset ref/art-deco-line-gold-border-set.png"/>
    <image width="2048" height="2048" transform="translate(225 221.6) scale(0)" xlink:href="../../asset ref/art-deco-vintage-frame-and-border-ornament-set (1).png"/>
    <image width="2048" height="1228" transform="translate(171.6 -86.9) scale(.1)" xlink:href="../../asset ref/frames-borders-illustration-art-deco-vintage-element-luxury-golden-design-elements.png"/>
    <image width="2048" height="1536" transform="translate(393.1 -95.9) scale(0)" xlink:href="../../asset ref/golden-ornate-frames-and-scroll-elements.png"/>
  </g>
  <g id="Layer_3">
    <g>
      <g>
        <g>
          <g>
            <path class="st0" d="M317.4,1.8h-1.9V0h1.9v1.8ZM316,1.3h.9v-.8h-.9v.8Z"/>
            <path class="st0" d="M320.2,3.5h-2.3V1.3h2.3v2.2ZM318.4,3h1.3v-1.2h-1.3v1.2Z"/>
            <polygon class="st0" points="318.4 1.8 317.2 1.8 317.2 1.3 317.9 1.3 317.9 0 322.9 0 322.9 .5 318.4 .5 318.4 1.8"/>
            <path class="st0" d="M325,1.7h-2.3V0h2.3v1.7ZM323.2,1.2h1.3v-.7h-1.3v.7Z"/>
            <polygon class="st0" points="325 5.5 320.4 5.5 320.4 1.2 322.9 1.2 322.9 1.7 320.9 1.7 320.9 5 324.5 5 324.5 3.2 325 3.2 325 5.5"/>
          </g>
          <g>
            <path class="st0" d="M326.3,10.1h-1.9v-1.8h1.9v1.8ZM324.9,9.6h.9v-.8h-.9v.8Z"/>
            <path class="st0" d="M324.9,7.8h-2.3v-2.2h2.3v2.2ZM323.1,7.3h1.3v-1.2h-1.3v1.2Z"/>
            <polygon class="st0" points="324.9 8.5 324.4 8.5 324.4 7.3 325.8 7.3 325.8 3.2 326.3 3.2 326.3 7.8 324.9 7.8 324.9 8.5"/>
            <rect class="st0" x="325.8" y="9.8" width=".5" height="15.2"/>
            <polygon class="st0" points="324.8 3.5 322.7 3.5 322.7 1.4 323.2 1.4 323.2 3 324.8 3 324.8 3.5"/>
            <polygon class="st0" points="324.8 2.8 323.3 2.8 323.3 1.4 323.8 1.4 323.8 2.3 324.8 2.3 324.8 2.8"/>
            <path class="st0" d="M326.3,3.5h-1.8V1.2h1.8v2.3ZM325,3h.8v-1.3h-.8v1.3Z"/>
          </g>
        </g>
        <g>
          <g>
            <path class="st0" d="M317.4,199h-1.9v-1.8h1.9v1.8ZM316,198.5h.9v-.8h-.9v.8Z"/>
            <path class="st0" d="M320.2,197.7h-2.3v-2.2h2.3v2.2ZM318.4,197.2h1.3v-1.2h-1.3v1.2Z"/>
            <polygon class="st0" points="322.9 199 317.9 199 317.9 197.7 317.2 197.7 317.2 197.2 318.4 197.2 318.4 198.5 322.9 198.5 322.9 199"/>
            <path class="st0" d="M325,199h-2.3v-1.7h2.3v1.7ZM323.2,198.5h1.3v-.7h-1.3v.7Z"/>
            <polygon class="st0" points="322.9 197.8 320.4 197.8 320.4 193.5 325 193.5 325 195.8 324.5 195.8 324.5 194 320.9 194 320.9 197.3 322.9 197.3 322.9 197.8"/>
          </g>
          <g>
            <path class="st0" d="M326.3,190.7h-1.9v-1.8h1.9v1.8ZM324.9,190.2h.9v-.8h-.9v.8Z"/>
            <path class="st0" d="M324.9,193.4h-2.3v-2.2h2.3v2.2ZM323.1,192.9h1.3v-1.2h-1.3v1.2Z"/>
            <polygon class="st0" points="326.3 195.8 325.8 195.8 325.8 191.7 324.4 191.7 324.4 190.5 324.9 190.5 324.9 191.2 326.3 191.2 326.3 195.8"/>
            <rect class="st0" x="325.8" y="25.1" width=".5" height="164.1"/>
            <polygon class="st0" points="323.2 197.6 322.7 197.6 322.7 195.6 324.7 195.6 324.7 196.1 323.2 196.1 323.2 197.6"/>
            <polygon class="st0" points="323.8 197.6 323.3 197.6 323.3 196.2 324.7 196.2 324.7 196.7 323.8 196.7 323.8 197.6"/>
            <path class="st0" d="M326.3,197.8h-1.8v-2.3h1.8v2.3ZM325,197.3h.8v-1.3h-.8v1.3Z"/>
          </g>
        </g>
        <rect class="st0" x="322.6" y="5.7" width=".2" height="187.7"/>
        <g>
          <g>
            <path class="st0" d="M317.4,1.8h-1.9V0h1.9v1.8ZM316,1.3h.9v-.8h-.9v.8Z"/>
            <path class="st0" d="M320.2,3.5h-2.3V1.3h2.3v2.2ZM318.4,3h1.3v-1.2h-1.3v1.2Z"/>
            <polygon class="st0" points="318.4 1.8 317.2 1.8 317.2 1.3 317.9 1.3 317.9 0 322.9 0 322.9 .5 318.4 .5 318.4 1.8"/>
            <path class="st0" d="M325,1.7h-2.3V0h2.3v1.7ZM323.2,1.2h1.3v-.7h-1.3v.7Z"/>
            <polygon class="st0" points="325 5.5 320.4 5.5 320.4 1.2 322.9 1.2 322.9 1.7 320.9 1.7 320.9 5 324.5 5 324.5 3.2 325 3.2 325 5.5"/>
          </g>
          <g>
            <path class="st0" d="M326.3,10.1h-1.9v-1.8h1.9v1.8ZM324.9,9.6h.9v-.8h-.9v.8Z"/>
            <path class="st0" d="M324.9,7.8h-2.3v-2.2h2.3v2.2ZM323.1,7.3h1.3v-1.2h-1.3v1.2Z"/>
            <polygon class="st0" points="324.9 8.5 324.4 8.5 324.4 7.3 325.8 7.3 325.8 3.2 326.3 3.2 326.3 7.8 324.9 7.8 324.9 8.5"/>
            <rect class="st0" x="325.8" y="9.8" width=".5" height="15.2"/>
            <polygon class="st0" points="324.8 3.5 322.7 3.5 322.7 1.4 323.2 1.4 323.2 3 324.8 3 324.8 3.5"/>
            <polygon class="st0" points="324.8 2.8 323.3 2.8 323.3 1.4 323.8 1.4 323.8 2.3 324.8 2.3 324.8 2.8"/>
            <path class="st0" d="M326.3,3.5h-1.8V1.2h1.8v2.3ZM325,3h.8v-1.3h-.8v1.3Z"/>
          </g>
        </g>
        <g>
          <g>
            <path class="st0" d="M317.4,199h-1.9v-1.8h1.9v1.8ZM316,198.5h.9v-.8h-.9v.8Z"/>
            <path class="st0" d="M320.2,197.7h-2.3v-2.2h2.3v2.2ZM318.4,197.2h1.3v-1.2h-1.3v1.2Z"/>
            <polygon class="st0" points="322.9 199 317.9 199 317.9 197.7 317.2 197.7 317.2 197.2 318.4 197.2 318.4 198.5 322.9 198.5 322.9 199"/>
            <path class="st0" d="M325,199h-2.3v-1.7h2.3v1.7ZM323.2,198.5h1.3v-.7h-1.3v.7Z"/>
            <polygon class="st0" points="322.9 197.8 320.4 197.8 320.4 193.5 325 193.5 325 195.8 324.5 195.8 324.5 194 320.9 194 320.9 197.3 322.9 197.3 322.9 197.8"/>
          </g>
          <g>
            <path class="st0" d="M326.3,190.7h-1.9v-1.8h1.9v1.8ZM324.9,190.2h.9v-.8h-.9v.8Z"/>
            <path class="st0" d="M324.9,193.4h-2.3v-2.2h2.3v2.2ZM323.1,192.9h1.3v-1.2h-1.3v1.2Z"/>
            <polygon class="st0" points="326.3 195.8 325.8 195.8 325.8 191.7 324.4 191.7 324.4 190.5 324.9 190.5 324.9 191.2 326.3 191.2 326.3 195.8"/>
            <rect class="st0" x="325.8" y="25.1" width=".5" height="164.1"/>
            <polygon class="st0" points="323.2 197.6 322.7 197.6 322.7 195.6 324.7 195.6 324.7 196.1 323.2 196.1 323.2 197.6"/>
            <polygon class="st0" points="323.8 197.6 323.3 197.6 323.3 196.2 324.7 196.2 324.7 196.7 323.8 196.7 323.8 197.6"/>
            <path class="st0" d="M326.3,197.8h-1.8v-2.3h1.8v2.3ZM325,197.3h.8v-1.3h-.8v1.3Z"/>
          </g>
        </g>
        <rect class="st0" x="322.6" y="5.7" width=".2" height="187.7"/>
      </g>
      <g>
        <g>
          <g>
            <path class="st0" d="M16,1.8h-1.9V0h1.9v1.8ZM14.6,1.3h.9v-.8h-.9v.8Z"/>
            <path class="st0" d="M13.6,3.5h-2.3V1.3h2.3v2.2ZM11.8,3h1.3v-1.2h-1.3v1.2Z"/>
            <polygon class="st0" points="14.3 1.8 13.1 1.8 13.1 .5 8.6 .5 8.6 0 13.6 0 13.6 1.3 14.3 1.3 14.3 1.8"/>
            <path class="st0" d="M8.8,1.7h-2.3V0h2.3v1.7ZM7,1.2h1.3v-.7h-1.3v.7Z"/>
            <polygon class="st0" points="11.1 5.5 6.5 5.5 6.5 3.2 7 3.2 7 5 10.6 5 10.6 1.7 8.6 1.7 8.6 1.2 11.1 1.2 11.1 5.5"/>
          </g>
          <g>
            <path class="st0" d="M7.1,10.1h-1.9v-1.8h1.9v1.8ZM5.7,9.6h.9v-.8h-.9v.8Z"/>
            <path class="st0" d="M8.9,7.8h-2.3v-2.2h2.3v2.2ZM7.1,7.3h1.3v-1.2h-1.3v1.2Z"/>
            <polygon class="st0" points="7.1 8.5 6.6 8.5 6.6 7.8 5.2 7.8 5.2 3.2 5.7 3.2 5.7 7.3 7.1 7.3 7.1 8.5"/>
            <rect class="st0" x="5.2" y="9.8" width=".5" height="15.2"/>
            <polygon class="st0" points="8.8 3.5 6.7 3.5 6.7 3 8.3 3 8.3 1.4 8.8 1.4 8.8 3.5"/>
            <polygon class="st0" points="8.2 2.8 6.7 2.8 6.7 2.3 7.7 2.3 7.7 1.4 8.2 1.4 8.2 2.8"/>
            <path class="st0" d="M7,3.5h-1.8V1.2h1.8v2.3ZM5.7,3h.8v-1.3h-.8v1.3Z"/>
          </g>
        </g>
        <g>
          <g>
            <path class="st0" d="M16,199h-1.9v-1.8h1.9v1.8ZM14.6,198.5h.9v-.8h-.9v.8Z"/>
            <path class="st0" d="M13.6,197.7h-2.3v-2.2h2.3v2.2ZM11.8,197.2h1.3v-1.2h-1.3v1.2Z"/>
            <polygon class="st0" points="13.6 199 8.6 199 8.6 198.5 13.1 198.5 13.1 197.2 14.3 197.2 14.3 197.7 13.6 197.7 13.6 199"/>
            <path class="st0" d="M8.8,199h-2.3v-1.7h2.3v1.7ZM7,198.5h1.3v-.7h-1.3v.7Z"/>
            <polygon class="st0" points="11.1 197.8 8.6 197.8 8.6 197.3 10.6 197.3 10.6 194 7 194 7 195.8 6.5 195.8 6.5 193.5 11.1 193.5 11.1 197.8"/>
          </g>
          <g>
            <path class="st0" d="M7.1,190.7h-1.9v-1.8h1.9v1.8ZM5.7,190.2h.9v-.8h-.9v.8Z"/>
            <path class="st0" d="M8.9,193.4h-2.3v-2.2h2.3v2.2ZM7.1,192.9h1.3v-1.2h-1.3v1.2Z"/>
            <polygon class="st0" points="5.7 195.8 5.2 195.8 5.2 191.2 6.6 191.2 6.6 190.5 7.1 190.5 7.1 191.7 5.7 191.7 5.7 195.8"/>
            <rect class="st0" x="5.2" y="25.1" width=".5" height="164.1"/>
            <polygon class="st0" points="8.8 197.6 8.3 197.6 8.3 196.1 6.8 196.1 6.8 195.6 8.8 195.6 8.8 197.6"/>
            <polygon class="st0" points="8.2 197.6 7.7 197.6 7.7 196.7 6.8 196.7 6.8 196.2 8.2 196.2 8.2 197.6"/>
            <path class="st0" d="M7,197.8h-1.8v-2.3h1.8v2.3ZM5.7,197.3h.8v-1.3h-.8v1.3Z"/>
          </g>
        </g>
        <rect class="st0" x="8.7" y="5.7" width=".2" height="187.7"/>
        <g>
          <g>
            <path class="st0" d="M16,1.8h-1.9V0h1.9v1.8ZM14.6,1.3h.9v-.8h-.9v.8Z"/>
            <path class="st0" d="M13.6,3.5h-2.3V1.3h2.3v2.2ZM11.8,3h1.3v-1.2h-1.3v1.2Z"/>
            <polygon class="st0" points="14.3 1.8 13.1 1.8 13.1 .5 8.6 .5 8.6 0 13.6 0 13.6 1.3 14.3 1.3 14.3 1.8"/>
            <path class="st0" d="M8.8,1.7h-2.3V0h2.3v1.7ZM7,1.2h1.3v-.7h-1.3v.7Z"/>
            <polygon class="st0" points="11.1 5.5 6.5 5.5 6.5 3.2 7 3.2 7 5 10.6 5 10.6 1.7 8.6 1.7 8.6 1.2 11.1 1.2 11.1 5.5"/>
          </g>
          <g>
            <path class="st0" d="M7.1,10.1h-1.9v-1.8h1.9v1.8ZM5.7,9.6h.9v-.8h-.9v.8Z"/>
            <path class="st0" d="M8.9,7.8h-2.3v-2.2h2.3v2.2ZM7.1,7.3h1.3v-1.2h-1.3v1.2Z"/>
            <polygon class="st0" points="7.1 8.5 6.6 8.5 6.6 7.8 5.2 7.8 5.2 3.2 5.7 3.2 5.7 7.3 7.1 7.3 7.1 8.5"/>
            <rect class="st0" x="5.2" y="9.8" width=".5" height="15.2"/>
            <polygon class="st0" points="8.8 3.5 6.7 3.5 6.7 3 8.3 3 8.3 1.4 8.8 1.4 8.8 3.5"/>
            <polygon class="st0" points="8.2 2.8 6.7 2.8 6.7 2.3 7.7 2.3 7.7 1.4 8.2 1.4 8.2 2.8"/>
            <path class="st0" d="M7,3.5h-1.8V1.2h1.8v2.3ZM5.7,3h.8v-1.3h-.8v1.3Z"/>
          </g>
        </g>
        <g>
          <g>
            <path class="st0" d="M16,199h-1.9v-1.8h1.9v1.8ZM14.6,198.5h.9v-.8h-.9v.8Z"/>
            <path class="st0" d="M13.6,197.7h-2.3v-2.2h2.3v2.2ZM11.8,197.2h1.3v-1.2h-1.3v1.2Z"/>
            <polygon class="st0" points="13.6 199 8.6 199 8.6 198.5 13.1 198.5 13.1 197.2 14.3 197.2 14.3 197.7 13.6 197.7 13.6 199"/>
            <path class="st0" d="M8.8,199h-2.3v-1.7h2.3v1.7ZM7,198.5h1.3v-.7h-1.3v.7Z"/>
            <polygon class="st0" points="11.1 197.8 8.6 197.8 8.6 197.3 10.6 197.3 10.6 194 7 194 7 195.8 6.5 195.8 6.5 193.5 11.1 193.5 11.1 197.8"/>
          </g>
          <g>
            <path class="st0" d="M7.1,190.7h-1.9v-1.8h1.9v1.8ZM5.7,190.2h.9v-.8h-.9v.8Z"/>
            <path class="st0" d="M8.9,193.4h-2.3v-2.2h2.3v2.2ZM7.1,192.9h1.3v-1.2h-1.3v1.2Z"/>
            <polygon class="st0" points="5.7 195.8 5.2 195.8 5.2 191.2 6.6 191.2 6.6 190.5 7.1 190.5 7.1 191.7 5.7 191.7 5.7 195.8"/>
            <rect class="st0" x="5.2" y="25.1" width=".5" height="164.1"/>
            <polygon class="st0" points="8.8 197.6 8.3 197.6 8.3 196.1 6.8 196.1 6.8 195.6 8.8 195.6 8.8 197.6"/>
            <polygon class="st0" points="8.2 197.6 7.7 197.6 7.7 196.7 6.8 196.7 6.8 196.2 8.2 196.2 8.2 197.6"/>
            <path class="st0" d="M7,197.8h-1.8v-2.3h1.8v2.3ZM5.7,197.3h.8v-1.3h-.8v1.3Z"/>
          </g>
        </g>
        <rect class="st0" x="8.7" y="5.7" width=".2" height="187.7"/>
      </g>
      <rect class="st0" x="15.7" width="300" height=".5"/>
      <rect class="st0" x="15.7" y="1.3" width="300" height=".5"/>
      <rect class="st0" x="15.7" y="198.5" width="300" height=".5"/>
      <rect class="st0" x="15.7" y="197.2" width="300" height=".5"/>
    </g>
  </g>
</svg>