<?xml version="1.0" encoding="UTF-8"?>
<svg xmlns="http://www.w3.org/2000/svg" version="1.1" xmlns:xlink="http://www.w3.org/1999/xlink" viewBox="0 0 331 200">
  <!-- Generator: Adobe Illustrator 29.1.0, SVG Export Plug-In . SVG Version: 2.1.0 Build 142)  -->
  <defs>
    <style>
      .st0 {
        opacity: .5;
      }

      .st1 {
        stroke-width: 2px;
      }

      .st1, .st2 {
        fill: none;
        stroke: #333;
        stroke-miterlimit: 10;
      }

      .st3 {
        display: none;
      }

      .st4 {
        fill: #333;
        opacity: .3;
      }
    </style>
  </defs>
  <g id="Layer_1" class="st3">
    <path class="st4" d="M316.5,197.8h-4c2.7-.9,5.1-2,7.3-3.2,1.7-1,3.2-2,4.5-3.1v2.6c-2,.4-7,1.6-7.8,3.7ZM7.7,194v-2.6c1.3,1.1,2.8,2.1,4.5,3.1,2.2,1.2,4.7,2.3,7.3,3.2h-4c-.9-2.1-5.9-3.3-7.8-3.7ZM2.8,178.5c.9-.2,1.6-.5,2.2-.9.2-.1.4-.3.5-.4v9.6c-1.7-2.6-2.7-5.4-2.7-8.3ZM15.5,1.2h4.5c-5.8,1.7-10.1,5.1-12.3,7.4v-3.6c2-.4,7-1.6,7.8-3.7h0ZM324.3,5v3.6c-2.2-2.2-6.5-5.6-12.3-7.4h4.5c.9,2.1,5.9,3.3,7.8,3.7h0ZM324.3,184.6c-.9-3.8-1.5-7.6-1.5-11.5V9.2c.7.7,1.2,1.2,1.5,1.6v173.8ZM7.7,188.1c1.5-5,2.3-10,2.4-15V8.3c3-2.7,8.2-6.3,15.1-7.1h281.5c6.9.7,12.2,4.4,15.1,7.1v164.8c.1,5,.9,10,2.4,15v1.4c-1.5,1.6-3.5,3-5.7,4.3-2.9,1.7-6.3,3-10,4H23.4c-6.6-1.8-12.1-4.7-15.7-8.3v-1.4ZM7.7,10.8c.3-.3.8-.9,1.5-1.6v163.9c0,3.8-.6,7.7-1.5,11.5V10.8ZM327,177.6c.5.4,1.3.7,2.1.9,0,2.8-.9,5.6-2.7,8.2v-9.6c.2.2.3.3.5.4ZM330.9,178.1v-.5h-.8s-2.8-.2-3.6-4V4.1h-.8c-2-.4-7.1-1.7-7.1-3.4v-.7H13.5v.6c0,1.7-5.2,3-7.1,3.3h-.8v169.7c-.8,3.8-3.6,4-3.6,4h-1v.5c-.1,3.9,1.4,7.7,4.5,11.1v5.7h.8c2,.5,7.1,1.8,7.1,3.5v.6h305.2v-.6c0-1.7,5.2-3,7.1-3.3h.8v-5.8c3.1-3.5,4.6-7.3,4.5-11.2"/>
  </g>
  <g id="Layer_2" class="st3">
    <image class="st0" width="1588" height="2055" transform="translate(-5.9 -260.7) scale(.3)" xlink:href="../../../../../../../../Downloads/il_1588xN.5426185443_8o67.jpg"/>
  </g>
  <g id="Layer_3">
    <rect class="st1" x="6.6" y=".9" width="8.5" height="8.5"/>
    <rect class="st1" x="162.6" y="2.1" width="5.8" height="5.8" transform="translate(52 -115.6) rotate(45)"/>
    <polyline class="st2" points="19.3 9.4 19.3 5.2 161.4 5.2"/>
    <rect class="st1" x="6.6" y="190.5" width="8.5" height="8.5"/>
    <polyline class="st1" points="15.1 190.5 15.1 117.7 15.1 82.2 15.1 9.4 156.4 9.4 161.4 5 156.4 .9 23.6 .9 23.6 17.9 6.6 17.9 6.6 82.2 6.6 117.7 6.6 182 23.6 182 23.6 199 164.5 199 169.5 194.9"/>
    <polyline class="st2" points="15.1 13.6 10.8 13.6 10.8 82.2 10.8 117.7 10.8 186.3 15.1 186.3 19.3 186.3 19.3 190.5 19.3 194.7 169.5 194.7"/>
    <rect class="st1" x="316.9" y=".9" width="8.5" height="8.5" transform="translate(642.3 10.3) rotate(180)"/>
    <polyline class="st2" points="312.7 9.4 312.7 5.2 169.5 5.2"/>
    <rect class="st1" x="316.9" y="190.5" width="8.5" height="8.5" transform="translate(642.3 389.5) rotate(180)"/>
    <polyline class="st1" points="316.9 190.5 316.9 117.7 316.9 82.2 316.9 9.4 174.5 9.4 169.5 5 174.5 .9 308.4 .9 308.4 17.9 325.4 17.9 325.4 82.2 325.4 117.7 325.4 182 308.4 182 308.4 199 174.5 199 169.5 194.9"/>
    <polyline class="st2" points="169.5 194.7 312.7 194.7 312.7 190.5 312.7 186.3 316.9 186.3 321.1 186.3 321.1 117.7 321.1 82.2 321.1 13.6 316.9 13.6"/>
  </g>
</svg>