<?xml version="1.0" encoding="UTF-8"?><svg id="Layer_2" xmlns="http://www.w3.org/2000/svg" viewBox="0 0 180.25 258.89"><defs><style>.cls-1,.cls-2{fill:#1f1f1f;}.cls-1,.cls-2,.cls-3,.cls-4,.cls-5{stroke:#333;stroke-miterlimit:10;}.cls-1,.cls-3{stroke-width:.5px;}.cls-6{fill:#333;}.cls-3,.cls-4,.cls-5{fill:none;}.cls-5{stroke-width:.25px;}</style></defs><g id="boxes"><path class="cls-2" d="M169.44,8.17v230.91l-2.2-3.03v15.38l.37.59c-.12.04-.25.1-.37.16-.51.25-.97.58-1.36.98-.89.91-1.44,2.14-1.44,3.51H15.81c0-1.37-.55-2.6-1.43-3.51-.4-.4-.86-.73-1.37-.98-.12-.06-.24-.11-.36-.16-.57-.23-1.19-.35-1.84-.35V8.17c.64,0,1.26-.12,1.83-.35.13-.04.25-.1.37-.16.51-.25.97-.58,1.37-.98.88-.91,1.43-2.14,1.43-3.51h148.63c0,1.37.55,2.6,1.44,3.51.39.4.85.73,1.36.98.12.06.25.12.37.17.57.22,1.18.34,1.83.34Z"/><path class="cls-2" d="M115.99,10.39h-52.96c0-1.25.62-2.45,1.76-3.55.47-.45,1.02-.89,1.65-1.3.72-.48,1.54-.93,2.46-1.36.98-.45,2.06-.87,3.23-1.25,3.69-1.2,8.27-2.03,13.33-2.32h.01c.93-.05,1.88-.08,2.84-.1.39,0,.8,0,1.2,0,.82,0,1.64,0,2.44.04.97.03,1.93.09,2.87.16,4.55.35,8.68,1.13,12.06,2.23,1.48.48,2.82,1.02,3.98,1.62.89.44,1.68.92,2.35,1.43.6.44,1.11.91,1.52,1.39.82.95,1.26,1.97,1.26,3.02Z"/><path class="cls-2" d="M115.99,10.39c0,1.16-.54,2.27-1.53,3.3-.62.66-1.43,1.29-2.4,1.88-1.77,1.07-4.08,2.01-6.78,2.75-4.4,1.22-9.86,1.95-15.77,1.95s-11.38-.73-15.78-1.95c-2.7-.74-5-1.68-6.77-2.75-.97-.59-1.78-1.22-2.4-1.88-.99-1.03-1.53-2.14-1.53-3.3h52.96Z"/><path class="cls-2" d="M115.99,248.5c0,5.46-11.86,9.89-26.48,9.89s-26.48-4.43-26.48-9.89h52.96Z"/><path class="cls-2" d="M115.99,248.5h-52.96c0-1.16.53-2.27,1.53-3.3.62-.66,1.43-1.29,2.4-1.88,1.77-1.07,4.07-2.01,6.77-2.75,4.4-1.22,9.86-1.95,15.78-1.95s11.37.73,15.77,1.95c2.7.74,5.01,1.68,6.78,2.75.97.59,1.78,1.22,2.4,1.88,1,1.03,1.53,2.14,1.53,3.3Z"/><polygon class="cls-4" points="98.39 7.7 94.69 10.39 85.56 10.39 81.86 7.7 88.18 7.7 90.13 1.7 92.08 7.7 98.39 7.7"/><path class="cls-3" d="M104.84,5.61l-6.57,4.78h-16.28l-6.57-4.78h11.23l1.66-5.1c.39,0,.8,0,1.2,0,.82,0,1.64,0,2.44.04l1.65,5.07h11.24Z"/><path class="cls-4" d="M110.86,4.55l-8.04,5.84h-25.38l-8.54-6.21c.98-.45,2.06-.87,3.23-1.25h12.58l.75-2.32h.01c.93-.05,1.88-.08,2.84-.1.39,0,.8,0,1.2,0,.82,0,1.64,0,2.44.04.97.03,1.93.09,2.87.16l.73,2.23h11.33c1.48.48,2.82,1.02,3.98,1.62Z"/><path class="cls-3" d="M113.21,5.98l-6.07,4.41h-34.03l-6.67-4.85c.72-.48,1.54-.93,2.46-1.36.98-.45,2.06-.87,3.23-1.25,3.69-1.2,8.27-2.03,13.33-2.32h.01c.93-.05,1.88-.08,2.84-.1.39,0,.8,0,1.2,0,.82,0,1.64,0,2.44.04.97.03,1.93.09,2.87.16,4.55.35,8.68,1.13,12.06,2.23,1.48.48,2.82,1.02,3.98,1.62.89.44,1.68.92,2.35,1.43Z"/><path class="cls-4" d="M114.73,7.37l-4.15,3.02h-40.91l-4.88-3.55c.47-.45,1.02-.89,1.65-1.3.72-.48,1.54-.93,2.46-1.36.98-.45,2.06-.87,3.23-1.25,3.69-1.2,8.27-2.03,13.33-2.32h.01c.93-.05,1.88-.08,2.84-.1.39,0,.8,0,1.2,0,.82,0,1.64,0,2.44.04.97.03,1.93.09,2.87.16,4.55.35,8.68,1.13,12.06,2.23,1.48.48,2.82,1.02,3.98,1.62.89.44,1.68.92,2.35,1.43.6.44,1.11.91,1.52,1.39Z"/><polygon class="cls-6" points="93.37 9.34 91.92 10.39 88.34 10.39 86.88 9.34 89.36 9.34 90.13 6.98 90.89 9.34 93.37 9.34"/><polygon class="cls-4" points="98.39 251.19 94.69 248.5 85.56 248.5 81.86 251.19 88.18 251.19 90.13 257.19 92.08 251.19 98.39 251.19"/><path class="cls-3" d="M104.84,253.28l-6.57-4.78h-16.28l-6.57,4.78h11.23l1.66,5.1c.39,0,.8,0,1.2,0,.82,0,1.64,0,2.44-.04l1.65-5.07h11.24Z"/><path class="cls-4" d="M110.86,254.34l-8.04-5.84h-25.38l-8.54,6.21c.98.45,2.06.87,3.23,1.25h12.58l.75,2.32h.01c.93.05,1.88.08,2.84.1.39,0,.8,0,1.2,0,.82,0,1.64,0,2.44-.04.97-.03,1.93-.09,2.87-.16l.73-2.23h11.33c1.48-.48,2.82-1.02,3.98-1.62Z"/><path class="cls-3" d="M113.21,252.91l-6.07-4.41h-34.03l-6.67,4.85c.72.48,1.54.93,2.46,1.36.98.45,2.06.87,3.23,1.25,3.69,1.2,8.27,2.03,13.33,2.32h.01c.93.05,1.88.08,2.84.1.39,0,.8,0,1.2,0,.82,0,1.64,0,2.44-.04.97-.03,1.93-.09,2.87-.16,4.55-.35,8.68-1.13,12.06-2.23,1.48-.48,2.82-1.02,3.98-1.62.89-.44,1.68-.92,2.35-1.43Z"/><path class="cls-4" d="M114.73,251.52l-4.15-3.02h-40.91l-4.88,3.55c.47.45,1.02.89,1.65,1.3.72.48,1.54.93,2.46,1.36.98.45,2.06.87,3.23,1.25,3.69,1.2,8.27,2.03,13.33,2.32h.01c.93.05,1.88.08,2.84.1.39,0,.8,0,1.2,0,.82,0,1.64,0,2.44-.04.97-.03,1.93-.09,2.87-.16,4.55-.35,8.68-1.13,12.06-2.23,1.48-.48,2.82-1.02,3.98-1.62.89-.44,1.68-.92,2.35-1.43.6-.44,1.11-.91,1.52-1.39Z"/><polygon class="cls-6" points="93.37 249.55 91.92 248.5 88.34 248.5 86.88 249.55 89.36 249.55 90.13 251.91 90.89 249.55 93.37 249.55"/><polyline class="cls-4" points="122.67 256.67 121.77 253.16 90.13 129.92"/><polyline class="cls-4" points="131.31 256.67 130.17 253.16 90.13 129.92"/><polyline class="cls-4" points="140.31 256.67 138.92 253.16 90.13 129.92"/><polyline class="cls-4" points="149.77 256.67 148.12 253.16 90.13 129.92"/><polyline class="cls-4" points="159.81 256.67 157.89 253.16 90.13 129.92"/><polyline class="cls-4" points="167.61 252.02 167.24 251.43 90.13 129.92"/><polyline class="cls-4" points="169.44 239.08 167.24 236.05 90.13 129.92"/><polyline class="cls-4" points="169.44 225.8 167.24 223.14 90.13 129.92"/><polyline class="cls-4" points="169.44 214.38 167.24 212.04 90.13 129.92"/><polyline class="cls-4" points="169.44 204.4 167.24 202.34 90.13 129.92"/><polyline class="cls-4" points="169.44 195.54 167.24 193.72 90.13 129.92"/><polyline class="cls-4" points="169.44 187.55 167.24 185.95 90.13 129.92"/><polyline class="cls-4" points="169.44 180.25 167.24 178.86 90.13 129.92"/><polyline class="cls-4" points="169.44 173.52 167.24 172.31 90.13 129.92"/><polyline class="cls-4" points="169.44 167.24 167.24 166.21 90.13 129.92"/><polyline class="cls-4" points="169.44 161.32 167.24 160.45 90.13 129.92"/><polyline class="cls-4" points="169.44 155.69 167.24 154.98 90.13 129.92"/><polyline class="cls-4" points="169.44 150.28 167.24 149.72 90.13 129.92"/><polyline class="cls-4" points="169.44 145.05 167.24 144.63 90.13 129.92"/><polyline class="cls-4" points="169.44 139.94 167.24 139.66 90.13 129.92"/><polyline class="cls-4" points="169.44 134.91 167.24 134.77 90.13 129.92"/><polyline class="cls-4" points="169.44 129.92 167.24 129.92 90.13 129.92"/><polyline class="cls-4" points="169.44 124.93 167.24 125.07 90.13 129.92"/><polyline class="cls-4" points="169.44 119.9 167.24 120.18 90.13 129.92"/><polyline class="cls-4" points="169.44 114.79 167.24 115.21 90.13 129.92"/><polyline class="cls-4" points="169.44 109.56 167.24 110.12 90.13 129.92"/><polyline class="cls-4" points="169.44 104.15 167.24 104.86 90.13 129.92"/><polyline class="cls-4" points="169.44 98.52 167.24 99.39 90.13 129.92"/><polyline class="cls-4" points="169.44 92.6 167.24 93.63 90.13 129.92"/><polyline class="cls-4" points="169.44 86.32 167.24 87.53 90.13 129.92"/><polyline class="cls-4" points="169.44 79.59 167.24 80.98 90.13 129.92"/><polyline class="cls-4" points="169.44 72.3 167.24 73.9 90.13 129.92"/><polyline class="cls-4" points="169.44 64.31 167.24 66.13 90.13 129.92"/><polyline class="cls-4" points="169.44 55.45 167.24 57.51 90.13 129.92"/><polyline class="cls-4" points="169.44 45.47 167.24 47.81 90.13 129.92"/><polyline class="cls-4" points="169.44 34.05 167.24 36.71 90.13 129.92"/><polyline class="cls-4" points="169.44 20.76 167.24 23.79 90.13 129.92"/><polyline class="cls-4" points="167.61 7.83 167.24 8.42 90.13 129.92"/><polyline class="cls-4" points="159.81 3.17 157.89 6.68 90.13 129.92"/><polyline class="cls-4" points="149.77 3.17 148.12 6.68 90.13 129.92"/><polyline class="cls-4" points="140.31 3.17 138.92 6.68 90.13 129.92"/><polyline class="cls-4" points="131.32 3.17 130.18 6.68 90.13 129.92"/><polyline class="cls-4" points="122.67 3.17 121.77 6.68 90.13 129.92"/><polyline class="cls-4" points="57.59 3.17 58.49 6.68 90.13 129.92"/><polyline class="cls-4" points="48.94 3.17 50.08 6.68 90.13 129.92"/><polyline class="cls-4" points="39.95 3.17 41.34 6.68 90.13 129.92"/><polyline class="cls-4" points="30.49 3.17 32.14 6.68 90.13 129.92"/><polyline class="cls-4" points="20.45 3.17 22.37 6.68 90.13 129.92"/><polyline class="cls-4" points="12.64 7.82 13.01 8.4 90.13 129.92"/><polyline class="cls-4" points="10.81 20.74 13.01 23.77 90.13 129.92"/><polyline class="cls-4" points="10.81 34.04 13.01 36.7 90.13 129.92"/><polyline class="cls-4" points="10.81 45.46 13.01 47.8 90.13 129.92"/><polyline class="cls-4" points="10.81 55.44 13.01 57.5 90.13 129.92"/><polyline class="cls-4" points="10.81 64.3 13.01 66.12 90.13 129.92"/><polyline class="cls-4" points="10.81 72.29 13.01 73.89 90.13 129.92"/><polyline class="cls-4" points="10.81 79.58 13.01 80.98 90.13 129.92"/><polyline class="cls-4" points="10.81 86.32 13.01 87.53 90.13 129.92"/><polyline class="cls-4" points="10.81 92.59 13.01 93.63 90.13 129.92"/><polyline class="cls-4" points="10.81 98.52 13.01 99.39 90.13 129.92"/><polyline class="cls-4" points="10.81 104.15 13.01 104.86 90.13 129.92"/><polyline class="cls-4" points="10.81 109.55 13.01 110.12 90.13 129.92"/><polyline class="cls-4" points="10.81 114.79 13.01 115.21 90.13 129.92"/><polyline class="cls-4" points="10.81 119.9 13.01 120.18 90.13 129.92"/><polyline class="cls-4" points="10.81 124.93 13.01 125.07 90.13 129.92"/><polyline class="cls-4" points="10.81 129.92 13.01 129.92 90.13 129.92"/><polyline class="cls-4" points="10.81 134.91 13.01 134.77 90.13 129.92"/><polyline class="cls-4" points="10.81 139.94 13.01 139.66 90.13 129.92"/><polyline class="cls-4" points="10.81 145.05 13.01 144.63 90.13 129.92"/><polyline class="cls-4" points="10.81 150.29 13.01 149.72 90.13 129.92"/><polyline class="cls-4" points="10.81 155.69 13.01 154.98 90.13 129.92"/><polyline class="cls-4" points="10.81 161.33 13.01 160.46 90.13 129.92"/><polyline class="cls-4" points="10.81 167.25 13.01 166.21 90.13 129.92"/><polyline class="cls-4" points="10.81 173.53 13.01 172.32 90.13 129.92"/><polyline class="cls-4" points="10.81 180.26 13.01 178.86 90.13 129.92"/><polyline class="cls-4" points="10.81 187.55 13.01 185.96 90.13 129.92"/><polyline class="cls-4" points="10.81 195.55 13.01 193.73 90.13 129.92"/><polyline class="cls-4" points="10.81 204.41 13.01 202.34 90.13 129.92"/><polyline class="cls-4" points="10.81 214.39 13.01 212.05 90.13 129.92"/><polyline class="cls-4" points="10.81 225.81 13.01 223.15 90.13 129.92"/><polyline class="cls-4" points="10.81 239.1 13.01 236.07 90.13 129.92"/><polyline class="cls-4" points="12.65 252.02 13.01 251.45 90.13 129.92"/><polyline class="cls-4" points="20.45 256.67 22.37 253.16 90.13 129.92"/><polyline class="cls-4" points="30.49 256.67 32.14 253.16 90.13 129.92"/><polyline class="cls-4" points="39.95 256.67 41.34 253.16 90.13 129.92"/><polyline class="cls-4" points="48.95 256.67 50.09 253.16 90.13 129.92"/><polyline class="cls-4" points="57.59 256.67 58.49 253.16 90.13 129.92"/><rect class="cls-2" x="1.68" y="11.95" width="176.9" height="234.99"/><path class="cls-2" d="M179.75,15.39v228.11c-.9,0-1.75.24-2.48.66-.48.27-.91.62-1.27,1.04-.78.88-1.25,2.03-1.25,3.3H5.5c0-1.27-.47-2.42-1.26-3.3-.35-.41-.78-.76-1.26-1.04-.73-.42-1.58-.66-2.48-.66V15.39c.9,0,1.75-.24,2.48-.66.49-.28.92-.63,1.26-1.04.79-.88,1.26-2.04,1.26-3.3h169.25c0,1.26.47,2.42,1.25,3.3.35.41.79.76,1.27,1.04.73.42,1.58.66,2.48.66Z"/><path class="cls-1" d="M170.78,240.57H9.47c0-1.66-1.34-3-3-3V21.32c1.66,0,3-1.34,3-3h161.31c0,1.66,1.34,3,3,3v216.25c-1.66,0-3,1.34-3,3Z"/><rect class="cls-5" x="4.4" y="15.57" width="171.44" height="227.74" rx="4.4" ry="4.4"/></g></svg>