<?xml version="1.0" encoding="UTF-8"?>
<svg xmlns="http://www.w3.org/2000/svg" version="1.1" xmlns:serif="http://www.serif.com/" viewBox="0 0 1920 1080">
  <!-- Generator: Adobe Illustrator 29.0.1, SVG Export Plug-In . SVG Version: 2.1.0 Build 192)  -->
  <defs>
    <style>
      .st0 {
        stroke-width: 20px;
      }

      .st0, .st1 {
        fill: #1f1f1f;
      }

      .st0, .st1, .st2 {
        stroke: #333;
        stroke-miterlimit: 10;
      }

      .st3 {
        fill: #333;
      }

      .st4 {
        opacity: .5;
      }

      .st5 {
        fill: #211d1f;
      }

      .st1 {
        stroke-width: 5px;
      }

      .st6 {
        display: none;
      }

      .st2 {
        fill: none;
        stroke-width: 2px;
      }
    </style>
  </defs>
  <g id="Layer_1" class="st6">
    <g class="st4">
      <path class="st5" d="M1916.2,429.9l-6.7-3.2c-24.8-11.6-55.5-56.6-65.2-73l-3.4-5.7H476.9v-48.1h-116.5l-4.5,5.6c-7.5,9.4-16.7,16.8-26.9,22.1-25.2-10.9-51.8-17-78.7-18.4-2.1-4.5-6.6-7.7-11.9-7.7s-9.8,3.2-11.9,7.7c-26.9,1.4-53.5,7.5-78.7,18.4-10.2-5.3-19.4-12.7-26.9-22.1l-4.5-5.6H0v476.9h116.5l4.5-5.6c7.5-9.4,16.7-16.8,26.9-22.1,25.2,10.9,51.6,17.1,78.8,18.5,2.1,4.4,6.6,7.5,11.8,7.5s9.7-3.1,11.8-7.5c27.3-1.4,53.7-7.6,78.8-18.5,10.2,5.3,19.4,12.7,26.9,22.1l4.5,5.6h116.5v-48.1h1364l3.4-5.7c9.7-16.4,40.4-61.3,65.2-73l6.7-3.1v-217.1ZM1800.2,668.9H510.9v-260.8h1289.3c39.3,22.2,78.8,52.2,92.7,88.5v83.8c-13.9,36.3-53.4,66.4-92.7,88.5M476.9,408.1h21.3v260.8h-21.3v-260.8ZM1892.9,444.2v25.1c-30.7-45.7-94-79.1-137.9-98h72.8c9.6,15.1,37,55.6,65.1,72.8M1720.5,371.4c13.3,4.9,33.5,13,55.7,24H476.9v-24h1243.6ZM227.6,321.8c2.3,3.7,6.2,6.2,10.9,6.2s8.6-2.5,10.9-6.2c21.1,1.1,42.1,5.2,62.2,12.4-6.2,1.5-12.6,2.4-19,2.4h-108.2c-6.5,0-12.8-.8-19-2.4,20.1-7.2,41.1-11.4,62.2-12.4M249.4,755.1c-2.4-3.6-6.3-6.2-10.9-6.2s-8.6,2.6-10.9,6.2c-21.2-1.1-42.1-5.2-62.2-12.4,6.2-1.5,12.5-2.4,19-2.4h108.2c6.5,0,12.8.8,19,2.4-20.1,7.3-41.1,11.4-62.2,12.4M374.4,747.3c-21.1-23.4-50.6-36.6-81.8-36.6h-108.2c-31.3,0-60.7,13.3-81.8,36.6h-19.7s-53.1-.6-53.1-72.1v-273.5c0-71.5,53.1-72.1,53.1-72.1h19.7c21.1,23.4,50.6,36.6,81.8,36.6h108.2c31.3,0,60.7-13.3,81.8-36.6h19.7s53.1.5,53.1,72.1v273.5c0,71.5-53.1,72.1-53.1,72.1h-19.7ZM476.9,681.6h1299.2c-22.2,10.9-42.4,19-55.6,24H476.9v-24ZM1827.8,705.5h-72.8c43.9-18.9,107.3-52.3,138-98v25.2c-28.1,17.2-55.5,57.7-65.1,72.8"/>
    </g>
  </g>
  <g id="Layer_2">
    <path class="st0" d="M1889.9,357.8H376.4c-5.9,5.9-9.1,9.1-15,15v330.2c5.9,5.9,9.1,9.1,15,15h1513.5l15-15v-330.2c-5.9-5.9-9.1-9.1-15-15Z"/>
    <path class="st1" d="M1840.9,384.9H425.4c0,22.1-17.9,40-40,40v226.1c22.1,0,40,17.9,40,40h1415.5c0-22.1,17.9-40,40-40v-226.1c-22.1,0-40-17.9-40-40Z"/>
    <circle class="st3" cx="1873.9" cy="390.4" r="13.6"/>
    <circle class="st3" cx="1873.9" cy="683.4" r="13.6"/>
    <path class="st0" d="M440.1,310.1H44.4c0,16.6-13.4,30-30,30v395.7c16.6,0,30,13.4,30,30h395.7c0-16.6,13.4-30,30-30v-395.7c-16.6,0-30-13.4-30-30Z"/>
    <rect class="st1" x="89.3" y="385" width="305.9" height="305.9" transform="translate(451.3 -13.7) rotate(45)"/>
    <rect class="st1" x="50.7" y="346.4" width="383" height="383"/>
    <g>
      <polyline class="st2" points="242.2 754.2 242.2 729.4 242.2 526.6"/>
      <polyline class="st2" points="249.9 746.5 249.3 729.4 242.2 526.6"/>
      <polyline class="st2" points="263.9 732.5 263.6 729.4 242.2 526.6"/>
      <polyline class="st2" points="270.8 729.4 270.3 726.1 242.2 526.6"/>
      <polyline class="st2" points="278 729.4 276.4 720.1 242.2 526.6"/>
      <polyline class="st2" points="285.4 729.4 282.1 714.3 242.2 526.6"/>
      <polyline class="st2" points="292.8 729.4 287.7 708.8 242.2 526.6"/>
      <polyline class="st2" points="300.4 729.4 293 703.5 242.2 526.6"/>
      <polyline class="st2" points="308.2 729.4 298.1 698.4 242.2 526.6"/>
      <polyline class="st2" points="316.1 729.4 303 693.5 242.2 526.6"/>
      <polyline class="st2" points="324.2 729.4 307.7 688.7 242.2 526.6"/>
      <polyline class="st2" points="332.6 729.4 312.4 684.1 242.2 526.6"/>
      <polyline class="st2" points="341.2 729.4 316.9 679.6 242.2 526.6"/>
      <polyline class="st2" points="350.1 729.4 321.2 675.2 242.2 526.6"/>
      <polyline class="st2" points="359.4 729.4 325.6 670.9 242.2 526.6"/>
      <polyline class="st2" points="369 729.4 329.8 666.7 242.2 526.6"/>
      <polyline class="st2" points="379.1 729.4 333.9 662.5 242.2 526.6"/>
      <polyline class="st2" points="389.6 729.4 338 658.4 242.2 526.6"/>
      <polyline class="st2" points="412.4 729.4 346.1 650.3 242.2 526.6"/>
      <polyline class="st2" points="424.9 729.4 350.1 646.4 242.2 526.6"/>
      <polyline class="st2" points="433.8 724.9 354.1 642.4 242.2 526.6"/>
      <polyline class="st2" points="433.8 711.5 358 638.4 242.2 526.6"/>
      <polyline class="st2" points="433.8 687.3 366 630.4 242.2 526.6"/>
      <polyline class="st2" points="433.8 676.2 370 626.4 242.2 526.6"/>
      <polyline class="st2" points="433.8 665.7 374.1 622.4 242.2 526.6"/>
      <polyline class="st2" points="433.8 655.8 378.2 618.3 242.2 526.6"/>
      <polyline class="st2" points="433.8 646.2 382.3 614.1 242.2 526.6"/>
      <polyline class="st2" points="433.8 637.2 386.5 609.9 242.2 526.6"/>
      <polyline class="st2" points="433.8 628.4 390.8 605.6 242.2 526.6"/>
      <polyline class="st2" points="433.8 620 395.2 601.2 242.2 526.6"/>
      <polyline class="st2" points="433.8 611.8 399.7 596.7 242.2 526.6"/>
      <polyline class="st2" points="433.8 604 404.4 592.1 242.2 526.6"/>
      <polyline class="st2" points="433.8 596.3 409.1 587.3 242.2 526.6"/>
      <polyline class="st2" points="433.8 588.8 414 582.4 242.2 526.6"/>
      <polyline class="st2" points="433.8 581.5 419.1 577.3 242.2 526.6"/>
      <polyline class="st2" points="433.8 574.3 424.4 572 242.2 526.6"/>
      <polyline class="st2" points="433.8 567.3 429.9 566.5 242.2 526.6"/>
      <polyline class="st2" points="435.7 560.7 433.8 560.4 242.2 526.6"/>
      <polyline class="st2" points="448.2 548.2 433.8 546.7 242.2 526.6"/>
      <polyline class="st2" points="455 541.5 433.8 540 242.2 526.6"/>
      <polyline class="st2" points="454.6 534 433.8 533.3 242.2 526.6"/>
      <polyline class="st2" points="447.2 526.6 433.8 526.6 242.2 526.6"/>
      <polyline class="st2" points="433.8 513.2 433.8 513.2 242.2 526.6"/>
      <polyline class="st2" points="433.8 506.5 427.7 507.1 242.2 526.6"/>
      <polyline class="st2" points="433.8 499.7 421.9 501.3 242.2 526.6"/>
      <polyline class="st2" points="433.8 492.8 416.5 495.9 242.2 526.6"/>
      <polyline class="st2" points="433.8 485.9 411.3 490.7 242.2 526.6"/>
      <polyline class="st2" points="433.8 478.8 406.3 485.7 242.2 526.6"/>
      <polyline class="st2" points="433.8 471.7 401.5 480.9 242.2 526.6"/>
      <polyline class="st2" points="433.8 464.4 396.9 476.3 242.2 526.6"/>
      <polyline class="st2" points="433.8 456.9 392.5 471.9 242.2 526.6"/>
      <polyline class="st2" points="433.8 449.2 388.2 467.6 242.2 526.6"/>
      <polyline class="st2" points="433.8 441.3 384.1 463.4 242.2 526.6"/>
      <polyline class="st2" points="433.8 433.2 380 459.4 242.2 526.6"/>
      <polyline class="st2" points="433.8 424.8 376 455.4 242.2 526.6"/>
      <polyline class="st2" points="433.8 416 372.2 451.6 242.2 526.6"/>
      <polyline class="st2" points="433.8 406.9 368.4 447.8 242.2 526.6"/>
      <polyline class="st2" points="433.8 397.4 364.6 444 242.2 526.6"/>
      <polyline class="st2" points="433.8 387.4 360.9 440.3 242.2 526.6"/>
      <polyline class="st2" points="433.8 365.9 353.7 433.1 242.2 526.6"/>
      <polyline class="st2" points="433.8 354.1 350.1 429.5 242.2 526.6"/>
      <polyline class="st2" points="428.8 346.4 346.5 425.9 242.2 526.6"/>
      <polyline class="st2" points="416.2 346.4 342.9 422.3 242.2 526.6"/>
      <polyline class="st2" points="393.4 346.4 335.8 415.1 242.2 526.6"/>
      <polyline class="st2" points="383 346.4 332.1 411.5 242.2 526.6"/>
      <polyline class="st2" points="373.2 346.4 328.5 407.9 242.2 526.6"/>
      <polyline class="st2" points="363.8 346.4 324.8 404.2 242.2 526.6"/>
      <polyline class="st2" points="354.8 346.4 321.1 400.5 242.2 526.6"/>
      <polyline class="st2" points="346.3 346.4 317.3 396.7 242.2 526.6"/>
      <polyline class="st2" points="338.1 346.4 313.4 392.8 242.2 526.6"/>
      <polyline class="st2" points="330.1 346.4 309.4 388.8 242.2 526.6"/>
      <polyline class="st2" points="322.5 346.4 305.4 384.8 242.2 526.6"/>
      <polyline class="st2" points="315 346.4 301.2 380.6 242.2 526.6"/>
      <polyline class="st2" points="307.8 346.4 296.9 376.3 242.2 526.6"/>
      <polyline class="st2" points="300.8 346.4 292.5 371.9 242.2 526.6"/>
      <polyline class="st2" points="293.9 346.4 287.9 367.3 242.2 526.6"/>
      <polyline class="st2" points="287.2 346.4 283.1 362.5 242.2 526.6"/>
      <polyline class="st2" points="280.5 346.4 278.2 357.6 242.2 526.6"/>
      <polyline class="st2" points="274 346.4 273 352.4 242.2 526.6"/>
      <polyline class="st2" points="267.6 346.4 267.5 346.9 242.2 526.6"/>
      <polyline class="st2" points="261.7 341.1 261.2 346.4 242.2 526.6"/>
      <polyline class="st2" points="249.2 328.6 248.5 346.4 242.2 526.6"/>
      <polyline class="st2" points="242.2 321.6 242.2 346.4 242.2 526.6"/>
      <polyline class="st2" points="235.3 328.6 235.9 346.4 242.2 526.6"/>
      <polyline class="st2" points="222.8 341.1 223.3 346.4 242.2 526.6"/>
      <polyline class="st2" points="216.9 346.4 217 346.9 242.2 526.6"/>
      <polyline class="st2" points="210.5 346.4 211.5 352.4 242.2 526.6"/>
      <polyline class="st2" points="203.9 346.4 206.3 357.6 242.2 526.6"/>
      <polyline class="st2" points="197.3 346.4 201.3 362.5 242.2 526.6"/>
      <polyline class="st2" points="190.6 346.4 196.6 367.3 242.2 526.6"/>
      <polyline class="st2" points="183.7 346.4 192 371.9 242.2 526.6"/>
      <polyline class="st2" points="176.7 346.4 187.6 376.3 242.2 526.6"/>
      <polyline class="st2" points="169.4 346.4 183.3 380.6 242.2 526.6"/>
      <polyline class="st2" points="162 346.4 179.1 384.8 242.2 526.6"/>
      <polyline class="st2" points="154.4 346.4 175.1 388.8 242.2 526.6"/>
      <polyline class="st2" points="146.4 346.4 171.1 392.8 242.2 526.6"/>
      <polyline class="st2" points="138.2 346.4 167.2 396.7 242.2 526.6"/>
      <polyline class="st2" points="129.7 346.4 163.4 400.5 242.2 526.6"/>
      <polyline class="st2" points="120.7 346.4 159.7 404.2 242.2 526.6"/>
      <polyline class="st2" points="111.3 346.4 156 407.9 242.2 526.6"/>
      <polyline class="st2" points="101.5 346.4 152.4 411.5 242.2 526.6"/>
      <polyline class="st2" points="91.1 346.4 148.7 415.1 242.2 526.6"/>
      <polyline class="st2" points="68.2 346.4 141.6 422.3 242.2 526.6"/>
      <polyline class="st2" points="55.7 346.4 138 425.9 242.2 526.6"/>
      <polyline class="st2" points="50.7 354.1 134.4 429.5 242.2 526.6"/>
      <polyline class="st2" points="50.7 365.9 130.8 433.1 242.2 526.6"/>
      <polyline class="st2" points="50.7 387.4 123.5 440.3 242.2 526.6"/>
      <polyline class="st2" points="50.7 397.4 119.9 444 242.2 526.6"/>
      <polyline class="st2" points="50.7 406.9 116.1 447.8 242.2 526.6"/>
      <polyline class="st2" points="50.7 416 112.3 451.6 242.2 526.6"/>
      <polyline class="st2" points="50.7 424.8 108.4 455.4 242.2 526.6"/>
      <polyline class="st2" points="50.7 433.2 104.5 459.4 242.2 526.6"/>
      <polyline class="st2" points="50.7 441.3 100.4 463.4 242.2 526.6"/>
      <polyline class="st2" points="50.7 449.2 96.3 467.6 242.2 526.6"/>
      <polyline class="st2" points="50.7 456.9 92 471.9 242.2 526.6"/>
      <polyline class="st2" points="50.7 464.4 87.6 476.3 242.2 526.6"/>
      <polyline class="st2" points="50.7 471.7 83 480.9 242.2 526.6"/>
      <polyline class="st2" points="50.7 478.8 78.2 485.7 242.2 526.6"/>
      <polyline class="st2" points="50.7 485.9 73.2 490.7 242.2 526.6"/>
      <polyline class="st2" points="50.7 492.8 68 495.9 242.2 526.6"/>
      <polyline class="st2" points="50.7 499.7 62.5 501.3 242.2 526.6"/>
      <polyline class="st2" points="50.7 506.5 56.8 507.1 242.2 526.6"/>
      <polyline class="st2" points="50.7 513.2 50.7 513.2 242.2 526.6"/>
      <polyline class="st2" points="37.3 526.6 50.7 526.6 242.2 526.6"/>
      <polyline class="st2" points="29.9 534 50.7 533.3 242.2 526.6"/>
      <polyline class="st2" points="29.5 541.5 50.7 540 242.2 526.6"/>
      <polyline class="st2" points="36.3 548.2 50.7 546.7 242.2 526.6"/>
      <polyline class="st2" points="48.8 560.7 50.7 560.4 242.2 526.6"/>
      <polyline class="st2" points="50.7 567.3 54.5 566.5 242.2 526.6"/>
      <polyline class="st2" points="50.7 574.3 60.1 572 242.2 526.6"/>
      <polyline class="st2" points="50.7 581.5 65.4 577.3 242.2 526.6"/>
      <polyline class="st2" points="50.7 588.8 70.4 582.4 242.2 526.6"/>
      <polyline class="st2" points="50.7 596.3 75.4 587.3 242.2 526.6"/>
      <polyline class="st2" points="50.7 604 80.1 592.1 242.2 526.6"/>
      <polyline class="st2" points="50.7 611.9 84.8 596.7 242.2 526.6"/>
      <polyline class="st2" points="50.7 620 89.2 601.2 242.2 526.6"/>
      <polyline class="st2" points="50.7 628.4 93.6 605.6 242.2 526.6"/>
      <polyline class="st2" points="50.7 637.2 97.9 609.9 242.2 526.6"/>
      <polyline class="st2" points="50.7 646.3 102.2 614.1 242.2 526.6"/>
      <polyline class="st2" points="50.7 655.8 106.3 618.3 242.2 526.6"/>
      <polyline class="st2" points="50.7 665.7 110.4 622.4 242.2 526.6"/>
      <polyline class="st2" points="50.7 676.2 114.5 626.4 242.2 526.6"/>
      <polyline class="st2" points="50.7 687.3 118.5 630.4 242.2 526.6"/>
      <polyline class="st2" points="50.7 711.5 126.4 638.4 242.2 526.6"/>
      <polyline class="st2" points="50.7 724.9 130.4 642.4 242.2 526.6"/>
      <polyline class="st2" points="59.6 729.4 134.4 646.4 242.2 526.6"/>
      <polyline class="st2" points="72 729.4 138.4 650.3 242.2 526.6"/>
      <polyline class="st2" points="94.9 729.4 146.5 658.4 242.2 526.6"/>
      <polyline class="st2" points="105.4 729.4 150.6 662.5 242.2 526.6"/>
      <polyline class="st2" points="115.5 729.4 154.7 666.7 242.2 526.6"/>
      <polyline class="st2" points="125.1 729.4 158.9 670.9 242.2 526.6"/>
      <polyline class="st2" points="134.4 729.4 163.2 675.2 242.2 526.6"/>
      <polyline class="st2" points="143.3 729.4 167.6 679.6 242.2 526.6"/>
      <polyline class="st2" points="151.9 729.4 172.1 684.1 242.2 526.6"/>
      <polyline class="st2" points="160.3 729.4 176.7 688.7 242.2 526.6"/>
      <polyline class="st2" points="168.4 729.4 181.5 693.5 242.2 526.6"/>
      <polyline class="st2" points="176.3 729.4 186.4 698.4 242.2 526.6"/>
      <polyline class="st2" points="184.1 729.4 191.5 703.5 242.2 526.6"/>
      <polyline class="st2" points="191.7 729.4 196.8 708.8 242.2 526.6"/>
      <polyline class="st2" points="199.1 729.4 202.3 714.3 242.2 526.6"/>
      <polyline class="st2" points="206.5 729.4 208.1 720.1 242.2 526.6"/>
      <polyline class="st2" points="213.7 729.4 214.2 726.1 242.2 526.6"/>
      <polyline class="st2" points="220.6 732.5 220.9 729.4 242.2 526.6"/>
      <polyline class="st2" points="234.6 746.5 235.2 729.4 242.2 526.6"/>
    </g>
    <path class="st1" d="M390.8,346.4H93.7c-16.8,16.8-26.2,26.2-43,43v297c16.8,16.8,26.2,26.2,43,43h297c16.8-16.8,26.2-26.2,43-43v-297c-16.8-16.8-26.2-26.2-43-43Z"/>
  </g>
</svg>