<?xml version="1.0" encoding="UTF-8"?><svg id="Layer_2" xmlns="http://www.w3.org/2000/svg" viewBox="0 0 72.5 29.97"><defs><style>.cls-1,.cls-2,.cls-3,.cls-4,.cls-5{stroke:#333;stroke-miterlimit:10;}.cls-1,.cls-2,.cls-3,.cls-5{fill:#1f1f1f;}.cls-1,.cls-4{stroke-width:.5px;}.cls-2{stroke-width:.25px;}.cls-4{fill:none;}.cls-5{stroke-width:.75px;}</style></defs><g id="boxes"><path class="cls-3" d="M67.75,9.4v12.67s0,.08,0,.12c0,.1,0,.21-.02.31,0,.06,0,.13-.03.19,0,.01,0,.01,0,.03-.02.12-.04.23-.07.35-.04.13-.07.27-.12.4-.03.06-.05.14-.09.21-.03.09-.06.17-.12.26-.02.04-.04.08-.06.12,0,.04-.04.09-.07.13-.03.06-.07.13-.12.19-.04.06-.09.13-.13.18-.04.08-.09.14-.13.18-.04.06-.09.1-.13.15-.02.04-.04.06-.05.06-.07.09-.13.17-.21.23-.23.23-.5.45-.77.64h0c-.16.1-.32.21-.49.3-.62.35-1.32.59-2.07.72h0c-.41.08-.84.12-1.27.12H20.83v-1.85h37.84c.18,0,.35-.01.52-.03.1,0,.2-.01.28-.04.19-.01.37-.05.55-.1h0c.6-.14,1.15-.37,1.62-.67.1-.06.2-.13.29-.21.04-.03.06-.05.09-.06.36-.28.65-.6.88-.96.04-.06.09-.13.12-.19.06-.09.11-.19.14-.28.05-.1.1-.19.13-.3.08-.22.13-.45.16-.68.02-.13.03-.27.03-.4v-11.77"/><path class="cls-3" d="M72,9.41v13.91c0,3.28-3.28,5.95-7.32,5.95H20.83v-2.32h40.92c3.31,0,6-2.18,6-4.87v-12.66"/><path class="cls-3" d="M63.49,20.57v-11.77c0-.06,0-.13,0-.19h0s0-.04,0-.06c0-.1,0-.19-.04-.28,0-.05,0-.1-.03-.14,0-.09-.04-.18-.06-.26,0-.05-.03-.09-.04-.13-.04-.1-.07-.21-.13-.31-.05-.14-.13-.28-.23-.42-.07-.13-.17-.26-.27-.37-.09-.12-.18-.22-.28-.31-.08-.09-.17-.17-.26-.23-.05-.05-.12-.1-.18-.15-.11-.08-.22-.15-.35-.23,0,0,0-.01-.02-.01-.12-.06-.23-.14-.36-.19-.08-.05-.17-.09-.26-.13-.31-.14-.64-.24-1-.32-.2-.05-.4-.09-.61-.1-.22-.04-.46-.05-.7-.05H20.83v-1.86h40.92c.2,0,.4.01.6.03.29.03.59.06.87.13.15.03.29.06.44.1.11.03.22.06.33.1.4.13.78.3,1.14.49.18.1.35.21.51.32.16.12.32.23.46.36.15.13.29.26.42.4.13.14.26.28.36.44.09.12.17.23.23.35.08.12.15.24.2.37.05.09.09.18.12.27.04.1.08.21.11.31.02.04.03.08.04.12.04.13.07.27.1.41,0,.01,0,.04,0,.05s0,.01,0,.03c.02.06.03.13.04.21,0,.14.02.27.02.41v12.66"/><path class="cls-3" d="M72,20.57V6.66c0-3.28-3.28-5.95-7.32-5.95H20.83v2.32h40.92c3.31,0,6,2.18,6,4.87v12.66"/><polygon class="cls-3" points="20.83 .71 20.83 29.26 17.74 28.16 14.14 26.86 10.01 25.38 5.1 23.63 5.09 23.63 2.97 21.46 .5 20.57 .5 9.4 3.99 8.16 5.98 6.03 5.99 6.03 10.78 4.32 14.81 2.87 18.34 1.61 20.83 .71"/><polyline class="cls-2" points="43.96 29.26 43.96 26.94 43.96 25.09"/><polyline class="cls-2" points="46.13 29.26 45.78 26.94 45.51 25.09"/><polyline class="cls-2" points="48.34 29.26 47.64 26.94 47.08 25.09"/><polyline class="cls-2" points="50.66 29.26 49.59 26.94 48.74 25.09"/><polyline class="cls-2" points="53.14 29.26 51.67 26.94 50.5 25.09"/><polyline class="cls-2" points="55.87 29.26 53.96 26.94 52.45 25.09"/><polyline class="cls-2" points="58.94 29.26 56.54 26.94 54.64 25.09"/><polyline class="cls-2" points="62.52 29.26 59.56 26.94 57.19 25.09"/><polyline class="cls-2" points="66.55 29.05 66.55 29.05 63.03 26.82 63.02 26.82 60.03 24.92 60.02 24.92"/><polyline class="cls-2" points="69.48 27.8 65.6 25.81 65.59 25.81 62.03 23.98"/><polyline class="cls-2" points="71.31 25.86 71.3 25.86 67.16 24.16 63.17 22.55"/><polyline class="cls-2" points="71.99 23.52 67.74 22.19 63.49 20.85"/><polyline class="cls-2" points="63.49 19.2 67.75 20.17 69.48 20.57 72 21.15"/><polyline class="cls-2" points="63.49 17.66 67.75 18.3 72 18.93"/><polyline class="cls-2" points="63.49 16.18 67.75 16.49 72 16.81"/><polyline class="cls-2" points="63.49 14.73 67.75 14.73 72 14.73"/><polyline class="cls-2" points="63.49 13.28 67.75 12.96 72 12.65"/><polyline class="cls-2" points="63.49 11.8 67.75 11.16 72 10.53"/><polyline class="cls-2" points="63.49 10.25 67.21 9.4 67.75 9.27 72 8.3"/><polyline class="cls-2" points="71.95 5.94 67.69 7.27 63.48 8.59 63.48 8.61"/><polyline class="cls-2" points="71.03 3.7 66.88 5.4 62.94 7"/><polyline class="cls-2" points="69.03 1.88 65.13 3.88 61.59 5.69"/><polyline class="cls-2" points="65.91 .8 65.91 .8 62.35 3.06 59.37 4.95"/><polyline class="cls-2" points="61.86 .71 58.89 3.04 56.52 4.9"/><polyline class="cls-2" points="58.41 .71 56.02 3.04 54.1 4.9"/><polyline class="cls-2" points="55.44 .71 53.53 3.04 52.01 4.9"/><polyline class="cls-2" points="52.81 .71 51.35 3.04 50.17 4.9"/><polyline class="cls-2" points="50.42 .71 49.35 3.04 48.49 4.9"/><polyline class="cls-2" points="48.19 .71 47.48 3.04 46.92 4.9"/><polyline class="cls-2" points="46.05 .71 45.7 3.04 45.43 4.9"/><polyline class="cls-2" points="43.96 .71 43.96 3.04 43.96 4.9"/><polyline class="cls-2" points="41.87 .71 42.21 3.04 42.49 4.9"/><polyline class="cls-2" points="39.73 .71 40.43 3.04 40.99 4.9"/><polyline class="cls-2" points="37.5 .71 38.57 3.04 39.43 4.9"/><polyline class="cls-2" points="35.1 .71 36.57 3.04 37.75 4.9"/><polyline class="cls-2" points="32.48 .71 34.38 3.04 35.9 4.9"/><polyline class="cls-2" points="29.51 .71 31.9 3.04 33.82 4.9"/><polyline class="cls-2" points="26.05 .71 29.02 3.04 31.4 4.9"/><polyline class="cls-2" points="21.88 .71 25.54 3.04 28.46 4.9"/><polyline class="cls-2" points="18.34 1.61 20.83 2.88 21.13 3.04 24.76 4.9"/><line class="cls-2" x1="20.75" y1="5.28" x2="14.81" y2="2.87"/><line class="cls-2" x1="13.82" y1="5.27" x2="10.78" y2="4.32"/><line class="cls-2" x1="17.12" y1="6.31" x2="15.92" y2="5.93"/><polygon class="cls-1" points="10.81 21.89 5.77 20.46 8.07 19.15 10.81 21.89"/><polygon class="cls-1" points="11.06 8.03 8.33 10.76 6.97 9.19 11.06 8.03"/><polygon class="cls-1" points="20.83 5.31 20.83 24.72 19.99 24.49 16.43 23.47 20.49 19.41 20.49 10.5 16.48 6.49 17.12 6.31 20.75 5.28 20.83 5.31"/><line class="cls-2" x1="11.74" y1="7.35" x2="5.98" y2="6.03"/><line class="cls-2" x1="6.97" y1="9.18" x2="3.99" y2="8.16"/><line class="cls-2" x1="7.66" y1="11.44" x2=".66" y2="11.23"/><line class="cls-2" x1="4.37" y1="14.73" x2=".41" y2="14.73"/><line class="cls-2" x1="6.94" y1="18.02" x2=".66" y2="18.22"/><line class="cls-2" x1="5.77" y1="20.45" x2="2.97" y2="21.46"/><line class="cls-2" x1="11.16" y1="22.24" x2="5.09" y2="23.63"/><line class="cls-2" x1="13.28" y1="24.36" x2="10" y2="25.39"/><line class="cls-2" x1="19.99" y1="24.49" x2="14.14" y2="26.86"/><polyline class="cls-2" points="17.74 28.16 20.83 26.58 23.72 25.09"/><polyline class="cls-2" points="21.05 29.26 24.72 26.94 27.63 25.09"/><polyline class="cls-2" points="25.39 29.26 28.36 26.94 30.72 25.09"/><polyline class="cls-2" points="28.98 29.26 31.37 26.94 33.28 25.09"/><polyline class="cls-2" points="32.05 29.26 33.96 26.94 35.47 25.09"/><polyline class="cls-2" points="34.77 29.26 36.24 26.94 37.42 25.09"/><polyline class="cls-2" points="37.26 29.26 38.33 26.94 39.19 25.09"/><polyline class="cls-2" points="39.58 29.26 40.27 26.94 40.83 25.09"/><polyline class="cls-2" points="41.8 29.26 42.14 26.94 42.42 25.09"/><polygon class="cls-5" points="20.83 10.49 20.83 19.4 14.41 25.49 4.01 15.09 4.37 14.73 7.66 11.44 8.33 10.76 11.74 7.35 13.82 5.27 14.54 4.55 20.83 10.49"/><path class="cls-3" d="M55.09,4.89h-25.31l-8.47,6.76v6.68l8.47,6.76h25.31l8.47-6.76v-6.68l-8.47-6.76Z"/><path class="cls-4" d="M54.17,7.27h-23.5l-7.17,4.71v6.01l7.17,4.71h23.5l7.17-4.71v-6.01l-7.17-4.71Z"/></g></svg>