<?xml version="1.0" encoding="UTF-8"?>
<svg xmlns="http://www.w3.org/2000/svg" version="1.1" xmlns:xlink="http://www.w3.org/1999/xlink" viewBox="0 0 180 28">
  <!-- Generator: Adobe Illustrator 29.0.1, SVG Export Plug-In . SVG Version: 2.1.0 Build 192)  -->
  <defs>
    <style>
      .st0, .st1 {
        fill: #1f1f1f;
      }

      .st0, .st1, .st2, .st3 {
        stroke: #333;
        stroke-miterlimit: 10;
      }

      .st0, .st2 {
        stroke-width: .5px;
      }

      .st4 {
        opacity: .5;
      }

      .st5, .st2, .st3 {
        fill: none;
      }

      .st6 {
        fill: #333;
      }

      .st7 {
        display: none;
      }

      .st8 {
        clip-path: url(#clippath);
      }

      .st3 {
        stroke-width: .2px;
      }
    </style>
    <clipPath id="clippath">
      <rect class="st5" width="179.2" height="27.1"/>
    </clipPath>
  </defs>
  <g id="Layer_1" class="st7">
    <g class="st4">
      <g class="st8">
        <path class="st6" d="M26.5,4.1c-2.2-.5-4.4-1.2-6.5-2.1h4.2c.9.6,1.6,1.3,2.4,2.1h0ZM35.5,3.7c-1.9.9-4,1.2-6,.9-.2-.3-.4-.6-.6-.9h6.6ZM177.8,8v1.5c-1.8-2.7-5.5-4.7-8.1-5.8h4.3c1,1.7,2.3,3.1,3.8,4.3ZM174,23.4h-4.3c2.6-1.1,6.3-3.1,8.1-5.8v1.5c-1.5,1.2-2.8,2.6-3.8,4.3ZM29.5,22.5c2-.3,4.1,0,6,.9h-6.6c.2-.3.4-.6.6-.9ZM24.2,25.1h-4.2c2.1-.9,4.3-1.6,6.5-2.1-.7.8-1.5,1.5-2.4,2.1ZM31.5,5.4c1.5,2.5,2.4,5.3,2.4,8.2,0,2.9-.9,5.7-2.4,8.2h-1.5c1.5-2.5,2.2-5.3,2.2-8.2,0-2.9-.8-5.7-2.2-8.2h1.5,0ZM167.7,3.7c2.4.9,8.7,3.6,10.2,7.4v4.9c-1.5,3.8-7.8,6.5-10.2,7.4H36.8c-1.3-1-2.9-1.6-4.5-1.6,1.5-2.5,2.3-5.3,2.3-8.2,0-2.9-.9-5.7-2.3-8.2,1.6,0,3.2-.6,4.5-1.7h130.8ZM2,13.6c0-2.3.5-4.5,1.6-6.5,1-2,2.6-3.7,4.4-5h8.1c3.6,1.4,7.4,2.4,11.2,3,1.9,2.4,2.9,5.4,2.9,8.5,0,3.1-1,6.1-2.9,8.5-3.8.6-7.6,1.6-11.2,3H8c-1.8-1.3-3.4-3-4.4-5-1-2-1.6-4.2-1.6-6.5ZM7.1.2C4.9,1.6,3.1,3.6,1.9,6,.7,8.3,0,10.9,0,13.5s.7,5.2,1.9,7.6c1.2,2.3,3,4.3,5.2,5.8l.3.2h17.4l.2-.2c.9-.6,1.8-1.3,2.6-2.1h147.2l.2-.3c.6-1,2.4-3.6,3.8-4.3l.4-.2V7.1l-.4-.2c-1.5-.7-3.3-3.4-3.8-4.3l-.2-.3H27.6c-.8-.8-1.6-1.5-2.6-2.1l-.3-.2H7.4l-.2.2Z"/>
      </g>
    </g>
  </g>
  <g id="Layer_2">
    <g>
      <g>
        <path class="st1" d="M179.3,5.4v16.3c-2.1,1-3.2,1.5-5.3,2.5H23.4c-2.1-1-3.2-1.5-5.3-2.5V5.4c2.1-1,3.2-1.5,5.3-2.5h150.6c2.1,1,3.2,1.5,5.3,2.5Z"/>
        <path class="st0" d="M179.3,6.8v13.5c-1.3,0-2.5,0-3.5,0-7.1.4-10,1.8-10.1,3.6,0,0,0,.1,0,.2H38c0,0,0-.1,0-.2-.2-2.1-3.7-3.7-8.1-3.7V6.8c4.3,0,7.9-1.6,8.1-3.7,0,0,0-.1,0-.2h127.6c0,0,0,.1,0,.2.2,1.8,3,3.2,9.8,3.6,1.2,0,2.4,0,3.8,0Z"/>
        <path class="st0" d="M173.7,20.5c-9.9,0-13.5,1.8-13.9,3.5H34.3c.4-1.7-3.2-3.5-7.6-3.5V6.6c4.4,0,8-1.8,8.2-3.5h125.6c-.2,1.7,3.4,3.5,13.3,3.5"/>
        <path class="st2" d="M179.3,7.1v12.9c-1.3,0-2.5.1-3.5.4-2.9.6-4.8,2-4.8,3.6H31.9c0-1.5-1.7-2.8-4.3-3.5h0c-.3,0-.6-.1-.9-.2-1-.2-2-.3-3.2-.3V7.1c1.1,0,2.2-.1,3.2-.3.4,0,.8-.2,1.1-.3h0c2.4-.7,4.1-2,4.1-3.4h139c0,1.6,1.8,2.9,4.5,3.6,1.1.3,2.4.4,3.8.4Z"/>
      </g>
      <path class="st2" d="M179.3,7.4v12.2c-3.3-1.1-5.5-3.4-5.5-6.1s2.3-5,5.5-6.1Z"/>
      <path class="st2" d="M179.3,8.7v9.2c-1.6-1.2-2.6-2.8-2.6-4.6s1-3.4,2.6-4.6Z"/>
    </g>
    <path class="st1" d="M24.5.6h0c9.6,7.8,9.7,17.8,0,25.9h0s-16.9,0-16.9,0h0c-9.3-8.1-9.3-18,0-26h0s16.9,0,16.9,0Z"/>
    <circle class="st3" cx="5.4" cy="9.4" r="3.7"/>
    <circle class="st3" cx="5.4" cy="9.4" r="3.7"/>
    <circle class="st3" cx="11.6" cy="4.3" r="3.7"/>
    <circle class="st3" cx="20.9" cy="4.3" r="3.7"/>
    <circle class="st3" cx="11.6" cy="22.8" r="3.7"/>
    <circle class="st3" cx="20.9" cy="22.8" r="3.7"/>
    <circle class="st3" cx="27.2" cy="9.4" r="3.7"/>
    <circle class="st3" cx="5.2" cy="17.7" r="3.7"/>
    <circle class="st3" cx="27" cy="17.7" r="3.7"/>
    <g>
      <rect class="st0" x="5.4" y="2.8" width="21.6" height="21.6"/>
      <g>
        <rect class="st3" x="5.4" y="21.8" width="2.5" height="2.5"/>
        <rect class="st3" x="6.4" y="20.5" width="2.8" height="2.8"/>
        <rect class="st3" x="7.9" y="19.9" width="1.9" height="1.9"/>
      </g>
      <g>
        <rect class="st3" x="24.4" y="21.8" width="2.5" height="2.5" transform="translate(51.4 46.2) rotate(180)"/>
        <rect class="st3" x="23.1" y="20.5" width="2.8" height="2.8" transform="translate(49.1 43.8) rotate(-180)"/>
        <rect class="st3" x="22.5" y="19.9" width="1.9" height="1.9" transform="translate(46.9 41.7) rotate(180)"/>
      </g>
      <g>
        <rect class="st3" x="24.4" y="2.8" width="2.5" height="2.5" transform="translate(51.4 8) rotate(180)"/>
        <rect class="st3" x="23.1" y="3.8" width="2.8" height="2.8" transform="translate(49.1 10.4) rotate(180)"/>
        <rect class="st3" x="22.5" y="5.3" width="1.9" height="1.9" transform="translate(46.9 12.5) rotate(180)"/>
      </g>
      <g>
        <rect class="st3" x="5.4" y="2.8" width="2.5" height="2.5"/>
        <rect class="st3" x="6.4" y="3.8" width="2.8" height="2.8"/>
        <rect class="st3" x="7.9" y="5.3" width="1.9" height="1.9"/>
      </g>
    </g>
    <path class="st0" d="M22,2.8h0c6.7,6.5,6.8,14.8,0,21.5h0s-11.9,0-11.9,0h0c-6.6-6.7-6.5-14.9,0-21.6h0s11.9,0,11.9,0Z"/>
  </g>
</svg>