<?xml version="1.0" encoding="UTF-8"?>
<svg xmlns="http://www.w3.org/2000/svg" version="1.1" viewBox="0 0 309 93">
  <!-- Generator: Adobe Illustrator 29.0.1, SVG Export Plug-In . SVG Version: 2.1.0 Build 192)  -->
  <defs>
    <style>
      .st0 {
        fill: #1f1f1f;
      }

      .st0, .st1 {
        opacity: .5;
      }

      .st2 {
        fill: #1f1f1f;
      }

      .st2, .st3 {
        stroke: #333;
        stroke-miterlimit: 10;
      }

      .st4 {
        display: none;
      }

      .st3 {
        fill: none;
        stroke-width: .5px;
      }

      .st1 {
        fill: #333;
      }
    </style>
  </defs>
  <g id="Layer_1" class="st4">
    <path class="st0" d="M9.4,92.1h290.4c0-4.8,8.3-7.3,8.3-7.3V.9h-4.8s-4,7.5-16.7,0H22.5C9.7,8.4,5.8.9,5.8.9H.9v83.8s8.4,2.6,8.4,7.3Z"/>
    <path class="st1" d="M5.3,1.9c.7.9,1.6,1.7,2.6,2.2,1,.6,2.1.9,3.3,1,.1.3.4.5.6.7.3.2.6.2.9.2s.6,0,.9-.2c.3-.2.5-.4.6-.7,3-.5,6-1.6,8.6-3.2h263.6c2.6,1.6,5.5,2.7,8.6,3.1.1.3.4.5.6.7.3.2.6.2.9.2s.6,0,.9-.2c.3-.2.5-.4.6-.7,1.1,0,2.2-.4,3.3-1,1-.5,1.9-1.3,2.6-2.2h3.4v16.8c-1.7,9.7-2.6,19.6-2.8,29.4v29.5c-3.4,5.6-9.9,13.5-18.4,13.5H23c-8.5,0-15-8-18.4-13.5v-29.5c-.1-9.9-1.1-19.7-2.8-29.4V1.9h3.4ZM307.1,72.5c-.2.4-.8,1.7-1.9,3.5v-27.9c0-7.8.7-15.6,1.9-23.3v47.7ZM298.9,91.1h-5.3c6.6-3.3,11.2-10.2,13.6-14.5v7.5c-1.9.7-7.5,3.1-8.3,7.1h0ZM10.1,91.1c-.7-4-6.4-6.4-8.2-7.1v-7.3c2.4,4.2,7,11.2,13.6,14.5h-5.3ZM3.7,76c-1-1.7-1.6-3.1-1.9-3.5V24.9c1.2,7.7,1.8,15.5,1.9,23.3v27.9ZM.7,85.6c2.1.7,7.7,3.1,7.7,6.4v.9h292.3v-.9c0-3.3,5.6-5.8,7.7-6.4l.7-.2V0h-6.3l-.3.5c-.5.8-1.2,1.4-2,1.9-.8.5-1.7.8-2.6.8-.2-.2-.4-.4-.6-.5-.2-.1-.5-.2-.8-.2s-.5,0-.8.2c-.2.1-.4.3-.6.5-2.8-.5-5.5-1.5-8-3.1h-.2c0-.1-264.6-.1-264.6-.1h-.2c-2.5,1.7-5.2,2.7-8.1,3.1-.2-.2-.4-.4-.6-.5-.2-.1-.5-.2-.8-.2-.3,0-.5,0-.8.2-.2.1-.4.3-.6.5-.9,0-1.8-.4-2.6-.8-.8-.5-1.5-1.1-2-1.9l-.3-.5H0v85.4l.7.2Z"/>
  </g>
  <g id="Layer_3">
    <g>
      <path class="st2" d="M308.5,5.6v81.9l-5,5H5.5l-5-5V5.6C2.5,3.6,3.5,2.5,5.5.6h10.8l-2.1,6.4,6.8-5,6.8,5-2.1-6.4h257.3l-2.1,6.4,6.8-5,6.8,5-2.1-6.4h10.8c2,2,3,3,5,5Z"/>
      <g>
        <path class="st3" d="M294,93.2c0-7.3,5.9-13.3,13.1-13.3"/>
        <path class="st3" d="M287.4,93.2c0-7.3,9.4-13.3,21.1-13.3"/>
        <path class="st3" d="M.8,79.9c7.2,0,13.1,6,13.1,13.3"/>
        <path class="st3" d="M21.6,93.2c0-7.3-9.4-13.3-21.1-13.3"/>
      </g>
    </g>
  </g>
</svg>