<?xml version="1.0" encoding="UTF-8"?>
<svg id="Layer_2" data-name="Layer 2" xmlns="http://www.w3.org/2000/svg" viewBox="0 0 180.94 89.15">
  <defs>
    <style>
      .cls-1 {
        fill: none;
      }

      .cls-1, .cls-2 {
        stroke-width: .5px;
      }

      .cls-1, .cls-2, .cls-3 {
        stroke: #000;
        stroke-miterlimit: 10;
      }

      .cls-2, .cls-3 {
        fill: #1f1f1f;
      }
    </style>
  </defs>
  <g id="boxes">
    <g>
      <path class="cls-3" d="M178.44,88.65H2.5c-.78-.78-1.22-1.22-2-2V2.5L2.5.5h175.94l2,2v84.15c-.78.78-1.22,1.22-2,2Z"/>
      <g>
        <line class="cls-1" x1="90.47" y1="88.65" x2="90.47" y2="61.96"/>
        <line class="cls-1" x1="92.5" y1="88.65" x2="90.47" y2="61.96"/>
        <line class="cls-1" x1="94.54" y1="88.65" x2="90.47" y2="61.96"/>
        <line class="cls-1" x1="96.62" y1="88.65" x2="90.47" y2="61.96"/>
        <line class="cls-1" x1="98.75" y1="88.65" x2="90.47" y2="61.96"/>
        <line class="cls-1" x1="100.95" y1="88.65" x2="90.47" y2="61.96"/>
        <line class="cls-1" x1="103.24" y1="88.65" x2="90.47" y2="61.96"/>
        <line class="cls-1" x1="105.64" y1="88.65" x2="90.47" y2="61.96"/>
        <line class="cls-1" x1="108.2" y1="88.65" x2="90.47" y2="61.96"/>
        <line class="cls-1" x1="110.93" y1="88.65" x2="90.47" y2="61.96"/>
        <line class="cls-1" x1="113.9" y1="88.65" x2="90.47" y2="61.96"/>
        <line class="cls-1" x1="117.15" y1="88.65" x2="90.47" y2="61.96"/>
        <line class="cls-1" x1="120.75" y1="88.65" x2="90.47" y2="61.96"/>
        <line class="cls-1" x1="124.81" y1="88.65" x2="90.47" y2="61.96"/>
        <line class="cls-1" x1="129.45" y1="88.65" x2="90.47" y2="61.96"/>
        <line class="cls-1" x1="134.85" y1="88.65" x2="90.47" y2="61.96"/>
        <line class="cls-1" x1="141.28" y1="88.65" x2="90.47" y2="61.96"/>
        <line class="cls-1" x1="149.13" y1="88.65" x2="90.47" y2="61.96"/>
        <line class="cls-1" x1="159" y1="88.65" x2="90.47" y2="61.96"/>
        <line class="cls-1" x1="171.91" y1="88.65" x2="90.47" y2="61.96"/>
        <line class="cls-1" x1="180.44" y1="86.15" x2="90.47" y2="61.96"/>
        <line class="cls-1" x1="180.44" y1="81.08" x2="90.47" y2="61.96"/>
        <line class="cls-1" x1="180.44" y1="76.16" x2="90.47" y2="61.96"/>
        <line class="cls-1" x1="180.44" y1="71.37" x2="90.47" y2="61.96"/>
        <line class="cls-1" x1="180.44" y1="66.65" x2="90.47" y2="61.96"/>
        <line class="cls-1" x1="180.44" y1="61.96" x2="90.47" y2="61.96"/>
        <line class="cls-1" x1="180.44" y1="57.27" x2="90.47" y2="61.96"/>
        <line class="cls-1" x1="180.44" y1="52.55" x2="90.47" y2="61.96"/>
        <line class="cls-1" x1="180.44" y1="47.76" x2="90.47" y2="61.96"/>
        <line class="cls-1" x1="180.44" y1="42.84" x2="90.47" y2="61.96"/>
        <line class="cls-1" x1="180.44" y1="37.77" x2="90.47" y2="61.96"/>
        <line class="cls-1" x1="180.44" y1="32.48" x2="90.47" y2="61.96"/>
        <line class="cls-1" x1="180.44" y1="26.92" x2="90.47" y2="61.96"/>
        <line class="cls-1" x1="180.44" y1="21.03" x2="90.47" y2="61.96"/>
        <line class="cls-1" x1="180.44" y1="14.71" x2="90.47" y2="61.96"/>
        <line class="cls-1" x1="180.44" y1="7.86" x2="90.47" y2="61.96"/>
        <line class="cls-1" x1="179.4" y1="1.08" x2="90.47" y2="61.96"/>
        <line class="cls-1" x1="169.56" y1=".5" x2="90.47" y2="61.96"/>
        <line class="cls-1" x1="160.21" y1=".5" x2="90.47" y2="61.96"/>
        <line class="cls-1" x1="151.91" y1=".5" x2="90.47" y2="61.96"/>
        <line class="cls-1" x1="144.43" y1=".5" x2="90.47" y2="61.96"/>
        <line class="cls-1" x1="137.6" y1=".5" x2="90.47" y2="61.96"/>
        <line class="cls-1" x1="131.3" y1=".5" x2="90.47" y2="61.96"/>
        <line class="cls-1" x1="125.42" y1=".5" x2="90.47" y2="61.96"/>
        <line class="cls-1" x1="119.87" y1=".5" x2="90.47" y2="61.96"/>
        <line class="cls-1" x1="114.6" y1=".5" x2="90.47" y2="61.96"/>
        <line class="cls-1" x1="109.54" y1=".5" x2="90.47" y2="61.96"/>
        <line class="cls-1" x1="104.64" y1=".5" x2="90.47" y2="61.96"/>
        <line class="cls-1" x1="99.85" y1=".5" x2="90.47" y2="61.96"/>
        <line class="cls-1" x1="95.14" y1=".5" x2="90.47" y2="61.96"/>
        <line class="cls-1" x1="90.47" y1="61.96" x2="90.47" y2=".5"/>
        <line class="cls-1" x1="90.47" y1="61.96" x2="85.8" y2=".5"/>
        <line class="cls-1" x1="90.47" y1="61.96" x2="81.09" y2=".5"/>
        <line class="cls-1" x1="90.47" y1="61.96" x2="76.3" y2=".5"/>
        <line class="cls-1" x1="90.47" y1="61.96" x2="71.4" y2=".5"/>
        <line class="cls-1" x1="90.47" y1="61.96" x2="66.34" y2=".5"/>
        <line class="cls-1" x1="90.47" y1="61.96" x2="61.07" y2=".5"/>
        <line class="cls-1" x1="90.47" y1="61.96" x2="55.52" y2=".5"/>
        <line class="cls-1" x1="90.47" y1="61.96" x2="49.64" y2=".5"/>
        <line class="cls-1" x1="90.47" y1="61.96" x2="43.34" y2=".5"/>
        <line class="cls-1" x1="90.47" y1="61.96" x2="36.51" y2=".5"/>
        <line class="cls-1" x1="90.47" y1="61.96" x2="29.03" y2=".5"/>
        <line class="cls-1" x1="90.47" y1="61.96" x2="20.73" y2=".5"/>
        <line class="cls-1" x1="90.47" y1="61.96" x2="11.38" y2=".5"/>
        <line class="cls-1" x1="90.47" y1="61.96" x2="1.54" y2="1.08"/>
        <line class="cls-1" x1="90.47" y1="61.96" x2=".5" y2="7.86"/>
        <line class="cls-1" x1="90.47" y1="61.96" x2=".5" y2="14.71"/>
        <line class="cls-1" x1="90.47" y1="61.96" x2=".5" y2="21.03"/>
        <line class="cls-1" x1="90.47" y1="61.96" x2=".5" y2="26.92"/>
        <line class="cls-1" x1="90.47" y1="61.96" x2=".5" y2="32.48"/>
        <line class="cls-1" x1="90.47" y1="61.96" x2=".5" y2="37.77"/>
        <line class="cls-1" x1="90.47" y1="61.96" x2=".5" y2="42.84"/>
        <line class="cls-1" x1="90.47" y1="61.96" x2=".5" y2="47.76"/>
        <line class="cls-1" x1="90.47" y1="61.96" x2=".5" y2="52.55"/>
        <line class="cls-1" x1="90.47" y1="61.96" x2=".5" y2="57.27"/>
        <line class="cls-1" x1="90.47" y1="61.96" x2=".5" y2="61.96"/>
        <line class="cls-1" x1="90.47" y1="61.96" x2=".5" y2="66.65"/>
        <line class="cls-1" x1="90.47" y1="61.96" x2=".5" y2="71.37"/>
        <line class="cls-1" x1="90.47" y1="61.96" x2=".5" y2="76.16"/>
        <line class="cls-1" x1="90.47" y1="61.96" x2=".5" y2="81.08"/>
        <line class="cls-1" x1="90.47" y1="61.96" x2=".5" y2="86.15"/>
        <line class="cls-1" x1="90.47" y1="61.96" x2="9.03" y2="88.65"/>
        <line class="cls-1" x1="90.47" y1="61.96" x2="21.94" y2="88.65"/>
        <line class="cls-1" x1="90.47" y1="61.96" x2="31.81" y2="88.65"/>
        <line class="cls-1" x1="90.47" y1="61.96" x2="39.66" y2="88.65"/>
        <line class="cls-1" x1="90.47" y1="61.96" x2="46.09" y2="88.65"/>
        <line class="cls-1" x1="90.47" y1="61.96" x2="51.49" y2="88.65"/>
        <line class="cls-1" x1="90.47" y1="61.96" x2="56.13" y2="88.65"/>
        <line class="cls-1" x1="90.47" y1="61.96" x2="60.19" y2="88.65"/>
        <line class="cls-1" x1="90.47" y1="61.96" x2="63.79" y2="88.65"/>
        <line class="cls-1" x1="90.47" y1="61.96" x2="67.04" y2="88.65"/>
        <line class="cls-1" x1="90.47" y1="61.96" x2="70.01" y2="88.65"/>
        <line class="cls-1" x1="90.47" y1="61.96" x2="72.74" y2="88.65"/>
        <line class="cls-1" x1="90.47" y1="61.96" x2="75.3" y2="88.65"/>
        <line class="cls-1" x1="90.47" y1="61.96" x2="77.7" y2="88.65"/>
        <line class="cls-1" x1="90.47" y1="61.96" x2="79.99" y2="88.65"/>
        <line class="cls-1" x1="90.47" y1="61.96" x2="82.19" y2="88.65"/>
        <line class="cls-1" x1="90.47" y1="61.96" x2="84.32" y2="88.65"/>
        <line class="cls-1" x1="90.47" y1="61.96" x2="86.4" y2="88.65"/>
        <line class="cls-1" x1="90.47" y1="61.96" x2="88.44" y2="88.65"/>
      </g>
      <rect class="cls-2" x="4.33" y=".5" width="172.27" height="88.15"/>
    </g>
  </g>
</svg>