<?xml version="1.0" encoding="UTF-8"?><svg id="Layer_2" xmlns="http://www.w3.org/2000/svg" viewBox="0 0 320.8 200.51"><defs><style>.cls-1,.cls-2,.cls-3{fill:none;stroke:#262626;}.cls-1,.cls-3{stroke-miterlimit:10;}.cls-2{stroke-miterlimit:10;stroke-width:2px;}.cls-3{stroke-width:2px;}</style></defs><g id="Layer_1-2"><g id="Layer_3"><rect class="cls-3" x="1" y="1.41" width="8.5" height="8.5"/><rect class="cls-2" x="157.06" y="2.62" width="5.8" height="5.8" transform="translate(42.95 114.73) rotate(-45)"/><polyline class="cls-1" points="13.7 9.91 13.7 5.71 155.8 5.71"/><rect class="cls-3" x="1" y="191.01" width="8.5" height="8.5"/><polyline class="cls-3" points="9.5 191.01 9.5 118.21 9.5 82.71 9.5 9.91 150.8 9.91 155.8 5.51 150.8 1.41 18 1.41 18 18.41 1 18.41 1 82.71 1 118.21 1 182.51 18 182.51 18 199.51 154.9 199.51 159.9 195.41"/><polyline class="cls-1" points="9.5 14.11 5.2 14.11 5.2 82.71 5.2 118.21 5.2 186.81 13.7 186.81 13.7 191.01 13.7 195.21 159.9 195.21"/><rect class="cls-3" x="311.3" y="1.41" width="8.5" height="8.5"/><polyline class="cls-1" points="307.1 9.91 307.1 5.71 163.9 5.71"/><rect class="cls-3" x="311.3" y="191.01" width="8.5" height="8.5"/><polyline class="cls-3" points="311.3 191.01 311.3 118.21 311.3 82.71 311.3 9.91 168.9 9.91 163.9 5.51 168.9 1.41 302.8 1.41 302.8 18.41 319.8 18.41 319.8 82.71 319.8 118.21 319.8 182.51 302.8 182.51 302.8 199.51 164.9 199.51 159.9 195.41"/><polyline class="cls-1" points="159.9 195.21 307.1 195.21 307.1 191.01 307.1 186.81 315.5 186.81 315.5 118.21 315.5 82.71 315.5 14.11 311.3 14.11"/></g></g></svg>