<?xml version="1.0" encoding="UTF-8"?><svg id="Layer_2" xmlns="http://www.w3.org/2000/svg" viewBox="0 0 72 29.26"><defs><style>.cls-1{fill:#e6e6e6;stroke:#231f20;stroke-miterlimit:10;stroke-width:.5px;}</style></defs><g id="boxes"><path class="cls-1" d="M67.5,9.05v12.67s0,.08,0,.12c0,.1,0,.21-.02.31,0,.06,0,.13-.03.19,0,.01,0,.01,0,.03-.02.12-.04.23-.07.35-.04.13-.07.27-.12.4-.03.06-.05.14-.09.21-.03.09-.06.17-.12.26-.02.04-.04.08-.06.12,0,.04-.04.09-.07.13-.03.06-.07.13-.12.19-.04.06-.09.13-.13.18-.04.08-.09.14-.13.18-.04.06-.09.1-.13.15-.02.04-.04.06-.05.06-.07.09-.13.17-.21.23-.23.23-.5.45-.77.64h0c-.16.1-.32.21-.49.3-.62.35-1.32.59-2.07.72h0c-.41.08-.84.12-1.27.12H20.58v-1.85h37.84c.18,0,.35-.01.52-.03.1,0,.2-.01.28-.04.19-.01.37-.05.55-.1h0c.6-.14,1.15-.37,1.62-.67.1-.06.2-.13.29-.21.04-.03.06-.05.09-.06.36-.28.65-.6.88-.96.04-.06.09-.13.12-.19.06-.09.11-.19.14-.28.05-.1.1-.19.13-.3.08-.22.13-.45.16-.68.02-.13.03-.27.03-.4v-11.77"/><path class="cls-1" d="M71.75,9.05v13.91c0,3.28-3.28,5.95-7.32,5.95H20.58v-2.32h40.92c3.31,0,6-2.18,6-4.87v-12.66"/><path class="cls-1" d="M63.24,20.21v-11.77c0-.06,0-.13,0-.19h0s0-.04,0-.06c0-.1,0-.19-.04-.28,0-.05,0-.1-.03-.14,0-.09-.04-.18-.06-.26,0-.05-.03-.09-.04-.13-.04-.1-.07-.21-.13-.31-.05-.14-.13-.28-.23-.42-.07-.13-.17-.26-.27-.37-.09-.12-.18-.22-.28-.31-.08-.09-.17-.17-.26-.23-.05-.05-.12-.1-.18-.15-.11-.08-.22-.15-.35-.23,0,0,0-.01-.02-.01-.12-.06-.23-.14-.36-.19-.08-.05-.17-.09-.26-.13-.31-.14-.64-.24-1-.32-.2-.05-.4-.09-.61-.1-.22-.04-.46-.05-.7-.05H20.58v-1.86h40.92c.2,0,.4.01.6.03.29.03.59.06.87.13.15.03.29.06.44.1.11.03.22.06.33.1.4.13.78.3,1.14.49.18.1.35.21.51.32.16.12.32.23.46.36.15.13.29.26.42.4.13.14.26.28.36.44.09.12.17.23.23.35.08.12.15.24.2.37.05.09.09.18.12.27.04.1.08.21.11.31.02.04.03.08.04.12.04.13.07.27.1.41,0,.01,0,.04,0,.05s0,.01,0,.03c.02.06.03.13.04.21,0,.14.02.27.02.41v12.66"/><path class="cls-1" d="M71.75,20.22V6.3c0-3.28-3.28-5.95-7.32-5.95H20.58v2.32h40.92c3.31,0,6,2.18,6,4.87v12.66"/><polygon class="cls-1" points="20.58 .36 20.58 28.9 17.49 27.8 13.89 26.5 9.76 25.03 4.85 23.27 4.84 23.27 2.72 21.1 .25 20.21 .25 9.05 3.74 7.8 5.73 5.67 5.74 5.67 10.53 3.96 14.56 2.51 18.09 1.25 20.58 .36"/><polyline class="cls-1" points="43.71 28.9 43.71 26.58 43.71 24.73"/><polyline class="cls-1" points="45.88 28.9 45.53 26.58 45.26 24.73"/><polyline class="cls-1" points="48.09 28.9 47.39 26.58 46.83 24.73"/><polyline class="cls-1" points="50.41 28.9 49.34 26.58 48.49 24.73"/><polyline class="cls-1" points="52.89 28.9 51.42 26.58 50.25 24.73"/><polyline class="cls-1" points="55.62 28.9 53.71 26.58 52.2 24.73"/><polyline class="cls-1" points="58.69 28.9 56.29 26.58 54.39 24.73"/><polyline class="cls-1" points="62.27 28.9 59.31 26.58 56.94 24.73"/><polyline class="cls-1" points="66.3 28.7 66.3 28.7 62.78 26.47 62.77 26.47 59.78 24.57 59.77 24.57"/><polyline class="cls-1" points="69.23 27.44 65.35 25.45 65.34 25.45 61.78 23.63"/><polyline class="cls-1" points="71.06 25.5 71.05 25.5 66.91 23.81 62.92 22.19"/><polyline class="cls-1" points="71.74 23.17 67.49 21.83 63.24 20.5"/><polyline class="cls-1" points="63.24 18.84 67.5 19.82 69.23 20.21 71.75 20.79"/><polyline class="cls-1" points="63.24 17.3 67.5 17.94 71.75 18.57"/><polyline class="cls-1" points="63.24 15.82 67.5 16.13 71.75 16.45"/><polyline class="cls-1" points="63.24 14.37 67.5 14.37 71.75 14.37"/><polyline class="cls-1" points="63.24 12.92 67.5 12.6 71.75 12.29"/><polyline class="cls-1" points="63.24 11.45 67.5 10.8 71.75 10.18"/><polyline class="cls-1" points="63.24 9.89 66.96 9.05 67.5 8.92 71.75 7.94"/><polyline class="cls-1" points="71.7 5.58 67.44 6.92 63.23 8.24 63.23 8.25"/><polyline class="cls-1" points="70.78 3.35 66.63 5.04 62.69 6.65"/><polyline class="cls-1" points="68.78 1.52 64.88 3.53 61.34 5.34"/><polyline class="cls-1" points="65.66 .45 65.66 .45 62.1 2.71 59.12 4.59"/><polyline class="cls-1" points="61.61 .36 58.64 2.68 56.27 4.54"/><polyline class="cls-1" points="58.16 .36 55.77 2.68 53.85 4.54"/><polyline class="cls-1" points="55.19 .36 53.28 2.68 51.76 4.54"/><polyline class="cls-1" points="52.56 .36 51.1 2.68 49.92 4.54"/><polyline class="cls-1" points="50.17 .36 49.1 2.68 48.24 4.54"/><polyline class="cls-1" points="47.94 .36 47.23 2.68 46.67 4.54"/><polyline class="cls-1" points="45.8 .36 45.45 2.68 45.18 4.54"/><polyline class="cls-1" points="43.71 .36 43.71 2.68 43.71 4.54"/><polyline class="cls-1" points="41.62 .36 41.96 2.68 42.24 4.54"/><polyline class="cls-1" points="39.48 .36 40.18 2.68 40.74 4.54"/><polyline class="cls-1" points="37.25 .36 38.32 2.68 39.18 4.54"/><polyline class="cls-1" points="34.85 .36 36.32 2.68 37.5 4.54"/><polyline class="cls-1" points="32.23 .36 34.13 2.68 35.65 4.54"/><polyline class="cls-1" points="29.26 .36 31.65 2.68 33.57 4.54"/><polyline class="cls-1" points="25.8 .36 28.77 2.68 31.15 4.54"/><polyline class="cls-1" points="21.63 .36 25.29 2.68 28.21 4.54"/><polyline class="cls-1" points="18.09 1.25 20.58 2.53 20.88 2.68 24.51 4.54"/><line class="cls-1" x1="20.5" y1="4.93" x2="14.56" y2="2.51"/><line class="cls-1" x1="13.57" y1="4.91" x2="10.53" y2="3.96"/><line class="cls-1" x1="16.87" y1="5.95" x2="15.67" y2="5.57"/><polygon class="cls-1" points="10.56 21.53 5.52 20.1 7.82 18.79 10.56 21.53"/><polygon class="cls-1" points="10.81 7.67 8.08 10.4 6.72 8.83 10.81 7.67"/><polygon class="cls-1" points="20.58 4.95 20.58 24.36 19.74 24.13 16.18 23.11 20.24 19.05 20.24 10.14 16.23 6.13 16.87 5.95 20.5 4.92 20.58 4.95"/><line class="cls-1" x1="11.49" y1="6.99" x2="5.73" y2="5.67"/><line class="cls-1" x1="6.72" y1="8.83" x2="3.74" y2="7.8"/><line class="cls-1" x1="7.41" y1="11.08" x2=".41" y2="10.87"/><line class="cls-1" x1="4.12" y1="14.37" x2=".16" y2="14.37"/><line class="cls-1" x1="6.69" y1="17.66" x2=".41" y2="17.86"/><line class="cls-1" x1="5.52" y1="20.1" x2="2.72" y2="21.1"/><line class="cls-1" x1="10.91" y1="21.88" x2="4.84" y2="23.27"/><line class="cls-1" x1="13.03" y1="24" x2="9.75" y2="25.03"/><line class="cls-1" x1="19.74" y1="24.13" x2="13.89" y2="26.5"/><polyline class="cls-1" points="17.49 27.8 20.58 26.22 23.47 24.73"/><polyline class="cls-1" points="20.8 28.9 24.47 26.58 27.38 24.73"/><polyline class="cls-1" points="25.14 28.9 28.11 26.58 30.47 24.73"/><polyline class="cls-1" points="28.73 28.9 31.12 26.58 33.03 24.73"/><polyline class="cls-1" points="31.8 28.9 33.71 26.58 35.22 24.73"/><polyline class="cls-1" points="34.52 28.9 35.99 26.58 37.17 24.73"/><polyline class="cls-1" points="37.01 28.9 38.08 26.58 38.94 24.73"/><polyline class="cls-1" points="39.33 28.9 40.02 26.58 40.58 24.73"/><polyline class="cls-1" points="41.55 28.9 41.89 26.58 42.17 24.73"/><polygon class="cls-1" points="20.58 10.14 20.58 19.05 14.16 25.13 3.76 14.73 4.12 14.37 7.41 11.08 8.08 10.4 11.49 6.99 13.57 4.91 14.29 4.19 20.58 10.14"/><path class="cls-1" d="M54.84,4.53h-25.31l-8.47,6.76v6.68l8.47,6.76h25.31l8.47-6.76v-6.68l-8.47-6.76Z"/><path class="cls-1" d="M53.92,6.92h-23.5l-7.17,4.71v6.01l7.17,4.71h23.5l7.17-4.71v-6.01l-7.17-4.71Z"/></g></svg>