<?xml version="1.0" encoding="UTF-8"?>
<svg id="Layer_2" data-name="Layer 2" xmlns="http://www.w3.org/2000/svg" viewBox="0 0 180.94 89.15">
  <defs>
    <style>
      .cls-1 {
        stroke-width: .5px;
      }

      .cls-1, .cls-2 {
        fill: none;
        stroke: #000;
        stroke-miterlimit: 10;
      }
    </style>
  </defs>
  <g id="boxes">
    <path class="cls-2" d="M178.44,88.65H2.5c-.78-.78-1.22-1.22-2-2V2.5L2.5.5h175.94l2,2v84.15c-.78.78-1.22,1.22-2,2Z"/>
    <line class="cls-1" x1="180.44" y1="86.15" x2="176.61" y2="85.12"/>
    <line class="cls-1" x1="180.44" y1="81.08" x2="176.61" y2="80.27"/>
    <line class="cls-1" x1="180.44" y1="76.16" x2="176.61" y2="75.56"/>
    <line class="cls-1" x1="180.44" y1="71.37" x2="176.61" y2="70.97"/>
    <line class="cls-1" x1="180.44" y1="66.65" x2="176.61" y2="66.45"/>
    <line class="cls-1" x1="180.44" y1="61.96" x2="176.61" y2="61.96"/>
    <line class="cls-1" x1="180.44" y1="57.28" x2="176.61" y2="57.48"/>
    <line class="cls-1" x1="180.44" y1="52.55" x2="176.61" y2="52.95"/>
    <line class="cls-1" x1="180.44" y1="47.76" x2="176.61" y2="48.36"/>
    <line class="cls-1" x1="180.44" y1="42.84" x2="176.61" y2="43.65"/>
    <line class="cls-1" x1="180.44" y1="37.77" x2="176.61" y2="38.8"/>
    <line class="cls-1" x1="180.44" y1="32.48" x2="176.61" y2="33.73"/>
    <line class="cls-1" x1="180.44" y1="26.92" x2="176.61" y2="28.41"/>
    <line class="cls-1" x1="180.44" y1="21.03" x2="176.61" y2="22.77"/>
    <line class="cls-1" x1="180.44" y1="14.71" x2="176.61" y2="16.72"/>
    <line class="cls-1" x1="180.44" y1="7.86" x2="176.61" y2="10.16"/>
    <line class="cls-1" x1="179.4" y1="1.08" x2="176.61" y2="2.99"/>
    <line class="cls-1" x1="4.34" y1="3" x2="1.54" y2="1.08"/>
    <line class="cls-1" x1="4.34" y1="10.17" x2=".5" y2="7.86"/>
    <line class="cls-1" x1="4.34" y1="16.73" x2=".5" y2="14.71"/>
    <line class="cls-1" x1="4.34" y1="22.78" x2=".5" y2="21.03"/>
    <line class="cls-1" x1="4.34" y1="28.42" x2=".5" y2="26.92"/>
    <line class="cls-1" x1="4.34" y1="85.12" x2="4.34" y2="3"/>
    <line class="cls-1" x1="4.34" y1="33.74" x2=".5" y2="32.48"/>
    <line class="cls-1" x1="4.34" y1="38.8" x2=".5" y2="37.77"/>
    <line class="cls-1" x1="4.34" y1="43.66" x2=".5" y2="42.84"/>
    <line class="cls-1" x1="4.34" y1="48.37" x2=".5" y2="47.76"/>
    <line class="cls-1" x1="4.34" y1="52.95" x2=".5" y2="52.55"/>
    <line class="cls-1" x1="4.34" y1="57.48" x2=".5" y2="57.28"/>
    <line class="cls-1" x1="4.34" y1="61.96" x2=".5" y2="61.96"/>
    <line class="cls-1" x1="4.34" y1="66.45" x2=".5" y2="66.65"/>
    <line class="cls-1" x1="4.34" y1="70.97" x2=".5" y2="71.37"/>
    <line class="cls-1" x1="4.34" y1="75.55" x2=".5" y2="76.16"/>
    <line class="cls-1" x1="4.34" y1="80.26" x2=".5" y2="81.08"/>
    <line class="cls-1" x1="4.34" y1="85.12" x2=".5" y2="86.15"/>
    <line class="cls-1" x1="176.61" y1="2.99" x2="176.61" y2="85.12"/>
    <polyline class="cls-1" points="4.34 3 4.34 .5 176.61 .5 176.61 2.99"/>
    <polyline class="cls-1" points="176.61 85.12 176.61 88.65 4.34 88.65 4.34 85.12"/>
  </g>
</svg>