<?xml version="1.0" encoding="UTF-8"?>
<svg xmlns="http://www.w3.org/2000/svg" version="1.1" xmlns:serif="http://www.serif.com/" viewBox="0 0 1943.9 583.7">
  <!-- Generator: Adobe Illustrator 29.0.1, SVG Export Plug-In . SVG Version: 2.1.0 Build 192)  -->
  <defs>
    <style>
      .st0 {
        stroke-width: 5px;
      }

      .st0, .st1, .st2, .st3, .st4 {
        fill: #fff;
      }

      .st0, .st1, .st2, .st3, .st4, .st5 {
        stroke: #231f20;
        stroke-miterlimit: 10;
      }

      .st1 {
        stroke-width: 30px;
      }

      .st2, .st5 {
        stroke-width: 3px;
      }

      .st6 {
        fill: #231f20;
      }

      .st3 {
        stroke-width: 8px;
      }

      .st7 {
        opacity: .3;
      }

      .st8 {
        display: none;
      }

      .st4 {
        stroke-width: 15px;
      }

      .st5 {
        fill: none;
      }
    </style>
  </defs>
  <g id="Layer_1" class="st8">
    <g class="st7">
      <path class="st6" d="M284.2.5c-3.2,1.3-4.8,5-3.5,8.2.3.8,2.2,5.2,5.7,11.9-38.6,1.4-75.1,10.6-108.1,26.5,31.5-3.7,80.9-1,128,8.4.8,0,1.4,0,2.1,0,2.5,3.3,5.2,6.7,8,10.2C101.4,15.4,45.5,124,45.5,124c18.9-19.4,40.9-33.2,64.2-42.8,7.1-1.9,14.2-3.5,21.2-4.9C66,125.9,23.9,204,23.9,291.9s42.1,166,107,215.6c-7.1-1.4-14.1-3-21.2-4.9-23.3-9.6-45.3-23.5-64.2-42.8,0,0,55.9,108.5,270.9,58.3-2.9,3.4-5.5,6.8-8,10.2-.6,0-1.2,0-2.1,0-47.1,9.4-96.5,12.1-128,8.4,32.9,15.8,69.5,25.1,108.1,26.4-3.5,6.7-5.4,11.2-5.7,11.9-1.3,3.2.2,6.9,3.5,8.2,3.2,1.3,6.9-.2,8.2-3.5.1-.2,50.9-96.6,116.9-114.8,19.6-5.4,39.2-10.8,60.3-11.4-34.3,36.8-80,62.9-131.6,72.2-13.9,13.7-20,26.4-22.1,36.9,38.2-2.8,74.1-13.6,106.3-30.6l36.2-23.2c4.5-3.4,8.9-6.9,13.1-10.6h1395.5l3.4-5.7c9.7-16.3,40.3-61.1,64.9-72.7l6.7-3.1v-250l-6.7-3.1c-24.7-11.6-55.2-56.4-64.9-72.7l-3.4-5.7H471.6c-4.3-3.7-8.6-7.2-13.1-10.6l-36.2-23.2c-32.2-17-68.2-27.8-106.3-30.6,2.1,10.6,8.2,23.2,22.1,36.9,51.6,9.3,97.3,35.4,131.6,72.3-21.1-.6-40.6-6-60.3-11.4C343.3,100.6,292.5,4.2,292.4,3.9c-1.3-3.2-5-4.8-8.2-3.5M495.6,475.1c5.5-5.9,10.7-12.1,15.6-18.5,20.7,3.4,42.1,9.4,64.3,18.5h-79.9ZM1918.8,402.6c-28,17.2-55.3,57.5-64.8,72.5h-72.6c43.7-18.8,106.8-52.1,137.4-97.6v25.1ZM1854,108.6c9.5,15,36.8,55.4,64.8,72.5v25.1c-30.6-45.5-93.7-78.8-137.4-97.6h72.6ZM495.6,108.6h79.9c-22.2,9.1-43.6,15.1-64.3,18.5-4.9-6.4-10.1-12.6-15.6-18.5M606.2,108.6h0s1140.8,0,1140.8,0c40.5,15.1,146.9,60.1,171.7,124.7v117.1c-24.8,64.6-131.2,109.6-171.7,124.7H606.2c-30.1-14.9-59-24.7-86.7-30,30.1-43.6,47.8-96.4,47.8-153.3s-17.7-109.7-47.8-153.3c27.7-5.3,56.6-15.1,86.7-29.9M343.9,93.7c16.6,14.4,36.7,27.6,60.9,36.8,23.9,9.1,49.3,13,75.9,12.3,33,40.8,52.9,92.6,52.9,149s-19.9,108.3-52.9,149c-26.7-.7-52.1,3.2-75.9,12.3-24.2,9.2-44.3,22.4-60.9,36.8-23.5,8.2-72.6,22.5-131.9,24.2-90-33.9-154.3-120.6-154.3-222.3S122,103.5,212,69.6c59.3,1.6,108.3,15.9,131.9,24.1"/>
    </g>
  </g>
  <g id="Layer_2">
    <path class="st1" d="M1928.9,137.9v306.3c-3.9,3.3-7.4,6.3-10.7,9.1-.2.1-.4.3-.5.5-.5.5-1.1.9-1.6,1.4-.2.2-.3.3-.5.4,0,0,0,0-.1,0,0,0-.2.2-.3.2-10.9,9.3-20,17-33.3,28.3H424.8c-18.4-15.6-28.7-24.4-47-40V137.9c18.4-15.6,28.7-24.4,47-40h1457c13.3,11.3,22.3,19,33.3,28.3,0,0,.2.2.3.2,0,0,0,0,.1,0,.2.2.3.3.5.4.5.5,1.1.9,1.6,1.4.2.2.4.3.5.5,3.3,2.8,6.8,5.8,10.7,9.1Z"/>
    <g>
      <path class="st5" d="M1911.2,131.7c-7.5,1.7-15.2,2.7-23.2,2.7-28.7,0-54.7-11.8-73.7-31h69.5c11,11.3,18.4,19,27.5,28.3Z"/>
      <path class="st5" d="M1913,131.3c-.5.3-1,.5-1.4.8-16.9,8.8-35.9,13.8-56.1,13.8-36.7,0-69.6-16.4-92.3-42.5h120.6c11,11.3,18.4,19,27.5,28.3.6-.1,1.2-.3,1.8-.4Z"/>
      <path class="st5" d="M1913.3,133.8c-23.3,17.9-52.3,28.6-83.6,28.6-46.4,0-87.5-23.2-113-59h167c11,11.3,18.4,19,27.5,28.3.6-.1,1.2-.3,1.8-.4-.5.3-1,.5-1.4.8.6.6,1.2,1.2,1.8,1.8Z"/>
    </g>
    <circle class="st1" cx="269.6" cy="288.1" r="254.6"/>
    <polygon class="st0" points="406 92.2 413.2 237.6 494.9 363.2 360.5 413 273.4 524.7 183.7 412.9 44.4 364.2 127 237.4 134 92.7 268.9 129 406 92.2"/>
    <polygon class="st3" points="392.9 110.6 399.4 242.1 473.3 355.6 351.8 400.7 273 501.6 191.9 400.5 65.9 356.5 140.7 241.8 146.9 111.1 268.9 143.9 392.9 110.6"/>
    <path class="st0" d="M293.9,61.8l65,80.7c4.2,5.3,9.8,9.3,16.1,11.7l100.6,38.7c23.1,8.9,31.8,36.9,17.9,57.4l-55.6,81.8c-4,5.9-6.3,12.9-6.6,20l-3.9,96.6c-1,24.7-24.7,42-48.5,35.5l-96.6-26.6c-6.9-1.9-14.1-1.8-20.9.2l-100.2,29.3c-23.9,7-47.9-10.2-49.1-35.1l-5-107.3c-.3-6.9-2.5-13.5-6.2-19.3l-55.6-84.8c-13.5-20.6-4.4-48.4,18.7-57l90.8-33.9c6.3-2.4,11.9-6.3,16.2-11.5l63.5-76.9c15.5-18.7,44.2-18.6,59.5.4Z"/>
    <g>
      <line class="st2" x1="269.6" y1="456.4" x2="269.6" y2="286.4"/>
      <line class="st2" x1="283.1" y1="458" x2="269.6" y2="286.4"/>
      <line class="st2" x1="297.4" y1="461.9" x2="269.6" y2="286.4"/>
      <line class="st2" x1="312.8" y1="466.1" x2="269.6" y2="286.4"/>
      <line class="st2" x1="329.5" y1="470.7" x2="269.6" y2="286.4"/>
      <line class="st2" x1="369.1" y1="481.6" x2="269.6" y2="286.4"/>
      <line class="st2" x1="392.2" y1="486.4" x2="269.6" y2="286.4"/>
      <line class="st2" x1="410.7" y1="480.7" x2="269.6" y2="286.4"/>
      <line class="st2" x1="423.5" y1="466.6" x2="269.6" y2="286.4"/>
      <line class="st2" x1="427.6" y1="444.4" x2="269.6" y2="286.4"/>
      <line class="st2" x1="429.3" y1="402.4" x2="269.6" y2="286.4"/>
      <line class="st2" x1="430" y1="384.7" x2="269.6" y2="286.4"/>
      <line class="st2" x1="430.6" y1="368.5" x2="269.6" y2="286.4"/>
      <line class="st2" x1="431.2" y1="353.4" x2="269.6" y2="286.4"/>
      <line class="st2" x1="433.8" y1="339.8" x2="269.6" y2="286.4"/>
      <line class="st2" x1="441.1" y1="327.6" x2="269.6" y2="286.4"/>
      <line class="st2" x1="449.7" y1="315" x2="269.6" y2="286.4"/>
      <line class="st2" x1="458.9" y1="301.3" x2="269.6" y2="286.4"/>
      <line class="st2" x1="480.3" y1="269.9" x2="269.6" y2="286.4"/>
      <line class="st2" x1="493.1" y1="251.1" x2="269.6" y2="286.4"/>
      <line class="st2" x1="501.3" y1="230.8" x2="269.6" y2="286.4"/>
      <line class="st2" x1="497.9" y1="212.3" x2="269.6" y2="286.4"/>
      <line class="st2" x1="484.8" y1="197.3" x2="269.6" y2="286.4"/>
      <line class="st2" x1="462.7" y1="188.1" x2="269.6" y2="286.4"/>
      <line class="st2" x1="425" y1="173.5" x2="269.6" y2="286.4"/>
      <line class="st2" x1="409" y1="167.4" x2="269.6" y2="286.4"/>
      <line class="st2" x1="394.3" y1="161.7" x2="269.6" y2="286.4"/>
      <line class="st2" x1="380.6" y1="156.5" x2="269.6" y2="286.4"/>
      <line class="st2" x1="368.1" y1="150.9" x2="269.6" y2="286.4"/>
      <line class="st2" x1="358.3" y1="141.8" x2="269.6" y2="286.4"/>
      <line class="st2" x1="349.1" y1="130.4" x2="269.6" y2="286.4"/>
      <line class="st2" x1="339.3" y1="118.2" x2="269.6" y2="286.4"/>
      <line class="st2" x1="328.6" y1="104.9" x2="269.6" y2="286.4"/>
      <line class="st2" x1="303.3" y1="73.5" x2="269.6" y2="286.4"/>
      <line class="st2" x1="287.8" y1="55.1" x2="269.6" y2="286.4"/>
      <line class="st2" x1="269.6" y1="286.4" x2="269.6" y2="46.6"/>
      <line class="st2" x1="269.6" y1="286.4" x2="250.9" y2="48.7"/>
      <line class="st2" x1="269.6" y1="286.4" x2="234.1" y2="62"/>
      <line class="st2" x1="269.6" y1="286.4" x2="219.9" y2="79.2"/>
      <line class="st2" x1="269.6" y1="286.4" x2="195.8" y2="108.3"/>
      <line class="st2" x1="269.6" y1="286.4" x2="185.3" y2="121"/>
      <line class="st2" x1="269.6" y1="286.4" x2="175.5" y2="132.9"/>
      <line class="st2" x1="269.6" y1="286.4" x2="165.8" y2="143.6"/>
      <line class="st2" x1="269.6" y1="286.4" x2="153.4" y2="150.4"/>
      <line class="st2" x1="269.6" y1="286.4" x2="138.9" y2="155.8"/>
      <line class="st2" x1="269.6" y1="286.4" x2="123.4" y2="161.6"/>
      <line class="st2" x1="269.6" y1="286.4" x2="87.6" y2="174.9"/>
      <line class="st2" x1="269.6" y1="286.4" x2="66.3" y2="182.8"/>
      <line class="st2" x1="269.6" y1="286.4" x2="47.1" y2="194.3"/>
      <line class="st2" x1="269.6" y1="286.4" x2="38.5" y2="211.4"/>
      <line class="st2" x1="269.6" y1="286.4" x2="40.2" y2="231.4"/>
      <line class="st2" x1="269.6" y1="286.4" x2="52.8" y2="252.1"/>
      <line class="st2" x1="269.6" y1="286.4" x2="75.3" y2="286.4"/>
      <line class="st2" x1="269.6" y1="286.4" x2="84.8" y2="301"/>
      <line class="st2" x1="269.6" y1="286.4" x2="93.5" y2="314.3"/>
      <line class="st2" x1="269.6" y1="286.4" x2="101.7" y2="326.8"/>
      <line class="st2" x1="269.6" y1="286.4" x2="106.5" y2="339.4"/>
      <line class="st2" x1="269.6" y1="286.4" x2="107.5" y2="353.6"/>
      <line class="st2" x1="269.6" y1="286.4" x2="108.2" y2="368.7"/>
      <line class="st2" x1="269.6" y1="286.4" x2="108.9" y2="384.9"/>
      <line class="st2" x1="269.6" y1="286.4" x2="109.7" y2="402.6"/>
      <line class="st2" x1="269.6" y1="286.4" x2="111.7" y2="444.4"/>
      <line class="st2" x1="269.6" y1="286.4" x2="115" y2="467.5"/>
      <line class="st2" x1="269.6" y1="286.4" x2="127.1" y2="482.6"/>
      <line class="st2" x1="269.6" y1="286.4" x2="145.3" y2="489.3"/>
      <line class="st2" x1="269.6" y1="286.4" x2="168.4" y2="485"/>
      <line class="st2" x1="269.6" y1="286.4" x2="208.9" y2="473.2"/>
      <line class="st2" x1="269.6" y1="286.4" x2="226" y2="468.2"/>
      <line class="st2" x1="269.6" y1="286.4" x2="241.5" y2="463.7"/>
      <line class="st2" x1="269.6" y1="286.4" x2="256" y2="459.5"/>
    </g>
    <circle class="st4" cx="268.4" cy="285" r="189.4"/>
    <g>
      <path class="st5" d="M1911.2,453.7c-7.5-1.7-15.2-2.7-23.2-2.7-28.7,0-54.7,11.8-73.7,31h69.5c11-11.3,18.4-19,27.5-28.3Z"/>
      <path class="st5" d="M1913,454.1c-.5-.3-1-.5-1.4-.8-16.9-8.8-35.9-13.8-56.1-13.8-36.7,0-69.6,16.4-92.3,42.5h120.6c11-11.3,18.4-19,27.5-28.3.6.1,1.2.3,1.8.4Z"/>
      <path class="st5" d="M1913.3,451.6c-23.3-17.9-52.3-28.6-83.6-28.6-46.4,0-87.5,23.2-113,59h167c11-11.3,18.4-19,27.5-28.3.6.1,1.2.3,1.8.4-.5-.3-1-.5-1.4-.8.6-.6,1.2-1.2,1.8-1.8Z"/>
    </g>
    <g>
      <path class="st5" d="M459.9,131.7c7.5,1.7,15.2,2.7,23.2,2.7,28.7,0,54.7-11.8,73.7-31h-69.5"/>
      <path class="st5" d="M459.9,131.7c-.6-.1-1.2-.3-1.8-.4.5.3,1,.5,1.4.8,16.9,8.8,35.9,13.8,56.1,13.8,36.7,0,69.6-16.4,92.3-42.5h-120.6"/>
      <path class="st5" d="M459.9,131.7c-.6-.1-1.2-.3-1.8-.4.5.3,1,.5,1.4.8-.6.6-1.2,1.2-1.8,1.8,23.3,17.9,52.3,28.6,83.6,28.6,46.4,0,87.5-23.2,113-59h-167"/>
    </g>
    <g>
      <path class="st5" d="M459.9,453.7c7.5-1.7,15.2-2.7,23.2-2.7,28.7,0,54.7,11.8,73.7,31h-69.5"/>
      <path class="st5" d="M459.9,453.7c-.6.1-1.2.3-1.8.4.5-.3,1-.5,1.4-.8,16.9-8.8,35.9-13.8,56.1-13.8,36.7,0,69.6,16.4,92.3,42.5h-120.6"/>
      <path class="st5" d="M459.9,453.7c-.6.1-1.2.3-1.8.4.5-.3,1-.5,1.4-.8-.6-.6-1.2-1.2-1.8-1.8,23.3-17.9,52.3-28.6,83.6-28.6,46.4,0,87.5,23.2,113,59h-167"/>
    </g>
  </g>
</svg>