<?xml version="1.0" encoding="UTF-8"?>
<svg id="Layer_1" xmlns="http://www.w3.org/2000/svg" version="1.1" viewBox="0 0 308 119">
  <!-- Generator: Adobe Illustrator 29.0.1, SVG Export Plug-In . SVG Version: 2.1.0 Build 192)  -->
  <defs>
    <style>
      .st0 {
        fill: #333;
      }

      .st0, .st1 {
        isolation: isolate;
        opacity: .5;
      }

      .st2 {
        fill: #fff;
      }

      .st2, .st3 {
        stroke: #231f20;
        stroke-miterlimit: 10;
      }

      .st3 {
        fill: none;
        stroke-width: .5px;
      }

      .st4 {
        display: none;
      }

      .st1 {
        fill: #1f1f1f;
      }
    </style>
  </defs>
  <g id="Layer_11" data-name="Layer_1" class="st4">
    <path class="st1" d="M298.8.9H9.3C9.3,5.6.9,8.2.9,8.2v109.9h4.8s3.9-7.4,16.6,0h263.3c12.7-7.4,16.6,0,16.6,0h4.8V8.2s-8.4-2.6-8.4-7.3h.2Z"/>
    <path class="st0" d="M302.8,117.1c-.7-.9-1.6-1.7-2.6-2.2s-2.1-.9-3.3-1c-.1-.3-.4-.5-.6-.7-.3-.2-.6-.2-.9-.2s-.6,0-.9.2-.5.4-.6.7c-3,.5-5.9,1.5-8.6,3.1H22.6c-2.6-1.6-5.5-2.6-8.6-3.1-.1-.3-.4-.5-.6-.7-.3-.2-.6-.2-.9-.2s-.6,0-.9.2c-.3.2-.5.4-.6.7-1.1,0-2.2.4-3.3,1s-1.9,1.3-2.6,2.2H1.9v-16.8c1.7-9.7,2.6-19.4,2.7-29.3V15.3C8,9.8,14.5,1.9,22.9,1.9h262.1c8.5,0,14.9,8,18.3,13.5v55.9c.1,9.8,1.1,19.6,2.7,29.3v16.8h-3.4l.2-.3ZM1.9,20.4c.2-.4.8-1.7,1.9-3.5v54.2c0,7.7-.7,15.5-1.9,23.1V20.4ZM10.1,1.9h5.3C8.9,5.1,4.2,12,1.9,16.3v-7.4c1.9-.7,7.5-3.1,8.2-7ZM297.9,1.9c.8,4,6.3,6.3,8.2,7v7.5c-2.4-4.2-7-11.2-13.5-14.4h5.3ZM304.4,16.9c1,1.7,1.6,3,1.9,3.5v73.9c-1.1-7.7-1.8-15.4-1.9-23.1V16.9ZM307.4,7.3c-2.1-.7-7.7-3.1-7.7-6.4V0H8.3v.9c0,3.3-5.6,5.8-7.7,6.4l-.7.2v111.5h6.3l.3-.5c.5-.8,1.2-1.4,2-1.9s1.7-.7,2.6-.8c.2.2.4.4.6.5.2,0,.5.2.8.2s.5,0,.7-.2c.2,0,.4-.3.6-.5,2.8.5,5.6,1.5,8,3h.2c0,0,263.7,0,263.7,0h.2c2.4-1.6,5.2-2.7,8-3.1.2.2.4.4.6.5s.5.2.7.2c.3,0,.5,0,.8-.2.2,0,.4-.3.6-.5.9,0,1.8.4,2.6.8.8.5,1.5,1.1,2,1.9l.3.5h6.3V7.5l-.6-.2h.2Z"/>
  </g>
  <path class="st2" d="M5.6,118.4c-2-2-3-3.1-5-5V5.9L5.6.9h296.9c2,2,3.1,3,5,5v107.5l-5,5H5.6Z"/>
  <path class="st3" d="M293.5.9c0,7.3,5.9,13.3,13.1,13.3"/>
  <path class="st3" d="M286.9.9c0,7.3,9.4,13.3,21.1,13.3"/>
  <path class="st3" d="M.3,14.2c7.2,0,13.1-5.9,13.1-13.3"/>
  <path class="st3" d="M21.1.9c0,7.3-9.4,13.3-21.1,13.3"/>
  <path class="st3" d="M293.5,119c0-7.3,5.9-13.3,13.1-13.3"/>
  <path class="st3" d="M286.9,119c0-7.3,9.4-13.3,21.1-13.3"/>
  <path class="st3" d="M.3,105.7c7.2,0,13.1,5.9,13.1,13.3"/>
  <path class="st3" d="M21.1,119c0-7.3-9.4-13.3-21.1-13.3"/>
</svg>