<?xml version="1.0" encoding="UTF-8"?>
<svg xmlns="http://www.w3.org/2000/svg" version="1.1" xmlns:xlink="http://www.w3.org/1999/xlink" viewBox="0 0 61 453">
  <!-- Generator: Adobe Illustrator 29.0.1, SVG Export Plug-In . SVG Version: 2.1.0 Build 192)  -->
  <defs>
    <style>
      .st0, .st1, .st2 {
        fill: none;
      }

      .st1 {
        stroke-linecap: round;
      }

      .st1, .st2 {
        stroke: #e6e6e6;
        stroke-miterlimit: 10;
        stroke-width: .5px;
      }

      .st3 {
        opacity: .2;
      }

      .st4 {
        display: none;
      }

      .st5 {
        fill: #353535;
      }

      .st6 {
        fill: #e6e6e6;
      }

      .st7 {
        clip-path: url(#clippath);
      }
    </style>
    <clipPath id="clippath">
      <rect class="st0" y="0" width="60.4" height="453"/>
    </clipPath>
  </defs>
  <g id="Layer_1" class="st4">
    <g class="st3">
      <g class="st7">
        <path class="st5" d="M15.7,445.4c.6-.6,1.2-1.1,1.9-1.6-3.1,1-6.4,1.4-9.7,1.1,1.1.4,2.3.5,3.4.5h4.4ZM1.2,433.4l-1.2-4.4v9.3c.2.4.5.8.9,1.2-.4-2-.3-4.1.3-6.1ZM38.8,448.9h-.9c-2.1,1.9-4.8,2.9-7.7,2.9s-5.6-1-7.7-2.9h-.9c.3.3.6.5.9.8,0,0,.1,0,.2,0,0,0,.1,0,.2,0,0,0,.1,0,.2.1,0,0,0,.1.1.2,0,0,0,.1,0,.2,2,1.5,4.5,2.2,7,2.2s5-.8,7-2.2c0,0,0-.1,0-.2,0,0,0-.1.1-.2,0,0,.1,0,.2-.1,0,0,.1,0,.2,0,0,0,.1,0,.2,0,.3-.2.6-.5.9-.8h0ZM60.4,439.6v1.8c-3.4,3.6-7.7,6.2-12.6,7.4h-8.4c-.3.4-.6.7-1,1h13.7l.7-1h-3.2c4-1.3,7.7-3.6,10.6-6.7v2.5s-3.7,2.2-4.6,4.1h-2l-1.3,1.7h-7.3c-2.8.4-6.4,1-8.1,2.2,0,0-1.2.7-1.2-.5s2.7-1.3,4.9-1.7h-2.7c0,0-.1,0-.2.1,0,0-.1,0-.2,0-.1,0-.2,0-.3-.1-2.1,1.5-4.7,2.3-7.2,2.3s-5.1-.8-7.2-2.3c0,0-.2.1-.3.1,0,0-.1,0-.2,0,0,0-.1,0-.2-.1h-2.7c2.1.4,4.9,1,4.9,1.7,0,1.2-1.2.5-1.2.5-1.7-1.2-5.2-1.8-8.1-2.2h-7.3l-1.3-1.7h-2c-.9-2-4.6-4.1-4.6-4.1v-2.5c3,3,6.6,5.3,10.6,6.7h-3.2l.7,1h13.7c-.3-.3-.7-.6-1-1h-8.3c-4.8-1.2-9.2-3.8-12.6-7.4v-1.8c2,2.7,5.7,6.5,11.3,6.5h12.4c0,.1.2.2.3.3.1,0,.3.1.4.1.2,0,.4,0,.6-.2.1-.1.2-.3.2-.6s0-.4-.2-.6c-.1-.1-.3-.2-.6-.2-.1,0-.3,0-.4.1-.1,0-.2.2-.3.3h-6.9c3.6-3.3,8.4-5.2,13.4-5.2s9.7,1.9,13.4,5.2h-6.9c0-.1-.2-.2-.3-.3-.1,0-.3-.1-.4-.1-.2,0-.4,0-.6.2-.1.1-.2.3-.2.6s0,.4.2.6c.1.1.3.2.6.2s.3,0,.4-.1c.1,0,.2-.2.3-.3h12.4c5.6,0,9.3-3.7,11.3-6.5h0ZM59.5,439.6c.3-.5.6-.9.9-1.2v-9.3l-1.2,4.4c.6,2,.7,4.1.3,6.1h0ZM49.1,445.3c1.2,0,2.3-.2,3.4-.6-3.3.3-6.6,0-9.7-1.1.7.5,1.3,1,1.9,1.6h4.4ZM49.1,7.6h-4.4c-.6.6-1.2,1.1-1.9,1.6,3.1-1,6.4-1.4,9.7-1.1-1.1-.4-2.3-.5-3.4-.6h0ZM59.2,19.6l1.2,4.4v-9.3c-.2-.4-.5-.8-.9-1.2.4,2,.3,4.1-.3,6.1ZM37.9,3.3c0,0-.1,0-.2,0-.1,0-.3,0-.4-.2-.1-.1-.2-.2-.2-.4-2-1.5-4.5-2.2-7-2.2s-5,.8-7,2.2c0,.1,0,.3-.2.4-.1.1-.2.2-.4.2,0,0-.1,0-.2,0-.3.2-.6.5-.9.8h.9c2.1-1.9,4.8-3,7.7-3s5.6,1.1,7.7,3h.9c-.3-.3-.6-.5-.9-.8h0ZM49.8,4.1h3.2l-.7-1h-13.7c.3.3.7.6,1,1h8.4c4.8,1.2,9.2,3.8,12.6,7.4v1.8c-2-2.7-5.7-6.5-11.3-6.5h-12.4c0-.1-.2-.2-.3-.3-.1,0-.3-.1-.4-.1-.2,0-.3.1-.4.3-.1.1-.2.3-.2.5s0,.4.2.5c.1.1.3.2.4.3.1,0,.3,0,.4-.1.1,0,.2-.2.3-.3h6.9c-3.6,3.3-8.4,5.2-13.4,5.2-4.9,0-9.7-1.8-13.4-5.1h6.9c0,.1.2.2.3.3.1,0,.3.1.4.1.1,0,.3,0,.4,0,.1,0,.2-.2.3-.3,0-.1.1-.3.1-.4,0-.1,0-.3-.1-.4,0-.1-.2-.2-.3-.3-.1,0-.3-.1-.4-.1-.1,0-.3,0-.4.1-.1,0-.2.2-.3.3h-12.4c-5.6,0-9.3,3.7-11.3,6.5v-1.8c3.4-3.6,7.7-6.2,12.6-7.4h8.4c.3-.3.6-.7,1-1h-13.7l-.7,1h3.2C6.6,5.5,3,7.7,0,10.8v-2.5s3.7-2.2,4.6-4.1h2l1.2-1.7h7.3c2.8-.4,6.4-1,8.1-2.2,0,0,1.2-.7,1.2.5s-2.7,1.4-4.9,1.7h2.7c.1,0,.2-.2.4-.2.1,0,.2,0,.3.1C25.1.9,27.6,0,30.2,0s5.1.8,7.2,2.3c0,0,.2-.1.4-.1s.3,0,.3.1h2.7c-2.1-.3-4.9-.9-4.9-1.7,0-1.2,1.2-.5,1.2-.5,1.7,1.2,5.2,1.8,8.1,2.2h7.3l1.3,1.7h2c.9,2,4.6,4.2,4.6,4.2v2.5c-3-3-6.6-5.3-10.6-6.7h0ZM58.8,19.5c.6-2.3.7-4.7.1-6.9-1-1.2-2.1-2.2-3.3-3-4.9-2.4-12,0-14,.6-3.3,2.2-7.2,3.3-11.2,3.3-4,0-7.9-1.1-11.3-3.3-2.1-.7-9.2-3-14.1-.6-1.2.8-2.4,1.8-3.3,3-.6,2.3-.5,4.7.1,6.9h0c0,.1-1.7,6.3-1.7,6.3v401.3l1.7,6.3h0c-.6,2.3-.7,4.7-.1,7,1,1.2,2.1,2.2,3.3,3,4.9,2.4,12,0,14-.7,3.3-2.2,7.2-3.3,11.2-3.3s7.9,1.2,11.2,3.3c2.1.8,9.2,3,14.1.6,1.2-.8,2.4-1.8,3.3-3,.6-2.3.6-4.7,0-6.9h0c0-.1,1.7-6.4,1.7-6.4V25.9l-1.7-6.3h0ZM.9,13.4c-.3.4-.6.9-.9,1.2v9.3l1.2-4.4c-.6-2-.7-4.1-.3-6.1ZM7.9,8.2c1.1-.4,2.3-.5,3.4-.6h4.4c.6.6,1.2,1.1,1.9,1.6-3.1-1-6.4-1.4-9.7-1.1"/>
      </g>
    </g>
  </g>
  <g id="Layer_2">
    <path class="st2" d="M20.5,6.6c0-3.4,4.5-6.1,10-6.1s10,2.7,10,6.1"/>
    <polyline class="st1" points="11.2 3.1 6 3.1 4.6 4.6"/>
    <polyline class="st1" points="49.7 3.1 55.1 3.1 56.5 4.6"/>
    <path class="st2" d="M30.5,439.8"/>
    <polyline class="st1" points="11.2 450 6 450 4.6 448.5"/>
    <polyline class="st1" points="49.5 450 55.1 450 56.5 448.5"/>
    <line class="st2" x1="16.6" y1="3.5" x2="21.9" y2="3.5"/>
    <line class="st2" x1="39.2" y1="3.5" x2="44.4" y2="3.5"/>
    <polygon class="st6" points="23.2 2.7 16.6 2.7 16.6 1.9 23.8 1.9 23.2 2.7"/>
    <polygon class="st6" points="45.2 2.7 37.8 2.7 37.2 1.9 45.2 1.9 45.2 2.7"/>
    <line class="st2" x1="17.2" y1="449.6" x2="22" y2="449.6"/>
    <polygon class="st6" points="23.9 451.2 16.6 451.2 16.6 450.5 23.3 450.5 23.9 451.2"/>
    <line class="st2" x1="39" y1="449.6" x2="43.4" y2="449.6"/>
    <polygon class="st6" points="45.2 451.2 37.2 451.2 37.9 450.5 45.2 450.5 45.2 451.2"/>
    <path class="st2" d="M20.5,446.4c0,3.4,4.5,6.1,10,6.1s10-2.7,10-6.1"/>
  </g>
  <g id="Layer_3">
    <g>
      <path class="st6" d="M3.6,13.3v426.3c-.2,0-.3,0-.5,0-.2,0-.4,0-.7,0V13.4c.2,0,.4,0,.6,0,.2,0,.3,0,.5,0Z"/>
      <path class="st6" d="M8.6,7.1c0,.1,0,.2,0,.3,0,.2,0,.4,0,.6l-1.8-.9h1.9Z"/>
      <path class="st6" d="M8.5,8.3c0,.2,0,.3-.1.5l-2.7-1.7h.6l2.3,1.2Z"/>
      <path class="st6" d="M5.8,441l-3.3,4.6v-.2l2.9-4.7c.2,0,.3.2.5.3Z"/>
      <path class="st6" d="M58.5,443.6v.5l-1.9-3.8c.2,0,.3-.1.5-.2l1.4,3.5Z"/>
      <path class="st6" d="M6.5,11.6c-.1.1-.3.2-.4.3l-3.5-4.8h0l3.8,4.5Z"/>
      <path class="st6" d="M5.9,12.1c-.1.1-.3.2-.5.3l-2.9-4.8v-.2l3.4,4.7Z"/>
      <path class="st6" d="M7.9,9.7c0,.1-.2.3-.3.5l-3.6-3.1h.3l3.6,2.6Z"/>
      <path class="st6" d="M7.5,10.4c-.1.2-.2.3-.3.4l-3.7-3.7h.2l3.9,3.3Z"/>
      <path class="st6" d="M7,11c-.1.1-.2.2-.4.4l-3.7-4.3h.1l3.9,3.9Z"/>
      <path class="st6" d="M8.2,9c0,.2-.1.3-.2.5l-3.3-2.4h.4l3.1,1.9Z"/>
      <path class="st6" d="M44.4,8.4c-.2.3-.5.6-.8.6s-.7-.2-.9-.6h1.7Z"/>
      <path class="st6" d="M18.3,8.4c-.1.3-.5.6-.8.6s-.7-.2-.9-.6h1.7Z"/>
      <path class="st6" d="M7,442.1l-3.8,3.8h-.1l3.6-4.2c.1.1.2.2.4.4Z"/>
      <path class="st6" d="M16.2,8.4c-.2.7-.8,1.2-1.6,1.2s-1.4-.5-1.6-1.2h3.1Z"/>
      <path class="st6" d="M50.1,8.4c-.2.3-.5.6-.8.6s-.7-.2-.9-.6h1.7Z"/>
      <path class="st6" d="M48,8.4c-.2.7-.8,1.2-1.6,1.2s-1.4-.5-1.6-1.2h3.1Z"/>
      <path class="st6" d="M7.8,443.4l-3.5,2.6h-.3l3.5-3c0,.1.2.3.2.4Z"/>
      <path class="st6" d="M7.4,442.7l-3.8,3.2h-.2l3.6-3.7c.1.1.2.3.3.4Z"/>
      <path class="st6" d="M8.3,444.8l-2.2,1.1h-.6l2.6-1.6c0,.2,0,.3.1.4h0Z"/>
      <path class="st6" d="M8.1,444.1l-3,1.8h-.4l3.2-2.3c0,.1.1.3.2.5Z"/>
      <path class="st6" d="M12.7,8.4c-.1.3-.5.6-.8.6s-.7-.2-.8-.6h1.7Z"/>
      <path class="st6" d="M6.4,441.5l-3.8,4.4h0l3.4-4.7c.1.1.3.2.4.3Z"/>
      <path class="st6" d="M16.2,444.6h-3.2c.1-.8.8-1.3,1.6-1.3s1.4.5,1.6,1.3Z"/>
      <path class="st6" d="M2.9,440l-.4,1.3v-1.3c.1,0,.3,0,.4,0Z"/>
      <path class="st6" d="M4.6,15.2c0,.4-.3.8-.7.9v-1.8c.4.1.7.5.7.9Z"/>
      <path class="st6" d="M3.7,440.1l-1.2,2.9v-.9l.7-2.1c.2,0,.3,0,.5.1Z"/>
      <path class="st6" d="M18.3,444.6h-1.7c.1-.4.5-.6.9-.6s.7.2.9.6Z"/>
      <path class="st6" d="M12.7,444.6h-1.7c.1-.4.5-.6.9-.6s.7.2.9.6Z"/>
      <path class="st6" d="M56.2,15.2c0,.5.2.8.6,1-.8.2-1.3.9-1.3,1.8s.5,1.5,1.3,1.8c-.4.2-.6.6-.6,1s.4,1,.9,1.1v409c-.5.1-.9.6-.9,1.1s.2.8.6,1.1c-.8.2-1.3.9-1.3,1.8s.5,1.5,1.3,1.8c-.4.2-.6.6-.6,1s.4,1,.9,1.1v.7s0,0,0,0c-.2,0-.5.1-.8.3-.3,0-.5.2-.8.3-.3.2-.5.3-.7.5-.2.2-.4.3-.6.5-.2.2-.4.4-.6.6-.2.2-.3.4-.5.6-.1.2-.3.5-.4.7-.1.2-.2.5-.3.8,0,.2-.1.4-.2.7h-1.8c-.1-.5-.6-.9-1.1-.9s-.8.2-1,.6c-.2-.8-1-1.3-1.8-1.3s-1.5.5-1.8,1.3c-.2-.4-.6-.6-1-.6s-1,.4-1.1.9h-23.9c-.2-.5-.6-.9-1.1-.9s-.8.2-1,.6c-.2-.8-.9-1.3-1.8-1.3s-1.5.5-1.8,1.3c-.2-.4-.6-.6-1-.6s-1,.4-1.1.9h-1.9c0-.2-.1-.5-.2-.7-.1-.3-.2-.5-.3-.7-.1-.3-.3-.5-.4-.7-.2-.2-.3-.5-.5-.7-.2-.2-.4-.4-.6-.6-.2-.2-.4-.4-.6-.5-.2-.2-.5-.3-.7-.5-.2-.1-.5-.2-.7-.3-.3-.1-.6-.2-.9-.3h0v-.7c.5-.1,1-.6,1-1.1s-.2-.8-.6-1c.8-.2,1.3-1,1.3-1.8s-.5-1.5-1.3-1.8c.4-.2.6-.6.6-1.1s-.4-1-1-1.1V22c.5-.1,1-.6,1-1.2s-.2-.8-.6-1c.8-.2,1.3-1,1.3-1.8s-.5-1.5-1.3-1.8c.4-.2.6-.6.6-1s-.4-1-1-1.1v-.8s0,0,0,0c.2,0,.5-.1.8-.2.2-.1.5-.2.7-.3.3-.2.5-.3.7-.5.2-.1.4-.3.6-.5.2-.2.4-.4.6-.6.2-.2.3-.4.5-.7.2-.2.3-.5.4-.7.1-.2.2-.5.3-.8,0-.2.1-.4.2-.6h2c.2.5.6.8,1.1.8s.8-.2,1-.6c.2.8,1,1.3,1.8,1.3s1.5-.5,1.8-1.3c.2.4.6.6,1,.6s1-.3,1.1-.8h23.9c.2.5.6.8,1.1.8s.8-.2,1-.6c.2.8,1,1.3,1.8,1.3s1.5-.5,1.8-1.3c.2.4.6.6,1,.6s.9-.3,1.1-.8h1.9c0,.2.1.4.2.7,0,.3.2.5.3.8.1.3.3.5.4.7.1.2.3.4.5.7.2.2.4.4.6.6.2.2.4.4.6.5.2.2.4.3.7.5.2.1.5.2.7.3.3.1.5.2.9.3h0v.7c-.5.1-.9.6-.9,1.1Z"/>
      <path class="st6" d="M50.1,444.6h-1.7c.1-.4.5-.6.9-.6s.7.2.9.6Z"/>
      <path class="st6" d="M44.5,444.6h-1.7c.1-.4.5-.6.9-.6s.7.2.9.6Z"/>
      <path class="st6" d="M48,444.6h-3.2c.1-.8.8-1.3,1.6-1.3s1.4.5,1.6,1.3Z"/>
      <path class="st6" d="M4.4,440.3l-1.9,3.8v-.5l1.4-3.5c.2,0,.3,0,.5.2Z"/>
      <path class="st6" d="M4.6,432.1c0,.4-.3.8-.7.9v-1.8c.4.1.7.5.7.9Z"/>
      <path class="st6" d="M5.2,434.9c0,.8-.6,1.5-1.4,1.6v-3.2c.8.1,1.4.8,1.4,1.6Z"/>
      <path class="st6" d="M4.6,20.8c0,.4-.3.8-.7.9v-1.8c.4.1.7.5.7.9Z"/>
      <path class="st6" d="M5.2,18c0,.8-.6,1.5-1.4,1.6v-3.2c.8.1,1.4.8,1.4,1.6Z"/>
      <path class="st6" d="M4.6,437.7c0,.4-.3.8-.7.9v-1.8c.4.1.7.5.7.9Z"/>
      <path class="st6" d="M5.2,12.5c-.2,0-.3.1-.5.2l-2.2-4.4v-.3l2.7,4.4Z"/>
      <path class="st6" d="M4.5,12.8c-.2,0-.3.1-.5.2l-1.5-3.6v-.5l2,3.9Z"/>
      <path class="st6" d="M5.1,440.6l-2.6,4.3v-.3l2.2-4.3c.2,0,.3.1.5.2Z"/>
      <path class="st6" d="M3.7,13c-.2,0-.3,0-.5,0l-.7-2.2v-.9l1.2,3Z"/>
      <path class="st6" d="M3,13.2c-.2,0-.3,0-.5,0v-1.5l.5,1.4Z"/>
      <path class="st6" d="M32.5,2.8c0,.6-.5,1.9-.8,3.2l-.2.6h-2.1l-.2-.6c-.4-1.3-.8-2.7-.8-3.2l2-.7,2,.7Z"/>
      <path class="st6" d="M52.1,8.1h-2s0,0,0,0h-1.9s0,0,0,0h-.1s-.1,0-.1,0h0s-3.2,0-3.2,0h0s-.1,0-.1,0h-.1s0,0,0,0h-1.9s0,0,0,0h-.2s-23.9,0-23.9,0h-.2s0,0,0,0h-1.9s0,0,0,0h-.1s-.1,0-.1,0h0s-3.2,0-3.2,0h0s-.1,0-.1,0h-.1s0,0,0,0h-1.8s0,0,0,0h-.2s-2,0-2,0c0-.2,0-.5,0-.7,0-.1,0-.2,0-.4h43.2c0,.1,0,.2,0,.4,0,.2,0,.4.1.7Z"/>
      <polygon class="st6" points="36 5.2 34.3 6.6 33 6.6 33.9 4.8 36 5.2"/>
      <path class="st6" d="M29.2,6.6h-.9l-1.3-2.5,1.4-.5c.2.7.4,1.6.7,2.5v.5Z"/>
      <path class="st6" d="M55.4,7.1l-2.6,1.6c0-.2,0-.3-.1-.4h0s2.2-1.2,2.2-1.2h.6Z"/>
      <path class="st6" d="M34,4.1l-1.3,2.5h-.9v-.5c.4-.9.7-1.8.8-2.5l1.4.5Z"/>
      <path class="st6" d="M58,7.1l-3.6,4.2c-.1-.1-.3-.2-.4-.4l3.8-3.8h.1Z"/>
      <polygon class="st6" points="28 6.6 26.7 6.6 25 5.2 27.1 4.8 28 6.6"/>
      <path class="st6" d="M56.3,7.1l-3.2,2.3c0-.2-.1-.3-.2-.5l3-1.8h.4Z"/>
      <path class="st6" d="M57.5,7.1l-3.6,3.7c-.1-.1-.2-.3-.3-.4l3.8-3.2h.2Z"/>
      <path class="st6" d="M57,7.1l-3.5,3c0-.1-.2-.3-.2-.5l3.5-2.5h.3Z"/>
      <path class="st6" d="M58.4,7.1l-3.4,4.7c-.1,0-.3-.2-.4-.3l3.8-4.4h0Z"/>
      <path class="st6" d="M58.5,444.7v.3l-2.6-4.3c.2,0,.3-.1.5-.2l2.2,4.3Z"/>
      <path class="st6" d="M52.1,444.9c0,.2,0,.5,0,.7,0,.1,0,.3,0,.4H9c0-.1,0-.2,0-.4,0-.2,0-.4-.1-.7h43.3Z"/>
      <path class="st6" d="M54.3,445.9h-1.8c0-.1,0-.2,0-.3,0-.2,0-.3,0-.5l1.7.9Z"/>
      <path class="st6" d="M57,4.3h-6s0,0-.1,0c0,0,0,0,0,0,0,0,0,0,0,0,0-.5-.1-1-.5-1.4-.7-.8-2-1.4-3.5-1.4-1.9,0-3.6.8-3.7,2,0,.3,0,.6.3.9,0,0,0,0,0,0,.5.5,1.2.8,2.2.8h.2c.9,0,1.7-.3,2-.8,0-.1.1-.3.2-.4,0-.2,0-.4-.2-.5-.3-.3-.8-.5-1.4-.6-.7,0-1.4.3-1.4.7,0,0,0,.2.1.3.2.2.5.3.9.3.4,0,.8-.2.9-.4,0,0,0-.1,0-.2-.1-.1-.3-.2-.5-.2h0c-.3,0-.5.1-.5.2,0,0,0,.1-.1.1,0,0-.1,0-.1-.1,0-.3.4-.5.8-.5.3,0,.6.1.7.3,0,0,.1.2.1.3,0,.2-.2.4-.4.5-.2,0-.4.2-.6.2h0c-.2,0-.5,0-.7-.2-.2,0-.3-.2-.4-.3-.1-.2-.2-.3-.2-.5,0-.6.8-1,1.7-1,.7,0,1.3.3,1.6.6.2.2.3.5.2.7,0,.1,0,.2-.1.4-.3.6-1.2,1.1-2.3,1.1h-.2c-1,0-1.9-.4-2.4-1,0,0,0,0,0,0h-5c-1.4-1.8-4.3-3-7.6-3s-6.2,1.2-7.6,3h-5.1s0,0,0,0c-.5.6-1.4,1-2.4,1h-.2c-1.1,0-2-.4-2.3-1.1,0-.1-.1-.2-.1-.4,0-.2,0-.5.2-.7.3-.4.9-.6,1.6-.6.9,0,1.6.4,1.7,1,0,.2,0,.3-.2.5-.1.1-.2.2-.4.3-.2,0-.4.1-.6.2-.3,0-.5,0-.7-.2-.2-.1-.4-.3-.4-.5,0-.1,0-.2.1-.3.1-.2.4-.3.7-.3.4,0,.7.2.8.5,0,0,0,.1-.1.1s-.1,0-.1-.1c0-.1-.2-.2-.5-.2-.2,0-.4,0-.5.2,0,0,0,.1,0,.2,0,.2.4.4.9.4.4,0,.7-.2.9-.3,0,0,.1-.2.1-.3,0-.4-.7-.8-1.4-.7-.6,0-1.1.2-1.4.6-.1.2-.2.3-.2.5,0,.1,0,.3.2.4.3.5,1.2.9,2.1.8.9,0,1.7-.3,2.2-.8,0,0,0,0,0,0,.2-.3.3-.6.3-.9-.1-1.2-1.8-2.1-3.7-2-1.5,0-2.8.6-3.6,1.4-.4.4-.5.9-.5,1.4,0,0,0,0,0,0,0,0,0,0,0,0,0,0,0,0-.1,0h-6c-1.6,1.6-2.4,2.4-4,4v436.7l4,4h6s0,0,0-.1c0,0,0-.1.1-.1s.1,0,.1.1c0,0,0,0,0,0,0,.5.1.9.5,1.3.7.8,2,1.4,3.6,1.4,1.9.1,3.6-.8,3.7-2,0-.3,0-.6-.2-.8,0,0,0,0,0,0-.4-.5-1.3-.9-2.2-.9-1.1,0-2,.4-2.2,1,0,0,0,.2,0,.2,0,.2,0,.4.2.5.3.3.8.5,1.4.6.7,0,1.4-.3,1.4-.7,0-.1,0-.2-.1-.3-.1-.1-.3-.2-.5-.3h-.8c-.2,0-.4.2-.4.4,0,0,0,.1,0,.2,0,.1.3.2.5.2.3,0,.5-.1.5-.2,0,0,0-.1.1-.1s.1,0,.1.1c0,.3-.4.5-.8.5-.3,0-.6-.1-.7-.3,0-.1-.1-.2-.1-.3,0-.1,0-.2.2-.4.2-.2.6-.3,1-.3.4,0,.7.1.9.3,0,0,0,0,.1.1.1.2.2.3.2.5,0,.6-.8,1-1.7,1-.7,0-1.3-.3-1.6-.6-.2-.2-.3-.5-.2-.7,0,0,0-.2,0-.2.2-.7,1.2-1.2,2.4-1.2h.2c1,0,1.9.4,2.4,1,0,0,.1.2.2.2h5.1c1.5,1.7,4.2,2.9,7.4,2.9s6-1.2,7.4-2.9h5.1c0,0,0-.2.2-.2.5-.6,1.4-.9,2.4-1h.2c1.1,0,2.1.5,2.4,1.2,0,0,0,.1,0,.2,0,.2,0,.5-.2.7-.3.4-.9.6-1.6.6-.9,0-1.6-.4-1.7-1,0-.2,0-.3.2-.5,0,0,0,0,.1-.1.2-.2.6-.3.9-.3h0c.4,0,.7.1.9.3,0,.1.2.2.2.4,0,.1,0,.2-.1.3-.1.2-.4.3-.7.3-.4,0-.7-.2-.8-.5,0,0,0-.1.1-.1,0,0,.1,0,.1.1,0,.1.2.2.5.2h0c.2,0,.4,0,.5-.2,0,0,0-.1,0-.2,0-.2-.2-.3-.4-.4h-.8c-.2,0-.4.2-.5.3,0,0-.1.2-.1.3,0,.4.7.8,1.4.7.6,0,1.1-.2,1.4-.6.1-.2.2-.3.2-.5,0,0,0-.2,0-.2-.2-.6-1.1-1-2.1-1h-.2c-1,0-1.8.4-2.2.9,0,0,0,0,0,0-.2.2-.3.5-.2.8.1,1.2,1.8,2,3.7,2,1.5,0,2.8-.6,3.5-1.4.4-.4.5-.9.5-1.3,0,0,0,0,0,0,0,0,0-.1.1-.1,0,0,.1,0,.1.1,0,0,0,0,0,.1h5.9l4-4V8.3c-1.6-1.6-2.4-2.4-4-4ZM59,446.4h-24.3l1.8,1.5-2.5.5.3.7-1.7.6c0,.3.1.5.1.6h0c0,.1-2.3.9-2.3.9h0s-2.3-.8-2.3-.8h0c0-.2,0-.5.1-.7l-1.7-.6.3-.7-2.5-.5,1.8-1.5H2V6.6h24.3l-1.8-1.5,2.5-.5-.3-.7,1.7-.6c0-.3-.1-.5-.1-.6h0c0,0,2.3-.9,2.3-.9l2.3.8h0c0,.2,0,.5-.1.7l1.7.6-.3.7,2.5.5-1.8,1.5h24.3v439.8Z"/>
      <path class="st6" d="M54.3,7.1l-1.7.9c0-.2,0-.4,0-.5,0-.1,0-.2,0-.3h1.8Z"/>
      <path class="st6" d="M8.5,445.9h-1.8l1.7-.9c0,.2,0,.4,0,.5,0,.1,0,.2,0,.3Z"/>
      <path class="st6" d="M29.2,446.4v.5c-.4.9-.7,1.8-.8,2.5l-1.4-.5,1.3-2.5h.9Z"/>
      <polygon class="st6" points="28 446.4 27.1 448.2 25 447.8 26.7 446.4 28 446.4"/>
      <path class="st6" d="M34,448.9l-1.4.5c-.2-.7-.4-1.6-.7-2.5v-.5c-.1,0,.7,0,.7,0l1.3,2.5Z"/>
      <path class="st6" d="M32.5,450.2l-2,.7-2-.7c0-.6.5-1.9.8-3.2l.2-.6h2.1l.2.6c.4,1.3.8,2.7.8,3.2Z"/>
      <polygon class="st6" points="36 447.8 33.9 448.2 33 446.4 34.3 446.4 36 447.8"/>
      <path class="st6" d="M57.1,433.3v3.2c-.8-.1-1.3-.8-1.3-1.6s.6-1.4,1.3-1.6Z"/>
      <path class="st6" d="M57.1,431.2v1.8c-.4-.1-.7-.5-.7-.9s.3-.8.7-.9Z"/>
      <path class="st6" d="M58.5,8.9v.5l-1.4,3.5c-.2,0-.3-.1-.5-.2l1.9-3.8Z"/>
      <path class="st6" d="M57.1,19.9v1.8c-.4-.1-.7-.5-.7-.9s.3-.8.7-.9Z"/>
      <path class="st6" d="M57.1,436.9v1.8c-.4-.1-.7-.5-.7-.9s.3-.8.7-.9Z"/>
      <path class="st6" d="M57.1,16.4v3.2c-.8-.1-1.3-.8-1.3-1.6s.6-1.5,1.3-1.6Z"/>
      <path class="st6" d="M58.5,439.9v1.3l-.4-1.3c.1,0,.3,0,.4,0Z"/>
      <path class="st6" d="M58.5,10v.9l-.7,2.1c-.2,0-.3,0-.5,0l1.2-2.9Z"/>
      <path class="st6" d="M58.5,442.1v.9l-1.2-2.9c.2,0,.3,0,.5-.1l.7,2.1Z"/>
      <path class="st6" d="M57.1,14.3v1.8c-.4-.1-.7-.5-.7-.9s.3-.8.7-.9Z"/>
      <path class="st6" d="M58.5,13.6v425.9c-.2,0-.5,0-.7,0-.2,0-.3,0-.5,0V13.4c.2,0,.3,0,.5,0,.2,0,.4,0,.7,0Z"/>
      <path class="st6" d="M58.5,11.7v1.3c-.1,0-.3,0-.4,0l.4-1.3Z"/>
      <path class="st6" d="M58,445.9h-.1l-3.8-3.8c.1-.1.2-.3.4-.4l3.6,4.2Z"/>
      <path class="st6" d="M58.4,445.9h0l-3.8-4.4c.1-.1.3-.2.4-.3l3.4,4.7Z"/>
      <path class="st6" d="M58.5,7.4v.2l-2.9,4.7c-.2,0-.3-.2-.5-.3l3.3-4.6Z"/>
      <path class="st6" d="M58.5,445.4v.2l-3.3-4.6c.2-.1.3-.2.5-.3l2.9,4.7Z"/>
      <path class="st6" d="M57.5,445.9h-.2l-3.8-3.2c0-.2.2-.3.3-.4l3.7,3.7Z"/>
      <path class="st6" d="M57,445.9h-.3l-3.5-2.6c0-.2.2-.3.2-.4l3.5,3Z"/>
      <path class="st6" d="M58.5,8v.3l-2.2,4.3c-.2,0-.3-.2-.5-.2l2.6-4.3Z"/>
      <path class="st6" d="M55.4,445.9h-.6l-2.2-1.1c0-.2,0-.3.1-.5l2.6,1.6Z"/>
      <path class="st6" d="M56.3,445.9h-.4l-3-1.8c0-.2.1-.3.2-.5l3.2,2.3Z"/>
    </g>
  </g>
</svg>